<svg width="79" height="79" viewBox="0 0 79 79" fill="none" xmlns="http://www.w3.org/2000/svg">
<path d="M39.9398 78.2239C61.4988 78.2239 78.9759 60.7468 78.9759 39.1879C78.9759 17.6289 61.4988 0.151855 39.9398 0.151855C18.3807 0.151855 0.903687 17.6289 0.903687 39.1879C0.903687 60.7468 18.3807 78.2239 39.9398 78.2239Z" fill="#FFE600"/>
<mask id="mask0_309_644" style="mask-type:luminance" maskUnits="userSpaceOnUse" x="0" y="0" width="79" height="79">
<path d="M39.9398 78.2216C61.4988 78.2216 78.9759 60.7446 78.9759 39.1857C78.9759 17.6267 61.4988 0.149658 39.9398 0.149658C18.3807 0.149658 0.903687 17.6267 0.903687 39.1857C0.903687 60.7446 18.3807 78.2216 39.9398 78.2216Z" fill="white"/>
</mask>
<g mask="url(#mask0_309_644)">
<path d="M78.9865 39.1851C78.9878 41.5146 78.7818 43.8395 78.3708 46.1325C78.3547 46.208 78.3433 46.2859 78.3273 46.3614C77.7699 49.3676 76.857 52.2968 75.6078 55.0874C75.3941 55.5681 75.1706 56.0435 74.9371 56.5135C74.6319 57.124 74.3091 57.7344 73.9688 58.3448C73.7078 58.8026 73.4362 59.2605 73.1539 59.7183C71.5577 62.293 69.6689 64.6743 67.525 66.8145C66.9512 67.3883 66.3583 67.9438 65.7463 68.481C63.3819 70.5672 60.7731 72.3589 57.9771 73.8168C57.1698 74.2426 56.3435 74.6379 55.498 75.0026C50.5211 77.1567 45.1509 78.2531 39.7279 78.2224C34.305 78.1916 28.9475 77.0344 23.9954 74.824C23.8992 74.7828 23.8054 74.7393 23.7092 74.6936C20.2884 73.1257 17.1125 71.0709 14.2804 68.5931L14.2392 68.5565C14.1041 68.4397 13.9714 68.3276 13.8409 68.2017C10.4651 65.1656 7.64334 61.5653 5.50168 57.5619C4.85847 56.3596 4.27928 55.124 3.76654 53.8605C3.41097 52.9906 3.08897 52.1063 2.80054 51.2074C2.7662 51.1021 2.73187 50.9968 2.69982 50.8892C2.63801 50.6969 2.5785 50.5024 2.52127 50.3078C2.40681 49.9248 2.2977 49.5341 2.19393 49.1358C0.711296 43.4859 0.512906 37.5757 1.61332 31.8391C2.71374 26.1026 5.08502 20.6853 8.55306 15.9851C8.87811 15.5425 9.21385 15.1083 9.56026 14.6826C10.0578 14.0645 10.5736 13.4632 11.1077 12.8787L11.1672 12.8147L11.5518 12.398L11.5724 12.3774C15.5536 8.1655 20.4224 4.89261 25.8257 2.79624C31.229 0.699877 37.0312 -0.167397 42.8113 0.25735C48.5914 0.682097 54.2045 2.38821 59.2433 5.25191C64.2821 8.1156 68.6202 12.0651 71.9429 16.8137C76.5387 23.3675 78.9987 31.1805 78.9865 39.1851Z" fill="#31CFF4"/>
<path d="M21.9309 50.134H22.0178C21.9751 50.1318 21.9323 50.1318 21.8896 50.134H21.9309Z" fill="#FC565D"/>
<path d="M70.7847 33.7786C70.3658 38.1279 54.0605 35.5045 45.9525 44.2191C42.9171 47.4834 38.007 56.0103 37.2539 58.1048C37.0115 58.8306 36.5589 59.468 35.9536 59.9361C35.3378 60.3687 34.607 60.6078 33.8545 60.6228C33.5083 60.6197 33.1641 60.5697 32.8313 60.474C31.1259 59.9269 30.501 56.3536 30.4529 56.0583C29.6174 50.9994 30.968 46.7303 30.7185 43.7247C29.9928 35.0147 15.766 36.482 3.93593 22.4361C1.64682 19.7212 -1.52358 15.2758 -5.83397 15.2964C-7.41574 15.2964 -9.32714 15.9122 -13.459 15.9282C-15.2903 15.9282 -16.547 15.729 -17.149 15.7817C-21.0886 16.1273 -23.5173 18.1188 -31.4467 18.6957C-42.9907 19.5358 -46.4289 15.9488 -50.8401 19.2016C-50.8401 19.2016 -56.0363 23.0793 -60.0674 24.6542C-62.5122 25.6111 -62.4161 24.9541 -63.92 25.7553C-66.6189 27.1928 -69.9976 34.9391 -69.9976 34.9391C-73.1336 42.0765 -75.3747 42.571 -74.633 44.3656C-73.3603 47.4445 -67.0309 45.3843 -62.0429 50.4638C-61.2486 51.2741 -59.3486 53.2107 -59.9209 55.0122C-60.3124 56.2415 -61.83 57.3013 -63.2584 57.3471C-63.6729 57.3564 -64.0851 57.2841 -64.4717 57.1342C-65.3232 56.8435 -69.8305 55.319 -70.8102 56.3468C-71.648 57.2349 -69.3543 59.3936 -68.7866 64.3334C-68.3906 67.8403 -69.2994 68.8682 -69.7961 69.2459C-70.1384 69.4902 -70.5284 69.6594 -70.9407 69.7426C-71.006 69.816 -71.0877 69.873 -71.1792 69.9088C-71.2707 69.9446 -71.3694 69.9583 -71.4672 69.9486C-72.6415 69.9486 -73.7219 69.2619 -74.1065 68.9323C-76.8122 66.6317 -82.6266 57.322 -88.07 54.1332C-94.5482 50.3402 -100.688 55.0992 -103.927 50.8461C-105.396 48.9141 -105.831 45.6933 -104.478 43.7682C-102.004 40.2407 -96.1185 44.226 -88.5645 41.2341C-85.5887 40.0621 -82.7708 36.2714 -77.119 28.6922C-75.4571 26.4649 -73.3397 23.3769 -74.3354 21.905C-74.455 21.7388 -74.6049 21.5967 -74.7772 21.4861C-76.8924 19.9066 -77.7073 16.7271 -77.8721 16.2212C-79.0418 12.5792 -90.8971 8.2986 -94.3765 6.89996C-96.5443 6.03011 -114.521 -1.91306 -122.471 -16.6663C-123.508 -18.5914 -126.133 -23.8999 -128.457 -23.513C-130.19 -23.2269 -130.146 -20.0427 -132.893 -18.8318C-134.953 -17.9161 -137.826 -18.4403 -139.515 -19.9763C-142.654 -22.824 -140.735 -27.9058 -142.638 -28.6749C-144.613 -29.4692 -146.664 -23.996 -151.854 -22.4943C-157.645 -20.8187 -163.494 -25.1978 -164.425 -25.928C-170.636 -30.7534 -172.055 -38.9896 -172.545 -41.8212C-173.568 -47.7729 -172.316 -50.6525 -174.93 -54.0312C-176.846 -56.4874 -178.529 -56.2517 -181.829 -58.3668C-182.287 -58.6506 -192.542 -65.4103 -192.442 -75.4458C-192.378 -82.7365 -186.891 -87.8206 -185.911 -88.7225C-180.765 -93.4861 -177.315 -91.6068 -175.001 -94.8848C-169.926 -102.068 -184.364 -114.159 -180.184 -125.302C-177.65 -132.055 -169.287 -135.31 -163.963 -136.043C-150.064 -137.956 -135.683 -125.513 -129.771 -112.733C-123.361 -98.8724 -129.153 -89.4665 -121.109 -82.8327C-113.834 -76.8307 -101.933 -78.6162 -101.489 -80.3398C-101.189 -81.5004 -106.122 -82.4596 -108.04 -87.2071C-109.391 -90.5469 -108.448 -93.7814 -108.196 -94.6055C-106.836 -99.0509 -103.103 -101.544 -101.557 -102.553C-88.2646 -111.172 -54.2783 -111.547 -39.9805 -126.298C-23.9362 -142.844 -28.7639 -181.477 -17.6229 -190.571C-16.9659 -191.107 -13.9992 -193.378 -14.3929 -195.724C-14.8828 -198.656 -20.0653 -198.487 -23.6981 -201.809C-29.8329 -207.41 -29.8787 -221.401 -23.927 -226.229C-18.6621 -230.493 -11.0142 -225.695 -8.83498 -229.003C-5.63023 -233.872 -21.8394 -244.848 -18.9574 -254.822C-17.1971 -260.918 -8.48016 -265.958 -1.2878 -263.951C4.81267 -262.245 8.87354 -255.85 9.24209 -250.646C9.45726 -247.577 8.41113 -244.594 9.08641 -244.354C9.7617 -244.113 10.762 -247.247 13.2068 -249.255C16.8579 -252.249 22.8325 -252.022 26.1128 -250.646C37.6109 -245.839 42.5302 -219.959 33.0625 -208.756C29.9951 -205.114 25.465 -203.104 25.9983 -200.124C26.4813 -197.397 30.5262 -197.633 35.5256 -194.509C45.8952 -188.035 44.2906 -177.18 54.2436 -173.22C54.5892 -173.083 54.9944 -172.954 54.9944 -172.954C56.7045 -172.372 58.4591 -171.929 60.241 -171.631C62.505 -171.235 72.6136 -169.473 73.3736 -165.661C73.7399 -163.83 71.7713 -161.921 67.8157 -158.107C63.7159 -154.159 62.6835 -154.47 61.4566 -152.614C58.776 -148.557 61.1315 -143.18 63.9196 -134.582C65.9638 -128.276 67.1747 -121.72 69.1708 -115.395C74.1336 -99.6942 75.3835 -58.8704 54.4633 -33.308C46.8109 -23.9685 35.2829 -9.88599 26.1196 -3.88627C24.6363 -2.91569 21.2645 -0.878378 19.0784 3.19622C18.4969 4.28125 15.2395 9.53473 16.1598 15.301C17.8308 25.7782 32.3918 33.3414 39.6414 30.0428C46.0074 27.1425 47.1382 18.4622 52.0232 18.92C54.5709 19.1489 57.517 21.921 57.3682 23.5921C57.2217 25.1944 56.9791 25.7095 56.9791 25.7095C56.7639 26.6022 56.6037 26.9387 56.6517 27.2638C56.6715 27.3528 56.6983 27.44 56.7318 27.5248C57.1187 28.4404 61.864 27.7354 64.8994 28.548C67.6875 29.2874 70.9701 31.8397 70.7847 33.7786Z" fill="#FDB157"/>
<path d="M21.9309 50.134H22.0178C21.9751 50.1318 21.9323 50.1318 21.8896 50.134H21.9309Z" fill="#FC565D"/>
</g>
</svg>
