<svg width="79" height="79" viewBox="0 0 79 79" fill="none" xmlns="http://www.w3.org/2000/svg">
<path d="M39.8385 78.2195C61.3975 78.2195 78.8746 60.7424 78.8746 39.1835C78.8746 17.6245 61.3975 0.147461 39.8385 0.147461C18.2794 0.147461 0.802368 17.6245 0.802368 39.1835C0.802368 60.7424 18.2794 78.2195 39.8385 78.2195Z" fill="#FFE600"/>
<mask id="mask0_309_743" style="mask-type:luminance" maskUnits="userSpaceOnUse" x="0" y="0" width="79" height="79">
<path d="M39.8385 78.2195C61.3975 78.2195 78.8746 60.7424 78.8746 39.1835C78.8746 17.6245 61.3975 0.147461 39.8385 0.147461C18.2794 0.147461 0.802368 17.6245 0.802368 39.1835C0.802368 60.7424 18.2794 78.2195 39.8385 78.2195Z" fill="white"/>
</mask>
<g mask="url(#mask0_309_743)">
<path d="M78.8765 39.1782C78.8778 41.5077 78.6718 43.8327 78.2608 46.1256C78.2447 46.2012 78.2333 46.279 78.2173 46.3546C77.6599 49.3608 76.747 52.29 75.4978 55.0806C75.2842 55.5613 75.0606 56.0367 74.8271 56.5067C74.5219 57.1171 74.1991 57.7276 73.8588 58.338C73.5979 58.7958 73.3262 59.2536 73.0439 59.7115C71.4477 62.2862 69.5589 64.6674 67.415 66.8077C66.8412 67.3815 66.2483 67.9369 65.6364 68.4741C63.2719 70.5604 60.6631 72.3521 57.8671 73.81C57.0598 74.2358 56.2335 74.631 55.388 74.9958C50.4111 77.1498 45.0409 78.2463 39.6179 78.2155C34.195 78.1848 28.8375 77.0276 23.8854 74.8172C23.7892 74.776 23.6954 74.7325 23.5992 74.6867C20.1784 73.1189 17.0025 71.0641 14.1704 68.5863L14.1292 68.5497C13.9942 68.4329 13.8614 68.3208 13.7309 68.1948C10.3552 65.1587 7.53335 61.5585 5.3917 57.5551C4.74848 56.3527 4.1693 55.1172 3.65656 53.8536C3.30098 52.9838 2.97898 52.0994 2.69055 51.2006C2.65622 51.0953 2.62188 50.99 2.58983 50.8824C2.52803 50.6901 2.46851 50.4955 2.41128 50.301C2.29683 49.9179 2.18771 49.5272 2.08394 49.1289C0.60131 43.4791 0.402921 37.5689 1.50334 31.8323C2.60376 26.0957 4.97504 20.6784 8.44307 15.9782C8.76813 15.5357 9.10386 15.1015 9.45028 14.6757C9.94778 14.0577 10.4636 13.4564 10.9977 12.8719L11.0572 12.8078L11.4418 12.3912L11.4624 12.3706C15.4436 8.15866 20.3124 4.88578 25.7157 2.78941C31.119 0.693041 36.9212 -0.174232 42.7013 0.250514C48.4814 0.675261 54.0945 2.38138 59.1333 5.24507C64.1721 8.10876 68.5102 12.0582 71.833 16.8069C76.4287 23.3606 78.8887 31.1737 78.8765 39.1782Z" fill="#FC565D"/>
<path d="M46.5315 65.3523H46.6208C46.5766 65.35 46.5323 65.35 46.488 65.3523H46.5315Z" fill="#31CFF4"/>
<path d="M96.4867 62.6346C96.3539 64.0264 91.1439 63.1863 88.5526 65.9721C87.5821 67.0136 86.014 69.7377 85.7691 70.4084C85.6927 70.6408 85.5484 70.8449 85.3548 70.9944C85.2135 71.0992 85.0496 71.1695 84.8764 71.1997C84.7031 71.2299 84.5251 71.2191 84.3567 71.1684C83.8119 70.9921 83.6128 69.8498 83.5967 69.756C83.3289 68.1399 83.7616 66.7802 83.6814 65.8164C83.4525 63.0329 78.9041 63.5022 75.1202 59.0155C74.39 58.148 73.3759 56.7264 71.9978 56.7264C71.4942 56.7264 70.8831 56.9233 69.5622 56.9302C68.9762 56.9302 68.5756 56.8661 68.3834 56.8821C67.1243 56.992 66.3483 57.6283 63.8051 57.8138C60.1151 58.0816 59.0186 56.9325 57.6085 57.974C57.6085 57.974 55.9466 59.2147 54.6602 59.7183C53.8773 60.0227 53.9093 59.8144 53.4286 60.0685C52.5656 60.5263 51.4852 63.0031 51.4852 63.0031C50.4848 65.2922 49.7684 65.4433 50.0041 66.0156C50.4116 66.9999 52.4352 66.3429 54.0238 67.9659C54.2779 68.2246 54.8845 68.8426 54.7105 69.4195C54.6215 69.6316 54.4743 69.8141 54.286 69.9462C54.0976 70.0782 53.8758 70.1543 53.6461 70.1657C53.5132 70.1682 53.381 70.1449 53.2569 70.0971C52.9845 70.0032 51.5447 69.5156 51.2311 69.8453C50.9633 70.1291 51.6889 70.8181 51.8789 72.3976C52.0048 73.517 51.7141 73.8466 51.5561 73.9679C51.4458 74.0459 51.3202 74.0997 51.1876 74.1259C51.1673 74.1497 51.1414 74.1682 51.1123 74.1798C51.0832 74.1914 51.0516 74.1956 51.0205 74.1923C50.712 74.1777 50.4164 74.0636 50.1781 73.8672C49.3128 73.1324 47.4541 70.1566 45.7143 69.1379C43.6542 67.9247 41.6809 69.447 40.6486 68.0872C40.177 67.4692 40.0397 66.4414 40.47 65.8256C41.262 64.6971 43.1414 65.9698 45.5564 65.0153C46.5041 64.6421 47.4083 63.4312 49.219 61.0071C49.75 60.2974 50.4276 59.3085 50.1094 58.8393C50.0711 58.7863 50.0229 58.7412 49.9675 58.7065C49.2922 58.2006 49.0313 57.1843 48.9786 57.0217C48.6055 55.8589 44.817 54.49 43.7137 54.0459C43.0269 53.7666 37.2744 51.2303 34.7358 46.5148C34.4062 45.9013 33.5661 44.2051 32.8244 44.3264C32.2704 44.418 32.2842 45.4366 31.4074 45.8235C31.0542 45.9584 30.6711 45.9955 30.2984 45.9311C29.9258 45.8666 29.5775 45.7029 29.29 45.4572C28.2874 44.5416 28.9009 42.9255 28.292 42.6805C27.6831 42.4356 27.0055 44.1753 25.3482 44.656C23.4963 45.1917 21.6284 43.7907 21.3308 43.5595C19.3461 42.0167 18.8929 39.3865 18.735 38.48C18.4099 36.5801 18.8128 35.6599 17.9727 34.5886C17.3615 33.8034 16.8281 33.8789 15.7683 33.2014C15.6241 33.1121 12.3346 30.9512 12.3781 27.7442C12.3987 25.4161 14.1522 23.7909 14.4635 23.5002C16.1094 21.9779 17.2104 22.5845 17.9498 21.5315C19.5728 19.2424 14.9579 15.3739 16.2948 11.812C17.1051 9.65341 19.7765 8.6073 21.4773 8.37839C25.9182 7.7672 30.5147 11.7411 32.4032 15.8271C34.4634 20.2542 32.6024 23.2598 35.173 25.3818C37.4965 27.3001 41.2987 26.7278 41.4406 26.1784C41.5367 25.8076 39.9618 25.4917 39.3483 23.9832C39.067 23.2229 39.0493 22.3901 39.298 21.6185C39.7329 20.197 40.9255 19.4004 41.4223 19.0776C45.6709 16.3307 56.5304 16.2048 61.1086 11.4916C66.2362 6.20374 64.691 -6.1345 68.2529 -9.04852C68.4635 -9.21791 69.4112 -9.94356 69.2853 -10.6944C69.1296 -11.6306 67.4746 -11.578 66.3094 -12.6378C64.35 -14.4279 64.3339 -18.8985 66.2362 -20.4414C67.9232 -21.8148 70.3566 -20.272 71.0593 -21.3295C72.0848 -22.8838 66.9046 -26.3907 67.8248 -29.5703C68.3879 -31.5183 71.1738 -33.1298 73.472 -32.4866C75.4201 -31.9418 76.718 -29.8976 76.8347 -28.2357C76.9034 -27.256 76.5692 -26.3015 76.7844 -26.2259C76.9995 -26.1504 77.32 -27.1416 78.1029 -27.7917C79.2703 -28.7485 81.1794 -28.6753 82.2233 -28.2357C85.8973 -26.6952 87.4699 -18.4292 84.4437 -14.8491C83.464 -13.6839 82.015 -13.043 82.1866 -12.1022C82.34 -11.23 83.6334 -11.3056 85.2312 -10.3075C88.5435 -8.24734 88.0307 -4.7702 91.2126 -3.50661C91.3225 -3.46312 91.4529 -3.42192 91.4529 -3.42192C91.9989 -3.23496 92.5593 -3.09332 93.1286 -2.99843C93.8519 -2.87253 97.0819 -2.31171 97.3245 -1.09162C97.4412 -0.503318 96.8117 0.105585 95.5482 1.3211C94.2388 2.58239 93.9092 2.48396 93.5154 3.07683C92.6433 4.37017 93.3964 6.09386 94.2869 8.84078C94.9415 10.8552 95.3284 12.9612 95.9671 14.971C97.5511 19.9887 97.9517 33.0343 91.2652 41.2018C88.8251 44.1776 85.1419 48.6848 82.2141 50.6008C81.2772 51.1434 80.5008 51.9246 79.9639 52.8647C79.7762 53.2104 78.737 54.8906 79.03 56.731C79.5656 60.08 84.2171 62.4973 86.5337 61.442C88.571 60.5263 88.9303 57.7451 90.4892 57.887C91.3042 57.9603 92.2473 58.8461 92.1992 59.3795C92.1914 59.6096 92.149 59.8373 92.0733 60.0548C92.0144 60.2151 91.9797 60.3833 91.9703 60.5538C91.9765 60.5819 91.9849 60.6095 91.9955 60.6362C92.1191 60.9315 93.6345 60.7026 94.605 60.9636C95.4955 61.197 96.5462 62.012 96.4867 62.6346Z" fill="#31CFF4"/>
<path d="M46.5315 65.3523H46.6208C46.5766 65.35 46.5323 65.35 46.488 65.3523H46.5315Z" fill="#31CFF4"/>
</g>
</svg>
