<svg width="79" height="79" viewBox="0 0 79 79" fill="none" xmlns="http://www.w3.org/2000/svg">
<path d="M39.9377 78.1494C61.4968 78.1494 78.9738 60.6724 78.9738 39.1134C78.9738 17.5544 61.4968 0.0773926 39.9377 0.0773926C18.3787 0.0773926 0.901611 17.5544 0.901611 39.1134C0.901611 60.6724 18.3787 78.1494 39.9377 78.1494Z" fill="#FFE600"/>
<mask id="mask0_309_754" style="mask-type:luminance" maskUnits="userSpaceOnUse" x="0" y="0" width="79" height="79">
<path d="M39.9377 78.1472C61.4968 78.1472 78.9738 60.6702 78.9738 39.1112C78.9738 17.5522 61.4968 0.0751953 39.9377 0.0751953C18.3787 0.0751953 0.901611 17.5522 0.901611 39.1112C0.901611 60.6702 18.3787 78.1472 39.9377 78.1472Z" fill="white"/>
</mask>
<g mask="url(#mask0_309_754)">
<path d="M78.9761 39.1113C78.9775 41.4408 78.7714 43.7658 78.3604 46.0588C78.3444 46.1343 78.3329 46.2121 78.3169 46.2877C77.7595 49.2939 76.8466 52.2231 75.5974 55.0137C75.3838 55.4944 75.1602 55.9698 74.9267 56.4398C74.6215 57.0502 74.2987 57.6607 73.9584 58.2711C73.6975 58.7289 73.4258 59.1867 73.1435 59.6446C71.5474 62.2193 69.6585 64.6005 67.5146 66.7408C66.9408 67.3146 66.3479 67.8701 65.736 68.4072C63.3715 70.4935 60.7627 72.2852 57.9667 73.7431C57.1594 74.1689 56.3331 74.5641 55.4876 74.9289C50.5107 77.083 45.1405 78.1794 39.7176 78.1487C34.2946 78.1179 28.9371 76.9607 23.985 74.7503C23.8888 74.7091 23.795 74.6656 23.6988 74.6198C20.278 73.052 17.1021 70.9972 14.27 68.5194L14.2288 68.4828C14.0938 68.366 13.961 68.2539 13.8305 68.128C10.4548 65.0918 7.63296 61.4916 5.49131 57.4882C4.84809 56.2858 4.26891 55.0503 3.75616 53.7867C3.40059 52.9169 3.07859 52.0325 2.79016 51.1337C2.75583 51.0284 2.72149 50.9231 2.68944 50.8155C2.62764 50.6232 2.56812 50.4286 2.51089 50.2341C2.39644 49.851 2.28732 49.4604 2.18355 49.062C0.70092 43.4122 0.50253 37.502 1.60295 31.7654C2.70337 26.0288 5.07465 20.6115 8.54268 15.9113C8.86774 15.4688 9.20347 15.0346 9.54989 14.6088C10.0474 13.9908 10.5632 13.3895 11.0973 12.805L11.1568 12.7409L11.5414 12.3243L11.562 12.3037C15.5432 8.09177 20.412 4.81888 25.8153 2.72251C31.2186 0.626146 37.0208 -0.241127 42.8009 0.18362C48.581 0.608367 54.1941 2.31448 59.2329 5.17818C64.2717 8.04187 68.6099 11.9913 71.9326 16.74C76.5284 23.2937 78.9883 31.1068 78.9761 39.1113Z" fill="#FC565D"/>
<path d="M53.075 152.037C52.8301 154.573 43.3303 153.042 38.6056 158.121C36.8361 160.024 33.9747 164.989 33.5283 166.213C33.3879 166.638 33.1241 167.011 32.7706 167.285C32.4121 167.537 31.9865 167.676 31.5483 167.685C31.3468 167.684 31.1465 167.655 30.9531 167.598C29.9573 167.28 29.5934 165.195 29.5659 165.025C29.0783 162.077 29.8658 159.589 29.7216 157.84C29.2981 152.758 21.0069 153.619 14.1076 145.433C12.7753 143.851 10.928 141.262 8.41457 141.274C7.49892 141.274 6.37955 141.631 3.9737 141.64C2.90469 141.64 2.17218 141.525 1.82195 141.555C-0.471736 141.77 -1.8887 142.915 -6.5104 143.258C-13.2381 143.748 -15.241 141.656 -17.8117 143.554C-17.8117 143.554 -20.8402 145.813 -23.1888 146.731C-24.6126 147.287 -24.5623 146.905 -25.4344 147.372C-27.007 148.21 -28.9757 152.724 -28.9757 152.724C-30.807 156.883 -32.1095 157.171 -31.6768 158.217C-30.9351 160.012 -27.2451 158.81 -24.3517 161.77C-23.8939 162.244 -22.7814 163.373 -23.1156 164.421C-23.3445 165.137 -24.2281 165.758 -25.059 165.783C-25.3005 165.787 -25.5406 165.745 -25.7663 165.659C-26.2631 165.49 -28.8887 164.599 -29.461 165.202C-29.9485 165.719 -28.6117 166.976 -28.2821 169.855C-28.0532 171.899 -28.5797 172.499 -28.8681 172.719C-29.0689 172.861 -29.2974 172.959 -29.5388 173.007C-29.5766 173.05 -29.6242 173.084 -29.6775 173.105C-29.7309 173.126 -29.7884 173.134 -29.8455 173.129C-30.4084 173.1 -30.9475 172.893 -31.3838 172.536C-32.961 171.197 -36.3489 165.769 -39.5216 163.91C-43.2963 161.701 -46.8765 164.476 -48.7627 161.997C-49.6188 160.871 -49.8729 158.993 -49.0855 157.876C-47.641 155.816 -44.212 158.137 -39.81 156.4C-38.0817 155.713 -36.4359 153.509 -33.1373 149.091C-32.1713 147.793 -30.9351 145.994 -31.5166 145.135C-31.5858 145.038 -31.6728 144.955 -31.773 144.89C-33.0045 143.975 -33.4806 142.118 -33.5768 141.821C-34.2635 139.699 -41.1674 137.206 -43.191 136.391C-44.4546 135.883 -54.9364 131.254 -59.565 122.656C-60.1693 121.535 -61.6984 118.442 -63.0536 118.666C-64.0631 118.834 -64.0379 120.69 -65.638 121.395C-66.8352 121.924 -68.5131 121.624 -69.4974 120.729C-71.3287 119.069 -70.2093 116.107 -71.3287 115.661C-72.4732 115.203 -73.675 118.387 -76.6989 119.264C-80.0731 120.241 -83.4815 117.689 -84.0241 117.266C-87.6431 114.454 -88.4718 109.654 -88.7556 108.004C-89.3531 104.538 -88.616 102.858 -90.1474 100.889C-91.2645 99.4586 -92.2442 99.5937 -94.1671 98.3713C-94.4326 98.2065 -100.409 94.2669 -100.348 88.4183C-100.309 84.1697 -97.1132 81.2076 -96.5409 80.6788C-93.5422 77.9022 -91.5323 78.9986 -90.184 77.0872C-87.2265 72.9005 -95.639 65.8569 -93.2034 59.3628C-91.7269 55.4278 -86.8534 53.5301 -83.7517 53.1044C-75.6505 51.9896 -67.2701 59.2369 -63.8364 66.6879C-60.1006 74.7638 -63.4771 80.2462 -58.789 84.1125C-54.5496 87.6102 -47.6159 86.5687 -47.3434 85.5638C-47.1695 84.8885 -50.0446 84.33 -51.1617 81.5601C-51.9491 79.6144 -51.3906 77.7305 -51.2532 77.2498C-50.4589 74.6585 -48.2774 73.2049 -47.3778 72.6189C-39.6154 67.5806 -19.817 67.3609 -11.48 58.7653C-2.12905 49.1236 -4.94694 26.6103 1.54954 21.3088C1.93182 20.9975 3.6601 19.6744 3.43119 18.3055C3.14505 16.5978 0.12572 16.7031 -1.9917 14.762C-5.56728 11.4977 -5.59476 3.34393 -2.12447 0.532919C0.949794 -1.95533 5.39982 0.841948 6.67027 -1.08547C8.54047 -3.92396 -0.908961 -10.3197 0.771242 -16.1317C1.79676 -19.6844 6.87629 -22.6213 11.0676 -21.4424C14.6226 -20.449 16.9896 -16.7223 17.2024 -13.6892C17.3283 -11.9015 16.7171 -10.1617 17.1109 -10.0267C17.5046 -9.89164 18.0883 -11.7138 19.5144 -12.8835C21.641 -14.6278 25.125 -14.4859 27.0342 -13.6938C33.7366 -10.8897 36.6118 4.19548 31.0836 10.7148C29.2981 12.8368 26.6587 14.0088 26.9632 15.7508C27.2447 17.3395 29.6025 17.2021 32.5165 19.022C38.5598 22.7944 37.6235 29.1192 43.4241 31.4243C43.6256 31.5044 43.8613 31.5777 43.8613 31.5777C44.8596 31.9182 45.8839 32.1769 46.9242 32.3514C48.2427 32.5803 54.1326 33.6081 54.5766 35.8285C54.7895 36.8998 53.6404 38.01 51.3376 40.2259C48.9477 42.5287 48.3457 42.3456 47.6315 43.4306C46.0703 45.7953 47.4415 48.9245 49.0668 53.9376C50.2594 57.6139 50.9645 61.4344 52.1273 65.1198C55.0185 74.2762 55.7464 98.06 43.5569 112.962C39.1046 118.399 32.3884 126.605 27.0479 130.1C26.1826 130.668 24.2185 131.856 22.9435 134.221C22.6047 134.853 20.7071 137.913 21.2427 141.274C22.2179 147.379 30.7013 151.787 34.927 149.865C38.6399 148.175 39.2969 143.121 42.1422 143.38C43.6279 143.515 45.347 145.128 45.2577 146.101C45.1684 147.074 45.0288 147.335 45.0288 147.335C44.9029 147.855 44.7999 148.052 44.8365 148.251C44.8488 148.302 44.8648 148.353 44.8846 148.402C45.1135 148.942 47.8742 148.525 49.6436 148.999C51.262 149.42 53.1849 150.908 53.075 152.037Z" fill="#FFE600"/>
</g>
</svg>
