<svg width="79" height="79" viewBox="0 0 79 79" fill="none" xmlns="http://www.w3.org/2000/svg">
<path d="M39.9398 78.2956C61.4988 78.2956 78.9759 60.8186 78.9759 39.2596C78.9759 17.7006 61.4988 0.223633 39.9398 0.223633C18.3807 0.223633 0.903687 17.7006 0.903687 39.2596C0.903687 60.8186 18.3807 78.2956 39.9398 78.2956Z" fill="#FFE600"/>
<mask id="mask0_309_765" style="mask-type:luminance" maskUnits="userSpaceOnUse" x="0" y="0" width="79" height="79">
<path d="M39.9398 78.2956C61.4988 78.2956 78.9759 60.8186 78.9759 39.2596C78.9759 17.7006 61.4988 0.223633 39.9398 0.223633C18.3807 0.223633 0.903687 17.7006 0.903687 39.2596C0.903687 60.8186 18.3807 78.2956 39.9398 78.2956Z" fill="white"/>
</mask>
<g mask="url(#mask0_309_765)">
<path d="M78.9783 39.2598C78.9797 41.5893 78.7736 43.9142 78.3626 46.2072C78.3465 46.2827 78.3351 46.3606 78.3191 46.4361C77.7617 49.4423 76.8488 52.3715 75.5996 55.1621C75.386 55.6429 75.1624 56.1182 74.9289 56.5882C74.6237 57.1987 74.3009 57.8091 73.9606 58.4195C73.6997 58.8773 73.428 59.3352 73.1457 59.793C71.5496 62.3677 69.6607 64.749 67.5168 66.8892C66.943 67.463 66.3501 68.0185 65.7382 68.5557C63.3737 70.6419 60.7649 72.4336 57.9689 73.8916C57.1616 74.3173 56.3353 74.7126 55.4898 75.0773C50.5129 77.2314 45.1427 78.3278 39.7198 78.2971C34.2968 78.2664 28.9393 77.1091 23.9872 74.8988C23.891 74.8575 23.7972 74.8141 23.701 74.7683C20.2802 73.2004 17.1043 71.1456 14.2722 68.6678L14.231 68.6312C14.096 68.5145 13.9632 68.4023 13.8327 68.2764C10.457 65.2403 7.63516 61.64 5.4935 57.6367C4.85029 56.4343 4.2711 55.1987 3.75836 53.9352C3.40279 53.0653 3.08079 52.181 2.79236 51.2821C2.75802 51.1768 2.72369 51.0715 2.69164 50.9639C2.62983 50.7717 2.57032 50.5771 2.51309 50.3825C2.39863 49.9995 2.28952 49.6088 2.18575 49.2105C0.703117 43.5606 0.504728 37.6504 1.60515 31.9138C2.70556 26.1773 5.07685 20.76 8.54488 16.0598C8.86993 15.6172 9.20567 15.183 9.55209 14.7573C10.0496 14.1392 10.5654 13.5379 11.0995 12.9535L11.159 12.8894L11.5436 12.4727L11.5642 12.4521C15.5454 8.2402 20.4142 4.96732 25.8175 2.87095C31.2208 0.774584 37.023 -0.0926895 42.8031 0.332057C48.5832 0.756804 54.1963 2.46292 59.2351 5.32661C64.2739 8.19031 68.6121 12.1398 71.9348 16.8884C76.5306 23.4422 78.9905 31.2552 78.9783 39.2598Z" fill="#FDB157"/>
<path d="M60.1914 104.783C60.0518 106.22 54.6632 105.353 51.9827 108.235C50.98 109.313 49.3571 112.126 49.103 112.813C49.024 113.055 48.8741 113.267 48.6726 113.422C48.4714 113.565 48.2324 113.644 47.9859 113.651C47.872 113.651 47.7587 113.635 47.6494 113.603C47.084 113.422 46.878 112.229 46.8619 112.142C46.5873 110.471 47.0336 109.059 46.9512 108.065C46.7109 105.188 42.0068 105.673 38.0947 101.033C37.3393 100.136 36.2909 98.6664 34.8647 98.6733C34.3428 98.6733 33.7202 98.877 32.3467 98.8816C31.7424 98.8816 31.3258 98.8152 31.1266 98.8335C29.8264 98.948 29.023 99.6049 26.4019 99.7972C22.586 100.074 21.4506 98.8816 19.9924 99.962C19.9924 99.962 18.2733 101.246 16.9411 101.766C16.133 102.082 16.1651 101.864 15.6683 102.13C14.7756 102.604 13.6585 105.165 13.6585 105.165C12.6215 107.525 11.8821 107.683 12.1271 108.281C12.5483 109.299 14.6451 108.617 16.2841 110.297C16.5473 110.565 17.1746 111.213 16.9868 111.801C16.8941 112.021 16.7414 112.209 16.5462 112.346C16.3511 112.482 16.1213 112.561 15.8835 112.573C15.7467 112.575 15.6107 112.551 15.4829 112.502C15.2013 112.406 13.7111 111.902 13.3861 112.241C13.1091 112.534 13.8668 113.248 14.0545 114.882C14.1873 116.041 13.8851 116.382 13.7226 116.505C13.6082 116.585 13.479 116.641 13.3426 116.67C13.3207 116.694 13.2936 116.712 13.2634 116.724C13.2332 116.735 13.2008 116.74 13.1686 116.737C12.8496 116.721 12.5439 116.604 12.2965 116.402C11.4014 115.642 9.47858 112.564 7.67935 111.511C5.53903 110.256 3.5086 111.829 2.4373 110.423C1.95201 109.785 1.80779 108.72 2.25417 108.084C3.07367 106.916 5.01941 108.233 7.51911 107.246C8.49885 106.859 9.4328 105.607 11.303 103.1C11.8524 102.366 12.5529 101.342 12.2186 100.857C12.1782 100.802 12.1287 100.755 12.0721 100.717C11.374 100.196 11.1038 99.1448 11.0489 98.9777C10.6437 97.7805 6.72479 96.3659 5.57566 95.908C4.85917 95.6196 -1.08563 92.994 -3.71124 88.1251C-4.0546 87.4887 -4.92217 85.7353 -5.68902 85.8612C-6.2613 85.9573 -6.24757 87.0057 -7.15634 87.4086C-7.52123 87.5491 -7.91734 87.5882 -8.30264 87.5217C-8.68793 87.4552 -9.04803 87.2856 -9.34472 87.0309C-10.3817 86.0901 -9.74761 84.4099 -10.3771 84.1581C-11.0066 83.9063 -11.7071 85.7032 -13.4239 86.2C-15.3376 86.7539 -17.2719 85.3072 -17.5786 85.0554C-19.6388 83.4531 -20.0966 80.7382 -20.2638 79.802C-20.6003 77.8356 -20.1836 76.8834 -21.0512 75.7663C-21.6853 74.9536 -22.2415 75.0315 -23.3403 74.3333C-23.4914 74.2394 -26.8816 72.0053 -26.8495 68.6884C-26.8289 66.278 -25.0182 64.5978 -24.6909 64.2979C-22.9901 62.723 -21.8478 63.3456 -21.0833 62.2606C-19.4053 59.8868 -24.1781 55.89 -22.7978 52.2069C-21.96 49.975 -19.1947 48.8991 -17.4344 48.6565C-12.8402 48.0247 -8.08801 52.1359 -6.13311 56.3616C-4.0134 60.9398 -5.92938 64.0507 -3.26944 66.2459C-0.865881 68.2283 3.06909 67.6377 3.21559 67.0677C3.31402 66.6854 1.68418 66.3672 1.0501 64.7969C0.760019 64.0107 0.741485 63.1501 0.99745 62.3521C1.45527 60.8825 2.68223 60.0631 3.19499 59.7266C7.59007 56.8766 18.8227 56.7507 23.552 51.8772C28.8559 46.4063 27.2581 33.6377 30.9435 30.6321C31.1587 30.4536 32.1407 29.705 32.0102 28.9267C31.8477 27.9584 30.1355 28.0111 28.9337 26.9169C26.9078 25.065 26.8918 20.441 28.8604 18.8455C30.6024 17.4355 33.1273 19.0218 33.8484 17.9299C34.9082 16.3275 29.5494 12.6924 30.5017 9.39614C31.0831 7.38174 33.9651 5.71527 36.3412 6.37911C38.3602 6.94223 39.7016 9.05507 39.823 10.7765C39.8939 11.7905 39.546 12.7771 39.7703 12.855C39.9946 12.9328 40.3243 11.9004 41.1323 11.2366C42.341 10.2454 44.3165 10.3209 45.3992 10.7788C49.2014 12.3811 50.8267 20.9218 47.6883 24.6278C46.6742 25.8296 45.1703 26.4934 45.3534 27.48C45.5114 28.3819 46.8505 28.3041 48.5009 29.3365C51.9346 31.4768 51.399 35.0592 54.6815 36.3709C54.796 36.4167 54.931 36.4579 54.931 36.4579C55.4956 36.651 56.0752 36.7973 56.6639 36.8951C57.4124 37.0256 60.7545 37.6093 61.0132 38.8683C61.1345 39.4772 60.4798 40.1067 59.1819 41.3634C57.8268 42.6682 57.4857 42.5652 57.0805 43.1809C56.1946 44.5201 56.9729 46.2987 57.8931 49.1326C58.5799 51.218 58.969 53.3857 59.6306 55.4757C61.2696 60.6651 61.6908 74.1593 54.7685 82.6084C52.2505 85.6918 48.4323 90.3478 45.4038 92.3302C44.9139 92.6507 43.8014 93.3237 43.0758 94.6719C42.8835 95.029 41.8076 96.7665 42.1121 98.6733C42.6637 102.134 47.4777 104.636 49.8744 103.544C51.9804 102.585 52.3512 99.7194 53.965 99.8659C54.8074 99.9437 55.7826 100.859 55.7322 101.411C55.7246 101.649 55.6814 101.884 55.604 102.109C55.5436 102.275 55.5073 102.448 55.4964 102.624C55.5028 102.654 55.512 102.683 55.5239 102.711C55.6498 103.018 57.2201 102.78 58.2228 103.05C59.1544 103.297 60.2418 104.149 60.1914 104.783Z" fill="#FFE600"/>
</g>
</svg>
