<svg width="79" height="79" viewBox="0 0 79 79" fill="none" xmlns="http://www.w3.org/2000/svg">
<path d="M39.0387 78.0727C60.5977 78.0727 78.0748 60.5957 78.0748 39.0367C78.0748 17.4777 60.5977 0.000732422 39.0387 0.000732422C17.4796 0.000732422 0.00256348 17.4777 0.00256348 39.0367C0.00256348 60.5957 17.4796 78.0727 39.0387 78.0727Z" fill="#FFE600"/>
<mask id="mask0_309_655" style="mask-type:luminance" maskUnits="userSpaceOnUse" x="0" y="0" width="79" height="79">
<path d="M39.0361 78.072C60.5951 78.072 78.0722 60.595 78.0722 39.036C78.0722 17.477 60.5951 0 39.0361 0C17.4771 0 0 17.477 0 39.036C0 60.595 17.4771 78.072 39.0361 78.072Z" fill="white"/>
</mask>
<g mask="url(#mask0_309_655)">
<path d="M78.0747 39.0364C78.076 41.3659 77.8699 43.6909 77.4589 45.9838C77.4429 46.0593 77.4314 46.1372 77.4154 46.2127C76.858 49.2189 75.9451 52.1482 74.6959 54.9388C74.4823 55.4195 74.2587 55.8948 74.0252 56.3649C73.72 56.9753 73.3972 57.5857 73.0569 58.1961C72.796 58.654 72.5243 59.1118 72.242 59.5696C70.6459 62.1443 68.757 64.5256 66.6131 66.6658C66.0393 67.2396 65.4464 67.7951 64.8345 68.3323C62.47 70.4185 59.8612 72.2103 57.0652 73.6682C56.258 74.0939 55.4316 74.4892 54.5862 74.8539C49.6093 77.008 44.239 78.1044 38.8161 78.0737C33.3931 78.043 28.0357 76.8857 23.0835 74.6754C22.9874 74.6342 22.8935 74.5907 22.7974 74.5449C19.3765 72.977 16.2006 70.9222 13.3685 68.4444L13.3273 68.4078C13.1923 68.2911 13.0595 68.1789 12.929 68.053C9.55328 65.0169 6.73147 61.4166 4.58982 57.4133C3.9466 56.2109 3.36742 54.9753 2.85468 53.7118C2.4991 52.8419 2.1771 51.9576 1.88867 51.0587C1.85434 50.9534 1.82 50.8481 1.78795 50.7405C1.72615 50.5483 1.66663 50.3537 1.6094 50.1591C1.49495 49.7761 1.38583 49.3854 1.28206 48.9871C-0.200569 43.3372 -0.398959 37.427 0.701459 31.6904C1.80188 25.9539 4.17316 20.5366 7.64119 15.8364C7.96625 15.3938 8.30198 14.9597 8.6484 14.5339C9.1459 13.9158 9.66171 13.3146 10.1958 12.7301L10.2554 12.666L10.6399 12.2494L10.6605 12.2288C14.6417 8.01682 19.5106 4.74393 24.9138 2.64756C30.3171 0.551195 36.1193 -0.316078 41.8994 0.108669C47.6796 0.533416 53.2926 2.23953 58.3314 5.10322C63.3702 7.96692 67.7084 11.9164 71.0311 16.665C75.6269 23.2188 78.0868 31.0318 78.0747 39.0364Z" fill="#FDB157"/>
<path d="M56.6304 50.5896C56.4381 52.5948 48.9276 51.3862 45.1849 55.3967C43.7862 56.9006 41.5223 60.8287 41.1721 61.7924C41.0611 62.1282 40.8522 62.4232 40.5723 62.6394C40.2889 62.8387 39.9527 62.9494 39.6063 62.9576C39.4468 62.9555 39.2883 62.9324 39.1348 62.8889C38.3496 62.6371 38.0635 60.9867 38.0406 60.8539C37.656 58.5236 38.2695 56.5573 38.1619 55.1746C37.8277 51.1618 31.274 51.8371 25.8236 45.3727C24.7683 44.1229 23.3056 42.0741 21.3233 42.0833C20.5953 42.0833 19.7209 42.3671 17.8118 42.374C16.9671 42.374 16.3879 42.2824 16.111 42.3076C14.2957 42.4679 13.1786 43.3835 9.5252 43.649C4.20761 44.0382 2.62584 42.3809 0.597694 43.8779C0.597694 43.8779 -1.79442 45.6634 -3.65318 46.396C-4.77941 46.8377 -4.73363 46.5333 -5.42723 46.9041C-6.67022 47.5657 -8.22681 51.1321 -8.22681 51.1321C-9.67123 54.4215 -10.7036 54.6482 -10.3603 55.4814C-9.77424 56.9006 -6.86021 55.9506 -4.56882 58.2901C-4.20027 58.6655 -3.32583 59.556 -3.58908 60.3869C-3.76992 60.9523 -4.47039 61.4422 -5.12736 61.4628C-5.31813 61.4662 -5.50777 61.4327 -5.6859 61.3644C-6.07734 61.2293 -8.15356 60.5266 -8.6068 61.0004C-8.99137 61.4101 -7.93609 62.4036 -7.67284 64.679C-7.48971 66.2951 -7.90175 66.7689 -8.13066 66.9429C-8.28944 67.056 -8.47047 67.1341 -8.66174 67.1718C-8.69034 67.2037 -8.72578 67.2287 -8.76543 67.245C-8.80507 67.2612 -8.84788 67.2683 -8.89065 67.2657C-9.33499 67.2467 -9.76164 67.0863 -10.1085 66.8078C-11.3537 65.748 -14.032 61.4582 -16.5408 59.9909C-19.5167 58.242 -22.3529 60.435 -23.8431 58.4755C-24.5298 57.5851 -24.7198 56.104 -24.0995 55.2158C-22.9549 53.5906 -20.2469 55.4219 -16.7743 54.0484C-15.4009 53.5105 -14.1075 51.7593 -11.5094 48.2707C-10.7448 47.2475 -9.76966 45.8237 -10.2275 45.1461C-10.2828 45.0698 -10.3519 45.0046 -10.4312 44.9538C-11.4064 44.2259 -11.7818 42.7609 -11.8573 42.5274C-12.393 40.8266 -17.8548 38.8557 -19.4572 38.2124C-20.4552 37.8095 -28.7395 34.1516 -32.3975 27.3552C-32.8736 26.4693 -34.0822 24.0246 -35.1444 24.2031C-35.9433 24.3336 -35.9227 25.8055 -37.1886 26.3595C-37.6972 26.5539 -38.2488 26.6077 -38.7854 26.515C-39.322 26.4224 -39.8237 26.1867 -40.2376 25.833C-41.6844 24.5213 -40.8008 22.1704 -41.6775 21.8271C-42.5542 21.4837 -43.5317 23.9811 -45.9215 24.6747C-48.5883 25.4461 -51.2826 23.4294 -51.7106 23.0952C-54.572 20.8725 -55.2267 17.0795 -55.451 15.7701C-55.9226 13.0232 -55.3412 11.7024 -56.5498 10.1481C-57.4334 9.00353 -58.2094 9.12485 -59.7294 8.14969C-59.9377 8.01921 -64.6624 4.90604 -64.6166 0.282063C-64.5869 -3.07604 -62.0597 -5.4155 -61.6087 -5.83441C-59.2372 -8.02965 -57.6486 -7.16208 -56.5727 -8.67289C-54.2332 -11.9806 -60.8854 -17.55 -58.9579 -22.6822C-57.7928 -25.7931 -53.9402 -27.2924 -51.4886 -27.6289C-45.0791 -28.5102 -38.4613 -22.7806 -35.7396 -16.893C-32.8072 -10.5042 -35.4809 -6.18006 -31.7702 -3.11725C-28.419 -0.352018 -22.9366 -1.1738 -22.7329 -1.9727C-22.5955 -2.50606 -24.8663 -2.95014 -25.7499 -5.13623C-26.3725 -6.67679 -25.9376 -8.16471 -25.8232 -8.5447C-25.1959 -10.5934 -23.4768 -11.7494 -22.7603 -12.2073C-16.637 -16.1697 -0.984077 -16.3437 5.60626 -23.1377C12.9978 -30.7581 10.7705 -48.5467 15.9072 -52.7426C16.2094 -52.9875 17.576 -54.0337 17.3951 -55.1164C17.1662 -56.467 14.781 -56.3869 13.1076 -57.9183C10.2829 -60.4981 10.26 -66.9419 13.0024 -69.1646C15.4334 -71.1309 18.954 -68.9197 19.9544 -70.4442C21.4331 -72.6875 13.9638 -77.7419 15.2915 -82.3361C16.1018 -85.1448 20.1169 -87.4659 23.4292 -86.5411C26.2402 -85.756 28.1104 -82.8099 28.2798 -80.4132C28.3783 -78.9986 27.8953 -77.6251 28.2066 -77.5152C28.5179 -77.4054 28.978 -78.8475 30.1065 -79.7723C31.789 -81.1457 34.5405 -81.045 36.0582 -80.4132C41.3552 -78.1928 43.6123 -66.278 39.263 -61.1161C37.8506 -59.4382 35.7652 -58.5134 36.0101 -57.14C36.2391 -55.8833 38.0955 -55.9954 40.3984 -54.5533C45.1757 -51.5775 44.4363 -46.5735 49.0191 -44.7514C49.1794 -44.6873 49.3648 -44.63 49.3671 -44.63C50.1539 -44.3603 50.9616 -44.1559 51.7821 -44.0189C52.8259 -43.838 57.4819 -43.0254 57.8322 -41.2719C57.9993 -40.425 57.0905 -39.5482 55.2707 -37.7948C53.3822 -35.9773 52.906 -36.1215 52.3406 -35.2768C51.1068 -33.4089 52.1918 -30.9275 53.4852 -26.9719C54.4283 -24.0671 54.9845 -21.0478 55.9048 -18.1337C58.1939 -10.9025 58.7661 7.90247 49.1313 19.6753C45.6129 23.9719 40.3022 30.4593 36.0834 33.2222C35.3967 33.6686 33.8469 34.6071 32.8397 36.4842C32.5719 36.9832 31.0725 39.4028 31.496 42.0581C32.2652 46.8858 38.9722 50.3698 42.312 48.8499C45.2467 47.513 45.764 43.5186 48.0142 43.7223C49.1885 43.8299 50.546 45.0957 50.4773 45.874C50.4658 46.2063 50.4049 46.5349 50.2964 46.8492C50.198 47.2612 50.1248 47.4169 50.1454 47.5657C50.156 47.6068 50.169 47.6474 50.1843 47.687C50.3605 48.1128 52.5466 47.7831 53.9453 48.1586C55.2043 48.5157 56.7174 49.6923 56.6304 50.5896Z" fill="#FC565D"/>
</g>
</svg>
