<svg width="79" height="79" viewBox="0 0 79 79" fill="none" xmlns="http://www.w3.org/2000/svg">
<path d="M39.9395 78.0749C61.4986 78.0749 78.9756 60.5979 78.9756 39.0389C78.9756 17.4799 61.4986 0.00292969 39.9395 0.00292969C18.3805 0.00292969 0.903442 17.4799 0.903442 39.0389C0.903442 60.5979 18.3805 78.0749 39.9395 78.0749Z" fill="#FFE600"/>
<mask id="mask0_309_666" style="mask-type:luminance" maskUnits="userSpaceOnUse" x="0" y="0" width="79" height="79">
<path d="M39.9397 78.0722C61.4987 78.0722 78.9758 60.5952 78.9758 39.0362C78.9758 17.4773 61.4987 0.000244141 39.9397 0.000244141C18.3806 0.000244141 0.903564 17.4773 0.903564 39.0362C0.903564 60.5952 18.3806 78.0722 39.9397 78.0722Z" fill="white"/>
</mask>
<g mask="url(#mask0_309_666)">
<path d="M79.0054 39.0755C79.0067 41.4049 78.8007 43.7299 78.3897 46.0229C78.3759 46.0984 78.3622 46.174 78.3462 46.2518C77.7891 49.2595 76.8762 52.1903 75.6267 54.9824C75.4131 55.4631 75.1895 55.9385 74.956 56.4085C74.6493 57.0266 74.3265 57.6378 73.9877 58.2398C73.7267 58.6976 73.4551 59.1554 73.1728 59.6132C71.5766 62.188 69.6878 64.5692 67.5439 66.7095C66.9701 67.2833 66.3772 67.8387 65.7652 68.3759C63.4007 70.4614 60.7919 72.2523 57.996 73.7095C57.1857 74.1338 56.3593 74.5283 55.5169 74.893C50.5413 77.0458 45.1727 78.1415 39.7514 78.1108C34.3301 78.08 28.9743 76.9235 24.0234 74.7144L23.7373 74.584C20.3172 73.0158 17.1414 70.9618 14.3085 68.4858L14.2673 68.4515C14.1322 68.3347 13.9994 68.2225 13.869 68.0966C10.4897 65.0616 7.66468 61.4612 5.52059 57.4569C4.87737 56.2553 4.29818 55.0205 3.78545 53.7577C3.43293 52.8879 3.11093 52.0035 2.81945 51.1047C2.78511 50.9994 2.75077 50.8941 2.71873 50.7865C2.65692 50.5942 2.5974 50.3996 2.54018 50.2051C2.42572 49.8159 2.31127 49.4268 2.21283 49.033C0.729127 43.3821 0.530184 37.4706 1.63062 31.7328C2.73106 25.9949 5.10291 20.5765 8.57197 15.8754C8.89702 15.4344 9.23275 15.0002 9.57917 14.5729C10.0767 13.9625 10.5925 13.3605 11.1266 12.7668L11.1861 12.705C11.3143 12.5631 11.4425 12.4258 11.5707 12.2884L11.5913 12.2678C15.5729 8.05625 20.4422 4.78384 25.8458 2.68803C31.2494 0.592221 37.0517 -0.274421 42.8319 0.150985C48.612 0.576391 54.225 2.28317 59.2635 5.1475C64.302 8.01182 68.6397 11.9618 71.9619 16.711C76.5556 23.2631 79.0154 31.0734 79.0054 39.0755Z" fill="#31CFF4"/>
<path d="M20.7773 49.7563H20.8643C20.8216 49.7541 20.7788 49.7541 20.7361 49.7563H20.7773Z" fill="#FC565D"/>
<path d="M129.061 82.161C128.881 84.0357 121.86 82.9049 118.367 86.659C117.06 88.0645 114.947 91.7362 114.617 92.6381C114.513 92.9518 114.318 93.2275 114.056 93.4302C113.791 93.616 113.476 93.7187 113.152 93.7255C113.003 93.7249 112.855 93.7033 112.713 93.6614C111.978 93.4325 111.708 91.885 111.687 91.7614C111.328 89.5822 111.916 87.7418 111.802 86.4484C111.49 82.6966 105.362 83.3284 100.264 77.292C99.2779 76.1246 97.9136 74.2109 96.0571 74.2178C95.3704 74.2178 94.5532 74.4833 92.7722 74.4902C91.9848 74.4902 91.4423 74.4055 91.1836 74.4284C89.4874 74.5772 88.4367 75.4333 85.0259 75.6828C80.054 76.0445 78.5729 74.4948 76.6753 75.9003C76.6753 75.9003 74.4365 77.5713 72.6991 78.2489C71.6461 78.6609 71.6896 78.3771 71.0418 78.7227C69.8789 79.3408 68.423 82.6783 68.423 82.6783C67.0725 85.7525 66.1087 85.9654 66.4269 86.7369C66.974 88.0645 69.7003 87.1764 71.843 89.3624C72.1863 89.7127 73.0035 90.5482 72.7586 91.3242C72.6379 91.61 72.4389 91.856 72.1846 92.0338C71.9303 92.2116 71.631 92.3139 71.321 92.3291C71.1428 92.3328 70.9655 92.3017 70.7991 92.2376C70.4306 92.1117 68.4894 91.4547 68.0682 91.8988C67.7065 92.2811 68.6954 93.2104 68.9404 95.3324C69.1098 96.8432 68.7115 97.285 68.5054 97.4475C68.3574 97.5529 68.189 97.6261 68.011 97.6627C67.9825 97.6944 67.9469 97.7188 67.9071 97.7339C67.8672 97.749 67.8244 97.7545 67.7821 97.7497C67.3639 97.7309 66.9627 97.5784 66.6375 97.3148C65.4724 96.3236 62.975 92.3131 60.6218 90.9396C57.8336 89.3052 55.1874 91.3563 53.7934 89.525C53.1616 88.6917 52.9739 87.3045 53.5645 86.4759C54.6312 84.9559 57.1652 86.6682 60.4203 85.384C61.6976 84.8804 62.9132 83.2483 65.3511 79.9817C66.0653 79.0249 66.9786 77.6926 66.5483 77.0608C66.4971 76.9889 66.4326 76.9275 66.3583 76.88C65.4426 76.1933 65.097 74.8198 65.026 74.6115C64.5224 73.0435 59.4154 71.1984 57.9183 70.5964C56.9867 70.2164 49.2403 66.7965 45.8181 60.4328C45.3603 59.6042 44.2409 57.3196 43.2406 57.4845C42.4943 57.6081 42.5127 58.9792 41.3292 59.5012C40.8534 59.683 40.3374 59.7333 39.8355 59.6467C39.3336 59.5601 38.8643 59.3398 38.477 59.009C37.1264 57.782 37.9528 55.5937 37.1333 55.264C36.3138 54.9344 35.4004 57.2784 33.1639 57.9263C30.6688 58.6473 28.1508 56.7611 27.7502 56.4498C25.0743 54.3713 24.4631 50.8255 24.2525 49.6054C23.813 47.0439 24.3578 45.8009 23.2247 44.3405C22.4006 43.2829 21.6749 43.3836 20.2488 42.4726C20.0542 42.3489 15.6363 39.4395 15.6706 35.1154C15.6981 31.977 18.0604 29.7887 18.4816 29.3926C20.6998 27.3325 22.1854 28.1497 23.1812 26.7373C25.3673 23.6447 19.15 18.437 20.9493 13.6391C22.0549 10.7594 25.6557 9.3493 27.9494 9.0334C33.9354 8.20933 40.1274 13.5681 42.6752 19.0734C45.4358 25.0411 42.9407 29.0928 46.4041 31.9496C49.5379 34.534 54.6632 33.7648 54.8555 33.0232C54.9837 32.5241 52.8594 32.1075 52.033 30.0656C51.6541 29.041 51.6307 27.9187 51.9667 26.8792C52.5527 24.9632 54.1596 23.8897 54.8303 23.4456C60.5531 19.7349 75.1919 19.5724 81.3519 13.2202C88.2627 6.10335 86.1819 -10.5292 90.9822 -14.4505C91.2637 -14.6794 92.541 -15.6591 92.3716 -16.6709C92.161 -17.9345 89.9292 -17.8612 88.3657 -19.2919C85.7241 -21.7023 85.7012 -27.7295 88.2673 -29.808C90.5381 -31.6393 93.8275 -29.5791 94.766 -31.0029C96.1395 -33.0997 89.1669 -37.8267 90.4168 -42.1211C91.1744 -44.749 94.9286 -46.9282 98.0257 -46.0538C100.654 -45.319 102.402 -42.5652 102.558 -40.331C102.652 -39.0102 102.201 -37.7237 102.492 -37.6207C102.782 -37.5177 103.213 -38.8683 104.268 -39.7313C105.841 -41.0223 108.414 -40.9239 109.826 -40.331C114.78 -38.2548 116.897 -27.116 112.82 -22.2883C111.499 -20.7203 109.547 -19.855 109.778 -18.5708C109.984 -17.3965 111.728 -17.4972 113.88 -16.1513C118.346 -13.3631 117.655 -8.6888 121.942 -6.99486C122.091 -6.93764 122.265 -6.8827 122.265 -6.8827C122.998 -6.62663 123.751 -6.4299 124.515 -6.2944C125.49 -6.12501 129.844 -5.36503 130.172 -3.72374C130.33 -2.93171 129.485 -2.12137 127.777 -0.473224C126.012 1.22758 125.568 1.09252 125.03 1.89142C123.886 3.638 124.888 5.95456 126.09 9.65604C126.971 12.3732 127.491 15.1979 128.352 17.9197C130.49 24.684 131.028 42.2642 122.018 53.2748C118.728 57.2899 113.763 63.3468 109.817 65.9404C109.178 66.3593 107.727 67.236 106.784 68.9895C106.534 69.4473 105.131 71.7204 105.527 74.204C106.248 78.7159 112.518 81.9732 115.64 80.5517C118.387 79.3019 118.87 75.5683 120.972 75.7583C122.07 75.8591 123.341 77.0517 123.275 77.7704C123.266 78.0824 123.209 78.3912 123.107 78.6861C123.014 79.0729 122.945 79.2172 122.966 79.3568C122.975 79.3949 122.986 79.4323 123 79.469C123.167 79.8696 125.211 79.5605 126.518 79.9108C127.72 80.2267 129.142 81.3254 129.061 82.161Z" fill="#FC565D"/>
<path d="M20.7773 49.7563H20.8643C20.8216 49.7541 20.7788 49.7541 20.7361 49.7563H20.7773Z" fill="#FC565D"/>
</g>
</svg>
