<svg width="79" height="79" viewBox="0 0 79 79" fill="none" xmlns="http://www.w3.org/2000/svg">
<path d="M39.8386 78.0752C61.3976 78.0752 78.8747 60.5982 78.8747 39.0392C78.8747 17.4802 61.3976 0.00317383 39.8386 0.00317383C18.2795 0.00317383 0.80249 17.4802 0.80249 39.0392C0.80249 60.5982 18.2795 78.0752 39.8386 78.0752Z" fill="#FFE600"/>
<mask id="mask0_309_677" style="mask-type:luminance" maskUnits="userSpaceOnUse" x="0" y="0" width="79" height="79">
<path d="M39.8383 78.0722C61.3974 78.0722 78.8745 60.5952 78.8745 39.0362C78.8745 17.4773 61.3974 0.000244141 39.8383 0.000244141C18.2793 0.000244141 0.802246 17.4773 0.802246 39.0362C0.802246 60.5952 18.2793 78.0722 39.8383 78.0722Z" fill="white"/>
</mask>
<g mask="url(#mask0_309_677)">
<path d="M78.8669 39.043C78.8682 41.3725 78.6621 43.6974 78.2511 45.9904C78.2351 46.0659 78.2237 46.1438 78.2076 46.2193C77.6503 49.2255 76.7374 52.1547 75.4882 54.9453C75.2745 55.4261 75.051 55.9014 74.8175 56.3715C74.5123 56.9819 74.1895 57.5923 73.8492 58.2027C73.5882 58.6606 73.3166 59.1184 73.0343 59.5762C71.4381 62.1509 69.5492 64.5322 67.4053 66.6724C66.8315 67.2462 66.2387 67.8017 65.6267 68.3389C63.2623 70.4251 60.6535 72.2168 57.8575 73.6748C57.0502 74.1005 56.2238 74.4958 55.3784 74.8605C50.4015 77.0146 45.0313 78.111 39.6083 78.0803C34.1853 78.0496 28.8279 76.8923 23.8757 74.682C23.7796 74.6408 23.6857 74.5973 23.5896 74.5515C20.1687 72.9836 16.9929 70.9288 14.1608 68.451L14.1196 68.4144C13.9845 68.2977 13.8517 68.1855 13.7213 68.0596C10.3455 65.0235 7.52371 61.4232 5.38205 57.4199C4.73884 56.2175 4.15965 54.9819 3.64691 53.7184C3.29134 52.8485 2.96934 51.9642 2.68091 51.0653C2.64657 50.96 2.61224 50.8547 2.58019 50.7471C2.51838 50.5549 2.45887 50.3603 2.40164 50.1657C2.28718 49.7827 2.17807 49.392 2.0743 48.9937C0.591667 43.3438 0.393277 37.4336 1.4937 31.697C2.59411 25.9605 4.9654 20.5432 8.43343 15.843C8.75848 15.4004 9.09422 14.9662 9.44063 14.5405C9.93813 13.9224 10.4539 13.3211 10.9881 12.7367L11.0476 12.6726L11.4322 12.2559L11.4528 12.2353C15.4339 8.02341 20.3028 4.75052 25.7061 2.65415C31.1094 0.557787 36.9115 -0.309486 42.6917 0.115261C48.4718 0.540008 54.0849 2.24612 59.1237 5.10982C64.1625 7.97351 68.5006 11.923 71.8233 16.6716C76.4191 23.2254 78.879 31.0384 78.8669 39.043Z" fill="#FFE600"/>
<path d="M42.5382 73.451C42.4283 74.5955 38.1431 73.9088 36.0143 76.1979C35.2154 77.0563 33.9266 79.295 33.7252 79.8467C33.6611 80.0376 33.5425 80.2055 33.3841 80.3297C33.2221 80.4431 33.0301 80.506 32.8324 80.5106C32.7411 80.5094 32.6503 80.4963 32.5623 80.4716C32.1159 80.3274 31.9511 79.3866 31.9374 79.3111C31.7085 77.9811 32.0724 76.8594 32.0083 76.0697C31.8183 73.7806 28.0779 74.1675 24.9693 70.4797C24.3673 69.7655 23.5341 68.5981 22.401 68.6027C21.9866 68.6027 21.4853 68.7652 20.398 68.7698C19.9173 68.7698 19.5877 68.7171 19.4297 68.7309C18.395 68.8224 17.7564 69.3443 15.6733 69.4977C12.6402 69.7266 11.736 68.7721 10.5777 69.6282C10.5777 69.6282 9.20428 70.6491 8.15358 71.0634C7.51034 71.313 7.53552 71.1413 7.1395 71.3519C6.43217 71.7296 5.53713 73.7646 5.53713 73.7646C4.71305 75.6394 4.12475 75.7698 4.31933 76.2414C4.65354 77.0494 6.31771 76.5092 7.62479 77.8438C7.8331 78.0566 8.33213 78.5648 8.18104 79.0387C8.10905 79.2134 7.98925 79.3643 7.83539 79.474C7.68152 79.5837 7.49984 79.6479 7.31118 79.659C7.20263 79.6606 7.09473 79.642 6.993 79.6041C6.76409 79.5262 5.5852 79.1256 5.32653 79.3958C5.09762 79.6247 5.70881 80.1969 5.85989 81.4949C5.9629 82.4105 5.72483 82.6852 5.59436 82.7859C5.50359 82.8496 5.40076 82.894 5.2922 82.9164C5.27505 82.9354 5.25368 82.95 5.22982 82.9591C5.20595 82.9683 5.18027 82.9717 5.15485 82.969C4.90389 82.9541 4.66384 82.8613 4.46812 82.7035C3.75849 82.0992 2.23166 79.6521 0.805548 78.812C-0.895256 77.8163 -2.50908 79.0661 -3.35833 77.9491C-3.74519 77.4409 -3.85965 76.5939 -3.50484 76.088C-2.85473 75.1609 -1.30729 76.207 0.677359 75.4242C1.45565 75.1151 2.19961 74.1194 3.68524 72.1279C4.12246 71.5419 4.67871 70.7315 4.41547 70.3447C4.38517 70.3007 4.34622 70.2633 4.30101 70.2348C3.74476 69.8205 3.52958 68.9827 3.48838 68.8499C3.17935 67.893 0.0661669 66.7691 -0.849475 66.4005C-1.43549 66.1533 -6.1602 64.0771 -8.24786 60.2017C-8.51798 59.6981 -9.20929 58.3017 -9.81819 58.4047C-10.276 58.4803 -10.2623 59.3204 -10.9856 59.634C-11.2757 59.7455 -11.5905 59.7765 -11.8968 59.7237C-12.203 59.6709 -12.4893 59.5363 -12.7253 59.3341C-13.5494 58.5856 -13.0458 57.251 -13.5448 57.045C-14.0439 56.839 -14.6024 58.2742 -15.9667 58.668C-17.489 59.1098 -19.025 57.9584 -19.2699 57.7684C-20.902 56.5002 -21.2752 54.3347 -21.4033 53.593C-21.6712 52.0296 -21.3393 51.2719 -22.0306 50.3883C-22.5342 49.7428 -22.976 49.8046 -23.8435 49.2438C-23.9626 49.1705 -26.6568 47.3942 -26.6317 44.7571C-26.6133 42.8411 -25.1735 41.5066 -24.9148 41.2685C-23.562 40.0164 -22.6555 40.5108 -22.0489 39.6479C-20.7143 37.7616 -24.5074 34.5844 -23.4109 31.6566C-22.7448 29.8826 -20.5472 29.0264 -19.1486 28.8342C-15.486 28.3328 -11.7181 31.6017 -10.1638 34.9598C-8.47906 38.6017 -10.0013 41.0717 -7.88847 42.816C-5.97707 44.3932 -2.85244 43.9239 -2.73341 43.4706C-2.65558 43.1662 -3.95121 42.9144 -4.45482 41.6646C-4.68571 41.0396 -4.70022 40.3553 -4.49602 39.7211C-4.13892 38.5537 -3.15918 37.8898 -2.74943 37.6334C0.743743 35.3695 9.67354 35.2711 13.4323 31.3957C17.6465 27.0464 16.376 16.8965 19.3061 14.5067C19.4778 14.3671 20.2584 13.7696 20.1554 13.1538C20.0249 12.3824 18.6651 12.4282 17.7106 11.5515C16.1082 10.0796 16.0853 6.40328 17.6488 5.14199C19.036 4.02033 21.0435 5.28162 21.6158 4.41176C22.4582 3.13216 18.1913 0.250182 18.9559 -2.37084C19.4137 -3.9732 21.7028 -5.2963 23.5982 -4.76981C25.2005 -4.31199 26.2673 -2.64095 26.3634 -1.27436C26.4206 -0.468595 26.1345 0.328011 26.3222 0.378371C26.5099 0.428732 26.764 -0.381609 27.4049 -0.908102C28.3641 -1.69555 29.923 -1.63603 30.7974 -1.27436C33.819 -0.00848594 35.1101 6.78785 32.6287 9.73392C31.8229 10.6908 30.6349 11.2173 30.7745 12.0001C30.9004 12.7166 31.9648 12.6548 33.2765 13.4766C36.0005 15.1774 35.5793 18.0296 38.1958 19.0689C38.2851 19.1032 38.3926 19.1375 38.3926 19.1375C38.8403 19.2904 39.2997 19.4067 39.7661 19.4855C40.3613 19.5885 43.0166 20.0532 43.2158 21.0535C43.3142 21.5365 42.7946 22.0378 41.7553 23.0359C40.6795 24.0751 40.4071 23.9927 40.0843 24.4803C39.3815 25.547 39.9996 26.9594 40.7321 29.2187C41.2701 30.876 41.5882 32.5974 42.1056 34.2547C43.4104 38.3751 43.7377 49.1064 38.2416 55.8226C36.234 58.272 33.2055 61.9734 30.7974 63.5483C30.028 63.9963 29.39 64.6389 28.9478 65.4117C28.7944 65.6955 27.9406 67.0758 28.181 68.5912C28.6205 71.3381 32.4456 73.3319 34.3615 72.4644C36.0372 71.7021 36.3325 69.4222 37.6144 69.5389C38.2851 69.6007 39.0588 70.3286 39.0199 70.7682C39.0131 70.9576 38.9784 71.1451 38.9169 71.3244C38.8679 71.4551 38.8393 71.5925 38.8322 71.7319C38.8368 71.7554 38.8437 71.7783 38.8528 71.8005C38.9535 72.0432 40.201 71.8555 40.9977 72.0684C41.7233 72.2698 42.5863 72.9405 42.5382 73.451Z" fill="#FDB157"/>
</g>
</svg>
