<svg width="79" height="79" viewBox="0 0 79 79" fill="none" xmlns="http://www.w3.org/2000/svg">
<path d="M39.0387 78.2173C60.5977 78.2173 78.0748 60.7402 78.0748 39.1813C78.0748 17.6223 60.5977 0.145264 39.0387 0.145264C17.4796 0.145264 0.00256348 17.6223 0.00256348 39.1813C0.00256348 60.7402 17.4796 78.2173 39.0387 78.2173Z" fill="#FFE600"/>
<mask id="mask0_309_688" style="mask-type:luminance" maskUnits="userSpaceOnUse" x="0" y="0" width="79" height="79">
<path d="M39.0361 78.218C60.5951 78.218 78.0722 60.741 78.0722 39.182C78.0722 17.623 60.5951 0.145996 39.0361 0.145996C17.4771 0.145996 0 17.623 0 39.182C0 60.741 17.4771 78.218 39.0361 78.218Z" fill="white"/>
</mask>
<g mask="url(#mask0_309_688)">
<path d="M79.2465 39.4495C79.2478 41.779 79.0418 44.1039 78.6307 46.3969C78.617 46.4724 78.6033 46.548 78.5873 46.6258C78.0302 49.6336 77.1173 52.5644 75.8678 55.3564C75.6541 55.8371 75.4306 56.3125 75.1971 56.7825C74.8903 57.4006 74.5676 58.0118 74.2288 58.6138C73.9678 59.0716 73.6962 59.5295 73.4139 59.9873C71.8177 62.562 69.9288 64.9432 67.785 67.0835C67.2112 67.6573 66.6183 68.2128 66.0063 68.7499C63.6418 70.8354 61.033 72.6263 58.2371 74.0835C57.4268 74.5078 56.6004 74.9023 55.758 75.267C50.7824 77.4198 45.4138 78.5155 39.9925 78.4848C34.5712 78.454 29.2154 77.2975 24.2645 75.0885L23.9784 74.958C20.5582 73.3898 17.3825 71.3359 14.5496 68.8598L14.5083 68.8255C14.3733 68.7087 14.2405 68.5966 14.11 68.4707C10.7308 65.4356 7.90577 61.8352 5.76168 57.8309C5.11846 56.6293 4.53927 55.3946 4.02654 54.1318C3.67402 53.2619 3.35201 52.3775 3.06054 51.4787C3.0262 51.3734 2.99186 51.2681 2.95981 51.1605C2.89801 50.9682 2.83849 50.7737 2.78126 50.5791C2.66681 50.1899 2.55235 49.8008 2.45392 49.4071C0.970216 43.7562 0.771273 37.8447 1.87171 32.1068C2.97214 26.369 5.344 20.9505 8.81306 16.2495C9.13811 15.8084 9.47384 15.3743 9.82026 14.947C10.3178 14.3365 10.8336 13.7345 11.3677 13.1409L11.4272 13.0791C11.5554 12.9371 11.6836 12.7998 11.8118 12.6625L11.8324 12.6418C15.814 8.43027 20.6833 5.15786 26.0869 3.06205C31.4904 0.966244 37.2928 0.0996026 43.0729 0.525008C48.8531 0.950414 54.466 2.6572 59.5046 5.52152C64.5431 8.38584 68.8808 12.3359 72.2029 17.085C76.7967 23.6372 79.2565 31.4474 79.2465 39.4495Z" fill="#FFE600"/>
<path d="M21.0179 50.1257H21.1049C21.0622 50.1235 21.0194 50.1235 20.9767 50.1257H21.0179Z" fill="#FC565D"/>
<path d="M76.7982 101.689C76.6654 103.063 71.5172 102.234 68.9557 104.988C67.9989 106.018 66.4377 108.71 66.2088 109.371C66.1317 109.602 65.9884 109.804 65.7967 109.953C65.6572 110.056 65.4956 110.125 65.3247 110.154C65.1538 110.184 64.9783 110.173 64.8124 110.122C64.2722 109.951 64.0753 108.82 64.0616 108.728C63.7961 107.126 64.2241 105.782 64.144 104.837C63.9151 102.09 59.4216 102.548 55.6743 98.116C54.9532 97.2598 53.9506 95.8543 52.5886 95.8612C52.0896 95.8612 51.4875 96.0558 50.1828 96.0603C49.6036 96.0603 49.2076 95.9985 49.0153 96.0146C47.7723 96.1244 47.0055 96.7516 44.5012 96.9302C40.8547 97.1957 39.7696 96.0603 38.3778 97.0904C38.3778 97.0904 36.7366 98.3151 35.4638 98.8118C34.6901 99.114 34.7221 98.9057 34.246 99.1598C33.3945 99.6176 32.3277 102.06 32.3277 102.06C31.3366 104.315 30.6292 104.47 30.8627 105.036C31.2656 106.009 33.264 105.359 34.8343 106.961C35.0861 107.22 35.6859 107.831 35.505 108.399C35.4171 108.608 35.2715 108.789 35.0851 108.919C34.8987 109.05 34.6792 109.125 34.452 109.136C34.3208 109.138 34.1902 109.116 34.0675 109.069C33.7996 108.978 32.3758 108.495 32.0668 108.82C31.8012 109.101 32.5246 109.781 32.7054 111.338C32.8313 112.446 32.5452 112.771 32.3873 112.89C32.2784 112.967 32.1543 113.02 32.0233 113.045C32.0033 113.069 31.9778 113.088 31.9491 113.099C31.9204 113.111 31.8893 113.115 31.8585 113.112C31.5536 113.097 31.2616 112.984 31.0252 112.791C30.1691 112.063 28.3332 109.129 26.6141 108.117C24.5677 106.918 22.6288 108.421 21.6079 107.078C21.15 106.469 21.0058 105.453 21.4316 104.844C22.2145 103.729 24.0732 104.986 26.4676 104.042C27.4039 103.674 28.2989 102.477 30.0821 100.082C30.6063 99.3795 31.277 98.4044 30.9611 97.9397C30.9244 97.8869 30.8778 97.8418 30.8238 97.8069C30.1554 97.3079 29.9082 96.303 29.8463 96.1428C29.4755 94.9982 25.726 93.6408 24.6341 93.199C23.9473 92.9243 18.2703 90.4177 15.7615 85.7571C15.4341 85.1505 14.6055 83.468 13.8707 83.5962C13.3236 83.6855 13.3373 84.6927 12.4698 85.075C12.1207 85.2083 11.7422 85.2451 11.374 85.1814C11.0058 85.1178 10.6615 84.9561 10.3775 84.7133C9.38862 83.8137 9.99294 82.209 9.39091 81.9664C8.78887 81.7237 8.11816 83.4634 6.47917 83.9213C4.64788 84.45 2.80286 83.0674 2.50986 82.8385C0.548095 81.314 0.0994304 78.7181 -0.0539396 77.8208C-0.376703 75.9415 0.0216006 75.0304 -0.807055 73.9637C-1.41367 73.1877 -1.95161 73.2632 -2.98628 72.5902C-3.1305 72.5009 -6.36958 70.3652 -6.33753 67.1971C-6.31693 64.8943 -4.58408 63.2896 -4.27734 63.0012C-2.65207 61.4972 -1.56246 62.0855 -0.832235 61.0554C0.770138 58.787 -3.78976 54.971 -2.46894 51.4412C-1.67005 49.3078 0.964712 48.28 2.65407 48.0488C7.04229 47.4445 11.5816 51.3749 13.4518 55.4105C15.4753 59.7873 13.6464 62.7585 16.1873 64.8531C18.4764 66.7484 22.2419 66.1853 22.3816 65.6405C22.4777 65.2743 20.9188 64.9721 20.3214 63.4705C20.0425 62.72 20.0247 61.8974 20.271 61.1356C20.7014 59.7301 21.8734 58.9426 22.3701 58.6176C26.5683 55.8958 37.302 55.7768 41.8275 51.1185C46.8956 45.8948 45.3688 33.6939 48.8894 30.821C49.0954 30.6539 50.034 29.9352 49.9081 29.1935C49.7547 28.2779 48.118 28.3213 46.9711 27.2729C45.0323 25.5058 45.0185 21.0924 46.8979 19.561C48.5644 18.215 50.9771 19.7304 51.6638 18.6842C52.6779 17.1483 47.5572 13.6826 48.4591 10.5328C49.0153 8.60763 51.7668 7.01442 54.0376 7.6485C55.965 8.18873 57.2424 10.2077 57.3614 11.8513C57.4301 12.8196 57.1004 13.7627 57.3133 13.8382C57.5262 13.9138 57.8421 12.9226 58.6158 12.2908C59.7604 11.3431 61.6557 11.4164 62.6904 11.8513C66.3232 13.3735 67.8752 21.541 64.8857 25.08C63.9174 26.2245 62.4867 26.8655 62.6561 27.8063C62.8072 28.667 64.0845 28.5937 65.664 29.5804C68.9397 31.6245 68.4315 35.0513 71.5744 36.3011C71.6843 36.3446 71.8034 36.3836 71.8034 36.3836C72.3436 36.5678 72.8978 36.7079 73.4607 36.8025C74.1749 36.9284 77.3682 37.4892 77.6062 38.6887C77.723 39.2678 77.1003 39.8698 75.8528 41.0716C74.5571 42.3192 74.2298 42.2162 73.8429 42.8068C72.9983 44.0864 73.7399 45.7826 74.6212 48.4997C75.2668 50.4913 75.649 52.5629 76.2808 54.559C77.8466 59.5172 78.2426 72.414 71.6362 80.483C69.2235 83.4291 65.5816 87.8745 62.6881 89.7699C62.2303 90.0766 61.1544 90.7199 60.4654 92.0064C60.2823 92.3497 59.2522 94.0093 59.5498 95.8291C60.0786 99.1369 64.6751 101.527 66.9665 100.485C68.9786 99.5695 69.3334 96.8226 70.8763 96.9691C71.6797 97.0424 72.6114 97.9168 72.5633 98.4456C72.5563 98.6734 72.5146 98.8988 72.4397 99.114C72.3833 99.2726 72.3486 99.4382 72.3367 99.6062C72.3427 99.6335 72.3512 99.6604 72.3619 99.6863C72.4855 99.9793 73.9826 99.7549 74.9417 100.011C75.8207 100.272 76.8577 101.089 76.7982 101.689Z" fill="#FC565D"/>
<path d="M21.0179 50.1257H21.1049C21.0622 50.1235 21.0194 50.1235 20.9767 50.1257H21.0179Z" fill="#FC565D"/>
</g>
</svg>
