<svg width="79" height="79" viewBox="0 0 79 79" fill="none" xmlns="http://www.w3.org/2000/svg">
<path d="M39.8385 78.2912C61.3975 78.2912 78.8746 60.8142 78.8746 39.2552C78.8746 17.6962 61.3975 0.219238 39.8385 0.219238C18.2794 0.219238 0.802368 17.6962 0.802368 39.2552C0.802368 60.8142 18.2794 78.2912 39.8385 78.2912Z" fill="#FFE600"/>
<mask id="mask0_309_699" style="mask-type:luminance" maskUnits="userSpaceOnUse" x="0" y="0" width="79" height="79">
<path d="M39.8385 78.2912C61.3975 78.2912 78.8746 60.8142 78.8746 39.2552C78.8746 17.6962 61.3975 0.219238 39.8385 0.219238C18.2794 0.219238 0.802368 17.6962 0.802368 39.2552C0.802368 60.8142 18.2794 78.2912 39.8385 78.2912Z" fill="white"/>
</mask>
<g mask="url(#mask0_309_699)">
<path d="M78.8693 39.2583C78.8706 41.5878 78.6646 43.9128 78.2536 46.2057C78.2375 46.2813 78.2261 46.3591 78.2101 46.4346C77.6527 49.4408 76.7398 52.3701 75.4906 55.1607C75.277 55.6414 75.0534 56.1168 74.8199 56.5868C74.5147 57.1972 74.1919 57.8076 73.8516 58.4181C73.5907 58.8759 73.319 59.3337 73.0367 59.7915C71.4405 62.3662 69.5517 64.7475 67.4078 66.8877C66.834 67.4615 66.2411 68.017 65.6292 68.5542C63.2647 70.6405 60.6559 72.4322 57.8599 73.8901C57.0526 74.3159 56.2263 74.7111 55.3808 75.0758C50.4039 77.2299 45.0337 78.3264 39.6107 78.2956C34.1878 78.2649 28.8303 77.1076 23.8782 74.8973C23.782 74.8561 23.6882 74.8126 23.592 74.7668C20.1712 73.1989 16.9953 71.1442 14.1632 68.6664L14.122 68.6297C13.9869 68.513 13.8542 68.4008 13.7237 68.2749C10.348 65.2388 7.52615 61.6386 5.38449 57.6352C4.74128 56.4328 4.16209 55.1973 3.64935 53.9337C3.29378 53.0639 2.97178 52.1795 2.68335 51.2807C2.64901 51.1754 2.61468 51.0701 2.58263 50.9625C2.52082 50.7702 2.46131 50.5756 2.40408 50.381C2.28963 49.998 2.18051 49.6073 2.07674 49.209C0.594108 43.5592 0.395719 37.6489 1.49614 31.9124C2.59655 26.1758 4.96784 20.7585 8.43587 16.0583C8.76092 15.6157 9.09666 15.1816 9.44308 14.7558C9.94058 14.1377 10.4564 13.5365 10.9905 12.952L11.05 12.8879L11.4346 12.4713L11.4552 12.4507C15.4364 8.23874 20.3052 4.96585 25.7085 2.86949C31.1118 0.773119 36.914 -0.0941544 42.6941 0.330593C48.4742 0.75534 54.0873 2.46145 59.1261 5.32515C64.1649 8.18884 68.503 12.1383 71.8258 16.887C76.4215 23.4407 78.8815 31.2538 78.8693 39.2583Z" fill="#FC565D"/>
<path d="M46.5243 65.4319H46.6136C46.5694 65.4296 46.5251 65.4296 46.4808 65.4319H46.5243Z" fill="#31CFF4"/>
<path d="M122.085 48.6093C121.856 50.9236 113.201 49.5249 108.893 54.1581C107.291 55.8909 104.672 60.421 104.267 61.5335C104.139 61.9197 103.9 62.2597 103.58 62.511C103.344 62.6825 103.071 62.7976 102.784 62.8472C102.496 62.8968 102.201 62.8797 101.921 62.7971C101.016 62.5064 100.685 60.6042 100.659 60.4508C100.213 57.7634 100.932 55.4949 100.799 53.8994C100.414 49.2708 92.8558 50.0514 86.5676 42.5935C85.3498 41.1514 83.6673 38.7913 81.3759 38.8005C80.5358 38.8005 79.5217 39.1278 77.3265 39.137C76.3536 39.137 75.6852 39.0317 75.3647 39.0592C73.2725 39.2423 71.9814 40.2999 67.7695 40.6066C61.637 41.0644 59.8103 39.1439 57.4685 40.8744C57.4685 40.8744 54.7078 42.9346 52.5652 43.7724C51.265 44.2806 51.3177 43.9304 50.5188 44.3561C49.0835 45.1207 47.2889 49.2365 47.2889 49.2365C45.6224 53.0295 44.4343 53.2905 44.8281 54.245C45.5034 55.8795 48.866 54.7853 51.51 57.4841C51.9312 57.9145 52.9407 58.9446 52.6362 59.9014C52.4302 60.5538 51.6221 61.1192 50.8644 61.1421C50.6439 61.1457 50.4248 61.1068 50.2189 61.0276C49.7611 60.8743 47.3713 60.0616 46.8516 60.6087C46.4075 61.0803 47.6254 62.2271 47.9275 64.8527C48.1381 66.7138 47.6551 67.2609 47.3919 67.4623C47.2086 67.5914 47.0004 67.6811 46.7807 67.7255C46.7461 67.7647 46.7028 67.795 46.6543 67.8141C46.6057 67.8332 46.5533 67.8405 46.5014 67.8354C45.9879 67.8104 45.4959 67.621 45.0982 67.2952C43.6606 66.0728 40.5726 61.1261 37.6792 59.4321C34.2455 57.4177 30.9744 59.9472 29.2553 57.6879C28.4747 56.66 28.2435 54.9409 28.9623 53.9269C30.2762 52.0521 33.4031 54.1558 37.4159 52.5809C38.9931 51.9582 40.4925 49.9438 43.4981 45.9173C44.3817 44.7338 45.5056 43.0948 44.9769 42.312C44.9161 42.2215 44.8384 42.1438 44.7479 42.0831C43.624 41.243 43.1914 39.5536 43.1044 39.2835C42.4817 37.3492 36.1844 35.0761 34.3371 34.3322C33.1925 33.8744 23.631 29.651 19.4098 21.8131C18.8605 20.7899 17.4664 17.9697 16.2303 18.1757C15.3146 18.3268 15.3329 20.0184 13.8748 20.6617C12.7829 21.1447 11.2538 20.87 10.3564 20.0551C8.68768 18.542 9.70633 15.8431 8.69684 15.4357C7.64843 15.0145 6.55881 17.9216 3.80044 18.7205C0.723884 19.611 -2.38014 17.283 -2.87688 16.8892C-6.18692 14.3415 -6.94004 9.967 -7.201 8.46307C-7.74351 5.30182 -7.07281 3.77042 -8.46687 1.97576C-9.48552 0.670975 -10.3806 0.794592 -12.1294 -0.329355C-12.3744 -0.478147 -17.8247 -4.06974 -17.7721 -9.3919C-17.7469 -13.2834 -14.8214 -15.9753 -14.3018 -16.4583C-11.5686 -18.9764 -9.72359 -17.9875 -8.50579 -19.7318C-5.80922 -23.5477 -13.48 -29.9686 -11.2527 -35.8905C-9.91359 -39.4775 -5.47043 -41.2104 -2.63881 -41.5949C4.74355 -42.6113 12.3846 -36.0027 15.5252 -29.2132C18.9314 -21.8492 15.8549 -16.8521 20.1263 -13.3269C23.9926 -10.1381 30.3129 -11.0881 30.5509 -12.0038C30.7089 -12.6195 28.0901 -13.13 27.0692 -15.6526C26.3527 -17.4289 26.854 -19.1457 26.9868 -19.583C27.7101 -21.9453 29.6925 -23.2707 30.5189 -23.8064C37.5808 -28.3845 55.6349 -28.5837 63.237 -36.4216C71.7617 -45.2094 69.1887 -65.722 75.1152 -70.5658C75.4632 -70.8496 77.0381 -72.056 76.8298 -73.3127C76.5688 -74.8693 73.8173 -74.78 71.8853 -76.5449C68.6279 -79.5207 68.6004 -86.9534 71.7663 -89.5172C74.5681 -91.7834 78.6336 -89.2334 79.7781 -90.9914C81.4835 -93.5781 72.8696 -99.4084 74.401 -104.708C75.335 -107.947 79.9658 -110.625 83.7863 -109.556C87.0277 -108.652 89.1863 -105.255 89.3786 -102.49C89.4931 -100.86 88.9368 -99.2734 89.2962 -99.1475C89.6556 -99.0216 90.1867 -100.683 91.4869 -101.75C93.4258 -103.341 96.6008 -103.22 98.3428 -102.49C104.452 -99.9303 107.067 -86.1866 102.035 -80.2326C100.408 -78.2983 97.9994 -77.2316 98.2832 -75.6544C98.5396 -74.2054 100.689 -74.3291 103.344 -72.6786C108.854 -69.245 108 -63.4719 113.288 -61.3727C113.471 -61.2995 113.689 -61.2308 113.689 -61.2308C114.597 -60.9214 115.529 -60.6863 116.475 -60.5281C117.677 -60.3175 123.047 -59.3835 123.452 -57.3554C123.647 -56.3802 122.598 -55.3684 120.499 -53.3472C118.322 -51.2481 117.773 -51.4152 117.12 -50.4286C115.696 -48.2745 116.946 -45.4154 118.43 -40.8487C119.515 -37.4975 120.158 -34.0157 121.22 -30.6553C123.857 -22.291 124.521 -0.604047 113.419 12.9772C109.351 17.9308 103.225 25.4138 98.3565 28.6071C97.569 29.1245 95.7767 30.2095 94.6161 32.3704C94.3071 32.945 92.5788 35.7377 93.0664 38.8005C93.9545 44.3653 101.689 48.385 105.54 46.6315C108.925 45.0909 109.523 40.483 112.119 40.7188C113.471 40.8424 115.039 42.3211 114.957 43.2001C114.944 43.5837 114.875 43.9632 114.751 44.3264C114.637 44.8002 114.552 44.9788 114.577 45.1527C114.588 45.1996 114.602 45.2456 114.621 45.2901C114.824 45.7822 117.347 45.4023 118.97 45.8349C120.439 46.2332 122.184 47.5815 122.085 48.6093Z" fill="#FDB157"/>
<path d="M46.5243 65.4319H46.6136C46.5694 65.4296 46.5251 65.4296 46.4808 65.4319H46.5243Z" fill="#31CFF4"/>
</g>
</svg>
