<svg width="79" height="79" viewBox="0 0 79 79" fill="none" xmlns="http://www.w3.org/2000/svg">
<path d="M39.8385 78.1472C61.3975 78.1472 78.8746 60.6702 78.8746 39.1112C78.8746 17.5522 61.3975 0.0751953 39.8385 0.0751953C18.2794 0.0751953 0.802368 17.5522 0.802368 39.1112C0.802368 60.6702 18.2794 78.1472 39.8385 78.1472Z" fill="#FFE600"/>
<mask id="mask0_309_710" style="mask-type:luminance" maskUnits="userSpaceOnUse" x="0" y="0" width="79" height="79">
<path d="M39.8385 78.1472C61.3975 78.1472 78.8746 60.6702 78.8746 39.1112C78.8746 17.5522 61.3975 0.0751953 39.8385 0.0751953C18.2794 0.0751953 0.802368 17.5522 0.802368 39.1112C0.802368 60.6702 18.2794 78.1472 39.8385 78.1472Z" fill="white"/>
</mask>
<g mask="url(#mask0_309_710)">
<path d="M78.8765 39.1113C78.8778 41.4408 78.6718 43.7658 78.2608 46.0588C78.2447 46.1343 78.2333 46.2121 78.2173 46.2877C77.6599 49.2939 76.747 52.2231 75.4978 55.0137C75.2842 55.4944 75.0606 55.9698 74.8271 56.4398C74.5219 57.0502 74.1991 57.6607 73.8588 58.2711C73.5979 58.7289 73.3262 59.1867 73.0439 59.6446C71.4477 62.2193 69.5589 64.6005 67.415 66.7408C66.8412 67.3146 66.2483 67.8701 65.6364 68.4072C63.2719 70.4935 60.6631 72.2852 57.8671 73.7431C57.0598 74.1689 56.2335 74.5641 55.388 74.9289C50.4111 77.083 45.0409 78.1794 39.6179 78.1487C34.195 78.1179 28.8375 76.9607 23.8854 74.7503C23.7892 74.7091 23.6954 74.6656 23.5992 74.6198C20.1784 73.052 17.0025 70.9972 14.1704 68.5194L14.1292 68.4828C13.9942 68.366 13.8614 68.2539 13.7309 68.128C10.3552 65.0918 7.53335 61.4916 5.3917 57.4882C4.74848 56.2858 4.1693 55.0503 3.65656 53.7867C3.30098 52.9169 2.97898 52.0325 2.69055 51.1337C2.65622 51.0284 2.62188 50.9231 2.58983 50.8155C2.52803 50.6232 2.46851 50.4286 2.41128 50.2341C2.29683 49.851 2.18771 49.4604 2.08394 49.062C0.60131 43.4122 0.402921 37.502 1.50334 31.7654C2.60376 26.0288 4.97504 20.6115 8.44307 15.9113C8.76813 15.4688 9.10386 15.0346 9.45028 14.6088C9.94778 13.9908 10.4636 13.3895 10.9977 12.805L11.0572 12.7409L11.4418 12.3243L11.4624 12.3037C15.4436 8.09177 20.3124 4.81888 25.7157 2.72251C31.119 0.626146 36.9212 -0.241127 42.7013 0.18362C48.4814 0.608367 54.0945 2.31448 59.1333 5.17818C64.1721 8.04187 68.5102 11.9913 71.833 16.74C76.4287 23.2937 78.8887 31.1068 78.8765 39.1113Z" fill="#FDB157"/>
<path d="M62.5095 66.9171C62.4202 67.8327 58.9591 67.2833 57.2445 69.1352C56.599 69.8219 55.5575 71.6372 55.3949 72.0813C55.3436 72.2364 55.2472 72.3727 55.118 72.4727C54.9875 72.5641 54.8331 72.6151 54.6739 72.6192C54.6003 72.6183 54.5271 72.6076 54.4564 72.5872C54.0947 72.4704 53.962 71.7104 53.9505 71.6486C53.7743 70.575 54.0604 69.6686 54.0077 69.0322C53.8544 67.1826 50.8328 67.4939 48.3193 64.5135C47.834 63.9367 47.161 62.9935 46.2454 62.9981C45.9112 62.9981 45.5037 63.1286 44.627 63.1332C44.2378 63.1332 43.9723 63.0897 43.8441 63.1011C43.0063 63.1744 42.4913 63.5979 40.8088 63.7192C38.3571 63.8977 37.6269 63.1355 36.6884 63.8268C36.0784 64.2817 35.4215 64.67 34.7289 64.9851C34.2116 65.1865 34.2322 65.0492 33.9117 65.214C33.3394 65.5184 32.6206 67.1643 32.6206 67.1643C31.9568 68.6797 31.4761 68.7827 31.6386 69.165C31.9087 69.8173 33.2524 69.3801 34.3077 70.4583C34.4771 70.6323 34.88 71.042 34.7655 71.4243C34.7065 71.5654 34.6088 71.6869 34.4836 71.7748C34.3585 71.8627 34.211 71.9134 34.0582 71.921C33.9698 71.9226 33.882 71.907 33.7995 71.8752C33.6187 71.8134 32.655 71.4907 32.4535 71.7081C32.2521 71.9256 32.7626 72.356 32.8839 73.4044C32.9686 74.1483 32.774 74.3658 32.6687 74.4459C32.597 74.4991 32.5139 74.5351 32.4261 74.5512C32.4122 74.567 32.3949 74.5794 32.3754 74.5874C32.3559 74.5953 32.3349 74.5986 32.3139 74.597C32.1084 74.587 31.9116 74.5107 31.7531 74.3795C31.1785 73.8919 29.9447 71.9142 28.7772 71.2389C27.4038 70.4331 26.0967 71.4426 25.41 70.5407C25.0986 70.131 25.0071 69.4465 25.2932 69.0391C25.8197 68.2882 27.0673 69.1329 28.6719 68.5011C29.3014 68.2516 29.9012 67.4458 31.103 65.8366C31.4555 65.3651 31.9042 64.7081 31.6936 64.3968C31.6683 64.3613 31.6364 64.331 31.5997 64.3075C31.1419 63.971 30.9771 63.298 30.9427 63.1881C30.6932 62.4167 28.1775 61.5079 27.4381 61.2103C26.9803 61.0249 23.1598 59.3401 21.4864 56.2064C21.2575 55.7989 20.7081 54.6727 20.216 54.7528C19.8474 54.8146 19.8566 55.4899 19.2729 55.7486C19.0384 55.8382 18.7841 55.8629 18.5368 55.8202C18.2895 55.7775 18.0582 55.6689 17.8674 55.5059C17.2012 54.9016 17.6087 53.8211 17.2035 53.6586C16.7984 53.4961 16.3497 54.6521 15.2486 54.9725C14.0194 55.3274 12.7764 54.398 12.5795 54.2446C11.261 53.2191 10.9588 51.4702 10.8558 50.8705C10.6384 49.6069 10.9062 48.9957 10.3499 48.2769C9.94248 47.755 9.58538 47.8054 8.88492 47.3613C8.78649 47.3018 6.60955 45.8665 6.63015 43.7354C6.64388 42.1879 7.80904 41.1075 8.01735 40.9152C9.10925 39.9034 9.84863 40.304 10.3339 39.6081C11.4121 38.0836 8.34698 35.5152 9.23286 33.1506C9.7708 31.7176 11.5471 31.0263 12.6665 30.8615C15.6172 30.454 18.6686 33.0956 19.9253 35.8105C21.285 38.752 20.0557 40.7481 21.7566 42.1582C23.3017 43.4309 25.8266 43.0532 25.9227 42.687C25.9868 42.4397 24.9384 42.2291 24.5309 41.2288C24.3442 40.723 24.3329 40.1692 24.4989 39.6562C24.7873 38.7131 25.5794 38.1843 25.909 37.9691C28.7315 36.1378 35.9467 36.06 38.9844 32.9331C42.3905 29.4216 41.365 21.2198 43.7297 19.2878C43.8693 19.1756 44.4988 18.6926 44.4164 18.1936C44.3134 17.571 43.2123 17.6076 42.4409 16.9026C41.1384 15.7145 41.127 12.7433 42.3928 11.7177C43.5122 10.8021 45.1398 11.8322 45.5976 11.1294C46.2843 10.0948 42.8369 7.76676 43.4504 5.64934C43.8235 4.35372 45.6731 3.28471 47.2 3.71048C48.4956 4.07216 49.3586 5.42959 49.4364 6.53523C49.4822 7.18533 49.2579 7.81941 49.4021 7.86977C49.5463 7.92013 49.7592 7.25629 50.2788 6.83052C51.0525 6.19415 52.3207 6.24222 53.0257 6.53523C55.4682 7.55845 56.512 13.05 54.5022 15.4284C53.8521 16.2021 52.8998 16.6279 53.0028 17.2597C53.1058 17.8388 53.9643 17.7884 55.0241 18.4523C57.2262 19.8257 56.8852 22.1309 58.998 22.9687C59.0712 22.9984 59.1582 23.0259 59.1582 23.0259C59.5216 23.1498 59.8944 23.244 60.273 23.3074C60.7537 23.3899 62.8986 23.7653 63.0612 24.5733C63.139 24.9648 62.7201 25.3676 61.88 26.1757C61.0399 26.9837 60.7904 26.9494 60.5294 27.3431C59.9617 28.2038 60.4607 29.3461 61.0536 31.1705C61.4885 32.5096 61.7403 33.9014 62.1684 35.2428C63.2214 38.578 63.4869 47.2446 59.0461 52.672C57.4231 54.6521 54.976 57.6416 53.0303 58.9144C52.4085 59.2756 51.8929 59.7943 51.5355 60.4183C51.4119 60.6472 50.7206 61.7643 50.9175 62.989C51.2723 65.2117 54.3626 66.8186 55.9008 66.1182C57.2537 65.5024 57.5032 63.6597 58.531 63.7558C59.0712 63.8039 59.6985 64.3922 59.6756 64.747C59.6724 64.903 59.6445 65.0575 59.5932 65.2048C59.5546 65.3116 59.5315 65.4234 59.5245 65.5367C59.5294 65.5554 59.5355 65.5738 59.5428 65.5917C59.6229 65.7885 60.6301 65.6352 61.2757 65.8206C61.8502 65.9671 62.5484 66.5096 62.5095 66.9171Z" fill="#31CFF4"/>
</g>
</svg>
