<svg width="79" height="79" viewBox="0 0 79 79" fill="none" xmlns="http://www.w3.org/2000/svg">
<path d="M39.0366 78.1452C60.5956 78.1452 78.0727 60.6682 78.0727 39.1092C78.0727 17.5503 60.5956 0.0732422 39.0366 0.0732422C17.4775 0.0732422 0.000488281 17.5503 0.000488281 39.1092C0.000488281 60.6682 17.4775 78.1452 39.0366 78.1452Z" fill="#FFE600"/>
<mask id="mask0_309_721" style="mask-type:luminance" maskUnits="userSpaceOnUse" x="0" y="0" width="79" height="79">
<path d="M39.0366 78.1452C60.5956 78.1452 78.0727 60.6682 78.0727 39.1092C78.0727 17.5503 60.5956 0.0732422 39.0366 0.0732422C17.4775 0.0732422 0.000488281 17.5503 0.000488281 39.1092C0.000488281 60.6682 17.4775 78.1452 39.0366 78.1452Z" fill="white"/>
</mask>
<g mask="url(#mask0_309_721)">
<path d="M78.0697 39.1104C78.071 41.4398 77.8649 43.7648 77.4539 46.0578C77.4379 46.1333 77.4264 46.2111 77.4104 46.2867C76.853 49.2929 75.9401 52.2221 74.6909 55.0127C74.4773 55.4934 74.2537 55.9688 74.0202 56.4388C73.715 57.0493 73.3922 57.6597 73.0519 58.2701C72.791 58.7279 72.5193 59.1858 72.237 59.6436C70.6409 62.2183 68.752 64.5995 66.6081 66.7398C66.0343 67.3136 65.4414 67.8691 64.8295 68.4062C62.465 70.4925 59.8562 72.2842 57.0602 73.7421C56.253 74.1679 55.4266 74.5632 54.5811 74.9279C49.6042 77.082 44.234 78.1784 38.8111 78.1477C33.3881 78.1169 28.0307 76.9597 23.0785 74.7493C22.9823 74.7081 22.8885 74.6646 22.7923 74.6189C19.3715 73.051 16.1956 70.9962 13.3635 68.5184L13.3223 68.4818C13.1873 68.365 13.0545 68.2529 12.924 68.127C9.54827 65.0909 6.72647 61.4906 4.58481 57.4872C3.9416 56.2849 3.36241 55.0493 2.84967 53.7858C2.4941 52.9159 2.1721 52.0316 1.88367 51.1327C1.84933 51.0274 1.815 50.9221 1.78295 50.8145C1.72114 50.6222 1.66163 50.4277 1.6044 50.2331C1.48994 49.85 1.38083 49.4594 1.27706 49.0611C-0.205574 43.4112 -0.403964 37.501 0.696454 31.7644C1.79687 26.0278 4.16815 20.6106 7.63619 15.9103C7.96124 15.4678 8.29698 15.0336 8.64339 14.6079C9.14089 13.9898 9.6567 13.3885 10.1908 12.804L10.2503 12.7399L10.6349 12.3233L10.6555 12.3027C14.6367 8.09079 19.5055 4.81791 24.9088 2.72154C30.3121 0.62517 36.1143 -0.242104 41.8944 0.182643C47.6746 0.60739 53.2876 2.3135 58.3264 5.1772C63.3652 8.04089 67.7034 11.9903 71.0261 16.739C75.6219 23.2928 78.0818 31.1058 78.0697 39.1104Z" fill="#31CFF4"/>
<path d="M84.4791 216.918C84.1838 219.967 72.7657 218.127 67.0819 224.243C64.9553 226.532 61.5171 232.5 60.9814 233.967C60.8119 234.478 60.4929 234.926 60.0658 235.254C59.6348 235.557 59.1232 235.725 58.5962 235.737C58.3538 235.735 58.1127 235.7 57.8797 235.634C56.687 235.249 56.2475 232.743 56.2155 232.541C55.6295 228.998 56.5749 226.006 56.4009 223.902C55.8927 217.802 45.9283 218.829 37.6303 208.998C36.0279 207.098 33.8074 203.985 30.7881 203.998C29.6802 203.998 28.3411 204.429 25.4476 204.44C24.1657 204.44 23.2844 204.3 22.8632 204.339C20.1163 204.58 18.4041 205.976 12.8507 206.379C4.76557 206.967 2.35743 204.449 -0.732857 206.732C-0.732857 206.732 -4.37254 209.449 -7.195 210.552C-8.90725 211.223 -8.83858 210.763 -9.89386 211.323C-11.7847 212.331 -14.1516 217.754 -14.1516 217.754C-16.3468 222.755 -17.9149 223.101 -17.3953 224.358C-16.5048 226.514 -12.0708 225.069 -8.58677 228.627C-8.03052 229.197 -6.70055 230.554 -7.10115 231.815C-7.37355 232.674 -8.43798 233.418 -9.43832 233.45C-9.72828 233.455 -10.0165 233.404 -10.2876 233.301C-10.885 233.097 -14.0417 232.028 -14.7284 232.749C-15.3145 233.37 -13.7075 234.883 -13.3115 238.342C-13.0322 240.798 -13.6686 241.519 -14.0165 241.775C-14.257 241.948 -14.5318 242.067 -14.8223 242.123C-14.8678 242.175 -14.925 242.215 -14.9891 242.24C-15.0532 242.265 -15.1224 242.274 -15.1908 242.267C-15.8672 242.234 -16.5153 241.985 -17.0404 241.558C-18.9335 239.955 -23.0058 233.425 -26.8195 231.191C-31.3565 228.535 -35.6577 231.877 -37.9262 228.901C-38.9563 227.546 -39.2585 225.292 -38.3131 223.943C-36.578 221.473 -32.4576 224.257 -27.1674 222.169C-25.0889 221.35 -23.1089 218.694 -19.1556 213.384C-17.9675 211.816 -16.4865 209.646 -17.1732 208.611C-17.2563 208.494 -17.3613 208.395 -17.4822 208.318C-18.9633 207.21 -19.5424 204.983 -19.65 204.628C-20.4695 202.078 -28.7721 199.079 -31.2077 198.102C-32.7277 197.49 -45.3223 191.921 -50.894 181.595C-51.6197 180.247 -53.4555 176.529 -55.0854 176.788C-56.2986 176.989 -56.2688 179.219 -58.1917 180.066C-59.6315 180.702 -61.6459 180.34 -62.8294 179.267C-65.0269 177.273 -63.6855 173.714 -65.0178 173.176C-66.3913 172.619 -67.8357 176.454 -71.4708 177.507C-75.5271 178.681 -79.6246 175.611 -80.2747 175.105C-84.624 171.724 -85.6197 165.949 -85.9631 163.973C-86.6796 159.807 -85.7937 157.793 -87.6341 155.421C-88.9756 153.702 -90.1522 153.867 -92.4664 152.384C-92.7846 152.187 -99.9678 147.453 -99.8992 140.423C-99.8534 135.316 -96.0077 131.757 -95.321 131.12C-91.7156 127.785 -89.2983 129.104 -87.6776 126.805C-84.1249 121.769 -94.2359 113.3 -91.3082 105.503C-89.5341 100.774 -83.6763 98.4938 -79.9473 97.981C-70.2141 96.6396 -60.142 105.352 -56.001 114.305C-51.5098 124.013 -55.5661 130.601 -49.9349 135.248C-44.8393 139.45 -36.5047 138.2 -36.2002 136.994C-35.9919 136.182 -39.4462 135.509 -40.7785 132.187C-41.7239 129.845 -41.0646 127.581 -40.8883 127.005C-39.9361 123.891 -37.3219 122.145 -36.2323 121.437C-26.9225 115.403 -3.1181 115.138 6.90131 104.807C18.1294 93.2403 14.7438 66.174 22.5519 59.8034C23.0097 59.4303 25.0882 57.8394 24.8135 56.1935C24.4702 54.1333 20.842 54.2615 18.2965 51.9335C13.9998 48.0123 13.9655 38.2127 18.1362 34.8317C21.8308 31.8444 27.1805 35.2048 28.705 32.8882C30.9529 29.4775 19.599 21.7907 21.6088 14.8043C22.8426 10.5329 28.9477 7.0031 33.9837 8.41089C38.2575 9.60351 41.1005 14.0833 41.3569 17.7275C41.508 19.877 40.7732 21.9669 41.247 22.134C41.7209 22.3011 42.4213 20.1082 44.1359 18.7004C46.6928 16.6036 50.8773 16.7638 53.1756 17.7275C61.2286 21.1017 64.6737 39.2199 58.0422 47.0692C55.895 49.6192 52.7223 51.027 53.0954 53.1147C53.4342 55.0238 56.2658 54.859 59.7659 57.0474C67.0315 61.5821 65.9076 69.1796 72.8779 71.9517C73.1182 72.0478 73.4044 72.1394 73.4044 72.1394C74.5987 72.5452 75.8234 72.8552 77.0669 73.0665C78.651 73.3435 85.7312 74.5773 86.2646 77.2464C86.5209 78.5328 85.1383 79.8674 82.3731 82.5319C79.5026 85.2994 78.7792 85.0797 77.9185 86.3799C76.0437 89.2206 77.6896 92.9862 79.6445 99.0088C81.0775 103.427 81.9336 108.019 83.3231 112.446C86.7979 123.434 87.6724 152.047 73.0221 169.939C67.6725 176.472 59.5988 186.336 53.1801 190.541C52.1409 191.227 49.7808 192.649 48.2494 195.501C47.8419 196.261 45.562 199.942 46.2052 203.971C47.375 211.296 57.5729 216.604 62.6502 214.295C67.1139 212.264 67.9014 206.189 71.3213 206.5C73.1068 206.663 75.1716 208.602 75.0663 209.771C74.9633 210.9 74.7939 211.255 74.7939 211.255C74.6428 211.88 74.5306 212.115 74.565 212.344C74.5785 212.407 74.5969 212.468 74.6199 212.528C74.89 213.175 78.2138 212.674 80.3427 213.244C82.309 213.773 84.6095 215.561 84.4791 216.918Z" fill="#FFE600"/>
</g>
</svg>
