<svg width="79" height="79" viewBox="0 0 79 79" fill="none" xmlns="http://www.w3.org/2000/svg">
<path d="M39.0363 78.2883C60.5954 78.2883 78.0724 60.8113 78.0724 39.2523C78.0724 17.6933 60.5954 0.216309 39.0363 0.216309C17.4773 0.216309 0.000244141 17.6933 0.000244141 39.2523C0.000244141 60.8113 17.4773 78.2883 39.0363 78.2883Z" fill="#FFE600"/>
<mask id="mask0_309_732" style="mask-type:luminance" maskUnits="userSpaceOnUse" x="0" y="0" width="79" height="79">
<path d="M39.0361 78.2878C60.5951 78.2878 78.0722 60.8108 78.0722 39.2518C78.0722 17.6928 60.5951 0.21582 39.0361 0.21582C17.4771 0.21582 0 17.6928 0 39.2518C0 60.8108 17.4771 78.2878 39.0361 78.2878Z" fill="white"/>
</mask>
<g mask="url(#mask0_309_732)">
<path d="M79.2464 39.52C79.2477 41.8495 79.0416 44.1745 78.6306 46.4675C78.6169 46.543 78.6032 46.6185 78.5871 46.6964C78.0301 49.7041 77.1172 52.6349 75.8677 55.427C75.654 55.9077 75.4305 56.3831 75.197 56.8531C74.8902 57.4711 74.5675 58.0823 74.2287 58.6844C73.9677 59.1422 73.6961 59.6 73.4138 60.0578C71.8176 62.6325 69.9287 65.0138 67.7848 67.154C67.211 67.7278 66.6182 68.2833 66.0062 68.8205C63.6417 70.906 61.0329 72.6969 58.237 74.1541C57.4266 74.5783 56.6003 74.9728 55.7579 75.3376C50.7823 77.4903 45.4137 78.5861 39.9924 78.5553C34.5711 78.5246 29.2153 77.3681 24.2644 75.159L23.9783 75.0285C20.5581 73.4603 17.3824 71.4064 14.5494 68.9304L14.5082 68.896C14.3732 68.7793 14.2404 68.6671 14.1099 68.5412C10.7306 65.5061 7.90565 61.9058 5.76156 57.9015C5.11834 56.6999 4.53915 55.4651 4.02642 54.2023C3.67389 53.3325 3.35189 52.4481 3.06041 51.5492C3.02608 51.4439 2.99174 51.3387 2.95969 51.2311C2.89789 51.0388 2.83837 50.8442 2.78114 50.6496C2.66669 50.2605 2.55223 49.8713 2.4538 49.4776C0.970094 43.8267 0.771151 37.9152 1.87159 32.1774C2.97202 26.4395 5.34388 21.0211 8.81293 16.32C9.13799 15.879 9.47372 15.4448 9.82014 15.0175C10.3176 14.4071 10.8334 13.8051 11.3676 13.2114L11.4271 13.1496C11.5553 13.0077 11.6835 12.8704 11.8117 12.733L11.8323 12.7124C15.8139 8.50083 20.6832 5.22842 26.0867 3.13261C31.4903 1.0368 37.2927 0.170159 43.0728 0.595565C48.853 1.02097 54.4659 2.72775 59.5044 5.59208C64.543 8.4564 68.8807 12.4064 72.2028 17.1555C76.7966 23.7077 79.2564 31.5179 79.2464 39.52Z" fill="#FFE600"/>
<path d="M21.0187 50.2009H21.1057C21.063 50.1986 21.0202 50.1986 20.9775 50.2009H21.0187Z" fill="#FC565D"/>
<path d="M69.2663 47.5752C69.1312 48.9189 64.0952 48.1063 61.6024 50.8051C60.6661 51.8123 59.1507 54.4448 58.915 55.0903C58.841 55.3152 58.7015 55.5129 58.5144 55.658C58.3238 55.7923 58.0974 55.8664 57.8643 55.8709C57.7582 55.8695 57.6527 55.8541 57.5507 55.8251C57.0242 55.6557 56.8296 54.5524 56.8158 54.4631C56.5572 52.9019 56.9738 51.5834 56.8983 50.6563C56.6693 47.9689 52.2834 48.4199 48.63 44.0889C47.9227 43.2511 46.9452 41.8799 45.6153 41.8845C45.1254 41.8845 44.5371 42.0745 43.2621 42.0791C42.6967 42.0791 42.3075 42.0195 42.1175 42.0356C40.902 42.1409 40.1512 42.7566 37.7041 42.9352C34.1423 43.1938 33.0801 42.0836 31.7204 43.0908C31.7204 43.0908 30.118 44.288 28.8705 44.7733C28.1173 45.0686 28.1471 44.8649 27.6824 45.1121C26.8492 45.5562 25.8076 47.946 25.8076 47.946C24.8393 50.1504 24.148 50.3015 24.3769 50.8577C24.7684 51.8077 26.7233 51.1714 28.2684 52.7394C28.5134 52.9889 29.0994 53.5864 28.9231 54.1426C28.8367 54.3476 28.6942 54.524 28.512 54.6516C28.3297 54.7792 28.1152 54.8527 27.893 54.8637C27.7647 54.8665 27.6371 54.844 27.5176 54.7973C27.2406 54.6966 25.8672 54.2387 25.5581 54.5455C25.2995 54.8202 26.0159 55.4863 26.1808 57.0108C26.3044 58.0913 26.0228 58.4095 25.8694 58.5262C25.7634 58.602 25.6425 58.6543 25.5146 58.6796C25.4949 58.7022 25.4701 58.7198 25.4422 58.7309C25.4144 58.742 25.3843 58.7464 25.3544 58.7437C25.0555 58.729 24.7692 58.6191 24.5372 58.4301C23.704 57.7205 21.9093 54.8454 20.2291 53.8519C18.2284 52.6822 16.3376 54.1518 15.335 52.8378C14.8772 52.2427 14.7467 51.2492 15.1633 50.654C15.9279 49.5644 17.7431 50.7914 20.0757 49.8711C20.9914 49.5095 21.8635 48.3397 23.6101 46.0003C24.1229 45.3136 24.7753 44.3613 24.4685 43.9058C24.4313 43.8555 24.3856 43.8121 24.3335 43.7776C23.6788 43.29 23.4178 42.308 23.3766 42.1523C23.0149 41.0284 19.3569 39.7075 18.2834 39.2749C17.6264 39.014 12.0639 36.5646 9.61451 32.0116C9.29404 31.4164 8.48369 29.7774 7.7672 29.8965C7.23155 29.9857 7.24529 30.9678 6.39374 31.3432C6.05275 31.4734 5.68299 31.5093 5.3233 31.4473C4.96362 31.3853 4.62726 31.2275 4.34957 30.9907C3.38128 30.1116 3.97187 28.5413 3.38586 28.3055C2.79985 28.0698 2.14516 29.7454 0.545079 30.2147C-1.24271 30.732 -3.04881 29.3791 -3.33495 29.1548C-5.25322 27.6669 -5.69044 25.1237 -5.84152 24.2516C-6.15742 22.4203 -5.76827 21.5252 -6.57861 20.4814C-7.1692 19.7237 -7.68883 19.7947 -8.70748 19.1446C-8.84712 19.0553 -12.0129 16.9699 -11.9832 13.8797C-11.9626 11.6295 -10.2687 10.0614 -9.96649 9.77987C-8.38014 8.31027 -7.31342 8.8917 -6.59922 7.87763C-5.03347 5.66179 -9.49036 1.92598 -8.20159 -1.50767C-7.42101 -3.59075 -4.8389 -4.59566 -3.19532 -4.82228C1.09675 -5.42203 5.53533 -1.58092 7.35974 2.3632C9.33753 6.64152 7.55432 9.5441 10.0334 11.5928C12.279 13.4447 15.9508 12.8931 16.0881 12.362C16.1797 12.0026 14.6574 11.7073 14.0668 10.24C13.7941 9.50402 13.7772 8.69765 14.0187 7.95089C14.4377 6.57743 15.5891 5.80829 16.0789 5.49697C20.181 2.83704 30.6697 2.72259 35.0785 -1.82814C40.0321 -6.93512 38.5396 -18.859 41.9802 -21.6655C42.1816 -21.8303 43.0972 -22.5307 42.9759 -23.2678C42.8248 -24.1835 41.227 -24.1194 40.1054 -25.1449C38.2123 -26.8732 38.1963 -31.1904 40.0344 -32.6806C41.662 -33.9968 44.0198 -32.5158 44.6928 -33.5367C45.6816 -35.0407 40.6777 -38.4285 41.5681 -41.5051C42.1106 -43.3867 44.8026 -44.9387 47.0208 -44.323C48.9047 -43.7965 50.1568 -41.8233 50.269 -40.2186C50.3354 -39.2709 50.0126 -38.3484 50.2209 -38.2752C50.4292 -38.2019 50.7383 -39.1679 51.4937 -39.7883C52.6222 -40.7039 54.4695 -40.6421 55.4767 -40.2186C59.0271 -38.7307 60.5448 -30.7463 57.6216 -27.2875C56.6762 -26.1635 55.2776 -25.5432 55.4424 -24.623C55.5912 -23.7829 56.841 -23.8538 58.3816 -22.8901C61.5863 -20.8918 61.0873 -17.5428 64.1593 -16.3227C64.2669 -16.2792 64.3882 -16.2403 64.3882 -16.2403C64.916 -16.0529 65.4579 -15.9082 66.0089 -15.8077C66.7071 -15.6863 69.8271 -15.1415 70.0629 -13.9764C70.1751 -13.4087 69.5662 -12.8204 68.3461 -11.6461C67.0802 -10.4283 66.762 -10.5244 66.3843 -9.94986C65.5557 -8.70001 66.2836 -7.03813 67.1443 -4.38506C67.7761 -2.43933 68.1492 -0.415769 68.765 1.53683C70.2964 6.39659 70.681 18.9866 64.2257 26.8726C61.8679 29.7454 58.3106 34.0947 55.4813 35.9489C54.5778 36.4742 53.8286 37.2281 53.3089 38.1349C53.1281 38.4691 52.1232 40.0921 52.407 41.8707C52.9244 45.1052 57.4179 47.4401 59.6543 46.4215C61.6207 45.5264 61.9686 42.8505 63.4771 42.9878C64.2623 43.0611 65.1734 43.9035 65.1253 44.43C65.1201 44.6519 65.0815 44.8719 65.0108 45.0824C64.9538 45.236 64.9198 45.3972 64.9101 45.5608C64.9163 45.5889 64.9248 45.6164 64.9353 45.6432C65.0543 45.9293 66.5171 45.7073 67.4533 45.9591C68.3117 46.188 69.3235 46.9754 69.2663 47.5752Z" fill="#31CFF4"/>
<path d="M21.0187 50.2009H21.1057C21.063 50.1986 21.0202 50.1986 20.9775 50.2009H21.0187Z" fill="#FC565D"/>
</g>
</svg>
