<svg width="300" height="300" viewBox="0 0 300 300" fill="none" xmlns="http://www.w3.org/2000/svg">
<g clip-path="url(#clip0_1_21)">
<rect width="300" height="300" fill="#FDB157"/>
<path fill-rule="evenodd" clip-rule="evenodd" d="M332.613 205.219L332.392 205.1C332.662 204.765 332.997 204.754 333.202 204.138C332.264 203.466 331.148 203.09 329.995 203.057C329.428 203.841 330.384 204.192 329.455 204.527C327.436 203.403 325.676 203.495 323.624 202.366L323.819 202.301L323.775 202.106C323.927 201.836 324.072 201.566 324.218 201.296C323.538 200.637 322.793 201.258 322.96 202.004L322.809 202.274L323.03 202.398C320.811 202.474 318.911 201.036 316.913 200.777C316.174 200.685 315.229 201.317 314.597 201.263C311.358 200.955 309.112 198.918 305.716 197.783C301.694 196.432 296.964 197.27 293.174 195.082C288.59 192.455 286.873 187.684 281.955 184.706L282.219 184.496L282.257 184.171C282.36 184.015 282.468 183.869 282.63 184.02C283.045 183.085 281.55 182.734 281.215 183.945C281.361 184.036 281.518 184.107 281.663 184.193L281.404 184.404L281.361 184.728C279.941 183.966 279.169 181.075 277.409 182.912C276.594 182.599 277.711 181.524 276.507 181.362C273.775 182.377 272.091 178.438 269.71 179.384C269.003 179.027 269.543 178.19 268.441 177.979C267.691 177.547 267.361 179.178 266.584 178.708C266.368 175.493 261.752 179.249 261.061 177.087C260.429 177.195 260.715 178.752 259.722 178.454C259.927 176.493 256.223 176.423 254.863 176.136C253.864 177.114 255.111 177.547 254.199 177.882C252.536 178.152 253.573 176.552 252.255 176.104C251.715 175.877 251.402 176.525 251.067 177.185C249.275 175.85 246.511 175.304 245.906 172.246C245.22 172.154 244.13 173.099 243.822 171.802C243.714 170.252 245.636 172.035 246.127 170.262C244.302 167.771 241.754 169.463 240.005 170.765C238.995 170.176 239.136 169.144 237.991 168.603C237.106 169.333 237.392 170.149 236.431 170.905C233.931 171.446 231.852 174.202 229.126 173.564C228.878 175.888 225.973 175.412 225.034 177.276C224.148 179.033 225.87 181.524 226.691 183.804C227.512 186.084 228.575 188.262 229.088 190.034C229.628 191.915 229.714 194.487 230.449 196.049C233.213 201.993 241.862 207.937 247.947 211.984C250.376 213.605 252.514 212.968 254.291 213.719C258.118 215.34 260.645 219.366 262.438 221.705C260.57 223.699 258.448 221.738 256.175 221.419C255.095 221.273 253.94 222.046 253.038 221.808C249.799 220.938 249.324 218.728 248.022 215.545C248.319 215.697 248.719 214.945 248.47 214.735C246.802 214.043 245.96 213.043 244.589 212.244C244.336 212.592 244.206 213.013 244.216 213.443C243.509 212.806 242.418 212.325 242.056 211.552C242.515 211.865 242.893 211.719 243.174 211.114C242.03 210.504 241.554 209.628 240.188 209.126C239.503 209.363 240.032 210.115 239.146 209.947C238.931 209.304 240.161 209.034 239.443 208.358C237.856 207.278 235.254 208.223 235.405 205.089C234.8 204.403 234.466 205.057 234.142 205.792C233.429 205.008 233.472 203.944 232.641 203.214C232.368 203.364 232.063 203.447 231.752 203.458C231.441 203.47 231.132 203.408 230.848 203.279C229.347 201.971 228.932 199.302 226.81 200.037C225.903 199.966 227.123 199.069 226.211 199.005C225.482 198.686 224.931 199.275 224.272 199.34C223.041 197 220.077 198.14 218.074 197.34C216.071 196.54 214.63 194.638 212.772 193.72C211.876 194.622 210.581 193.439 209.565 193.72C209.35 193.044 209.771 191.423 208.588 191.78C207.633 191.526 208.259 193.774 207.401 192.861C205.732 190.699 201.737 191.964 200.231 188.921C199.577 188.646 199.313 190.402 198.611 189.775C197.758 189.51 196.721 187.83 195.102 187.149C195.117 186.14 194.855 185.145 194.346 184.274C193.325 182.691 188.348 179.135 187.025 180.594C186.971 181.821 188.267 182.507 187.856 183.836C187.316 183.788 186.863 184.231 186.442 184.825C183.235 182.404 180.724 183.577 177.706 182.124C174.035 183.501 174.791 189.564 176.535 191.656C178.073 193.509 180.389 193.034 181.766 193.817C183.877 195.038 184.709 198.324 183.418 200.334C180.611 204.738 177.641 198.41 175.649 197.475C174.218 196.805 172.475 197.886 170.876 195.552C168.533 196.384 165.672 195.109 163.35 197.027C158.939 200.664 160.91 202.863 162.546 206.418C163.939 209.461 165.666 212.362 166.671 215.356C168.037 219.42 168.469 223.656 170.504 226.936C171.308 228.238 172.939 229.098 173.867 230.892C174.559 232.221 174.796 235.923 174.559 236.539C173.274 235.485 173.355 233.918 171.492 233.102C169.516 233.88 165.159 233.961 163.804 232.729C162.929 231.945 163.161 229.924 162.308 229.098C161.229 228.049 159.463 228.66 157.989 228.471C152.234 233.977 155.425 239.819 156.013 245.293C156.137 246.498 155.738 247.957 155.943 249.118C156.963 254.873 161.342 258.883 164.106 264.486C166.077 268.442 168.231 272.592 170.045 274.413C170.963 275.359 172.161 275.494 172.799 276.277C173.193 276.774 173.095 277.866 173.479 278.752C174.424 280.962 174.877 282.335 175.73 284.204C176.74 286.425 178.149 289.37 179.401 290.792C179.758 291.191 181.194 291.64 182.16 292.656C182.646 293.158 183.278 294.963 184.487 296.39C185.697 297.816 187.095 298.762 187.559 299.832C188.639 302.372 187.629 304.971 185.254 304.533C182.015 303.944 179.898 298.195 179.342 296.719C178.365 294.131 176.643 292.342 175.898 290.262L176.157 290.051L176.189 289.722C176.421 289.851 176.637 289.976 176.864 290.089C177.004 289.17 176.454 287.711 175.444 287.928C175.341 288.1 175.239 288.279 175.142 288.468L174.996 288.738L174.85 289.008C169.953 284.091 166.142 278.768 164.662 272.522L164.889 272.651L165.035 272.381C166.147 271.841 165.785 270.517 164.808 270.144C164.56 270.496 164.429 270.918 164.436 271.349L164.209 271.219L164.063 271.49C163.41 271.046 163.609 270.268 163.313 269.674L163.577 269.469L163.609 269.139L164.058 269.382C164.209 269.112 164.355 268.842 164.506 268.577C164.284 268.447 164.058 268.328 163.831 268.21C163.68 268.474 163.539 268.75 163.383 269.015L163.237 268.761H162.94C162.748 268.667 162.588 268.518 162.48 268.334C162.373 268.149 162.322 267.937 162.335 267.723L162.6 267.518L162.632 267.188L163.091 267.437C163.091 265.459 161.979 263.93 160.537 262.525C160.386 262.79 160.235 263.065 160.089 263.33L159.944 263.071H159.647C158.335 262.109 158.783 260.45 157.541 259.456L157.73 259.385L157.919 259.31C158.486 258.526 158.389 258.002 157.617 257.737C157.465 258.007 157.325 258.278 157.174 258.553L157.136 258.359L156.942 258.423C156.132 257.191 156.942 255.338 156.488 253.96C155.036 252.528 154.221 254.419 153.249 252.879C154.129 252.339 154.15 250.259 152.428 251.723C154.215 250.183 151.618 250.502 152.266 248.832C151.726 248.167 150.647 248.178 150.328 247.065C150.587 247.459 151.408 245.984 150.922 245.984C149.621 246.087 149.578 244.768 148.762 244.087C149.059 243.169 149.713 244.185 149.961 243.007C147.445 242.693 148.341 240.272 146.516 238.684C146.721 237.652 147.353 238.868 147.553 237.852C146.144 236.182 144.589 234.572 145.528 232.524C143.137 232.853 140.588 232.356 139.719 235.647C139.379 236.917 141.927 242.483 142.127 243.985L141.906 243.866L141.754 244.131C141.323 243.99 140.988 244.314 140.712 244.968C140.822 245.101 140.976 245.191 141.145 245.222C141.315 245.254 141.49 245.224 141.64 245.139C141.79 245.054 141.905 244.919 141.966 244.757C142.026 244.596 142.028 244.418 141.97 244.255L142.203 244.379L142.348 244.115C145.415 247.276 149.216 250.145 149.162 254.527C147.607 255.208 146.106 255.354 144.61 253.776C144.924 252.89 146.565 253.657 146.176 252.528C145.971 250.458 144.789 252.933 143.714 252.236C142.753 250.837 144.902 251.112 144.794 249.68C143.984 249.291 143.617 251.183 142.786 250.68C142.921 249.929 141.911 249.599 142.408 248.718C142.688 247.395 143.617 249.464 143.898 248.135C141.134 248.178 139.697 245.201 138.294 242.942C137.932 242.78 137.754 243.536 137.322 243.115C136.939 240.694 133.948 240.456 133.58 238.252C132.727 237.868 132.501 238.154 132.015 237.398C131.73 236.69 131.65 235.917 131.783 235.166C128.003 234.415 130.163 230.994 126.249 229.314C125.773 228.736 127.264 229.087 126.842 228.233C125.39 228.12 125.358 226.882 124.974 225.801C127.809 224.472 134.396 231.578 136.091 227.352C136.49 226.353 136.059 225.423 134.59 224.769L134.747 224.505L134.514 224.375C134.79 224.051 135.119 224.04 135.34 223.429L134.439 222.932C134.188 223.281 134.059 223.702 134.072 224.132L133.845 224.002L133.694 224.278C133.051 224.423 131.378 224.656 131.243 223.975C131.783 224.148 131.988 222.727 131.383 222.651C130.843 222.013 130.654 223.035 130.341 223.489C129.466 223.186 130.341 222.224 129.439 221.932C127.863 221.565 125.347 222.165 124.219 221.868C123.911 221.797 123.571 220.998 123.241 220.987C122.205 220.987 121.514 221.857 120.542 221.619C120.265 221.275 119.938 220.976 119.57 220.733C118.409 219.928 116.655 220.446 116.331 218.62C114.895 219.522 114.544 219.376 113.415 218.08C112.503 219.241 111.364 219.209 110.289 219.517C106.915 221.641 106.218 226.817 103.675 230.978C103.087 231.951 102.38 232.513 102.115 233.28C101.181 235.955 102.752 238.587 101.91 240.537L101.683 240.413L101.532 240.683C98.2927 239.213 96.8458 245.628 96.0305 247.486C95.2585 249.253 93.6118 250.729 93.1313 252.215C92.5212 254.111 93.5632 256.397 93.6712 259.185C93.6982 259.942 93.2501 260.742 93.3095 261.439C93.6226 265.573 96.4085 268.728 94.2327 272.468C97.0402 281.848 100.172 291.121 99.2915 301.934C98.9568 302.966 98.3899 302.782 98.0389 303.69C99.3995 304.771 98.7786 306.641 98.3467 308.429L98.0389 308.548L97.8176 308.84C96.1277 307.051 98.7894 303.539 96.6892 301.901C96.3383 302.534 95.9981 303.155 95.6526 303.787L95.5015 303.523H95.2045C94.4551 299.188 94.1422 294.789 94.2705 290.392L94.4972 290.511L94.643 290.24C95.5341 291.739 96.0007 293.452 95.9928 295.196C96.2087 295.233 96.4463 295.433 96.5974 295.168C97.6772 292.656 96.7324 289.084 94.643 289.176C94.5404 289.37 94.4433 289.538 94.3461 289.716L94.3083 289.527L94.1193 289.597C92.7426 287.328 93.4984 284.194 92.613 281.746L92.8398 281.865L92.9909 281.6C93.2069 281.73 93.4337 281.848 93.6604 281.973C94.7996 280.8 93.2231 278.73 92.235 279.779L92.0083 279.66L91.8625 279.93C91.6466 279.736 91.6736 279.444 91.7168 279.147L91.9705 278.941L92.0137 278.606L92.4565 278.855C92.7032 278.502 92.8351 278.081 92.8344 277.65L93.0449 277.779L93.1961 277.509C93.3473 277.244 93.5632 277.282 93.736 277.093C92.6562 275.391 93.736 273.581 91.4846 272.7C92.2783 270.139 90.4048 268.615 90.2806 266.416C89.8865 266.091 89.6382 266.529 89.3142 266.583L89.4654 266.313L89.2386 266.194C87.9861 265.799 89.7138 264.227 88.1103 264.524C87.3166 265.4 88.7204 265.41 88.0401 266.237C85.7185 264.465 85.7185 259.98 86.1451 256.435L86.3718 256.554L86.5176 256.284C86.6013 256.496 86.7339 256.686 86.9046 256.839C87.0753 256.991 87.2793 257.1 87.5002 257.159L87.6459 257.424H87.9429C87.8889 258.013 87.8457 258.586 88.6231 258.845C89.217 257.98 89.4006 257.278 88.4666 257.008L88.3208 256.748H88.0239C88.2344 255.749 88.3748 254.781 87.3436 254.273C86.8793 254.733 86.0479 254.954 86.226 255.77L85.9993 255.641L85.8481 255.911C85.3082 254.987 84.1096 253.209 85.1786 252.366C84.995 252.755 85.5943 252.971 85.7725 252.366C85.157 251.496 84.9195 249.745 84.9464 248.043C85.8643 247.546 86.4636 249.907 87.4786 248.735C87.8997 246.881 86.9711 245.563 86.5715 244.033C85.3778 244.119 84.1803 243.934 83.0676 243.493C81.9532 243.056 80.8991 242.479 79.9308 241.775C77.7712 241.656 76.2865 245.082 74.0406 244.477L73.857 244.558L73.668 244.628C73.7382 243.499 71.9457 244.152 72.3236 244.941C72.447 245.012 72.5829 245.057 72.7238 245.074C72.8646 245.092 73.0075 245.082 73.1443 245.044L72.9932 245.314L73.2253 245.438C72.95 245.763 72.6206 245.773 72.4047 246.395C71.9619 246.984 73.4844 246.8 72.6314 247.567C67.2972 255.03 72.8419 262.568 69.8509 270.609C68.8223 273.537 67.3193 276.275 65.4022 278.714C65.6883 275.359 66.6439 271.749 64.7759 269.242C62.7729 272.722 64.0902 276.688 62.5623 280.665C62.3032 279.309 62.4166 279.076 60.8455 279.044C62.5623 275.985 58.5779 271.409 59.3931 268.42C60.3434 264.984 59.933 260.272 61.2342 257.148C61.5689 256.343 62.4813 255.576 62.7945 254.846C63.9553 252.188 63.437 249.41 64.0524 246.741C64.2306 245.963 64.9001 245.12 65.0243 244.46C65.1538 243.596 64.6247 242.947 64.9271 241.958C66.1364 238.106 68.1989 236.063 69.3164 232.432C70.1047 229.827 69.2679 227.957 69.3164 226.104C69.3164 224.802 70.0669 223.845 69.9049 222.916C69.2763 219.478 68.0306 216.183 66.2282 213.189C64.7489 210.752 61.8227 207.786 62.9888 204.749C63.6745 202.971 66.2282 201.507 67.6049 201.674C69.4568 201.896 69.8725 204.759 71.8701 206.121C74.5696 207.975 75.8978 206.926 78.5757 205.581C80.908 199.199 83.1648 191.348 77.2691 188.359C74.7154 191.753 71.611 192.299 69.0033 195.384C64.6139 196.865 60.0788 197.573 56.4237 202.852C54.2911 203.273 52.4339 205.084 50.1501 204.684C48.9623 206.521 47.4506 206.159 46.1386 206.689C45.7013 206.856 45.4098 207.526 44.9347 207.769C43.9629 208.31 42.6779 207.969 42.0408 208.277C41.123 208.72 38.7259 210.514 38.2616 211.46C37.4085 213.081 38.4991 215.929 38.2616 217.782C38.1914 218.225 37.6245 218.69 37.5057 219.133C37.1655 220.463 37.4625 222.17 37.1494 223.494C36.4799 226.358 34.4499 229.362 35.5297 231.729C36.4097 232.086 36.6095 232.713 37.0306 233.248C36.2747 235.123 34.7144 237.333 32.6358 237.506C33.3647 236.517 32.1985 236.268 31.5074 235.836C31.9339 234.404 31.7666 233.199 30.0929 232.594C28.3328 234.02 26.7941 238.354 26.373 241.44C26.1301 243.223 27.1828 245.914 26.6106 246.843C26.0383 247.773 24.37 247.232 23.8571 248.14C23.6843 245.746 25.1258 242.71 23.0958 241.045C21.9404 242.964 19.9482 242.764 18.5445 244.531C15.6992 248.119 16.5253 250.258 15.9638 253.971C15.4239 257.548 14.0958 260.363 14.4143 262.617C15.0622 267.242 18.4311 271.581 19.2734 275.472C21.3682 274.516 20.2074 272.543 20.3532 270.819C20.5907 268.28 22.0052 264.946 22.0376 262.979C24.0029 265.378 21.3196 269.593 22.448 272.316C20.8283 274.321 22.3562 274.624 20.9633 276.066C22.5829 278.39 20.1804 282.286 19.9374 285.339C12.9944 288.419 13.8474 296.687 11.1695 303.339C10.6296 309.823 12.7406 316.373 7.72498 323.873L7.87613 323.608L7.64397 323.484C7.70673 323.313 7.7027 323.124 7.63264 322.956C7.56258 322.788 7.43166 322.652 7.26604 322.576C7.01228 323.03 6.76935 323.478 6.53178 323.922C6.74234 324.051 6.9745 324.175 7.20125 324.294L7.0123 324.365L7.0555 324.565C6.66283 325.075 6.20959 325.536 5.70576 325.937C1.08424 326.423 -1.39389 324.062 -2.06337 319.907C-2.938 314.438 -2.03638 305.003 -0.983566 300.491C-3.14316 296.963 -4.22296 290.608 -6.83067 286.744C-8.99025 283.578 -12.8667 280.746 -16.1655 284.069C-17.5368 285.453 -17.7258 287.058 -18.865 287.852C-19.4663 288.144 -20.089 288.39 -20.7276 288.587C-25.5867 289.5 -27.5897 283.842 -29.393 281.022C-30.5807 279.157 -32.3948 277.655 -33.3504 276.029C-33.6311 275.569 -33.5502 274.775 -33.8903 274.337C-35.6396 272.068 -37.5778 270.593 -38.447 268.323C-38.8628 266.275 -37.4428 264.162 -38.0259 262.244C-38.2635 261.423 -39.5322 260.715 -39.8832 259.812C-40.4231 258.526 -39.6834 256.959 -40.963 256.424C-40.0397 254.803 -41.0331 252.944 -40.828 250.88C-40.7632 250.275 -40.1639 249.767 -40.1639 249.145C-40.1369 248.351 -40.747 247.659 -40.6066 246.784C-40.3799 245.314 -39.1435 243.85 -38.8304 242.499C-37.9503 238.684 -39.8076 236.793 -42.3505 234.593C-43.6408 235.344 -44.861 236.285 -44.8772 238.122C-47.4903 239.413 -47.8304 242.71 -49.9361 245.147C-48.6025 245.811 -49.4933 247.27 -50.5353 248.335C-50.2276 248.281 -49.3584 248.156 -49.9954 248.972C-49.218 251.269 -51.005 253.884 -52.0686 256.964C-53.0081 259.731 -52.9325 262.79 -53.5264 264.93C-54.5198 268.415 -56.7657 269.144 -57.6998 271.414C-58.3045 270.09 -59.1197 271.776 -59.8594 272.678C-59.9457 273.759 -58.3908 272.138 -59.1089 273.44C-59.503 274.861 -60.3507 273.932 -60.7286 275.359C-59.611 275.391 -59.584 275.191 -59.8971 276.504L-60.1239 276.385L-60.1725 276.785C-60.2446 276.739 -60.3204 276.699 -60.3993 276.666C-60.5396 276.574 -60.6908 276.493 -60.842 276.412C-61.0078 276.699 -61.0866 277.027 -61.0687 277.358L-60.6152 277.596L-60.3884 277.715L-60.2427 277.444C-59.8 277.839 -61.0201 278.882 -60.6854 279.309L-60.9122 279.19L-61.0579 279.46C-61.6788 279.12 -62.2943 280.433 -62.1755 280.951L-61.9488 281.07L-62.1377 281.146L-62.0999 281.34C-62.9422 282.475 -63.3579 284.945 -62.6776 285.577C-64.1731 284.761 -63.9248 288.371 -65.1396 287.387C-66.9104 285.604 -64.5565 281.984 -63.5199 279.157C-61.6734 274.154 -60.2265 270.722 -59.4544 265.951C-58.9793 263.017 -59.2439 260.715 -59.0117 258.813C-58.5474 254.744 -56.7873 251.247 -54.347 250.864C-53.8071 247.508 -51.7177 244.206 -50.6433 240.964C-50.3734 240.191 -50.5731 239.44 -50.2654 238.7C-49.8551 237.684 -48.8508 236.895 -48.4081 235.863C-48.257 235.506 -48.4459 234.518 -48.3433 234.145C-47.1772 229.995 -44.5641 226.19 -44.1105 222.797C-44.0188 222.057 -44.4615 221.343 -44.3481 220.576C-44.2347 219.809 -43.5383 219.014 -43.3817 218.29C-43.1765 217.339 -43.2791 215.891 -43.0956 214.594C-42.5556 210.671 -42.507 209.731 -44.1753 206.991C-45.2227 205.246 -46.7453 203.722 -47.1664 201.831C-47.8035 198.934 -47.026 197.373 -47.2635 194.066C-43.3547 188.451 -50.9996 189.953 -52.5599 188.327C-52.9757 188.997 -53.467 189.197 -54.0555 188.911C-64.5457 183.388 -68.3627 175.245 -59.7838 162.238C-57.5864 161.535 -55.659 159.374 -53.6829 157.531C-58.0561 154.17 -65.9872 148.502 -72.2068 150.869C-75.0359 149.247 -77.9567 148.604 -80.1217 146.162C-81.6604 144.433 -82.4055 141.401 -85.4343 140.439C-85.8446 139.618 -85.3371 138.494 -85.58 137.538C-85.9904 135.971 -87.3077 135.43 -88.0582 134.085C-88.4415 133.377 -88.3605 132.28 -88.7277 131.594C-90.4715 128.503 -93.1116 126.163 -93.4571 122.688C-94.7259 121.376 -95.7596 119.855 -96.513 118.193C-97.9113 119.273 -98.543 119.419 -99.5688 121.073C-100.935 123.277 -102.808 125.552 -104.331 127.557C-106.631 130.616 -110.324 135.582 -111.166 138.905C-114.065 150.253 -117.045 163.373 -123.313 174.699C-123.637 175.844 -124.393 174.666 -124.728 175.671C-124.928 176.25 -123.978 176.363 -124.663 177.125C-126.591 178.498 -125.322 179.886 -127.406 181.578L-127.557 181.318H-127.859C-128.334 179.211 -126.618 177.492 -126.002 175.304C-125.462 173.461 -125.878 171.322 -125.354 169.36C-125.09 168.447 -124.436 167.696 -124.237 166.809C-123.783 164.832 -123.961 162.616 -123.27 160.325C-123.071 159.623 -122.331 158.866 -122.088 158.164C-121.586 156.715 -121.656 155.159 -121.132 153.781C-118.39 146.578 -114.324 139.84 -109.908 132.912C-107.748 129.492 -106.361 126.098 -104.347 122.288C-102.333 118.479 -98.4458 113.308 -97.6629 110.168C-97.1608 108.152 -98.2298 105.991 -98.1165 104.64C-97.8735 101.673 -94.2994 95.5943 -94.9473 93.06C-95.5358 90.7148 -98.9263 88.9262 -100.767 89.8556C-103.305 88.7749 -104.449 86.6134 -106.296 85.0517C-106.998 84.4789 -108.18 84.5762 -108.914 83.971C-109.649 83.3658 -109.719 81.8419 -110.264 81.1232C-110.923 80.2154 -112.116 79.2374 -113.028 78.1945C-113.941 77.1516 -115.031 75.4278 -115.647 74.9901C-116.818 74.1849 -120.9 73.6337 -122.212 75.2495C-122.714 75.8709 -122.784 77.3623 -123.168 78.5835C-125.327 85.3597 -127.265 91.7145 -132.832 97.1452L-133.01 97.21L-133.194 97.2911C-132.61 95.8591 -134.9 97.156 -133.339 97.5613L-133.302 97.7612L-133.129 97.6855C-133.831 99.9064 -135.126 99.0905 -136.028 100.306C-135.58 101.095 -136.482 101.538 -136.606 102.435C-136.816 103.716 -135.969 104.651 -135.942 105.975C-135.871 108.396 -136.579 112.729 -138.528 115.431C-139.678 117.052 -143.457 120.03 -146.351 117.436C-146.983 116.896 -148.1 113.799 -148.154 112.243C-148.284 109.001 -146.394 105.159 -144.602 103.667C-142.593 101.998 -139.494 102.587 -137.734 100.766C-134.257 97.1344 -135.661 92.6601 -134.03 89.8124C-132.546 87.1916 -128.2 85.7758 -127.12 82.0365C-126.493 79.8426 -128.739 77.546 -128.777 75.5088C-128.777 74.6821 -128.032 73.8337 -128.038 73.1096C-128.038 71.71 -129.22 69.5378 -130.505 68.5867C-130.856 68.3382 -131.882 68.5002 -132.125 68.3868C-133.744 67.7167 -135.726 65.0743 -137.588 63.9828C-138.063 63.7018 -138.771 63.8639 -139.078 63.5126C-139.948 62.5454 -139.921 60.0057 -141.324 59.1195C-140.245 55.7151 -140.752 53.6185 -142.096 50.9815C-143.101 48.993 -144.18 46.4803 -145.244 43.9837C-146.691 40.5686 -148.397 39.2771 -150.19 36.0025C-150.87 34.7489 -151.631 32.4739 -152.133 32.1173C-154.493 30.4962 -158.542 33.841 -161.457 33.6627C-162.428 33.6008 -163.372 33.322 -164.221 32.8468C-167.952 30.2746 -160.442 25.822 -159.163 24.7412C-156.285 25.2816 -153.256 22.7419 -150.298 21.8989C-148.516 21.3909 -147.22 21.699 -145.53 20.6615C-144.346 19.8514 -143.247 18.9246 -142.248 17.8948C-142.037 15.8468 -143.824 14.5715 -144.796 12.9882C-144.969 13.4954 -145.31 13.9282 -145.762 14.2149C-148.462 14.2635 -150.843 15.3713 -153.742 15.4415C-157.964 15.5496 -162.083 14.5607 -166.284 13.8204C-167.877 13.5448 -170.959 13.28 -171.65 12.9774C-171.872 12.5578 -172.148 12.1691 -172.471 11.821C-172.854 11.767 -173.761 12.6046 -174.339 12.5559C-175.198 12.4749 -176.218 11.3617 -177.168 11.3401C-177.989 11.3401 -178.118 12.075 -178.89 11.8048C-183.965 10.7619 -189.894 10.8592 -194.116 10.8214C-193.9 10.8538 -193.721 10.7349 -193.576 10.3999C-195.033 9.70279 -194.655 10.562 -195.282 10.8538C-195.908 11.1456 -197.036 12.0047 -198.305 12.0047C-199.811 12.0642 -206.404 9.74062 -204.73 7.76826C-201.528 3.98569 -194.531 8.60583 -190.552 9.59471C-188.139 10.1945 -185.801 9.2921 -183.766 9.47043C-180.937 9.7244 -178.14 10.589 -176.153 10.4971C-175.208 10.4485 -174.242 9.68658 -173.319 9.59471C-172.147 9.48123 -171.057 10.0865 -169.82 10.1351C-169.102 10.1351 -168.26 9.66496 -167.504 9.64876C-165.884 9.61093 -164.394 10.3891 -162.942 10.3891C-162.175 10.3891 -161.268 9.68657 -160.48 9.64334C-158.86 9.54068 -156.587 10.0703 -154.752 10.3458C-151.307 10.8862 -148.327 12.2695 -145.417 10.8862C-146.07 8.39511 -144.958 5.21773 -144.094 2.12682C-138.895 -0.623657 -139.494 -10.0531 -143.673 -12.3875C-145.023 -11.8471 -147.064 -11.2149 -148.16 -12.7387C-149.844 -11.4688 -151.901 -12.0632 -153.596 -10.8096C-154.309 -10.5394 -153.92 -11.1878 -154.725 -11.4256C-156.344 -7.41608 -165.755 -7.24855 -163.752 -11.4742C-163.325 -12.3766 -160.469 -13.8627 -159.206 -13.8897C-156.242 -13.9653 -153.051 -11.1878 -150.697 -13.4304C-148.895 -17.1419 -148.638 -21.4179 -149.984 -25.3185C-150.352 -26.4586 -150.859 -28.1608 -151.712 -29.074C-152.252 -29.6738 -153.618 -29.8089 -154.412 -30.5546C-154.951 -31.0626 -155.011 -31.8623 -155.518 -32.2244C-158.957 -34.602 -165.128 -34.9586 -166.953 -37.4497C-169.07 -38.082 -176.061 -38.082 -177.481 -42.1888C-177.735 -42.9183 -177.73 -45.3986 -176.747 -46.6954C-175.5 -48.3598 -172.811 -47.841 -171.078 -47.4411C-168.956 -46.9494 -165.787 -47.2304 -164.059 -46.3928C-160.987 -44.9068 -159.935 -40.7244 -157.1 -39.4113C-155.729 -38.7844 -153.99 -39.4599 -152.84 -39.1843C-149.644 -38.4224 -147.441 -36.3204 -145.163 -36.704C-143.063 -37.0607 -141.924 -39.3248 -139.046 -40.3677C-137.227 -41.0324 -135.148 -40.6379 -133.598 -40.1894C-131.066 -39.4437 -130.726 -37.5686 -129.117 -36.6716C-128.07 -36.0718 -125.797 -36.4068 -123.826 -36.2123C-121.559 -35.9961 -121.04 -35.7368 -119.048 -36.4014C-115.129 -37.7037 -112.607 -46.7495 -113.93 -49.3703C-114.384 -50.2565 -115.55 -50.3051 -116.019 -50.8671C-116.986 -52.0397 -117.747 -54.3957 -117.979 -55.8006C-118.163 -56.9354 -117.402 -58.6808 -117.839 -60.2857C-118.006 -60.9233 -118.967 -62.204 -119.637 -63.382C-120.873 -65.5435 -122.045 -67.1646 -123.956 -68.2453C-124.393 -69.4828 -124.204 -70.9472 -125.451 -71.882C-125.273 -73.5031 -124.539 -74.4704 -123.384 -75.6646C-120.522 -76.4265 -119.405 -73.8057 -117.261 -72.9897C-116.03 -72.5358 -114.459 -72.9249 -113.082 -73.1519C-111.808 -73.368 -110.043 -74.4055 -109.136 -74.492C-108.466 -74.5622 -108.175 -73.8922 -107.646 -74.0219C-106.701 -74.2596 -105.815 -75.4106 -104.881 -75.3187C-103.58 -77.1506 -101.642 -77.1506 -100.19 -79.0581C-99.1801 -80.3766 -99.0235 -82.2192 -98.0301 -83.4891C-96.9503 -84.8671 -95.039 -84.8616 -94.3804 -86.3963C-94.0294 -88.5578 -97.4524 -90.5625 -98.2028 -92.7132C-98.7427 -94.2641 -97.9221 -96.4417 -100.152 -95.5393C-101.917 -99.3759 -104.163 -96.6687 -106.264 -96.0797C-106.69 -95.9608 -107.23 -96.566 -107.764 -96.539C-109.06 -96.4904 -110.037 -95.8689 -110.89 -96.1553C-112.883 -96.82 -114.54 -98.8031 -115.21 -101.019C-115.955 -100.305 -114.589 -100.419 -115.35 -99.7056C-117.277 -100.948 -118.87 -102.499 -120.571 -100.819C-120.008 -99.5871 -119.78 -98.2289 -119.909 -96.8808C-120.038 -95.5328 -120.519 -94.2425 -121.305 -93.1401C-124.086 -92.5241 -126.11 -93.059 -126.704 -96.0959C-127.001 -97.6738 -125.873 -98.7977 -126.78 -99.6515C-127.805 -100.613 -131.342 -99.3867 -133.204 -99.6515C-140.077 -100.678 -142.577 -108.157 -142.285 -113.361C-142.242 -114.004 -141.821 -115.068 -140.871 -116.446C-139.17 -118.937 -135.909 -123.514 -134.03 -124.622C-132.449 -125.557 -130.958 -125.162 -129.031 -125.741C-127.411 -126.232 -125.862 -127.362 -124.712 -127.221C-122.66 -126.994 -120.393 -125.6 -119.183 -124.519C-117.564 -123.066 -117.099 -118.721 -114.551 -118.105C-112.521 -117.619 -108.644 -121.455 -105.454 -120.834C-103.688 -120.483 -102.754 -119.056 -101.134 -119.153C-98.4944 -119.316 -94.5369 -122.179 -92.345 -123.476C-92.0426 -124.017 -91.7457 -124.557 -91.4541 -125.097C-84.5273 -128.686 -77.1361 -129.836 -69.8582 -131.468C-67.1588 -129.523 -64.6375 -131.841 -62.5426 -129.901C-58.2559 -130.247 -54.9031 -130.507 -51.2804 -129.68C-50.2006 -129.426 -49.5689 -128.599 -48.894 -128.718C-45.9138 -129.258 -43.3871 -130.404 -41.1357 -131.123C-38.771 -131.884 -33.264 -131.533 -30.8453 -130.733C-30.138 -130.501 -29.5063 -129.707 -28.8315 -129.626C-27.174 -129.426 -25.7325 -131.004 -24.2801 -130.982C-22.8654 -130.909 -21.4861 -130.513 -20.2471 -129.826C-19.4858 -129.285 -19.5992 -128.167 -18.676 -127.902C-16.9375 -127.41 -12.4834 -129.966 -10.7017 -131.241C-8.92006 -132.517 -8.2128 -134.322 -6.68489 -136.407C-3.9854 -140.087 -0.503067 -142.795 1.65112 -145.167C3.51378 -147.226 4.69615 -149.49 6.78015 -150.77C8.73161 -151.856 10.7977 -152.72 12.9404 -153.348C14.4584 -153.771 16.0021 -154.096 17.5619 -154.321C18.5175 -154.396 19.3219 -153.78 20.2614 -153.899C21.3412 -154.05 22.6099 -155.115 23.7653 -155.477C25.2446 -155.947 26.6807 -155.952 27.4204 -156.282C28.9159 -156.941 29.7312 -158.152 30.6922 -157.984C33.883 -157.444 35.0761 -153.796 35.7834 -151.332C35.2435 -150.495 35.5513 -149.971 34.8224 -149.052C34.9088 -148.452 34.871 -147.798 35.3623 -147.361C32.9328 -142.206 35.7402 -139.298 35.8374 -135.51C35.8752 -134.235 35.1302 -132.268 35.0276 -130.344C34.9682 -129.264 35.4055 -128.102 35.2597 -127.059C34.9304 -124.703 33.9856 -122.682 34.1799 -120.294C34.4101 -117.418 34.8906 -114.569 35.616 -111.777C36.0264 -110.27 36.82 -106.53 37.7756 -105.671C40.988 -102.823 44.9563 -105.941 47.1698 -107.871C48.0553 -108.643 48.9083 -110.032 49.8693 -110.616C51.3325 -111.502 55.5005 -112.237 57.4279 -111.032C58.8154 -110.183 59.9168 -107.849 59.5281 -106.374C58.3781 -101.921 52.5094 -100.878 49.1729 -98.7275C44.3138 -95.5934 45.1344 -90.2059 47.6396 -86.9313C47.9149 -86.5692 48.6815 -86.499 48.9839 -86.1909C51.1813 -83.9538 52.4176 -80.4847 55.2629 -79.5822C55.4897 -78.615 55.2629 -77.4694 55.6462 -76.567C56.3049 -75.924 56.726 -76.4913 57.3631 -75.9726C57.1634 -73.006 60.6025 -71.4767 60.9588 -68.7317C61.7632 -68.6992 62.4273 -69.4233 63.194 -69.6124C65.2294 -68.8667 66.4928 -66.4945 68.35 -65.7164C70.9847 -64.6357 74.2889 -65.2085 76.8588 -64.2034C80.6057 -62.7282 83.6885 -59.2158 86.199 -57.3137C87.3976 -56.4113 88.6879 -56.5139 90.3076 -55.7628C91.598 -55.163 92.5968 -53.9148 93.9681 -53.3906C95.7822 -52.7151 97.9526 -52.5368 100.015 -52.1748C103.994 -46.1983 109.447 -50.2294 114.117 -49.6945C117.761 -49.273 122.243 -50.3267 125.903 -49.8836C126.556 -50.6455 127.366 -50.6131 128.063 -51.1427C131.772 -50.8941 134.423 -49.8512 137.392 -50.6023C139.552 -51.1427 140.896 -53.0934 142.899 -54.2444C144.265 -55.0333 145.998 -54.7361 147.143 -56.1249C148.503 -55.752 149.767 -56.9732 150.922 -57.2056C151.462 -57.3083 151.958 -56.6977 152.417 -56.7409C152.72 -56.7409 153.265 -57.3515 153.686 -57.4434C154.226 -57.5676 154.912 -57.1678 155.306 -57.2434C157.465 -57.6325 159.998 -58.951 162.087 -60.5397C165.397 -63.0632 166.633 -62.1608 170.358 -62.3121C171.389 -62.3499 172.323 -62.793 173.274 -62.8092C174.297 -62.7908 175.318 -62.7005 176.329 -62.539C178.392 -62.3013 180.913 -62.3769 182.446 -61.9987C185.551 -61.1881 187.77 -58.7565 190.588 -57.1678C192.024 -56.368 193.876 -56.5355 194.848 -54.8226C207.649 -52.526 218.263 -61.5556 230.335 -63.0524C234.206 -65.1328 238.617 -65.1598 241.819 -63.7549C247.785 -61.1449 248.211 -52.8827 242.537 -47.5438C240.966 -46.0794 235.648 -42.9345 234.978 -45.0149C232.911 -42.9291 230.298 -43.691 228.127 -42.1131C227.382 -42.5076 226.756 -42.2806 225.968 -42.9507C222.161 -41.5511 217.901 -42.4968 214.182 -40.6541C212.022 -42.2752 210.402 -40.9027 208.594 -40.5731C207.201 -42.0915 205.565 -40.9297 203.583 -42.6211C200.37 -41.9123 197.103 -41.4766 193.817 -41.3188C192.116 -41.2917 190.297 -39.7301 188.601 -39.2708C186.62 -38.7304 184.563 -39.1357 182.49 -38.779C180.87 -38.4926 179.391 -37.6118 177.938 -37.4065C176.286 -37.185 174.904 -37.6659 173.079 -37.6227C169.988 -37.4681 166.917 -37.0395 163.901 -36.342C161.158 -35.7368 158.556 -35.4126 156.369 -34.8668C154.879 -34.4975 153.505 -33.7598 152.373 -32.7214C151.241 -31.6829 150.388 -30.3768 149.891 -28.9227C145.35 -16.705 165.434 -15.1271 171.703 -14.4841C172.161 -15.2244 172.739 -15.3757 173.193 -16.1052C178.656 -17.24 186.469 -19.4987 192.888 -16.8725C194.826 -16.0566 197.715 -14.9596 199.367 -13.2953C201.019 -11.6309 201.445 -8.27527 204.453 -7.68626C206.272 -8.0321 208.135 -9.075 209.97 -9.2155C210.591 -9.26953 211.104 -8.63731 211.687 -8.6265C214.927 -8.55626 218.285 -10.7393 220.93 -11.6147C222.242 -12.0524 223.689 -11.7282 225.034 -12.1551C227.382 -12.944 228.656 -14.9542 230.972 -16.6023C232.365 -17.5858 237.716 -19.7473 239.168 -19.8445C242.195 -19.9664 245.199 -20.4341 248.12 -21.2387C251.132 -22.0763 254.366 -23.2381 257.066 -23.6974C259.652 -24.1297 262.465 -24.0108 264.748 -24.3836C269.035 -25.1023 273.257 -24.2702 277.798 -26.3344C280.2 -25.2536 281.858 -27.0098 283.737 -27.6258C284.816 -27.9717 285.929 -27.5988 287.1 -27.8852C290.291 -28.6796 293.638 -29.7981 297.239 -30.3817C300.738 -30.9599 304.474 -31.8191 307.524 -33.1592C309.403 -33.9806 310.51 -35.1964 312.065 -35.5693C313.263 -35.8556 314.646 -35.3315 316.244 -35.726C316.859 -35.8827 317.432 -36.623 318.031 -36.8607C321.297 -38.109 324.952 -38.2711 327.749 -39.6004C329.801 -40.5893 332.198 -42.9777 334.606 -43.5613C335.475 -43.772 337.305 -43.3073 338.784 -43.718C341.252 -44.4043 344.767 -46.582 348.249 -47.6465C348.832 -47.8194 349.588 -47.7546 350.187 -47.9815C354.506 -49.6026 359.257 -52.3423 363.609 -49.0244C365.99 -47.2088 366.784 -43.772 363.609 -39.5356C360.186 -34.937 354.058 -35.6719 348.783 -34.348C346.883 -33.8779 345.144 -33.1268 343.487 -32.6945C341.614 -32.2136 339.886 -32.246 338.039 -31.8299C335.302 -31.1977 332.338 -29.5495 329.401 -28.8579C326.772 -28.2419 324.002 -28.2689 321.276 -27.3557C320.811 -27.1989 320.331 -26.5451 319.861 -26.383C316.794 -25.3023 313.566 -25.3617 310.391 -24.5674C307.757 -23.9081 305.165 -22.5572 302.633 -22.1573C301.505 -21.979 300.365 -22.4707 299.199 -22.2924C297.704 -22.0492 296.192 -21.5305 294.578 -21.3197C292.294 -21.0748 290.029 -20.6795 287.797 -20.1363C285.972 -19.623 284.055 -18.0235 282.133 -17.2832C279.61 -16.3229 277.146 -15.2151 274.753 -13.9653C274.013 -13.5655 273.133 -13.5763 272.296 -13.2142C269.629 -12.0038 267.248 -9.54514 265.002 -8.44278C262.34 -7.14589 258.793 -7.17831 256.726 -4.56833C256.234 -3.96312 255.932 -2.58519 255.613 -2.02319C251.834 4.60712 246.306 7.47647 241.7 11.0321C241.117 10.4917 240.777 11.1402 240.199 10.5728C236.571 12.8639 232.484 12.8099 228.645 14.0473C228.133 14.5877 227.528 12.5397 226.777 13.7285C226.108 14.4742 227.058 14.5985 226.858 15.1713C223.419 14.9876 223.079 18.2892 221.951 20.8938C221.265 22.4339 219.521 24.3035 218.76 26.157C218.333 27.1837 218.566 27.7781 218.015 28.5616C216.519 30.6313 212.076 32.5009 210.71 33.3223C209.949 33.7762 209.463 34.6192 209.004 34.8353C207.595 35.5108 206.305 35.1433 205.225 35.916C203.108 37.3967 200.107 42.8652 199.874 45.6103C199.448 50.7978 204.987 51.9434 208.993 52.3811C210.235 52.5162 211.552 52.0893 212.578 52.2406C213.161 52.327 213.415 52.9539 213.922 52.9863C215.602 53.0619 217.205 52.3108 218.695 52.7972C219.375 53.0241 219.775 53.7374 220.315 54.0508C222.431 55.1856 226.583 55.5909 229.202 56.4771C230.951 57.0661 233.218 55.3585 234.87 55.7368C235.41 54.5047 236.274 54.6992 236.879 53.6779C239.767 52.9268 241.857 53.4726 244.556 51.9272C247.348 50.3385 249.804 46.8261 252.525 46.4856C256.893 45.9453 260.202 51.8299 264.106 53.5483C265.035 53.9589 266.266 53.6671 267.237 54.2183C269.451 55.4503 270.779 59.2491 273.003 61.2431C274.655 62.7399 275.568 64.1395 277.409 64.3664C279.423 64.6204 285.318 64.1071 286.884 63.6153C287.332 63.4694 287.456 62.8156 287.921 62.7832C291.624 62.4535 293.8 63.8963 296.068 67.614C295.476 69.1485 294.753 70.6291 293.908 72.0397C290.242 73.4662 286.625 75.163 282.948 76.5463C281.845 76.1889 280.675 76.0858 279.526 76.2449C278.376 76.404 277.278 76.8211 276.313 77.465C275.742 77.058 275.073 76.81 274.375 76.7463C270.461 77.9297 266.957 81.2421 262.745 80.8909C260.845 83.2685 256.493 82.258 253.81 85.4516C252.995 86.4135 251.677 89.4774 252.19 90.5203C252.881 91.9684 259.749 93.8111 261.072 94.0002C261.979 94.1299 262.837 93.5085 263.609 93.6382C264.727 93.8327 265.412 94.8864 266.746 95.3674C270.228 96.6102 273.765 95.9077 277.339 96.2698C280.292 96.567 283.132 97.799 285.923 98.1881C287.986 98.4745 290.242 97.9773 292.191 98.4691C293.638 98.8311 294.508 99.7822 295.701 100.052C296.673 100.268 298.049 100.052 299.129 100.177C301.445 100.46 303.74 100.9 305.997 101.495C309.328 102.306 313.15 101.636 316.514 102.036C318.187 102.219 319.602 103.246 321.216 103.565C322.485 103.813 323.916 103.484 325.249 103.678C326.756 103.894 328.105 104.759 329.504 104.959C333.477 105.559 338.682 103.43 343.303 104.824C347.444 106.072 350.716 108.066 353.837 108.498C356.957 108.931 359.236 107.461 361.293 107.688C364.457 108.039 371.443 110.546 369.931 113.156C369.008 114.777 361.061 114.734 359.711 114.237C357.843 113.497 356.687 111.335 354.776 110.454C349.609 108.109 342.942 113.378 338.444 110.952C337.132 110.238 336.555 108.401 335.378 107.504C333.018 106.926 330.189 107.423 328.359 107.504C325.217 107.666 323.019 106.191 319.775 105.602C317.475 105.175 314.284 106.277 312.686 104.154C309.144 104.321 304.587 104.154 301.348 102.484C291.927 102.711 282.128 99.5282 273.068 99.2418C272.042 98.9392 272.777 97.9503 271.573 97.718C270.909 97.3992 270.552 98.6528 269.856 98.1827C267.518 97.1938 263.588 96.7723 260.91 97.4748C259.376 95.443 256.639 96.1185 254.782 95.8537C254.409 95.5133 255.441 94.6109 254.328 94.5568C253.411 93.9192 252.946 95.697 252.099 95.4268C252.266 92.1414 248.659 94.4433 246.948 93.6544C245.236 92.8654 246.122 90.2717 244.033 91.0012C242.672 92.2386 244.691 92.1414 244.033 93.1086C241.468 91.3362 239.379 93.1789 237.095 94.5622C235.945 95.2539 234.509 95.4322 233.364 96.0212C231.869 96.8047 230.4 98.2799 228.829 99.4958C226.912 100.966 225.088 101.625 224.208 102.57C222.539 104.365 220.785 107.974 220.725 109.433C220.644 111.13 221.902 111.292 222.966 112.778C224.137 114.399 224.629 117.495 226.858 118.425C226.675 118.965 225.66 119.873 226.561 120.046C228.527 118.846 229.903 120.948 231.345 121.964C228.932 122.861 226.205 120.516 223.052 119.516C222.874 118.333 224.769 118.138 224.175 116.966C223.194 117.313 222.139 117.396 221.115 117.206C220.092 117.016 219.136 116.561 218.344 115.885C217.761 117.917 215.272 116.82 214.176 118.16C212.983 119.603 213.172 122.694 214.268 123.818C215.089 124.666 216.967 125.201 218.296 126.039C228.041 131.966 239.136 139.532 249.07 142.801C249.34 143.401 248.465 144.422 249.07 144.908C250.749 149.021 252.93 151.933 255.738 155.591C256.893 157.094 258.243 158.985 259.625 160.19C261.244 161.568 263.242 162.092 265.229 163.265C267.928 164.963 270.506 166.846 272.944 168.901C278.44 173.353 281.507 180.378 287.672 182.95C288.299 183.215 289.119 183.156 289.756 183.393C293.681 184.874 297.315 187.651 302.082 189.116C305.64 190.197 310.915 191.277 313.879 193.147C316.287 194.671 318.328 197.524 321.27 198.264C322.69 198.616 324.553 199.221 326.351 199.648C329.164 200.323 332.252 200.258 334.989 200.896C338.628 201.739 341.932 203.365 345.296 204.452C347.045 204.992 349.701 205.311 351.774 205.921C355.554 207.002 359.419 208.51 363.053 209.304C366.508 210.05 369.71 210.088 372.453 211.314C374.45 212.211 376.583 213.605 377.684 215.589C376.064 216.296 375.206 215.248 374.482 216.669C372.598 220.268 382.365 219.911 380.837 223.667C379.709 226.444 375.643 223.499 374.121 223.127C371.664 222.543 368.976 223.408 367.037 222.732C363.085 221.376 361.277 215.167 355.748 215.135C354.981 215.135 354.031 215.988 353.518 216.01C350.603 216.156 350.246 213.849 348.438 212.514C346.17 210.844 342.996 210.039 340.296 208.731C337.71 207.494 334.849 206.57 332.451 205.489L332.613 205.219ZM6.07829 321.29C6.21793 321.303 6.35867 321.283 6.48907 321.231C6.61949 321.18 6.73584 321.098 6.82872 320.993C8.23245 317.21 5.35481 315.097 5.82993 311.671C3.92949 314.811 4.95531 318.631 6.07829 321.29ZM5.44659 308.667C6.56958 306.246 8.49162 301.696 6.92053 299.643C5.34325 302.369 4.81885 305.58 5.44659 308.667ZM-0.243912 298.854C0.295975 296.876 0.150223 295.185 -1.00516 293.877C-1.86359 295.979 -1.43169 297.562 -0.243912 298.854ZM-55.605 264.222C-55.2756 264.486 -55.0651 264.178 -54.7735 264.313C-54.8653 262.098 -53.1052 259.153 -54.1203 257.289C-55.7885 259.256 -55.362 262.125 -55.605 264.222ZM2.89828 269.339C3.72433 264.789 -0.114334 260.963 -4.28773 259.072C-6.35555 261.882 -3.59668 262.682 -1.36691 264.886C0.609116 266.848 0.895279 268.188 2.89828 269.339ZM-39.1813 237.084L-38.7224 237.333C-38.6306 237.155 -38.5334 236.976 -38.4362 236.793C-38.5766 236.706 -38.7278 236.625 -38.8844 236.544C-38.9761 236.728 -39.0841 236.917 -39.1813 237.084ZM96.8188 301.307C97.7151 299.546 97.5099 298.222 96.4355 297.238C95.3827 299.054 95.8578 300.291 96.8188 301.307ZM97.0078 289.835C97.4505 290.586 98.3305 288.987 97.4505 289.025C97.3047 289.295 97.1589 289.565 97.0078 289.835ZM95.4366 287.911C95.6688 288.041 95.8956 288.16 96.1115 288.29C96.4138 287.89 96.1547 287.711 96.3437 287.355L95.8848 287.112C95.739 287.382 95.5878 287.652 95.4366 287.911ZM94.778 285.431C95.4367 284.318 95.9873 283.27 94.697 282.924C93.9303 284.075 93.6982 285.015 94.778 285.431ZM24.6993 241.996L25.1528 242.234C25.25 242.061 25.358 241.877 25.4498 241.694C25.2986 241.613 25.1475 241.532 25.0071 241.44C24.8829 241.661 24.7911 241.829 24.6831 242.012L24.6993 241.996ZM-3.0136 223.948C-2.05797 221.511 -4.03938 220.025 -4.5253 218.209C-5.0112 216.394 -4.30394 213.346 -6.6255 212.487C-13.6442 217.345 -9.74609 223.732 -3.02977 223.964L-3.0136 223.948ZM67.3998 254.581C67.6265 254.7 67.8425 254.835 68.0693 254.954L68.512 254.144C68.3014 254.019 68.0746 253.895 67.8425 253.771L67.3998 254.581ZM33.4241 235.198C33.6346 235.323 33.8614 235.442 34.0773 235.571C34.2393 235.301 34.3851 235.031 34.5362 234.761C34.3095 234.642 34.0773 234.512 33.8668 234.388L33.4241 235.198ZM88.3856 260.493C88.6123 260.612 88.8229 260.736 89.0551 260.866L89.4978 260.055C89.271 259.936 89.0551 259.801 88.8229 259.683L88.3856 260.493ZM66.7033 246.849L67.1622 247.092C67.254 246.914 67.3512 246.735 67.4592 246.552L67.0003 246.308C66.8977 246.487 66.8059 246.67 66.7033 246.849ZM87.0143 253.441C87.6567 253.82 88.7149 251.89 88.0509 251.555C86.9117 250.848 86.4528 253.009 87.0034 253.441H87.0143ZM183.505 300.864C184.169 299.972 183.294 299.681 182.608 299.319C182.556 299.639 182.615 299.967 182.776 300.249C182.938 300.53 183.191 300.748 183.494 300.864H183.505ZM84.8925 242.45C85.3082 242.834 85.5242 242.304 85.7779 241.91C85.5914 241.889 85.4032 241.931 85.243 242.029C85.0828 242.126 84.9595 242.275 84.8925 242.45ZM171.217 281.832C171.719 281.005 171.152 280.589 170.677 280.135C170.013 281.038 170.574 281.454 171.217 281.832ZM-132.519 94.5136L-131.855 94.8756C-131.703 94.6163 -131.552 94.3353 -131.407 94.0759C-131.887 93.7571 -132.249 93.8976 -132.519 94.5136ZM135.907 236.798L136.204 236.258C135.27 235.388 135 237.463 135.907 236.798ZM148.66 236.43C149.399 237.117 150.231 235.625 149.254 235.35C148.865 236.106 148.579 235.717 148.66 236.43ZM137.813 225.91C138.153 224.894 138.029 224.056 137.068 224.099C136.048 225.202 136.987 226.174 137.813 225.91ZM153.27 231.254L153.416 230.978C153.524 232.216 154.674 230.135 153.562 230.703L153.341 230.584L153.195 230.854C152.86 228.492 152.876 223.445 155.489 221.932C155.101 220.906 154.917 218.863 153.33 218.987L153.481 218.717L153.254 218.598L152.585 218.225C152.482 218.409 152.385 218.588 152.282 218.766L152.957 219.139L152.995 219.339L153.184 219.263C152.72 220.079 153.076 220.565 152.963 221.252C152.423 221.657 152.288 220.117 151.343 219.998C146.527 222.192 146.662 229.968 151.818 230.805C151.694 231.529 152.569 232.086 153.087 231.146L153.27 231.254ZM87.9429 189.737C89.1955 190.764 90.1349 188.721 89.5626 187.835C88.8391 187.284 87.8943 189.019 87.9699 189.737H87.9429ZM89.0605 187.198C89.3088 186.744 89.5572 186.301 89.8001 185.847C89.1523 185.247 88.7204 185.847 88.31 186.436C88.3764 186.612 88.4803 186.771 88.6146 186.903C88.7489 187.034 88.9103 187.135 89.0875 187.198H89.0605ZM176.913 197.891L177.361 198.129C177.458 197.962 177.555 197.778 177.658 197.589L177.209 197.346L176.913 197.891ZM252.676 218.825C252.574 219.187 253.151 219.366 253.351 219.193C253.875 218.739 252.871 218.134 252.676 218.847V218.825ZM235.848 168.874C237.7 166.772 235.248 166.485 235.988 164.389C235.194 163.405 234.957 165.28 234.277 164.853C233.024 163.848 234.352 161.952 233.44 160.53C231.998 158.282 228.041 158.12 225.833 158.455C225.066 156.877 222.167 155.818 220.601 156.294C220.255 159.223 223.09 159.093 225.384 160.33C228.996 162.26 232.625 167.285 235.848 168.874ZM234.849 156.397C234.017 153.549 228.91 153.538 226.486 152.506C226.113 153.986 227.382 154.824 226.642 156.445C229.304 156.007 232.187 156.775 234.849 156.397ZM296.699 192.488C296.656 192.317 296.562 192.163 296.429 192.046C296.296 191.93 296.131 191.856 295.956 191.835C295.781 191.814 295.604 191.847 295.447 191.928C295.291 192.01 295.163 192.137 295.08 192.293C295.177 192.904 296.332 193.617 296.699 192.488ZM49.0163 57.0553C49.3402 57.3362 49.5562 57.0228 49.8369 57.1579C49.9125 56.9147 49.7614 56.7635 49.9125 56.4933C49.7614 56.4176 49.6156 56.3366 49.4644 56.2501C49.3132 56.5257 49.1675 56.7959 49.0163 57.0553ZM274.44 178.86C274.062 179.33 275.239 179.811 275.26 178.962C275.114 178.876 274.958 178.795 274.812 178.714C274.731 178.979 274.564 178.919 274.44 178.86ZM343.671 208.488C343.314 206.84 339.783 206.159 338.369 205.916C338.326 207.472 342.121 208.407 343.671 208.488ZM347.034 209.277C347.45 210.023 349.734 211.692 350.473 210.46C349.242 209.72 348.049 209.088 347.023 209.277H347.034ZM352.433 212.227C353.184 211.541 351.04 210.363 350.862 211.368C350.884 211.73 351.942 212.73 352.401 212.227H352.433ZM62.2762 51.0139C62.7405 50.3439 62.4597 49.9332 61.828 49.7116C61.3691 50.3709 61.6499 50.76 62.2762 51.0139ZM359.938 213.913C360.262 214.189 360.478 213.87 360.764 214.021C361.136 213.562 359.954 213.065 359.938 213.913ZM366.805 217.339C367.61 216.307 366.109 215.761 365.688 216.729C366.276 217.296 366.017 217.15 366.805 217.345V217.339ZM117.081 70.2511C117.751 68.5111 117.545 67.1115 116.482 66.0524C114.895 67.225 116.05 70.1214 117.081 70.2511ZM118.49 67.1601L119.16 67.5384C119.57 67.0251 119.403 66.7278 119.532 66.3334C119.1 66.1821 118.766 66.5117 118.49 67.1601ZM138.645 72.9745C139.762 74.1903 141.101 72.4341 141.107 71.1751C139.892 70.0673 138.85 71.8289 138.645 72.9745ZM-72.2284 -46.0848L-71.926 -46.6252C-72.8709 -47.4952 -73.13 -45.4202 -72.2284 -46.0848ZM202.039 102.565C202.185 102.652 202.336 102.727 202.487 102.808L202.784 102.268C202.633 102.192 202.487 102.1 202.336 102.025C202.25 102.208 202.153 102.387 202.05 102.565H202.039ZM142.953 67.2736C144.033 68.2787 145.431 66.8359 145.415 65.4742C144.654 64.6474 144.233 65.5552 143.547 65.1446C143.072 65.9659 143.115 66.5819 142.953 67.2736ZM169.986 77.573C171.065 76.1789 169.575 75.2008 168.641 75.7736C167.907 77.2434 168.879 77.7676 169.986 77.573ZM176.842 75.7196C177.382 76.1248 177.857 76.1573 178.181 75.4062C178.12 75.2325 178.022 75.0744 177.893 74.9428C177.764 74.8112 177.608 74.7093 177.436 74.6442C177.242 75.0063 177.042 75.3575 176.842 75.7196ZM179.148 73.1312C179.299 73.2122 179.45 73.2933 179.596 73.3798C179.677 73.1258 179.823 73.169 179.974 73.2339C180.066 73.0501 180.163 72.8664 180.265 72.6935C180.044 72.6341 180.109 72.4666 180.19 72.3044C180.039 72.2126 179.887 72.1369 179.742 72.0559C179.655 72.3044 179.509 72.2558 179.369 72.1964C179.272 72.3747 179.169 72.5476 179.072 72.7367C179.299 72.7908 179.234 72.9583 179.153 73.1312H179.148ZM186.755 72.0505C187.154 72.4233 187.446 72.191 187.797 72.272C188.202 71.7695 188.04 71.4777 188.169 71.0778C187.322 70.7536 186.917 71.1156 186.76 72.0451L186.755 72.0505ZM182.349 68.9271C182.992 69.5269 183.429 68.9271 183.839 68.3436C183.391 68.0896 183.953 67.4465 183.24 67.3114C182.956 67.4689 182.722 67.7037 182.565 67.9886C182.408 68.2736 182.335 68.5971 182.355 68.9217L182.349 68.9271ZM-48.3919 -61.7663C-47.9546 -61.0152 -47.0746 -62.6147 -47.9438 -62.5769L-48.3919 -61.7663ZM-93.2034 -87.4554C-93.063 -88.2119 -92.8633 -88.9955 -93.9539 -89.2711C-94.5801 -88.3254 -93.5921 -88.012 -93.2088 -87.4554H-93.2034ZM-26.0726 -56.1735L-25.6245 -55.9195C-25.5165 -56.1032 -25.4247 -56.287 -25.3167 -56.4599L-25.7702 -56.7085C-25.8728 -56.5301 -25.9754 -56.3518 -26.078 -56.1735H-26.0726ZM27.7551 -43.0858C28.6622 -42.7075 29.418 -43.1506 29.5314 -44.2151C28.727 -44.923 27.6148 -44.0692 27.7497 -43.0858H27.7551ZM-5.103 -66.0784C-5.13538 -65.9542 -4.89243 -65.3381 -4.5631 -65.4354C-3.91522 -65.6516 -4.88702 -67.2618 -5.103 -66.0784ZM41.2742 -44.7933C41.8141 -44.3989 42.2892 -44.361 42.6077 -45.1122C42.0408 -45.512 41.5657 -45.539 41.2472 -44.7933H41.2742ZM55.0038 -41.108C55.5437 -42.5886 56.0188 -44.0422 54.3235 -44.642C52.9413 -42.8318 53.2815 -41.0702 54.9768 -41.108H55.0038ZM29.6286 -55.417C30.0875 -55.0982 30.4654 -55.2495 30.7462 -55.8547C30.2423 -56.1717 29.8535 -56.0258 29.58 -55.417H29.6286ZM64.236 -39.8706C64.3764 -39.7787 64.5275 -39.7085 64.6787 -39.6166C64.7759 -39.7949 64.8677 -39.9841 64.9756 -40.157L64.5437 -40.411C64.425 -40.2434 64.3386 -40.0543 64.236 -39.8706ZM63.3235 -46.6846C63.2061 -46.9911 62.9836 -47.2458 62.6958 -47.4032C62.408 -47.5606 62.0736 -47.6105 61.7525 -47.5438C60.5485 -45.8687 62.6001 -45.0149 63.3235 -46.7008V-46.6846ZM63.4693 -46.9548L63.9121 -46.7116C64.0146 -46.8846 64.1172 -47.0683 64.209 -47.252C64.0632 -47.3331 63.9174 -47.4195 63.7609 -47.5006C63.6637 -47.3277 63.5665 -47.1439 63.4639 -46.971L63.4693 -46.9548ZM67.7885 -45.2743L68.4526 -44.9122L69.0518 -45.993C68.5174 -46.409 68.1233 -46.0362 67.7831 -45.2743H67.7885ZM72.7772 -47.4357L73.2253 -47.1926C73.3279 -47.3655 73.4305 -47.5492 73.5276 -47.7329L73.0741 -47.9815L72.7772 -47.4357ZM81.3616 -45.5282C81.9015 -45.1284 82.382 -45.0959 82.7059 -45.8417C82.6434 -46.0155 82.5439 -46.1736 82.4144 -46.3052C82.2848 -46.4368 82.1282 -46.5386 81.9554 -46.6036C81.7719 -46.2685 81.5667 -45.9173 81.3723 -45.5553L81.3616 -45.5282Z" fill="#FFE600"/>
<path d="M43.9642 139.568C44.0993 139.568 44.2396 139.568 44.3799 139.568C44.1773 139.568 43.9642 139.568 43.7563 139.599L43.9642 139.568Z" fill="#31CFF4"/>
<path d="M291.988 164.209C291.33 171.039 265.718 166.904 252.982 180.592C248.212 185.713 240.5 199.093 239.302 202.381C238.919 203.523 238.208 204.526 237.257 205.265C236.561 205.774 235.756 206.115 234.906 206.261C234.056 206.408 233.184 206.357 232.357 206.112C229.659 205.254 228.693 199.643 228.617 199.184C227.306 191.244 229.427 184.543 229.033 179.831C227.894 166.166 205.547 168.468 186.94 146.436C183.346 142.182 178.365 135.207 171.598 135.233C169.11 135.233 166.11 136.204 159.618 136.225C156.741 136.225 154.761 135.918 153.822 135.999C147.632 136.538 143.817 139.665 131.361 140.57C113.229 141.891 107.827 136.258 100.898 141.363C100.898 141.363 92.7388 147.449 86.4033 149.923C82.561 151.422 82.7175 150.387 80.3538 151.648C76.1122 153.902 70.8074 166.058 70.8074 166.058C65.8804 177.26 62.3619 178.031 63.5275 180.85C65.5242 185.702 75.47 182.468 83.2841 190.419C84.5307 191.691 87.515 194.732 86.6138 197.556C86.004 199.486 83.6187 201.157 81.3737 201.222C80.7231 201.234 80.0763 201.121 79.4688 200.888C78.1305 200.43 71.0503 198.036 69.5123 199.653C68.1955 201.044 71.795 204.43 72.6908 212.182C73.3114 217.686 71.8867 219.298 71.1042 219.89C70.5642 220.273 69.9504 220.539 69.3018 220.672C69.1992 220.787 69.071 220.876 68.9276 220.932C68.7842 220.988 68.6295 221.01 68.4761 220.996C66.9553 220.914 65.5009 220.347 64.3262 219.378C60.0792 215.767 50.9429 201.157 42.3895 196.155C32.2117 190.225 22.5681 197.67 17.4846 190.996C15.1749 187.966 14.4896 182.91 16.6104 179.891C20.5013 174.354 29.7455 180.597 41.6124 175.918C46.2749 174.08 50.7109 168.128 59.5989 156.231C62.2054 152.743 65.535 147.891 63.9701 145.584C63.7823 145.324 63.5481 145.101 63.2793 144.926C59.9551 142.446 58.6707 137.46 58.4225 136.662C56.5823 130.948 37.959 124.231 32.5193 122.037C29.9614 121.007 13.3833 113.719 0 100.344V0H291.551C287.914 20.7384 280.218 41.9889 266.344 58.9591C254.348 73.5951 236.242 95.692 221.845 105.104C219.513 106.63 214.219 109.827 210.782 116.22C209.87 117.918 204.754 126.166 206.2 135.212C208.823 151.654 231.699 163.524 243.085 158.344C253.096 153.794 254.86 140.188 262.513 140.883C266.517 141.244 271.147 145.589 270.909 148.214C270.677 150.737 270.3 151.535 270.3 151.535C269.96 152.937 269.706 153.465 269.76 153.977C269.792 154.115 269.836 154.25 269.89 154.382C270.494 155.837 277.952 154.716 282.717 155.999C287.121 157.163 292.28 161.185 291.988 164.209Z" fill="#31CFF4"/>
</g>
<defs>
<clipPath id="clip0_1_21">
<rect width="300" height="300" fill="white"/>
</clipPath>
</defs>
</svg>
