<svg width="300" height="300" viewBox="0 0 300 300" fill="none" xmlns="http://www.w3.org/2000/svg">
<path d="M41.2618 263.243C41.6256 267.017 55.7306 264.736 62.7324 272.29C65.3566 275.114 69.603 282.5 70.265 284.316C70.4762 284.946 70.8682 285.501 71.3923 285.91C71.9176 286.28 72.5396 286.487 73.1815 286.507C73.4821 286.507 73.7812 286.465 74.0701 286.382C75.5432 285.91 76.086 282.799 76.1277 282.554C76.8494 278.177 75.6804 274.475 75.8951 271.872C76.4915 264.33 88.8311 265.602 99.0714 253.438C101.052 251.092 103.795 247.24 107.529 247.258C108.894 247.258 110.546 247.79 114.119 247.802C115.705 247.802 116.791 247.634 117.316 247.676C120.721 247.975 122.826 249.7 129.685 250.202C139.669 250.93 142.645 247.813 146.462 250.638C146.462 250.638 150.959 254 154.448 255.361C156.559 256.191 156.476 255.624 157.776 256.316C160.114 257.559 163.036 264.27 163.036 264.27C165.75 270.456 167.688 270.88 167.044 272.439C165.946 275.102 160.483 273.317 156.165 277.717C155.474 278.422 153.833 280.106 154.328 281.658C154.57 282.234 154.97 282.729 155.48 283.087C155.991 283.445 156.592 283.652 157.215 283.683C157.573 283.688 157.93 283.625 158.265 283.498C159.004 283.247 162.899 281.921 163.752 282.817C164.473 283.581 162.487 285.45 161.998 289.731C161.652 292.771 162.44 293.661 162.869 293.989C163.168 294.2 163.507 294.346 163.865 294.419C163.922 294.482 163.992 294.531 164.071 294.562C164.149 294.593 164.234 294.605 164.318 294.598C165.155 294.559 165.957 294.249 166.603 293.714C168.946 291.726 173.974 283.659 178.686 280.894C184.292 277.61 189.606 281.736 192.403 278.052C193.679 276.374 194.055 273.585 192.886 271.919C190.739 268.862 185.652 272.307 179.115 269.722C176.545 268.707 174.105 265.429 169.209 258.86C167.771 256.932 165.94 254.256 166.823 252.979C166.928 252.838 167.058 252.716 167.205 252.62C169.036 251.253 169.74 248.494 169.883 248.058C170.897 244.899 181.155 241.197 184.161 239.985C186.039 239.227 201.6 232.348 208.47 219.57C209.365 217.904 211.637 213.306 213.647 213.64C215.144 213.885 215.108 216.626 217.482 217.695C218.438 218.061 219.475 218.163 220.484 217.989C221.493 217.814 222.436 217.37 223.213 216.703C225.927 214.237 224.269 209.836 225.915 209.174C227.561 208.511 229.398 213.222 233.889 214.548C238.899 215.999 243.962 212.201 244.761 211.562C250.129 207.382 251.364 200.253 251.787 197.798C252.676 192.645 251.578 190.149 253.851 187.223C255.509 185.092 256.964 185.295 259.815 183.468C260.208 183.217 269.083 177.365 268.999 168.671C268.94 162.359 264.192 157.952 263.345 157.164C258.896 153.044 255.908 154.668 253.91 151.832C249.515 145.61 262.01 135.113 258.389 125.481C256.201 119.635 248.966 116.817 244.356 116.178C232.332 114.524 219.903 125.296 214.78 136.372C209.234 148.375 214.243 156.525 207.283 162.27C200.991 167.471 190.697 165.924 190.31 164.431C190.053 163.422 194.317 162.592 195.975 158.46C196.738 156.4 196.786 154.144 196.113 152.053C194.92 148.201 191.705 146.04 190.363 145.168C178.865 137.704 149.456 137.376 137.08 124.603C123.202 110.272 127.383 76.8035 117.739 68.9274C117.143 68.4676 114.602 66.4971 114.942 64.4669C115.365 61.9232 119.85 62.0784 122.993 59.1943C128.301 54.3457 128.361 42.2241 123.19 38.0442C118.628 34.348 112.019 38.504 110.135 35.6557C107.362 31.4401 121.389 21.9219 118.89 13.2935C117.369 8.01494 109.831 3.64997 103.61 5.3876C98.326 6.86249 94.8131 12.4038 94.497 16.9121C94.3121 19.5693 95.2187 22.1548 94.6342 22.3638C94.0497 22.5728 93.1849 19.8559 91.0557 18.1183C87.8948 15.5208 82.7061 15.7298 79.891 16.924C69.943 21.1039 65.6846 43.5019 73.8793 53.2112C76.5333 56.364 80.4397 58.1076 79.9864 60.6871C79.569 63.0756 76.0681 62.8487 71.7441 65.5537C62.7981 71.1607 64.1638 80.5594 55.5517 83.9869C55.2535 84.1063 54.9016 84.2138 54.9016 84.2138C53.4247 84.7142 51.9085 85.0897 50.3689 85.3364C48.4127 85.6827 39.6635 87.2054 39.0372 90.5074C38.7211 92.1018 40.4269 93.7498 43.8443 97.0459C47.4227 100.467 48.2875 100.199 49.3491 101.823C51.6631 105.334 49.6294 109.992 47.2199 117.438C45.4307 122.901 44.3989 128.586 42.6753 134.062C38.3812 147.658 37.3076 183.026 55.3966 205.161C62.0048 213.24 71.9767 225.463 79.9089 230.634C81.1912 231.482 84.0838 233.244 85.9982 236.773C86.5052 237.71 89.3202 242.26 88.521 247.258C87.0777 256.334 74.4816 262.885 68.2074 260.025C62.6966 257.517 61.7245 249.999 57.4721 250.387C55.2714 250.59 52.7009 252.985 52.85 254.43C52.8701 255.056 52.9827 255.676 53.184 256.269C53.3457 256.7 53.4422 257.153 53.4703 257.612C53.4505 257.689 53.4266 257.765 53.3987 257.839C53.0647 258.639 48.9614 258.024 46.3313 258.723C43.9397 259.356 41.1008 261.565 41.2618 263.243Z" fill="#FC565D"/>
</svg>
