<svg width="300" height="300" viewBox="0 0 300 300" fill="none" xmlns="http://www.w3.org/2000/svg">
<rect width="300" height="300" fill="#FC565D"/>
<path d="M86.4739 144.22H79.333L68.4434 174.141L75.2805 176.64L77.6192 170.195H88.1166L90.4549 176.604L97.2925 174.123L86.4739 144.22ZM80.3686 162.912L82.957 155.771L85.5634 162.912H80.3686Z" fill="white"/>
<path d="M85.265 124L67.791 171.062L74.4854 173.547L91.9593 126.486L85.265 124Z" fill="#31CFF4"/>
<path d="M86.0006 140.111L79.3848 142.799L91.5266 172.686L98.1424 169.998L86.0006 140.111Z" fill="#31CFF4"/>
<path d="M81.1906 138.57L69.8008 143.966L72.8581 150.42L84.2479 145.024L81.1906 138.57Z" fill="#31CFF4"/>
<path d="M166.474 144.22H159.333L148.443 174.141L155.28 176.64L157.619 170.195H168.117L170.455 176.604L177.292 174.123L166.474 144.22ZM160.369 162.912L162.957 155.771L165.563 162.912H160.369Z" fill="white"/>
<path d="M165.265 124L147.791 171.062L154.485 173.547L171.959 126.486L165.265 124Z" fill="#FDB157"/>
<path d="M165.999 140.111L159.383 142.799L171.525 172.686L178.14 169.998L165.999 140.111Z" fill="#FDB157"/>
<path d="M161.191 138.57L149.801 143.966L152.858 150.42L164.248 145.024L161.191 138.57Z" fill="#FDB157"/>
<path d="M261.302 144.657V176.505H254.018V159.242L244.075 176.47L244.057 176.505H236.791V144.657H244.075V161.92L254.018 144.693L254.036 144.657H261.302Z" fill="white"/>
<path d="M260.641 176.755V176.792H260.623L260.641 176.755Z" fill="white"/>
<path d="M262.043 124.053H254.896V170.935H262.043V124.053Z" fill="#FFE600"/>
<path d="M263.732 151.832C262.857 151.1 261.411 150.046 259.965 148.797L256.02 145.619L260.572 140.12L264.428 143.209L268.284 146.315L263.732 151.832Z" fill="#FFE600"/>
<path d="M249.324 165.81L243.076 162.383C244.504 159.758 246.932 155.509 249.342 151.261C251.752 147.012 254.055 142.977 255.466 140.406L261.732 143.834C260.304 146.423 257.929 150.618 255.537 154.795C253.145 158.973 250.753 163.222 249.324 165.81Z" fill="#FFE600"/>
<path d="M142.295 139.448V171.314H135.011V146.749H123.639V171.314H116.355V139.448H142.295Z" fill="white"/>
<path d="M108.495 129.404L103.791 134.777L130.414 158.084L135.118 152.711L108.495 129.404Z" fill="#FFE600"/>
<path d="M142.107 141.121H119.346V148.261H142.107V141.121Z" fill="#FFE600"/>
<path d="M123.391 143.979L116.486 145.8L121.786 165.893L128.691 164.072L123.391 143.979Z" fill="#FFE600"/>
<path d="M50.8024 142.274H43.6615L32.7715 172.194L39.609 174.694L41.9478 168.249C42.8226 165.821 43.733 163.393 44.6078 160.965L47.1963 153.824L49.8026 160.965C50.6774 163.393 51.5878 165.821 52.4447 168.249L54.7835 174.658L61.6206 172.177L50.8024 142.274Z" fill="white"/>
<path d="M46.2034 125.998L39.5095 128.485L55.4311 171.343L62.1251 168.856L46.2034 125.998Z" fill="#FFE600"/>
<path d="M44.1469 137.931L32 167.815L38.6153 170.504L50.7623 140.619L44.1469 137.931Z" fill="#FFE600"/>
<path d="M48.6698 135.79L45.6113 142.243L57.0005 147.641L60.0589 141.188L48.6698 135.79Z" fill="#FFE600"/>
<path d="M199.268 172.086L199.107 172.032L199.179 171.836L199.268 172.086Z" fill="white"/>
<path d="M206.962 171.925L206.891 171.961L206.926 171.836L206.962 171.925Z" fill="white"/>
<path d="M222.263 173.282L215.122 174.55L212.123 157.59L206.945 171.872V171.997L206 174.568L200.18 174.461L199.322 172.122V171.872L193.967 157.358L190.932 174.657L183.791 173.407L189.325 142.041H196.181L203.161 161.232L209.695 143.38V143.291L210.07 142.237L216.8 142.023C218.585 152.389 220.406 162.809 222.263 173.282Z" fill="white"/>
<path d="M207.858 125.796L201.164 128.283L217.757 172.948L224.451 170.461L207.858 125.796Z" fill="#31CFF4"/>
<path d="M207.883 143.309L196.939 170.234L203.555 172.923L214.498 145.998L207.883 143.309Z" fill="#31CFF4"/>
<path d="M212.712 141.437L209.652 147.889L227.944 156.563L231.004 150.111L212.712 141.437Z" fill="#31CFF4"/>
</svg>
