<svg width="300" height="300" viewBox="0 0 300 300" fill="none" xmlns="http://www.w3.org/2000/svg">
<g clip-path="url(#clip0_1_25)">
<rect width="300" height="300" fill="white"/>
<rect width="300" height="75" fill="#FC565D"/>
<rect y="75" width="300" height="75" fill="#FDB157"/>
<rect y="150" width="300" height="75" fill="#31CFF4"/>
<rect y="225" width="300" height="75" fill="#FFE600"/>
<path d="M136.227 183.82L135.933 182.47C138.023 181.951 140.143 181.562 142.28 181.305C144.555 180.325 146.92 179.569 149.342 179.047L149.582 180.394C147.179 180.897 144.832 181.639 142.576 182.608C140.435 182.874 138.315 183.279 136.227 183.82Z" fill="white" fill-opacity="0.8" stroke="white" stroke-opacity="0.8" stroke-width="3.36516" stroke-miterlimit="10" stroke-linejoin="round"/>
<path d="M142.58 182.737C144.867 181.748 147.249 180.994 149.688 180.488C149.608 179.984 149.52 179.479 149.426 178.967C146.977 179.489 144.584 180.25 142.284 181.24C140.144 181.497 138.022 181.886 135.93 182.405L135.858 182.4L136.194 183.906C138.295 183.38 140.429 182.989 142.58 182.737ZM142.287 181.386C144.54 180.425 146.879 179.683 149.273 179.17L149.49 180.362C147.111 180.87 144.789 181.614 142.557 182.582C140.442 182.828 138.345 183.21 136.279 183.725L136.021 182.544C138.091 182.031 140.19 181.645 142.307 181.388L142.287 181.386Z" fill="white" fill-opacity="0.8" stroke="white" stroke-opacity="0.8" stroke-width="3.36516" stroke-miterlimit="10" stroke-linejoin="round"/>
<path d="M147.558 187.122C145.937 185.385 144.107 183.857 142.109 182.572L142.751 181.388C144.777 182.713 146.638 184.276 148.292 186.043C148.045 186.374 147.801 186.751 147.558 187.122Z" fill="white" fill-opacity="0.8" stroke="white" stroke-opacity="0.8" stroke-width="3.36516" stroke-miterlimit="10" stroke-linejoin="round"/>
<path d="M148.386 186.037C146.693 184.222 144.783 182.621 142.699 181.272L141.981 182.598C144.02 183.905 145.886 185.463 147.537 187.235C147.837 186.821 148.101 186.432 148.386 186.037ZM142.777 181.504C144.757 182.806 146.579 184.335 148.205 186.059C147.986 186.364 147.765 186.697 147.552 187.009C145.96 185.308 144.166 183.807 142.212 182.54L142.777 181.504Z" fill="white" fill-opacity="0.8" stroke="white" stroke-opacity="0.8" stroke-width="3.36516" stroke-miterlimit="10" stroke-linejoin="round"/>
<path d="M0.63227 175.357L0.338943 174.006C2.42836 173.488 4.54812 173.098 6.68556 172.841C8.96088 171.861 11.3258 171.105 13.7474 170.583L13.9876 171.93C11.5844 172.434 9.23738 173.176 6.98153 174.145C4.84097 174.41 2.72007 174.815 0.63227 175.357Z" fill="white" fill-opacity="0.8" stroke="white" stroke-opacity="0.8" stroke-width="3.36516" stroke-miterlimit="10" stroke-linejoin="round"/>
<path d="M6.9834 174.273C9.27015 173.284 11.6518 172.53 14.0914 172.024C14.0105 171.52 13.923 171.015 13.8292 170.503C11.3795 171.025 8.98722 171.786 6.68646 172.776C4.54684 173.033 2.42503 173.422 0.333374 173.941L0.260526 173.936L0.596867 175.442C2.69843 174.916 4.83167 174.525 6.9834 174.273ZM6.6904 172.923C8.94252 171.961 11.2819 171.219 13.6764 170.706L13.893 171.899C11.514 172.406 9.19169 173.15 6.96014 174.118C4.84499 174.364 2.74766 174.746 0.681594 175.261L0.424285 174.08C2.49413 173.567 4.59334 173.181 6.71015 172.924L6.6904 172.923Z" fill="white" fill-opacity="0.8" stroke="white" stroke-opacity="0.8" stroke-width="3.36516" stroke-miterlimit="10" stroke-linejoin="round"/>
<path d="M11.963 178.658C10.3423 176.922 8.51216 175.394 6.51485 174.109L7.15658 172.925C9.18279 174.25 11.0431 175.813 12.6978 177.58C12.4503 177.911 12.2064 178.288 11.963 178.658Z" fill="white" fill-opacity="0.8" stroke="white" stroke-opacity="0.8" stroke-width="3.36516" stroke-miterlimit="10" stroke-linejoin="round"/>
<path d="M12.7891 177.574C11.0961 175.758 9.18592 174.158 7.10174 172.809L6.3843 174.135C8.42263 175.442 10.2891 177 11.9401 178.771C12.2395 178.358 12.5042 177.969 12.7891 177.574ZM7.18024 173.041C9.16041 174.343 10.9819 175.872 12.6079 177.596C12.3886 177.901 12.1676 178.233 11.9545 178.546C10.3625 176.845 8.56944 175.344 6.61463 174.076L7.18024 173.041Z" fill="white" fill-opacity="0.8" stroke="white" stroke-opacity="0.8" stroke-width="3.36516" stroke-miterlimit="10" stroke-linejoin="round"/>
<path d="M99.9205 188.73L99.7441 187.365C102.291 187.094 104.862 187.133 107.4 187.479C108.812 187.321 110.231 187.243 111.652 187.243C112.371 187.23 113.061 187.283 113.785 187.315C114.509 187.346 115.248 187.375 115.963 187.491L115.923 188.901C114.516 188.717 113.036 188.715 111.654 188.657C110.947 188.663 110.227 188.7 109.534 188.728L108.494 188.782C108.147 188.808 107.766 188.88 107.448 188.903L105.58 188.677L103.691 188.606L102.75 188.581L101.811 188.633C101.164 188.647 100.539 188.671 99.9205 188.73Z" fill="white" stroke="white" stroke-width="3.36516" stroke-miterlimit="10" stroke-linejoin="round"/>
<path d="M107.423 188.96C107.774 188.916 108.144 188.851 108.483 188.838L109.523 188.784C110.226 188.758 110.957 188.713 111.672 188.719C113.079 188.768 114.566 188.781 115.991 188.969L116.043 187.394C115.333 187.298 114.58 187.27 113.854 187.224C113.129 187.178 112.42 187.145 111.691 187.156C110.258 187.153 108.826 187.232 107.401 187.393C104.858 187.045 102.282 187.007 99.7301 187.281L99.6417 187.29L99.8397 188.823C100.466 188.752 101.089 188.737 101.723 188.691L102.673 188.632C102.99 188.633 103.303 188.653 103.615 188.657L105.527 188.729L107.423 188.96ZM107.393 187.565C108.788 187.405 110.192 187.326 111.597 187.328C112.312 187.309 112.997 187.366 113.717 187.392C114.437 187.417 115.161 187.448 115.853 187.54L115.821 188.778L114.769 188.666L113.693 188.617L111.589 188.542C110.885 188.554 110.177 188.584 109.493 188.614L108.467 188.666C108.115 188.696 107.773 188.743 107.428 188.783L105.577 188.562L103.704 188.489L102.777 188.462L101.844 188.511L99.9917 188.63L99.8422 187.43C102.35 187.178 104.88 187.227 107.376 187.576L107.393 187.565Z" fill="white" stroke="white" stroke-width="3.36516" stroke-miterlimit="10" stroke-linejoin="round"/>
<path d="M112.118 194.786C110.64 192.536 108.89 190.478 106.908 188.658C107.239 188.326 107.574 187.999 107.918 187.674C108.451 188.146 108.956 188.65 109.429 189.183C109.889 189.676 110.377 190.2 110.817 190.722C111.257 191.245 111.659 191.808 112.062 192.346L112.651 193.137L113.195 193.98L112.118 194.786Z" fill="white" stroke="white" stroke-width="3.36516" stroke-miterlimit="10" stroke-linejoin="round"/>
<path d="M113.326 194.018L112.771 193.158C112.588 192.873 112.383 192.617 112.174 192.341C111.774 191.808 111.339 191.243 110.901 190.687C110.463 190.131 109.973 189.641 109.487 189.108C109.001 188.567 108.484 188.053 107.941 187.568C107.55 187.931 107.172 188.301 106.809 188.67C108.825 190.517 110.603 192.607 112.103 194.893C112.499 194.599 112.912 194.308 113.326 194.018ZM107.937 187.808C108.456 188.272 108.948 188.765 109.411 189.284C109.872 189.778 110.327 190.275 110.76 190.786C111.192 191.298 111.58 191.838 111.98 192.372C112.379 192.884 112.752 193.417 113.096 193.968L112.138 194.665C110.688 192.468 108.978 190.455 107.045 188.668L107.937 187.808Z" fill="white" stroke="white" stroke-width="3.36516" stroke-miterlimit="10" stroke-linejoin="round"/>
<path d="M175.67 196.079L175.16 194.795C177.489 193.898 179.89 193.201 182.337 192.711C184.829 191.524 187.399 190.507 190.029 189.668L190.518 190.97C187.882 191.808 185.308 192.827 182.813 194.02C180.377 194.498 177.987 195.187 175.67 196.079Z" fill="white" stroke="white" stroke-width="3.36516" stroke-miterlimit="10" stroke-linejoin="round"/>
<path d="M182.83 194.1C185.354 192.891 187.96 191.863 190.63 191.024L190.058 189.556C187.4 190.404 184.803 191.432 182.284 192.634C179.834 193.118 177.43 193.816 175.1 194.717L175.021 194.712L175.595 196.147C177.943 195.258 180.364 194.573 182.83 194.1ZM182.361 192.792C184.829 191.615 187.374 190.605 189.978 189.77L190.41 190.916C187.803 191.747 185.256 192.757 182.787 193.937C180.378 194.413 178.013 195.093 175.719 195.969L175.272 194.842C177.573 193.959 179.944 193.273 182.361 192.792Z" fill="white" stroke="white" stroke-width="3.36516" stroke-miterlimit="10" stroke-linejoin="round"/>
<path d="M189.317 197.891C187.078 196.405 184.724 195.101 182.277 193.992L182.896 192.74C185.378 193.878 187.763 195.215 190.03 196.738L189.317 197.891Z" fill="white" stroke="white" stroke-width="3.36516" stroke-miterlimit="10" stroke-linejoin="round"/>
<path d="M190.148 196.712C187.834 195.152 185.396 193.785 182.859 192.624L182.163 194.038C184.664 195.158 187.066 196.485 189.346 198.006L190.148 196.712ZM182.938 192.849C185.366 193.965 187.703 195.273 189.925 196.758L189.3 197.776C187.1 196.322 184.789 195.043 182.388 193.952L182.938 192.849Z" fill="white" stroke="white" stroke-width="3.36516" stroke-miterlimit="10" stroke-linejoin="round"/>
<path d="M32.0278 187.102L31.5173 185.817C33.8463 184.92 36.2475 184.223 38.6948 183.733C41.187 182.546 43.7569 181.529 46.3865 180.69L46.8756 181.993C44.24 182.83 41.6656 183.849 39.1705 185.042C36.7345 185.52 34.3444 186.209 32.0278 187.102Z" fill="white" stroke="white" stroke-width="3.36516" stroke-miterlimit="10" stroke-linejoin="round"/>
<path d="M39.1872 185.122C41.7112 183.913 44.3177 182.885 46.9873 182.046L46.4154 180.578C43.7574 181.426 41.1602 182.455 38.6419 183.656C36.1912 184.141 33.7875 184.838 31.4579 185.74L31.3782 185.735L31.9522 187.169C34.3005 186.28 36.7211 185.595 39.1872 185.122ZM38.7182 183.814C41.1866 182.637 43.7312 181.628 46.3351 180.792L46.7679 181.939C44.1605 182.77 41.6132 183.779 39.1443 184.96C36.7352 185.436 34.3709 186.115 32.0768 186.991L31.6297 185.864C33.9303 184.981 36.3015 184.295 38.7182 183.814Z" fill="white" stroke="white" stroke-width="3.36516" stroke-miterlimit="10" stroke-linejoin="round"/>
<path d="M45.6749 188.913C43.4358 187.427 41.0815 186.123 38.634 185.014L39.2535 183.762C41.7353 184.901 44.121 186.238 46.3878 187.76L45.6749 188.913Z" fill="white" stroke="white" stroke-width="3.36516" stroke-miterlimit="10" stroke-linejoin="round"/>
<path d="M46.5054 187.734C44.1919 186.174 41.7539 184.807 39.2166 183.646L38.5205 185.06C41.0211 186.18 43.4238 187.507 45.7035 189.028L46.5054 187.734ZM39.2955 183.871C41.7239 184.988 44.0603 186.295 46.2827 187.78L45.658 188.799C43.458 187.344 41.1466 186.065 38.7454 184.974L39.2955 183.871Z" fill="white" stroke="white" stroke-width="3.36516" stroke-miterlimit="10" stroke-linejoin="round"/>
<path d="M249.048 196.407L248.803 195.057C249.956 194.854 251.126 194.675 252.295 194.483C253.463 194.291 254.652 194.217 255.834 194.084C258.36 193.168 260.937 192.4 263.551 191.782L263.923 193.124C262.572 193.417 261.251 193.794 259.957 194.18C258.663 194.567 257.377 195.02 256.141 195.446C254.948 195.534 253.758 195.715 252.576 195.849C251.394 195.982 250.218 196.222 249.048 196.407Z" fill="white" stroke="white" stroke-width="3.36516" stroke-miterlimit="10" stroke-linejoin="round"/>
<path d="M256.155 195.526C257.444 195.093 258.726 194.607 260.023 194.247L262.011 193.675C262.66 193.495 263.359 193.349 264.042 193.185L263.632 191.68C260.989 192.302 258.384 193.077 255.829 193.998C254.641 194.132 253.459 194.265 252.29 194.397C251.122 194.529 249.951 194.761 248.797 194.965L248.711 194.974L248.996 196.493C250.171 196.294 251.358 196.093 252.555 195.918C253.753 195.743 254.943 195.622 256.155 195.526ZM255.848 194.163C258.352 193.261 260.905 192.5 263.494 191.883L263.821 193.063C261.213 193.673 258.645 194.441 256.13 195.361C254.944 195.455 253.773 195.627 252.604 195.759C251.436 195.891 250.272 196.129 249.116 196.313L248.902 195.12L252.349 194.564C253.511 194.433 254.678 194.281 255.848 194.163Z" fill="white" stroke="white" stroke-width="3.36516" stroke-miterlimit="10" stroke-linejoin="round"/>
<path d="M262.142 199.918C261.132 199.089 260.072 198.346 258.987 197.552C257.901 196.758 256.814 196.079 255.628 195.343L256.36 194.184C258.65 195.593 260.85 197.143 262.948 198.824L262.142 199.918Z" fill="white" stroke="white" stroke-width="3.36516" stroke-miterlimit="10" stroke-linejoin="round"/>
<path d="M263.063 198.813C262.016 197.948 260.93 197.154 259.81 196.358C258.691 195.561 257.525 194.83 256.336 194.075L255.514 195.378C256.695 196.127 257.841 196.861 258.944 197.632C260.048 198.404 261.127 199.198 262.158 200.045L263.063 198.813ZM256.388 194.297C258.629 195.679 260.784 197.198 262.839 198.845L262.132 199.807C261.137 198.99 260.099 198.264 259.034 197.482C257.97 196.699 256.865 196.035 255.74 195.312L256.388 194.297Z" fill="white" stroke="white" stroke-width="3.36516" stroke-miterlimit="10" stroke-linejoin="round"/>
<path d="M210.308 186.62L209.831 185.331C210.824 184.909 211.877 184.57 212.873 184.194C213.87 183.819 214.912 183.553 215.99 183.242C217.031 182.583 218.104 182.045 219.204 181.403C220.304 180.761 221.42 180.274 222.562 179.708L223.146 180.976C221.987 181.508 220.863 182.109 219.755 182.67C218.648 183.232 217.575 183.863 216.527 184.528C214.417 185.111 212.341 185.809 210.308 186.62Z" fill="white" fill-opacity="0.8" stroke="white" stroke-opacity="0.8" stroke-width="3.36516" stroke-miterlimit="10" stroke-linejoin="round"/>
<path d="M216.547 184.656C217.607 184.012 218.698 183.402 219.81 182.774C220.922 182.146 222.076 181.588 223.248 181.07L222.633 179.652C221.477 180.244 220.345 180.764 219.235 181.352C218.126 181.941 217.042 182.544 215.994 183.209C214.948 183.528 213.892 183.794 212.876 184.168C211.86 184.543 210.835 184.857 209.836 185.272L209.768 185.301L210.301 186.747C212.344 185.938 214.429 185.24 216.547 184.656ZM216.043 183.372C217.071 182.719 218.117 182.173 219.223 181.545C220.328 180.916 221.425 180.434 222.553 179.867L223.041 180.983C221.895 181.516 220.778 182.104 219.684 182.66C218.59 183.216 217.531 183.853 216.497 184.5C214.421 185.067 212.377 185.748 210.375 186.538L209.961 185.4C211.94 184.608 213.959 183.923 216.011 183.35L216.043 183.372Z" fill="white" fill-opacity="0.8" stroke="white" stroke-opacity="0.8" stroke-width="3.36516" stroke-miterlimit="10" stroke-linejoin="round"/>
<path d="M222.619 188.008C220.488 186.728 218.283 185.573 216.016 184.55L216.479 183.248C217.656 183.789 218.798 184.355 219.908 184.918C221.017 185.482 222.114 186.125 223.172 186.758C222.985 187.186 222.799 187.594 222.619 188.008Z" fill="white" fill-opacity="0.8" stroke="white" stroke-opacity="0.8" stroke-width="3.36516" stroke-miterlimit="10" stroke-linejoin="round"/>
<path d="M223.262 186.758C222.186 186.096 221.079 185.5 219.934 184.874C218.788 184.248 217.631 183.715 216.434 183.165L215.917 184.597C218.228 185.637 220.476 186.812 222.649 188.117C222.851 187.657 223.04 187.203 223.262 186.758ZM216.52 183.377C217.665 183.91 218.788 184.468 219.871 185.017C220.955 185.565 222.032 186.207 223.085 186.82L222.603 187.894C220.509 186.646 218.348 185.514 216.129 184.504L216.52 183.377Z" fill="white" fill-opacity="0.8" stroke="white" stroke-opacity="0.8" stroke-width="3.36516" stroke-miterlimit="10" stroke-linejoin="round"/>
<path d="M66.6643 177.643L66.1875 176.354C67.1799 175.932 68.2335 175.593 69.2296 175.217C70.2257 174.841 71.2681 174.575 72.3466 174.265C73.3875 173.606 74.4605 173.068 75.5602 172.426C76.6599 171.784 77.7763 171.296 78.9177 170.73L79.5024 171.999C78.3432 172.531 77.2195 173.132 76.1116 173.693C75.0037 174.255 73.9314 174.885 72.8835 175.551C70.7737 176.134 68.6975 176.832 66.6643 177.643Z" fill="white" fill-opacity="0.8" stroke="white" stroke-opacity="0.8" stroke-width="3.36516" stroke-miterlimit="10" stroke-linejoin="round"/>
<path d="M72.902 175.679C73.9619 175.034 75.0528 174.424 76.1649 173.797C77.277 173.169 78.4313 172.61 79.6029 172.093L78.9879 170.675C77.8315 171.267 76.6996 171.787 75.5901 172.375C74.4805 172.963 73.3967 173.566 72.3488 174.232C71.303 174.551 70.2473 174.816 69.2313 175.191C68.2153 175.565 67.19 175.879 66.1913 176.294L66.1229 176.323L66.6562 177.769C68.699 176.96 70.7839 176.262 72.902 175.679ZM72.3982 174.395C73.4254 173.741 74.4723 173.196 75.5778 172.567C76.6832 171.939 77.7794 171.456 78.9076 170.889L79.3954 172.006C78.2495 172.538 77.1333 173.126 76.0391 173.682C74.9449 174.238 73.8855 174.876 72.8521 175.522C70.7756 176.09 68.7317 176.77 66.7295 177.561L66.3163 176.422C68.2945 175.63 70.3141 174.946 72.3663 174.372L72.3982 174.395Z" fill="white" fill-opacity="0.8" stroke="white" stroke-opacity="0.8" stroke-width="3.36516" stroke-miterlimit="10" stroke-linejoin="round"/>
<path d="M78.9757 179.031C76.8438 177.75 74.639 176.596 72.3725 175.572L72.8353 174.27C74.0125 174.812 75.1547 175.377 76.2638 175.941C77.3729 176.504 78.4704 177.147 79.5284 177.781C79.3412 178.208 79.1553 178.616 78.9757 179.031Z" fill="white" fill-opacity="0.8" stroke="white" stroke-opacity="0.8" stroke-width="3.36516" stroke-miterlimit="10" stroke-linejoin="round"/>
<path d="M79.6182 177.78C78.5419 177.119 77.4349 176.522 76.2898 175.896C75.1447 175.27 73.9871 174.737 72.7905 174.188L72.2729 175.62C74.5842 176.659 76.8323 177.835 79.0052 179.139C79.2077 178.679 79.3966 178.225 79.6182 177.78ZM72.8768 174.4C74.0212 174.932 75.144 175.49 76.2275 176.039C77.3109 176.588 78.3884 177.229 79.4411 177.842L78.9596 178.917C76.8655 177.668 74.7041 176.536 72.4852 175.526L72.8768 174.4Z" fill="white" fill-opacity="0.8" stroke="white" stroke-opacity="0.8" stroke-width="3.36516" stroke-miterlimit="10" stroke-linejoin="round"/>
<path d="M286.071 186.872L285.702 185.549C286.726 185.209 287.804 184.958 288.828 184.666C289.851 184.374 290.912 184.194 292.012 183.973C293.104 183.402 294.218 182.955 295.366 182.405C296.515 181.856 297.668 181.462 298.852 180.992L299.33 182.304C298.131 182.739 296.962 183.245 295.812 183.713C294.661 184.182 293.541 184.722 292.442 185.299C290.291 185.707 288.164 186.232 286.071 186.872Z" fill="white" fill-opacity="0.8" stroke="white" stroke-opacity="0.8" stroke-width="3.36516" stroke-miterlimit="10" stroke-linejoin="round"/>
<path d="M292.448 185.429C293.558 184.874 294.695 184.356 295.855 183.822C297.015 183.288 298.211 182.826 299.422 182.407L298.925 180.943C297.724 181.438 296.553 181.863 295.399 182.358C294.245 182.853 293.115 183.365 292.016 183.941C290.948 184.174 289.874 184.351 288.83 184.641C287.787 184.93 286.739 185.159 285.71 185.491L285.639 185.514L286.052 186.999C288.154 186.361 290.289 185.837 292.448 185.429ZM292.052 184.108C293.129 183.541 294.218 183.084 295.371 182.548C296.524 182.013 297.657 181.623 298.828 181.15L299.222 182.303C298.036 182.74 296.875 183.234 295.739 183.698C294.603 184.162 293.495 184.71 292.411 185.269C290.295 185.664 288.202 186.174 286.142 186.797L285.824 185.628C287.86 185.002 289.929 184.486 292.022 184.083L292.052 184.108Z" fill="white" fill-opacity="0.8" stroke="white" stroke-opacity="0.8" stroke-width="3.36516" stroke-miterlimit="10" stroke-linejoin="round"/>
<path d="M298.225 189.269C296.206 187.817 294.104 186.485 291.929 185.279L292.498 184.019C293.626 184.656 294.718 185.313 295.777 185.966C296.836 186.619 297.877 187.35 298.879 188.069C298.657 188.479 298.439 188.87 298.225 189.269Z" fill="white" fill-opacity="0.8" stroke="white" stroke-opacity="0.8" stroke-width="3.36516" stroke-miterlimit="10" stroke-linejoin="round"/>
<path d="M298.973 188.076C297.955 187.328 296.9 186.642 295.811 185.924C294.721 185.206 293.611 184.58 292.464 183.934L291.83 185.318C294.048 186.545 296.192 187.901 298.25 189.38C298.49 188.938 298.715 188.501 298.973 188.076ZM292.532 184.152C293.629 184.777 294.702 185.425 295.737 186.061C296.771 186.697 297.793 187.425 298.791 188.123L298.223 189.154C296.239 187.737 294.178 186.432 292.049 185.243L292.532 184.152Z" fill="white" fill-opacity="0.8" stroke="white" stroke-opacity="0.8" stroke-width="3.36516" stroke-miterlimit="10" stroke-linejoin="round"/>
<path d="M136.227 111.994L135.933 110.644C138.023 110.125 140.143 109.736 142.28 109.478C144.555 108.499 146.92 107.742 149.342 107.22L149.582 108.567C147.179 109.071 144.832 109.813 142.576 110.782C140.435 111.048 138.315 111.452 136.227 111.994Z" fill="white" fill-opacity="0.8" stroke="white" stroke-opacity="0.8" stroke-width="3.36516" stroke-miterlimit="10" stroke-linejoin="round"/>
<path d="M142.58 110.911C144.867 109.921 147.249 109.168 149.688 108.662C149.608 108.158 149.52 107.653 149.426 107.141C146.977 107.662 144.584 108.424 142.284 109.413C140.144 109.671 138.022 110.06 135.93 110.578L135.858 110.574L136.194 112.08C138.295 111.554 140.429 111.163 142.58 110.911ZM142.287 109.56C144.54 108.599 146.879 107.857 149.273 107.344L149.49 108.536C147.111 109.044 144.789 109.787 142.557 110.756C140.442 111.002 138.345 111.384 136.279 111.899L136.021 110.717C138.091 110.205 140.19 109.819 142.307 109.562L142.287 109.56Z" fill="white" fill-opacity="0.8" stroke="white" stroke-opacity="0.8" stroke-width="3.36516" stroke-miterlimit="10" stroke-linejoin="round"/>
<path d="M147.558 115.295C145.937 113.559 144.107 112.031 142.109 110.746L142.751 109.562C144.777 110.887 146.638 112.45 148.292 114.217C148.045 114.547 147.801 114.925 147.558 115.295Z" fill="white" fill-opacity="0.8" stroke="white" stroke-opacity="0.8" stroke-width="3.36516" stroke-miterlimit="10" stroke-linejoin="round"/>
<path d="M148.386 114.211C146.693 112.395 144.783 110.795 142.699 109.446L141.981 110.772C144.02 112.079 145.886 113.637 147.537 115.408C147.837 114.995 148.101 114.606 148.386 114.211ZM142.777 109.678C144.757 110.98 146.579 112.509 148.205 114.233C147.986 114.538 147.765 114.87 147.552 115.183C145.96 113.482 144.166 111.981 142.212 110.713L142.777 109.678Z" fill="white" fill-opacity="0.8" stroke="white" stroke-opacity="0.8" stroke-width="3.36516" stroke-miterlimit="10" stroke-linejoin="round"/>
<path d="M0.63227 103.531L0.338943 102.18C2.42836 101.661 4.54812 101.272 6.68556 101.015C8.96088 100.035 11.3258 99.279 13.7474 98.7569L13.9876 100.104C11.5844 100.607 9.23738 101.349 6.98153 102.319C4.84097 102.584 2.72007 102.989 0.63227 103.531Z" fill="white" fill-opacity="0.8" stroke="white" stroke-opacity="0.8" stroke-width="3.36516" stroke-miterlimit="10" stroke-linejoin="round"/>
<path d="M6.9834 102.447C9.27015 101.457 11.6518 100.704 14.0914 100.198C14.0105 99.6937 13.923 99.1887 13.8292 98.6767C11.3795 99.1985 8.98722 99.9597 6.68646 100.95C4.54684 101.207 2.42503 101.596 0.333374 102.114L0.260526 102.11L0.596867 103.616C2.69843 103.09 4.83167 102.699 6.9834 102.447ZM6.6904 101.096C8.94252 100.135 11.2819 99.3927 13.6764 98.88L13.893 100.072C11.514 100.58 9.19169 101.324 6.96014 102.292C4.84499 102.538 2.74766 102.92 0.681594 103.435L0.424285 102.253C2.49413 101.741 4.59334 101.355 6.71015 101.098L6.6904 101.096Z" fill="white" fill-opacity="0.8" stroke="white" stroke-opacity="0.8" stroke-width="3.36516" stroke-miterlimit="10" stroke-linejoin="round"/>
<path d="M11.963 106.832C10.3423 105.096 8.51216 103.568 6.51485 102.282L7.15658 101.098C9.18279 102.424 11.0431 103.987 12.6978 105.754C12.4503 106.084 12.2064 106.462 11.963 106.832Z" fill="white" fill-opacity="0.8" stroke="white" stroke-opacity="0.8" stroke-width="3.36516" stroke-miterlimit="10" stroke-linejoin="round"/>
<path d="M12.7891 105.748C11.0961 103.932 9.18592 102.332 7.10174 100.983L6.3843 102.309C8.42263 103.616 10.2891 105.174 11.9401 106.945C12.2395 106.531 12.5042 106.142 12.7891 105.748ZM7.18024 101.214C9.16041 102.517 10.9819 104.045 12.6079 105.769C12.3886 106.075 12.1676 106.407 11.9545 106.72C10.3625 105.019 8.56944 103.518 6.61463 102.25L7.18024 101.214Z" fill="white" fill-opacity="0.8" stroke="white" stroke-opacity="0.8" stroke-width="3.36516" stroke-miterlimit="10" stroke-linejoin="round"/>
<path d="M99.9205 116.904L99.7441 115.539C102.291 115.268 104.862 115.307 107.4 115.653C108.812 115.495 110.231 115.416 111.652 115.417C112.371 115.404 113.061 115.457 113.785 115.488C114.509 115.52 115.248 115.549 115.963 115.665L115.923 117.074C114.516 116.891 113.036 116.889 111.654 116.831C110.947 116.837 110.227 116.874 109.534 116.902L108.494 116.956C108.147 116.982 107.766 117.054 107.448 117.077L105.58 116.851L103.691 116.78L102.75 116.755L101.811 116.807C101.164 116.821 100.539 116.845 99.9205 116.904Z" fill="white" stroke="white" stroke-width="3.36516" stroke-miterlimit="10" stroke-linejoin="round"/>
<path d="M107.423 117.134C107.774 117.09 108.144 117.025 108.483 117.012L109.523 116.958C110.226 116.931 110.957 116.887 111.672 116.893C113.079 116.942 114.566 116.955 115.991 117.142L116.043 115.567C115.333 115.472 114.58 115.444 113.854 115.398C113.129 115.352 112.42 115.319 111.691 115.33C110.258 115.327 108.826 115.406 107.401 115.567C104.858 115.218 102.282 115.181 99.7301 115.455L99.6417 115.464L99.8397 116.997C100.466 116.925 101.089 116.911 101.723 116.865L102.673 116.806C102.99 116.807 103.303 116.827 103.615 116.831L105.527 116.903L107.423 117.134ZM107.393 115.739C108.788 115.579 110.192 115.499 111.597 115.502C112.312 115.483 112.997 115.54 113.717 115.565C114.437 115.591 115.161 115.622 115.853 115.714L115.821 116.952L114.769 116.84L113.693 116.79L111.589 116.716C110.885 116.728 110.177 116.757 109.493 116.788L108.467 116.84C108.115 116.87 107.773 116.916 107.428 116.957L105.577 116.736L103.704 116.663L102.777 116.636L101.844 116.684L99.9917 116.804L99.8422 115.604C102.35 115.352 104.88 115.401 107.376 115.749L107.393 115.739Z" fill="white" stroke="white" stroke-width="3.36516" stroke-miterlimit="10" stroke-linejoin="round"/>
<path d="M112.118 122.959C110.64 120.71 108.89 118.652 106.908 116.832C107.239 116.499 107.574 116.173 107.918 115.848C108.451 116.32 108.956 116.824 109.429 117.356C109.889 117.85 110.377 118.373 110.817 118.896C111.257 119.419 111.659 119.981 112.062 120.52L112.651 121.311L113.195 122.154L112.118 122.959Z" fill="white" stroke="white" stroke-width="3.36516" stroke-miterlimit="10" stroke-linejoin="round"/>
<path d="M113.326 122.191L112.771 121.331C112.588 121.047 112.383 120.791 112.174 120.515C111.774 119.982 111.339 119.417 110.901 118.861C110.463 118.305 109.973 117.815 109.487 117.282C109.001 116.741 108.484 116.226 107.941 115.742C107.55 116.105 107.172 116.475 106.809 116.843C108.825 118.691 110.603 120.781 112.103 123.067C112.499 122.772 112.912 122.482 113.326 122.191ZM107.937 115.982C108.456 116.446 108.948 116.939 109.411 117.458C109.872 117.951 110.327 118.449 110.76 118.96C111.192 119.472 111.58 120.012 111.98 120.545C112.379 121.058 112.752 121.591 113.096 122.142L112.138 122.839C110.688 120.642 108.978 118.628 107.045 116.842L107.937 115.982Z" fill="white" stroke="white" stroke-width="3.36516" stroke-miterlimit="10" stroke-linejoin="round"/>
<path d="M175.67 124.253L175.16 122.969C177.489 122.072 179.89 121.374 182.337 120.885C184.829 119.698 187.399 118.681 190.029 117.841L190.518 119.144C187.882 119.982 185.308 121.001 182.813 122.193C180.377 122.672 177.987 123.361 175.67 124.253Z" fill="white" stroke="white" stroke-width="3.36516" stroke-miterlimit="10" stroke-linejoin="round"/>
<path d="M182.83 122.274C185.354 121.065 187.96 120.037 190.63 119.197L190.058 117.729C187.4 118.578 184.803 119.606 182.284 120.807C179.834 121.292 177.43 121.989 175.1 122.891L175.021 122.886L175.595 124.321C177.943 123.432 180.364 122.747 182.83 122.274ZM182.361 120.965C184.829 119.789 187.374 118.779 189.978 117.944L190.41 119.09C187.803 119.921 185.256 120.931 182.787 122.111C180.378 122.587 178.013 123.267 175.719 124.142L175.272 123.015C177.573 122.133 179.944 121.447 182.361 120.965Z" fill="white" stroke="white" stroke-width="3.36516" stroke-miterlimit="10" stroke-linejoin="round"/>
<path d="M189.317 126.065C187.078 124.579 184.724 123.275 182.277 122.165L182.896 120.913C185.378 122.052 187.763 123.389 190.03 124.912L189.317 126.065Z" fill="white" stroke="white" stroke-width="3.36516" stroke-miterlimit="10" stroke-linejoin="round"/>
<path d="M190.148 124.886C187.834 123.326 185.396 121.958 182.859 120.798L182.163 122.211C184.664 123.332 187.066 124.659 189.346 126.179L190.148 124.886ZM182.938 121.022C185.366 122.139 187.703 123.446 189.925 124.932L189.3 125.95C187.1 124.496 184.789 123.217 182.388 122.126L182.938 121.022Z" fill="white" stroke="white" stroke-width="3.36516" stroke-miterlimit="10" stroke-linejoin="round"/>
<path d="M32.0278 115.275L31.5173 113.991C33.8463 113.094 36.2475 112.397 38.6948 111.907C41.187 110.72 43.7569 109.703 46.3865 108.864L46.8756 110.167C44.24 111.004 41.6656 112.023 39.1705 113.216C36.7345 113.694 34.3444 114.383 32.0278 115.275Z" fill="white" stroke="white" stroke-width="3.36516" stroke-miterlimit="10" stroke-linejoin="round"/>
<path d="M39.1872 113.296C41.7112 112.087 44.3177 111.059 46.9873 110.22L46.4154 108.752C43.7574 109.6 41.1602 110.628 38.6419 111.83C36.1912 112.314 33.7875 113.012 31.4579 113.913L31.3782 113.908L31.9522 115.343C34.3005 114.454 36.7211 113.769 39.1872 113.296ZM38.7182 111.988C41.1866 110.811 43.7312 109.801 46.3351 108.966L46.7679 110.112C44.1605 110.943 41.6132 111.953 39.1443 113.133C36.7352 113.609 34.3709 114.289 32.0768 115.165L31.6297 114.038C33.9303 113.155 36.3015 112.469 38.7182 111.988Z" fill="white" stroke="white" stroke-width="3.36516" stroke-miterlimit="10" stroke-linejoin="round"/>
<path d="M45.6749 117.087C43.4358 115.601 41.0815 114.297 38.634 113.188L39.2535 111.936C41.7353 113.074 44.121 114.412 46.3878 115.934L45.6749 117.087Z" fill="white" stroke="white" stroke-width="3.36516" stroke-miterlimit="10" stroke-linejoin="round"/>
<path d="M46.5054 115.908C44.1919 114.348 41.7539 112.981 39.2166 111.82L38.5205 113.233C41.0211 114.354 43.4238 115.681 45.7035 117.202L46.5054 115.908ZM39.2955 112.045C41.7239 113.161 44.0603 114.469 46.2827 115.954L45.658 116.972C43.458 115.518 41.1466 114.239 38.7454 113.148L39.2955 112.045Z" fill="white" stroke="white" stroke-width="3.36516" stroke-miterlimit="10" stroke-linejoin="round"/>
<path d="M249.048 124.581L248.803 123.231C249.956 123.027 251.126 122.849 252.295 122.657C253.463 122.465 254.652 122.391 255.834 122.258C258.36 121.342 260.937 120.574 263.551 119.956L263.923 121.298C262.572 121.591 261.251 121.967 259.957 122.354C258.663 122.741 257.377 123.193 256.141 123.62C254.948 123.708 253.758 123.889 252.576 124.022C251.394 124.156 250.218 124.396 249.048 124.581Z" fill="white" stroke="white" stroke-width="3.36516" stroke-miterlimit="10" stroke-linejoin="round"/>
<path d="M256.155 123.699C257.444 123.266 258.726 122.781 260.023 122.42L262.011 121.848C262.66 121.668 263.359 121.523 264.042 121.359L263.632 119.854C260.989 120.476 258.384 121.25 255.829 122.172C254.641 122.306 253.459 122.439 252.29 122.571C251.122 122.703 249.951 122.935 248.797 123.138L248.711 123.148L248.996 124.667C250.171 124.468 251.358 124.267 252.555 124.092C253.753 123.917 254.943 123.796 256.155 123.699ZM255.848 122.337C258.352 121.435 260.905 120.674 263.494 120.057L263.821 121.237C261.213 121.847 258.645 122.614 256.13 123.535C254.944 123.629 253.773 123.801 252.604 123.933C251.436 124.064 250.272 124.302 249.116 124.486L248.902 123.294L252.349 122.738C253.511 122.607 254.678 122.455 255.848 122.337Z" fill="white" stroke="white" stroke-width="3.36516" stroke-miterlimit="10" stroke-linejoin="round"/>
<path d="M262.142 128.092C261.132 127.263 260.072 126.519 258.987 125.726C257.901 124.932 256.814 124.253 255.628 123.517L256.36 122.358C258.65 123.767 260.85 125.317 262.948 126.998L262.142 128.092Z" fill="white" stroke="white" stroke-width="3.36516" stroke-miterlimit="10" stroke-linejoin="round"/>
<path d="M263.063 126.987C262.016 126.122 260.93 125.328 259.81 124.532C258.691 123.735 257.525 123.004 256.336 122.249L255.514 123.552C256.695 124.301 257.841 125.035 258.944 125.806C260.048 126.578 261.127 127.372 262.158 128.218L263.063 126.987ZM256.388 122.47C258.629 123.853 260.784 125.372 262.839 127.018L262.132 127.981C261.137 127.164 260.099 126.438 259.034 125.656C257.97 124.873 256.865 124.208 255.74 123.486L256.388 122.47Z" fill="white" stroke="white" stroke-width="3.36516" stroke-miterlimit="10" stroke-linejoin="round"/>
<path d="M210.308 114.794L209.831 113.505C210.824 113.083 211.877 112.744 212.873 112.368C213.87 111.993 214.912 111.726 215.99 111.416C217.031 110.757 218.104 110.219 219.204 109.577C220.304 108.935 221.42 108.448 222.562 107.881L223.146 109.15C221.987 109.682 220.863 110.283 219.755 110.844C218.648 111.406 217.575 112.036 216.527 112.702C214.417 113.285 212.341 113.983 210.308 114.794Z" fill="white" fill-opacity="0.8" stroke="white" stroke-opacity="0.8" stroke-width="3.36516" stroke-miterlimit="10" stroke-linejoin="round"/>
<path d="M216.547 112.83C217.607 112.185 218.698 111.576 219.81 110.948C220.922 110.32 222.076 109.762 223.248 109.244L222.633 107.826C221.477 108.418 220.345 108.938 219.235 109.526C218.126 110.114 217.042 110.718 215.994 111.383C214.948 111.702 213.892 111.968 212.876 112.342C211.86 112.717 210.835 113.03 209.836 113.446L209.768 113.475L210.301 114.921C212.344 114.112 214.429 113.414 216.547 112.83ZM216.043 111.546C217.071 110.893 218.117 110.347 219.223 109.719C220.328 109.09 221.425 108.608 222.553 108.041L223.041 109.157C221.895 109.69 220.778 110.278 219.684 110.834C218.59 111.389 217.531 112.027 216.497 112.674C214.421 113.241 212.377 113.922 210.375 114.712L209.961 113.574C211.94 112.782 213.959 112.097 216.011 111.524L216.043 111.546Z" fill="white" fill-opacity="0.8" stroke="white" stroke-opacity="0.8" stroke-width="3.36516" stroke-miterlimit="10" stroke-linejoin="round"/>
<path d="M222.619 116.182C220.488 114.902 218.283 113.747 216.016 112.724L216.479 111.422C217.656 111.963 218.798 112.528 219.908 113.092C221.017 113.656 222.114 114.299 223.172 114.932C222.985 115.36 222.799 115.767 222.619 116.182Z" fill="white" fill-opacity="0.8" stroke="white" stroke-opacity="0.8" stroke-width="3.36516" stroke-miterlimit="10" stroke-linejoin="round"/>
<path d="M223.262 114.932C222.186 114.27 221.079 113.674 219.934 113.048C218.788 112.422 217.631 111.888 216.434 111.339L215.917 112.771C218.228 113.811 220.476 114.986 222.649 116.291C222.851 115.831 223.04 115.377 223.262 114.932ZM216.52 111.551C217.665 112.084 218.788 112.642 219.871 113.19C220.955 113.739 222.032 114.381 223.085 114.994L222.603 116.068C220.509 114.82 218.348 113.688 216.129 112.678L216.52 111.551Z" fill="white" fill-opacity="0.8" stroke="white" stroke-opacity="0.8" stroke-width="3.36516" stroke-miterlimit="10" stroke-linejoin="round"/>
<path d="M66.6643 105.817L66.1875 104.528C67.1799 104.105 68.2335 103.767 69.2296 103.391C70.2257 103.015 71.2681 102.749 72.3466 102.438C73.3875 101.779 74.4605 101.242 75.5602 100.6C76.6599 99.9578 77.7763 99.4702 78.9177 98.9041L79.5024 100.173C78.3432 100.705 77.2195 101.305 76.1116 101.867C75.0037 102.429 73.9314 103.059 72.8835 103.724C70.7737 104.308 68.6975 105.006 66.6643 105.817Z" fill="white" fill-opacity="0.8" stroke="white" stroke-opacity="0.8" stroke-width="3.36516" stroke-miterlimit="10" stroke-linejoin="round"/>
<path d="M72.902 103.852C73.9619 103.208 75.0528 102.598 76.1649 101.97C77.277 101.342 78.4313 100.784 79.6029 100.266L78.9879 98.8486C77.8315 99.4404 76.6996 99.9605 75.5901 100.549C74.4805 101.137 73.3967 101.74 72.3488 102.405C71.303 102.725 70.2473 102.99 69.2313 103.365C68.2153 103.739 67.19 104.053 66.1913 104.468L66.1229 104.497L66.6562 105.943C68.699 105.134 70.7839 104.436 72.902 103.852ZM72.3982 102.568C73.4254 101.915 74.4723 101.369 75.5778 100.741C76.6832 100.113 77.7794 99.6302 78.9076 99.0632L79.3954 100.18C78.2495 100.712 77.1333 101.3 76.0391 101.856C74.9449 102.412 73.8855 103.05 72.8521 103.696C70.7756 104.263 68.7317 104.944 66.7295 105.734L66.3163 104.596C68.2945 103.804 70.3141 103.12 72.3663 102.546L72.3982 102.568Z" fill="white" fill-opacity="0.8" stroke="white" stroke-opacity="0.8" stroke-width="3.36516" stroke-miterlimit="10" stroke-linejoin="round"/>
<path d="M78.9757 107.204C76.8438 105.924 74.639 104.769 72.3725 103.746L72.8353 102.444C74.0125 102.985 75.1547 103.551 76.2638 104.115C77.3729 104.678 78.4704 105.321 79.5284 105.955C79.3412 106.382 79.1553 106.79 78.9757 107.204Z" fill="white" fill-opacity="0.8" stroke="white" stroke-opacity="0.8" stroke-width="3.36516" stroke-miterlimit="10" stroke-linejoin="round"/>
<path d="M79.6182 105.954C78.5419 105.293 77.4349 104.696 76.2898 104.07C75.1447 103.444 73.9871 102.911 72.7905 102.362L72.2729 103.793C74.5842 104.833 76.8323 106.008 79.0052 107.313C79.2077 106.853 79.3966 106.399 79.6182 105.954ZM72.8768 102.573C74.0212 103.106 75.144 103.664 76.2275 104.213C77.3109 104.761 78.3884 105.403 79.4411 106.016L78.9596 107.09C76.8655 105.842 74.7041 104.71 72.4852 103.7L72.8768 102.573Z" fill="white" fill-opacity="0.8" stroke="white" stroke-opacity="0.8" stroke-width="3.36516" stroke-miterlimit="10" stroke-linejoin="round"/>
<path d="M286.071 115.046L285.702 113.723C286.726 113.383 287.804 113.132 288.828 112.84C289.851 112.547 290.912 112.368 292.012 112.147C293.104 111.576 294.218 111.129 295.366 110.579C296.515 110.03 297.668 109.636 298.852 109.165L299.33 110.478C298.131 110.913 296.962 111.419 295.812 111.887C294.661 112.356 293.541 112.896 292.442 113.473C290.291 113.88 288.164 114.405 286.071 115.046Z" fill="white" fill-opacity="0.8" stroke="white" stroke-opacity="0.8" stroke-width="3.36516" stroke-miterlimit="10" stroke-linejoin="round"/>
<path d="M292.448 113.603C293.558 113.048 294.695 112.53 295.855 111.996C297.015 111.461 298.211 111 299.422 110.58L298.925 109.117C297.724 109.611 296.553 110.037 295.399 110.531C294.245 111.026 293.115 111.538 292.016 112.115C290.948 112.347 289.874 112.525 288.83 112.815C287.787 113.104 286.739 113.332 285.71 113.664L285.639 113.688L286.052 115.172C288.154 114.534 290.289 114.01 292.448 113.603ZM292.052 112.282C293.129 111.715 294.218 111.257 295.371 110.722C296.524 110.187 297.657 109.796 298.828 109.324L299.222 110.477C298.036 110.913 296.875 111.407 295.739 111.871C294.603 112.335 293.495 112.884 292.411 113.443C290.295 113.837 288.202 114.347 286.142 114.971L285.824 113.802C287.86 113.175 289.929 112.66 292.022 112.257L292.052 112.282Z" fill="white" fill-opacity="0.8" stroke="white" stroke-opacity="0.8" stroke-width="3.36516" stroke-miterlimit="10" stroke-linejoin="round"/>
<path d="M298.225 117.443C296.206 115.991 294.104 114.659 291.929 113.452L292.498 112.193C293.626 112.829 294.718 113.487 295.777 114.14C296.836 114.793 297.877 115.524 298.879 116.243C298.657 116.653 298.439 117.044 298.225 117.443Z" fill="white" fill-opacity="0.8" stroke="white" stroke-opacity="0.8" stroke-width="3.36516" stroke-miterlimit="10" stroke-linejoin="round"/>
<path d="M298.973 116.25C297.955 115.502 296.9 114.816 295.811 114.098C294.721 113.38 293.611 112.753 292.464 112.107L291.83 113.492C294.048 114.718 296.192 116.074 298.25 117.554C298.49 117.112 298.715 116.675 298.973 116.25ZM292.532 112.326C293.629 112.951 294.702 113.599 295.737 114.235C296.771 114.871 297.793 115.599 298.791 116.297L298.223 117.328C296.239 115.911 294.178 114.606 292.049 113.416L292.532 112.326Z" fill="white" fill-opacity="0.8" stroke="white" stroke-opacity="0.8" stroke-width="3.36516" stroke-miterlimit="10" stroke-linejoin="round"/>
<path d="M136.227 255.646L135.933 254.296C138.023 253.777 140.143 253.388 142.28 253.131C144.555 252.151 146.92 251.395 149.342 250.873L149.582 252.22C147.179 252.723 144.832 253.465 142.576 254.435C140.435 254.7 138.315 255.105 136.227 255.646Z" fill="white" fill-opacity="0.8" stroke="white" stroke-opacity="0.8" stroke-width="3.36516" stroke-miterlimit="10" stroke-linejoin="round"/>
<path d="M142.58 254.563C144.867 253.574 147.249 252.82 149.688 252.315C149.608 251.81 149.52 251.305 149.426 250.793C146.977 251.315 144.584 252.076 142.284 253.066C140.144 253.323 138.022 253.712 135.93 254.231L135.858 254.226L136.194 255.732C138.295 255.206 140.429 254.815 142.58 254.563ZM142.287 253.213C144.54 252.251 146.879 251.509 149.273 250.996L149.49 252.189C147.111 252.696 144.789 253.44 142.557 254.408C140.442 254.654 138.345 255.036 136.279 255.551L136.021 254.37C138.091 253.857 140.19 253.471 142.307 253.214L142.287 253.213Z" fill="white" fill-opacity="0.8" stroke="white" stroke-opacity="0.8" stroke-width="3.36516" stroke-miterlimit="10" stroke-linejoin="round"/>
<path d="M147.558 258.948C145.937 257.212 144.107 255.683 142.109 254.398L142.751 253.214C144.777 254.539 146.638 256.102 148.292 257.87C148.045 258.2 147.801 258.577 147.558 258.948Z" fill="white" fill-opacity="0.8" stroke="white" stroke-opacity="0.8" stroke-width="3.36516" stroke-miterlimit="10" stroke-linejoin="round"/>
<path d="M148.386 257.863C146.693 256.048 144.783 254.447 142.699 253.099L141.981 254.424C144.02 255.732 145.886 257.289 147.537 259.061C147.837 258.647 148.101 258.258 148.386 257.863ZM142.777 253.33C144.757 254.632 146.579 256.161 148.205 257.885C147.986 258.191 147.765 258.523 147.552 258.835C145.96 257.134 144.166 255.634 142.212 254.366L142.777 253.33Z" fill="white" fill-opacity="0.8" stroke="white" stroke-opacity="0.8" stroke-width="3.36516" stroke-miterlimit="10" stroke-linejoin="round"/>
<path d="M0.63227 247.183L0.338943 245.833C2.42836 245.314 4.54812 244.925 6.68556 244.667C8.96088 243.688 11.3258 242.931 13.7474 242.409L13.9876 243.756C11.5844 244.26 9.23738 245.002 6.98153 245.971C4.84097 246.237 2.72007 246.641 0.63227 247.183Z" fill="white" fill-opacity="0.8" stroke="white" stroke-opacity="0.8" stroke-width="3.36516" stroke-miterlimit="10" stroke-linejoin="round"/>
<path d="M6.9834 246.099C9.27015 245.11 11.6518 244.357 14.0914 243.851C14.0105 243.346 13.923 242.841 13.8292 242.329C11.3795 242.851 8.98722 243.612 6.68646 244.602C4.54684 244.859 2.42503 245.248 0.333374 245.767L0.260526 245.762L0.596867 247.268C2.69843 246.742 4.83167 246.352 6.9834 246.099ZM6.6904 244.749C8.94252 243.787 11.2819 243.045 13.6764 242.533L13.893 243.725C11.514 244.232 9.19169 244.976 6.96014 245.944C4.84499 246.19 2.74766 246.572 0.681594 247.087L0.424285 245.906C2.49413 245.393 4.59334 245.007 6.71015 244.75L6.6904 244.749Z" fill="white" fill-opacity="0.8" stroke="white" stroke-opacity="0.8" stroke-width="3.36516" stroke-miterlimit="10" stroke-linejoin="round"/>
<path d="M11.963 250.485C10.3423 248.748 8.51216 247.22 6.51485 245.935L7.15658 244.751C9.18279 246.076 11.0431 247.639 12.6978 249.406C12.4503 249.737 12.2064 250.114 11.963 250.485Z" fill="white" fill-opacity="0.8" stroke="white" stroke-opacity="0.8" stroke-width="3.36516" stroke-miterlimit="10" stroke-linejoin="round"/>
<path d="M12.7891 249.4C11.0961 247.584 9.18592 245.984 7.10174 244.635L6.3843 245.961C8.42263 247.268 10.2891 248.826 11.9401 250.598C12.2395 250.184 12.5042 249.795 12.7891 249.4ZM7.18024 244.867C9.16041 246.169 10.9819 247.698 12.6079 249.422C12.3886 249.727 12.1676 250.06 11.9545 250.372C10.3625 248.671 8.56944 247.17 6.61463 245.903L7.18024 244.867Z" fill="white" fill-opacity="0.8" stroke="white" stroke-opacity="0.8" stroke-width="3.36516" stroke-miterlimit="10" stroke-linejoin="round"/>
<path d="M99.9205 260.556L99.7441 259.191C102.291 258.921 104.862 258.959 107.4 259.306C108.812 259.148 110.231 259.069 111.652 259.07C112.371 259.057 113.061 259.11 113.785 259.141C114.509 259.172 115.248 259.202 115.963 259.317L115.923 260.727C114.516 260.543 113.036 260.541 111.654 260.483C110.947 260.489 110.227 260.526 109.534 260.554L108.494 260.609C108.147 260.635 107.766 260.707 107.448 260.729L105.58 260.504L103.691 260.433L102.75 260.407L101.811 260.459C101.164 260.474 100.539 260.497 99.9205 260.556Z" fill="white" fill-opacity="0.8" stroke="white" stroke-opacity="0.8" stroke-width="3.36516" stroke-miterlimit="10" stroke-linejoin="round"/>
<path d="M107.423 260.786C107.774 260.742 108.144 260.678 108.483 260.664L109.523 260.61C110.226 260.584 110.957 260.54 111.672 260.545C113.079 260.594 114.566 260.607 115.991 260.795L116.043 259.22C115.333 259.124 114.58 259.096 113.854 259.05C113.129 259.004 112.42 258.971 111.691 258.983C110.258 258.979 108.826 259.058 107.401 259.22C104.858 258.871 102.282 258.833 99.7301 259.107L99.6417 259.117L99.8397 260.649C100.466 260.578 101.089 260.563 101.723 260.518L102.673 260.458C102.99 260.46 103.303 260.479 103.615 260.484L105.527 260.555L107.423 260.786ZM107.393 259.391C108.788 259.231 110.192 259.152 111.597 259.154C112.312 259.136 112.997 259.192 113.717 259.218C114.437 259.243 115.161 259.275 115.853 259.366L115.821 260.604L114.769 260.492L113.693 260.443L111.589 260.369C110.885 260.38 110.177 260.41 109.493 260.44L108.467 260.493C108.115 260.522 107.773 260.569 107.428 260.61L105.577 260.388L103.704 260.316L102.777 260.289L101.844 260.337L99.9917 260.456L99.8422 259.256C102.35 259.004 104.88 259.053 107.376 259.402L107.393 259.391Z" fill="white" fill-opacity="0.8" stroke="white" stroke-opacity="0.8" stroke-width="3.36516" stroke-miterlimit="10" stroke-linejoin="round"/>
<path d="M112.118 266.612C110.64 264.363 108.89 262.305 106.908 260.484C107.239 260.152 107.574 259.825 107.918 259.5C108.451 259.972 108.956 260.476 109.429 261.009C109.889 261.502 110.377 262.026 110.817 262.548C111.257 263.071 111.659 263.634 112.062 264.173L112.651 264.963L113.195 265.806L112.118 266.612Z" fill="white" fill-opacity="0.8" stroke="white" stroke-opacity="0.8" stroke-width="3.36516" stroke-miterlimit="10" stroke-linejoin="round"/>
<path d="M113.326 265.844L112.771 264.984C112.588 264.699 112.383 264.443 112.174 264.167C111.774 263.634 111.339 263.069 110.901 262.514C110.463 261.958 109.973 261.467 109.487 260.935C109.001 260.393 108.484 259.879 107.941 259.394C107.55 259.757 107.172 260.127 106.809 260.496C108.825 262.343 110.603 264.434 112.103 266.719C112.499 266.425 112.912 266.134 113.326 265.844ZM107.937 259.634C108.456 260.098 108.948 260.591 109.411 261.11C109.872 261.604 110.327 262.101 110.76 262.613C111.192 263.124 111.58 263.665 111.98 264.198C112.379 264.71 112.752 265.243 113.096 265.794L112.138 266.491C110.688 264.294 108.978 262.281 107.045 260.494L107.937 259.634Z" fill="white" fill-opacity="0.8" stroke="white" stroke-opacity="0.8" stroke-width="3.36516" stroke-miterlimit="10" stroke-linejoin="round"/>
<path d="M175.67 267.906L175.16 266.621C177.489 265.724 179.89 265.027 182.337 264.537C184.829 263.35 187.399 262.333 190.029 261.494L190.518 262.797C187.882 263.634 185.308 264.653 182.813 265.846C180.377 266.324 177.987 267.013 175.67 267.906Z" fill="white" fill-opacity="0.8" stroke="white" stroke-opacity="0.8" stroke-width="3.36516" stroke-miterlimit="10" stroke-linejoin="round"/>
<path d="M182.83 265.926C185.354 264.717 187.96 263.689 190.63 262.85L190.058 261.382C187.4 262.23 184.803 263.259 182.284 264.46C179.834 264.945 177.43 265.642 175.1 266.544L175.021 266.539L175.595 267.973C177.943 267.084 180.364 266.399 182.83 265.926ZM182.361 264.618C184.829 263.441 187.374 262.432 189.978 261.596L190.41 262.743C187.803 263.574 185.256 264.583 182.787 265.764C180.378 266.24 178.013 266.919 175.719 267.795L175.272 266.668C177.573 265.785 179.944 265.099 182.361 264.618Z" fill="white" fill-opacity="0.8" stroke="white" stroke-opacity="0.8" stroke-width="3.36516" stroke-miterlimit="10" stroke-linejoin="round"/>
<path d="M189.317 269.717C187.078 268.231 184.724 266.927 182.277 265.818L182.896 264.566C185.378 265.705 187.763 267.042 190.03 268.564L189.317 269.717Z" fill="white" fill-opacity="0.8" stroke="white" stroke-opacity="0.8" stroke-width="3.36516" stroke-miterlimit="10" stroke-linejoin="round"/>
<path d="M190.148 268.538C187.834 266.978 185.396 265.611 182.859 264.45L182.163 265.864C184.664 266.984 187.066 268.312 189.346 269.832L190.148 268.538ZM182.938 264.675C185.366 265.792 187.703 267.099 189.925 268.584L189.3 269.603C187.1 268.148 184.789 266.869 182.388 265.778L182.938 264.675Z" fill="white" fill-opacity="0.8" stroke="white" stroke-opacity="0.8" stroke-width="3.36516" stroke-miterlimit="10" stroke-linejoin="round"/>
<path d="M32.0278 258.928L31.5173 257.644C33.8463 256.746 36.2475 256.049 38.6948 255.559C41.187 254.372 43.7569 253.356 46.3865 252.516L46.8756 253.819C44.24 254.657 41.6656 255.675 39.1705 256.868C36.7345 257.346 34.3444 258.036 32.0278 258.928Z" fill="white" fill-opacity="0.8" stroke="white" stroke-opacity="0.8" stroke-width="3.36516" stroke-miterlimit="10" stroke-linejoin="round"/>
<path d="M39.1872 256.948C41.7112 255.74 44.3177 254.712 46.9873 253.872L46.4154 252.404C43.7574 253.253 41.1602 254.281 38.6419 255.482C36.1912 255.967 33.7875 256.664 31.4579 257.566L31.3782 257.561L31.9522 258.996C34.3005 258.106 36.7211 257.422 39.1872 256.948ZM38.7182 255.64C41.1866 254.463 43.7312 253.454 46.3351 252.619L46.7679 253.765C44.1605 254.596 41.6132 255.605 39.1443 256.786C36.7352 257.262 34.3709 257.941 32.0768 258.817L31.6297 257.69C33.9303 256.807 36.3015 256.122 38.7182 255.64Z" fill="white" fill-opacity="0.8" stroke="white" stroke-opacity="0.8" stroke-width="3.36516" stroke-miterlimit="10" stroke-linejoin="round"/>
<path d="M45.6749 260.739C43.4358 259.254 41.0815 257.95 38.634 256.84L39.2535 255.588C41.7353 256.727 44.121 258.064 46.3878 259.587L45.6749 260.739Z" fill="white" fill-opacity="0.8" stroke="white" stroke-opacity="0.8" stroke-width="3.36516" stroke-miterlimit="10" stroke-linejoin="round"/>
<path d="M46.5054 259.561C44.1919 258.001 41.7539 256.633 39.2166 255.472L38.5205 256.886C41.0211 258.006 43.4238 259.334 45.7035 260.854L46.5054 259.561ZM39.2955 255.697C41.7239 256.814 44.0603 258.121 46.2827 259.606L45.658 260.625C43.458 259.17 41.1466 257.891 38.7454 256.8L39.2955 255.697Z" fill="white" fill-opacity="0.8" stroke="white" stroke-opacity="0.8" stroke-width="3.36516" stroke-miterlimit="10" stroke-linejoin="round"/>
<path d="M249.048 268.233L248.803 266.884C249.956 266.68 251.126 266.501 252.295 266.309C253.463 266.117 254.652 266.043 255.834 265.91C258.36 264.995 260.937 264.226 263.551 263.609L263.923 264.951C262.572 265.243 261.251 265.62 259.957 266.007C258.663 266.393 257.377 266.846 256.141 267.273C254.948 267.361 253.758 267.542 252.576 267.675C251.394 267.808 250.218 268.048 249.048 268.233Z" fill="white" fill-opacity="0.8" stroke="white" stroke-opacity="0.8" stroke-width="3.36516" stroke-miterlimit="10" stroke-linejoin="round"/>
<path d="M256.155 267.352C257.444 266.919 258.726 266.433 260.023 266.073L262.011 265.501C262.66 265.321 263.359 265.175 264.042 265.011L263.632 263.506C260.989 264.129 258.384 264.903 255.829 265.824C254.641 265.958 253.459 266.091 252.29 266.223C251.122 266.355 249.951 266.587 248.797 266.791L248.711 266.801L248.996 268.32C250.171 268.12 251.358 267.92 252.555 267.744C253.753 267.569 254.943 267.448 256.155 267.352ZM255.848 265.989C258.352 265.088 260.905 264.326 263.494 263.709L263.821 264.889C261.213 265.499 258.645 266.267 256.13 267.187C254.944 267.281 253.773 267.453 252.604 267.585C251.436 267.717 250.272 267.955 249.116 268.139L248.902 266.946L252.349 266.39C253.511 266.259 254.678 266.108 255.848 265.989Z" fill="white" fill-opacity="0.8" stroke="white" stroke-opacity="0.8" stroke-width="3.36516" stroke-miterlimit="10" stroke-linejoin="round"/>
<path d="M262.142 271.744C261.132 270.915 260.072 270.172 258.987 269.378C257.901 268.585 256.814 267.905 255.628 267.17L256.36 266.01C258.65 267.419 260.85 268.969 262.948 270.65L262.142 271.744Z" fill="white" fill-opacity="0.8" stroke="white" stroke-opacity="0.8" stroke-width="3.36516" stroke-miterlimit="10" stroke-linejoin="round"/>
<path d="M263.063 270.639C262.016 269.774 260.93 268.98 259.81 268.184C258.691 267.388 257.525 266.656 256.336 265.901L255.514 267.204C256.695 267.954 257.841 268.687 258.944 269.459C260.048 270.23 261.127 271.024 262.158 271.871L263.063 270.639ZM256.388 266.123C258.629 267.505 260.784 269.024 262.839 270.671L262.132 271.633C261.137 270.816 260.099 270.091 259.034 269.308C257.97 268.526 256.865 267.861 255.74 267.139L256.388 266.123Z" fill="white" fill-opacity="0.8" stroke="white" stroke-opacity="0.8" stroke-width="3.36516" stroke-miterlimit="10" stroke-linejoin="round"/>
<path d="M210.308 258.446L209.831 257.158C210.824 256.735 211.877 256.396 212.873 256.021C213.87 255.645 214.912 255.379 215.99 255.068C217.031 254.409 218.104 253.872 219.204 253.23C220.304 252.588 221.42 252.1 222.562 251.534L223.146 252.803C221.987 253.334 220.863 253.935 219.755 254.497C218.648 255.058 217.575 255.689 216.527 256.354C214.417 256.937 212.341 257.636 210.308 258.446Z" fill="white" fill-opacity="0.8" stroke="white" stroke-opacity="0.8" stroke-width="3.36516" stroke-miterlimit="10" stroke-linejoin="round"/>
<path d="M216.547 256.482C217.607 255.838 218.698 255.228 219.81 254.6C220.922 253.972 222.076 253.414 223.248 252.896L222.633 251.479C221.477 252.071 220.345 252.591 219.235 253.179C218.126 253.767 217.042 254.37 215.994 255.035C214.948 255.355 213.892 255.62 212.876 255.995C211.86 256.369 210.835 256.683 209.836 257.098L209.768 257.127L210.301 258.573C212.344 257.764 214.429 257.066 216.547 256.482ZM216.043 255.199C217.071 254.545 218.117 253.999 219.223 253.371C220.328 252.743 221.425 252.26 222.553 251.693L223.041 252.81C221.895 253.342 220.778 253.93 219.684 254.486C218.59 255.042 217.531 255.68 216.497 256.326C214.421 256.894 212.377 257.574 210.375 258.365L209.961 257.226C211.94 256.434 213.959 255.75 216.011 255.176L216.043 255.199Z" fill="white" fill-opacity="0.8" stroke="white" stroke-opacity="0.8" stroke-width="3.36516" stroke-miterlimit="10" stroke-linejoin="round"/>
<path d="M222.619 259.834C220.488 258.554 218.283 257.399 216.016 256.376L216.479 255.074C217.656 255.615 218.798 256.181 219.908 256.745C221.017 257.308 222.114 257.951 223.172 258.585C222.985 259.012 222.799 259.42 222.619 259.834Z" fill="white" fill-opacity="0.8" stroke="white" stroke-opacity="0.8" stroke-width="3.36516" stroke-miterlimit="10" stroke-linejoin="round"/>
<path d="M223.262 258.584C222.186 257.923 221.079 257.326 219.934 256.7C218.788 256.074 217.631 255.541 216.434 254.992L215.917 256.423C218.228 257.463 220.476 258.638 222.649 259.943C222.851 259.483 223.04 259.029 223.262 258.584ZM216.52 255.204C217.665 255.736 218.788 256.294 219.871 256.843C220.955 257.392 222.032 258.033 223.085 258.646L222.603 259.72C220.509 258.472 218.348 257.34 216.129 256.33L216.52 255.204Z" fill="white" fill-opacity="0.8" stroke="white" stroke-opacity="0.8" stroke-width="3.36516" stroke-miterlimit="10" stroke-linejoin="round"/>
<path d="M66.6643 249.469L66.1875 248.18C67.1799 247.758 68.2335 247.419 69.2296 247.043C70.2257 246.668 71.2681 246.401 72.3466 246.091C73.3875 245.432 74.4605 244.894 75.5602 244.252C76.6599 243.61 77.7763 243.123 78.9177 242.557L79.5024 243.825C78.3432 244.357 77.2195 244.958 76.1116 245.519C75.0037 246.081 73.9314 246.712 72.8835 247.377C70.7737 247.96 68.6975 248.658 66.6643 249.469Z" fill="white" fill-opacity="0.8" stroke="white" stroke-opacity="0.8" stroke-width="3.36516" stroke-miterlimit="10" stroke-linejoin="round"/>
<path d="M72.902 247.505C73.9619 246.86 75.0528 246.251 76.1649 245.623C77.277 244.995 78.4313 244.436 79.6029 243.919L78.9879 242.501C77.8315 243.093 76.6996 243.613 75.5901 244.201C74.4805 244.789 73.3967 245.392 72.3488 246.058C71.303 246.377 70.2473 246.643 69.2313 247.017C68.2153 247.391 67.19 247.705 66.1913 248.121L66.1229 248.15L66.6562 249.595C68.699 248.787 70.7839 248.089 72.902 247.505ZM72.3982 246.221C73.4254 245.568 74.4723 245.022 75.5778 244.393C76.6832 243.765 77.7794 243.283 78.9076 242.716L79.3954 243.832C78.2495 244.365 77.1333 244.953 76.0391 245.508C74.9449 246.064 73.8855 246.702 72.8521 247.348C70.7756 247.916 68.7317 248.596 66.7295 249.387L66.3163 248.249C68.2945 247.456 70.3141 246.772 72.3663 246.199L72.3982 246.221Z" fill="white" fill-opacity="0.8" stroke="white" stroke-opacity="0.8" stroke-width="3.36516" stroke-miterlimit="10" stroke-linejoin="round"/>
<path d="M78.9757 250.857C76.8438 249.577 74.639 248.422 72.3725 247.398L72.8353 246.096C74.0125 246.638 75.1547 247.203 76.2638 247.767C77.3729 248.331 78.4704 248.974 79.5284 249.607C79.3412 250.035 79.1553 250.442 78.9757 250.857Z" fill="white" fill-opacity="0.8" stroke="white" stroke-opacity="0.8" stroke-width="3.36516" stroke-miterlimit="10" stroke-linejoin="round"/>
<path d="M79.6182 249.606C78.5419 248.945 77.4349 248.348 76.2898 247.723C75.1447 247.097 73.9871 246.563 72.7905 246.014L72.2729 247.446C74.5842 248.486 76.8323 249.661 79.0052 250.965C79.2077 250.506 79.3966 250.052 79.6182 249.606ZM72.8768 246.226C74.0212 246.759 75.144 247.317 76.2275 247.865C77.3109 248.414 78.3884 249.055 79.4411 249.669L78.9596 250.743C76.8655 249.494 74.7041 248.363 72.4852 247.353L72.8768 246.226Z" fill="white" fill-opacity="0.8" stroke="white" stroke-opacity="0.8" stroke-width="3.36516" stroke-miterlimit="10" stroke-linejoin="round"/>
<path d="M286.071 258.699L285.702 257.375C286.726 257.036 287.804 256.785 288.828 256.492C289.851 256.2 290.912 256.02 292.012 255.8C293.104 255.228 294.218 254.781 295.366 254.232C296.515 253.682 297.668 253.288 298.852 252.818L299.33 254.13C298.131 254.565 296.962 255.071 295.812 255.54C294.661 256.008 293.541 256.548 292.442 257.125C290.291 257.533 288.164 258.058 286.071 258.699Z" fill="white" fill-opacity="0.8" stroke="white" stroke-opacity="0.8" stroke-width="3.36516" stroke-miterlimit="10" stroke-linejoin="round"/>
<path d="M292.448 257.255C293.558 256.7 294.695 256.182 295.855 255.648C297.015 255.114 298.211 254.652 299.422 254.233L298.925 252.769C297.724 253.264 296.553 253.689 295.399 254.184C294.245 254.679 293.115 255.191 292.016 255.768C290.948 256 289.874 256.178 288.83 256.467C287.787 256.757 286.739 256.985 285.71 257.317L285.639 257.34L286.052 258.825C288.154 258.187 290.289 257.663 292.448 257.255ZM292.052 255.934C293.129 255.368 294.218 254.91 295.371 254.375C296.524 253.839 297.657 253.449 298.828 252.977L299.222 254.129C298.036 254.566 296.875 255.06 295.739 255.524C294.603 255.988 293.495 256.536 292.411 257.095C290.295 257.49 288.202 258 286.142 258.623L285.824 257.455C287.86 256.828 289.929 256.312 292.022 255.91L292.052 255.934Z" fill="white" fill-opacity="0.8" stroke="white" stroke-opacity="0.8" stroke-width="3.36516" stroke-miterlimit="10" stroke-linejoin="round"/>
<path d="M298.225 261.095C296.206 259.644 294.104 258.311 291.929 257.105L292.498 255.845C293.626 256.482 294.718 257.139 295.777 257.792C296.836 258.445 297.877 259.176 298.879 259.895C298.657 260.306 298.439 260.697 298.225 261.095Z" fill="white" fill-opacity="0.8" stroke="white" stroke-opacity="0.8" stroke-width="3.36516" stroke-miterlimit="10" stroke-linejoin="round"/>
<path d="M298.973 259.902C297.955 259.154 296.9 258.469 295.811 257.751C294.721 257.033 293.611 256.406 292.464 255.76L291.83 257.144C294.048 258.371 296.192 259.727 298.25 261.206C298.49 260.764 298.715 260.327 298.973 259.902ZM292.532 255.978C293.629 256.603 294.702 257.252 295.737 257.888C296.771 258.524 297.793 259.252 298.791 259.949L298.223 260.98C296.239 259.564 294.178 258.258 292.049 257.069L292.532 255.978Z" fill="white" fill-opacity="0.8" stroke="white" stroke-opacity="0.8" stroke-width="3.36516" stroke-miterlimit="10" stroke-linejoin="round"/>
<path d="M135.227 40.1678L134.933 38.8174C137.023 38.2986 139.143 37.9094 141.28 37.6521C143.555 36.6724 145.92 35.9162 148.342 35.3941L148.582 36.741C146.179 37.2445 143.832 37.9865 141.576 38.956C139.435 39.2213 137.315 39.6261 135.227 40.1678Z" fill="white" fill-opacity="0.8" stroke="white" stroke-opacity="0.8" stroke-width="3.36516" stroke-miterlimit="10" stroke-linejoin="round"/>
<path d="M141.58 39.0843C143.867 38.0952 146.249 37.3418 148.688 36.8359C148.608 36.3314 148.52 35.8264 148.426 35.3144C145.977 35.8362 143.584 36.5974 141.284 37.5872C139.144 37.8444 137.022 38.2334 134.93 38.7521L134.858 38.7474L135.194 40.2537C137.295 39.7273 139.429 39.3367 141.58 39.0843ZM141.287 37.734C143.54 36.7726 145.879 36.0304 148.273 35.5177L148.49 36.71C146.111 37.2177 143.789 37.9613 141.557 38.9297C139.442 39.1755 137.345 39.5573 135.279 40.0727L135.021 38.8911C137.091 38.3785 139.19 37.9925 141.307 37.7353L141.287 37.734Z" fill="white" fill-opacity="0.8" stroke="white" stroke-opacity="0.8" stroke-width="3.36516" stroke-miterlimit="10" stroke-linejoin="round"/>
<path d="M146.558 43.4691C144.937 41.7329 143.107 40.2046 141.109 38.9193L141.751 37.7353C143.777 39.0605 145.638 40.6234 147.292 42.3908C147.045 42.7212 146.801 43.0985 146.558 43.4691Z" fill="white" fill-opacity="0.8" stroke="white" stroke-opacity="0.8" stroke-width="3.36516" stroke-miterlimit="10" stroke-linejoin="round"/>
<path d="M147.386 42.3847C145.693 40.5691 143.783 38.9688 141.699 37.62L140.981 38.9457C143.02 40.253 144.886 41.8106 146.537 43.5821C146.837 43.1685 147.101 42.7793 147.386 42.3847ZM141.777 37.8514C143.757 39.1536 145.579 40.6823 147.205 42.4065C146.986 42.712 146.765 43.0441 146.552 43.3567C144.96 41.6557 143.166 40.1548 141.212 38.8872L141.777 37.8514Z" fill="white" fill-opacity="0.8" stroke="white" stroke-opacity="0.8" stroke-width="3.36516" stroke-miterlimit="10" stroke-linejoin="round"/>
<path d="M-0.36773 31.7043L-0.661057 30.354C1.42836 29.8352 3.54812 29.4459 5.68556 29.1886C7.96088 28.209 10.3258 27.4528 12.7474 26.9306L12.9876 28.2776C10.5844 28.7811 8.23738 29.5231 5.98153 30.4926C3.84097 30.7579 1.72007 31.1627 -0.36773 31.7043Z" fill="white" fill-opacity="0.8" stroke="white" stroke-opacity="0.8" stroke-width="3.36516" stroke-miterlimit="10" stroke-linejoin="round"/>
<path d="M5.9834 30.6204C8.27015 29.6312 10.6518 28.8778 13.0914 28.372C13.0105 27.8674 12.923 27.3625 12.8292 26.8505C10.3795 27.3722 7.98722 28.1335 5.68646 29.1233C3.54684 29.3804 1.42503 29.7694 -0.666626 30.2881L-0.739474 30.2835L-0.403133 31.7898C1.69843 31.2634 3.83167 30.8728 5.9834 30.6204ZM5.6904 29.2701C7.94252 28.3086 10.2819 27.5664 12.6764 27.0538L12.893 28.2461C10.514 28.7538 8.19169 29.4973 5.96014 30.4657C3.84499 30.7115 1.74766 31.0934 -0.318406 31.6088L-0.575715 30.4272C1.49413 29.9146 3.59334 29.5286 5.71015 29.2713L5.6904 29.2701Z" fill="white" fill-opacity="0.8" stroke="white" stroke-opacity="0.8" stroke-width="3.36516" stroke-miterlimit="10" stroke-linejoin="round"/>
<path d="M10.963 35.0059C9.34227 33.2697 7.51216 31.7415 5.51485 30.4562L6.15658 29.2722C8.18279 30.5974 10.0431 32.1603 11.6978 33.9277C11.4503 34.2581 11.2064 34.6353 10.963 35.0059Z" fill="white" fill-opacity="0.8" stroke="white" stroke-opacity="0.8" stroke-width="3.36516" stroke-miterlimit="10" stroke-linejoin="round"/>
<path d="M11.7891 33.9215C10.0961 32.1058 8.18592 30.5055 6.10174 29.1568L5.3843 30.4824C7.42263 31.7898 9.28911 33.3474 10.9401 35.1189C11.2395 34.7053 11.5042 34.3161 11.7891 33.9215ZM6.18024 29.3881C8.16041 30.6903 9.98187 32.219 11.6079 33.9432C11.3886 34.2488 11.1676 34.5808 10.9545 34.8934C9.36246 33.1924 7.56944 31.6916 5.61463 30.4239L6.18024 29.3881Z" fill="white" fill-opacity="0.8" stroke="white" stroke-opacity="0.8" stroke-width="3.36516" stroke-miterlimit="10" stroke-linejoin="round"/>
<path d="M98.9205 45.0774L98.7441 43.7127C101.291 43.442 103.862 43.4804 106.4 43.827C107.812 43.669 109.231 43.5901 110.652 43.591C111.371 43.5779 112.061 43.6309 112.785 43.6621C113.509 43.6934 114.248 43.7229 114.963 43.8388L114.923 45.2481C113.516 45.0646 112.036 45.0626 110.654 45.0048C109.947 45.0106 109.227 45.0475 108.534 45.0757L107.494 45.1299C107.147 45.156 106.766 45.2278 106.448 45.2506L104.58 45.0249L102.691 44.954L101.75 44.9286L100.811 44.9807C100.164 44.9948 99.5388 45.0186 98.9205 45.0774Z" fill="white" stroke="white" stroke-width="3.36516" stroke-miterlimit="10" stroke-linejoin="round"/>
<path d="M106.423 45.3078C106.774 45.2633 107.144 45.199 107.483 45.1857L108.523 45.1314C109.226 45.1052 109.957 45.061 110.672 45.0663C112.079 45.1153 113.566 45.1287 114.991 45.3162L115.043 43.7412C114.333 43.6456 113.58 43.6176 112.854 43.5716C112.129 43.5256 111.42 43.4928 110.691 43.5038C109.258 43.5005 107.826 43.5796 106.401 43.7409C103.858 43.3921 101.282 43.3544 98.7301 43.6284L98.6417 43.638L98.8397 45.1707C99.4655 45.0991 100.089 45.0846 100.723 45.039L101.673 44.9797C101.99 44.9808 102.303 45.0003 102.615 45.005L104.527 45.0763L106.423 45.3078ZM106.393 43.9123C107.788 43.7524 109.192 43.6733 110.597 43.6755C111.312 43.6569 111.997 43.7134 112.717 43.7391C113.437 43.7647 114.161 43.796 114.853 43.8876L114.821 45.1255L113.769 45.0138L112.693 44.9642L110.589 44.89C109.885 44.9014 109.177 44.9312 108.493 44.9614L107.467 45.0139C107.115 45.0436 106.773 45.0901 106.428 45.131L104.577 44.9094L102.704 44.8368L101.777 44.8099L100.844 44.8582L98.9917 44.9778L98.8422 43.7775C101.35 43.5256 103.88 43.5745 106.376 43.9231L106.393 43.9123Z" fill="white" stroke="white" stroke-width="3.36516" stroke-miterlimit="10" stroke-linejoin="round"/>
<path d="M111.118 51.1331C109.64 48.8839 107.89 46.8259 105.908 45.0054C106.239 44.6732 106.574 44.3464 106.918 44.0218C107.451 44.4937 107.956 44.9974 108.429 45.5301C108.889 46.0236 109.377 46.5471 109.817 47.0698C110.257 47.5925 110.659 48.1552 111.062 48.694L111.651 49.4843L112.195 50.3274L111.118 51.1331Z" fill="white" stroke="white" stroke-width="3.36516" stroke-miterlimit="10" stroke-linejoin="round"/>
<path d="M112.326 50.3651L111.771 49.5052C111.588 49.2204 111.383 48.9647 111.174 48.6888C110.774 48.1556 110.339 47.5907 109.901 47.0348C109.463 46.479 108.973 45.9887 108.487 45.456C108.001 44.9144 107.484 44.4001 106.941 43.9157C106.55 44.2784 106.172 44.6486 105.809 45.0172C107.825 46.8644 109.603 48.9549 111.103 51.2405C111.499 50.9461 111.912 50.6555 112.326 50.3651ZM106.937 44.1553C107.456 44.6195 107.948 45.1124 108.411 45.6317C108.872 46.1253 109.327 46.6224 109.76 47.134C110.192 47.6455 110.58 48.1859 110.98 48.719C111.379 49.2317 111.752 49.7646 112.096 50.3155L111.138 51.0123C109.688 48.8156 107.978 46.8021 106.045 45.0154L106.937 44.1553Z" fill="white" stroke="white" stroke-width="3.36516" stroke-miterlimit="10" stroke-linejoin="round"/>
<path d="M174.67 52.4269L174.16 51.1426C176.489 50.2455 178.89 49.5482 181.337 49.0584C183.829 47.8715 186.399 46.8547 189.029 46.015L189.518 47.318C186.882 48.1556 184.308 49.1744 181.813 50.3671C179.377 50.8454 176.987 51.5346 174.67 52.4269Z" fill="white" stroke="white" stroke-width="3.36516" stroke-miterlimit="10" stroke-linejoin="round"/>
<path d="M181.83 50.4475C184.354 49.2387 186.96 48.2107 189.63 47.3711L189.058 45.9031C186.4 46.7515 183.803 47.7799 181.284 48.9812C178.834 49.4659 176.43 50.1631 174.1 51.0649L174.021 51.0598L174.595 52.4947C176.943 51.6055 179.364 50.9205 181.83 50.4475ZM181.361 49.1392C183.829 47.9623 186.374 46.9529 188.978 46.1177L189.41 47.2639C186.803 48.0949 184.256 49.1043 181.787 50.2849C179.378 50.7608 177.013 51.4404 174.719 52.3162L174.272 51.1891C176.573 50.3063 178.944 49.6205 181.361 49.1392Z" fill="white" stroke="white" stroke-width="3.36516" stroke-miterlimit="10" stroke-linejoin="round"/>
<path d="M188.317 54.2384C186.078 52.7526 183.724 51.4486 181.277 50.3391L181.896 49.0871C184.378 50.2259 186.763 51.563 189.03 53.0855L188.317 54.2384Z" fill="white" stroke="white" stroke-width="3.36516" stroke-miterlimit="10" stroke-linejoin="round"/>
<path d="M189.148 53.0597C186.834 51.4996 184.396 50.1323 181.859 48.9714L181.163 50.3851C183.664 51.5056 186.066 52.8328 188.346 54.3532L189.148 53.0597ZM181.938 49.1962C184.366 50.313 186.703 51.6202 188.925 53.1053L188.3 54.124C186.1 52.6694 183.789 51.3906 181.388 50.2996L181.938 49.1962Z" fill="white" stroke="white" stroke-width="3.36516" stroke-miterlimit="10" stroke-linejoin="round"/>
<path d="M31.0278 43.4492L30.5173 42.1649C32.8463 41.2678 35.2475 40.5706 37.6948 40.0807C40.187 38.8938 42.7569 37.877 45.3865 37.0374L45.8756 38.3404C43.24 39.1779 40.6656 40.1967 38.1705 41.3895C35.7345 41.8677 33.3444 42.5569 31.0278 43.4492Z" fill="white" stroke="white" stroke-width="3.36516" stroke-miterlimit="10" stroke-linejoin="round"/>
<path d="M38.1872 41.4697C40.7112 40.261 43.3177 39.233 45.9873 38.3934L45.4154 36.9254C42.7574 37.7738 40.1602 38.8022 37.6419 40.0035C35.1912 40.4882 32.7875 41.1853 30.4579 42.0872L30.3782 42.0821L30.9522 43.517C33.3005 42.6278 35.7211 41.9428 38.1872 41.4697ZM37.7182 40.1615C40.1866 38.9846 42.7312 37.9752 45.3351 37.14L45.7679 38.2861C43.1605 39.1172 40.6132 40.1266 38.1443 41.3072C35.7352 41.7831 33.3709 42.4626 31.0768 43.3385L30.6297 42.2114C32.9303 41.3286 35.3015 40.6428 37.7182 40.1615Z" fill="white" stroke="white" stroke-width="3.36516" stroke-miterlimit="10" stroke-linejoin="round"/>
<path d="M44.6749 45.2607C42.4358 43.7749 40.0815 42.4709 37.634 41.3614L38.2535 40.1094C40.7353 41.2482 43.121 42.5853 45.3878 44.1078L44.6749 45.2607Z" fill="white" stroke="white" stroke-width="3.36516" stroke-miterlimit="10" stroke-linejoin="round"/>
<path d="M45.5054 44.0818C43.1919 42.5218 40.7539 41.1544 38.2166 39.9936L37.5205 41.4072C40.0211 42.5277 42.4238 43.855 44.7035 45.3754L45.5054 44.0818ZM38.2955 40.2183C40.7239 41.3352 43.0603 42.6423 45.2827 44.1275L44.658 45.1461C42.458 43.6915 40.1466 42.4128 37.7454 41.3217L38.2955 40.2183Z" fill="white" stroke="white" stroke-width="3.36516" stroke-miterlimit="10" stroke-linejoin="round"/>
<path d="M248.048 52.7546L247.803 51.4049C248.956 51.2012 250.126 51.0224 251.295 50.8305C252.463 50.6385 253.652 50.5646 254.834 50.4313C257.36 49.516 259.937 48.7475 262.551 48.1298L262.923 49.4719C261.572 49.7647 260.251 50.1412 258.957 50.5278C257.663 50.9145 256.377 51.3671 255.141 51.794C253.948 51.8818 252.758 52.0628 251.576 52.1961C250.394 52.3294 249.218 52.5693 248.048 52.7546Z" fill="white" stroke="white" stroke-width="3.36516" stroke-miterlimit="10" stroke-linejoin="round"/>
<path d="M255.155 51.8731C256.444 51.4402 257.726 50.9544 259.023 50.5942L261.011 50.0222C261.66 49.8421 262.359 49.6966 263.042 49.5326L262.632 48.0274C259.989 48.65 257.384 49.424 254.829 50.3453C253.641 50.4794 252.459 50.6127 251.29 50.7445C250.122 50.8763 248.951 51.1085 247.797 51.3122L247.711 51.3219L247.996 52.8409C249.171 52.6415 250.358 52.4409 251.555 52.2657C252.753 52.0906 253.943 51.9697 255.155 51.8731ZM254.848 50.5104C257.352 49.609 259.905 48.8478 262.494 48.2303L262.821 49.4103C260.213 50.0206 257.645 50.7882 255.13 51.7088C253.944 51.8024 252.773 51.9746 251.604 52.1064C250.436 52.2382 249.272 52.4763 248.116 52.6602L247.902 51.4676L251.349 50.9115C252.511 50.7805 253.678 50.629 254.848 50.5104Z" fill="white" stroke="white" stroke-width="3.36516" stroke-miterlimit="10" stroke-linejoin="round"/>
<path d="M261.142 56.2653C260.132 55.4364 259.072 54.6932 257.987 53.8996C256.901 53.106 255.814 52.4264 254.628 51.6909L255.36 50.5316C257.65 51.9407 259.85 53.4904 261.948 55.1714L261.142 56.2653Z" fill="white" stroke="white" stroke-width="3.36516" stroke-miterlimit="10" stroke-linejoin="round"/>
<path d="M262.063 55.1603C261.016 54.2955 259.93 53.5018 258.81 52.7053C257.691 51.9088 256.525 51.1778 255.336 50.4225L254.514 51.7256C255.695 52.475 256.841 53.2084 257.944 53.98C259.048 54.7515 260.127 55.5458 261.158 56.3923L262.063 55.1603ZM255.388 50.6442C257.629 52.0267 259.784 53.5453 261.839 55.1921L261.132 56.1547C260.137 55.3375 259.099 54.612 258.034 53.8294C256.97 53.0468 255.865 52.3822 254.74 51.6599L255.388 50.6442Z" fill="white" stroke="white" stroke-width="3.36516" stroke-miterlimit="10" stroke-linejoin="round"/>
<path d="M209.308 42.9676L208.831 41.679C209.824 41.2564 210.877 40.9177 211.873 40.542C212.87 40.1663 213.912 39.9001 214.99 39.5896C216.031 38.9304 217.104 38.393 218.204 37.7509C219.304 37.1089 220.42 36.6213 221.562 36.0551L222.146 37.324C220.987 37.8557 219.863 38.4564 218.755 39.018C217.648 39.5796 216.575 40.2102 215.527 40.8755C213.417 41.4586 211.341 42.1569 209.308 42.9676Z" fill="white" fill-opacity="0.8" stroke="white" stroke-opacity="0.8" stroke-width="3.36516" stroke-miterlimit="10" stroke-linejoin="round"/>
<path d="M215.547 41.0036C216.607 40.359 217.698 39.7496 218.81 39.1217C219.922 38.4937 221.076 37.9353 222.248 37.4177L221.633 36C220.477 36.5918 219.345 37.1118 218.235 37.7C217.126 38.2882 216.042 38.8913 214.994 39.5567C213.948 39.8759 212.892 40.1415 211.876 40.5159C210.86 40.8903 209.835 41.204 208.836 41.6195L208.768 41.6486L209.301 43.0943C211.344 42.2855 213.429 41.5875 215.547 41.0036ZM215.043 39.7198C216.071 39.0664 217.117 38.5207 218.223 37.8923C219.328 37.264 220.425 36.7816 221.553 36.2146L222.041 37.331C220.895 37.8635 219.778 38.4515 218.684 39.0073C217.59 39.5632 216.531 40.201 215.497 40.8473C213.421 41.4148 211.377 42.0952 209.375 42.8857L208.961 41.7475C210.94 40.9554 212.959 40.271 215.011 39.6976L215.043 39.7198Z" fill="white" fill-opacity="0.8" stroke="white" stroke-opacity="0.8" stroke-width="3.36516" stroke-miterlimit="10" stroke-linejoin="round"/>
<path d="M221.619 44.3557C219.488 43.0753 217.283 41.9205 215.016 40.8972L215.479 39.5952C216.656 40.1366 217.798 40.7021 218.908 41.2658C220.017 41.8294 221.114 42.4723 222.172 43.1059C221.985 43.5334 221.799 43.9411 221.619 44.3557Z" fill="white" fill-opacity="0.8" stroke="white" stroke-opacity="0.8" stroke-width="3.36516" stroke-miterlimit="10" stroke-linejoin="round"/>
<path d="M222.262 43.1054C221.186 42.444 220.079 41.8473 218.934 41.2215C217.788 40.5956 216.631 40.0621 215.434 39.5129L214.917 40.9447C217.228 41.9846 219.476 43.1597 221.649 44.4644C221.851 44.0046 222.04 43.5506 222.262 43.1054ZM215.52 39.7248C216.665 40.2575 217.788 40.8154 218.871 41.3641C219.955 41.9128 221.032 42.5542 222.085 43.1675L221.603 44.2417C219.509 42.9932 217.348 41.8616 215.129 40.8516L215.52 39.7248Z" fill="white" fill-opacity="0.8" stroke="white" stroke-opacity="0.8" stroke-width="3.36516" stroke-miterlimit="10" stroke-linejoin="round"/>
<path d="M65.6643 33.9903L65.1875 32.7017C66.1799 32.2791 67.2335 31.9404 68.2296 31.5647C69.2257 31.189 70.2681 30.9228 71.3466 30.6123C72.3875 29.9531 73.4605 29.4157 74.5602 28.7736C75.6599 28.1316 76.7763 27.644 77.9177 27.0778L78.5024 28.3467C77.3432 28.8784 76.2195 29.4791 75.1116 30.0407C74.0037 30.6023 72.9314 31.2329 71.8835 31.8982C69.7737 32.4813 67.6975 33.1796 65.6643 33.9903Z" fill="white" fill-opacity="0.8" stroke="white" stroke-opacity="0.8" stroke-width="3.36516" stroke-miterlimit="10" stroke-linejoin="round"/>
<path d="M71.902 32.026C72.9619 31.3814 74.0528 30.772 75.1649 30.1441C76.277 29.5161 77.4313 28.9577 78.6029 28.4401L77.9879 27.0224C76.8315 27.6142 75.6996 28.1342 74.5901 28.7224C73.4805 29.3106 72.3967 29.9137 71.3488 30.5791C70.303 30.8983 69.2473 31.1639 68.2313 31.5383C67.2153 31.9127 66.19 32.2264 65.1913 32.6419L65.1229 32.671L65.6562 34.1167C67.699 33.3079 69.7839 32.6099 71.902 32.026ZM71.3982 30.7422C72.4254 30.0888 73.4723 29.5431 74.5778 28.9147C75.6832 28.2864 76.7794 27.804 77.9076 27.237L78.3954 28.3534C77.2495 28.8859 76.1333 29.4739 75.0391 30.0297C73.9449 30.5856 72.8855 31.2234 71.8521 31.8697C69.7756 32.4372 67.7317 33.1176 65.7295 33.9081L65.3163 32.7699C67.2945 31.9778 69.3141 31.2934 71.3663 30.72L71.3982 30.7422Z" fill="white" fill-opacity="0.8" stroke="white" stroke-opacity="0.8" stroke-width="3.36516" stroke-miterlimit="10" stroke-linejoin="round"/>
<path d="M77.9757 35.3782C75.8438 34.0979 73.639 32.943 71.3725 31.9197L71.8353 30.6177C73.0125 31.1591 74.1547 31.7247 75.2638 32.2883C76.3729 32.8519 77.4704 33.4949 78.5284 34.1285C78.3412 34.5559 78.1553 34.9636 77.9757 35.3782Z" fill="white" fill-opacity="0.8" stroke="white" stroke-opacity="0.8" stroke-width="3.36516" stroke-miterlimit="10" stroke-linejoin="round"/>
<path d="M78.6182 34.1278C77.5419 33.4664 76.4349 32.8697 75.2898 32.2439C74.1447 31.618 72.9871 31.0845 71.7905 30.5353L71.2729 31.9671C73.5842 33.007 75.8323 34.1821 78.0052 35.4868C78.2077 35.027 78.3966 34.573 78.6182 34.1278ZM71.8768 30.7472C73.0212 31.2799 74.144 31.8378 75.2275 32.3865C76.3109 32.9352 77.3884 33.5766 78.4411 34.1899L77.9596 35.2641C75.8655 34.0156 73.7041 32.884 71.4852 31.874L71.8768 30.7472Z" fill="white" fill-opacity="0.8" stroke="white" stroke-opacity="0.8" stroke-width="3.36516" stroke-miterlimit="10" stroke-linejoin="round"/>
<path d="M285.071 43.2198L284.702 41.8963C285.726 41.5569 286.804 41.306 287.828 41.0135C288.851 40.7211 289.912 40.5416 291.012 40.3208C292.104 39.7496 293.218 39.3023 294.366 38.7529C295.515 38.2035 296.668 37.8094 297.852 37.3391L298.33 38.6518C297.131 39.0863 295.962 39.5925 294.812 40.061C293.661 40.5296 292.541 41.0698 291.442 41.6466C289.291 42.0541 287.164 42.5792 285.071 43.2198Z" fill="white" fill-opacity="0.8" stroke="white" stroke-opacity="0.8" stroke-width="3.36516" stroke-miterlimit="10" stroke-linejoin="round"/>
<path d="M291.448 41.7765C292.558 41.2213 293.695 40.7037 294.855 40.1694C296.015 39.6351 297.211 39.1736 298.422 38.7541L297.925 37.2906C296.724 37.7852 295.553 38.2104 294.399 38.7053C293.245 39.2001 292.115 39.7121 291.016 40.2889C289.948 40.5211 288.874 40.6988 287.83 40.9884C286.787 41.2779 285.739 41.5062 284.71 41.8381L284.639 41.8615L285.052 43.3461C287.154 42.7081 289.289 42.1841 291.448 41.7765ZM291.052 40.4556C292.129 39.8889 293.218 39.4312 294.371 38.8959C295.524 38.3606 296.657 37.9701 297.828 37.4979L298.222 38.6506C297.036 39.0871 295.875 39.5812 294.739 40.0451C293.603 40.509 292.495 41.0575 291.411 41.6166C289.295 42.0113 287.202 42.5212 285.142 43.1443L284.824 41.9759C286.86 41.3492 288.929 40.8334 291.022 40.4308L291.052 40.4556Z" fill="white" fill-opacity="0.8" stroke="white" stroke-opacity="0.8" stroke-width="3.36516" stroke-miterlimit="10" stroke-linejoin="round"/>
<path d="M297.225 45.6163C295.206 44.1649 293.104 42.8325 290.929 41.6262L291.498 40.3667C292.626 41.0031 293.718 41.6607 294.777 42.3137C295.836 42.9667 296.877 43.6977 297.879 44.4163C297.657 44.8269 297.439 45.2179 297.225 45.6163Z" fill="white" fill-opacity="0.8" stroke="white" stroke-opacity="0.8" stroke-width="3.36516" stroke-miterlimit="10" stroke-linejoin="round"/>
<path d="M297.973 44.4233C296.955 43.6756 295.9 42.9899 294.811 42.2719C293.721 41.5539 292.611 40.927 291.464 40.2812L290.83 41.6655C293.048 42.8921 295.192 44.2482 297.25 45.7273C297.49 45.2857 297.715 44.8488 297.973 44.4233ZM291.532 40.4995C292.629 41.1245 293.702 41.7729 294.737 42.4089C295.771 43.0449 296.793 43.7728 297.791 44.4707L297.223 45.5016C295.239 44.085 293.178 42.7794 291.049 41.5902L291.532 40.4995Z" fill="white" fill-opacity="0.8" stroke="white" stroke-opacity="0.8" stroke-width="3.36516" stroke-miterlimit="10" stroke-linejoin="round"/>
</g>
<defs>
<clipPath id="clip0_1_25">
<rect width="300" height="300" fill="white"/>
</clipPath>
</defs>
</svg>
