<svg width="300" height="300" viewBox="0 0 300 300" fill="none" xmlns="http://www.w3.org/2000/svg">
<rect width="300" height="300" fill="#FC565D"/>
<path d="M36.78 133.17C40.77 130.58 43.43 126.03 43.43 120.92C43.43 118.54 45.32 116.72 47.63 116.72C48.05 116.72 49.17 116.72 49.17 116.72V106.22C49.17 106.22 48.05 106.22 47.63 106.22C39.58 106.22 33 112.8 33 120.92C33 123.23 31.11 125.12 28.73 125.12V125.19L25.51 121.9V106.22H15.01V152H25.51V136.81L42.1 153.4L49.52 145.91L36.78 133.17ZM78.4491 105.94H67.9491L52.1291 149.48L61.9991 153.05L65.4291 143.67H81.0391L84.4691 153.05L94.2691 149.48L78.4491 105.94ZM69.2091 133.17L73.1991 122.18L77.1891 133.17H69.2091ZM119.973 133.17C123.963 130.58 126.623 126.03 126.623 120.92C126.623 118.54 128.513 116.72 130.823 116.72C131.243 116.72 132.363 116.72 132.363 116.72V106.22C132.363 106.22 131.243 106.22 130.823 106.22C122.773 106.22 116.193 112.8 116.193 120.92C116.193 123.23 114.303 125.12 111.923 125.12V125.19L108.703 121.9V106.22H98.2034V152H108.703V136.81L125.293 153.4L132.713 145.91L119.973 133.17ZM36.78 200.17C40.77 197.58 43.43 193.03 43.43 187.92C43.43 185.54 45.32 183.72 47.63 183.72C48.05 183.72 49.17 183.72 49.17 183.72V173.22C49.17 173.22 48.05 173.22 47.63 173.22C39.58 173.22 33 179.8 33 187.92C33 190.23 31.11 192.12 28.73 192.12V192.19L25.51 188.9V173.22H15.01V219H25.51V203.81L42.1 220.4L49.52 212.91L36.78 200.17ZM83.3311 172.1L72.8311 193.8L62.3311 172.1L52.8811 176.65L67.5811 206.96V219.28H78.0811V206.96L92.7111 176.65L83.3311 172.1ZM113.379 173.29C109.739 173.29 98.8186 173.29 98.8186 173.29V219.07H109.319V207.59C109.319 207.59 112.329 207.59 113.379 207.59C122.829 207.59 130.529 199.96 130.529 190.44C130.529 180.99 122.829 173.29 113.379 173.29ZM113.379 197.16C112.329 197.16 109.319 197.16 109.319 197.16V183.72C109.319 183.72 112.329 183.72 113.379 183.72C117.089 183.72 120.729 186.73 120.729 190.44C120.729 194.15 117.089 197.16 113.379 197.16ZM161.541 173.22L147.121 198.14V173.22H136.621V219H147.121L161.541 194.15V219H171.971V173.22H161.541ZM210.107 208.43V173.22H199.747V208.43H188.477V173.22H178.047V218.93H204.927V224.81H215.357V208.43H210.107ZM245.451 172.94H234.951L219.131 216.48L229.001 220.05L232.431 210.67H248.041L251.471 220.05L261.271 216.48L245.451 172.94ZM236.211 200.17L240.201 189.18L244.191 200.17H236.211ZM20.82 240.22C20.82 240.22 20.82 263.53 20.82 271.37C20.82 273.68 18.86 275.57 16.55 275.57C16.2 275.57 15.01 275.57 15.01 275.57V286C15.01 286 16.2 286 16.55 286C24.67 286 31.18 279.42 31.18 271.37C31.18 266.19 31.18 250.72 31.18 250.72H42.45V285.93H52.88V240.22H20.82ZM85.2851 239.94H74.7851L58.9651 283.48L68.8351 287.05L72.2651 277.67H87.8751L91.3051 287.05L101.105 283.48L85.2851 239.94ZM76.0451 267.17L80.0351 256.18L84.0251 267.17H76.0451ZM107.295 240.22V285.93H117.725V250.72H134.175V285.93H144.605V240.22H107.295ZM174.993 238.47C161.623 238.47 150.703 249.32 150.703 262.76C150.703 276.13 161.623 286.98 174.993 286.98C188.363 286.98 199.283 276.13 199.283 262.76C199.283 249.32 188.363 238.47 174.993 238.47ZM174.993 276.55C167.713 276.55 161.833 269.97 161.833 262.76C161.833 255.48 167.713 248.9 174.993 248.9C182.273 248.9 188.153 255.48 188.153 262.76C188.153 269.97 182.273 276.55 174.993 276.55ZM237.521 232.17L229.471 224.12C227.581 225.17 225.411 225.8 223.101 225.8C220.791 225.8 218.621 225.17 216.731 224.12L208.751 232.17C212.741 235.11 217.711 236.86 223.101 236.86C228.491 236.86 233.461 235.11 237.521 232.17ZM230.311 240.22L215.891 265.14V240.22H205.391V286H215.891L230.311 261.15V286H240.741V240.22H230.311Z" fill="#31CFF4"/>
<rect x="12" y="62" width="40" height="64" transform="rotate(-90 12 62)" fill="#FC565D" stroke="#050505" stroke-width="1.2"/>
<rect x="100" y="62" width="40" height="99.2" transform="rotate(-90 100 62)" fill="#FC565D" stroke="#050505" stroke-width="1.2"/>
<path d="M25.616 37.168C24.784 37.168 22.288 37.168 22.288 37.168V47.632H24.688V45.024C24.688 45.024 25.376 45.024 25.616 45.024C27.776 45.024 29.536 43.264 29.536 41.104C29.536 38.928 27.776 37.168 25.616 37.168ZM25.616 42.624C25.376 42.624 24.688 42.624 24.688 42.624V39.568C24.688 39.568 25.376 39.568 25.616 39.568C26.464 39.568 27.296 40.256 27.296 41.104C27.296 41.936 26.464 42.624 25.616 42.624ZM32.7946 37.04L29.1786 46.992L31.4346 47.808L32.2186 45.664H35.7866L36.5706 47.808L38.8106 46.992L35.1946 37.056L32.7946 37.04ZM33.0826 43.264L33.9946 40.752L34.9066 43.264H33.0826ZM38.7255 39.424H41.6375V47.632H44.0375V39.424H46.9495V37.168H38.7255V39.424ZM52.217 41.008C52.185 41.008 52.137 40.992 52.105 40.992C50.441 40.688 50.441 40.16 50.441 39.904C50.457 39.568 50.825 39.104 51.705 39.104C52.777 39.104 53.145 39.616 53.561 39.888C53.625 39.936 53.833 40.112 53.833 40.112L55.449 38.176C55.449 38.176 55.257 38.032 55.209 37.968C55.001 37.808 53.657 36.72 51.705 36.72C49.337 36.72 47.913 38.336 47.913 39.904C47.913 41.808 49.193 43.04 51.737 43.488C51.753 43.504 51.801 43.504 51.833 43.504C53.465 43.808 53.481 44.384 53.449 44.608C53.417 44.944 53.065 45.52 52.185 45.52C51.113 45.52 50.681 44.864 50.345 44.608L48.729 46.56C49.017 46.784 50.313 47.776 52.185 47.776C54.569 47.776 55.977 46.16 55.977 44.608C55.977 42.688 54.713 41.456 52.217 41.008ZM60.8167 41.76L58.4167 36.8L56.2567 37.856L59.6167 44.784V47.584H62.0167V44.784L65.3607 37.856L63.2167 36.8L60.8167 41.76Z" fill="#31CFF4"/>
<path d="M119.648 49.6H121.36V36.656H120.048V48.096L112.192 36.656H110.464V49.6H111.776V38.16L119.648 49.6ZM124.401 37.92H131.793V36.656H123.105V49.6H131.793V48.352H124.401V43.264L130.625 43.296V42.032H124.401V37.92ZM142.262 44.816C142.262 47.104 141.014 48.544 138.486 48.544C135.974 48.544 134.71 47.12 134.71 44.816V36.64H133.398V44.576C133.398 46.4 134.022 49.856 138.486 49.856C142.966 49.856 143.59 46.4 143.59 44.576V36.64H142.262V44.816ZM156.719 37.92V36.656H144.575V37.92H149.983V49.6H151.295V37.92H156.719ZM164.262 43.952H162.758L165.878 49.616H167.414L164.262 43.952ZM167.142 40.304C167.142 37.584 164.534 36.656 162.902 36.656L157.558 36.672V49.616H158.886V43.952H159.878H164.262C165.222 43.808 167.142 43.024 167.142 40.304ZM163.158 42.64H158.886V38H163.158C164.55 38 165.83 38.912 165.83 40.304C165.83 41.952 164.934 42.64 163.158 42.64ZM176.157 45.888L177.485 49.6H178.893L174.045 36.656H172.589L167.741 49.6H169.117L170.445 45.888H176.157ZM173.309 37.872L175.709 44.624H170.909L173.309 37.872ZM181.072 36.656H179.776V49.6H188.384V48.352H181.072V36.656Z" fill="white"/>
</svg>
