<svg width="300" height="300" fill="none" xmlns="http://www.w3.org/2000/svg"><g clip-path="url(#a)"><path fill="#FDB157" d="M0 0h300v300H0z"/><path d="m45.767 280.219 1.086.39-2.29 5.959-.868 6.935-1.169-.078.89-7.096 2.351-6.11Z" fill="#FC565D" stroke="#FC565D" stroke-width="2.7" stroke-miterlimit="10"/><path d="m44.634 286.581 2.285-5.946.03-.073-1.22-.434-2.377 6.18-.904 7.191 1.304.087.882-7.005Zm-1.147-.239 2.32-6.032.956.347-2.264 5.885-.869 6.883-1.025-.07.882-7.013Z" fill="#FC565D" stroke="#FC565D" stroke-width="2.7" stroke-miterlimit="10"/><path d="m37.708 290.04 5.983-4.101.6 1.015-5.983 4.097-.6-1.011Z" fill="#FC565D" stroke="#FC565D" stroke-width="2.7" stroke-miterlimit="10"/><path d="m43.703 285.821-6.082 4.197.67 1.137 6.082-4.184-.67-1.15Zm-5.908 4.223 5.856-4.014.526.868-5.856 4.014-.526-.868Z" fill="#FC565D" stroke="#FC565D" stroke-width="2.7" stroke-miterlimit="10"/><path d="m61.829 260.733 1.082.395-2.29 5.954-.869 6.939-1.164-.078.89-7.104 2.35-6.106Z" fill="#FFE600" stroke="#FFE600" stroke-width="2.7" stroke-miterlimit="10"/><path d="m60.69 267.095 2.285-5.941.03-.074-1.216-.434-2.376 6.176-.904 7.195 1.303.091.878-7.013Zm-1.143-.243 2.32-6.028.952.351-2.264 5.881-.869 6.887-1.025-.073.886-7.018Z" fill="#FFE600" stroke="#FFE600" stroke-width="2.7" stroke-miterlimit="10"/><path d="m53.778 270.532 5.974-4.079.595 1.015-5.97 4.08-.599-1.016Z" fill="#FFE600" stroke="#FFE600" stroke-width="2.7" stroke-miterlimit="10"/><path d="m59.779 266.349-6.083 4.161.67 1.142 6.082-4.162-.67-1.141Zm-5.9 4.2 5.848-3.997.525.894-5.852 3.997-.521-.894Z" fill="#FFE600" stroke="#FFE600" stroke-width="2.7" stroke-miterlimit="10"/><path d="m68.377 236.321 1.082.404-2.294 5.958-.878 6.957-1.164-.087.899-7.117 2.355-6.115Z" fill="#FC565D" stroke="#FC565D" stroke-width="2.7" stroke-miterlimit="10"/><path d="m67.229 242.696 2.294-5.95.026-.069-1.212-.434-2.38 6.18-.913 7.213 1.303.095.882-7.035Zm-1.138-.247 2.324-6.033.951.352-2.267 5.889-.87 6.901-1.025-.074.887-7.035Z" fill="#FC565D" stroke="#FC565D" stroke-width="2.7" stroke-miterlimit="10"/><path d="m60.325 246.12 5.97-4.07.595 1.02-5.97 4.075-.595-1.025Z" fill="#FC565D" stroke="#FC565D" stroke-width="2.7" stroke-miterlimit="10"/><path d="m66.322 241.945-6.083 4.154.665 1.145 6.083-4.153-.665-1.146Zm-5.896 4.197 5.844-3.993.521.903-5.843 3.988-.522-.898Z" fill="#FC565D" stroke="#FC565D" stroke-width="2.7" stroke-miterlimit="10"/><path d="m84.612 216.987 1.078.417-2.373 5.906-.942 6.922-1.165-.095.965-7.083 2.437-6.067Z" fill="#FFE600" stroke="#FFE600" stroke-width="2.7" stroke-miterlimit="10"/><path d="m83.386 223.328 2.368-5.898.03-.07-1.212-.464-2.463 6.136-.978 7.179 1.304.104.951-6.987Zm-1.142-.257 2.402-5.984.952.364-2.36 5.833-.938 6.866-1.025-.083.969-6.996Z" fill="#FFE600" stroke="#FFE600" stroke-width="2.7" stroke-miterlimit="10"/><path d="m76.436 226.687 6.022-4.015.582 1.024-6.017 4.01-.587-1.019Z" fill="#FFE600" stroke="#FFE600" stroke-width="2.7" stroke-miterlimit="10"/><path d="m82.484 222.568-6.143 4.097.656 1.146 6.138-4.097-.651-1.146Zm-5.952 4.136 5.9-3.932.512.903-5.895 3.927-.517-.898Z" fill="#FFE600" stroke="#FFE600" stroke-width="2.7" stroke-miterlimit="10"/><path d="m91.89 192.779 1.068.434a470.658 470.658 0 0 0-2.55 5.872c-.374 2.309-.748 4.613-1.1 6.918l-1.16-.113c.357-2.365.743-4.722 1.126-7.087l2.615-6.024Z" fill="#FC565D" stroke="#FC565D" stroke-width="2.7" stroke-miterlimit="10"/><path d="M90.478 199.111c.843-1.953 1.686-3.906 2.546-5.863l.03-.065-1.194-.499c-.9 2.031-1.773 4.066-2.65 6.102a643.93 643.93 0 0 0-1.143 7.178l1.303.126c.352-2.327.73-4.648 1.108-6.979Zm-1.134-.282 2.585-5.954.939.39c-.87 1.932-1.686 3.867-2.52 5.803-.37 2.291-.743 4.574-1.09 6.861l-1.022-.1c.348-2.335.73-4.661 1.108-7Z" fill="#FC565D" stroke="#FC565D" stroke-width="2.7" stroke-miterlimit="10"/><path d="m83.438 202.353 6.126-3.906.552 1.037c-2.034 1.302-4.084 2.604-6.113 3.906l-.565-1.037Z" fill="#FC565D" stroke="#FC565D" stroke-width="2.7" stroke-miterlimit="10"/><path d="m89.592 198.33-6.248 4.001.634 1.163a652.087 652.087 0 0 1 6.24-3.997l-.626-1.167Zm-6.057 4.045 6-3.841.487.916c-1.994 1.271-4.002 2.547-5.987 3.836l-.5-.911ZM110.884 161.801l1.034.513-2.603 5.298-1.212 6.41-1.134-.208 1.243-6.566 2.672-5.447Z" fill="#FC565D" stroke="#FC565D" stroke-width="2.7" stroke-miterlimit="10"/><path d="m109.384 167.634 2.607-5.295.031-.06-1.169-.577-2.707 5.511-1.26 6.64 1.269.234 1.229-6.453Zm-1.108-.364 2.642-5.378.908.434-2.572 5.239-1.208 6.375-.999-.182 1.229-6.488Z" fill="#FC565D" stroke="#FC565D" stroke-width="2.7" stroke-miterlimit="10"/><path d="m102.429 170.069 6.074-3.151.521 1.029-6.06 3.146-.535-1.024Z" fill="#FC565D" stroke="#FC565D" stroke-width="2.7" stroke-miterlimit="10"/><path d="m108.534 166.823-6.178 3.215.595 1.151 6.187-3.216-.604-1.15Zm-6.009 3.272 5.948-3.086.461.903-5.94 3.086-.469-.903Z" fill="#FC565D" stroke="#FC565D" stroke-width="2.7" stroke-miterlimit="10"/><path d="M128.454 145.345c.435.049.869.088 1.303.117l-2.068 3.567-1.368 2.604-1.373 6.319-1.125-.247 1.429-6.484 1.403-2.665 1.799-3.211Z" fill="#FFE600" stroke="#FFE600" stroke-width="2.7" stroke-miterlimit="10"/><path d="m126.398 151.646 1.368-2.604 2.081-3.589.048-.082c-.499-.035-.99-.074-1.481-.122l-1.812 3.229-1.421 2.691-1.451 6.57 1.26.278 1.408-6.371Zm-1.091-.404 1.386-2.603 1.799-3.19 1.151.113-2.02 3.472-1.351 2.56-1.386 6.28-.991-.217 1.412-6.415Z" fill="#FFE600" stroke="#FFE600" stroke-width="2.7" stroke-miterlimit="10"/><path d="m119.399 153.816 6.143-2.912.495 1.037-6.139 2.917-.499-1.042Z" fill="#FFE600" stroke="#FFE600" stroke-width="2.7" stroke-miterlimit="10"/><path d="M125.577 150.809a787.43 787.43 0 0 0-6.27 2.977l.556 1.163a908.71 908.71 0 0 1 6.265-2.973l-.551-1.167Zm-6.083 3.037 6.017-2.855.435.911-6.017 2.856-.435-.912ZM103.728 184.186l1.052.478a487.533 487.533 0 0 0-2.39 5.346c-.339 2.131-.647 4.271-.96 6.397l-1.138-.169c.317-2.17.638-4.37.982-6.557a582.977 582.977 0 0 1 2.454-5.495Z" fill="#FFE600" stroke="#FFE600" stroke-width="2.7" stroke-miterlimit="10"/><path d="M102.456 190.028a660.265 660.265 0 0 1 2.389-5.334l.026-.065-1.177-.534a535.862 535.862 0 0 0-2.485 5.555 580.315 580.315 0 0 0-.995 6.649l1.277.187c.313-2.144.626-4.306.965-6.458Zm-1.117-.33c.8-1.805 1.608-3.611 2.424-5.416l.926.434a511.66 511.66 0 0 0-2.364 5.281c-.334 2.118-.638 4.241-.955 6.35l-1-.148c.313-2.174.63-4.34.969-6.501Z" fill="#FFE600" stroke="#FFE600" stroke-width="2.7" stroke-miterlimit="10"/><path d="M95.617 192.662c1.985-1.115 3.944-2.231 5.934-3.32l.561 1.003c-1.976 1.093-3.95 2.2-5.922 3.32l-.573-1.003Z" fill="#FFE600" stroke="#FFE600" stroke-width="2.7" stroke-miterlimit="10"/><path d="M101.577 189.247c-2.028 1.111-4.031 2.252-6.052 3.389l.639 1.124a567.557 567.557 0 0 1 6.043-3.385l-.63-1.128Zm-5.865 3.441a1296.16 1296.16 0 0 1 5.809-3.25l.495.868a648.498 648.498 0 0 0-5.8 3.25l-.504-.868Z" fill="#FFE600" stroke="#FFE600" stroke-width="2.7" stroke-miterlimit="10"/><path d="m112.456 134.33.656-.946c.869.586 1.69 1.194 2.581 1.714.435.269.869.547 1.303.799l1.343.738c.539.147 1.095.256 1.638.369.543.112 1.077.234 1.625.312l1.616.252a48.75 48.75 0 0 1 1.781.273c-.136.331-.29.654-.46.968-.591-.074-1.134-.143-1.638-.182-.248 0-.509-.044-.704-.044l-.847-.139-.869-.147-.843-.178c-.565-.122-1.143-.234-1.707-.382-.935-.516-1.886-1.02-2.794-1.606-.434-.291-.93-.555-1.369-.868l-1.312-.933Z" fill="#FC565D" stroke="#FC565D" stroke-width="2.7" stroke-miterlimit="10"/><path d="m118.379 136.57-1.338-.738c-.435-.252-.869-.53-1.303-.794-.869-.521-1.738-1.124-2.577-1.71l-.061-.044-.751 1.077c.908.633 1.807 1.267 2.75 1.822.943.556 1.877 1.107 2.824 1.632.573.148 1.16.26 1.738.386l.869.178.868.148c.279.043.591.108.835.134.243.026.473.026.721.044.512.039 1.06.113 1.659.182a9.43 9.43 0 0 0 .522-1.081 45.316 45.316 0 0 0-1.816-.282l-1.634-.256c-.556-.082-1.09-.204-1.642-.312a24.914 24.914 0 0 1-1.664-.386Zm-.395 1.102c-.921-.508-1.855-1.007-2.75-1.584-.435-.287-.917-.547-1.356-.868l-1.303-.916.578-.833c.847.581 1.677 1.18 2.554 1.692.435.265.869.543 1.303.79l1.33.734c.534.143 1.082.251 1.625.364.543.113 1.069.23 1.616.313.547.082 1.086.178 1.599.251.512.074 1.125.152 1.738.261-.122.295-.257.586-.4.868a25.832 25.832 0 0 0-1.621-.187l-.708-.052-.834-.139a26.95 26.95 0 0 1-1.677-.321c-.556-.121-1.138-.213-1.681-.373h-.013Z" fill="#FC565D" stroke="#FC565D" stroke-width="2.7" stroke-miterlimit="10"/><path d="M119.813 142.862c.161-.239.281-.503.356-.781l.048-.035-.057-.095-.121-.195-.239-.391-.474-.777a36.953 36.953 0 0 1-.869-1.579l-.434-.786-.396-.803 1.065-.469c.26.521.534 1.033.817 1.554.282.521.573 1.046.868 1.549l.465.773v.495a2.202 2.202 0 0 1-.217.868 7.35 7.35 0 0 0-.812.672Z" fill="#FC565D" stroke="#FC565D" stroke-width="2.7" stroke-miterlimit="10"/><path d="m117.522 137.398.404.821.435.802c.291.534.586 1.081.899 1.615l.482.794.248.399.122.2.061.1s-.031.026-.044.035c-.081.283-.21.55-.382.789.285-.279.593-.534.921-.763.132-.272.209-.567.226-.868v-.248a.49.49 0 0 1 .021-.243l-.473-.785a29.456 29.456 0 0 1-.895-1.58c-.282-.538-.569-1.055-.834-1.588l-1.191.52Zm2.355 5.412c.152-.24.264-.504.33-.781l.048-.03c0-.022-.035-.061-.052-.092l-.117-.19-.235-.382-.461-.76c-.304-.508-.586-1.037-.868-1.549a27.116 27.116 0 0 1-.804-1.554l.934-.408c.256.508.53 1.011.804 1.523l.434.769.435.75.434.756.061.095c.022.035 0 .035 0 .056v.352a2.157 2.157 0 0 1-.217.807c-.256.19-.498.398-.726.621v.017Z" fill="#FC565D" stroke="#FC565D" stroke-width="2.7" stroke-miterlimit="10"/><path d="m104.563 112.08 1.056-.434a46.788 46.788 0 0 0 2.559 4.899c.373.382.764.69 1.142 1.012l1.121.928c.186.154.378.299.578.434l.595.434 1.165.799c-.248.295-.47.581-.7.868-.834-.53-1.625-1.129-2.472-1.736-.764-.647-1.555-1.302-2.355-2.036a48.498 48.498 0 0 1-2.689-5.168Z" fill="#FFE600" stroke="#FFE600" stroke-width="2.7" stroke-miterlimit="10"/><path d="M108.233 116.485a47.417 47.417 0 0 1-2.55-4.887l-.026-.061-1.187.512a48.9 48.9 0 0 0 2.725 5.208c.808.738 1.607 1.406 2.389 2.062l1.256.907c.434.286.799.594 1.251.868.256-.335.508-.66.778-.99-.761-.529-1.586-1.054-2.355-1.653l-1.13-.938c-.378-.334-.773-.646-1.151-1.028Zm-.926.703a49.94 49.94 0 0 1-2.658-5.074l.934-.403a48.013 48.013 0 0 0 2.533 4.856c.373.382.76.686 1.133 1.007l1.117.924.274.226.3.208.59.413 1.156.794c-.217.26-.434.521-.621.777-.813-.53-1.603-1.111-2.433-1.71-.76-.656-1.538-1.298-2.325-2.018Z" fill="#FFE600" stroke="#FFE600" stroke-width="2.7" stroke-miterlimit="10"/><path d="M106.77 123.511v-1.736a15.59 15.59 0 0 1 .056-1.688c.048-.56.096-1.111.148-1.654l.082-.807.109-.82 1.138.117a74.206 74.206 0 0 0-.347 3.207c-.096 1.111-.048 2.196-.022 3.337-.408.044-.778.044-1.164.044Z" fill="#FFE600" stroke="#FFE600" stroke-width="2.7" stroke-miterlimit="10"/><path d="m107.087 116.745-.109.842-.086.82a59.382 59.382 0 0 0-.148 1.693c-.022.282-.052.581-.057.868v2.63c.435 0 .869 0 1.304-.039-.044-1.159 0-2.309 0-3.403.095-1.133.217-2.209.352-3.268l-1.256-.143Zm-.248 6.692v-1.684c-.009-.55.01-1.101.057-1.649l.143-1.619c.057-.529.109-1.046.183-1.592l1.003.104a79.143 79.143 0 0 0-.339 3.146c-.095 1.089-.043 2.148-.026 3.277-.351.013-.686.017-1.021.017Z" fill="#FFE600" stroke="#FFE600" stroke-width="2.7" stroke-miterlimit="10"/><path d="m104.059 88.605.838.799a16.368 16.368 0 0 0-2.246 2.66 15.47 15.47 0 0 0-1.512 3.038 15.38 15.38 0 0 0 .813 6.683c-.365.118-.734.239-1.099.374a18.31 18.31 0 0 1-.817-3.416 14.603 14.603 0 0 1-.057-3.806 14.955 14.955 0 0 1 1.625-3.39 16.864 16.864 0 0 1 2.455-2.942Z" fill="#FC565D" stroke="#FC565D" stroke-width="2.7" stroke-miterlimit="10"/><path d="M101.204 95.133a15.729 15.729 0 0 1 1.508-3.038 16.725 16.725 0 0 1 2.233-2.643l.061-.052-.913-.903c-.946.899-1.785 1.904-2.502 2.994a15.348 15.348 0 0 0-1.66 3.446 14.872 14.872 0 0 0 .061 3.867c.171 1.181.451 2.343.839 3.472.408-.152.821-.291 1.229-.434a15.452 15.452 0 0 1-.856-6.71Zm-1.155-.17c.394-1.172.93-2.291 1.598-3.333a16.307 16.307 0 0 1 2.403-2.916l.739.699a16.258 16.258 0 0 0-2.22 2.651 15.45 15.45 0 0 0-1.499 3.038 15.541 15.541 0 0 0 .79 6.662l-.964.325a17.89 17.89 0 0 1-.795-3.372 14.737 14.737 0 0 1-.052-3.754Z" fill="#FC565D" stroke="#FC565D" stroke-width="2.7" stroke-miterlimit="10"/><path d="M95.082 100.944a24.518 24.518 0 0 1 2.299-3.533 18.234 18.234 0 0 1 2.876-2.908c.191.356.408.708.621 1.042a19.91 19.91 0 0 0-4.848 6.21c-.317-.26-.626-.534-.948-.811Z" fill="#FC565D" stroke="#FC565D" stroke-width="2.7" stroke-miterlimit="10"/><path d="M100.291 94.386a18.022 18.022 0 0 0-2.959 2.964 25.452 25.452 0 0 0-2.35 3.62c.356.312.708.616 1.064.907a19.936 19.936 0 0 1 4.927-6.32 14.134 14.134 0 0 1-.682-1.171Zm-5.114 6.532a25.027 25.027 0 0 1 2.25-3.45 18.707 18.707 0 0 1 2.799-2.852c.178.317.365.62.551.92a16.441 16.441 0 0 0-2.637 2.76 23.004 23.004 0 0 0-2.129 3.338 28.067 28.067 0 0 1-.834-.716ZM124.009 81.353l1.39.313c.297.5.531 1.035.695 1.593a2.756 2.756 0 0 1 0 1.736v.06c.11.66-.046 1.335-.434 1.88a3.214 3.214 0 0 1-.591.62c-.239.174-.509.33-.8.503a14.295 14.295 0 0 1-.869-1.12c.458-.294.836-.699 1.1-1.175.268-.538.33-1.156.173-1.736l.031-.091a2.19 2.19 0 0 0-.07-1.372 5.571 5.571 0 0 0-.625-1.21Z" fill="#FC565D" stroke="#FC565D" stroke-width="2.7" stroke-miterlimit="10"/><path d="M126.181 85.051a2.813 2.813 0 0 0 0-1.736 7.332 7.332 0 0 0-.695-1.61l-.021-.035a52.702 52.702 0 0 1-1.56-.343c.258.376.467.783.621 1.211.171.436.2.914.083 1.367l-.035.091a2.438 2.438 0 0 1-.161 1.736c-.265.482-.648.89-1.112 1.185.322.434.656.868.999 1.254.291-.173.561-.343.817-.503.235-.175.441-.384.613-.62a2.539 2.539 0 0 0 .46-1.897l-.009-.1Zm-1.438-.955.031-.082a2.168 2.168 0 0 0-.061-1.38 5.208 5.208 0 0 0-.604-1.233l1.225.282a6.68 6.68 0 0 1 .678 1.554c.183.55.183 1.146 0 1.697v.052a2.546 2.546 0 0 1-.404 1.862 3.24 3.24 0 0 1-.573.62 6.932 6.932 0 0 1-.778.504 22.84 22.84 0 0 1-.791-.985 3.307 3.307 0 0 0 1.095-1.168 2.443 2.443 0 0 0 .182-1.723Z" fill="#FC565D" stroke="#FC565D" stroke-width="2.7" stroke-miterlimit="10"/><path d="M120.365 80.885a7.736 7.736 0 0 0 1.694 1.736 6.877 6.877 0 0 0 2.585 1.276l.217.047c.139.144.27.291.396.434.204.23.408.473.59.708a7.82 7.82 0 0 1-2.984-1.337 9.563 9.563 0 0 1-1.99-1.849 14.945 14.945 0 0 0-.508-1.015Z" fill="#FC565D" stroke="#FC565D" stroke-width="2.7" stroke-miterlimit="10"/><path d="m124.852 83.901-.309-.065a6.93 6.93 0 0 1-2.567-1.302 7.512 7.512 0 0 1-1.669-1.736c.207.375.394.76.561 1.154a9.53 9.53 0 0 0 2.033 1.888 7.783 7.783 0 0 0 3.067 1.359c-.169-.222-.36-.434-.547-.664-.187-.23-.374-.43-.569-.634Zm-4.427-2.92a8.073 8.073 0 0 0 1.737 1.735 7.024 7.024 0 0 0 2.607 1.259l.126.026.23.251c.218.248.435.504.63.756a7.734 7.734 0 0 1-2.902-1.302 9.443 9.443 0 0 1-1.946-1.81c-.165-.304-.304-.608-.482-.916Z" fill="#FC565D" stroke="#FC565D" stroke-width="2.7" stroke-miterlimit="10"/><path d="m122.87 66.26 1.008-.556c.8 1.227 1.615 2.45 2.446 3.672l4.132 3.037-.826.755-4.248-3.12a271.928 271.928 0 0 1-2.512-3.788Z" fill="#FFE600" stroke="#FFE600" stroke-width="2.7" stroke-miterlimit="10"/><path d="M126.38 69.332a181.686 181.686 0 0 1-2.442-3.663l-.03-.043-1.134.625a203.691 203.691 0 0 0 2.55 3.832l4.292 3.168.926-.868-4.162-3.051Zm-.93.677a209.208 209.208 0 0 1-2.49-3.74l.869-.487a196.396 196.396 0 0 0 2.42 3.628l4.097 3.038-.725.664-4.171-3.103Z" fill="#FFE600" stroke="#FFE600" stroke-width="2.7" stroke-miterlimit="10"/><path d="M124.13 75.204c.382-1.831.773-3.663 1.186-5.477l1.086-.03c-.435 1.81-.8 3.636-1.182 5.472l-1.09.035Z" fill="#FFE600" stroke="#FFE600" stroke-width="2.7" stroke-miterlimit="10"/><path d="M125.264 69.67c-.435 1.854-.821 3.724-1.212 5.595l1.221-.044c.391-1.87.786-3.736 1.207-5.585l-1.216.035Zm-1.056 5.477c.374-1.796.756-3.589 1.16-5.368l.956-.026a303.758 303.758 0 0 0-1.16 5.36l-.956.034ZM116.071 89.66l.282 1.115a20.564 20.564 0 0 0-3.432 1.65 11.281 11.281 0 0 0-1.96 3.636c-.256-.26-.512-.52-.777-.772a12.465 12.465 0 0 1 2.172-3.854 21.674 21.674 0 0 1 3.715-1.775Z" fill="#FFE600" stroke="#FFE600" stroke-width="2.7" stroke-miterlimit="10"/><path d="M112.956 92.46c1.085-.651 2.229-1.2 3.415-1.641h.043l-.312-1.246a21.37 21.37 0 0 0-3.78 1.793 12.49 12.49 0 0 0-2.194 3.905c.287.278.586.569.869.868a11.219 11.219 0 0 1 1.959-3.68Zm-.569-.99a21.602 21.602 0 0 1 3.658-1.736l.252.98a20.295 20.295 0 0 0-3.402 1.637 11.393 11.393 0 0 0-1.968 3.62c-.221-.23-.434-.46-.682-.687a12.436 12.436 0 0 1 2.142-3.814Z" fill="#FFE600" stroke="#FFE600" stroke-width="2.7" stroke-miterlimit="10"/><path d="M107.369 90.142a18.54 18.54 0 0 1 5.274 1.228v1.067a17.782 17.782 0 0 0-5.075-1.223 11.012 11.012 0 0 1-.199-1.072Z" fill="#FFE600" stroke="#FFE600" stroke-width="2.7" stroke-miterlimit="10"/><path d="M112.696 91.326a18.562 18.562 0 0 0-5.391-1.232c.056.404.121.807.199 1.198 1.783.153 3.532.574 5.188 1.25-.005-.417-.005-.816.004-1.216Zm-5.257-1.115c1.768.152 3.505.559 5.157 1.207v.937a17.725 17.725 0 0 0-5-1.202 16.697 16.697 0 0 1-.157-.942Z" fill="#FFE600" stroke="#FFE600" stroke-width="2.7" stroke-miterlimit="10"/><path d="m112.482 50.953 1.13-.226c.379 1.56.885 3.087 1.512 4.566a47.571 47.571 0 0 0 3.645 3.758l-.904.664a47.665 47.665 0 0 1-3.779-3.906 31.66 31.66 0 0 1-1.604-4.856Z" fill="#FC565D" stroke="#FC565D" stroke-width="2.7" stroke-miterlimit="10"/><path d="M115.185 55.262a30.06 30.06 0 0 1-1.504-4.548v-.06l-1.268.251a31.654 31.654 0 0 0 1.607 4.904 49.204 49.204 0 0 0 3.828 3.98l1.017-.738a48.217 48.217 0 0 1-3.68-3.789Zm-1.039.495a32.468 32.468 0 0 1-1.585-4.774l.994-.2a30.063 30.063 0 0 0 1.504 4.518 47.742 47.742 0 0 0 3.614 3.741l-.795.578a48.785 48.785 0 0 1-3.732-3.863Z" fill="#FC565D" stroke="#FC565D" stroke-width="2.7" stroke-miterlimit="10"/><path d="M112.148 61.047c.561-1.91 1.182-3.797 1.916-5.615l1.082.208c-.725 1.788-1.342 3.65-1.898 5.533l-1.1-.126Z" fill="#FC565D" stroke="#FC565D" stroke-width="2.7" stroke-miterlimit="10"/><path d="M114.02 55.375a60.395 60.395 0 0 0-1.955 5.737l1.234.14c.565-1.923 1.195-3.824 1.933-5.643l-1.212-.234Zm-1.79 5.642c.552-1.866 1.16-3.715 1.877-5.499l.952.187c-.708 1.736-1.304 3.576-1.86 5.425l-.969-.113Z" fill="#FC565D" stroke="#FC565D" stroke-width="2.7" stroke-miterlimit="10"/><path d="m125.476 39.157.465 1.05a13.667 13.667 0 0 0-2.971 2.192 7.298 7.298 0 0 0-.522 1.918 3.788 3.788 0 0 0 .152 1.645c-.317-.17-.643-.33-.973-.477-.291-1.077-.061-2.517.569-3.928a15.048 15.048 0 0 1 3.28-2.4Z" fill="#FFE600" stroke="#FFE600" stroke-width="2.7" stroke-miterlimit="10"/><path d="M123.014 42.451a13.622 13.622 0 0 1 2.954-2.17l.039-.022-.512-1.18a15.277 15.277 0 0 0-3.341 2.43c-.643 1.437-.869 2.904-.574 3.989.361.165.734.342 1.091.533-.361-.941-.2-2.265.343-3.58Zm-.769-.846a15.037 15.037 0 0 1 3.219-2.361l.408.924a13.683 13.683 0 0 0-2.945 2.17 7.493 7.493 0 0 0-.526 1.91 3.82 3.82 0 0 0 .135 1.649c-.283-.148-.565-.29-.869-.434-.274-1.05-.039-2.465.578-3.858Z" fill="#FFE600" stroke="#FFE600" stroke-width="2.7" stroke-miterlimit="10"/><path d="M117.075 41.813a10.932 10.932 0 0 1 5.392-.352c.078.343.156.682.256 1.02a10.05 10.05 0 0 0-5.096.282c-.191-.303-.378-.62-.552-.95Z" fill="#FFE600" stroke="#FFE600" stroke-width="2.7" stroke-miterlimit="10"/><path d="M122.502 41.41a10.976 10.976 0 0 0-5.514.364c.196.369.4.725.622 1.063a9.945 9.945 0 0 1 5.165-.282c-.1-.382-.186-.76-.273-1.146Zm-5.34.433a10.93 10.93 0 0 1 5.266-.338c.069.304.143.599.23.898-.8-.15-1.615-.212-2.429-.182a8.984 8.984 0 0 0-2.58.46c-.17-.26-.33-.538-.487-.829v-.009Z" fill="#FFE600" stroke="#FFE600" stroke-width="2.7" stroke-miterlimit="10"/><path d="m143.555 36.28-.565 1.002a17.748 17.748 0 0 0-4.779-1.736c-1.782.18-3.52.665-5.135 1.437a38.462 38.462 0 0 0-.27-1.085 16.615 16.615 0 0 1 5.535-1.502 18.95 18.95 0 0 1 5.214 1.884Z" fill="#FC565D" stroke="#FC565D" stroke-width="2.7" stroke-miterlimit="10"/><path d="M138.202 35.598c1.66.346 3.261.931 4.753 1.736l.052.026.621-1.124a19.058 19.058 0 0 0-5.291-1.927 16.808 16.808 0 0 0-5.6 1.537c.108.408.208.807.304 1.215a15.547 15.547 0 0 1 5.161-1.463Zm.13-1.15c1.792.36 3.521.977 5.136 1.832l-.5.868a17.812 17.812 0 0 0-4.74-1.736 15.651 15.651 0 0 0-5.122 1.415 33 33 0 0 0-.235-.955 16.566 16.566 0 0 1 5.461-1.424Z" fill="#FC565D" stroke="#FC565D" stroke-width="2.7" stroke-miterlimit="10"/><path d="M133.81 30.1a22.485 22.485 0 0 1 2.659 2.083 17.49 17.49 0 0 1 2.224 2.391c-.29.252-.559.508-.808.768a20.427 20.427 0 0 0-4.71-4.27c.205-.343.417-.655.635-.972Z" fill="#FC565D" stroke="#FC565D" stroke-width="2.7" stroke-miterlimit="10"/><path d="M138.784 34.578A21.032 21.032 0 0 0 133.792 30c-.247.356-.482.707-.708 1.076a20.324 20.324 0 0 1 4.779 4.34c.298-.275.605-.554.921-.837Zm-4.957-4.374a22.733 22.733 0 0 1 2.607 2.04c.794.71 1.521 1.492 2.172 2.334-.243.222-.482.434-.708.673a18.796 18.796 0 0 0-2.09-2.248 23.264 23.264 0 0 0-2.515-1.97c.156-.282.343-.56.534-.829ZM155.89 59.62l-1.052 1.184c-.213-.703-.434-1.558-.825-2.547-.226-.209-.474-.434-.721-.72a3.445 3.445 0 0 1-.196-.24l-.204-.264c-.139-.174-.269-.347-.413-.517a31.57 31.57 0 0 0-1.738-1.93l.939-.613c.617.647 1.229 1.302 1.803 2.04.295.356.569.725.869 1.102.053.08.119.15.195.209l.183.147c.117.096.239.187.352.265l.808 1.884Z" fill="#FC565D" stroke="#FC565D" stroke-width="2.7" stroke-miterlimit="10"/><path d="M153.948 58.287c.373 1.003.617 1.87.829 2.604v.026l1.182-1.337c-.221-.464-.469-1.089-.821-1.857-.113-.078-.239-.165-.356-.26l-.183-.152-.091-.078-.108-.14c-.287-.381-.565-.755-.869-1.119a34.012 34.012 0 0 0-1.825-2.066l-1.056.686a28.665 28.665 0 0 1 1.738 1.944c.278.334.56.72.821 1.029.261.308.513.512.739.72Zm1.064-.525c.348.781.591 1.423.808 1.914l-.925 1.033c-.213-.686-.435-1.52-.817-2.483a9.823 9.823 0 0 1-.713-.703 2.603 2.603 0 0 1-.195-.234l-.2-.26-.408-.517a38.295 38.295 0 0 0-1.712-1.927l.825-.534a30.54 30.54 0 0 1 1.777 2.014c.291.352.561.716.843 1.09.052.073.115.14.187.195l.183.152c.111.092.227.18.347.26Z" fill="#FC565D" stroke="#FC565D" stroke-width="2.7" stroke-miterlimit="10"/><path d="M157.474 52.97c-.634 1.923-1.364 4.21-2.437 4.974a7.609 7.609 0 0 1-.982.035 7.93 7.93 0 0 1 .356-.5l.183-.225a.964.964 0 0 0 .165-.286c.2-.434.408-.907.595-1.367.387-.933.726-1.888 1.034-2.873l1.086.243Z" fill="#FC565D" stroke="#FC565D" stroke-width="2.7" stroke-miterlimit="10"/><path d="M155.064 57.979c.231-.307.486-.598.76-.868l.195-.17c.035 0 .057-.099.083-.147l.078-.178.304-.72c.396-.968.761-1.966 1.078-2.99l-1.23-.248a35.056 35.056 0 0 1-1.056 2.925c-.186.474-.399.942-.608 1.398a.962.962 0 0 1-.169.29l-.183.235c-.121.16-.243.334-.36.516.37.012.74-.002 1.108-.043Zm2.328-4.956c-.308.976-.66 1.931-1.034 2.856l-.295.694-.148.338a.22.22 0 0 1-.087.113l-.091.083c-.264.25-.508.52-.73.807a7.288 7.288 0 0 1-.869.043 8.3 8.3 0 0 1 .348-.481l.178-.217a.753.753 0 0 0 .161-.278c.199-.434.404-.868.586-1.346.374-.91.713-1.848 1.017-2.812l.964.2Z" fill="#FC565D" stroke="#FC565D" stroke-width="2.7" stroke-miterlimit="10"/><path d="M162.979 64.098c.213.321.435.638.656.95-.378.37-.764.721-1.151 1.129l-1.164 1.35-.6.694-.582.634-1.23 1.276a23.223 23.223 0 0 1-2.437 2.964 10.49 10.49 0 0 1-2.494 1.927v-1.137a9.42 9.42 0 0 0 2.464-2.075 24.34 24.34 0 0 0 2.272-3.038c.174-.173.361-.382.547-.586l.548-.603c.365-.403.708-.777 1.073-1.206l1.06-1.224a6.25 6.25 0 0 1 .526-.543l.512-.512Z" fill="#FFE600" stroke="#FFE600" stroke-width="2.7" stroke-miterlimit="10"/><path d="m158.926 70.209 1.212-1.276.595-.63.6-.698 1.173-1.367c.391-.408.777-.76 1.16-1.133l.052-.052c-.252-.347-.5-.703-.743-1.059-.343.343-.704.651-1.052 1.046l-1.06 1.22c-.369.433-.712.811-1.077 1.219l-.517.608c-.187.203-.374.412-.547.585a23.862 23.862 0 0 1-2.29 3.086 9.23 9.23 0 0 1-2.498 2.088v1.271a10.172 10.172 0 0 0 2.528-1.918 22.56 22.56 0 0 0 2.464-2.99Zm-.209-1.38c.17-.17.361-.382.543-.582l.543-.599c.365-.399.704-.768 1.069-1.198l1.056-1.22c.161-.191.336-.372.521-.541l.522-.504.573.838c-.369.373-.752.703-1.13 1.12l-1.147 1.336c-.195.221-.391.464-.586.677l-.582.616-1.195 1.25a23.724 23.724 0 0 1-2.407 2.951c-.714.76-1.537 1.411-2.442 1.931v-1.002a9.477 9.477 0 0 0 2.433-2.061 24.176 24.176 0 0 0 2.229-3.012Z" fill="#FFE600" stroke="#FFE600" stroke-width="2.7" stroke-miterlimit="10"/><path d="M156.298 66.737c.108.275.254.534.434.768.078.126.187.139.287.195l.317.165c.525.315 1.089.56 1.677.73-.148.585-.282 1.123-.434 1.692a7.896 7.896 0 0 1-1.738-.868 10.41 10.41 0 0 0-1.304-.694c.257-.669.517-1.333.761-1.988Z" fill="#FFE600" stroke="#FFE600" stroke-width="2.7" stroke-miterlimit="10"/><path d="M159.09 68.499a6.58 6.58 0 0 1-1.738-.73l-.321-.164-.157-.074a4.685 4.685 0 0 1-.13-.156 3.175 3.175 0 0 1-.434-.794c-.27.729-.569 1.488-.869 2.217.466.203.917.44 1.347.712a7.603 7.603 0 0 0 1.798.894c.183-.63.343-1.254.504-1.905Zm-2.824-1.606c.112.265.258.515.435.742.039.061.091.061.139.091l.147.074.313.16a7.545 7.545 0 0 0 1.638.73c-.126.503-.252.985-.395 1.484a7.912 7.912 0 0 1-1.699-.846c-.23-.135-.434-.26-.647-.37-.213-.108-.435-.181-.626-.316.261-.586.482-1.176.695-1.749ZM146.184 47.885l-.947.655a23.851 23.851 0 0 0-2.742-2.79 13.227 13.227 0 0 0-4.149-.79c.171-.322.336-.647.495-.977a14.55 14.55 0 0 1 4.41.92 25.468 25.468 0 0 1 2.933 2.982Z" fill="#FFE600" stroke="#FFE600" stroke-width="2.7" stroke-miterlimit="10"/><path d="M142.448 45.801a23.333 23.333 0 0 1 2.733 2.778l.03.039 1.06-.733a25.27 25.27 0 0 0-2.972-3.038 14.566 14.566 0 0 0-4.475-.93c-.178.37-.36.739-.551 1.099a13 13 0 0 1 4.175.785Zm.747-.842a24.702 24.702 0 0 1 2.885 2.943l-.83.577a23.44 23.44 0 0 0-2.72-2.764 13.204 13.204 0 0 0-4.127-.808c.152-.282.295-.568.434-.868 1.492.08 2.962.39 4.358.92Z" fill="#FFE600" stroke="#FFE600" stroke-width="2.7" stroke-miterlimit="10"/><path d="M142.898 39.752a19.87 19.87 0 0 1 .482 5.403c-.338.108-.677.217-1.008.334a18.93 18.93 0 0 0-.434-5.243c.308-.165.63-.33.96-.494Z" fill="#FFE600" stroke="#FFE600" stroke-width="2.7" stroke-miterlimit="10"/><path d="M143.442 45.194a20.055 20.055 0 0 0-.495-5.52c-.374.178-.735.36-1.091.55.396 1.752.543 3.55.435 5.343.391-.13.769-.256 1.151-.373Zm-.591-5.351c.396 1.732.556 3.51.474 5.286l-.891.29a18.912 18.912 0 0 0-.434-5.142c.278-.148.564-.295.851-.434Z" fill="#FFE600" stroke="#FFE600" stroke-width="2.7" stroke-miterlimit="10"/><path d="m178.246 53.518.134 1.137c-1.604.258-3.181.659-4.714 1.197a29.167 29.167 0 0 0-3.91 3.52l-.656-.903a30.135 30.135 0 0 1 4.123-3.675 26.994 26.994 0 0 1 5.023-1.276Z" fill="#FC565D" stroke="#FC565D" stroke-width="2.7" stroke-miterlimit="10"/><path d="M173.692 55.918a27.17 27.17 0 0 1 4.692-1.194h.057l-.148-1.302a27.726 27.726 0 0 0-5.096 1.302 30.753 30.753 0 0 0-4.184 3.728l.739 1.016a29.264 29.264 0 0 1 3.94-3.55Zm-.434-1.064a27.286 27.286 0 0 1 4.944-1.258l.117 1.002a26.916 26.916 0 0 0-4.675 1.211 29.66 29.66 0 0 0-3.91 3.472l-.573-.794a30.46 30.46 0 0 1 4.088-3.633h.009Z" fill="#FC565D" stroke="#FC565D" stroke-width="2.7" stroke-miterlimit="10"/><path d="M167.801 52.745a33.986 33.986 0 0 1 5.805 2.044l-.278 1.068a32.378 32.378 0 0 0-5.679-2l.152-1.112Z" fill="#FC565D" stroke="#FC565D" stroke-width="2.7" stroke-miterlimit="10"/><path d="M173.663 54.75a33.832 33.832 0 0 0-5.909-2.087c-.069.434-.134.833-.191 1.245a32.413 32.413 0 0 1 5.787 2.036c.096-.395.2-.794.313-1.194Zm-5.809-1.922a33.522 33.522 0 0 1 5.648 2l-.243.938a32.182 32.182 0 0 0-5.565-1.958l.16-.98Z" fill="#FC565D" stroke="#FC565D" stroke-width="2.7" stroke-miterlimit="10"/><path d="m190.893 66.893-.895.725a25.774 25.774 0 0 0-2.985-2.673 12.028 12.028 0 0 0-4.205-.513c.143-.334.278-.668.412-1.01 1.521-.051 3.038.163 4.484.633a26.443 26.443 0 0 1 3.189 2.838Z" fill="#FFE600" stroke="#FFE600" stroke-width="2.7" stroke-miterlimit="10"/><path d="M186.97 64.996c1.06.81 2.055 1.701 2.976 2.665l.035.035.999-.812a26.878 26.878 0 0 0-3.228-2.899 13.088 13.088 0 0 0-4.549-.62c-.148.382-.304.76-.465 1.128 1.43-.087 2.863.084 4.232.504Zm.695-.902c1.12.851 2.17 1.79 3.141 2.808l-.786.625a26.183 26.183 0 0 0-2.959-2.648 12.153 12.153 0 0 0-4.188-.525c.127-.29.249-.578.365-.868a13.086 13.086 0 0 1 4.427.608Z" fill="#FFE600" stroke="#FFE600" stroke-width="2.7" stroke-miterlimit="10"/><path d="M186.923 58.877c.577 1.752.893 3.578.938 5.42-.334.127-.669.261-.995.396a17.756 17.756 0 0 0-.869-5.243c.292-.195.609-.39.926-.573Z" fill="#FFE600" stroke="#FFE600" stroke-width="2.7" stroke-miterlimit="10"/><path d="M187.943 64.328a18.904 18.904 0 0 0-.965-5.538c-.36.205-.712.434-1.056.639.571 1.724.876 3.526.904 5.342.348-.152.721-.282 1.117-.443Zm-1.043-5.36c.559 1.713.868 3.498.917 5.3a22 22 0 0 0-.869.351 17.895 17.895 0 0 0-.869-5.151c.248-.187.526-.343.804-.5h.017Z" fill="#FFE600" stroke="#FFE600" stroke-width="2.7" stroke-miterlimit="10"/><path d="m202.635 80.802-1.086.378a56.484 56.484 0 0 0-1.937-4.236 49.515 49.515 0 0 0-3.91-3.472l.868-.724a51.619 51.619 0 0 1 4.032 3.64c.742 1.43 1.419 2.901 2.033 4.414Z" fill="#FC565D" stroke="#FC565D" stroke-width="2.7" stroke-miterlimit="10"/><path d="M199.551 76.979a54.623 54.623 0 0 1 1.933 4.223v.052l1.221-.434a53.037 53.037 0 0 0-2.046-4.479 51.439 51.439 0 0 0-4.088-3.693l-.965.811a47.769 47.769 0 0 1 3.945 3.52Zm.999-.569a57.412 57.412 0 0 1 1.999 4.34l-.956.335a55.676 55.676 0 0 0-1.916-4.188 48.009 48.009 0 0 0-3.862-3.472l.756-.638a51.425 51.425 0 0 1 3.971 3.623h.008Z" fill="#FC565D" stroke="#FC565D" stroke-width="2.7" stroke-miterlimit="10"/><path d="M202.181 70.999a50.353 50.353 0 0 1-1.521 5.728l-1.09-.126a49.73 49.73 0 0 0 1.503-5.641l1.108.039Z" fill="#FC565D" stroke="#FC565D" stroke-width="2.7" stroke-miterlimit="10"/><path d="M200.708 76.788a50.685 50.685 0 0 0 1.572-5.846l-1.238-.065a51.012 51.012 0 0 1-1.555 5.763l1.221.148Zm1.394-5.733a50.25 50.25 0 0 1-1.49 5.607l-.938-.108a50.635 50.635 0 0 0 1.477-5.551l.951.052ZM196.963 118.121l-1.06-.456a55.969 55.969 0 0 0 2.172-5.716c.087-1.111.079-2.235.092-3.324 0-.551-.031-1.102-.052-1.64l-.035-.812-.07-.807 1.152-.096c.198 2.285.224 4.582.078 6.87l-.495 1.519-.561 1.498c-.182.503-.387.998-.595 1.488-.209.491-.4.994-.626 1.476Z" fill="#FC565D" stroke="#FC565D" stroke-width="2.7" stroke-miterlimit="10"/><path d="M198.021 111.936a54.451 54.451 0 0 1-2.172 5.699l-.03.065 1.19.516c.23-.49.435-.998.639-1.493.204-.494.434-.998.604-1.506l.564-1.519.509-1.54a46.547 46.547 0 0 0-.074-6.966l-1.303.109.073.816.035.816c0 .546.044 1.098.052 1.653-.008 1.098 0 2.235-.087 3.35Zm1.152.191-.491 1.498-.552 1.479c-.178.495-.378.981-.582 1.467-.204.486-.4.977-.621 1.454l-.934-.399a55.262 55.262 0 0 0 2.172-5.642c.087-1.102.078-2.222.095-3.302 0-.547-.03-1.094-.047-1.632l-.035-.803-.065-.807 1.008-.083c.113 1.111.126 2.222.16 3.359 0 .569 0 1.133-.026 1.706s-.017 1.137-.082 1.705Z" fill="#FC565D" stroke="#FC565D" stroke-width="2.7" stroke-miterlimit="10"/><path d="M204.517 107.774a47.773 47.773 0 0 1-5.521 4.774l-.657-.963c.483-.343.93-.708 1.391-1.081.46-.373.929-.742 1.373-1.141.869-.794 1.811-1.61 2.654-2.496l.76.907Z" fill="#FC565D" stroke="#FC565D" stroke-width="2.7" stroke-miterlimit="10"/><path d="M198.973 112.631a47.94 47.94 0 0 0 5.648-4.856l-.869-1.033a46.22 46.22 0 0 1-5.522 4.813l.743 1.076Zm5.444-4.861c-.413.434-.869.868-1.303 1.263-.435.395-.869.82-1.334 1.202-.917.768-1.807 1.51-2.754 2.192l-.578-.868c.473-.334.912-.694 1.364-1.059.452-.365.912-.729 1.347-1.115.869-.782 1.777-1.58 2.606-2.448l.652.833Z" fill="#FC565D" stroke="#FC565D" stroke-width="2.7" stroke-miterlimit="10"/><path d="m176.438 133.562-2.033.121c1.008-.928 2.05-1.887 3.041-2.881a61.397 61.397 0 0 0 2.911-3.134c.191-.321.391-.655.586-.998l.296-.525a.865.865 0 0 0 .1-.213l.069-.182c.191-.477.365-.968.535-1.454.169-.486.343-.963.495-1.449.152-.486.321-.964.434-1.454l1.078.386a64.062 64.062 0 0 1-.986 3.012c-.183.499-.361 1.007-.557 1.506l-.147.373c-.05.151-.114.296-.191.434l-.5.951-1.282 1.493-1.303 1.41-1.303 1.337-1.243 1.267Z" fill="#FFE600" stroke="#FFE600" stroke-width="2.7" stroke-miterlimit="10"/><path d="M180.292 127.647a62.114 62.114 0 0 1-2.932 3.15c-.999 1.003-2.064 1.962-3.081 2.895l-.069.07 2.294-.148 1.303-1.302c.435-.434.869-.868 1.304-1.341l1.303-1.415 1.303-1.497.509-.959c.073-.14.135-.285.186-.434l.148-.382.561-1.523c.36-1.025.699-2.036.999-3.038l-1.204-.434c-.139.49-.299.972-.46 1.462-.161.491-.322.981-.495 1.463-.174.482-.348.985-.539 1.467l-.07.182a1.271 1.271 0 0 1-.104.217l-.304.534c-.256.369-.456.707-.652 1.033Zm1.234.373-1.273 1.48-1.281 1.389-1.304 1.332-1.303 1.276-1.777.1 1.499-1.389c.512-.473.977-.955 1.486-1.441a63.707 63.707 0 0 0 2.85-3.081c.186-.317.382-.647.573-.985l.291-.521a.713.713 0 0 0 .1-.208l.07-.178c.191-.478.36-.964.534-1.446.174-.481.339-.959.491-1.44.152-.482.317-.955.456-1.441l.943.338a59.696 59.696 0 0 1-.973 2.977c-.183.491-.356.994-.548 1.485l-.147.369-.074.186c-.031.07-.083.161-.122.239l-.491.959Z" fill="#FFE600" stroke="#FFE600" stroke-width="2.7" stroke-miterlimit="10"/><path d="M187.969 126.115a80.821 80.821 0 0 1-3.241 1.059 39.88 39.88 0 0 1-1.616.464 3.531 3.531 0 0 0-.434.161l-.491.195-1.047.434a9.197 9.197 0 0 1-.23-1.163l1.077-.491c.291-.095.543-.147.817-.225l1.594-.465a59.909 59.909 0 0 0 3.202-1.058l.369 1.089Z" fill="#FFE600" stroke="#FFE600" stroke-width="2.7" stroke-miterlimit="10"/><path d="M181.049 128.519a50.862 50.862 0 0 1 2.051-.816 44.19 44.19 0 0 0 1.651-.473 64.365 64.365 0 0 0 3.306-1.085l-.435-1.219a64.81 64.81 0 0 1-3.262 1.08l-1.63.473c-.278.078-.53.131-.829.23l-1.113.512c.058.438.145.872.261 1.298Zm6.834-2.456a69.498 69.498 0 0 1-3.176 1.037c-.521.161-1.051.312-1.581.434l-.196.052-.234.091-.478.191-1.026.434c-.082-.33-.143-.668-.199-1.028l1.051-.474c.278-.086.526-.143.795-.217l1.564-.433c.53-.152 1.043-.326 1.569-.495a41.624 41.624 0 0 0 1.572-.538l.339.946ZM198.309 94.66l-1.147.069-.148-1.345c-.043-.434-.086-.894-.173-1.337-.157-.868-.283-1.762-.491-2.63a43.631 43.631 0 0 0-3.22-4.965l.965-.603a46.822 46.822 0 0 1 3.358 5.208c.407 1.847.692 3.718.856 5.602Z" fill="#FFE600" stroke="#FFE600" stroke-width="2.7" stroke-miterlimit="10"/><path d="M196.286 89.439c.208.868.334 1.736.486 2.604.087.433.131.867.178 1.332l.144 1.34v.066l1.303-.078a43.891 43.891 0 0 0-.869-5.69 45.535 45.535 0 0 0-3.406-5.29l-1.077.677a43.434 43.434 0 0 1 3.241 5.039Zm1.099-.37c.411 1.823.701 3.67.869 5.53l-1.008.065a44.125 44.125 0 0 0-.808-5.264 43.898 43.898 0 0 0-3.211-4.948l.847-.53a45.958 45.958 0 0 1 3.311 5.148Z" fill="#FFE600" stroke="#FFE600" stroke-width="2.7" stroke-miterlimit="10"/><path d="M199.957 83.29a43.307 43.307 0 0 1-2.537 6.166c-.348-.152-.687-.3-1.039-.434a43.21 43.21 0 0 0 2.473-6.076l1.103.343Z" fill="#FFE600" stroke="#FFE600" stroke-width="2.7" stroke-miterlimit="10"/><path d="M197.453 89.543a43.054 43.054 0 0 0 2.607-6.297l-1.255-.4a43.167 43.167 0 0 1-2.52 6.202c.395.178.782.321 1.168.495Zm2.416-6.21a43.29 43.29 0 0 1-2.481 6.036l-.917-.386a43.467 43.467 0 0 0 2.429-5.963l.969.313Z" fill="#FFE600" stroke="#FFE600" stroke-width="2.7" stroke-miterlimit="10"/><path d="m193.218 138.783-.369 1.093c-.482-.164-.96-.329-1.464-.49-.504-.161-.982-.295-1.477-.434a66.984 66.984 0 0 0-1.469-.395l-.73-.186-.582-.122c-.478.039-.925.1-1.446.13a72.96 72.96 0 0 1-1.673.083c-.6.021-1.247.03-1.938.03l-2.276.03c.173-.147.352-.295.538-.434l.496-.399c2.924-.035 5.092-.186 6.595-.521a27.06 27.06 0 0 1 2.693.664c.509.139 1.013.296 1.521.434.508.139 1.086.339 1.581.517Z" fill="#FC565D" stroke="#FC565D" stroke-width="2.7" stroke-miterlimit="10"/><path d="m187.109 138.314.591.122.73.186c.49.122.973.265 1.464.395s.951.274 1.472.434c.522.161.978.321 1.46.486l.07.026.434-1.224-1.581-.533c-.517-.152-1.026-.309-1.543-.434a26.185 26.185 0 0 0-2.737-.669c-1.503.343-3.688.504-6.651.543-.196.147-.374.291-.565.434-.191.143-.413.334-.604.499l4.301-.057c.617-.021 1.182-.039 1.712-.078s.978-.095 1.447-.13Zm.291-1.094c.906.17 1.802.388 2.685.656.504.134.999.291 1.499.434.499.143 1.042.338 1.542.512l-.321.963a60.716 60.716 0 0 0-1.46-.49l-1.456-.434c-.482-.13-.964-.269-1.451-.391l-.725-.186-.565-.117c-.469.039-.904.104-1.416.134-.513.03-1.056.065-1.647.087-1.19.039-2.507.035-4.123.065.148-.13.308-.265.465-.391l.434-.351a35.72 35.72 0 0 0 6.539-.491Z" fill="#FC565D" stroke="#FC565D" stroke-width="2.7" stroke-miterlimit="10"/><path d="M188.49 133.974a2.484 2.484 0 0 0-1.125 1.424 2.266 2.266 0 0 0-.048.868c.023.165.058.329.104.49.067.189.15.372.248.547a12.05 12.05 0 0 1-.838.751c-.8-1.493-.696-2.604.343-3.472.465-.178.904-.391 1.316-.608Z" fill="#FC565D" stroke="#FC565D" stroke-width="2.7" stroke-miterlimit="10"/><path d="M187.739 137.312a4.515 4.515 0 0 1-.261-.56 3.15 3.15 0 0 1-.109-.499 2.33 2.33 0 0 1 .052-.903 2.533 2.533 0 0 1 1.182-1.436c-.46.243-.956.477-1.486.703-1.064.868-1.16 2.005-.313 3.541.329-.263.641-.546.935-.846Zm.638-3.273a2.428 2.428 0 0 0-1.073 1.402 2.19 2.19 0 0 0-.039.868c.044.355.156.699.33 1.011-.23.226-.478.434-.738.66-.752-1.45-.639-2.548.369-3.381.404-.182.786-.369 1.151-.56Z" fill="#FC565D" stroke="#FC565D" stroke-width="2.7" stroke-miterlimit="10"/><path d="m209.231 155.934-.73.894c-.36-.278-.699-.582-1.077-.829l-1.1-.764c-.351-.252-.777-.495-1.16-.746a20.034 20.034 0 0 0-1.19-.725c-1.994-.547-4.014-.972-6.021-1.328l.251-1.115c2.082.364 4.167.816 6.244 1.384.869.486 1.655 1.02 2.476 1.541.821.52 1.577 1.067 2.307 1.688Z" fill="#FFE600" stroke="#FFE600" stroke-width="2.7" stroke-miterlimit="10"/><path d="M203.952 153.825c.409.23.795.481 1.186.729.391.247.813.49 1.16.742l1.095.759c.374.248.713.552 1.073.825l.052.039.817-.998c-.747-.629-1.56-1.163-2.337-1.714-.778-.551-1.651-1.072-2.507-1.558a65.363 65.363 0 0 0-6.33-1.406l-.278 1.249c2.02.356 4.058.782 6.069 1.333Zm.478-1.055c.834.478 1.629 1.003 2.437 1.519a21.07 21.07 0 0 1 2.277 1.658l-.639.785c-.695-.581-1.438-1.067-2.172-1.571-.352-.251-.769-.49-1.151-.737a24.167 24.167 0 0 0-1.178-.721c-1.976-.547-3.988-.968-5.973-1.323l.217-.977c2.072.356 4.132.803 6.204 1.367h-.022Z" fill="#FFE600" stroke="#FFE600" stroke-width="2.7" stroke-miterlimit="10"/><path d="M202.023 146.846a64.408 64.408 0 0 1 2.724 6.176l-1.051.434a61.849 61.849 0 0 0-2.72-6.076l1.047-.534Z" fill="#FFE600" stroke="#FFE600" stroke-width="2.7" stroke-miterlimit="10"/><path d="M204.835 153.048a64.303 64.303 0 0 0-2.781-6.297l-1.16.577a62.016 62.016 0 0 1 2.763 6.223l1.178-.503Zm-2.842-6.102a64.974 64.974 0 0 1 2.668 6.041l-.925.391a62.131 62.131 0 0 0-2.655-5.998l.912-.434Z" fill="#FFE600" stroke="#FFE600" stroke-width="2.7" stroke-miterlimit="10"/><path d="m226.075 172.221-.981.608c-1.052-1.706-2.129-3.398-3.272-5.039l-1.26-1.072-1.303-1.037c-.839-.69-1.738-1.332-2.607-1.974l.682-.938c1.795 1.324 3.597 2.73 5.314 4.232l.869 1.302.868 1.301c.604.851 1.139 1.736 1.69 2.617Z" fill="#FC565D" stroke="#FC565D" stroke-width="2.7" stroke-miterlimit="10"/><path d="M221.769 167.834a103.76 103.76 0 0 1 3.262 5.034l.04.061 1.103-.682c-.556-.894-1.095-1.788-1.681-2.669l-.869-1.302-.895-1.302a79.082 79.082 0 0 0-5.387-4.287l-.761 1.05c.869.647 1.769 1.302 2.607 1.988l1.303 1.046 1.278 1.063Zm.869-.786.869 1.268.838 1.301c.569.868 1.099 1.736 1.638 2.604l-.869.534a103.59 103.59 0 0 0-3.237-4.986l-1.247-1.064-1.277-1.028c-.834-.686-1.738-1.324-2.572-1.962l.6-.824a74.139 74.139 0 0 1 5.244 4.157h.013Z" fill="#FC565D" stroke="#FC565D" stroke-width="2.7" stroke-miterlimit="10"/><path d="M222.7 160.335a55.6 55.6 0 0 1 .139 3.58v1.762l-.04 1.736-1.16-.061a74.934 74.934 0 0 0-.121-7.035l1.182.018Z" fill="#FC565D" stroke="#FC565D" stroke-width="2.7" stroke-miterlimit="10"/><path d="m222.9 167.5.039-1.784v-1.797c0-1.211-.065-2.421-.144-3.658h-1.303c.152 2.447.204 4.826.126 7.178l1.282.061Zm-.248-7.1a60.23 60.23 0 0 1 .135 3.506v1.736l-.039 1.714-1.017-.052a75.03 75.03 0 0 0-.122-6.896l1.043-.008ZM237.536 205.577l-1.077.434c-.7-1.77-1.408-3.528-2.142-5.281a238.967 238.967 0 0 0-3.949-4.917l.908-.703a243.127 243.127 0 0 1 4.053 5.051 252.01 252.01 0 0 1 2.207 5.416Z" fill="#FC565D" stroke="#FC565D" stroke-width="2.7" stroke-miterlimit="10"/><path d="M234.256 200.76c.73 1.736 1.438 3.507 2.138 5.269l.026.065 1.203-.464a302.3 302.3 0 0 0-2.229-5.499 230.357 230.357 0 0 0-4.105-5.121l-1.017.79a190.144 190.144 0 0 1 3.984 4.96Zm1.012-.568a263.43 263.43 0 0 1 2.173 5.36l-.947.364a366.773 366.773 0 0 0-2.116-5.208 446.206 446.206 0 0 0-3.91-4.882l.795-.621a201.698 201.698 0 0 1 4.005 4.974v.013Z" fill="#FC565D" stroke="#FC565D" stroke-width="2.7" stroke-miterlimit="10"/><path d="M237.075 194.103c-.534 2.17-1.107 4.34-1.698 6.462l-1.112-.273a222.265 222.265 0 0 0 1.69-6.449l1.12.26Z" fill="#FC565D" stroke="#FC565D" stroke-width="2.7" stroke-miterlimit="10"/><path d="M235.43 200.647a258.84 258.84 0 0 0 1.738-6.596l-1.256-.291a179.913 179.913 0 0 1-1.737 6.579l1.255.308Zm1.56-6.509a219.663 219.663 0 0 1-1.66 6.332l-.977-.239a223.664 223.664 0 0 0 1.655-6.319l.982.226Z" fill="#FC565D" stroke="#FC565D" stroke-width="2.7" stroke-miterlimit="10"/><path d="m237.276 228.101-1.091.369-1.868-5.329a631.518 631.518 0 0 0-3.61-5.104l.956-.633a559.96 559.96 0 0 1 3.697 5.229l1.916 5.468Z" fill="#FFE600" stroke="#FFE600" stroke-width="2.7" stroke-miterlimit="10"/><path d="m234.252 223.189 1.868 5.32.022.061 1.221-.412-1.938-5.529a430.638 430.638 0 0 0-3.745-5.299l-1.069.712a441.513 441.513 0 0 1 3.641 5.147Zm1.047-.508 1.89 5.42-.96.322-1.846-5.265a414.65 414.65 0 0 0-3.58-5.064l.842-.556a349.624 349.624 0 0 1 3.654 5.143Z" fill="#FFE600" stroke="#FFE600" stroke-width="2.7" stroke-miterlimit="10"/><path d="M237.515 216.818a661.585 661.585 0 0 1-2.128 6.24l-1.095-.329a618.31 618.31 0 0 0 2.129-6.232l1.094.321Z" fill="#FFE600" stroke="#FFE600" stroke-width="2.7" stroke-miterlimit="10"/><path d="M235.429 223.154a635.78 635.78 0 0 0 2.172-6.367l-1.23-.364a449.18 449.18 0 0 1-2.172 6.362l1.23.369Zm1.998-6.28a645.491 645.491 0 0 1-2.085 6.115l-.965-.291a606.67 606.67 0 0 0 2.086-6.106l.964.282ZM225.55 186.374l-1.034.499c-.435-.825-.839-1.645-1.278-2.461-.438-.816-.869-1.623-1.303-2.426-.712-.733-1.447-1.445-2.172-2.148a109.788 109.788 0 0 0-2.212-2.07l.817-.794a125.04 125.04 0 0 1 4.527 4.339c.456.829.921 1.663 1.36 2.509.439.846.869 1.697 1.295 2.552Z" fill="#FFE600" stroke="#FFE600" stroke-width="2.7" stroke-miterlimit="10"/><path d="M221.867 182.034c.446.798.88 1.606 1.303 2.421a87.94 87.94 0 0 1 1.277 2.457l.031.061 1.16-.573a88.849 88.849 0 0 0-1.339-2.569c-.434-.868-.908-1.697-1.372-2.535a121.726 121.726 0 0 0-4.584-4.405l-.921.89c.747.685 1.503 1.371 2.233 2.087.73.716 1.49 1.428 2.212 2.166Zm.951-.668c.434.82.908 1.64 1.338 2.473.43.833.869 1.662 1.303 2.509l-.908.434c-.434-.821-.834-1.628-1.264-2.435-.43-.807-.869-1.606-1.303-2.4a92.78 92.78 0 0 0-2.172-2.131c-.735-.699-1.46-1.384-2.173-2.057l.721-.699a141.372 141.372 0 0 1 4.458 4.306Z" fill="#FFE600" stroke="#FFE600" stroke-width="2.7" stroke-miterlimit="10"/><path d="M223.964 175.251a105.51 105.51 0 0 1-.46 3.259c-.174 1.089-.344 2.17-.543 3.22l-1.126-.139c.383-2.122.717-4.266.995-6.445l1.134.105Z" fill="#FFE600" stroke="#FFE600" stroke-width="2.7" stroke-miterlimit="10"/><path d="M223.017 181.804c.205-1.09.387-2.17.552-3.286.165-1.115.335-2.213.474-3.328l-1.273-.117a128.002 128.002 0 0 1-1.012 6.575l1.259.156Zm.869-6.51a181.826 181.826 0 0 1-.434 3.194 75.26 75.26 0 0 1-.53 3.151l-.991-.122c.374-2.083.704-4.183.974-6.314l.981.091Z" fill="#FFE600" stroke="#FFE600" stroke-width="2.7" stroke-miterlimit="10"/><path d="m247.017 248.39-1.095.356-1.808-5.368-3.545-5.199.965-.621 3.627 5.325 1.856 5.507Z" fill="#FC565D" stroke="#FC565D" stroke-width="2.7" stroke-miterlimit="10"/><path d="m244.048 243.408 1.807 5.355.022.066 1.225-.4-1.872-5.572-3.676-5.399-1.082.695 3.576 5.255Zm1.051-.495 1.829 5.434-.964.312-1.786-5.303-3.515-5.164.848-.543 3.588 5.264Z" fill="#FC565D" stroke="#FC565D" stroke-width="2.7" stroke-miterlimit="10"/><path d="m247.399 237.076-2.216 6.228-1.09-.347 2.215-6.224 1.091.343Z" fill="#FC565D" stroke="#FC565D" stroke-width="2.7" stroke-miterlimit="10"/><path d="m245.226 243.386 2.259-6.353-1.221-.386-2.276 6.353 1.238.386Zm2.081-6.266-2.172 6.097-.956-.304 2.172-6.097.956.304Z" fill="#FC565D" stroke="#FC565D" stroke-width="2.7" stroke-miterlimit="10"/><path d="m246.009 270.849-1.099.343-1.743-5.369-3.479-5.229.973-.608 3.562 5.356 1.786 5.507Z" fill="#FFE600" stroke="#FFE600" stroke-width="2.7" stroke-miterlimit="10"/><path d="m243.119 265.858 1.738 5.364v.061l1.233-.382-1.807-5.577-3.606-5.42-1.09.681 3.532 5.273Zm1.056-.482 1.763 5.438-.968.304-1.738-5.308-3.45-5.207.869-.534 3.524 5.307Z" fill="#FFE600" stroke="#FFE600" stroke-width="2.7" stroke-miterlimit="10"/><path d="m246.53 259.574-2.294 6.184-1.082-.356 2.289-6.184 1.087.356Z" fill="#FFE600" stroke="#FFE600" stroke-width="2.7" stroke-miterlimit="10"/><path d="m244.28 265.858 2.338-6.314-1.217-.395-2.337 6.275 1.216.434Zm2.173-6.228-2.247 6.076-.951-.317 2.246-6.075.952.316Z" fill="#FFE600" stroke="#FFE600" stroke-width="2.7" stroke-miterlimit="10"/><path d="m255.267 291.346-1.108.33-1.677-5.407-3.419-5.286.978-.595 3.501 5.408 1.725 5.55Z" fill="#FC565D" stroke="#FC565D" stroke-width="2.7" stroke-miterlimit="10"/><path d="m252.417 286.295 1.677 5.398v.065l1.234-.369-1.738-5.615-3.519-5.482-1.095.669 3.441 5.334Zm1.06-.469 1.703 5.472-.973.291-1.66-5.334-3.389-5.246.869-.521 3.45 5.338Z" fill="#FC565D" stroke="#FC565D" stroke-width="2.7" stroke-miterlimit="10"/><path d="m255.915 280.045-2.364 6.176-1.082-.374 2.364-6.171 1.082.369Z" fill="#FC565D" stroke="#FC565D" stroke-width="2.7" stroke-miterlimit="10"/><path d="m253.589 286.303 2.411-6.301-1.208-.434-2.411 6.297 1.208.438Zm2.233-6.219-2.311 6.05-.952-.33 2.316-6.058.947.338Z" fill="#FC565D" stroke="#FC565D" stroke-width="2.7" stroke-miterlimit="10"/><path d="M250.009 190.128a1.384 1.384 0 0 0 .373-1.232 1.383 1.383 0 0 0-.807-1.003c-17.378-7.812-33.41-8.797-40.839-1.255-.582.591-6.421 6.51-4.853 12.807 1.338 5.351 7.282 7.864 8.316 8.302 13.268 5.599 32.501-12.294 37.81-17.619Z" fill="#FFE600"/><path d="M145.657 227.845c22.953 0 41.56-20.227 41.56-45.178 0-24.951-18.607-45.177-41.56-45.177-22.953 0-41.56 20.226-41.56 45.177s18.607 45.178 41.56 45.178Z" fill="#FDB157"/><path d="M164.141 213.765c14.438 0 26.141-13.827 26.141-30.883 0-17.055-11.703-30.882-26.141-30.882C149.704 152 138 165.827 138 182.882c0 17.056 11.704 30.883 26.141 30.883Z" fill="#050505"/><path d="m234.764 176.969-.108 1.146a40.464 40.464 0 0 0-5.887-.169 30.153 30.153 0 0 0-5.804 2.482 34.66 34.66 0 0 0-.526-1.011 31 31 0 0 1 6.121-2.604 41.725 41.725 0 0 1 6.204.156Z" fill="#fff" stroke="#fff" stroke-width="2.7" stroke-miterlimit="10"/><path d="M228.556 176.731a31.13 31.13 0 0 0-6.208 2.656c.204.377.399.759.591 1.137a29.821 29.821 0 0 1 5.843-2.509 40.158 40.158 0 0 1 5.865.169h.07l.126-1.302a41.636 41.636 0 0 0-6.287-.151Zm.209 1.145a29.963 29.963 0 0 0-5.774 2.461l-.461-.894a31.015 31.015 0 0 1 6.043-2.552 41.73 41.73 0 0 1 6.113.161l-.095 1.011a40.25 40.25 0 0 0-5.809-.187h-.017Z" fill="#fff" stroke="#fff" stroke-width="2.7" stroke-miterlimit="10"/><path d="M222.591 173.528a32.092 32.092 0 0 1 6.408 3.363l-.651.955a30.513 30.513 0 0 0-6.304-3.251c.173-.356.356-.716.547-1.067Z" fill="#fff" stroke="#fff" stroke-width="2.7" stroke-miterlimit="10"/><path d="M221.935 174.63a30.237 30.237 0 0 1 6.412 3.316c.239-.356.487-.712.739-1.064a32.242 32.242 0 0 0-6.534-3.463c-.213.434-.422.816-.617 1.211Zm6.386 3.12a30.197 30.197 0 0 0-6.182-3.194c.161-.312.322-.633.491-.937a32.057 32.057 0 0 1 6.269 3.298l-.578.833Z" fill="#fff" stroke="#fff" stroke-width="2.7" stroke-miterlimit="10"/><path d="M248.249 191.538c-.434 0-.869-.03-1.303-.056a2.462 2.462 0 0 0-.304-1.524 2.762 2.762 0 0 0-1.121-1.046 4.214 4.214 0 0 0-1.855.191 3.627 3.627 0 0 0-.348.157.355.355 0 0 1-.247.043h-.344l-1.455-.03.1-1.137 1.534.047.734.022a.675.675 0 0 0 .286-.026l.226-.052a5.906 5.906 0 0 1 2.264 0c.61.323 1.122.804 1.481 1.393.326.619.449 1.325.352 2.018Z" fill="#31CFF4" stroke="#31CFF4" stroke-width="2.7" stroke-miterlimit="10"/><path d="M246.474 188.084a6.01 6.01 0 0 0-2.311-.022l-.235.052-.126.022h-.182l-.748-.026-1.559-.053-.109 1.276 1.468.035h.348c.126 0 .222 0 .256-.039.111-.06.226-.114.344-.161a4.092 4.092 0 0 1 1.846-.208c.456.231.838.584 1.104 1.02.256.455.361.979.299 1.497v.039c.483.031.969.057 1.456.074a3.387 3.387 0 0 0-.344-2.074 3.892 3.892 0 0 0-1.507-1.432Zm-.891.785a4.253 4.253 0 0 0-1.864.174c-.273.29-1.425.16-2.376.152l.091-.999 1.508.048h.725a.659.659 0 0 0 .257-.039l.226-.052a5.733 5.733 0 0 1 2.215 0c.591.314 1.088.78 1.438 1.35.328.598.457 1.285.37 1.961-.378 0-.761-.021-1.143-.043a2.56 2.56 0 0 0-.317-1.528 2.888 2.888 0 0 0-1.13-1.024Z" fill="#31CFF4" stroke="#31CFF4" stroke-width="2.7" stroke-miterlimit="10"/><path d="M244.518 183.162c.295.46.595.92.869 1.389.279.434.523.89.73 1.363.362.757.512 1.598.434 2.434a9.127 9.127 0 0 0-1.129.391 3.98 3.98 0 0 0-.261-2.222 4.202 4.202 0 0 0-.287-.634c-.135-.23-.269-.46-.413-.685-.282-.46-.577-.916-.868-1.372l.925-.664Z" fill="#31CFF4" stroke="#31CFF4" stroke-width="2.7" stroke-miterlimit="10"/><path d="M243.497 183.809c.304.464.608.933.895 1.397.143.235.287.469.435.703.121.205.222.422.299.647.301.711.384 1.494.239 2.252.412-.175.836-.32 1.269-.434a4.61 4.61 0 0 0-.435-2.495 10.052 10.052 0 0 0-.751-1.398c-.291-.477-.6-.946-.904-1.414l-1.047.742Zm2.003 4.86a4.05 4.05 0 0 0-.278-2.191 6.158 6.158 0 0 0-.278-.621 38.433 38.433 0 0 1-.404-.672c-.278-.434-.569-.899-.869-1.346l.812-.581a19.641 19.641 0 0 1 1.569 2.686c.348.74.498 1.558.434 2.374-.326.104-.669.221-.986.351ZM214.21 184.942l.678.924-.908.777c-.33.295-.656.581-.943.868a14.383 14.383 0 0 0-1.538 1.697 7.802 7.802 0 0 0-.247 4.339 19.543 19.543 0 0 0-1.073-.212 8.885 8.885 0 0 1 .386-4.774 16.634 16.634 0 0 1 1.66-1.849c.317-.304.639-.599.99-.907l.995-.863Z" fill="#31CFF4" stroke="#31CFF4" stroke-width="2.7" stroke-miterlimit="10"/><path d="M210.536 188.492a8.925 8.925 0 0 0-.391 4.873c.408.065.803.139 1.203.23a7.695 7.695 0 0 1 .23-4.34c.465-.601.977-1.166 1.53-1.688.286-.278.612-.568.942-.868l.9-.772.047-.035-.76-1.037-1.008.868c-.36.312-.686.616-1.008.92a16.58 16.58 0 0 0-1.685 1.849Zm.934.664a7.85 7.85 0 0 0-.27 4.339 19.435 19.435 0 0 0-.943-.191 8.885 8.885 0 0 1 .387-4.717 16.14 16.14 0 0 1 1.629-1.818c.309-.295.626-.591.974-.894l.981-.829.6.811-.904.768a21.78 21.78 0 0 0-.934.868 15.355 15.355 0 0 0-1.542 1.663h.022Z" fill="#31CFF4" stroke="#31CFF4" stroke-width="2.7" stroke-miterlimit="10"/><path d="M205.095 190.41a12.674 12.674 0 0 1 5.761-2.062c.117.352.239.69.369 1.024-1.958.18-3.84.85-5.47 1.949-.226-.299-.434-.599-.66-.911Z" fill="#31CFF4" stroke="#31CFF4" stroke-width="2.7" stroke-miterlimit="10"/><path d="M205.756 191.412a11.558 11.558 0 0 1 5.548-1.983c-.148-.373-.291-.76-.413-1.15a12.8 12.8 0 0 0-5.896 2.109c.244.356.496.694.761 1.024Zm5.387-2.096a11.775 11.775 0 0 0-5.361 1.897 15.966 15.966 0 0 1-.591-.803 12.614 12.614 0 0 1 5.626-2.01c.104.326.213.643.33.916h-.004Z" fill="#31CFF4" stroke="#31CFF4" stroke-width="2.7" stroke-miterlimit="10"/><path d="m235.099 208.043-.626-.973a123.583 123.583 0 0 0 4.696-3.207 55.658 55.658 0 0 0 3.667-5.086l.943.647a55.805 55.805 0 0 1-3.819 5.286 93.975 93.975 0 0 1-2.424 1.701c-.8.542-1.612 1.093-2.437 1.632Z" fill="#fff" stroke="#fff" stroke-width="2.7" stroke-miterlimit="10"/><path d="M240.004 204.766a57.362 57.362 0 0 0 3.871-5.36l-1.06-.724a55.514 55.514 0 0 1-3.693 5.116c-1.56 1.12-3.089 2.17-4.688 3.203l-.056.035.699 1.089c.839-.547 1.668-1.102 2.468-1.649.799-.547 1.664-1.12 2.459-1.71Zm-.795-.868a55.14 55.14 0 0 0 3.645-5.043l.834.569a56.512 56.512 0 0 1-3.775 5.208 84.696 84.696 0 0 1-2.394 1.679 156.72 156.72 0 0 1-2.403 1.61l-.547-.868a82.457 82.457 0 0 0 4.64-3.138v-.017Z" fill="#fff" stroke="#fff" stroke-width="2.7" stroke-miterlimit="10"/><path d="M246.478 204.666c-2.3.219-4.612.289-6.921.209v-1.151c2.286.08 4.575.003 6.851-.23l.07 1.172Z" fill="#fff" stroke="#fff" stroke-width="2.7" stroke-miterlimit="10"/><path d="M246.491 203.403a50.204 50.204 0 0 1-6.99.239v1.302a51.9 51.9 0 0 0 7.064-.213l-.074-1.328Zm-6.847.395c2.24.072 4.482-.003 6.712-.225l.048 1.028a51.738 51.738 0 0 1-6.773.204l.013-1.007Z" fill="#fff" stroke="#fff" stroke-width="2.7" stroke-miterlimit="10"/><path d="M213.19 208.003c.039-.377.087-.755.135-1.141 1.529.052 3.057-.13 4.531-.538a31.595 31.595 0 0 0 4.305-3.355l.648.92a31.899 31.899 0 0 1-4.588 3.529 21.59 21.59 0 0 1-2.52.499c-.833.1-1.673.129-2.511.086Z" fill="#31CFF4" stroke="#31CFF4" stroke-width="2.7" stroke-miterlimit="10"/><path d="M218.233 207.487a31.8 31.8 0 0 0 4.657-3.585l-.725-1.028a31.753 31.753 0 0 1-4.345 3.385 15.16 15.16 0 0 1-4.501.538h-.047a44.47 44.47 0 0 0-.161 1.302c.852.044 1.707.016 2.554-.082a21.78 21.78 0 0 0 2.568-.53Zm-.365-1.098a30.759 30.759 0 0 0 4.284-3.324l.569.811a31.861 31.861 0 0 1-4.523 3.472c-.816.212-1.645.376-2.48.491-.817.101-1.641.132-2.464.095l.113-1.002c1.519.05 3.036-.128 4.501-.53v-.013Z" fill="#31CFF4" stroke="#31CFF4" stroke-width="2.7" stroke-miterlimit="10"/><path d="M223.811 209.674a27.432 27.432 0 0 1-5.969-2.282c.13-.348.256-.695.369-1.038a27.57 27.57 0 0 0 5.852 2.218c-.061.365-.161.733-.252 1.102Z" fill="#31CFF4" stroke="#31CFF4" stroke-width="2.7" stroke-miterlimit="10"/><path d="M224.143 208.511a27.126 27.126 0 0 1-5.961-2.252c-.13.386-.265.777-.434 1.167a27.091 27.091 0 0 0 6.082 2.331c.135-.412.226-.829.313-1.246Zm-5.9-2.065a27.613 27.613 0 0 0 5.743 2.169l-.221.977a27.001 27.001 0 0 1-5.844-2.235c.113-.304.222-.608.322-.911Z" fill="#31CFF4" stroke="#31CFF4" stroke-width="2.7" stroke-miterlimit="10"/><path d="m201.411 191.156 1.134.213a17.967 17.967 0 0 0-.257 6.297c.2.525.461 1.037.695 1.528.235.49.522.959.83 1.406a13.518 13.518 0 0 0 1.968 2.404 12.11 12.11 0 0 0-.821.794 16.615 16.615 0 0 1-3.793-5.789 19.233 19.233 0 0 1 .244-6.853Z" fill="#fff" stroke="#fff" stroke-width="2.7" stroke-miterlimit="10"/><path d="M201.077 198.018a16.661 16.661 0 0 0 3.862 5.876c.3-.308.608-.608.921-.89a13.645 13.645 0 0 1-1.99-2.409c-.308-.434-.56-.924-.834-1.414a11.516 11.516 0 0 1-.699-1.532c-.287-2.088-.2-4.21.256-6.267v-.074l-1.273-.247a19.352 19.352 0 0 0-.243 6.957Zm1.125-.339c.196.521.435 1.029.687 1.515.252.486.517.959.821 1.406.56.873 1.215 1.68 1.955 2.408-.248.222-.487.434-.726.69a16.563 16.563 0 0 1-3.727-5.711 19.207 19.207 0 0 1 .225-6.74l1.004.183a17.885 17.885 0 0 0-.239 6.249Z" fill="#fff" stroke="#fff" stroke-width="2.7" stroke-miterlimit="10"/><path d="M199.197 205.2a18.258 18.258 0 0 1 2.011-7.677c.335.212.66.412 1.008.603a16.91 16.91 0 0 0-1.79 7.43c-.404-.104-.83-.226-1.229-.356Z" fill="#fff" stroke="#fff" stroke-width="2.7" stroke-miterlimit="10"/><path d="M200.499 205.66a16.916 16.916 0 0 1 1.807-7.564 19.27 19.27 0 0 1-1.125-.677 18.38 18.38 0 0 0-2.064 7.846c.457.148.926.269 1.382.395Zm1.621-7.504c-.239.521-.5 1.064-.696 1.628-.104.282-.212.568-.304.868l-.247.898a18.992 18.992 0 0 0-.378 1.888 16.813 16.813 0 0 0-.144 2.018c-.356-.095-.734-.2-1.077-.312a18.124 18.124 0 0 1 1.959-7.508c.296.178.578.351.887.52ZM193.427 191.16l-1.156-.052a56.22 56.22 0 0 0 .204-7.108 54.268 54.268 0 0 0-2.402-7.109l1.038-.564a55.252 55.252 0 0 1 2.507 7.421 57.486 57.486 0 0 1-.191 7.412Z" fill="#fff" stroke="#fff" stroke-width="2.7" stroke-miterlimit="10"/><path d="M193.686 183.718a55.498 55.498 0 0 0-2.546-7.521l-1.164.633a54.33 54.33 0 0 1 2.429 7.187 56.893 56.893 0 0 1-.205 7.091v.083l1.304.056a57.51 57.51 0 0 0 .182-7.529Zm-1.142.277a54.551 54.551 0 0 0-2.381-7.104l.912-.495a55.659 55.659 0 0 1 2.477 7.326 58.413 58.413 0 0 1-.187 7.33l-1.017-.039c.21-2.333.275-4.677.196-7.018Z" fill="#fff" stroke="#fff" stroke-width="2.7" stroke-miterlimit="10"/><path d="M196.992 176.891a56.776 56.776 0 0 1-3.475 7.378l-.952-.768a55.186 55.186 0 0 0 3.38-7.296l1.047.686Z" fill="#fff" stroke="#fff" stroke-width="2.7" stroke-miterlimit="10"/><path d="M195.919 176.071a55.328 55.328 0 0 1-3.445 7.438l1.064.868a56.564 56.564 0 0 0 3.55-7.529l-1.169-.777Zm-3.254 7.378a55.736 55.736 0 0 0 3.319-7.152l.917.603a56.568 56.568 0 0 1-3.398 7.221l-.838-.672Z" fill="#fff" stroke="#fff" stroke-width="2.7" stroke-miterlimit="10"/><path d="m177.538 213.289-.995-.59a53.53 53.53 0 0 0 3.097-5.668c.46-2.259.767-4.547.917-6.848l1.164.03a51.712 51.712 0 0 1-.942 7.131 54.779 54.779 0 0 1-3.241 5.945Z" fill="#31CFF4" stroke="#31CFF4" stroke-width="2.7" stroke-miterlimit="10"/><path d="M180.836 207.374c.487-2.386.807-4.803.955-7.234l-1.303-.031a50.57 50.57 0 0 1-.912 6.901 53.548 53.548 0 0 1-3.089 5.642l-.044.06 1.117.664a54.724 54.724 0 0 0 3.276-6.002Zm-1.13-.317c.455-2.243.758-4.515.908-6.8l1.025.026a51.897 51.897 0 0 1-.938 7.044 54.34 54.34 0 0 1-3.185 5.863l-.869-.521a53.3 53.3 0 0 0 3.042-5.612h.017Z" fill="#31CFF4" stroke="#31CFF4" stroke-width="2.7" stroke-miterlimit="10"/><path d="M186.675 203.399a53.73 53.73 0 0 1-6.213 4.34l-.517-1.064a52.254 52.254 0 0 0 6.108-4.292l.622 1.016Z" fill="#31CFF4" stroke="#31CFF4" stroke-width="2.7" stroke-miterlimit="10"/><path d="M186.075 202.253a52.007 52.007 0 0 1-6.225 4.379l.577 1.194a53.578 53.578 0 0 0 6.343-4.414l-.695-1.159Zm-6.034 4.431a52.001 52.001 0 0 0 5.987-4.209l.547.911a54.21 54.21 0 0 1-6.082 4.236l-.452-.938ZM186.252 164.956l-1.047.487a42.936 42.936 0 0 0-2.937-5.595 35.753 35.753 0 0 0-5.187-4.17l.634-.968a37.264 37.264 0 0 1 5.448 4.388 44.111 44.111 0 0 1 3.089 5.858Z" fill="#31CFF4" stroke="#31CFF4" stroke-width="2.7" stroke-miterlimit="10"/><path d="M183.212 159.041a37.61 37.61 0 0 0-5.522-4.431l-.709 1.085a36.4 36.4 0 0 1 5.236 4.197 43.319 43.319 0 0 1 2.924 5.577l.03.069 1.177-.538a44.236 44.236 0 0 0-3.136-5.959Zm-.869.768a36.642 36.642 0 0 0-5.157-4.153l.556-.868a37.392 37.392 0 0 1 5.37 4.34 43.594 43.594 0 0 1 3.041 5.789l-.921.434a43.589 43.589 0 0 0-2.902-5.542h.013Z" fill="#31CFF4" stroke="#31CFF4" stroke-width="2.7" stroke-miterlimit="10"/><path d="M182.983 152.071c.337 2.473.443 4.972.317 7.465l-1.169-.135a38.805 38.805 0 0 0-.356-7.321l1.208-.009Z" fill="#31CFF4" stroke="#31CFF4" stroke-width="2.7" stroke-miterlimit="10"/><path d="M181.692 152.002c.363 2.471.485 4.97.365 7.465.434.047.869.095 1.303.151a40.17 40.17 0 0 0-.321-7.625c-.448 0-.9 0-1.347.009Zm.512 7.334a38.68 38.68 0 0 0-.343-7.182h1.065a40.08 40.08 0 0 1 .308 7.304l-1.03-.122Z" fill="#31CFF4" stroke="#31CFF4" stroke-width="2.7" stroke-miterlimit="10"/><path d="m158.896 233.188-.496-1.033a42.228 42.228 0 0 0 6.348-3.429 41.122 41.122 0 0 0 4.744-5.872c.348.191.691.365 1.043.547a43.162 43.162 0 0 1-4.949 6.15 42.722 42.722 0 0 1-6.69 3.637Z" fill="#fff" stroke="#fff" stroke-width="2.7" stroke-miterlimit="10"/><path d="M165.608 229.607a43.083 43.083 0 0 0 5.013-6.245l-1.168-.607a41.691 41.691 0 0 1-4.779 5.919 42.249 42.249 0 0 1-6.33 3.416l-.079.034.57 1.185a43.55 43.55 0 0 0 6.773-3.702Zm-.839-.824a41.276 41.276 0 0 0 4.718-5.829l.917.482a42.395 42.395 0 0 1-4.892 6.076 43.33 43.33 0 0 1-6.565 3.589l-.456-.912a42.774 42.774 0 0 0 6.278-3.406Z" fill="#fff" stroke="#fff" stroke-width="2.7" stroke-miterlimit="10"/><path d="M173.285 228.618a45.164 45.164 0 0 1-8.225 1.132l.161-1.219a44.93 44.93 0 0 0 8.077-1.167c.004.425-.005.833-.013 1.254Z" fill="#fff" stroke="#fff" stroke-width="2.7" stroke-miterlimit="10"/><path d="M173.376 227.268a44.734 44.734 0 0 1-8.229 1.194 66.74 66.74 0 0 1-.178 1.371 45.993 45.993 0 0 0 8.398-1.159c.013-.469.018-.933.009-1.406Zm-8.081 1.332a45.32 45.32 0 0 0 7.92-1.137v1.098a44.457 44.457 0 0 1-8.046 1.111l.126-1.072Z" fill="#fff" stroke="#fff" stroke-width="2.7" stroke-miterlimit="10"/><path d="m132.332 227.55.265-1.128c2.05.528 4.142.88 6.252 1.054a32.3 32.3 0 0 0 6.404-1.736l.434 1.072a33.61 33.61 0 0 1-6.738 1.841 38.013 38.013 0 0 1-6.617-1.103Z" fill="#31CFF4" stroke="#31CFF4" stroke-width="2.7" stroke-miterlimit="10"/><path d="M138.911 228.713a33.19 33.19 0 0 0 6.834-1.875 45.712 45.712 0 0 1-.474-1.197 32.317 32.317 0 0 1-6.451 1.766 37.621 37.621 0 0 1-6.209-1.042l-.069-.021-.3 1.263c2.186.563 4.418.933 6.669 1.106Zm-.091-1.167a32.559 32.559 0 0 0 6.373-1.736l.369.942a33.427 33.427 0 0 1-6.651 1.809 37.972 37.972 0 0 1-6.486-1.072l.23-.993c2.021.523 4.084.874 6.165 1.05Z" fill="#31CFF4" stroke="#31CFF4" stroke-width="2.7" stroke-miterlimit="10"/><path d="M144.746 232.637a36.273 36.273 0 0 1-6.282-4.149l.803-.868a34.86 34.86 0 0 0 6.178 4.005l-.699 1.012Z" fill="#31CFF4" stroke="#31CFF4" stroke-width="2.7" stroke-miterlimit="10"/><path d="M145.558 231.612a34.426 34.426 0 0 1-6.3-4.075c-.295.317-.595.638-.903.955a35.93 35.93 0 0 0 6.421 4.236c.265-.369.526-.721.782-1.116Zm-6.274-3.88a34.923 34.923 0 0 0 6.061 3.932l-.617.868a36.333 36.333 0 0 1-6.152-4.057l.708-.743Z" fill="#31CFF4" stroke="#31CFF4" stroke-width="2.7" stroke-miterlimit="10"/><path d="m107.651 216.11.777-.868a52.405 52.405 0 0 0 5.388 4.696 54.068 54.068 0 0 0 7.038 2.669l-.217 1.159a54.95 54.95 0 0 1-7.334-2.765 54.447 54.447 0 0 1-5.652-4.891Z" fill="#fff" stroke="#fff" stroke-width="2.7" stroke-miterlimit="10"/><path d="M113.26 221.066a54.439 54.439 0 0 0 7.442 2.8l.244-1.302a54.456 54.456 0 0 1-7.099-2.691 52.082 52.082 0 0 1-5.37-4.683l-.061-.06-.869.959a54.399 54.399 0 0 0 5.713 4.977Zm.517-1.063a54.164 54.164 0 0 0 6.986 2.661l-.191 1.019a55.21 55.21 0 0 1-7.242-2.738 54.414 54.414 0 0 1-5.57-4.826l.682-.755a52.754 52.754 0 0 0 5.335 4.639Z" fill="#fff" stroke="#fff" stroke-width="2.7" stroke-miterlimit="10"/><path d="M116.462 227.958a55.668 55.668 0 0 1-3.501-7.378l1.194-.247a53.686 53.686 0 0 0 3.502 7.239 16.1 16.1 0 0 1-1.195.386Z" fill="#fff" stroke="#fff" stroke-width="2.7" stroke-miterlimit="10"/><path d="M117.769 227.641a53.99 53.99 0 0 1-3.575-7.377c-.435.099-.891.191-1.338.277a56.444 56.444 0 0 0 3.575 7.517c.443-.13.895-.278 1.338-.417Zm-3.658-7.199a54.534 54.534 0 0 0 3.432 7.1c-.352.112-.703.221-1.051.321a56.026 56.026 0 0 1-3.432-7.204c.352-.066.699-.139 1.051-.217ZM97.06 173.58l1.151.043-.2 3.572.061 3.558c.387 1.237.756 2.444 1.16 3.624.474 1.181.912 2.335 1.408 3.472l-1.008.595a18.842 18.842 0 0 1-.765-1.775l-.713-1.823c-.256-.612-.434-1.237-.63-1.866l-.586-1.914c-.07-1.233-.052-2.474-.074-3.724s.13-2.504.196-3.762Z" fill="#fff" stroke="#fff" stroke-width="2.7" stroke-miterlimit="10"/><path d="m96.881 181.057.595 1.94c.204.638.383 1.272.639 1.892l.726 1.849.36.907c.13.3.278.599.435.894l1.125-.668c-.5-1.129-.943-2.292-1.42-3.472-.41-1.189-.783-2.409-1.17-3.654l-.06-3.546.186-3.567a.548.548 0 0 1 0-.083l-1.303-.047c-.065 1.271-.16 2.534-.191 3.793-.03 1.258.009 2.512.078 3.762Zm1.134-.299c.382 1.228.752 2.43 1.147 3.606.47 1.172.908 2.318 1.395 3.433l-.87.521c-.295-.573-.508-1.159-.747-1.736l-.708-1.801c-.252-.608-.408-1.224-.612-1.845l-.583-1.887c-.065-1.22-.052-2.439-.073-3.672-.022-1.232.117-2.452.173-3.689l1.017.035c-.06 1.185-.135 2.361-.178 3.533l.039 3.502Z" fill="#fff" stroke="#fff" stroke-width="2.7" stroke-miterlimit="10"/><path d="M93.732 188.023c.5-1.302.99-2.604 1.525-3.867.534-1.263 1.169-2.465 1.781-3.637.309.256.648.508.974.751l-.87 1.771c-.286.599-.608 1.206-.846 1.827l-.76 1.883c-.244.634-.526 1.302-.718 1.936-.373-.217-.751-.434-1.086-.664Z" fill="#fff" stroke="#fff" stroke-width="2.7" stroke-miterlimit="10"/><path d="M94.839 188.804c.195-.664.469-1.324.725-1.975l.774-1.922c.243-.629.569-1.25.868-1.858l.904-1.805a26.716 26.716 0 0 1-1.086-.842c-.639 1.193-1.216 2.435-1.825 3.711-.608 1.276-1.043 2.604-1.56 3.953.383.252.8.499 1.2.738Zm3.076-7.504-.87 1.736c-.277.591-.599 1.189-.83 1.793l-.746 1.844-.37.942c-.126.321-.243.638-.339.959a24.292 24.292 0 0 1-.938-.586c.49-1.302.977-2.56 1.49-3.784.513-1.224 1.156-2.413 1.738-3.563l.865.659Z" fill="#fff" stroke="#fff" stroke-width="2.7" stroke-miterlimit="10"/><path d="m113.368 151.798.969.634a54.542 54.542 0 0 0-3.385 5.524 42.948 42.948 0 0 0-.729 3.39 25.775 25.775 0 0 0-.235 1.636c0 .126-.022.265-.026.377-.004.113 0 .248 0 .391l-.048.838-1.156-.048.113-1.736a17.99 17.99 0 0 1 .222-1.688c.2-1.168.46-2.352.76-3.537a56.719 56.719 0 0 1 3.515-5.781Z" fill="#31CFF4" stroke="#31CFF4" stroke-width="2.7" stroke-miterlimit="10"/><path d="M109.78 157.553a46.198 46.198 0 0 0-.773 3.584c-.091.582-.191 1.185-.221 1.706l-.113 1.771 1.303.047.087-1.618c.052-.526.135-1.085.23-1.65.191-1.124.435-2.269.734-3.415a54.22 54.22 0 0 1 3.376-5.507l.044-.061-1.091-.69a55.833 55.833 0 0 0-3.576 5.833Zm1.113.373a42.434 42.434 0 0 0-.73 3.363 26.51 26.51 0 0 0-.235 1.632l-.03.378v.382l-.048.833-1.017-.044.109-1.696c.043-.53.13-1.107.23-1.68a37.44 37.44 0 0 1 .747-3.472 56.662 56.662 0 0 1 3.476-5.702l.869.555a54.208 54.208 0 0 0-3.371 5.451Z" fill="#31CFF4" stroke="#31CFF4" stroke-width="2.7" stroke-miterlimit="10"/><path d="M103.806 161.307a20.09 20.09 0 0 1 1.533-1.172c.53-.36 1.056-.712 1.59-1.046a43.54 43.54 0 0 1 3.237-1.866l.465 1.089a49.097 49.097 0 0 0-3.176 1.849 33.13 33.13 0 0 0-1.551 1.033c-.508.36-.982.764-1.477 1.154l-.621-1.041Z" fill="#31CFF4" stroke="#31CFF4" stroke-width="2.7" stroke-miterlimit="10"/><path d="M104.401 162.461c.509-.404 1.004-.816 1.508-1.185a27.486 27.486 0 0 1 1.577-1.05 49.459 49.459 0 0 1 3.237-1.883l-.517-1.224a43.268 43.268 0 0 0-3.307 1.905c-.547.338-1.089.694-1.625 1.068-.269.19-.534.377-.799.581l-.769.616.695 1.172Zm6.135-4.179a48.297 48.297 0 0 0-3.115 1.814c-.513.325-1.021.66-1.521 1.011-.5.352-.96.746-1.451 1.133l-.543-.92c.478-.4.982-.79 1.499-1.142a47.664 47.664 0 0 1 4.722-2.855l.409.959ZM104.928 199.567l1.03-.53.339.721c.117.234.256.464.387.694l.777 1.385.383.685c.13.23.291.434.434.664l.869 1.302a31.565 31.565 0 0 0 2.641 2.144c.88.67 1.795 1.291 2.742 1.862l-.604.998-1.438-.92a15.846 15.846 0 0 1-1.434-1.007l-1.39-1.089-.708-.56c-.235-.191-.435-.395-.665-.599l-.908-1.376-.461-.694c-.147-.234-.273-.482-.412-.72l-.813-1.454-.408-.734c-.13-.264-.239-.521-.361-.772Z" fill="#31CFF4" stroke="#31CFF4" stroke-width="2.7" stroke-miterlimit="10"/><path d="M108.233 205.343c.231.204.435.412.678.603l.713.569 1.412 1.107c.467.364.953.705 1.455 1.019l1.46.955.673-1.119a32.1 32.1 0 0 1-2.767-1.871 33.755 33.755 0 0 1-2.664-2.17c-.56-.868-1.199-1.736-1.677-2.651l-.777-1.376c-.126-.23-.265-.46-.383-.695l-.338-.72-.031-.065-1.155.594a46.106 46.106 0 0 0 3.401 5.82Zm.869-.807a32.853 32.853 0 0 0 2.607 2.131 31.228 31.228 0 0 0 2.724 1.853l-.53.868-1.425-.929-.721-.482c-.244-.16-.456-.342-.687-.516l-1.377-1.059-.695-.551c-.23-.187-.434-.391-.656-.59l-.899-1.359-.435-.681c-.148-.23-.269-.473-.404-.712l-.804-1.432-.404-.72c-.134-.243-.234-.495-.356-.742l.904-.469a42.72 42.72 0 0 0 3.145 5.39h.013Z" fill="#31CFF4" stroke="#31CFF4" stroke-width="2.7" stroke-miterlimit="10"/><path d="m108.755 212.3-.3-1.879c-.1-.616-.121-1.272-.178-1.888l-.13-1.845-.026-.455v-1.385l1.164.087c-.015.598.001 1.196.048 1.793l.113 1.827c.026.308.035.629.078.928l.13.912.287 1.862-1.186.043Z" fill="#31CFF4" stroke="#31CFF4" stroke-width="2.7" stroke-miterlimit="10"/><path d="m110.035 212.33-.291-1.901c-.091-.624-.186-1.232-.217-1.87l-.113-1.866a18.566 18.566 0 0 1-.048-1.827l-1.303-.1v.942a8.614 8.614 0 0 0 0 .937l.13 1.884c.057.633.083 1.302.183 1.927l.313 1.922 1.346-.048Zm-.812-7.325c-.026.603.022 1.171.052 1.762l.109 1.788c.026.303.039.612.074.911l.13.894.278 1.823-1.051.035-.291-1.836c-.1-.603-.122-1.241-.179-1.849a32.57 32.57 0 0 1-.143-3.602l1.021.074Z" fill="#31CFF4" stroke="#31CFF4" stroke-width="2.7" stroke-miterlimit="10"/><path d="m132.537 132.399.508 1.033a43.956 43.956 0 0 0-6.36 3.346 44.9 44.9 0 0 0-4.879 5.75l-1.026-.577a46.144 46.144 0 0 1 5.083-6.019 43.708 43.708 0 0 1 6.674-3.533Z" fill="#fff" stroke="#fff" stroke-width="2.7" stroke-miterlimit="10"/><path d="M125.816 135.875a46.227 46.227 0 0 0-5.149 6.111l1.152.642a44.486 44.486 0 0 1 4.913-5.798 42.922 42.922 0 0 1 6.343-3.333l.079-.035-.565-1.163a44.37 44.37 0 0 0-6.773 3.576Zm.825.846a44.76 44.76 0 0 0-4.853 5.707l-.904-.507a45.76 45.76 0 0 1 5.023-5.937 43.334 43.334 0 0 1 6.582-3.472l.434.911a43.49 43.49 0 0 0-6.282 3.298Z" fill="#fff" stroke="#fff" stroke-width="2.7" stroke-miterlimit="10"/><path d="M118.153 136.652a47.15 47.15 0 0 1 8.215-.903l-.186 1.207a47.981 47.981 0 0 0-8.068.95c.008-.412.013-.842.039-1.254Z" fill="#fff" stroke="#fff" stroke-width="2.7" stroke-miterlimit="10"/><path d="M118.031 138.002a47.527 47.527 0 0 1 8.22-.977c.065-.434.139-.898.213-1.354a47.26 47.26 0 0 0-8.394.925c-.026.464-.031.937-.039 1.406Zm8.081-1.116a47.982 47.982 0 0 0-7.916.946c0-.368 0-.737.039-1.102a47.321 47.321 0 0 1 8.042-.868l-.165 1.024Z" fill="#fff" stroke="#fff" stroke-width="2.7" stroke-miterlimit="10"/><path d="m159.296 137.433-.187 1.141a41.981 41.981 0 0 0-6.343-.707 39.632 39.632 0 0 0-6.517 1.927l-.435-1.072a41.39 41.39 0 0 1 6.8-2.018c2.242.072 4.476.316 6.682.729Z" fill="#31CFF4" stroke="#31CFF4" stroke-width="2.7" stroke-miterlimit="10"/><path d="M152.622 136.635a40.813 40.813 0 0 0-6.895 2.065c.17.391.335.795.5 1.194a40.024 40.024 0 0 1 6.547-1.944c2.122.074 4.235.31 6.321.707h.079l.208-1.276a43.601 43.601 0 0 0-6.76-.746Zm.143 1.163a39.824 39.824 0 0 0-6.46 1.905l-.391-.946a42.166 42.166 0 0 1 6.712-1.984c2.209.074 4.409.312 6.582.712l-.16 1.007a41.606 41.606 0 0 0-6.296-.694h.013Z" fill="#31CFF4" stroke="#31CFF4" stroke-width="2.7" stroke-miterlimit="10"/><path d="M146.644 132.894a42.872 42.872 0 0 1 6.438 3.949l-.769.868a43.646 43.646 0 0 0-6.351-3.845l.682-.972Z" fill="#31CFF4" stroke="#31CFF4" stroke-width="2.7" stroke-miterlimit="10"/><path d="M145.85 133.926a43.727 43.727 0 0 1 6.469 3.906l.869-.994a43.102 43.102 0 0 0-6.578-4.036c-.256.365-.508.738-.76 1.124Zm6.469 3.702a44.12 44.12 0 0 0-6.23-3.767l.604-.868a42.886 42.886 0 0 1 6.299 3.863l-.673.772Z" fill="#31CFF4" stroke="#31CFF4" stroke-width="2.7" stroke-miterlimit="10"/><path d="m184.194 148.33-.812.829a43.488 43.488 0 0 0-5.279-4.891c-.591-.269-1.173-.542-1.759-.789l-1.769-.699-1.794-.582-.869-.277-.434-.139-.456-.109.173-1.159a41.567 41.567 0 0 1 7.443 2.695 44.83 44.83 0 0 1 5.556 5.121Z" fill="#fff" stroke="#fff" stroke-width="2.7" stroke-miterlimit="10"/><path d="M178.659 143.153a40.907 40.907 0 0 0-7.551-2.717l-.191 1.302c.621.126 1.186.347 1.79.525l1.807.582 1.786.703c.59.252 1.173.525 1.772.794a43.844 43.844 0 0 1 5.261 4.878l.057.061.912-.92a44.952 44.952 0 0 0-5.643-5.208Zm-.517 1.059c-.587-.269-1.165-.538-1.738-.79l-1.738-.694-1.812-.556-.869-.278a8.434 8.434 0 0 0-.869-.247l.153-1.02c.308.078.625.148.929.235l.913.295 1.846.612a37.77 37.77 0 0 1 3.654 1.527 44.719 44.719 0 0 1 5.496 5.043l-.713.729a43.657 43.657 0 0 0-5.252-4.856Z" fill="#fff" stroke="#fff" stroke-width="2.7" stroke-miterlimit="10"/><path d="M175.231 136.183c.734 1.25 1.442 2.461 2.076 3.689.305.634.604 1.25.869 1.871l.778 1.879-1.212.238a38.077 38.077 0 0 0-1.66-3.667l-.995-1.805-.517-.916c-.178-.304-.373-.581-.564-.868l1.225-.421Z" fill="#fff" stroke="#fff" stroke-width="2.7" stroke-miterlimit="10"/><path d="M173.901 136.53a41.597 41.597 0 0 1 3.814 7.404c.435-.091.904-.182 1.36-.265-.252-.633-.521-1.271-.795-1.922s-.591-1.263-.899-1.91c-.648-1.254-1.373-2.491-2.125-3.767-.456.165-.908.321-1.355.46Zm3.91 7.222a38.54 38.54 0 0 0-1.634-3.598l-.969-1.766c-.339-.595-.673-1.207-1.06-1.767l1.065-.36c.717 1.228 1.407 2.413 2.029 3.611.289.616.579 1.225.869 1.827l.764 1.845-1.064.208Z" fill="#fff" stroke="#fff" stroke-width="2.7" stroke-miterlimit="10"/></g><defs><clipPath id="a"><path fill="#fff" d="M0 0h300v300H0z"/></clipPath></defs></svg>