<svg width="300" height="300" viewBox="0 0 300 300" fill="none" xmlns="http://www.w3.org/2000/svg">
<g clip-path="url(#clip0_1_29)">
<rect width="300" height="300" fill="#FDB157"/>
<path d="M280.924 260.795C280.752 262.59 274.045 261.505 270.715 265.097C269.467 266.44 267.448 269.952 267.133 270.815C267.033 271.115 266.847 271.379 266.597 271.573C266.348 271.749 266.052 271.848 265.747 271.857C265.604 271.857 265.461 271.837 265.324 271.798C264.624 271.573 264.366 270.094 264.346 269.977C264.003 267.896 264.558 266.136 264.456 264.898C264.173 261.312 258.305 261.917 253.436 256.133C252.494 255.017 251.19 253.186 249.415 253.194C248.765 253.194 247.98 253.447 246.281 253.453C245.527 253.453 245.01 253.373 244.761 253.393C243.142 253.535 242.14 254.356 238.879 254.594C234.132 254.94 232.717 253.458 230.902 254.801C230.902 254.801 228.763 256.4 227.104 257.047C226.1 257.442 226.14 257.172 225.522 257.501C224.41 258.092 223.021 261.283 223.021 261.283C221.73 264.225 220.809 264.427 221.115 265.168C221.637 266.434 224.234 265.585 226.288 267.678C226.617 268.013 227.396 268.813 227.161 269.552C227.046 269.825 226.856 270.061 226.613 270.231C226.371 270.401 226.085 270.499 225.788 270.514C225.618 270.516 225.449 270.487 225.289 270.426C224.938 270.307 223.086 269.677 222.68 270.102C222.337 270.466 223.282 271.355 223.514 273.39C223.679 274.836 223.304 275.259 223.1 275.415C222.958 275.515 222.797 275.585 222.626 275.619C222.599 275.649 222.566 275.672 222.529 275.687C222.491 275.702 222.451 275.708 222.411 275.704C222.013 275.686 221.632 275.538 221.325 275.284C220.21 274.339 217.82 270.503 215.579 269.188C212.913 267.627 210.387 269.589 209.057 267.837C208.45 267.039 208.271 265.713 208.827 264.921C209.848 263.467 212.267 265.105 215.375 263.876C216.597 263.393 217.757 261.834 220.085 258.711C220.769 257.794 221.64 256.522 221.22 255.914C221.17 255.847 221.108 255.79 221.038 255.744C220.168 255.094 219.833 253.782 219.765 253.575C219.283 252.073 214.405 250.312 212.976 249.736C212.082 249.375 204.684 246.104 201.417 240.028C200.991 239.236 199.911 237.05 198.955 237.209C198.243 237.325 198.26 238.628 197.131 239.137C196.677 239.311 196.184 239.359 195.704 239.277C195.224 239.194 194.776 238.982 194.406 238.665C193.116 237.493 193.904 235.4 193.122 235.085C192.339 234.77 191.465 237.01 189.33 237.64C186.948 238.33 184.54 236.525 184.16 236.221C181.608 234.233 181.021 230.843 180.819 229.676C180.397 227.226 180.919 226.039 179.838 224.648C179.05 223.634 178.358 223.73 177.002 222.862C176.815 222.742 172.595 219.96 172.635 215.826C172.663 212.825 174.921 210.729 175.323 210.354C177.439 208.395 178.86 209.168 179.81 207.819C181.9 204.86 175.958 199.869 177.68 195.289C178.721 192.509 182.161 191.169 184.353 190.865C190.07 190.079 195.98 195.201 198.416 200.468C201.054 206.175 198.671 210.051 201.981 212.782C204.973 215.255 209.868 214.52 210.052 213.81C210.174 213.33 208.146 212.935 207.358 210.971C206.995 209.991 206.972 208.918 207.293 207.924C207.86 206.093 209.388 205.065 210.026 204.65C215.494 201.101 229.478 200.945 235.363 194.872C241.962 188.057 239.974 172.143 244.559 168.398C244.843 168.179 246.051 167.242 245.89 166.277C245.688 165.067 243.556 165.141 242.061 163.77C239.537 161.464 239.509 155.7 241.967 153.713C244.137 151.955 247.279 153.931 248.175 152.577C249.494 150.572 242.824 146.046 244.012 141.944C244.735 139.434 248.32 137.358 251.278 138.184C253.79 138.886 255.461 141.521 255.611 143.664C255.699 144.928 255.268 146.157 255.546 146.257C255.824 146.356 256.235 145.064 257.247 144.238C258.75 143.003 261.218 143.102 262.556 143.67C267.287 145.657 269.311 156.308 265.415 160.924C264.153 162.424 262.295 163.253 262.511 164.479C262.709 165.615 264.374 165.507 266.43 166.793C270.684 169.46 270.035 173.929 274.13 175.558C274.271 175.615 274.439 175.666 274.439 175.666C275.141 175.904 275.862 176.083 276.594 176.2C277.524 176.365 281.685 177.089 281.982 178.659C282.133 179.417 281.322 180.201 279.697 181.768C277.995 183.395 277.584 183.267 277.079 184.039C275.979 185.709 276.946 187.924 278.091 191.464C278.942 194.062 279.433 196.765 280.252 199.369C282.294 205.834 282.805 222.652 274.203 233.177C271.061 237.019 266.319 242.831 262.548 245.29C261.938 245.693 260.563 246.53 259.652 248.208C259.411 248.654 258.073 250.818 258.453 253.194C259.139 257.51 265.128 260.625 268.112 259.265C270.732 258.072 271.194 254.497 273.216 254.682C274.263 254.779 275.485 255.917 275.414 256.604C275.405 256.902 275.351 257.197 275.255 257.479C275.179 257.684 275.133 257.899 275.119 258.118C275.129 258.154 275.14 258.19 275.153 258.226C275.312 258.606 277.263 258.314 278.514 258.646C279.651 258.947 281.001 259.997 280.924 260.795Z" fill="#FC565D"/>
<path d="M278.505 258.626C277.254 258.294 275.303 258.586 275.144 258.206C275.131 258.17 275.119 258.134 275.11 258.098C275.124 257.879 275.169 257.664 275.246 257.459C275.342 257.177 275.396 256.882 275.405 256.584C275.468 255.897 274.254 254.759 273.207 254.662C271.197 254.478 270.734 258.052 268.103 259.245C265.131 260.613 259.141 257.49 258.444 253.186C258.375 252.75 258.358 252.308 258.392 251.868C256.691 252.516 254.953 253.095 253.245 253.736C252.848 253.926 252.46 254.138 252.08 254.372L252.017 254.432L251.98 254.497C252.528 255.037 253.001 255.65 253.398 256.13C258.268 261.914 264.121 261.309 264.419 264.895C264.521 266.133 263.965 267.893 264.308 269.975C264.328 270.094 264.592 271.57 265.287 271.795C265.424 271.834 265.566 271.854 265.709 271.854C266.014 271.845 266.31 271.746 266.56 271.57C266.809 271.376 266.996 271.112 267.096 270.812C267.411 269.96 269.43 266.437 270.678 265.094C274.013 261.502 280.72 262.587 280.887 260.792C281 259.997 279.651 258.947 278.505 258.626Z" fill="#FFE600"/>
<path d="M221.098 265.157C220.791 264.415 221.713 264.214 223.003 261.272C223.003 261.272 224.393 258.081 225.505 257.49C226.123 257.161 226.072 257.431 227.087 257.036C227.398 256.914 227.702 256.774 227.997 256.619C225.622 255.924 223.209 255.361 220.771 254.935C220.695 255.037 220.618 255.134 220.539 255.219C220.68 255.407 220.846 255.575 221.032 255.719C221.102 255.764 221.164 255.822 221.214 255.889C221.622 256.497 220.752 257.769 220.079 258.686C217.751 261.809 216.591 263.368 215.369 263.85C212.249 265.08 209.842 263.442 208.824 264.895C208.257 265.687 208.444 267.013 209.051 267.811C210.381 269.563 212.907 267.601 215.573 269.163C217.814 270.477 220.204 274.313 221.319 275.259C221.626 275.513 222.007 275.661 222.405 275.679C222.445 275.682 222.485 275.677 222.523 275.662C222.56 275.647 222.594 275.624 222.62 275.594C222.791 275.559 222.952 275.49 223.094 275.389C223.298 275.233 223.661 274.822 223.508 273.365C223.276 271.329 222.331 270.441 222.674 270.077C223.08 269.651 224.943 270.282 225.283 270.401C225.443 270.461 225.612 270.491 225.783 270.489C226.079 270.474 226.365 270.376 226.607 270.206C226.85 270.035 227.04 269.8 227.155 269.526C227.39 268.785 226.611 267.987 226.282 267.652C224.223 265.582 221.619 266.431 221.098 265.157Z" fill="#31CFF4"/>
<path d="M17.1354 268.393L16.7515 267.046C18.8308 266.386 20.9493 265.855 23.0941 265.457C25.3316 264.319 27.6742 263.401 30.0893 262.717L30.4194 264.063C28.0217 264.728 25.6963 265.63 23.4777 266.756C21.3303 267.163 19.2117 267.71 17.1354 268.393Z" fill="#FFE600" stroke="#FFE600" stroke-width="3.36516" stroke-miterlimit="10" stroke-linejoin="round"/>
<path d="M23.4905 266.886C25.739 265.738 28.0987 264.822 30.533 264.152C30.4186 263.647 30.2973 263.142 30.1694 262.631C27.7259 263.317 25.356 264.241 23.0933 265.391C20.9463 265.79 18.8258 266.32 16.7441 266.98H16.6702L17.1077 268.482C19.1989 267.813 21.3309 267.28 23.4905 266.886ZM23.1068 265.539C25.3221 264.421 27.6398 263.519 30.0281 262.846L30.3243 264.038C27.9513 264.705 25.651 265.607 23.4569 266.731C21.3339 267.116 19.2377 267.638 17.1817 268.293L16.8451 267.115C18.905 266.462 21.0029 265.936 23.1269 265.539H23.1068Z" fill="#FFE600" stroke="#FFE600" stroke-width="3.36516" stroke-miterlimit="10" stroke-linejoin="round"/>
<path d="M28.807 270.998C27.0557 269.347 25.1061 267.92 23.0032 266.75L23.5755 265.511C25.7103 266.72 27.6926 268.18 29.4803 269.86C29.2513 270.21 29.0292 270.607 28.807 270.998Z" fill="#FFE600" stroke="#FFE600" stroke-width="3.36516" stroke-miterlimit="10" stroke-linejoin="round"/>
<path d="M29.5751 269.848C27.7455 268.121 25.7104 266.627 23.5155 265.397L22.8757 266.784C25.0216 267.975 27.0098 269.429 28.7939 271.114C29.07 270.676 29.3125 270.265 29.5751 269.848ZM23.6098 265.626C25.6965 266.815 27.6374 268.243 29.3933 269.882C29.1913 270.205 28.9892 270.555 28.7939 270.885C27.074 269.268 25.1637 267.866 23.1049 266.71L23.6098 265.626Z" fill="#FFE600" stroke="#FFE600" stroke-width="3.36516" stroke-miterlimit="10" stroke-linejoin="round"/>
<path d="M-19.2614 275.706L-19.5281 274.337C-16.9697 273.899 -14.3677 273.771 -11.7786 273.958C-10.3612 273.706 -8.9307 273.535 -7.49412 273.444C-6.76789 273.384 -6.06658 273.393 -5.33258 273.378C-4.59858 273.363 -3.84956 273.345 -3.11883 273.415L-3.06802 274.843C-4.50285 274.749 -5.99963 274.842 -7.40031 274.873C-8.11571 274.925 -8.84062 275.009 -9.54 275.082L-10.5884 275.204C-10.9375 275.253 -11.3181 275.35 -11.6376 275.394L-13.5421 275.287L-15.456 275.337L-16.4096 275.372L-17.3557 275.486C-18.0092 275.542 -18.64 275.606 -19.2614 275.706Z" fill="#31CFF4" stroke="#31CFF4" stroke-width="3.36516" stroke-miterlimit="10" stroke-linejoin="round"/>
<path d="M-11.6593 275.453C-11.3074 275.386 -10.9378 275.297 -10.5956 275.261L-9.54719 275.139C-8.83839 275.067 -8.10249 274.975 -7.37909 274.934C-5.95275 274.893 -4.44818 274.81 -2.99451 274.908L-3.04422 273.312C-3.76835 273.261 -4.53195 273.281 -5.26854 273.282C-6.00513 273.282 -6.72439 273.295 -7.46003 273.353C-8.9099 273.443 -10.3532 273.615 -11.7833 273.87C-14.3773 273.682 -16.9849 273.811 -19.5479 274.253L-19.6366 274.268L-19.3373 275.805C-18.7091 275.693 -18.08 275.638 -17.4411 275.55L-16.4841 275.429C-16.1635 275.41 -15.8458 275.409 -15.5306 275.394L-13.5923 275.342L-11.6593 275.453ZM-11.7806 274.044C-10.3797 273.792 -8.96528 273.621 -7.54465 273.533C-6.82243 273.468 -6.12637 273.481 -5.39637 273.46C-4.66637 273.439 -3.93231 273.424 -3.22701 273.472L-3.17888 274.726L-4.25059 274.681L-5.34136 274.7L-7.47352 274.761C-8.18491 274.819 -8.8991 274.895 -9.58907 274.969L-10.6226 275.089C-10.9772 275.142 -11.3197 275.211 -11.6662 275.274L-13.5522 275.17L-15.4513 275.218L-16.39 275.251L-17.3306 275.36L-19.1961 275.6L-19.4249 274.396C-16.9049 273.979 -14.3439 273.865 -11.7967 274.056L-11.7806 274.044Z" fill="#31CFF4" stroke="#31CFF4" stroke-width="3.36516" stroke-miterlimit="10" stroke-linejoin="round"/>
<path d="M57.8158 278.238L57.2165 276.972C59.5137 275.914 61.8968 275.054 64.3399 274.4C66.7834 273.039 69.3164 271.844 71.9213 270.825L72.5002 272.111C69.8892 273.128 67.3517 274.325 64.9057 275.693C62.4732 276.334 60.1008 277.186 57.8158 278.238Z" fill="#31CFF4" stroke="#31CFF4" stroke-width="3.36516" stroke-miterlimit="10" stroke-linejoin="round"/>
<path d="M64.9281 275.773C67.4023 274.387 69.9716 273.179 72.6169 272.157L71.9437 270.71C69.3106 271.74 66.7507 272.948 64.2817 274.325C61.8349 274.974 59.4493 275.835 57.1518 276.897L57.0709 276.897L57.7442 278.311C60.0614 277.26 62.4649 276.411 64.9281 275.773ZM64.3692 274.48C66.7892 273.131 69.2971 271.945 71.8763 270.932L72.3881 272.063C69.8051 273.072 67.2945 274.258 64.8742 275.611C62.4688 276.248 60.1218 277.089 57.8586 278.123L57.3336 277.012C59.6029 275.97 61.9565 275.123 64.3692 274.48Z" fill="#31CFF4" stroke="#31CFF4" stroke-width="3.36516" stroke-miterlimit="10" stroke-linejoin="round"/>
<path d="M71.7338 279.187C69.3735 277.829 66.9083 276.663 64.3615 275.699L64.9069 274.393C67.4904 275.384 69.9894 276.582 72.3801 277.975L71.7338 279.187Z" fill="#31CFF4" stroke="#31CFF4" stroke-width="3.36516" stroke-miterlimit="10" stroke-linejoin="round"/>
<path d="M72.4976 277.941C70.0571 276.513 67.5033 275.288 64.8623 274.278L64.2498 275.753C66.8511 276.724 69.3666 277.911 71.7704 279.301L72.4976 277.941ZM64.9566 274.501C67.4846 275.473 69.9319 276.644 72.2753 278.002L71.7095 279.072C69.3906 277.744 66.9705 276.6 64.4717 275.652L64.9566 274.501Z" fill="#31CFF4" stroke="#31CFF4" stroke-width="3.36516" stroke-miterlimit="10" stroke-linejoin="round"/>
<path d="M132.041 273.822L131.705 272.473C132.859 272.193 134.03 271.936 135.2 271.666C136.369 271.397 137.566 271.245 138.753 271.034C141.248 269.945 143.804 269.001 146.408 268.207L146.871 269.54C145.524 269.924 144.212 270.39 142.928 270.865C141.645 271.339 140.374 271.88 139.152 272.392C137.95 272.558 136.759 272.818 135.572 273.029C134.386 273.24 133.212 273.559 132.041 273.822Z" fill="#31CFF4" stroke="#31CFF4" stroke-width="3.36516" stroke-miterlimit="10" stroke-linejoin="round"/>
<path d="M139.171 272.471C140.446 271.95 141.712 271.376 142.999 270.927L144.973 270.22C145.617 269.996 146.315 269.804 146.995 269.594L146.483 268.098C143.85 268.899 141.266 269.85 138.742 270.947C137.549 271.16 136.363 271.371 135.189 271.58C134.016 271.789 132.847 272.099 131.694 272.38L131.608 272.395L131.994 273.913C133.169 273.635 134.357 273.355 135.556 273.101C136.755 272.846 137.951 272.647 139.171 272.471ZM138.772 271.113C141.246 270.039 143.778 269.104 146.357 268.312L146.764 269.485C144.166 270.27 141.619 271.213 139.135 272.306C137.941 272.478 136.769 272.728 135.595 272.937C134.422 273.146 133.261 273.461 132.104 273.722L131.809 272.53L135.26 271.745C136.427 271.537 137.596 271.308 138.772 271.113Z" fill="#31CFF4" stroke="#31CFF4" stroke-width="3.36516" stroke-miterlimit="10" stroke-linejoin="round"/>
<path d="M145.509 276.525C144.434 275.752 143.314 275.069 142.165 274.337C141.016 273.605 139.873 272.988 138.626 272.321L139.291 271.101C141.697 272.378 144.023 273.803 146.253 275.367L145.509 276.525Z" fill="#31CFF4" stroke="#31CFF4" stroke-width="3.36516" stroke-miterlimit="10" stroke-linejoin="round"/>
<path d="M146.369 275.348C145.254 274.541 144.104 273.809 142.921 273.076C141.737 272.343 140.511 271.679 139.26 270.992L138.513 272.363C139.756 273.045 140.962 273.712 142.128 274.421C143.293 275.13 144.436 275.863 145.534 276.653L146.369 275.348ZM139.327 271.213C141.683 272.466 143.96 273.863 146.144 275.395L145.491 276.414C144.433 275.652 143.336 274.986 142.209 274.263C141.082 273.54 139.922 272.94 138.738 272.282L139.327 271.213Z" fill="#31CFF4" stroke="#31CFF4" stroke-width="3.36516" stroke-miterlimit="10" stroke-linejoin="round"/>
<path d="M92.232 266.431L91.6665 265.159C92.6428 264.667 93.6863 264.257 94.6693 263.812C95.6523 263.368 96.6892 263.031 97.7598 262.648C98.7697 261.914 99.82 261.301 100.891 260.58C101.961 259.86 103.059 259.295 104.176 258.648L104.849 259.894C103.712 260.506 102.614 261.186 101.53 261.826C100.446 262.466 99.4025 263.173 98.3859 263.913C96.2901 264.639 94.2357 265.48 92.232 266.431Z" fill="#FFE600" stroke="#FFE600" stroke-width="3.36516" stroke-miterlimit="10" stroke-linejoin="round"/>
<path d="M98.414 264.042C99.4441 263.321 100.508 262.634 101.592 261.927C102.676 261.22 103.807 260.581 104.958 259.982L104.245 258.588C103.114 259.261 102.003 259.86 100.919 260.527C99.8346 261.193 98.7776 261.874 97.7609 262.614C96.7241 263.005 95.6737 263.341 94.6705 263.786C93.6673 264.23 92.6507 264.614 91.6677 265.099L91.6003 265.132L92.2332 266.56C94.2466 265.61 96.3099 264.769 98.414 264.042ZM97.8215 262.776C98.818 262.049 99.8413 261.429 100.919 260.722C101.996 260.015 103.073 259.457 104.177 258.81L104.743 259.908C103.619 260.52 102.528 261.187 101.457 261.82C100.387 262.453 99.3566 263.166 98.3534 263.887C96.2903 264.595 94.2674 265.415 92.2938 266.344L91.8024 265.22C93.7515 264.291 95.7495 263.468 97.7878 262.756L97.8215 262.776Z" fill="#FFE600" stroke="#FFE600" stroke-width="3.36516" stroke-miterlimit="10" stroke-linejoin="round"/>
<path d="M104.772 267.039C102.533 265.882 100.229 264.856 97.8706 263.968L98.2544 262.622C99.4798 263.093 100.671 263.591 101.83 264.089C102.988 264.588 104.139 265.167 105.25 265.739C105.088 266.183 104.927 266.608 104.772 267.039Z" fill="#FFE600" stroke="#FFE600" stroke-width="3.36516" stroke-miterlimit="10" stroke-linejoin="round"/>
<path d="M105.34 265.733C104.209 265.133 103.051 264.602 101.853 264.043C100.654 263.484 99.4491 263.019 98.2035 262.541L97.7727 264.023C100.177 264.925 102.527 265.968 104.809 267.147C104.984 266.669 105.145 266.197 105.34 265.733ZM98.3045 262.75C99.4963 263.215 100.668 263.706 101.799 264.191C102.93 264.676 104.061 265.255 105.165 265.807L104.748 266.924C102.55 265.797 100.291 264.793 97.9814 263.915L98.3045 262.75Z" fill="#FFE600" stroke="#FFE600" stroke-width="3.36516" stroke-miterlimit="10" stroke-linejoin="round"/>
<path d="M168.863 261.785L168.404 260.471C169.418 260.061 170.492 259.738 171.508 259.376C172.524 259.014 173.585 258.764 174.684 258.469C175.751 257.821 176.848 257.297 177.974 256.667C179.1 256.037 180.24 255.564 181.408 255.012L181.976 256.308C180.792 256.825 179.642 257.413 178.509 257.961C177.376 258.509 176.278 259.128 175.204 259.782C173.055 260.333 170.939 261.002 168.863 261.785Z" fill="#FFE600" stroke="#FFE600" stroke-width="3.36516" stroke-miterlimit="10" stroke-linejoin="round"/>
<path d="M175.219 259.913C176.305 259.28 177.421 258.683 178.56 258.068C179.698 257.452 180.878 256.908 182.075 256.406L181.478 254.958C180.296 255.536 179.139 256.041 178.004 256.616C176.869 257.192 175.759 257.782 174.685 258.437C173.62 258.741 172.545 258.99 171.509 259.35C170.473 259.711 169.428 260.009 168.408 260.411L168.338 260.44L168.852 261.914C170.936 261.133 173.062 260.465 175.219 259.913ZM174.732 258.603C175.785 257.96 176.856 257.427 177.988 256.811C179.12 256.195 180.239 255.727 181.393 255.174L181.866 256.314C180.695 256.832 179.553 257.407 178.434 257.949C177.315 258.492 176.23 259.118 175.171 259.754C173.057 260.29 170.973 260.941 168.93 261.704L168.533 260.543C170.552 259.778 172.61 259.122 174.7 258.58L174.732 258.603Z" fill="#FFE600" stroke="#FFE600" stroke-width="3.36516" stroke-miterlimit="10" stroke-linejoin="round"/>
<path d="M181.309 263.422C179.173 262.085 176.961 260.874 174.684 259.795L175.177 258.484C176.36 259.055 177.506 259.649 178.62 260.241C179.733 260.833 180.833 261.505 181.893 262.167C181.695 262.596 181.499 263.006 181.309 263.422Z" fill="#FFE600" stroke="#FFE600" stroke-width="3.36516" stroke-miterlimit="10" stroke-linejoin="round"/>
<path d="M181.988 262.168C180.91 261.477 179.799 260.852 178.651 260.197C177.502 259.541 176.339 258.979 175.137 258.4L174.586 259.841C176.908 260.938 179.164 262.17 181.341 263.533C181.555 263.071 181.755 262.615 181.988 262.168ZM175.221 258.616C176.37 259.177 177.497 259.764 178.585 260.34C179.672 260.916 180.752 261.586 181.807 262.227L181.299 263.307C179.201 262.002 177.032 260.815 174.803 259.751L175.221 258.616Z" fill="#FFE600" stroke="#FFE600" stroke-width="3.36516" stroke-miterlimit="10" stroke-linejoin="round"/>
</g>
<defs>
<clipPath id="clip0_1_29">
<rect width="300" height="300" fill="white"/>
</clipPath>
</defs>
</svg>
