<svg width="300" height="300" viewBox="0 0 300 300" fill="none" xmlns="http://www.w3.org/2000/svg">
<g clip-path="url(#clip0_1_31)">
<rect width="300" height="300" fill="#FFE600"/>
<path d="M223.098 247.931C223.412 251.189 235.588 249.22 241.632 255.74C243.898 258.178 247.563 264.555 248.135 266.122C248.317 266.666 248.656 267.145 249.108 267.498C249.561 267.817 250.098 267.997 250.653 268.014C250.912 268.014 251.17 267.977 251.42 267.905C252.691 267.498 253.16 264.813 253.196 264.601C253.819 260.823 252.81 257.627 252.995 255.379C253.51 248.869 264.162 249.967 273.002 239.467C274.712 237.441 277.08 234.116 280.303 234.132C281.482 234.132 282.908 234.59 285.992 234.601C287.362 234.601 288.299 234.456 288.752 234.493C291.691 234.75 293.509 236.24 299.43 236.673C308.048 237.302 310.617 234.611 313.913 237.049C313.913 237.049 317.795 239.951 320.806 241.127C322.629 241.843 322.557 241.353 323.679 241.951C325.698 243.024 328.22 248.817 328.22 248.817C330.563 254.158 332.236 254.524 331.68 255.869C330.733 258.168 326.017 256.627 322.289 260.426C321.692 261.034 320.276 262.488 320.703 263.828C320.912 264.325 321.257 264.752 321.698 265.061C322.139 265.371 322.658 265.549 323.195 265.575C323.505 265.58 323.812 265.525 324.101 265.416C324.74 265.199 328.102 264.055 328.838 264.828C329.461 265.488 327.747 267.101 327.324 270.797C327.026 273.421 327.705 274.189 328.076 274.473C328.334 274.655 328.627 274.781 328.936 274.844C328.985 274.898 329.046 274.94 329.114 274.967C329.181 274.994 329.255 275.004 329.327 274.998C330.05 274.965 330.742 274.697 331.299 274.235C333.323 272.519 337.663 265.555 341.73 263.168C346.57 260.333 351.157 263.895 353.572 260.715C354.673 259.266 354.998 256.859 353.989 255.421C352.135 252.781 347.744 255.756 342.101 253.524C339.882 252.647 337.776 249.817 333.549 244.147C332.308 242.482 330.728 240.173 331.49 239.07C331.58 238.948 331.692 238.844 331.819 238.761C333.4 237.58 334.007 235.199 334.131 234.822C335.006 232.096 343.862 228.9 346.456 227.853C348.078 227.199 361.511 221.26 367.442 210.229C368.214 208.791 370.176 204.822 371.911 205.111C373.203 205.322 373.172 207.688 375.221 208.611C376.047 208.927 376.942 209.015 377.813 208.864C378.684 208.714 379.498 208.331 380.169 207.755C382.512 205.626 381.08 201.827 382.501 201.255C383.922 200.683 385.508 204.75 389.385 205.894C393.71 207.147 398.081 203.868 398.771 203.317C403.404 199.708 404.47 193.554 404.836 191.435C405.603 186.987 404.655 184.832 406.617 182.306C408.048 180.466 409.305 180.641 411.766 179.064C412.105 178.847 419.766 173.796 419.694 166.29C419.643 160.842 415.545 157.038 414.814 156.357C410.973 152.801 408.393 154.203 406.669 151.754C402.874 146.383 413.66 137.321 410.535 129.006C408.646 123.96 402.4 121.527 398.421 120.975C388.041 119.547 377.312 128.847 372.889 138.409C368.101 148.77 372.426 155.806 366.417 160.765C360.986 165.254 352.099 163.919 351.765 162.631C351.543 161.759 355.224 161.043 356.656 157.476C357.314 155.698 357.355 153.75 356.774 151.945C355.744 148.62 352.969 146.754 351.811 146.001C341.885 139.558 316.497 139.275 305.814 128.249C293.833 115.877 297.442 86.9851 289.117 80.186C288.602 79.7891 286.409 78.088 286.703 76.3354C287.068 74.1395 290.94 74.2735 293.653 71.7838C298.235 67.5981 298.287 57.1341 293.823 53.5258C289.884 50.335 284.18 53.9227 282.553 51.4639C280.159 47.8246 292.268 39.608 290.111 32.1594C288.798 27.6027 282.29 23.8346 276.92 25.3346C272.359 26.6078 269.326 31.3914 269.053 35.2832C268.894 37.5771 269.676 39.8091 269.172 39.9895C268.667 40.1699 267.921 37.8245 266.083 36.3245C263.354 34.0822 258.875 34.2626 256.445 35.2935C247.857 38.9018 244.181 58.2372 251.255 66.6187C253.546 69.3404 256.918 70.8456 256.527 73.0725C256.167 75.1343 253.144 74.9385 249.412 77.2736C241.689 82.1138 242.868 90.2274 235.433 93.1862C235.176 93.2893 234.872 93.3821 234.872 93.3821C233.597 93.8141 232.288 94.1382 230.959 94.3511C229.271 94.6501 221.718 95.9646 221.177 98.8151C220.904 100.191 222.377 101.614 225.327 104.46C228.416 107.413 229.163 107.181 230.079 108.583C232.077 111.614 230.321 115.635 228.241 122.063C226.696 126.779 225.806 131.687 224.318 136.414C220.611 148.151 219.684 178.682 235.3 197.791C241.004 204.765 249.613 215.317 256.46 219.781C257.567 220.513 260.064 222.034 261.717 225.08C262.154 225.889 264.584 229.817 263.895 234.132C262.649 241.967 251.775 247.622 246.359 245.152C241.601 242.987 240.762 236.498 237.091 236.833C235.191 237.008 232.972 239.075 233.101 240.323C233.119 240.863 233.216 241.398 233.389 241.91C233.529 242.282 233.612 242.673 233.637 243.07C233.62 243.136 233.599 243.202 233.575 243.266C233.287 243.957 229.744 243.426 227.474 244.029C225.409 244.575 222.959 246.482 223.098 247.931Z" fill="#FC565D"/>
</g>
<defs>
<clipPath id="clip0_1_31">
<rect width="300" height="300" fill="white"/>
</clipPath>
</defs>
</svg>
