<svg width="300" height="300" viewBox="0 0 300 300" fill="none" xmlns="http://www.w3.org/2000/svg">
<rect width="300" height="300" fill="#31CFF4"/>
<path d="M63.0276 247.892C63.3495 251.148 75.7922 249.181 81.9856 255.698C84.302 258.138 88.053 264.512 88.6339 266.082C88.8222 266.623 89.1676 267.1 89.6278 267.452C90.0967 267.778 90.6553 267.957 91.2302 267.966C91.4955 267.967 91.7596 267.93 92.0141 267.857C93.3157 267.445 93.7917 264.773 93.8267 264.553C94.4705 260.77 93.4347 257.583 93.6237 255.335C94.1835 248.824 105.045 249.921 114.079 239.421C115.829 237.365 118.278 234.069 121.539 234.083C122.75 234.083 124.206 234.542 127.362 234.555C128.762 234.555 129.72 234.405 130.161 234.446C133.17 234.706 135.018 236.193 141.071 236.625C149.889 237.256 152.513 234.569 155.88 237.002C155.88 237.002 159.848 239.901 162.927 241.114C164.795 241.8 164.718 241.34 165.866 241.937C167.965 243.013 170.513 248.79 170.513 248.79C172.906 254.129 174.614 254.499 174.047 255.842C173.074 258.145 168.245 256.603 164.445 260.4C163.837 261.01 162.388 262.456 162.822 263.827C163.035 264.324 163.387 264.751 163.838 265.061C164.289 265.37 164.82 265.548 165.369 265.574C165.687 265.582 166.003 265.528 166.3 265.417C166.951 265.197 170.394 264.046 171.136 264.827C171.878 265.609 170.03 267.103 169.596 270.797C169.288 273.422 169.988 274.224 170.366 274.47C170.627 274.653 170.925 274.78 171.241 274.84C171.289 274.896 171.351 274.939 171.421 274.967C171.49 274.994 171.565 275.005 171.64 274.998C172.38 274.964 173.089 274.697 173.662 274.237C175.761 272.517 180.163 265.554 184.32 263.169C189.268 260.338 193.957 263.895 196.427 260.715C197.554 259.269 197.883 256.864 196.854 255.424C194.958 252.786 190.465 255.76 184.698 253.526C182.431 252.649 180.275 249.818 175.957 244.15C174.691 242.485 173.074 240.175 173.858 239.072C173.952 238.952 174.065 238.847 174.194 238.763C175.81 237.578 176.433 235.2 176.559 234.823C177.455 232.081 186.504 228.901 189.156 227.853C190.808 227.167 204.552 221.26 210.605 210.232C211.396 208.793 213.405 204.825 215.175 205.113C216.498 205.325 216.463 207.703 218.562 208.615C219.407 208.929 220.322 209.016 221.212 208.865C222.102 208.714 222.935 208.332 223.622 207.758C226.016 205.627 224.553 201.83 226.001 201.254C227.45 200.678 229.074 204.749 233.042 205.88C237.465 207.128 241.929 203.824 242.636 203.317C247.381 199.705 248.466 193.551 248.837 191.433C249.62 186.985 248.655 184.826 250.656 182.297C252.126 180.467 253.406 180.639 255.926 179.056C256.276 178.843 264.107 173.792 264.03 166.287C263.981 160.805 259.789 157.035 259.047 156.357C255.114 152.793 252.483 154.198 250.712 151.751C246.835 146.378 257.864 137.359 254.673 129.004C252.735 123.953 246.352 121.52 242.286 120.972C231.67 119.546 220.69 128.847 216.176 138.401C211.277 148.77 215.707 155.802 209.563 160.764C204.013 165.246 194.923 163.916 194.587 162.628C194.356 161.757 198.086 161.038 199.59 157.488C200.258 155.708 200.3 153.762 199.709 151.957C198.666 148.633 195.818 146.769 194.629 146.015C184.481 139.572 158.532 139.285 147.608 128.257C135.361 115.921 139.049 86.9991 130.539 80.2004C130.035 79.7961 127.74 78.1032 128.069 76.3419C128.447 74.1556 132.401 74.2858 135.179 71.798C139.861 67.6105 139.896 57.1452 135.354 53.5402C131.323 50.3465 125.493 53.9377 123.828 51.4841C121.378 47.8381 133.758 39.6344 131.526 32.1777C130.182 27.6202 123.527 23.8507 118.04 25.3242C113.379 26.599 110.279 31.3827 109.999 35.2687C109.838 37.5646 110.636 39.7989 110.118 39.9771C109.601 40.1553 108.838 37.8114 106.969 36.3104C104.17 34.0693 99.6211 34.2544 97.1158 35.2687C88.34 38.8736 84.5819 58.2143 91.8111 66.5962C94.1555 69.3376 97.6125 70.8248 97.2067 73.0522C96.8357 75.1082 93.7496 74.9163 89.9286 77.2534C82.0137 82.092 83.2384 90.2066 75.6384 93.1673L75.0645 93.366C73.7594 93.7997 72.4207 94.1298 71.0615 94.353C69.3329 94.6477 61.6139 95.9635 61.033 98.8146C60.7531 100.185 62.2578 101.611 65.274 104.462C68.4092 107.416 69.1929 107.203 70.1307 108.574C72.1742 111.603 70.3827 115.626 68.2482 122.055C66.6876 126.77 65.7639 131.65 64.2383 136.406C60.4523 148.146 59.5005 178.672 75.4704 197.786C81.2999 204.756 90.1036 215.29 97.1018 219.772C99.3381 221.044 101.192 222.872 102.476 225.07C102.924 225.879 105.409 229.813 104.709 234.124C103.428 241.957 92.315 247.611 86.7794 245.144C81.8807 242.978 81.0549 236.488 77.3249 236.824C75.3794 236.995 73.1259 239.065 73.2449 240.312C73.2628 240.851 73.362 241.385 73.5389 241.895C73.6802 242.27 73.765 242.662 73.7908 243.061C73.7759 243.129 73.755 243.195 73.7279 243.259C73.434 243.945 69.8088 243.417 67.4924 244.02C65.3929 244.534 62.8877 246.439 63.0276 247.892Z" stroke="#FFE600" stroke-width="3" stroke-linecap="round" stroke-linejoin="round" stroke-dasharray="5 5"/>
</svg>
