<svg width="300" height="300" viewBox="0 0 300 300" fill="none" xmlns="http://www.w3.org/2000/svg">
<rect width="300" height="300" fill="#31CFF4"/>
<path d="M233.846 162.279C189.451 128.164 242.232 100.987 209.516 55.4154C182.743 18.1473 77.2595 29.57 49.257 108.967C-16.5896 320.757 343.525 296.081 233.846 162.279ZM206.537 234.58C178.899 234.25 196.675 178.29 222.228 186.779C236.987 191.571 233.912 234.548 206.528 234.58L206.537 234.58Z" fill="white" stroke="#F5F5F5" stroke-width="2"/>
<path d="M179.352 76.6098C170.718 98.0725 132.241 79.8689 141.618 59.8841C150.994 39.8992 186.364 59.2264 179.352 76.6098Z" fill="#31CFF4" stroke="white" stroke-width="7"/>
<path d="M124.585 86.0376C131.276 108.193 89.8927 118.064 84.6889 96.6267C79.485 75.1891 119.181 68.098 124.585 86.0376Z" fill="#FFE600" stroke="#FFE600" stroke-width="7"/>
<path d="M106.908 142.797C114.343 167.424 68.3402 178.411 62.5618 154.567C56.7833 130.723 100.859 122.852 106.908 142.797Z" fill="#FDB157" stroke="#FDB157" stroke-width="7"/>
<path d="M126.353 201.86C133.788 226.487 87.7901 237.47 82.0071 213.626C76.2241 189.782 120.331 181.913 126.353 201.86Z" fill="#FC565D" stroke="#FC565D" stroke-width="7"/>
<path d="M174.569 228.363C180.924 249.407 141.618 258.793 136.681 238.421C131.743 218.048 169.424 211.319 174.569 228.363Z" fill="#FFE600" stroke="#FFE600" stroke-width="7"/>
</svg>
