<svg width="300" height="300" viewBox="0 0 300 300" fill="none" xmlns="http://www.w3.org/2000/svg">
<rect width="300" height="300" fill="#FC565D"/>
<circle cx="250.5" cy="59.5" r="22.5" fill="#FFE600"/>
<circle cx="250.5" cy="119.5" r="22.5" fill="#31CFF4"/>
<circle cx="250.5" cy="179.5" r="22.5" fill="#FDB157"/>
<circle cx="250.5" cy="239.5" r="22" fill="white" stroke="#050505"/>
<path d="M40.5621 220.345C40.8133 222.951 50.5543 221.376 55.3898 226.592C57.2021 228.543 60.1347 233.644 60.5919 234.897C60.7377 235.333 61.0085 235.716 61.3704 235.999C61.7332 236.254 62.1627 236.397 62.606 236.411C62.8136 236.411 63.0202 236.382 63.2197 236.324C64.2371 235.999 64.6119 233.85 64.6407 233.681C65.1391 230.658 64.3318 228.102 64.4801 226.304C64.892 221.095 73.4138 221.974 80.4858 213.573C81.8533 211.953 83.748 209.293 86.3264 209.305C87.2696 209.305 88.4105 209.672 90.8777 209.681C91.9733 209.681 92.7229 209.565 93.0853 209.594C95.4372 209.8 96.8911 210.992 101.628 211.338C108.523 211.841 110.578 209.689 113.214 211.639C113.214 211.639 116.32 213.961 118.729 214.901C120.187 215.475 120.13 215.083 121.027 215.561C122.642 216.419 124.66 221.054 124.66 221.054C126.534 225.326 127.873 225.619 127.428 226.695C126.67 228.535 122.897 227.302 119.915 230.341C119.438 230.827 118.305 231.99 118.647 233.062C118.814 233.46 119.09 233.802 119.442 234.049C119.795 234.296 120.21 234.439 120.64 234.46C120.888 234.464 121.134 234.42 121.365 234.333C121.876 234.159 124.566 233.244 125.155 233.862C125.653 234.39 124.281 235.681 123.944 238.638C123.705 240.737 124.248 241.351 124.545 241.578C124.751 241.724 124.985 241.825 125.233 241.875C125.272 241.918 125.321 241.952 125.375 241.973C125.429 241.995 125.488 242.004 125.546 241.999C126.124 241.972 126.677 241.758 127.123 241.388C128.742 240.015 132.214 234.444 135.468 232.535C139.34 230.267 143.01 233.116 144.941 230.572C145.823 229.413 146.082 227.487 145.275 226.337C143.792 224.225 140.279 226.605 135.765 224.819C133.989 224.118 132.305 221.854 128.923 217.318C127.931 215.986 126.666 214.138 127.276 213.256C127.348 213.159 127.438 213.075 127.539 213.009C128.804 212.064 129.29 210.159 129.389 209.858C130.089 207.676 137.173 205.12 139.249 204.283C140.547 203.759 151.293 199.008 156.037 190.183C156.655 189.033 158.225 185.858 159.613 186.088C160.646 186.258 160.622 188.15 162.261 188.889C162.921 189.142 163.637 189.212 164.334 189.092C165.031 188.971 165.682 188.664 166.219 188.204C168.093 186.501 166.948 183.462 168.085 183.004C169.222 182.546 170.49 185.8 173.592 186.715C177.052 187.717 180.549 185.095 181.101 184.653C184.807 181.767 185.66 176.843 185.953 175.148C186.566 171.589 185.808 169.866 187.378 167.845C188.523 166.373 189.528 166.513 191.496 165.251C191.768 165.078 197.897 161.037 197.839 155.032C197.798 150.674 194.52 147.63 193.935 147.086C190.862 144.24 188.799 145.362 187.419 143.403C184.383 139.106 193.012 131.857 190.512 125.205C189 121.168 184.004 119.221 180.82 118.78C172.517 117.638 163.933 125.077 160.395 132.727C156.565 141.016 160.025 146.645 155.218 150.612C150.872 154.203 143.763 153.135 143.496 152.104C143.319 151.408 146.264 150.834 147.409 147.981C147.935 146.558 147.968 145 147.503 143.556C146.679 140.896 144.459 139.403 143.533 138.801C135.592 133.646 115.282 133.42 106.735 124.599C97.1506 114.702 100.038 91.588 93.3778 86.1488C92.9659 85.8312 91.2113 84.4704 91.4461 83.0683C91.7385 81.3116 94.8358 81.4188 97.0065 79.427C100.672 76.0785 100.713 67.7073 97.1424 64.8206C93.9915 62.268 89.4278 65.1381 88.1263 63.1711C86.211 60.2597 95.8985 53.6864 94.1727 47.7276C93.1224 44.0821 87.9162 41.0677 83.6203 42.2677C79.971 43.2863 77.545 47.1131 77.3267 50.2266C77.199 52.0616 77.8251 53.8472 77.4214 53.9916C77.0178 54.1359 76.4206 52.2596 74.9501 51.0596C72.7672 49.2657 69.1838 49.4101 67.2397 50.2348C60.3695 53.1215 57.4286 68.5897 63.0879 75.295C64.9208 77.4724 67.6186 78.6765 67.3056 80.458C67.0173 82.1075 64.5995 81.9508 61.6134 83.8188C55.4352 87.6911 56.3784 94.1819 50.4308 96.5489C50.2248 96.6314 49.9818 96.7056 49.9818 96.7056C48.9619 97.0513 47.9148 97.3106 46.8515 97.4809C45.5005 97.7201 39.4582 98.7717 39.0257 101.052C38.8074 102.153 39.9854 103.291 42.3455 105.568C44.8168 107.931 45.414 107.745 46.1472 108.867C47.7453 111.291 46.3408 114.508 44.6768 119.65C43.4411 123.424 42.7286 127.349 41.5382 131.131C38.5727 140.521 37.8313 164.946 50.3237 180.233C54.8873 185.812 61.774 194.254 67.2521 197.825C68.1376 198.41 70.1352 199.627 71.4574 202.064C71.8075 202.711 73.7516 205.854 73.1996 209.305C72.2029 215.573 63.5039 220.097 59.1709 218.122C55.3651 216.39 54.6937 211.198 51.757 211.466C50.2372 211.606 48.462 213.26 48.5649 214.258C48.5788 214.69 48.6566 215.118 48.7956 215.528C48.9073 215.826 48.9739 216.139 48.9933 216.456C48.9797 216.509 48.9632 216.561 48.9439 216.613C48.7132 217.165 45.8795 216.741 44.0631 217.223C42.4114 217.66 40.4508 219.186 40.5621 220.345Z" fill="white"/>
</svg>
