<svg width="300" height="300" viewBox="0 0 300 300" fill="none" xmlns="http://www.w3.org/2000/svg">
<rect x="0.75" y="0.75" width="298.5" height="298.5" fill="white"/>
<path d="M90.5621 206.345C90.8133 208.951 100.554 207.376 105.39 212.592C107.202 214.543 110.135 219.644 110.592 220.897C110.738 221.333 111.008 221.716 111.37 221.999C111.733 222.254 112.163 222.397 112.606 222.411C112.814 222.411 113.02 222.382 113.22 222.324C114.237 221.999 114.612 219.85 114.641 219.681C115.139 216.658 114.332 214.102 114.48 212.304C114.892 207.095 123.414 207.974 130.486 199.573C131.853 197.953 133.748 195.293 136.326 195.305C137.27 195.305 138.41 195.672 140.878 195.681C141.973 195.681 142.723 195.565 143.085 195.594C145.437 195.8 146.891 196.992 151.628 197.338C158.523 197.841 160.578 195.689 163.214 197.639C163.214 197.639 166.32 199.961 168.729 200.901C170.187 201.475 170.13 201.083 171.027 201.561C172.642 202.419 174.66 207.054 174.66 207.054C176.534 211.326 177.873 211.619 177.428 212.695C176.67 214.535 172.897 213.302 169.915 216.341C169.438 216.827 168.305 217.99 168.647 219.062C168.814 219.46 169.09 219.802 169.442 220.049C169.795 220.296 170.21 220.439 170.64 220.46C170.888 220.464 171.134 220.42 171.365 220.333C171.876 220.159 174.566 219.244 175.155 219.862C175.653 220.39 174.281 221.681 173.944 224.638C173.705 226.737 174.248 227.351 174.545 227.578C174.751 227.724 174.985 227.825 175.233 227.875C175.272 227.918 175.321 227.952 175.375 227.973C175.429 227.995 175.488 228.004 175.546 227.999C176.124 227.972 176.677 227.758 177.123 227.388C178.742 226.015 182.214 220.444 185.468 218.535C189.34 216.267 193.01 219.116 194.941 216.572C195.823 215.413 196.082 213.487 195.275 212.337C193.792 210.225 190.279 212.605 185.765 210.819C183.989 210.118 182.305 207.854 178.923 203.318C177.931 201.986 176.666 200.138 177.276 199.256C177.348 199.159 177.438 199.075 177.539 199.009C178.804 198.064 179.29 196.159 179.389 195.858C180.089 193.676 187.173 191.12 189.249 190.283C190.547 189.759 201.293 185.008 206.037 176.183C206.655 175.033 208.225 171.858 209.613 172.088C210.646 172.258 210.622 174.15 212.261 174.889C212.921 175.142 213.637 175.212 214.334 175.092C215.031 174.971 215.682 174.664 216.219 174.204C218.093 172.501 216.948 169.462 218.085 169.004C219.222 168.546 220.49 171.8 223.592 172.715C227.052 173.717 230.549 171.095 231.101 170.653C234.807 167.767 235.66 162.843 235.953 161.148C236.566 157.589 235.808 155.866 237.378 153.845C238.523 152.373 239.528 152.513 241.496 151.251C241.768 151.078 247.897 147.037 247.839 141.032C247.798 136.674 244.52 133.63 243.935 133.086C240.862 130.24 238.799 131.362 237.419 129.403C234.383 125.106 243.012 117.857 240.512 111.205C239 107.168 234.004 105.221 230.82 104.78C222.517 103.638 213.933 111.077 210.395 118.727C206.565 127.016 210.025 132.645 205.218 136.612C200.872 140.203 193.763 139.135 193.496 138.104C193.319 137.408 196.264 136.834 197.409 133.981C197.935 132.558 197.968 131 197.503 129.556C196.679 126.896 194.459 125.403 193.533 124.801C185.592 119.646 165.282 119.42 156.735 110.599C147.151 100.702 150.038 77.588 143.378 72.1488C142.966 71.8312 141.211 70.4704 141.446 69.0683C141.738 67.3116 144.836 67.4188 147.006 65.427C150.672 62.0785 150.713 53.7073 147.142 50.8206C143.991 48.268 139.428 51.1381 138.126 49.1711C136.211 46.2597 145.898 39.6864 144.173 33.7276C143.122 30.0821 137.916 27.0677 133.62 28.2677C129.971 29.2863 127.545 33.1131 127.327 36.2266C127.199 38.0616 127.825 39.8472 127.421 39.9916C127.018 40.1359 126.421 38.2596 124.95 37.0596C122.767 35.2657 119.184 35.4101 117.24 36.2348C110.369 39.1215 107.429 54.5897 113.088 61.295C114.921 63.4724 117.619 64.6765 117.306 66.458C117.017 68.1075 114.6 67.9508 111.613 69.8188C105.435 73.6911 106.378 80.1819 100.431 82.5489C100.225 82.6314 99.9818 82.7056 99.9818 82.7056C98.9619 83.0513 97.9148 83.3106 96.8515 83.4809C95.5005 83.7201 89.4582 84.7717 89.0257 87.0521C88.8074 88.1532 89.9854 89.2913 92.3455 91.5676C94.8168 93.9306 95.414 93.745 96.1472 94.8667C97.7453 97.2914 96.3408 100.508 94.6768 105.65C93.4411 109.424 92.7286 113.349 91.5382 117.131C88.5727 126.521 87.8313 150.946 100.324 166.233C104.887 171.812 111.774 180.254 117.252 183.825C118.138 184.41 120.135 185.627 121.457 188.064C121.807 188.711 123.752 191.854 123.2 195.305C122.203 201.573 113.504 206.097 109.171 204.122C105.365 202.39 104.694 197.198 101.757 197.466C100.237 197.606 98.462 199.26 98.5649 200.258C98.5788 200.69 98.6566 201.118 98.7956 201.528C98.9073 201.826 98.9739 202.139 98.9933 202.456C98.9797 202.509 98.9632 202.561 98.9439 202.613C98.7132 203.165 95.8795 202.741 94.0631 203.223C92.4114 203.66 90.4508 205.186 90.5621 206.345Z" fill="#FC565D"/>
<path d="M94.0765 203.194C95.8929 202.712 98.7266 203.136 98.9573 202.584C98.9772 202.533 98.9937 202.48 99.0067 202.427C98.9873 202.11 98.9207 201.797 98.809 201.499C98.67 201.09 98.5923 200.662 98.5784 200.229C98.4877 199.231 100.251 197.578 101.77 197.437C104.691 197.169 105.362 202.361 109.184 204.093C113.501 206.081 122.2 201.545 123.213 195.293C123.313 194.66 123.338 194.018 123.287 193.38C125.758 194.32 128.283 195.161 130.763 196.093C131.34 196.368 131.904 196.676 132.456 197.017L132.546 197.103L132.6 197.198C131.805 197.982 131.117 198.872 130.54 199.569C123.468 207.969 114.967 207.091 114.535 212.299C114.386 214.097 115.194 216.654 114.695 219.677C114.666 219.85 114.283 221.994 113.274 222.32C113.075 222.378 112.868 222.407 112.661 222.407C112.217 222.393 111.788 222.25 111.425 221.994C111.063 221.712 110.792 221.329 110.647 220.893C110.189 219.656 107.257 214.539 105.444 212.588C100.601 207.371 90.8597 208.947 90.6167 206.341C90.4519 205.186 92.4125 203.66 94.0765 203.194Z" fill="#FFE600"/>
<path d="M177.453 212.679C177.898 211.603 176.559 211.31 174.685 207.038C174.685 207.038 172.667 202.403 171.052 201.545C170.155 201.066 170.229 201.458 168.754 200.885C168.303 200.707 167.861 200.505 167.432 200.279C170.882 199.269 174.386 198.453 177.927 197.833C178.038 197.982 178.149 198.122 178.265 198.246C178.06 198.519 177.819 198.764 177.548 198.972C177.446 199.038 177.357 199.122 177.284 199.219C176.691 200.101 177.956 201.949 178.932 203.281C182.313 207.817 183.998 210.081 185.773 210.782C190.304 212.568 193.801 210.188 195.279 212.3C196.103 213.45 195.831 215.376 194.95 216.535C193.018 219.079 189.348 216.23 185.477 218.498C182.223 220.407 178.751 225.978 177.132 227.351C176.686 227.721 176.132 227.935 175.554 227.962C175.496 227.967 175.438 227.958 175.383 227.937C175.329 227.915 175.28 227.881 175.241 227.838C174.994 227.788 174.76 227.687 174.553 227.541C174.257 227.314 173.73 226.716 173.952 224.601C174.29 221.644 175.661 220.353 175.163 219.825C174.574 219.207 171.868 220.122 171.374 220.296C171.142 220.383 170.896 220.427 170.649 220.423C170.219 220.402 169.803 220.259 169.451 220.012C169.098 219.765 168.822 219.423 168.655 219.025C168.313 217.949 169.446 216.79 169.924 216.304C172.914 213.298 176.695 214.531 177.453 212.679Z" fill="#31CFF4"/>
<circle cx="111" cy="268" r="9.5" transform="rotate(90 111 268)" fill="#FFE600" stroke="#050505"/>
<circle cx="86" cy="268" r="10" transform="rotate(90 86 268)" fill="#31CFF4"/>
<circle cx="61" cy="268" r="10" transform="rotate(90 61 268)" fill="#FDB157"/>
<circle cx="36" cy="268" r="10" transform="rotate(90 36 268)" fill="#FC565D"/>
<circle cx="263" cy="268" r="10" transform="rotate(90 263 268)" fill="#FFE600"/>
<circle cx="238" cy="268" r="9.5" transform="rotate(90 238 268)" fill="#31CFF4" stroke="#050505"/>
<circle cx="213" cy="268" r="10" transform="rotate(90 213 268)" fill="#FDB157"/>
<circle cx="188" cy="268" r="10" transform="rotate(90 188 268)" fill="#FC565D"/>
<rect x="0.75" y="0.75" width="298.5" height="298.5" stroke="black" stroke-width="1.5"/>
</svg>
