<svg width="300" height="300" viewBox="0 0 300 300" fill="none" xmlns="http://www.w3.org/2000/svg">
<rect width="300" height="300" fill="#FC565D"/>
<path d="M21.6768 92.2827C21.7857 93.4121 26.0068 92.7294 28.1022 94.99C28.8875 95.8352 30.1583 98.0457 30.3565 98.5889C30.4196 98.7777 30.537 98.9436 30.6938 99.066C30.851 99.1767 31.0372 99.2388 31.2292 99.2447C31.3192 99.2447 31.4087 99.2321 31.4952 99.2072C31.936 99.066 32.0984 98.135 32.1109 98.0618C32.3269 96.7519 31.9771 95.644 32.0413 94.8649C32.2198 92.6079 35.9126 92.9885 38.9772 89.3485C39.5697 88.6462 40.3908 87.4936 41.508 87.499C41.9168 87.499 42.4112 87.658 43.4803 87.6616C43.955 87.6616 44.2799 87.6116 44.4369 87.6241C45.4561 87.7134 46.0861 88.2299 48.1387 88.38C51.1265 88.598 52.0171 87.6652 53.1594 88.5104C53.1594 88.5104 54.5051 89.5165 55.5493 89.9239C56.1811 90.1723 56.1561 90.0025 56.5452 90.2098C57.2448 90.5815 58.1194 92.59 58.1194 92.59C58.9315 94.4414 59.5116 94.5682 59.3188 95.0346C58.9904 95.8316 57.3555 95.2973 56.0633 96.6143C55.8563 96.8252 55.3654 97.3291 55.5136 97.7937C55.586 97.9659 55.7054 98.1141 55.8583 98.2213C56.0111 98.3284 56.1911 98.3902 56.3774 98.3995C56.4847 98.401 56.5913 98.3822 56.6916 98.3441C56.9129 98.269 58.0784 97.8723 58.3336 98.1404C58.5496 98.3691 57.9552 98.9284 57.8089 100.21C57.7053 101.119 57.9409 101.386 58.0694 101.484C58.1588 101.547 58.2603 101.591 58.3675 101.612C58.3845 101.631 58.4055 101.646 58.4291 101.655C58.4526 101.664 58.4779 101.668 58.5031 101.666C58.7536 101.654 58.9935 101.562 59.1867 101.402C59.8882 100.807 61.3928 98.3923 62.8028 97.565C64.4805 96.5821 66.0708 97.8169 66.9079 96.7144C67.2898 96.2122 67.4023 95.3777 67.0525 94.8792C66.4099 93.9642 64.8875 94.9953 62.9313 94.2216C62.162 93.9178 61.432 92.9367 59.9667 90.9711C59.5366 90.3939 58.9886 89.5933 59.2528 89.2109C59.2843 89.1687 59.3229 89.1324 59.367 89.1037C59.9149 88.6945 60.1256 87.8689 60.1684 87.7384C60.4718 86.7931 63.5417 85.6852 64.4413 85.3224C65.0035 85.0955 69.6601 83.0369 71.7162 79.2128C71.9839 78.7142 72.6639 77.3383 73.2654 77.4383C73.7134 77.5116 73.7027 78.3318 74.4131 78.6517C74.6992 78.7615 75.0095 78.7919 75.3115 78.7397C75.6134 78.6875 75.8956 78.5546 76.1283 78.3551C76.9404 77.617 76.4442 76.3 76.9368 76.1017C77.4294 75.9033 77.9792 77.3133 79.3231 77.71C80.8224 78.1442 82.3377 77.0077 82.5769 76.8165C84.1832 75.5656 84.5527 73.432 84.6794 72.6975C84.9453 71.1554 84.6169 70.4084 85.2969 69.5328C85.7931 68.8948 86.2286 68.9556 87.0818 68.4088C87.1996 68.3337 89.8554 66.5825 89.8304 63.9807C89.8125 62.0919 88.3918 60.7731 88.1384 60.5372C86.8069 59.3042 85.9127 59.7902 85.3148 58.9414C83.9994 57.0794 87.7386 53.9379 86.6552 51.0555C86.0002 49.3061 83.8352 48.4626 82.4555 48.2714C78.8573 47.7764 75.1377 51.0001 73.6046 54.315C71.9447 57.9068 73.4439 60.346 71.361 62.065C69.478 63.6215 66.3974 63.1587 66.2814 62.7119C66.2047 62.4099 67.4808 62.1615 67.977 60.925C68.2051 60.3085 68.2195 59.6332 68.018 59.0075C67.6611 57.8549 66.6991 57.2081 66.2975 56.9472C62.8563 54.7134 54.0554 54.6152 50.3519 50.7928C46.1986 46.5041 47.4497 36.4881 44.5637 34.1311C44.3852 33.9935 43.6249 33.4038 43.7266 32.7963C43.8533 32.035 45.1955 32.0815 46.1361 31.2184C47.7246 29.7674 47.7424 26.1398 46.195 24.8889C44.8296 23.7828 42.852 25.0265 42.288 24.1741C41.4581 22.9125 45.656 20.0641 44.9081 17.4819C44.453 15.9023 42.197 14.596 40.3354 15.116C38.7541 15.5574 37.7028 17.2157 37.6082 18.5648C37.5529 19.36 37.8242 20.1338 37.6493 20.1963C37.4743 20.2589 37.2155 19.4458 36.5784 18.9258C35.6324 18.1485 34.0796 18.211 33.2372 18.5684C30.2601 19.8193 28.9857 26.5222 31.4381 29.4278C32.2323 30.3714 33.4014 30.8931 33.2657 31.6651C33.1408 32.3799 32.0931 32.312 30.7991 33.1215C28.1219 34.7995 28.5306 37.6122 25.9533 38.6379C25.8641 38.6736 25.7587 38.7058 25.7587 38.7058C25.3168 38.8555 24.863 38.9679 24.4023 39.0417C23.8169 39.1454 21.1985 39.601 21.0111 40.5892C20.9165 41.0664 21.427 41.5596 22.4497 42.546C23.5206 43.5699 23.7794 43.4895 24.0971 43.9755C24.7896 45.0263 24.181 46.4201 23.4599 48.6485C22.9244 50.2836 22.6157 51.9847 22.0999 53.6234C20.8148 57.6923 20.4935 68.2765 25.9069 74.9008C27.8845 77.3186 30.8687 80.9765 33.2425 82.5241C33.6263 82.7778 34.4919 83.305 35.0648 84.3611C35.2165 84.6416 36.059 86.0033 35.8198 87.499C35.3879 90.2152 31.6183 92.1755 29.7407 91.3195C28.0915 90.569 27.8006 88.3192 26.528 88.4353C25.8694 88.4961 25.1001 89.2127 25.1448 89.6451C25.1508 89.8325 25.1845 90.018 25.2447 90.1955C25.2931 90.3245 25.322 90.46 25.3304 90.5976C25.3245 90.6206 25.3173 90.6433 25.309 90.6655C25.209 90.9049 23.9811 90.7209 23.194 90.93C22.4782 91.1194 21.6287 91.7806 21.6768 92.2827Z" fill="white"/>
<path d="M23.1996 90.9173C23.9867 90.7082 25.2147 90.8923 25.3146 90.6528C25.3232 90.6307 25.3304 90.608 25.336 90.5849C25.3276 90.4474 25.2988 90.3119 25.2504 90.1828C25.1901 90.0053 25.1564 89.8199 25.1504 89.6325C25.1111 89.2 25.8751 88.4834 26.5337 88.4227C27.7991 88.3065 28.09 90.5563 29.7463 91.3068C31.6168 92.1682 35.3864 90.2025 35.8255 87.4935C35.8688 87.2193 35.8796 86.941 35.8576 86.6643C36.9285 87.0717 38.0226 87.4363 39.097 87.8401C39.3469 87.9593 39.5914 88.0927 39.8306 88.2404L39.8699 88.2779L39.8931 88.319C39.5486 88.6586 39.2505 89.0445 39.0007 89.3465C35.9361 92.9866 32.2522 92.606 32.0648 94.8629C32.0006 95.642 32.3504 96.75 32.1344 98.0598C32.1219 98.1349 31.956 99.0641 31.5187 99.2053C31.4322 99.2301 31.3427 99.2427 31.2527 99.2428C31.0606 99.2369 30.8745 99.1748 30.7173 99.0641C30.5605 98.9417 30.4431 98.7757 30.38 98.587C30.1818 98.0509 28.911 95.8332 28.1257 94.988C26.0268 92.7275 21.8056 93.4101 21.7003 92.2807C21.629 91.7804 22.4785 91.1192 23.1996 90.9173Z" fill="#FDB157"/>
<path d="M59.3294 95.0276C59.5222 94.5612 58.9421 94.4343 58.13 92.583C58.13 92.583 57.2554 90.5744 56.5558 90.2028C56.1667 89.9955 56.1988 90.1652 55.5599 89.9168C55.3642 89.8398 55.173 89.7521 54.9869 89.6542C56.482 89.2167 58.0003 88.8629 59.5347 88.5945C59.5829 88.6588 59.631 88.7196 59.681 88.7732C59.5924 88.8917 59.4879 88.9976 59.3705 89.0877C59.3264 89.1164 59.2877 89.1527 59.2562 89.1949C58.9992 89.5773 59.5472 90.3779 59.9702 90.9551C61.4355 92.9207 62.1655 93.9018 62.9348 94.2056C64.8981 94.9793 66.4134 93.9482 67.0541 94.8632C67.4111 95.3617 67.2933 96.1962 66.9113 96.6984C66.0743 97.8009 64.484 96.5662 62.8063 97.549C61.3962 98.3764 59.8916 100.791 59.1902 101.386C58.997 101.546 58.7571 101.638 58.5066 101.65C58.4814 101.652 58.456 101.648 58.4325 101.639C58.409 101.63 58.3879 101.615 58.371 101.596C58.2638 101.575 58.1623 101.531 58.0729 101.468C57.9444 101.37 57.7159 101.11 57.8123 100.194C57.9587 98.9124 58.553 98.3531 58.337 98.1244C58.0818 97.8563 56.9092 98.253 56.695 98.3281C56.5947 98.3662 56.4881 98.385 56.3809 98.3835C56.1945 98.3742 56.0146 98.3125 55.8617 98.2053C55.7089 98.0981 55.5894 97.9499 55.517 97.7777C55.3689 97.3113 55.8597 96.8092 56.0668 96.5983C57.3625 95.2956 59.001 95.8299 59.3294 95.0276Z" fill="#31CFF4"/>
<path d="M22.5435 183.949C22.6524 185.079 26.8735 184.396 28.9689 186.657C29.7542 187.502 31.025 189.712 31.2232 190.256C31.2863 190.444 31.4037 190.61 31.5605 190.733C31.7177 190.843 31.9039 190.905 32.0959 190.911C32.1859 190.911 32.2754 190.899 32.3619 190.874C32.8027 190.733 32.9651 189.802 32.9776 189.728C33.1936 188.419 32.8438 187.311 32.908 186.531C33.0865 184.275 36.7793 184.655 39.8439 181.015C40.4364 180.313 41.2575 179.16 42.3747 179.166C42.7835 179.166 43.2779 179.325 44.347 179.328C44.8217 179.328 45.1466 179.278 45.3036 179.291C46.3228 179.38 46.9528 179.896 49.0054 180.047C51.9932 180.265 52.8838 179.332 54.0261 180.177C54.0261 180.177 55.3718 181.183 56.416 181.591C57.0478 181.839 57.0228 181.669 57.4119 181.876C58.1115 182.248 58.9861 184.257 58.9861 184.257C59.7982 186.108 60.3783 186.235 60.1855 186.701C59.8571 187.498 58.2222 186.964 56.93 188.281C56.723 188.492 56.2321 188.996 56.3803 189.46C56.4527 189.633 56.5721 189.781 56.725 189.888C56.8778 189.995 57.0578 190.057 57.2441 190.066C57.3514 190.068 57.458 190.049 57.5583 190.011C57.7796 189.936 58.9451 189.539 59.2003 189.807C59.4163 190.036 58.8219 190.595 58.6756 191.876C58.572 192.786 58.8076 193.052 58.9361 193.15C59.0255 193.214 59.127 193.257 59.2342 193.279C59.2512 193.298 59.2722 193.312 59.2958 193.322C59.3193 193.331 59.3446 193.335 59.3698 193.333C59.6203 193.321 59.8602 193.228 60.0534 193.068C60.7549 192.473 62.2595 190.059 63.6695 189.232C65.3472 188.249 66.9375 189.484 67.7746 188.381C68.1565 187.879 68.269 187.044 67.9192 186.546C67.2766 185.631 65.7542 186.662 63.798 185.888C63.0287 185.584 62.2987 184.603 60.8334 182.638C60.4033 182.06 59.8553 181.26 60.1195 180.878C60.151 180.835 60.1896 180.799 60.2337 180.77C60.7816 180.361 60.9923 179.536 61.0351 179.405C61.3385 178.46 64.4084 177.352 65.308 176.989C65.8702 176.762 70.5268 174.704 72.5829 170.879C72.8506 170.381 73.5306 169.005 74.1321 169.105C74.5801 169.178 74.5694 169.998 75.2798 170.318C75.5659 170.428 75.8762 170.459 76.1782 170.406C76.4801 170.354 76.7623 170.221 76.995 170.022C77.8071 169.284 77.3109 167.967 77.8035 167.768C78.2961 167.57 78.8459 168.98 80.1898 169.377C81.6891 169.811 83.2044 168.674 83.4436 168.483C85.0499 167.232 85.4194 165.099 85.5461 164.364C85.812 162.822 85.4836 162.075 86.1636 161.199C86.6598 160.561 87.0953 160.622 87.9485 160.075C88.0663 160 90.7221 158.249 90.6971 155.647C90.6792 153.758 89.2585 152.44 89.0051 152.204C87.6736 150.971 86.7794 151.457 86.1815 150.608C84.8661 148.746 88.6053 145.605 87.5219 142.722C86.8669 140.973 84.7019 140.129 83.3222 139.938C79.724 139.443 76.0044 142.667 74.4713 145.982C72.8114 149.573 74.3106 152.013 72.2277 153.732C70.3447 155.288 67.2641 154.825 67.1481 154.379C67.0714 154.077 68.3475 153.828 68.8437 152.592C69.0718 151.975 69.0862 151.3 68.8847 150.674C68.5278 149.522 67.5658 148.875 67.1642 148.614C63.723 146.38 54.9221 146.282 51.2186 142.459C47.0653 138.171 48.3164 128.155 45.4304 125.798C45.2519 125.66 44.4916 125.07 44.5933 124.463C44.72 123.702 46.0622 123.748 47.0028 122.885C48.5913 121.434 48.6091 117.806 47.0617 116.556C45.6963 115.449 43.7187 116.693 43.1547 115.841C42.3248 114.579 46.5227 111.731 45.7748 109.149C45.3197 107.569 43.0637 106.263 41.2021 106.783C39.6208 107.224 38.5695 108.882 38.4749 110.231C38.4196 111.027 38.6909 111.8 38.5159 111.863C38.341 111.926 38.0822 111.112 37.4451 110.592C36.4991 109.815 34.9463 109.878 34.1039 110.235C31.1268 111.486 29.8524 118.189 32.3048 121.094C33.099 122.038 34.2681 122.56 34.1324 123.332C34.0075 124.047 32.9598 123.979 31.6658 124.788C28.9886 126.466 29.3973 129.279 26.82 130.304C26.7308 130.34 26.6254 130.372 26.6254 130.372C26.1835 130.522 25.7297 130.635 25.269 130.708C24.6836 130.812 22.0652 131.268 21.8778 132.256C21.7832 132.733 22.2937 133.226 23.3164 134.213C24.3873 135.237 24.6461 135.156 24.9638 135.642C25.6563 136.693 25.0477 138.087 24.3266 140.315C23.7911 141.95 23.4824 143.651 22.9666 145.29C21.6815 149.359 21.3602 159.943 26.7736 166.567C28.7512 168.985 31.7354 172.643 34.1092 174.191C34.493 174.444 35.3586 174.972 35.9315 176.028C36.0832 176.308 36.9257 177.67 36.6865 179.166C36.2546 181.882 32.485 183.842 30.6074 182.986C28.9582 182.236 28.6673 179.986 27.3947 180.102C26.7361 180.163 25.9668 180.879 26.0115 181.312C26.0175 181.499 26.0512 181.685 26.1114 181.862C26.1598 181.991 26.1887 182.127 26.1971 182.264C26.1912 182.287 26.184 182.31 26.1757 182.332C26.0757 182.572 24.8478 182.388 24.0607 182.597C23.3449 182.786 22.4954 183.447 22.5435 183.949Z" fill="white"/>
<path d="M24.0663 182.584C24.8534 182.375 26.0814 182.559 26.1813 182.319C26.1899 182.297 26.1971 182.275 26.2027 182.252C26.1943 182.114 26.1655 181.978 26.1171 181.849C26.0568 181.672 26.0231 181.486 26.0171 181.299C25.9778 180.867 26.7418 180.15 27.4004 180.089C28.6658 179.973 28.9567 182.223 30.613 182.973C32.4835 183.835 36.2531 181.869 36.6922 179.16C36.7355 178.886 36.7463 178.608 36.7243 178.331C37.7952 178.738 38.8893 179.103 39.9637 179.507C40.2136 179.626 40.4581 179.759 40.6973 179.907L40.7366 179.945L40.7598 179.986C40.4153 180.325 40.1172 180.711 39.8674 181.013C36.8028 184.653 33.1189 184.273 32.9315 186.53C32.8673 187.309 33.2171 188.417 33.0011 189.726C32.9886 189.801 32.8227 190.731 32.3854 190.872C32.2989 190.897 32.2094 190.909 32.1194 190.909C31.9273 190.904 31.7412 190.841 31.584 190.731C31.4272 190.608 31.3098 190.442 31.2466 190.254C31.0485 189.717 29.7777 187.5 28.9924 186.655C26.8935 184.394 22.6723 185.077 22.567 183.947C22.4957 183.447 23.3452 182.786 24.0663 182.584Z" fill="#FFE600"/>
<path d="M60.1961 186.694C60.3889 186.228 59.8088 186.101 58.9967 184.25C58.9967 184.25 58.1221 182.241 57.4225 181.869C57.0334 181.662 57.0655 181.832 56.4266 181.583C56.2309 181.506 56.0397 181.419 55.8536 181.321C57.3487 180.883 58.867 180.53 60.4014 180.261C60.4496 180.325 60.4977 180.386 60.5477 180.44C60.4591 180.558 60.3546 180.664 60.2372 180.754C60.1931 180.783 60.1544 180.819 60.1229 180.862C59.8659 181.244 60.4139 182.045 60.8369 182.622C62.3022 184.587 63.0322 185.568 63.8015 185.872C65.7648 186.646 67.2801 185.615 67.9208 186.53C68.2778 187.028 68.16 187.863 67.778 188.365C66.941 189.468 65.3507 188.233 63.673 189.216C62.2629 190.043 60.7583 192.457 60.0569 193.052C59.8637 193.212 59.6238 193.305 59.3733 193.317C59.3481 193.319 59.3227 193.315 59.2992 193.306C59.2757 193.297 59.2546 193.282 59.2377 193.263C59.1305 193.241 59.029 193.198 58.9396 193.134C58.8111 193.036 58.5826 192.777 58.679 191.86C58.8254 190.579 59.4197 190.02 59.2037 189.791C58.9485 189.523 57.7759 189.92 57.5617 189.995C57.4614 190.033 57.3548 190.052 57.2476 190.05C57.0612 190.041 56.8813 189.979 56.7284 189.872C56.5756 189.765 56.4561 189.617 56.3837 189.444C56.2356 188.978 56.7264 188.476 56.9335 188.265C58.2292 186.962 59.8677 187.497 60.1961 186.694Z" fill="#FDB157"/>
<path d="M23.4102 275.616C23.5191 276.745 27.7402 276.063 29.8356 278.323C30.6209 279.168 31.8917 281.379 32.0899 281.922C32.153 282.111 32.2704 282.277 32.4272 282.399C32.5844 282.51 32.7705 282.572 32.9626 282.578C33.0526 282.578 33.1421 282.565 33.2286 282.54C33.6694 282.399 33.8318 281.468 33.8443 281.395C34.0603 280.085 33.7105 278.977 33.7747 278.198C33.9532 275.941 37.646 276.322 40.7106 272.682C41.3031 271.979 42.1241 270.827 43.2414 270.832C43.6502 270.832 44.1446 270.991 45.2137 270.995C45.6884 270.995 46.0133 270.945 46.1703 270.957C47.1895 271.047 47.8195 271.563 49.8721 271.713C52.8599 271.931 53.7505 270.998 54.8928 271.844C54.8928 271.844 56.2385 272.85 57.2827 273.257C57.9145 273.506 57.8895 273.336 58.2786 273.543C58.9782 273.915 59.8528 275.923 59.8528 275.923C60.6649 277.775 61.245 277.901 61.0522 278.368C60.7238 279.165 59.0889 278.631 57.7967 279.948C57.5897 280.158 57.0988 280.662 57.247 281.127C57.3194 281.299 57.4388 281.447 57.5917 281.555C57.7445 281.662 57.9245 281.723 58.1108 281.733C58.2181 281.734 58.3246 281.715 58.4249 281.677C58.6463 281.602 59.8118 281.206 60.067 281.474C60.2829 281.702 59.6886 282.262 59.5423 283.543C59.4387 284.453 59.6743 284.719 59.8028 284.817C59.8922 284.88 59.9937 284.924 60.1009 284.946C60.1179 284.965 60.1389 284.979 60.1625 284.988C60.186 284.998 60.2113 285.001 60.2365 284.999C60.487 284.988 60.7269 284.895 60.9201 284.735C61.6216 284.14 63.1262 281.726 64.5362 280.898C66.2139 279.915 67.8042 281.15 68.6413 280.048C69.0232 279.545 69.1357 278.711 68.7859 278.212C68.1433 277.297 66.6209 278.329 64.6647 277.555C63.8954 277.251 63.1654 276.27 61.7001 274.304C61.27 273.727 60.722 272.927 60.9862 272.544C61.0177 272.502 61.0563 272.466 61.1004 272.437C61.6483 272.028 61.859 271.202 61.9018 271.072C62.2052 270.126 65.2751 269.018 66.1747 268.656C66.7369 268.429 71.3935 266.37 73.4496 262.546C73.7173 262.047 74.3973 260.672 74.9988 260.772C75.4468 260.845 75.4361 261.665 76.1465 261.985C76.4326 262.095 76.7429 262.125 77.0449 262.073C77.3468 262.021 77.629 261.888 77.8617 261.688C78.6738 260.95 78.1776 259.633 78.6702 259.435C79.1628 259.237 79.7126 260.647 81.0565 261.043C82.5558 261.477 84.0711 260.341 84.3103 260.15C85.9166 258.899 86.2861 256.765 86.4128 256.031C86.6787 254.489 86.3503 253.742 87.0303 252.866C87.5265 252.228 87.962 252.289 88.8152 251.742C88.933 251.667 91.5888 249.916 91.5638 247.314C91.5459 245.425 90.1252 244.106 89.8718 243.87C88.5403 242.637 87.6461 243.123 87.0482 242.275C85.7328 240.413 89.472 237.271 88.3886 234.389C87.7336 232.639 85.5686 231.796 84.1889 231.605C80.5907 231.11 76.8711 234.333 75.338 237.648C73.6781 241.24 75.1773 243.679 73.0944 245.398C71.2114 246.955 68.1308 246.492 68.0148 246.045C67.9381 245.743 69.2142 245.495 69.7104 244.258C69.9385 243.642 69.9529 242.966 69.7514 242.341C69.3945 241.188 68.4325 240.541 68.0309 240.28C64.5897 238.047 55.7888 237.948 52.0853 234.126C47.932 229.837 49.1831 219.821 46.2971 217.464C46.1186 217.327 45.3582 216.737 45.46 216.13C45.5867 215.368 46.9289 215.415 47.8695 214.552C49.458 213.101 49.4758 209.473 47.9284 208.222C46.563 207.116 44.5854 208.36 44.0214 207.507C43.1915 206.246 47.3894 203.397 46.6415 200.815C46.1864 199.236 43.9304 197.929 42.0688 198.449C40.4875 198.891 39.4362 200.549 39.3416 201.898C39.2863 202.693 39.5576 203.467 39.3826 203.53C39.2077 203.592 38.9489 202.779 38.3118 202.259C37.3658 201.482 35.813 201.544 34.9706 201.902C31.9935 203.153 30.7191 209.855 33.1715 212.761C33.9657 213.705 35.1348 214.226 34.9991 214.998C34.8742 215.713 33.8265 215.645 32.5325 216.455C29.8553 218.133 30.264 220.945 27.6867 221.971C27.5975 222.007 27.4921 222.039 27.4921 222.039C27.0502 222.189 26.5964 222.301 26.1357 222.375C25.5503 222.479 22.9319 222.934 22.7445 223.922C22.6499 224.4 23.1604 224.893 24.1831 225.879C25.254 226.903 25.5128 226.823 25.8305 227.309C26.523 228.36 25.9144 229.753 25.1933 231.982C24.6578 233.617 24.3491 235.318 23.8333 236.957C22.5482 241.026 22.2269 251.61 27.6403 258.234C29.6179 260.652 32.6021 264.31 34.9759 265.857C35.3597 266.111 36.2253 266.638 36.7982 267.694C36.9499 267.975 37.7924 269.337 37.5532 270.832C37.1213 273.548 33.3517 275.509 31.4741 274.653C29.8249 273.902 29.534 271.652 28.2614 271.769C27.6028 271.829 26.8335 272.546 26.8782 272.978C26.8842 273.166 26.9179 273.351 26.9781 273.529C27.0265 273.658 27.0554 273.793 27.0638 273.931C27.0579 273.954 27.0507 273.977 27.0424 273.999C26.9424 274.238 25.7145 274.054 24.9274 274.263C24.2116 274.453 23.3621 275.114 23.4102 275.616Z" fill="white"/>
<path d="M24.933 274.251C25.7201 274.041 26.9481 274.226 27.048 273.986C27.0566 273.964 27.0638 273.941 27.0694 273.918C27.061 273.781 27.0322 273.645 26.9838 273.516C26.9235 273.339 26.8898 273.153 26.8838 272.966C26.8445 272.533 27.6085 271.817 28.2671 271.756C29.5325 271.64 29.8234 273.89 31.4797 274.64C33.3502 275.501 37.1198 273.536 37.5589 270.827C37.6022 270.553 37.613 270.274 37.591 269.998C38.6619 270.405 39.756 270.77 40.8304 271.173C41.0803 271.293 41.3248 271.426 41.564 271.574L41.6033 271.611L41.6265 271.652C41.282 271.992 40.9839 272.378 40.7341 272.68C37.6695 276.32 33.9856 275.939 33.7982 278.196C33.734 278.975 34.0838 280.083 33.8678 281.393C33.8553 281.468 33.6894 282.397 33.2521 282.539C33.1656 282.563 33.0761 282.576 32.9861 282.576C32.794 282.57 32.6079 282.508 32.4507 282.397C32.2939 282.275 32.1765 282.109 32.1133 281.92C31.9152 281.384 30.6444 279.166 29.8591 278.321C27.7602 276.061 23.539 276.743 23.4337 275.614C23.3624 275.114 24.2119 274.452 24.933 274.251Z" fill="#31CFF4"/>
<path d="M61.0628 278.361C61.2556 277.894 60.6755 277.768 59.8634 275.916C59.8634 275.916 58.9888 273.908 58.2892 273.536C57.9001 273.329 57.9322 273.498 57.2933 273.25C57.0976 273.173 56.9064 273.085 56.7203 272.987C58.2154 272.55 59.7337 272.196 61.2681 271.928C61.3163 271.992 61.3644 272.053 61.4144 272.106C61.3258 272.225 61.2213 272.331 61.1039 272.421C61.0598 272.45 61.0211 272.486 60.9896 272.528C60.7326 272.911 61.2806 273.711 61.7036 274.288C63.1689 276.254 63.8989 277.235 64.6682 277.539C66.6315 278.313 68.1468 277.281 68.7875 278.196C69.1445 278.695 69.0267 279.529 68.6447 280.032C67.8077 281.134 66.2174 279.899 64.5397 280.882C63.1296 281.71 61.625 284.124 60.9236 284.719C60.7304 284.879 60.4905 284.972 60.24 284.983C60.2148 284.985 60.1894 284.982 60.1659 284.972C60.1424 284.963 60.1213 284.949 60.1044 284.93C59.9972 284.908 59.8957 284.864 59.8063 284.801C59.6778 284.703 59.4493 284.444 59.5457 283.527C59.6921 282.246 60.2864 281.686 60.0704 281.458C59.8152 281.19 58.6426 281.586 58.4284 281.661C58.3281 281.699 58.2215 281.718 58.1143 281.717C57.9279 281.707 57.748 281.646 57.5951 281.539C57.4423 281.431 57.3228 281.283 57.2504 281.111C57.1023 280.645 57.5931 280.142 57.8002 279.932C59.0959 278.629 60.7344 279.163 61.0628 278.361Z" fill="#FFE600"/>
<path d="M115.507 92.2827C115.616 93.4121 119.837 92.7294 121.933 94.99C122.718 95.8352 123.989 98.0457 124.187 98.5889C124.25 98.7777 124.368 98.9436 124.524 99.066C124.682 99.1767 124.868 99.2388 125.06 99.2447C125.15 99.2447 125.239 99.2321 125.326 99.2072C125.767 99.066 125.929 98.135 125.942 98.0618C126.157 96.7519 125.808 95.644 125.872 94.8649C126.05 92.6079 129.743 92.9885 132.808 89.3485C133.4 88.6462 134.221 87.4936 135.339 87.499C135.747 87.499 136.242 87.658 137.311 87.6616C137.786 87.6616 138.11 87.6116 138.268 87.6241C139.287 87.7134 139.917 88.2299 141.969 88.38C144.957 88.598 145.848 87.6652 146.99 88.5104C146.99 88.5104 148.336 89.5165 149.38 89.9239C150.012 90.1723 149.987 90.0025 150.376 90.2098C151.075 90.5815 151.95 92.59 151.95 92.59C152.762 94.4414 153.342 94.5682 153.149 95.0346C152.821 95.8316 151.186 95.2973 149.894 96.6143C149.687 96.8252 149.196 97.3291 149.344 97.7937C149.417 97.9659 149.536 98.1141 149.689 98.2213C149.842 98.3284 150.022 98.3902 150.208 98.3995C150.315 98.401 150.422 98.3822 150.522 98.3441C150.743 98.269 151.909 97.8723 152.164 98.1404C152.38 98.3691 151.786 98.9284 151.639 100.21C151.536 101.119 151.771 101.386 151.9 101.484C151.989 101.547 152.091 101.591 152.198 101.612C152.215 101.631 152.236 101.646 152.26 101.655C152.283 101.664 152.309 101.668 152.334 101.666C152.584 101.654 152.824 101.562 153.017 101.402C153.719 100.807 155.223 98.3923 156.633 97.565C158.311 96.5821 159.901 97.8169 160.738 96.7144C161.12 96.2122 161.233 95.3777 160.883 94.8792C160.24 93.9642 158.718 94.9953 156.762 94.2216C155.993 93.9178 155.263 92.9367 153.797 90.9711C153.367 90.3939 152.819 89.5933 153.083 89.2109C153.115 89.1687 153.154 89.1324 153.198 89.1037C153.746 88.6945 153.956 87.8689 153.999 87.7384C154.302 86.7931 157.372 85.6852 158.272 85.3224C158.834 85.0955 163.491 83.0369 165.547 79.2128C165.814 78.7142 166.495 77.3383 167.096 77.4383C167.544 77.5116 167.533 78.3318 168.244 78.6517C168.53 78.7615 168.84 78.7919 169.142 78.7397C169.444 78.6875 169.726 78.5546 169.959 78.3551C170.771 77.617 170.275 76.3 170.767 76.1017C171.26 75.9033 171.81 77.3133 173.154 77.71C174.653 78.1442 176.168 77.0077 176.407 76.8165C178.014 75.5656 178.383 73.432 178.51 72.6975C178.776 71.1554 178.447 70.4084 179.128 69.5328C179.624 68.8948 180.059 68.9556 180.912 68.4088C181.03 68.3337 183.686 66.5825 183.661 63.9807C183.643 62.0919 182.222 60.7731 181.969 60.5372C180.637 59.3042 179.743 59.7902 179.145 58.9414C177.83 57.0794 181.569 53.9379 180.486 51.0555C179.831 49.3061 177.666 48.4626 176.286 48.2714C172.688 47.7764 168.968 51.0001 167.435 54.315C165.775 57.9068 167.274 60.346 165.192 62.065C163.309 63.6215 160.228 63.1587 160.112 62.7119C160.035 62.4099 161.311 62.1615 161.808 60.925C162.036 60.3085 162.05 59.6332 161.849 59.0075C161.492 57.8549 160.53 57.2081 160.128 56.9472C156.687 54.7134 147.886 54.6152 144.182 50.7928C140.029 46.5041 141.28 36.4881 138.394 34.1311C138.216 33.9935 137.455 33.4038 137.557 32.7963C137.684 32.035 139.026 32.0815 139.967 31.2184C141.555 29.7674 141.573 26.1398 140.026 24.8889C138.66 23.7828 136.683 25.0265 136.119 24.1741C135.289 22.9125 139.487 20.0641 138.739 17.4819C138.284 15.9023 136.028 14.596 134.166 15.116C132.585 15.5574 131.533 17.2157 131.439 18.5648C131.383 19.36 131.655 20.1338 131.48 20.1963C131.305 20.2589 131.046 19.4458 130.409 18.9258C129.463 18.1485 127.91 18.211 127.068 18.5684C124.091 19.8193 122.816 26.5222 125.269 29.4278C126.063 30.3714 127.232 30.8931 127.096 31.6651C126.971 32.3799 125.924 32.312 124.63 33.1215C121.952 34.7995 122.361 37.6122 119.784 38.6379C119.695 38.6736 119.589 38.7058 119.589 38.7058C119.147 38.8555 118.694 38.9679 118.233 39.0417C117.647 39.1454 115.029 39.601 114.842 40.5892C114.747 41.0664 115.258 41.5596 116.28 42.546C117.351 43.5699 117.61 43.4895 117.928 43.9755C118.62 45.0263 118.012 46.4201 117.29 48.6485C116.755 50.2836 116.446 51.9847 115.93 53.6234C114.645 57.6923 114.324 68.2765 119.737 74.9008C121.715 77.3186 124.699 80.9765 127.073 82.5241C127.457 82.7778 128.322 83.305 128.895 84.3611C129.047 84.6416 129.89 86.0033 129.65 87.499C129.218 90.2152 125.449 92.1755 123.571 91.3195C121.922 90.569 121.631 88.3192 120.359 88.4353C119.7 88.4961 118.931 89.2127 118.975 89.6451C118.981 89.8325 119.015 90.018 119.075 90.1955C119.124 90.3245 119.153 90.46 119.161 90.5976C119.155 90.6206 119.148 90.6433 119.14 90.6655C119.04 90.9049 117.812 90.7209 117.025 90.93C116.309 91.1194 115.459 91.7806 115.507 92.2827Z" fill="white"/>
<path d="M117.03 90.9173C117.817 90.7082 119.045 90.8923 119.145 90.6528C119.154 90.6307 119.161 90.608 119.167 90.5849C119.158 90.4474 119.129 90.3119 119.081 90.1828C119.021 90.0053 118.987 89.8199 118.981 89.6325C118.942 89.2 119.706 88.4834 120.364 88.4227C121.63 88.3065 121.921 90.5563 123.577 91.3068C125.447 92.1682 129.217 90.2025 129.656 87.4935C129.699 87.2193 129.71 86.941 129.688 86.6643C130.759 87.0717 131.853 87.4363 132.928 87.8401C133.177 87.9593 133.422 88.0927 133.661 88.2404L133.7 88.2779L133.724 88.319C133.379 88.6586 133.081 89.0445 132.831 89.3465C129.767 92.9866 126.083 92.606 125.895 94.8629C125.831 95.642 126.181 96.75 125.965 98.0598C125.953 98.1349 125.787 99.0641 125.349 99.2053C125.263 99.2301 125.173 99.2427 125.083 99.2428C124.891 99.2369 124.705 99.1748 124.548 99.0641C124.391 98.9417 124.274 98.7757 124.211 98.587C124.012 98.0509 122.742 95.8332 121.956 94.988C119.857 92.7275 115.636 93.4101 115.531 92.2807C115.46 91.7804 116.309 91.1192 117.03 90.9173Z" fill="#FFE600"/>
<path d="M153.16 95.0276C153.353 94.5612 152.773 94.4343 151.961 92.583C151.961 92.583 151.086 90.5744 150.386 90.2028C149.997 89.9955 150.029 90.1652 149.39 89.9168C149.195 89.8398 149.004 89.7521 148.817 89.6542C150.313 89.2167 151.831 88.8629 153.365 88.5945C153.413 88.6588 153.462 88.7196 153.512 88.7732C153.423 88.8917 153.318 88.9976 153.201 89.0877C153.157 89.1164 153.118 89.1527 153.087 89.1949C152.83 89.5773 153.378 90.3779 153.801 90.9551C155.266 92.9207 155.996 93.9018 156.765 94.2056C158.729 94.9793 160.244 93.9482 160.885 94.8632C161.242 95.3617 161.124 96.1962 160.742 96.6984C159.905 97.8009 158.315 96.5662 156.637 97.549C155.227 98.3764 153.722 100.791 153.021 101.386C152.828 101.546 152.588 101.638 152.337 101.65C152.312 101.652 152.287 101.648 152.263 101.639C152.24 101.63 152.218 101.615 152.202 101.596C152.094 101.575 151.993 101.531 151.903 101.468C151.775 101.37 151.546 101.11 151.643 100.194C151.789 98.9124 152.384 98.3531 152.168 98.1244C151.912 97.8563 150.74 98.253 150.526 98.3281C150.425 98.3662 150.319 98.385 150.211 98.3835C150.025 98.3742 149.845 98.3125 149.692 98.2053C149.539 98.0981 149.42 97.9499 149.348 97.7777C149.199 97.3113 149.69 96.8092 149.897 96.5983C151.193 95.2956 152.832 95.8299 153.16 95.0276Z" fill="#31CFF4"/>
<path d="M116.374 183.949C116.483 185.079 120.704 184.396 122.799 186.657C123.585 187.502 124.856 189.712 125.054 190.256C125.117 190.444 125.234 190.61 125.391 190.733C125.548 190.843 125.734 190.905 125.927 190.911C126.016 190.911 126.106 190.899 126.192 190.874C126.633 190.733 126.796 189.802 126.808 189.728C127.024 188.419 126.674 187.311 126.739 186.531C126.917 184.275 130.61 184.655 133.674 181.015C134.267 180.313 135.088 179.16 136.205 179.166C136.614 179.166 137.108 179.325 138.178 179.328C138.652 179.328 138.977 179.278 139.134 179.291C140.153 179.38 140.783 179.896 142.836 180.047C145.824 180.265 146.714 179.332 147.857 180.177C147.857 180.177 149.202 181.183 150.247 181.591C150.878 181.839 150.853 181.669 151.242 181.876C151.942 182.248 152.817 184.257 152.817 184.257C153.629 186.108 154.209 186.235 154.016 186.701C153.688 187.498 152.053 186.964 150.761 188.281C150.554 188.492 150.063 188.996 150.211 189.46C150.283 189.633 150.403 189.781 150.556 189.888C150.708 189.995 150.888 190.057 151.075 190.066C151.182 190.068 151.289 190.049 151.389 190.011C151.61 189.936 152.776 189.539 153.031 189.807C153.247 190.036 152.652 190.595 152.506 191.876C152.403 192.786 152.638 193.052 152.767 193.15C152.856 193.214 152.958 193.257 153.065 193.279C153.082 193.298 153.103 193.312 153.126 193.322C153.15 193.331 153.175 193.335 153.2 193.333C153.451 193.321 153.691 193.228 153.884 193.068C154.585 192.473 156.09 190.059 157.5 189.232C159.178 188.249 160.768 189.484 161.605 188.381C161.987 187.879 162.1 187.044 161.75 186.546C161.107 185.631 159.585 186.662 157.629 185.888C156.859 185.584 156.129 184.603 154.664 182.638C154.234 182.06 153.686 181.26 153.95 180.878C153.982 180.835 154.02 180.799 154.064 180.77C154.612 180.361 154.823 179.536 154.866 179.405C155.169 178.46 158.239 177.352 159.139 176.989C159.701 176.762 164.357 174.704 166.413 170.879C166.681 170.381 167.361 169.005 167.963 169.105C168.411 169.178 168.4 169.998 169.11 170.318C169.396 170.428 169.707 170.459 170.009 170.406C170.311 170.354 170.593 170.221 170.826 170.022C171.638 169.284 171.141 167.967 171.634 167.768C172.127 167.57 172.676 168.98 174.02 169.377C175.52 169.811 177.035 168.674 177.274 168.483C178.88 167.232 179.25 165.099 179.377 164.364C179.643 162.822 179.314 162.075 179.994 161.199C180.49 160.561 180.926 160.622 181.779 160.075C181.897 160 184.553 158.249 184.528 155.647C184.51 153.758 183.089 152.44 182.836 152.204C181.504 150.971 180.61 151.457 180.012 150.608C178.697 148.746 182.436 145.605 181.352 142.722C180.697 140.973 178.532 140.129 177.153 139.938C173.555 139.443 169.835 142.667 168.302 145.982C166.642 149.573 168.141 152.013 166.058 153.732C164.175 155.288 161.095 154.825 160.979 154.379C160.902 154.077 162.178 153.828 162.674 152.592C162.902 151.975 162.917 151.3 162.715 150.674C162.358 149.522 161.396 148.875 160.995 148.614C157.554 146.38 148.753 146.282 145.049 142.459C140.896 138.171 142.147 128.155 139.261 125.798C139.082 125.66 138.322 125.07 138.424 124.463C138.551 123.702 139.893 123.748 140.833 122.885C142.422 121.434 142.44 117.806 140.892 116.556C139.527 115.449 137.549 116.693 136.985 115.841C136.155 114.579 140.353 111.731 139.605 109.149C139.15 107.569 136.894 106.263 135.033 106.783C133.451 107.224 132.4 108.882 132.305 110.231C132.25 111.027 132.521 111.8 132.347 111.863C132.172 111.926 131.913 111.112 131.276 110.592C130.33 109.815 128.777 109.878 127.934 110.235C124.957 111.486 123.683 118.189 126.135 121.094C126.93 122.038 128.099 122.56 127.963 123.332C127.838 124.047 126.79 123.979 125.496 124.788C122.819 126.466 123.228 129.279 120.651 130.304C120.561 130.34 120.456 130.372 120.456 130.372C120.014 130.522 119.56 130.635 119.1 130.708C118.514 130.812 115.896 131.268 115.708 132.256C115.614 132.733 116.124 133.226 117.147 134.213C118.218 135.237 118.477 135.156 118.794 135.642C119.487 136.693 118.878 138.087 118.157 140.315C117.622 141.95 117.313 143.651 116.797 145.29C115.512 149.359 115.191 159.943 120.604 166.567C122.582 168.985 125.566 172.643 127.94 174.191C128.324 174.444 129.189 174.972 129.762 176.028C129.914 176.308 130.756 177.67 130.517 179.166C130.085 181.882 126.316 183.842 124.438 182.986C122.789 182.236 122.498 179.986 121.225 180.102C120.567 180.163 119.797 180.879 119.842 181.312C119.848 181.499 119.882 181.685 119.942 181.862C119.99 181.991 120.019 182.127 120.028 182.264C120.022 182.287 120.015 182.31 120.006 182.332C119.906 182.572 118.678 182.388 117.891 182.597C117.176 182.786 116.326 183.447 116.374 183.949Z" fill="white"/>
<path d="M117.897 182.584C118.684 182.375 119.912 182.559 120.012 182.319C120.021 182.297 120.028 182.275 120.033 182.252C120.025 182.114 119.996 181.978 119.948 181.849C119.887 181.672 119.854 181.486 119.848 181.299C119.808 180.867 120.572 180.15 121.231 180.089C122.496 179.973 122.787 182.223 124.444 182.973C126.314 183.835 130.084 181.869 130.523 179.16C130.566 178.886 130.577 178.608 130.555 178.331C131.626 178.738 132.72 179.103 133.794 179.507C134.044 179.626 134.289 179.759 134.528 179.907L134.567 179.945L134.59 179.986C134.246 180.325 133.948 180.711 133.698 181.013C130.633 184.653 126.949 184.273 126.762 186.53C126.698 187.309 127.048 188.417 126.832 189.726C126.819 189.801 126.653 190.731 126.216 190.872C126.129 190.897 126.04 190.909 125.95 190.909C125.758 190.904 125.572 190.841 125.415 190.731C125.258 190.608 125.14 190.442 125.077 190.254C124.879 189.717 123.608 187.5 122.823 186.655C120.724 184.394 116.503 185.077 116.398 183.947C116.326 183.447 117.176 182.786 117.897 182.584Z" fill="white"/>
<path d="M154.027 186.694C154.219 186.228 153.639 186.101 152.827 184.25C152.827 184.25 151.953 182.241 151.253 181.869C150.864 181.662 150.896 181.832 150.257 181.583C150.062 181.506 149.87 181.419 149.684 181.321C151.179 180.883 152.698 180.53 154.232 180.261C154.28 180.325 154.328 180.386 154.378 180.44C154.29 180.558 154.185 180.664 154.068 180.754C154.024 180.783 153.985 180.819 153.953 180.862C153.696 181.244 154.244 182.045 154.667 182.622C156.133 184.587 156.863 185.568 157.632 185.872C159.595 186.646 161.111 185.615 161.751 186.53C162.108 187.028 161.991 187.863 161.609 188.365C160.772 189.468 159.181 188.233 157.504 189.216C156.094 190.043 154.589 192.457 153.887 193.052C153.694 193.212 153.454 193.305 153.204 193.317C153.179 193.319 153.153 193.315 153.13 193.306C153.106 193.297 153.085 193.282 153.068 193.263C152.961 193.241 152.86 193.198 152.77 193.134C152.642 193.036 152.413 192.777 152.51 191.86C152.656 190.579 153.25 190.02 153.034 189.791C152.779 189.523 151.606 189.92 151.392 189.995C151.292 190.033 151.185 190.052 151.078 190.05C150.892 190.041 150.712 189.979 150.559 189.872C150.406 189.765 150.287 189.617 150.214 189.444C150.066 188.978 150.557 188.476 150.764 188.265C152.06 186.962 153.698 187.497 154.027 186.694Z" fill="#FFE600"/>
<path d="M117.241 275.616C117.35 276.745 121.571 276.063 123.666 278.323C124.452 279.168 125.722 281.379 125.92 281.922C125.984 282.111 126.101 282.277 126.258 282.399C126.415 282.51 126.601 282.572 126.793 282.578C126.883 282.578 126.973 282.565 127.059 282.54C127.5 282.399 127.662 281.468 127.675 281.395C127.891 280.085 127.541 278.977 127.605 278.198C127.784 275.941 131.477 276.322 134.541 272.682C135.134 271.979 135.955 270.827 137.072 270.832C137.481 270.832 137.975 270.991 139.044 270.995C139.519 270.995 139.844 270.945 140.001 270.957C141.02 271.047 141.65 271.563 143.703 271.713C146.69 271.931 147.581 270.998 148.723 271.844C148.723 271.844 150.069 272.85 151.113 273.257C151.745 273.506 151.72 273.336 152.109 273.543C152.809 273.915 153.683 275.923 153.683 275.923C154.495 277.775 155.076 277.901 154.883 278.368C154.554 279.165 152.919 278.631 151.627 279.948C151.42 280.158 150.929 280.662 151.078 281.127C151.15 281.299 151.269 281.447 151.422 281.555C151.575 281.662 151.755 281.723 151.941 281.733C152.049 281.734 152.155 281.715 152.256 281.677C152.477 281.602 153.642 281.206 153.898 281.474C154.114 281.702 153.519 282.262 153.373 283.543C153.269 284.453 153.505 284.719 153.633 284.817C153.723 284.88 153.824 284.924 153.931 284.946C153.948 284.965 153.969 284.979 153.993 284.988C154.017 284.998 154.042 285.001 154.067 284.999C154.318 284.988 154.557 284.895 154.751 284.735C155.452 284.14 156.957 281.726 158.367 280.898C160.044 279.915 161.635 281.15 162.472 280.048C162.854 279.545 162.966 278.711 162.616 278.212C161.974 277.297 160.451 278.329 158.495 277.555C157.726 277.251 156.996 276.27 155.531 274.304C155.101 273.727 154.553 272.927 154.817 272.544C154.848 272.502 154.887 272.466 154.931 272.437C155.479 272.028 155.69 271.202 155.732 271.072C156.036 270.126 159.106 269.018 160.005 268.656C160.567 268.429 165.224 266.37 167.28 262.546C167.548 262.047 168.228 260.672 168.829 260.772C169.277 260.845 169.267 261.665 169.977 261.985C170.263 262.095 170.574 262.125 170.875 262.073C171.177 262.021 171.46 261.888 171.692 261.688C172.504 260.95 172.008 259.633 172.501 259.435C172.993 259.237 173.543 260.647 174.887 261.043C176.386 261.477 177.902 260.341 178.141 260.15C179.747 258.899 180.117 256.765 180.243 256.031C180.509 254.489 180.181 253.742 180.861 252.866C181.357 252.228 181.793 252.289 182.646 251.742C182.764 251.667 185.419 249.916 185.394 247.314C185.377 245.425 183.956 244.106 183.702 243.87C182.371 242.637 181.477 243.123 180.879 242.275C179.563 240.413 183.303 237.271 182.219 234.389C181.564 232.639 179.399 231.796 178.019 231.605C174.421 231.11 170.702 234.333 169.169 237.648C167.509 241.24 169.008 243.679 166.925 245.398C165.042 246.955 161.961 246.492 161.845 246.045C161.769 245.743 163.045 245.495 163.541 244.258C163.769 243.642 163.784 242.966 163.582 242.341C163.225 241.188 162.263 240.541 161.861 240.28C158.42 238.047 149.619 237.948 145.916 234.126C141.763 229.837 143.014 219.821 140.128 217.464C139.949 217.327 139.189 216.737 139.291 216.13C139.417 215.368 140.759 215.415 141.7 214.552C143.289 213.101 143.306 209.473 141.759 208.222C140.394 207.116 138.416 208.36 137.852 207.507C137.022 206.246 141.22 203.397 140.472 200.815C140.017 199.236 137.761 197.929 135.899 198.449C134.318 198.891 133.267 200.549 133.172 201.898C133.117 202.693 133.388 203.467 133.213 203.53C133.038 203.592 132.78 202.779 132.142 202.259C131.196 201.482 129.644 201.544 128.801 201.902C125.824 203.153 124.55 209.855 127.002 212.761C127.796 213.705 128.965 214.226 128.83 214.998C128.705 215.713 127.657 215.645 126.363 216.455C123.686 218.133 124.095 220.945 121.517 221.971C121.428 222.007 121.323 222.039 121.323 222.039C120.881 222.189 120.427 222.301 119.966 222.375C119.381 222.479 116.762 222.934 116.575 223.922C116.48 224.4 116.991 224.893 118.014 225.879C119.085 226.903 119.343 226.823 119.661 227.309C120.354 228.36 119.745 229.753 119.024 231.982C118.488 233.617 118.18 235.318 117.664 236.957C116.379 241.026 116.057 251.61 121.471 258.234C123.448 260.652 126.433 264.31 128.806 265.857C129.19 266.111 130.056 266.638 130.629 267.694C130.781 267.975 131.623 269.337 131.384 270.832C130.952 273.548 127.182 275.509 125.305 274.653C123.655 273.902 123.365 271.652 122.092 271.769C121.433 271.829 120.664 272.546 120.709 272.978C120.715 273.166 120.748 273.351 120.809 273.529C120.857 273.658 120.886 273.793 120.894 273.931C120.888 273.954 120.881 273.977 120.873 273.999C120.773 274.238 119.545 274.054 118.758 274.263C118.042 274.453 117.193 275.114 117.241 275.616Z" fill="white"/>
<path d="M118.764 274.251C119.551 274.041 120.779 274.226 120.879 273.986C120.887 273.964 120.894 273.941 120.9 273.918C120.892 273.781 120.863 273.645 120.814 273.516C120.754 273.339 120.72 273.153 120.714 272.966C120.675 272.533 121.439 271.817 122.098 271.756C123.363 271.64 123.654 273.89 125.31 274.64C127.181 275.501 130.95 273.536 131.389 270.827C131.433 270.553 131.444 270.274 131.422 269.998C132.492 270.405 133.587 270.77 134.661 271.173C134.911 271.293 135.155 271.426 135.395 271.574L135.434 271.611L135.457 271.652C135.113 271.992 134.814 272.378 134.565 272.68C131.5 276.32 127.816 275.939 127.629 278.196C127.565 278.975 127.914 280.083 127.698 281.393C127.686 281.468 127.52 282.397 127.083 282.539C126.996 282.563 126.907 282.576 126.817 282.576C126.625 282.57 126.438 282.508 126.281 282.397C126.124 282.275 126.007 282.109 125.944 281.92C125.746 281.384 124.475 279.166 123.69 278.321C121.591 276.061 117.37 276.743 117.264 275.614C117.193 275.114 118.042 274.452 118.764 274.251Z" fill="#FDB157"/>
<path d="M154.893 278.361C155.086 277.894 154.506 277.768 153.694 275.916C153.694 275.916 152.819 273.908 152.12 273.536C151.731 273.329 151.763 273.498 151.124 273.25C150.928 273.173 150.737 273.085 150.551 272.987C152.046 272.55 153.564 272.196 155.099 271.928C155.147 271.992 155.195 272.053 155.245 272.106C155.156 272.225 155.052 272.331 154.934 272.421C154.89 272.45 154.852 272.486 154.82 272.528C154.563 272.911 155.111 273.711 155.534 274.288C156.999 276.254 157.729 277.235 158.499 277.539C160.462 278.313 161.977 277.281 162.618 278.196C162.975 278.695 162.857 279.529 162.475 280.032C161.638 281.134 160.048 279.899 158.37 280.882C156.96 281.71 155.456 284.124 154.754 284.719C154.561 284.879 154.321 284.972 154.071 284.983C154.045 284.985 154.02 284.982 153.996 284.972C153.973 284.963 153.952 284.949 153.935 284.93C153.828 284.908 153.726 284.864 153.637 284.801C153.508 284.703 153.28 284.444 153.376 283.527C153.523 282.246 154.117 281.686 153.901 281.458C153.646 281.19 152.473 281.586 152.259 281.661C152.159 281.699 152.052 281.718 151.945 281.717C151.758 281.707 151.579 281.646 151.426 281.539C151.273 281.431 151.153 281.283 151.081 281.111C150.933 280.645 151.424 280.142 151.631 279.932C152.927 278.629 154.565 279.163 154.893 278.361Z" fill="#31CFF4"/>
<path d="M209.338 92.2827C209.447 93.4121 213.668 92.7294 215.763 94.99C216.549 95.8352 217.819 98.0457 218.018 98.5889C218.081 98.7777 218.198 98.9436 218.355 99.066C218.512 99.1767 218.698 99.2388 218.89 99.2447C218.98 99.2447 219.07 99.2321 219.156 99.2072C219.597 99.066 219.76 98.135 219.772 98.0618C219.988 96.7519 219.638 95.644 219.702 94.8649C219.881 92.6079 223.574 92.9885 226.638 89.3485C227.231 88.6462 228.052 87.4936 229.169 87.499C229.578 87.499 230.072 87.658 231.141 87.6616C231.616 87.6616 231.941 87.6116 232.098 87.6241C233.117 87.7134 233.747 88.2299 235.8 88.38C238.788 88.598 239.678 87.6652 240.821 88.5104C240.821 88.5104 242.166 89.5165 243.21 89.9239C243.842 90.1723 243.817 90.0025 244.206 90.2098C244.906 90.5815 245.781 92.59 245.781 92.59C246.593 94.4414 247.173 94.5682 246.98 95.0346C246.652 95.8316 245.017 95.2973 243.724 96.6143C243.517 96.8252 243.027 97.3291 243.175 97.7937C243.247 97.9659 243.367 98.1141 243.519 98.2213C243.672 98.3284 243.852 98.3902 244.039 98.3995C244.146 98.401 244.252 98.3822 244.353 98.3441C244.574 98.269 245.739 97.8723 245.995 98.1404C246.211 98.3691 245.616 98.9284 245.47 100.21C245.366 101.119 245.602 101.386 245.731 101.484C245.82 101.547 245.921 101.591 246.029 101.612C246.046 101.631 246.067 101.646 246.09 101.655C246.114 101.664 246.139 101.668 246.164 101.666C246.415 101.654 246.655 101.562 246.848 101.402C247.549 100.807 249.054 98.3923 250.464 97.565C252.142 96.5821 253.732 97.8169 254.569 96.7144C254.951 96.2122 255.063 95.3777 254.714 94.8792C254.071 93.9642 252.549 94.9953 250.592 94.2216C249.823 93.9178 249.093 92.9367 247.628 90.9711C247.198 90.3939 246.65 89.5933 246.914 89.2109C246.945 89.1687 246.984 89.1324 247.028 89.1037C247.576 88.6945 247.787 87.8689 247.83 87.7384C248.133 86.7931 251.203 85.6852 252.102 85.3224C252.665 85.0955 257.321 83.0369 259.377 79.2128C259.645 78.7142 260.325 77.3383 260.927 77.4383C261.375 77.5116 261.364 78.3318 262.074 78.6517C262.36 78.7615 262.671 78.7919 262.973 78.7397C263.274 78.6875 263.557 78.5546 263.789 78.3551C264.602 77.617 264.105 76.3 264.598 76.1017C265.091 75.9033 265.64 77.3133 266.984 77.71C268.484 78.1442 269.999 77.0077 270.238 76.8165C271.844 75.5656 272.214 73.432 272.341 72.6975C272.606 71.1554 272.278 70.4084 272.958 69.5328C273.454 68.8948 273.89 68.9556 274.743 68.4088C274.861 68.3337 277.517 66.5825 277.492 63.9807C277.474 62.0919 276.053 60.7731 275.8 60.5372C274.468 59.3042 273.574 59.7902 272.976 58.9414C271.661 57.0794 275.4 53.9379 274.316 51.0555C273.661 49.3061 271.496 48.4626 270.117 48.2714C266.518 47.7764 262.799 51.0001 261.266 54.315C259.606 57.9068 261.105 60.346 259.022 62.065C257.139 63.6215 254.059 63.1587 253.943 62.7119C253.866 62.4099 255.142 62.1615 255.638 60.925C255.866 60.3085 255.881 59.6332 255.679 59.0075C255.322 57.8549 254.36 57.2081 253.959 56.9472C250.517 54.7134 241.716 54.6152 238.013 50.7928C233.86 46.5041 235.111 36.4881 232.225 34.1311C232.046 33.9935 231.286 33.4038 231.388 32.7963C231.514 32.035 232.857 32.0815 233.797 31.2184C235.386 29.7674 235.404 26.1398 233.856 24.8889C232.491 23.7828 230.513 25.0265 229.949 24.1741C229.119 22.9125 233.317 20.0641 232.569 17.4819C232.114 15.9023 229.858 14.596 227.997 15.116C226.415 15.5574 225.364 17.2157 225.269 18.5648C225.214 19.36 225.485 20.1338 225.31 20.1963C225.135 20.2589 224.877 19.4458 224.239 18.9258C223.294 18.1485 221.741 18.211 220.898 18.5684C217.921 19.8193 216.647 26.5222 219.099 29.4278C219.893 30.3714 221.062 30.8931 220.927 31.6651C220.802 32.3799 219.754 32.312 218.46 33.1215C215.783 34.7995 216.192 37.6122 213.614 38.6379C213.525 38.6736 213.42 38.7058 213.42 38.7058C212.978 38.8555 212.524 38.9679 212.063 39.0417C211.478 39.1454 208.86 39.601 208.672 40.5892C208.578 41.0664 209.088 41.5596 210.111 42.546C211.182 43.5699 211.441 43.4895 211.758 43.9755C212.451 45.0263 211.842 46.4201 211.121 48.6485C210.586 50.2836 210.277 51.9847 209.761 53.6234C208.476 57.6923 208.155 68.2765 213.568 74.9008C215.546 77.3186 218.53 80.9765 220.904 82.5241C221.287 82.7778 222.153 83.305 222.726 84.3611C222.878 84.6416 223.72 86.0033 223.481 87.499C223.049 90.2152 219.279 92.1755 217.402 91.3195C215.753 90.569 215.462 88.3192 214.189 88.4353C213.531 88.4961 212.761 89.2127 212.806 89.6451C212.812 89.8325 212.846 90.018 212.906 90.1955C212.954 90.3245 212.983 90.46 212.992 90.5976C212.986 90.6206 212.978 90.6433 212.97 90.6655C212.87 90.9049 211.642 90.7209 210.855 90.93C210.139 91.1194 209.29 91.7806 209.338 92.2827Z" fill="white"/>
<path d="M210.861 90.9173C211.648 90.7082 212.876 90.8923 212.976 90.6528C212.984 90.6307 212.992 90.608 212.997 90.5849C212.989 90.4474 212.96 90.3119 212.911 90.1828C212.851 90.0053 212.818 89.8199 212.812 89.6325C212.772 89.2 213.536 88.4834 214.195 88.4227C215.46 88.3065 215.751 90.5563 217.407 91.3068C219.278 92.1682 223.048 90.2025 223.487 87.4935C223.53 87.2193 223.541 86.941 223.519 86.6643C224.59 87.0717 225.684 87.4363 226.758 87.8401C227.008 87.9593 227.253 88.0927 227.492 88.2404L227.531 88.2779L227.554 88.319C227.21 88.6586 226.912 89.0445 226.662 89.3465C223.597 92.9866 219.913 92.606 219.726 94.8629C219.662 95.642 220.012 96.75 219.796 98.0598C219.783 98.1349 219.617 99.0641 219.18 99.2053C219.093 99.2301 219.004 99.2427 218.914 99.2428C218.722 99.2369 218.536 99.1748 218.378 99.0641C218.222 98.9417 218.104 98.7757 218.041 98.587C217.843 98.0509 216.572 95.8332 215.787 94.988C213.688 92.7275 209.467 93.4101 209.361 92.2807C209.29 91.7804 210.14 91.1192 210.861 90.9173Z" fill="#FDB157"/>
<path d="M246.991 95.0276C247.183 94.5612 246.603 94.4343 245.791 92.583C245.791 92.583 244.917 90.5744 244.217 90.2028C243.828 89.9955 243.86 90.1652 243.221 89.9168C243.025 89.8398 242.834 89.7521 242.648 89.6542C244.143 89.2167 245.661 88.8629 247.196 88.5945C247.244 88.6588 247.292 88.7196 247.342 88.7732C247.253 88.8917 247.149 88.9976 247.032 89.0877C246.988 89.1164 246.949 89.1527 246.917 89.1949C246.66 89.5773 247.208 90.3779 247.631 90.9551C249.097 92.9207 249.827 93.9018 250.596 94.2056C252.559 94.9793 254.075 93.9482 254.715 94.8632C255.072 95.3617 254.954 96.1962 254.572 96.6984C253.735 97.8009 252.145 96.5662 250.467 97.549C249.057 98.3764 247.553 100.791 246.851 101.386C246.658 101.546 246.418 101.638 246.168 101.65C246.143 101.652 246.117 101.648 246.094 101.639C246.07 101.63 246.049 101.615 246.032 101.596C245.925 101.575 245.823 101.531 245.734 101.468C245.606 101.37 245.377 101.11 245.473 100.194C245.62 98.9124 246.214 98.3531 245.998 98.1244C245.743 97.8563 244.57 98.253 244.356 98.3281C244.256 98.3662 244.149 98.385 244.042 98.3835C243.856 98.3742 243.676 98.3125 243.523 98.2053C243.37 98.0981 243.251 97.9499 243.178 97.7777C243.03 97.3113 243.521 96.8092 243.728 96.5983C245.024 95.2956 246.662 95.8299 246.991 95.0276Z" fill="#FFE600"/>
<path d="M210.205 183.949C210.314 185.079 214.535 184.396 216.63 186.657C217.415 187.502 218.686 189.712 218.884 190.256C218.947 190.444 219.065 190.61 219.222 190.733C219.379 190.843 219.565 190.905 219.757 190.911C219.847 190.911 219.937 190.899 220.023 190.874C220.464 190.733 220.626 189.802 220.639 189.728C220.855 188.419 220.505 187.311 220.569 186.531C220.748 184.275 224.44 184.655 227.505 181.015C228.098 180.313 228.919 179.16 230.036 179.166C230.445 179.166 230.939 179.325 232.008 179.328C232.483 179.328 232.808 179.278 232.965 179.291C233.984 179.38 234.614 179.896 236.667 180.047C239.654 180.265 240.545 179.332 241.687 180.177C241.687 180.177 243.033 181.183 244.077 181.591C244.709 181.839 244.684 181.669 245.073 181.876C245.773 182.248 246.647 184.257 246.647 184.257C247.459 186.108 248.039 186.235 247.847 186.701C247.518 187.498 245.883 186.964 244.591 188.281C244.384 188.492 243.893 188.996 244.041 189.46C244.114 189.633 244.233 189.781 244.386 189.888C244.539 189.995 244.719 190.057 244.905 190.066C245.013 190.068 245.119 190.049 245.219 190.011C245.441 189.936 246.606 189.539 246.861 189.807C247.077 190.036 246.483 190.595 246.337 191.876C246.233 192.786 246.469 193.052 246.597 193.15C246.687 193.214 246.788 193.257 246.895 193.279C246.912 193.298 246.933 193.312 246.957 193.322C246.98 193.331 247.006 193.335 247.031 193.333C247.281 193.321 247.521 193.228 247.715 193.068C248.416 192.473 249.921 190.059 251.331 189.232C253.008 188.249 254.599 189.484 255.436 188.381C255.818 187.879 255.93 187.044 255.58 186.546C254.938 185.631 253.415 186.662 251.459 185.888C250.69 185.584 249.96 184.603 248.495 182.638C248.064 182.06 247.516 181.26 247.781 180.878C247.812 180.835 247.851 180.799 247.895 180.77C248.443 180.361 248.653 179.536 248.696 179.405C249 178.46 252.07 177.352 252.969 176.989C253.531 176.762 258.188 174.704 260.244 170.879C260.512 170.381 261.192 169.005 261.793 169.105C262.241 169.178 262.231 169.998 262.941 170.318C263.227 170.428 263.537 170.459 263.839 170.406C264.141 170.354 264.423 170.221 264.656 170.022C265.468 169.284 264.972 167.967 265.465 167.768C265.957 167.57 266.507 168.98 267.851 169.377C269.35 169.811 270.866 168.674 271.105 168.483C272.711 167.232 273.08 165.099 273.207 164.364C273.473 162.822 273.145 162.075 273.825 161.199C274.321 160.561 274.756 160.622 275.61 160.075C275.727 160 278.383 158.249 278.358 155.647C278.34 153.758 276.92 152.44 276.666 152.204C275.335 150.971 274.441 151.457 273.843 150.608C272.527 148.746 276.266 145.605 275.183 142.722C274.528 140.973 272.363 140.129 270.983 139.938C267.385 139.443 263.666 142.667 262.132 145.982C260.472 149.573 261.972 152.013 259.889 153.732C258.006 155.288 254.925 154.825 254.809 154.379C254.733 154.077 256.009 153.828 256.505 152.592C256.733 151.975 256.747 151.3 256.546 150.674C256.189 149.522 255.227 148.875 254.825 148.614C251.384 146.38 242.583 146.282 238.88 142.459C234.726 138.171 235.978 128.155 233.092 125.798C232.913 125.66 232.153 125.07 232.254 124.463C232.381 123.702 233.723 123.748 234.664 122.885C236.252 121.434 236.27 117.806 234.723 116.556C233.357 115.449 231.38 116.693 230.816 115.841C229.986 114.579 234.184 111.731 233.436 109.149C232.981 107.569 230.725 106.263 228.863 106.783C227.282 107.224 226.231 108.882 226.136 110.231C226.081 111.027 226.352 111.8 226.177 111.863C226.002 111.926 225.743 111.112 225.106 110.592C224.16 109.815 222.607 109.878 221.765 110.235C218.788 111.486 217.514 118.189 219.966 121.094C220.76 122.038 221.929 122.56 221.794 123.332C221.669 124.047 220.621 123.979 219.327 124.788C216.65 126.466 217.058 129.279 214.481 130.304C214.392 130.34 214.287 130.372 214.287 130.372C213.845 130.522 213.391 130.635 212.93 130.708C212.345 130.812 209.726 131.268 209.539 132.256C209.444 132.733 209.955 133.226 210.978 134.213C212.048 135.237 212.307 135.156 212.625 135.642C213.317 136.693 212.709 138.087 211.988 140.315C211.452 141.95 211.144 143.651 210.628 145.29C209.343 149.359 209.021 159.943 214.435 166.567C216.412 168.985 219.397 172.643 221.77 174.191C222.154 174.444 223.02 174.972 223.593 176.028C223.744 176.308 224.587 177.67 224.348 179.166C223.916 181.882 220.146 183.842 218.269 182.986C216.619 182.236 216.328 179.986 215.056 180.102C214.397 180.163 213.628 180.879 213.673 181.312C213.679 181.499 213.712 181.685 213.773 181.862C213.821 181.991 213.85 182.127 213.858 182.264C213.852 182.287 213.845 182.31 213.837 182.332C213.737 182.572 212.509 182.388 211.722 182.597C211.006 182.786 210.156 183.447 210.205 183.949Z" fill="white"/>
<path d="M211.727 182.584C212.515 182.375 213.742 182.559 213.842 182.319C213.851 182.297 213.858 182.275 213.864 182.252C213.855 182.114 213.827 181.978 213.778 181.849C213.718 181.672 213.684 181.486 213.678 181.299C213.639 180.867 214.403 180.15 215.061 180.089C216.327 179.973 216.618 182.223 218.274 182.973C220.145 183.835 223.914 181.869 224.353 179.16C224.397 178.886 224.407 178.608 224.385 178.331C225.456 178.738 226.55 179.103 227.625 179.507C227.875 179.626 228.119 179.759 228.358 179.907L228.398 179.945L228.421 179.986C228.076 180.325 227.778 180.711 227.528 181.013C224.464 184.653 220.78 184.273 220.593 186.53C220.528 187.309 220.878 188.417 220.662 189.726C220.65 189.801 220.484 190.731 220.047 190.872C219.96 190.897 219.871 190.909 219.781 190.909C219.588 190.904 219.402 190.841 219.245 190.731C219.088 190.608 218.971 190.442 218.908 190.254C218.71 189.717 217.439 187.5 216.654 186.655C214.555 184.394 210.333 185.077 210.228 183.947C210.157 183.447 211.006 182.786 211.727 182.584Z" fill="#FDB157"/>
<path d="M247.857 186.694C248.05 186.228 247.47 186.101 246.658 184.25C246.658 184.25 245.783 182.241 245.084 181.869C244.695 181.662 244.727 181.832 244.088 181.583C243.892 181.506 243.701 181.419 243.515 181.321C245.01 180.883 246.528 180.53 248.062 180.261C248.111 180.325 248.159 180.386 248.209 180.44C248.12 180.558 248.016 180.664 247.898 180.754C247.854 180.783 247.816 180.819 247.784 180.862C247.527 181.244 248.075 182.045 248.498 182.622C249.963 184.587 250.693 185.568 251.463 185.872C253.426 186.646 254.941 185.615 255.582 186.53C255.939 187.028 255.821 187.863 255.439 188.365C254.602 189.468 253.012 188.233 251.334 189.216C249.924 190.043 248.419 192.457 247.718 193.052C247.525 193.212 247.285 193.305 247.034 193.317C247.009 193.319 246.984 193.315 246.96 193.306C246.937 193.297 246.916 193.282 246.899 193.263C246.792 193.241 246.69 193.198 246.601 193.134C246.472 193.036 246.244 192.777 246.34 191.86C246.486 190.579 247.081 190.02 246.865 189.791C246.61 189.523 245.437 189.92 245.223 189.995C245.123 190.033 245.016 190.052 244.909 190.05C244.722 190.041 244.542 189.979 244.39 189.872C244.237 189.765 244.117 189.617 244.045 189.444C243.897 188.978 244.388 188.476 244.595 188.265C245.89 186.962 247.529 187.497 247.857 186.694Z" fill="#31CFF4"/>
<path d="M211.071 275.616C211.18 276.745 215.401 276.063 217.497 278.323C218.282 279.168 219.553 281.379 219.751 281.922C219.814 282.111 219.932 282.277 220.088 282.399C220.246 282.51 220.432 282.572 220.624 282.578C220.714 282.578 220.803 282.565 220.89 282.54C221.331 282.399 221.493 281.468 221.505 281.395C221.721 280.085 221.372 278.977 221.436 278.198C221.614 275.941 225.307 276.322 228.372 272.682C228.964 271.979 229.785 270.827 230.903 270.832C231.311 270.832 231.806 270.991 232.875 270.995C233.35 270.995 233.674 270.945 233.831 270.957C234.851 271.047 235.481 271.563 237.533 271.713C240.521 271.931 241.412 270.998 242.554 271.844C242.554 271.844 243.9 272.85 244.944 273.257C245.576 273.506 245.551 273.336 245.94 273.543C246.639 273.915 247.514 275.923 247.514 275.923C248.326 277.775 248.906 277.901 248.713 278.368C248.385 279.165 246.75 278.631 245.458 279.948C245.251 280.158 244.76 280.662 244.908 281.127C244.98 281.299 245.1 281.447 245.253 281.555C245.406 281.662 245.586 281.723 245.772 281.733C245.879 281.734 245.986 281.715 246.086 281.677C246.307 281.602 247.473 281.206 247.728 281.474C247.944 281.702 247.35 282.262 247.203 283.543C247.1 284.453 247.335 284.719 247.464 284.817C247.553 284.88 247.655 284.924 247.762 284.946C247.779 284.965 247.8 284.979 247.824 284.988C247.847 284.998 247.872 285.001 247.898 284.999C248.148 284.988 248.388 284.895 248.581 284.735C249.283 284.14 250.787 281.726 252.197 280.898C253.875 279.915 255.465 281.15 256.302 280.048C256.684 279.545 256.797 278.711 256.447 278.212C255.804 277.297 254.282 278.329 252.326 277.555C251.557 277.251 250.827 276.27 249.361 274.304C248.931 273.727 248.383 272.927 248.647 272.544C248.679 272.502 248.717 272.466 248.762 272.437C249.309 272.028 249.52 271.202 249.563 271.072C249.866 270.126 252.936 269.018 253.836 268.656C254.398 268.429 259.055 266.37 261.111 262.546C261.378 262.047 262.058 260.672 262.66 260.772C263.108 260.845 263.097 261.665 263.808 261.985C264.094 262.095 264.404 262.125 264.706 262.073C265.008 262.021 265.29 261.888 265.523 261.688C266.335 260.95 265.839 259.633 266.331 259.435C266.824 259.237 267.374 260.647 268.718 261.043C270.217 261.477 271.732 260.341 271.971 260.15C273.578 258.899 273.947 256.765 274.074 256.031C274.34 254.489 274.011 253.742 274.691 252.866C275.188 252.228 275.623 252.289 276.476 251.742C276.594 251.667 279.25 249.916 279.225 247.314C279.207 245.425 277.786 244.106 277.533 243.87C276.201 242.637 275.307 243.123 274.709 242.275C273.394 240.413 277.133 237.271 276.05 234.389C275.395 232.639 273.23 231.796 271.85 231.605C268.252 231.11 264.532 234.333 262.999 237.648C261.339 241.24 262.838 243.679 260.756 245.398C258.873 246.955 255.792 246.492 255.676 246.045C255.599 245.743 256.875 245.495 257.372 244.258C257.6 243.642 257.614 242.966 257.413 242.341C257.056 241.188 256.094 240.541 255.692 240.28C252.251 238.047 243.45 237.948 239.746 234.126C235.593 229.837 236.844 219.821 233.958 217.464C233.78 217.327 233.019 216.737 233.121 216.13C233.248 215.368 234.59 215.415 235.531 214.552C237.119 213.101 237.137 209.473 235.59 208.222C234.224 207.116 232.247 208.36 231.683 207.507C230.853 206.246 235.051 203.397 234.303 200.815C233.848 199.236 231.592 197.929 229.73 198.449C228.149 198.891 227.097 200.549 227.003 201.898C226.947 202.693 227.219 203.467 227.044 203.53C226.869 203.592 226.61 202.779 225.973 202.259C225.027 201.482 223.474 201.544 222.632 201.902C219.655 203.153 218.38 209.855 220.833 212.761C221.627 213.705 222.796 214.226 222.66 214.998C222.535 215.713 221.488 215.645 220.194 216.455C217.516 218.133 217.925 220.945 215.348 221.971C215.259 222.007 215.153 222.039 215.153 222.039C214.711 222.189 214.258 222.301 213.797 222.375C213.211 222.479 210.593 222.934 210.406 223.922C210.311 224.4 210.822 224.893 211.844 225.879C212.915 226.903 213.174 226.823 213.492 227.309C214.184 228.36 213.575 229.753 212.854 231.982C212.319 233.617 212.01 235.318 211.494 236.957C210.209 241.026 209.888 251.61 215.301 258.234C217.279 260.652 220.263 264.31 222.637 265.857C223.021 266.111 223.886 266.638 224.459 267.694C224.611 267.975 225.454 269.337 225.214 270.832C224.782 273.548 221.013 275.509 219.135 274.653C217.486 273.902 217.195 271.652 215.923 271.769C215.264 271.829 214.495 272.546 214.539 272.978C214.545 273.166 214.579 273.351 214.639 273.529C214.688 273.658 214.717 273.793 214.725 273.931C214.719 273.954 214.712 273.977 214.704 273.999C214.604 274.238 213.376 274.054 212.588 274.263C211.873 274.453 211.023 275.114 211.071 275.616Z" fill="white"/>
<path d="M212.594 274.251C213.381 274.041 214.609 274.226 214.709 273.986C214.718 273.964 214.725 273.941 214.731 273.918C214.722 273.781 214.693 273.645 214.645 273.516C214.585 273.339 214.551 273.153 214.545 272.966C214.506 272.533 215.27 271.817 215.928 271.756C217.194 271.64 217.485 273.89 219.141 274.64C221.011 275.501 224.781 273.536 225.22 270.827C225.263 270.553 225.274 270.274 225.252 269.998C226.323 270.405 227.417 270.77 228.492 271.173C228.741 271.293 228.986 271.426 229.225 271.574L229.264 271.611L229.288 271.652C228.943 271.992 228.645 272.378 228.395 272.68C225.331 276.32 221.647 275.939 221.459 278.196C221.395 278.975 221.745 280.083 221.529 281.393C221.516 281.468 221.35 282.397 220.913 282.539C220.827 282.563 220.737 282.576 220.647 282.576C220.455 282.57 220.269 282.508 220.112 282.397C219.955 282.275 219.838 282.109 219.774 281.92C219.576 281.384 218.306 279.166 217.52 278.321C215.421 276.061 211.2 276.743 211.095 275.614C211.023 275.114 211.873 274.452 212.594 274.251Z" fill="#FFE600"/>
<path d="M248.724 278.361C248.917 277.894 248.337 277.768 247.525 275.916C247.525 275.916 246.65 273.908 245.95 273.536C245.561 273.329 245.593 273.498 244.954 273.25C244.759 273.173 244.568 273.085 244.381 272.987C245.877 272.55 247.395 272.196 248.929 271.928C248.977 271.992 249.026 272.053 249.076 272.106C248.987 272.225 248.882 272.331 248.765 272.421C248.721 272.45 248.682 272.486 248.651 272.528C248.394 272.911 248.942 273.711 249.365 274.288C250.83 276.254 251.56 277.235 252.329 277.539C254.293 278.313 255.808 277.281 256.449 278.196C256.806 278.695 256.688 279.529 256.306 280.032C255.469 281.134 253.879 279.899 252.201 280.882C250.791 281.71 249.286 284.124 248.585 284.719C248.392 284.879 248.152 284.972 247.901 284.983C247.876 284.985 247.851 284.982 247.827 284.972C247.804 284.963 247.782 284.949 247.765 284.93C247.658 284.908 247.557 284.864 247.467 284.801C247.339 284.703 247.11 284.444 247.207 283.527C247.353 282.246 247.948 281.686 247.732 281.458C247.476 281.19 246.304 281.586 246.09 281.661C245.989 281.699 245.883 281.718 245.775 281.717C245.589 281.707 245.409 281.646 245.256 281.539C245.103 281.431 244.984 281.283 244.912 281.111C244.763 280.645 245.254 280.142 245.461 279.932C246.757 278.629 248.396 279.163 248.724 278.361Z" fill="white"/>
</svg>
