<svg width="300" height="300" viewBox="0 0 300 300" fill="none" xmlns="http://www.w3.org/2000/svg">
<rect width="300" height="300" fill="#FC565D"/>
<mask id="mask0_5_119352" style="mask-type:alpha" maskUnits="userSpaceOnUse" x="47" y="23" width="206" height="254">
<path d="M141.692 249.762L141.692 249.761L141.694 249.758L141.699 249.745L141.722 249.695C141.741 249.652 141.77 249.588 141.808 249.507C141.883 249.343 141.993 249.109 142.131 248.825C142.407 248.257 142.798 247.488 143.256 246.685C143.714 245.881 144.24 245.041 144.788 244.331C145.332 243.625 145.909 243.032 146.472 242.743M141.692 249.762L146.541 242.877M141.692 249.762C141.692 249.762 141.692 249.762 141.692 249.762C141.692 249.762 141.692 249.762 141.692 249.762C140.513 252.39 139.501 253.823 138.837 254.761L138.789 254.829C138.461 255.294 138.209 255.654 138.081 255.987C137.948 256.335 137.949 256.654 138.107 257.029L138.245 256.971M141.692 249.762L147.876 261.696M146.472 242.743C146.472 242.743 146.472 242.743 146.473 242.743L146.541 242.877M146.472 242.743C146.472 242.743 146.472 242.743 146.472 242.744L146.541 242.877M146.472 242.743C146.769 242.589 146.992 242.5 147.191 242.445C147.388 242.389 147.556 242.368 147.736 242.345L147.738 242.345L147.743 242.344C148.096 242.3 148.539 242.243 149.468 241.903M146.541 242.877C147.124 242.574 147.395 242.54 147.758 242.494C148.121 242.448 148.575 242.39 149.521 242.043M149.468 241.903C149.468 241.903 149.467 241.903 149.466 241.904L149.521 242.043M149.468 241.903C151.015 241.293 152.791 240.258 154.185 239.372C154.881 238.929 155.48 238.524 155.905 238.23C156.117 238.083 156.286 237.964 156.401 237.882C156.459 237.841 156.504 237.809 156.534 237.787L156.568 237.762L156.576 237.756L156.578 237.755L156.579 237.754L156.579 237.754L156.58 237.754C158.336 236.485 159.907 236.557 162.122 236.85C162.368 236.883 162.622 236.918 162.886 236.955C164.995 237.248 167.715 237.626 171.673 237.344L171.683 237.493M149.468 241.903C149.469 241.903 149.469 241.902 149.47 241.902L149.521 242.043M149.521 242.043C152.644 240.814 156.667 237.875 156.667 237.875L171.683 237.493M171.683 237.493C175.335 237.233 177.477 236.594 179.256 236.063C180.467 235.702 181.51 235.391 182.746 235.284M171.683 237.493L219.796 256.457C219.512 253.155 216.612 251.783 212.638 249.903C208.67 248.027 203.631 245.644 199.054 240.327C198.901 240.147 198.742 239.958 198.579 239.763C196.845 237.692 194.511 234.903 191.489 234.916C191.015 234.916 190.504 234.986 189.87 235.072C188.864 235.208 187.549 235.387 185.585 235.395C184.821 235.395 184.187 235.351 183.694 235.317C183.271 235.287 182.953 235.265 182.746 235.284M182.746 235.284L182.734 235.135C182.733 235.135 182.733 235.135 182.733 235.135M182.746 235.284L182.733 235.135C182.733 235.135 182.733 235.135 182.733 235.135M199.168 240.229C203.724 245.522 208.739 247.893 212.706 249.77L212.712 249.773L212.715 249.774C214.694 250.71 216.426 251.529 217.697 252.531C218.977 253.541 219.8 254.743 219.946 256.444L219.946 256.444C220.022 257.351 219.905 258.407 219.776 259.571C219.74 259.893 219.703 260.223 219.67 260.56C219.513 262.127 219.415 263.877 219.738 265.775L219.739 265.776C219.756 265.882 219.883 266.604 220.168 267.347C220.31 267.719 220.49 268.09 220.711 268.392C220.931 268.693 221.185 268.913 221.472 269.004C221.715 269.074 221.968 269.11 222.222 269.109C222.774 269.1 223.31 268.929 223.76 268.617C224.202 268.277 224.534 267.819 224.715 267.3L224.715 267.297C225.016 266.485 226.122 264.46 227.44 262.339C228.758 260.215 230.303 257.97 231.489 256.722L231.598 256.825L231.489 256.722C234.666 253.38 239.436 252.221 243.415 251.482C243.942 251.384 244.454 251.293 244.948 251.206C246.325 250.963 247.552 250.746 248.522 250.468C249.18 250.279 249.705 250.066 250.073 249.807C250.437 249.55 250.637 249.255 250.672 248.898C250.703 248.576 250.588 248.213 250.347 247.832C250.106 247.453 249.747 247.069 249.314 246.709C248.446 245.99 247.299 245.389 246.259 245.134L246.256 245.134C245.161 244.849 243.767 244.816 242.553 244.789C242.488 244.787 242.424 244.786 242.36 244.784C241.737 244.769 241.168 244.752 240.735 244.694C240.518 244.664 240.327 244.624 240.177 244.564C240.03 244.506 239.894 244.418 239.833 244.276L239.833 244.276C239.816 244.235 239.801 244.193 239.788 244.15C239.777 244.116 239.768 244.082 239.761 244.048L239.756 244.027L239.758 244.006C239.785 243.588 239.874 243.177 240.022 242.784C240.196 242.281 240.293 241.756 240.311 241.225L240.311 241.216L240.312 241.216C240.338 240.946 240.235 240.611 240.015 240.247C239.796 239.885 239.471 239.511 239.079 239.166C238.291 238.475 237.255 237.927 236.311 237.844L236.31 237.844C235.416 237.764 234.694 238.089 234.028 238.673C233.356 239.262 232.751 240.105 232.098 241.046C232.046 241.121 231.994 241.196 231.941 241.272C230.681 243.091 229.225 245.192 226.797 246.265M199.168 240.229L226.737 246.128M199.168 240.229C199.016 240.052 198.859 239.864 198.696 239.669C197.911 238.732 196.994 237.636 195.945 236.722C194.677 235.617 193.195 234.759 191.489 234.766C191.003 234.766 190.479 234.837 189.843 234.924C189.658 234.949 189.463 234.975 189.258 235.002C188.339 235.119 187.177 235.238 185.584 235.245C184.88 235.245 184.287 235.207 183.812 235.174L183.697 235.167C183.283 235.138 182.953 235.114 182.733 235.135M199.168 240.229L182.733 235.135M226.797 246.265C226.797 246.265 226.797 246.265 226.797 246.265L226.737 246.128M226.797 246.265C226.797 246.265 226.798 246.265 226.798 246.265L226.737 246.128M226.797 246.265C225.359 246.906 223.57 247.014 221.686 246.702C219.8 246.389 217.808 245.652 215.954 244.588C212.25 242.463 209.067 239.013 208.408 234.982L208.408 234.982C207.736 230.847 209.915 227.057 210.572 225.913C210.619 225.831 210.659 225.763 210.688 225.709L210.69 225.706C212.005 223.456 213.903 221.586 216.192 220.283M226.737 246.128C221.123 248.628 209.855 242.897 208.556 234.958C207.894 230.88 210.044 227.135 210.703 225.987C210.75 225.905 210.789 225.836 210.82 225.782C212.122 223.553 214.002 221.701 216.27 220.412M216.192 220.283C216.191 220.284 216.19 220.285 216.189 220.286L216.27 220.412M216.192 220.283C216.193 220.283 216.194 220.282 216.195 220.282L216.27 220.412M216.192 220.283C219.723 218.022 223.717 214.23 227.572 210.113C231.411 206.013 235.104 201.6 238.054 198.074L238.089 198.032C246.161 188.375 249.961 175.829 251.262 164.202C252.564 152.575 251.363 141.887 249.451 135.962L249.451 135.962C248.703 133.631 248.097 131.271 247.494 128.919L247.429 128.665C246.803 126.228 246.175 123.801 245.385 121.417L245.528 121.37L238.204 198.128M216.27 220.412C223.352 215.878 232.257 205.235 238.168 198.171L238.204 198.128M140.686 276.386C140.762 276.393 140.838 276.382 140.909 276.354C140.979 276.326 141.041 276.283 141.091 276.226C141.411 276.165 141.713 276.037 141.978 275.851C142.361 275.601 143.071 274.788 142.759 272.128C142.532 270.197 141.923 268.859 141.491 267.907C141.084 267.014 140.833 266.461 141.197 266.078C141.95 265.286 145.441 266.453 146.101 266.675C146.402 266.788 146.723 266.842 147.045 266.835C147.602 266.808 148.14 266.627 148.597 266.314C149.054 266.001 149.412 265.567 149.628 265.063C150.067 263.678 148.607 262.217 147.987 261.596L147.982 261.59M140.686 276.386L141.829 249.823C140.644 252.465 139.625 253.906 138.959 254.848C138.261 255.836 137.951 256.274 138.245 256.971M140.686 276.386C139.936 276.352 139.217 276.081 138.636 275.615L140.686 276.386ZM147.982 261.59C145.881 259.492 143.47 259.003 141.552 258.613C139.951 258.288 138.694 258.032 138.245 256.971M147.982 261.59L147.876 261.696M147.982 261.59L147.875 261.696L147.876 261.696M138.245 256.971L138.107 257.029C138.377 257.667 138.912 258.028 139.589 258.277C140.14 258.479 140.805 258.615 141.527 258.761C141.685 258.793 141.845 258.826 142.008 258.86C143.83 259.24 145.981 259.804 147.876 261.696M147.876 261.696L147.878 261.699C148.188 262.009 148.696 262.518 149.074 263.118C149.454 263.72 149.683 264.382 149.487 265.011C149.282 265.485 148.944 265.894 148.513 266.19C148.079 266.488 147.569 266.659 147.04 266.685C146.737 266.692 146.436 266.64 146.154 266.534L146.149 266.533C145.819 266.422 144.773 266.072 143.715 265.849C143.186 265.738 142.647 265.657 142.189 265.656C141.959 265.655 141.745 265.674 141.56 265.722C141.375 265.769 141.209 265.848 141.089 265.974C140.851 266.224 140.833 266.529 140.916 266.866C140.992 267.173 141.158 267.538 141.351 267.963L141.394 268.058C141.822 269 142.392 270.297 142.61 272.145C142.919 274.78 142.21 275.521 141.896 275.726L141.892 275.728C141.644 275.902 141.362 276.021 141.063 276.079L141.012 276.089L140.978 276.127C140.945 276.166 140.902 276.196 140.853 276.215C140.805 276.234 140.752 276.241 140.7 276.237L140.7 276.237L140.693 276.236C139.974 276.203 139.286 275.944 138.73 275.498C138.21 275.073 137.542 274.316 136.757 273.371C136.416 272.959 136.05 272.509 135.667 272.038C135.179 271.436 134.662 270.8 134.129 270.162C132.222 267.879 130.037 265.49 127.903 264.266L127.902 264.266C125.39 262.83 122.942 262.991 120.839 263.13L120.738 263.136C118.592 263.277 116.866 263.357 115.67 261.818L115.67 261.818C115.117 261.109 114.758 260.161 114.664 259.211C114.571 258.261 114.746 257.326 115.24 256.635C115.692 256.006 116.297 255.709 117.058 255.585C117.826 255.459 118.741 255.513 119.8 255.581L119.897 255.587C121.99 255.723 124.586 255.891 127.499 254.763C128.683 254.305 129.824 253.343 131.209 251.792C132.592 250.243 134.234 248.089 136.415 245.227L136.427 245.211L136.427 245.211C137.07 244.367 137.808 243.35 138.286 242.4C138.525 241.926 138.703 241.46 138.769 241.035C138.834 240.609 138.788 240.209 138.559 239.886L138.559 239.886L138.555 239.881C138.451 239.747 138.325 239.631 138.182 239.537C137.393 238.958 136.839 238.082 136.466 237.292C136.154 236.633 135.973 236.047 135.883 235.756C135.865 235.698 135.851 235.653 135.84 235.62C135.84 235.619 135.84 235.619 135.84 235.619L135.698 235.666M147.876 261.696L122.981 228.463M135.698 235.666C134.885 233.181 127.46 230.34 123.976 229.008C123.565 228.85 123.208 228.714 122.924 228.602M135.698 235.666C135.708 235.697 135.722 235.742 135.739 235.797C135.934 236.431 136.59 238.556 138.096 239.66L135.698 235.666ZM122.924 228.602L122.982 228.463C122.981 228.463 122.981 228.463 122.981 228.463M122.924 228.602L122.979 228.462C122.98 228.462 122.98 228.463 122.981 228.463M122.924 228.602C121.25 227.907 107.312 221.919 101.174 210.743L101.306 210.67C104.358 216.229 109.355 220.504 113.806 223.478C118.254 226.45 122.146 228.116 122.981 228.463M238.204 198.128C254.398 178.754 253.433 147.815 249.594 135.916L238.204 198.128ZM248.441 103.43L248.544 103.539L248.441 103.43C248.441 103.43 248.441 103.43 248.441 103.43ZM189.293 49.9273L189.293 49.9267L177.658 70.4322L177.758 70.3204C175.428 68.2365 174.239 64.5718 174.212 60.9571C174.186 57.34 175.323 53.8304 177.574 52.0445C179.567 50.4668 182.009 50.5584 184.211 50.7531C184.381 50.7681 184.55 50.7838 184.717 50.7994C185.623 50.8834 186.48 50.963 187.215 50.9122C188.09 50.8519 188.833 50.605 189.293 49.9273ZM195.037 23.3286L194.998 23.4733C194.998 23.4734 194.998 23.4734 194.998 23.4735L195.037 23.3286ZM203.041 33.4186C203.119 34.5223 202.974 35.6138 202.859 36.4812L202.846 36.5792C202.789 37.0157 202.74 37.3995 202.741 37.6857C202.741 37.8283 202.753 37.96 202.789 38.0668C202.827 38.1762 202.896 38.2789 203.022 38.3219C203.149 38.3657 203.268 38.3237 203.364 38.259C203.459 38.1953 203.551 38.0969 203.642 37.9829C203.792 37.7939 203.963 37.5306 204.155 37.2326C204.196 37.1705 204.237 37.1068 204.279 37.0419C204.774 36.2815 205.43 35.3251 206.358 34.5807C207.745 33.4705 209.574 32.9556 211.38 32.8482C213.186 32.7408 214.952 33.0421 216.199 33.5469C218.384 34.4442 220.269 36.3261 221.752 38.7932C223.235 41.2593 224.312 44.2998 224.883 47.4947C226.028 53.8926 225.144 60.8629 221.521 65.0619L221.52 65.0624C220.686 66.038 219.717 66.8502 218.818 67.6031C218.446 67.9149 218.086 68.2165 217.753 68.5153C217.189 69.0207 216.702 69.5194 216.382 70.0409C216.06 70.5661 215.905 71.1209 216.016 71.7303C216.22 72.864 217.183 73.3611 218.487 73.8655C218.727 73.9582 218.98 74.0518 219.245 74.1498C220.444 74.5927 221.891 75.1272 223.465 76.0895C227.318 78.4437 229.014 81.5669 230.624 84.5313C230.675 84.6249 230.726 84.7184 230.777 84.8117C232.433 87.8565 234.071 90.709 237.979 92.231L237.985 92.2329L238.567 92.4343L238.569 92.4349C239.899 92.8769 241.265 93.2134 242.651 93.4408C243.528 93.5903 245.912 93.9969 248.15 94.7249C249.269 95.0892 250.344 95.5315 251.173 96.0579C252.006 96.5873 252.562 97.1835 252.697 97.8449L252.844 97.8149L203.041 33.4186Z" fill="#D9D9D9" stroke="black" stroke-width="0.3"/>
</mask>
<g mask="url(#mask0_5_119352)">
<rect x="163.044" y="23" width="64.9938" height="35.1318" fill="#31CFF4"/>
<rect x="163.044" y="61.2057" width="64.9938" height="81.6814" fill="white"/>
<rect x="230.673" y="61.2057" width="64.9938" height="81.6814" fill="#FC565D"/>
<rect x="230.673" y="145.522" width="64.9938" height="66.3113" fill="#31CFF4"/>
<rect x="130.547" y="113.025" width="29.862" height="32.4969" fill="#FC565D"/>
<rect x="128.791" y="145.083" width="31.6186" height="64.1155" fill="white"/>
<rect x="128.791" y="211.833" width="31.6186" height="64.1155" fill="#31CFF4"/>
<rect x="162.637" y="144.626" width="64.038" height="65.8809" fill="#FFE600"/>
<rect x="163.922" y="211.833" width="64.1155" height="64.1155" fill="#FDB157"/>
<rect x="228.916" y="212.272" width="64.1155" height="64.1155" fill="#FFE600"/>
<rect x="78.7278" y="112.147" width="47.867" height="32.4969" fill="#FDB157"/>
<rect x="78.7278" y="145.522" width="47.867" height="63.6764" fill="white"/>
<rect x="78.7278" y="212.272" width="47.867" height="63.6764" fill="#FC565D"/>
<rect x="28.2258" y="112.147" width="47.867" height="32.4969" fill="white"/>
<rect x="28.2258" y="147.718" width="47.867" height="61.4807" fill="#FFE600"/>
<rect x="78.7278" y="61.2057" width="47.867" height="47.8671" fill="white"/>
<line x1="161.909" y1="24.3174" x2="161.909" y2="243.013" stroke="#050505" stroke-width="3"/>
<line x1="228.175" y1="24.3818" x2="228.175" y2="272.241" stroke="#050505" stroke-width="3"/>
<line x1="128.202" y1="24.3818" x2="128.202" y2="269.938" stroke="#050505" stroke-width="3"/>
<line x1="77.1538" y1="24.3174" x2="77.1538" y2="243.013" stroke="#050505" stroke-width="3"/>
<line x1="260.535" y1="144.387" x2="41.8394" y2="144.387" stroke="#050505" stroke-width="3"/>
<line x1="260.535" y1="210.699" x2="41.8394" y2="210.699" stroke="#050505" stroke-width="3"/>
<line x1="163.922" y1="110.573" x2="41.8395" y2="110.573" stroke="#050505" stroke-width="3"/>
<line x1="260.535" y1="59.6315" x2="41.8394" y2="59.6315" stroke="#050505" stroke-width="3"/>
</g>
</svg>
