<?xml version="1.0" encoding="utf-8"?>
<!-- Generator: Adobe Illustrator 25.4.1, SVG Export Plug-In . SVG Version: 6.00 Build 0)  -->
<svg version="1.1" id="Слой_1" xmlns="http://www.w3.org/2000/svg" xmlns:xlink="http://www.w3.org/1999/xlink" x="0px" y="0px"
	 viewBox="0 0 300 300" style="enable-background:new 0 0 300 300;" xml:space="preserve">
<style type="text/css">
	.st0{fill:#FC565D;}
	.st1{fill:#FB565D;}
	.st2{fill:#FEFEFE;}
	.st3{fill:#FCB057;}
	.st4{fill:#31CEF3;}
	.st5{fill:#050505;}
	.st6{fill:#FEE500;}
	.st7{fill:#F9575C;}
	.st8{fill:#FFFFFF;}
</style>
<rect x="-46.1" y="-50.7" class="st0" width="441.1" height="419.3"/>
<path class="st0" d="M245.6,105.3c-2.2-6.5-4-10.6-1.9-13.7c1-1.4,1.8-1.2,4.9-4.2c3.1-2.9,4.6-4.3,4.3-5.7
	c-0.6-2.9-8.4-4.2-10.2-4.5c-1.4-0.2-2.7-0.6-4.1-1l-0.6-0.2c-1.5-0.6-2.7-1.4-3.7-2.3c-0.1-0.1-0.2-0.2-0.3-0.4
	c-1.1-1.1-1.9-2.4-2.7-3.8v0c-1.5-2.8-2.9-5.7-5.9-8.2h0c-0.6-0.5-1.2-0.9-1.9-1.3c-1.3-0.8-2.5-1.3-3.5-1.7
	c-0.5-0.2-0.9-0.3-1.2-0.5c-1.4-0.5-2.4-1-2.6-2.1c-0.4-2.3,3.1-3.8,5.5-6.5c5.3-6.1,4.8-18,0.7-25.6h6.5c0.7,0,1.4,0,2,0
	c0.7,0,1.3,0.2,1.6,0.8c0,0,0,0,0,0c0.1,0,0.1,0,0.2,0c0.2-1-0.2-1.3-1.3-1.3c-3.1,0-6.2,0-9.4,0c-1.5-2.7-3.5-4.8-5.8-5.7
	c-1.1-0.4-2.6-0.7-4.2-0.7c-2,0-4.2,0.5-5.8,1.8c-1.8,1.5-2.6,3.7-3.1,3.7c0,0,0,0-0.1,0c-0.5-0.2,0.3-2.5,0.1-4.8
	c-0.3-3.9-3.4-8.8-8.2-10.1c-0.8-0.2-1.7-0.3-2.6-0.3c-4.9,0-10,3.3-11.1,7.3c-0.9,2.9,0.5,6,2.3,8.9c0.1,0.1,0.2,0.3,0.3,0.5
	c2.9,4.3,6.6,8.1,5.2,10.3c-0.5,0.7-1.4,0.9-2.4,0.9c-1.3,0-2.9-0.3-4.5-0.3c-1.6,0-3.3,0.3-4.8,1.4c-4.6,3.7-4.6,14.3,0.2,18.5
	c2.2,1.9,5,2.3,6.4,3.4c0.2,0.1,0.3,0.3,0.5,0.5c0.2,0.2,0.3,0.5,0.3,0.8c0.2,0.8-0.2,1.6-0.8,2.3c-0.6,0.8-1.5,1.4-1.7,1.7
	c-7.8,6.2-5.5,30.5-14,44.5c-1,1.6-2,3-3.3,4.2c-0.2,0.2-0.4,0.4-0.5,0.5c-0.2,0.2-0.4,0.4-0.6,0.6c-0.1,0.1-0.3,0.3-0.5,0.4
	c-6.9,5.7-18.1,8.2-28.1,10.6c-0.1,0-0.3,0.1-0.4,0.1c-0.2,0.1-0.3,0.1-0.5,0.1c-1,0.2-2,0.5-3,0.7c-5.7,1.4-10.7,2.9-14,5
	c-1.2,0.8-4.1,2.7-5.2,6c-0.6,1.8-0.6,3.8,0.1,5.6c0.3,0.6,0.6,1.2,1,1.7h-12.7c-3.8-4.9-0.6-11.6-5.1-21c-1.6-3.4-4.1-6.9-7.1-9.8
	c-1.1-1.1-2.2-2.1-3.5-3c-0.5-0.4-1.1-0.8-1.6-1.1c-0.8-0.6-1.7-1.1-2.6-1.5c-0.1-0.1-0.2-0.1-0.4-0.2c-2.9-1.4-6-2.3-9.1-2.3
	c-0.7,0-1.5,0-2.2,0.1c-3.1,0.4-7.7,2-10.5,4.9c-0.2,0.2-0.3,0.3-0.5,0.5c-0.6,0.7-1.1,1.6-1.5,2.5c0,0.1-0.1,0.1-0.1,0.2
	c0,0.1,0,0.1-0.1,0.2c-3,8.4,8,17.5,4.1,22.8c-1.8,2.5-4.5,1.1-8.5,4.7c-0.3,0.3-1.2,1.1-2.2,2.4c-0.6,0-1.3,0-1.9,0
	c-1.7,0-2.1,0.7-1.5,2.1c0,0,0,0.1,0,0.1c-0.1,1,0.3,1.2,1.3,1.2h0.1c-0.2,0.5-0.4,1.1-0.5,1.7c0,0.1-0.1,0.3-0.1,0.4
	c-0.1,0.7-0.2,1.4-0.2,2.1c-0.1,7.6,7.9,12.7,8.2,12.9c2.5,1.6,3.8,1.4,5.3,3.3c2,2.6,1,4.8,1.8,9.2c0.4,2.1,1.5,8.4,6.3,12
	c0.6,0.4,3.9,2.9,7.6,2.9c0.7,0,1.4-0.1,2.1-0.3c0.6-0.2,1.1-0.4,1.5-0.6c0.1-0.1,0.3-0.1,0.4-0.2c1.3-0.8,2.2-1.8,3-2.6
	c0.7-0.7,1.3-1.3,1.9-1.3c0.1,0,0.2,0,0.3,0.1c1.5,0.6,0,4.4,2.4,6.6c0.7,0.6,1.5,1,2.4,1.1c0.3,0,0.6,0.1,0.9,0.1
	c0.6,0,1.2-0.1,1.8-0.3c2.1-0.9,2.1-3.3,3.4-3.5c0.1,0,0.1,0,0.2,0c1.8,0,3.7,3.8,4.4,5.2c3.7,6.8,10.3,11.7,15.3,14.6
	c2.5,1.5,4.6,2.4,5.7,2.9c0.3,0.2,0.6,0.3,0.7,0.3c0.1,0,0.1,0,0.2,0.1c1.6,0.6,5.1,1.9,8,3.3c0.1,0.1,0.2,0.1,0.4,0.2
	c1.1,0.6,2.2,1.2,2.9,1.8c0.1,0.1,0.3,0.2,0.4,0.3c0.5,0.4,0.8,0.9,1,1.3c0.1,0.4,0.8,2.8,2.4,4c0.1,0.1,0.2,0.2,0.3,0.3
	c0.8,1.1-0.8,3.5-2.1,5.2c-0.6,0.7-1.1,1.4-1.6,2c-0.1,0.2-0.2,0.3-0.4,0.5c-1.1,1.5-2.1,2.7-3,3.7c-0.1,0.1-0.2,0.3-0.3,0.4
	c-1.4,1.5-2.5,2.4-3.6,2.9c-1.9,0.7-3.6,0.9-5.2,0.9c-1.5,0-2.9-0.2-4.1-0.2c-1.3,0-2.3,0.2-3,1.2c-1,1.5-0.7,3.9,0.4,5.4
	c0.9,1.2,2.2,1.4,3.6,1.4c1.1,0,2.4-0.2,3.7-0.2c1.6,0,3.3,0.2,5,1.2c1.1,0.6,2.2,1.5,3.2,2.6l0.3,0.3c1,1.1,2,2.2,3,3.4
	c0.1,0.1,0.2,0.3,0.4,0.5c1.6,1.9,3,3.7,3.9,4.5c0.6,0.5,1.3,0.7,2,0.8h0c0.1,0,0.1,0,0.2,0c0.1,0,0.1-0.1,0.2-0.1
	c0.3-0.1,0.6-0.2,0.9-0.4c0.4-0.2,1.1-1.1,0.8-3.7c-0.4-3.7-2.3-5.2-1.6-6c0.2-0.2,0.5-0.3,1-0.3c1.3,0,3.4,0.7,3.9,0.9
	c0.3,0.1,0.6,0.2,0.9,0.2h0.1c0.5,0,1.1-0.2,1.5-0.5c0.5-0.3,0.8-0.8,1-1.2c0.4-1.4-1-2.9-1.7-3.5c-3.8-3.8-8.8-2.3-9.7-4.6
	c-0.6-1.4,1.2-1.7,3.6-7.1c0,0,2.6-5.9,4.7-7c1.2-0.6,1.1-0.1,3-0.8c3.1-1.2,7.1-4.2,7.1-4.2c1.1-0.8,2.1-1,3.3-1
	c1.3,0,2.7,0.3,4.7,0.5c0.1,0,0.3,0,0.5,0c0.8,0.1,1.7,0.2,2.7,0.2c0.1,0,0.2,0,0.4,0c0.2,0,0.3,0,0.5,0h0.4c0.8,0,1.7,0,2.6-0.1
	c6.1-0.4,8-2,11.1-2.2c0,0,0.1,0,0.2,0c0.5,0,1.4,0.1,2.7,0.1c3.2,0,4.7-0.5,5.9-0.5c0,0,0,0,0,0c3.3,0,5.8,3.3,7.5,5.4
	c9.2,10.6,20.2,9.5,20.8,16.1c0.2,2.3-0.9,5.5-0.2,9.3c0,0.2,0.5,2.9,1.8,3.3c0.2,0.1,0.5,0.1,0.8,0.1c0,0,0,0,0,0
	c0.6,0,1.1-0.2,1.6-0.5c0.5-0.3,0.8-0.8,1-1.4c0.5-1.4,3.7-6.8,6-9.7c0.2-0.2,0.3-0.4,0.5-0.5c0.1-0.1,0.2-0.2,0.3-0.3
	c0.8-0.9,1.8-1.6,2.8-2.2c0.2-0.1,0.3-0.2,0.5-0.3c6.6-3.7,15.7-2.7,16-5.5c0.1-1.5-2.4-3.4-4.5-3.9c-2.3-0.6-6-0.1-6.3-0.8
	c0-0.1-0.1-0.1-0.1-0.2c0-0.4,0.1-0.8,0.2-1.2c0.2-0.5,0.3-1.1,0.3-1.6c0.1-1.3-2.2-3.4-4.1-3.5c-0.1,0-0.2,0-0.3,0
	c-0.4,0-0.8,0.1-1.2,0.3c-0.2,0.1-0.3,0.2-0.5,0.3c-1.1,0.7-2,2.2-3,3.7c-0.2,0.2-0.3,0.4-0.5,0.6c-1.1,1.4-2.3,2.8-4.1,3.6
	c-0.9,0.4-2,0.6-3.1,0.6c-5.9,0-14-5.1-15.1-11.8c-0.4-2.4,0.2-4.6,0.8-6.3c0-0.1,0.1-0.3,0.2-0.4c0.5-1.3,1.1-2.2,1.3-2.5
	c0.1-0.1,0.2-0.3,0.3-0.4c1.3-2,3.1-3.7,5.2-4.9c4.7-3,10.2-8.7,15.1-14.2c1-1.2,2-2.4,3-3.5c0.2-0.2,0.3-0.4,0.5-0.5
	c0-0.1,0.1-0.1,0.1-0.2c0.1-0.2,0.3-0.3,0.4-0.5c1-1.2,2-2.3,2.8-3.4c8.6-10.3,12.4-23.9,13.4-36.1c0-0.1,0-0.2,0-0.3
	c0.1-0.8,0.1-1.6,0.2-2.3c0-0.1,0-0.2,0-0.4c0.5-9.6-0.6-18-2.2-23C248.1,115,247.2,110,245.6,105.3z M167.9,24.2c0,0-0.1,0-0.1,0
	C167.8,24.3,167.8,24.3,167.9,24.2C167.9,24.3,167.9,24.2,167.9,24.2z M46.6,112.1C46.6,112.1,46.6,112.1,46.6,112.1L46.6,112.1
	C46.7,112.1,46.7,112.1,46.6,112.1L46.6,112.1z M235.1,208.9c0,0.1,0.1,0.2,0.1,0.3l0.1,0C235.3,209.1,235.2,209,235.1,208.9z"/>
<g>
	<path class="st1" d="M80.5,147.7c0,0-0.1,0-0.1,0.1c0,0,0,0-0.1,0c-0.7,0.4-1.4,0.2-2.1,0.2c-10.3,0-20.6,0-30.9,0
		c0-0.1,0-0.3,0.1-0.4c0.1-0.6,0.3-1.2,0.5-1.7h-0.1c-1,0-1.4-0.3-1.3-1.2c0,0,0-0.1,0-0.1c0,0,0,0,0.1,0c0,0,0,0,0.1,0
		c0.3,0.7,0.9,0.8,1.4,0.9c0.3,0,0.6,0,0.9,0h28.7c0.5,0,1,0,1.6,0C80.7,145.6,81,146.2,80.5,147.7z"/>
	<path class="st1" d="M46.6,112.1L46.6,112.1C46.7,112.1,46.7,112.1,46.6,112.1L46.6,112.1C46.6,112.1,46.6,112.1,46.6,112.1z"/>
	<path class="st1" d="M80.8,106.5v0.4c0,2.7-0.1,2.8-2.8,2.8c-6.6,0-13.3,0-19.9,0c0.1-0.2,0.3-0.3,0.5-0.5c2.8-3,7.4-4.5,10.5-4.9
		c0.7-0.1,1.5-0.1,2.2-0.1c3.1,0,6.2,0.8,9.1,2.3C80.6,106.3,80.7,106.4,80.8,106.5z"/>
	<path class="st1" d="M167.8,24.2c0.1,0,0.1,0,0.1,0C167.9,24.2,167.9,24.3,167.8,24.2C167.8,24.3,167.8,24.3,167.8,24.2z"/>
	<path class="st2" d="M232.8,24.3c-0.1,0-0.1,0-0.2,0c0,0,0,0,0,0c-0.3-0.6-0.9-0.8-1.6-0.8c-0.7,0-1.4,0-2,0h-44.9
		c-0.1-0.1-0.2-0.3-0.3-0.5c-1.9-2.9-3.2-5.9-2.3-8.9c1.2-3.9,6.2-7.3,11.1-7.3c0.9,0,1.7,0.1,2.6,0.3c4.7,1.3,7.9,6.1,8.2,10.1
		c0.2,2.3-0.6,4.6-0.1,4.8c0,0,0,0,0.1,0c0.5,0,1.3-2.3,3.1-3.7c1.6-1.3,3.8-1.8,5.8-1.8c1.6,0,3,0.3,4.2,0.7c2.3,1,4.3,3,5.8,5.7
		c3.1,0,6.2,0,9.4,0C232.6,23,233,23.2,232.8,24.3z"/>
	<path class="st3" d="M249.7,119.8c1.6,5,2.7,13.5,2.2,23c0,0.1,0,0.2,0,0.4h-14.7c-0.4,0-0.8,0-1.2,0c-1.6-0.1-1.9-0.3-1.9-2
		c0-1.8,0-3.6,0-5.4V73.3c0.1,0.1,0.2,0.2,0.3,0.4c1,1,2.2,1.8,3.7,2.3l0.6,0.2c1.3,0.4,2.7,0.8,4.1,1c1.8,0.3,9.6,1.6,10.2,4.5
		c0.3,1.4-1.2,2.8-4.3,5.7c-3.2,3-4,2.8-4.9,4.2c-2.1,3.1-0.3,7.1,1.9,13.7C247.2,110,248.1,115,249.7,119.8z"/>
	<path class="st1" d="M169.1,214.4v7.1h-0.4c-0.2,0-0.3,0-0.5,0c-0.1,0-0.2,0-0.4,0v-7.2c0-0.6-0.1-1.2,0.2-1.8
		c0.1-0.3,0.3-0.5,0.7-0.4c0,0,0.1,0.1,0.1,0.1c0,0,0,0.1,0.1,0.1C169.3,213,169.1,213.7,169.1,214.4z"/>
	<path class="st4" d="M235.1,208.9c0.1,0.1,0.2,0.2,0.3,0.3l-0.1,0C235.2,209.1,235.2,209,235.1,208.9z"/>
	<path class="st4" d="M251.7,145.5c0,0.1,0,0.2,0,0.3c-1,12.2-4.8,25.8-13.4,36.1c-0.9,1-1.8,2.2-2.8,3.4c-0.1,0.2-0.3,0.3-0.4,0.5
		v-38.2c0-0.5,0-1,0.2-1.5c0,0,0,0,0,0c0-0.1,0.1-0.2,0.1-0.2c0.6-0.5,1.4-0.4,2.2-0.4C242.2,145.5,247,145.5,251.7,145.5z"/>
	<path class="st5" d="M167.9,24.2C167.9,24.2,167.9,24.3,167.9,24.2c-0.1,0.1-0.1,0-0.1,0C167.8,24.2,167.9,24.2,167.9,24.2z"/>
	<path class="st5" d="M232.6,24.3C232.6,24.3,232.6,24.3,232.6,24.3c0.1,0,0.2,0,0.2,0C232.8,24.3,232.7,24.3,232.6,24.3z
		 M235.7,142.9c-1.1,0-1.3-0.2-1.3-1.3c0-22.7,0-45.3,0-67.9c-0.1-0.1-0.2-0.2-0.3-0.4c-1.1-1.1-1.9-2.4-2.7-3.8v0
		c-1.5-2.8-2.9-5.7-5.9-8.2h0c-0.6-0.5-1.2-0.9-1.9-1.3c-1.3-0.8-2.5-1.3-3.5-1.7c-0.5-0.2-0.9-0.3-1.2-0.5h-34.7
		c0.2,0.1,0.3,0.3,0.5,0.5c0.2,0.2,0.3,0.5,0.3,0.8c0.2,0.8-0.2,1.6-0.8,2.3c-0.6,0.8-1.5,1.4-1.7,1.7c-7.8,6.2-5.5,30.5-14,44.5
		c-1,1.6-2,3-3.3,4.2c-0.2,0.2-0.4,0.4-0.5,0.5c-0.2,0.2-0.4,0.4-0.6,0.6c-0.1,0.1-0.3,0.3-0.5,0.4c-6.9,5.7-18.1,8.2-28.1,10.6
		c-0.1,0-0.3,0.1-0.4,0.1c-0.2,0.1-0.3,0.1-0.5,0.1c-1,0.2-2,0.5-3,0.7c-5.7,1.4-10.7,2.9-14,5c-1.2,0.8-4.1,2.7-5.2,6
		c-0.6,1.8-0.6,3.8,0.1,5.6c0.3,0.6,0.6,1.2,1,1.7h-12.7c-3.8-4.9-0.6-11.6-5.1-21c-1.6-3.4-4.1-6.9-7.1-9.8c-1.1-1.1-2.2-2.1-3.5-3
		c-0.5-0.4-1.1-0.8-1.6-1.1c-0.8-0.6-1.7-1.1-2.6-1.5c-0.1-0.1-0.2-0.1-0.4-0.2v1.6c0,1-0.3,1.2-1.3,1.2c-6.9,0-13.7,0-20.6,0
		c-0.2,0.2-0.3,0.3-0.5,0.5c-0.6,0.7-1.1,1.6-1.5,2.5c0,0.1-0.1,0.1-0.1,0.2c0,0.1,0,0.1-0.1,0.2c7.2,0,14.5,0,21.7,0
		c1.8,0,1.8,0,1.8,1.9c0,8.7,0,17.4,0,26.1c0,1.8,0,1.9-1.9,1.9c-5.6,0-11.3,0-16.9,0c-3.8,0-7.5,0-11.3,0c-0.6,0-1.3,0-1.9,0
		c-1.7,0-2.1,0.7-1.5,2.1c0,0,0,0.1,0,0.1c-0.1,1,0.3,1.2,1.3,1.2h0.1c9,0,18.1,0,27.1,0c1.5,0,3,0,4.6,0c0.6,0,0.9,0.2,0.8,0.8
		c0,0.3,0,0.6,0,1c0,0-0.1,0.1-0.1,0.1c-0.4,0.7-0.3,1.5-0.3,2.2c0,13.2,0,26.4,0,39.6c0.1-0.1,0.3-0.1,0.4-0.2
		c1.3-0.8,2.2-1.8,3-2.6c0.7-0.7,1.3-1.3,1.9-1.3c0.1,0,0.2,0,0.3,0.1c1.5,0.6,0,4.4,2.4,6.6c0.7,0.6,1.5,1,2.4,1.1
		c0.3,0,0.6,0.1,0.9,0.1c0.6,0,1.2-0.1,1.8-0.3c2.1-0.9,2.1-3.3,3.4-3.5c0.1,0,0.1,0,0.2,0c1.8,0,3.7,3.8,4.4,5.2
		c3.7,6.8,10.3,11.7,15.3,14.6c2.5,1.5,4.6,2.4,5.7,2.9c0.3,0.2,0.6,0.3,0.7,0.3c0.1,0,0.1,0,0.2,0.1h5.1c3.1,0,2.8-0.3,2.8,2.8v0.5
		c0.1,0.1,0.2,0.1,0.4,0.2c1.1,0.6,2.2,1.2,2.9,1.8c0.1,0.1,0.3,0.2,0.4,0.3v-3.9c0-1.7,0.1-1.8,1.8-1.8c8.8,0,17.7,0,26.5,0
		c1.5,0,1.6,0.1,1.6,1.6c0,2.4,0,4.7,0,7c0.1,0,0.3,0,0.5,0c0.8,0.1,1.7,0.2,2.7,0.2c0.1,0,0.2,0,0.4,0c0-2.7,0-5.5,0-8.2
		c0-0.3-0.4-1.1,0.5-1c0.1,0,0.1,0.1,0.2,0.1c0.6,0.3,1.3,0.2,2,0.2c12.8,0,25.7,0,38.5,0c0-0.1,0.1-0.3,0.2-0.4
		c0.5-1.3,1.1-2.2,1.3-2.5c0.1-0.1,0.2-0.3,0.3-0.4c1.3-2,3.1-3.7,5.2-4.9c4.7-3,10.2-8.7,15.1-14.2c1-1.2,2-2.4,3-3.5
		c0.2-0.2,0.3-0.4,0.5-0.5c0-12.6,0-25.2,0-37.9c0-0.4,0-0.8,0-1.2c0-0.3,0.1-0.6,0.3-0.8c0,0,0,0,0,0c0.1-0.1,0.1-0.1,0.2-0.2
		c0.4,0,0.9,0,1.3,0c5,0,10,0,14.9,0c0-0.1,0-0.2,0-0.3c0.1-0.8,0.1-1.6,0.2-2.3c0-0.1,0-0.2,0-0.4
		C246.5,142.8,241.1,142.8,235.7,142.9z M134.4,231.5c-1.1,1.5-2.1,2.7-3,3.7c-0.1,0.1-0.2,0.3-0.3,0.4c0,5.1,0,10.2,0,15.2l0.3,0.3
		c1,1.1,2,2.2,3,3.4c0.1,0.1,0.2,0.3,0.4,0.5v-24C134.7,231.2,134.6,231.4,134.4,231.5z M46.6,112.1
		C46.6,112.1,46.6,112.1,46.6,112.1L46.6,112.1C46.7,112.1,46.7,112.1,46.6,112.1L46.6,112.1z M235.1,208.9c0,0.1,0.1,0.2,0.1,0.3
		l0.1,0C235.3,209.1,235.2,209,235.1,208.9z M234.4,222.1c-1.1,0.7-2,2.2-3,3.7c-0.2,0.2-0.3,0.4-0.5,0.6v15.1
		c0.2-0.2,0.3-0.4,0.5-0.5c0.1-0.1,0.2-0.2,0.3-0.3c0.8-0.9,1.8-1.6,2.8-2.2c0.2-0.1,0.3-0.2,0.5-0.3v-16.4
		C234.7,221.9,234.6,222,234.4,222.1z"/>
	<path class="st6" d="M250.9,232.8c-0.3,2.8-9.4,1.8-16,5.5c-0.2,0.1-0.3,0.2-0.5,0.3c0-5.5,0-11,0-16.4c0.2-0.1,0.3-0.2,0.5-0.3
		c0.4-0.2,0.8-0.3,1.2-0.3c0.1,0,0.2,0,0.3,0c2,0.2,4.3,2.3,4.1,3.5c0,0.5-0.1,1.1-0.3,1.6c-0.1,0.4-0.2,0.8-0.2,1.2
		c0,0.1,0,0.1,0.1,0.2c0.3,0.7,4,0.2,6.3,0.8C248.5,229.4,251,231.3,250.9,232.8z"/>
	<path class="st3" d="M231.4,225.8c0,5.1,0,10.1,0,15.2c-0.1,0.2-0.3,0.4-0.5,0.5c-2.3,2.9-5.5,8.3-6,9.7c-0.2,0.5-0.5,1-1,1.4
		c-0.5,0.3-1,0.5-1.6,0.5c0,0,0,0,0,0c-0.3,0-0.5,0-0.8-0.1c-1.3-0.4-1.8-3.1-1.8-3.3c-0.7-3.8,0.4-7.1,0.2-9.3
		c-0.6-6.6-11.6-5.5-20.8-16.1c-1.8-2.1-4.2-5.4-7.5-5.4c0,0,0,0,0,0c-1.2,0-2.7,0.5-5.9,0.5c-1.2,0-2.2-0.1-2.7-0.1
		c-0.1,0-0.1,0-0.2,0c-3,0.3-4.9,1.8-11.1,2.2c-1,0.1-1.8,0.1-2.6,0.1h-0.4v-9.2c0,0,0.1,0,0.1,0c0.4,0,0.7,0,1.1,0
		c13.2,0,26.5,0,39.7,0c-0.1,0.1-0.1,0.2-0.2,0.4c-0.7,1.7-1.2,3.9-0.8,6.3c1.1,6.7,9.2,11.8,15.1,11.8c1.1,0,2.2-0.2,3.1-0.6
		c1.8-0.8,3.1-2.2,4.1-3.6C231.1,226.2,231.2,226,231.4,225.8z"/>
	<path class="st4" d="M131.1,235.6c0.1-0.1,0.2-0.3,0.3-0.4c0,5.3,0,10.6,0,16l-0.3-0.3c-1.1-1.1-2.2-2-3.2-2.6
		c-1.7-1-3.4-1.2-5-1.2c-1.3,0-2.6,0.2-3.7,0.2c-1.4,0-2.7-0.3-3.6-1.4c-1.1-1.5-1.5-3.9-0.4-5.4c0.7-1,1.7-1.2,3-1.2
		c1.2,0,2.5,0.2,4.1,0.2c1.6,0,3.3-0.2,5.2-0.9C128.7,238.1,129.8,237.1,131.1,235.6z"/>
	<path class="st4" d="M131.5,213.5v2.5c-0.1-0.1-0.2-0.1-0.4-0.2c-2.9-1.5-6.4-2.7-8-3.3c-0.1,0-0.1,0-0.2-0.1
		c-0.1-0.1-0.4-0.2-0.7-0.3c2.6,0,5.2,0,7.9,0C131.2,212.2,131.5,212.5,131.5,213.5z"/>
	<path class="st6" d="M80.4,189.4c-0.1,0.1-0.3,0.2-0.4,0.2c-0.5,0.2-1,0.5-1.5,0.6c-0.7,0.2-1.4,0.3-2.1,0.3c-3.7,0-7-2.5-7.6-2.9
		c-4.8-3.7-5.9-9.9-6.3-12c-0.8-4.5,0.2-6.7-1.8-9.2c-1.5-1.9-2.8-1.7-5.3-3.3c-0.4-0.2-8.3-5.3-8.2-12.9c0-0.7,0.1-1.4,0.2-2.1
		c0-0.1,0-0.3,0.1-0.4c11,0,22,0,33,0v0.1c0,0.4,0,0.8,0,1.2C80.4,162.4,80.4,175.9,80.4,189.4z"/>
	<path class="st4" d="M167.8,24.2c0.1,0,0.1,0,0.1,0C167.9,24.2,167.9,24.3,167.8,24.2C167.8,24.3,167.8,24.3,167.8,24.2z"/>
	<path class="st4" d="M232.8,24.3c-0.1,0-0.1,0-0.2,0c0,0,0,0,0,0c-0.3-0.6-0.9-0.8-1.6-0.8c-0.7,0-1.4,0-2,0h-6.5
		c4,7.5,4.6,19.5-0.7,25.6c-2.4,2.8-5.9,4.3-5.5,6.5c0.2,1.1,1.2,1.6,2.6,2.1c0.4,0.1,0.8,0.3,1.2,0.5c-11.8,0-23.6,0-35.5,0
		c-0.1-0.2-0.3-0.3-0.5-0.5c-1.4-1.1-4.2-1.4-6.4-3.4c-4.8-4.2-4.8-14.9-0.2-18.5c1.5-1.1,3.1-1.4,4.8-1.4c1.6,0,3.2,0.3,4.5,0.3
		c1.1,0,1.9-0.2,2.4-0.9c1.5-2.2-2.3-6-5.2-10.3c-0.1-0.1-0.2-0.3-0.3-0.5c12.8,0,25.6,0,38.4,0c3.1,0,6.2,0,9.4,0
		C232.6,23,233,23.2,232.8,24.3z"/>
	<path class="st4" d="M165.2,213.5c0,2.6,0,5.2,0,7.8c-0.2,0-0.3,0-0.5,0c-1.9-0.2-3.4-0.5-4.7-0.5c-1.2,0-2.2,0.2-3.3,1
		c0,0-4,2.9-7.1,4.2c-1.9,0.7-1.8,0.2-3,0.8c-2.1,1.1-4.7,7-4.7,7c-2.4,5.4-4.2,5.8-3.6,7.1c1,2.3,5.9,0.8,9.7,4.6
		c0.6,0.6,2.1,2.1,1.7,3.5c-0.2,0.5-0.6,0.9-1,1.2c-0.5,0.3-1,0.5-1.5,0.5H147c-0.3,0-0.6,0-0.9-0.2c-0.5-0.2-2.6-0.9-3.9-0.9
		c-0.4,0-0.8,0.1-1,0.3c-0.8,0.8,1.1,2.3,1.6,6c0.3,2.7-0.4,3.5-0.8,3.7c-0.3,0.2-0.6,0.3-0.9,0.4c-0.1,0.1-0.1,0.1-0.2,0.1
		c-0.1,0-0.1,0-0.2,0h0c-0.8,0-1.5-0.3-2-0.8c-0.9-0.8-2.3-2.5-3.9-4.5c-0.1-0.2-0.2-0.3-0.4-0.5v-2.4c0-6.9,0-13.8,0-20.7
		c0.1-0.2,0.2-0.3,0.4-0.5c0.5-0.6,1-1.3,1.6-2c1.3-1.7,2.9-4,2.1-5.2c-0.1-0.1-0.2-0.2-0.3-0.3c-1.6-1.2-2.3-3.6-2.4-4
		c-0.1-0.4-0.5-0.9-1-1.3c-0.1-0.1-0.2-0.2-0.4-0.3c0-1.5,0-3,0-4.4c0-1,0.2-1.3,1.3-1.3c9.4,0.1,18.8,0.1,28.2,0
		C165,212.2,165.2,212.5,165.2,213.5z"/>
	<path class="st2" d="M46.7,112.1C46.6,112.1,46.6,112.1,46.7,112.1L46.7,112.1C46.7,112.1,46.7,112.1,46.7,112.1L46.7,112.1z"/>
	<path class="st2" d="M80.4,141.7c0,0.9-0.2,1.2-1.2,1.2c-9.9,0-19.8,0-29.7,0h-1.1c-1.8,0-1.8,0-1.9,1.7c0,0,0,0.1,0,0.1
		c0,0,0-0.1,0-0.1c-0.6-1.5-0.1-2.1,1.5-2.1c0.6,0,1.3,0,1.9,0c1-1.3,1.9-2.1,2.2-2.4c4-3.6,6.7-2.2,8.5-4.7
		c3.9-5.4-7.1-14.4-4.1-22.8c0-0.1,0-0.1,0.1-0.2c0-0.1,0.1-0.1,0.1-0.2c7.5,0,15,0,22.4,0c1.1,0,1.4,0.2,1.4,1.3
		C80.4,122.8,80.4,132.3,80.4,141.7z"/>
	<path class="st1" d="M235.1,208.9c0.1,0.1,0.2,0.2,0.3,0.3l-0.1,0C235.2,209.1,235.2,209,235.1,208.9z"/>
	<path class="st1" d="M235.4,145.9v39.5c-0.1,0.2-0.3,0.3-0.4,0.5c-0.1,0-0.1,0.1-0.1,0.2c-0.2,0.2-0.3,0.3-0.5,0.5v-39.5
		C234.4,146.4,234.3,145.7,235.4,145.9C235.4,145.9,235.4,145.9,235.4,145.9z"/>
	<path class="st2" d="M231.4,141.7c0,0.9-0.2,1.2-1.2,1.2c-20.3,0-40.6,0-60.9,0c-1,0-1.1-0.3-1.1-1.2c0-9.5,0-19,0-28.4
		c0-1.1,0.7-2,0.5-3.2c-0.1-0.9-0.2-1.8-0.3-2.7c8.5-13.9,6.3-38.3,14-44.5c0.3-0.2,1.1-0.8,1.7-1.7c13.8,0,27.5,0,41.3,0h0
		c3,2.5,4.4,5.5,5.9,8.2v0c0,10.9,0,21.8,0,32.6C231.4,115.3,231.4,128.5,231.4,141.7z"/>
	<path class="st6" d="M231.4,147.1c0,14.3,0,28.6,0,43c-4.9,5.5-10.4,11.2-15.1,14.2c-2.1,1.2-3.9,2.9-5.2,4.9
		c-13.9,0-27.8,0-41.7,0c-1,0-1.3-0.2-1.3-1.2c0-10.2,0-20.3,0-30.5c0-10.1,0-20.2,0-30.4c0-1,0.1-1.3,1.3-1.3c20.2,0,40.5,0,60.7,0
		C231.1,145.9,231.4,146,231.4,147.1z"/>
	<path class="st2" d="M131.5,207.9c0,1.2-0.4,1.3-1.4,1.3c-4.5,0-9,0-13.5,0c-5-2.9-11.6-7.8-15.3-14.6c-0.8-1.4-2.7-5.2-4.4-5.2
		c-0.1,0-0.1,0-0.2,0c-1.3,0.2-1.3,2.6-3.4,3.5c-0.6,0.2-1.2,0.3-1.8,0.3c-0.3,0-0.6,0-0.9-0.1c-0.9-0.1-1.8-0.5-2.4-1.1
		c-2.4-2.2-0.9-6-2.4-6.6c-0.1,0-0.2-0.1-0.3-0.1c-0.5,0-1.1,0.6-1.9,1.3c0-3.1,0-6.2,0-9.3c0-10.1,0-20.2,0-30.3
		c0-1,0.2-1.3,1.2-1.3c6.6,0,13.2,0,19.8,0h0.1c4.2,0,8.5,0,12.7,0c4.3,0,8.7,0,13,0c1,0,1.3,0.2,1.3,1.2
		C131.5,167.4,131.4,187.6,131.5,207.9z"/>
	<path class="st2" d="M85.1,109.1h-0.5c-0.9,0-1.2-0.2-1.2-1.1v0C84,108.3,84.5,108.7,85.1,109.1z"/>
	<path class="st2" d="M165.2,177.5c0,10.2,0,20.4,0,30.6c0,0.9-0.2,1.2-1.2,1.2c-9.5,0-19,0-28.4,0c-0.9,0-1.2-0.2-1.2-1.1
		c0-20.4,0-40.8,0-61.2c0-0.9,0.3-1.1,1.1-1.1c9.5,0,19,0,28.6,0c1,0,1.1,0.3,1.1,1.1C165.1,157.2,165.2,167.3,165.2,177.5z"/>
	<path class="st3" d="M100.7,142.8c-5.4,0-10.7,0-16.1,0c-0.9,0-1.2-0.2-1.2-1.1c0-9.5,0-19,0-28.5c0-0.9,0.2-1.1,1.1-1.1h4
		c3,2.9,5.4,6.3,7.1,9.8C100,131.2,96.9,137.9,100.7,142.8z"/>
	<path class="st3" d="M131.5,141.7c0,1-0.4,1.1-1.2,1.1c-5.6,0-11.2,0-16.9,0c-0.4-0.5-0.7-1-1-1.7c-0.7-1.8-0.7-3.8-0.1-5.6
		c1.1-3.4,3.9-5.3,5.2-6c3.3-2.1,8.4-3.6,14-5C131.5,130.3,131.5,136,131.5,141.7z"/>
	<path class="st3" d="M165.2,141.9c0,0.7-0.2,0.9-0.9,0.9c-9.5,0-19,0-28.5,0c-0.1,0-0.2,0-0.4-0.1c-0.4-0.5-0.4-1-0.4-1.6
		c0-5.8,0-11.7,0-17.5c0.1,0,0.3-0.1,0.4-0.1c10.1-2.4,21.2-4.9,28.1-10.6c0.2-0.1,0.3-0.2,0.5-0.4c0.4,0,0.8,0.1,1.2,0.4
		c0,5.4,0,10.7,0,16.1C165.2,133.4,165.1,137.7,165.2,141.9z"/>
	<path class="st7" d="M135,123.7c0.1,0,0.3-0.1,0.4-0.1c0,6.4,0,12.8,0,19.2c-0.7,0.2-0.9,0-0.9-0.8c0-6.1,0-12.1,0-18.2
		C134.6,123.8,134.8,123.8,135,123.7z"/>
	<path class="st7" d="M165.1,113h-1.6c0.2-0.1,0.3-0.2,0.5-0.4c0.2-0.2,0.4-0.4,0.6-0.6C165.2,112.1,165.2,112.5,165.1,113z"/>
</g>
<path class="st8" d="M48,142.4c-1.7,0-2.1,0.7-1.5,2.1c0,0,0,0.1,0,0.1c-0.1,1,0.3,1.2,1.3,1.2h0.1c0-0.1,0.1-0.3,0.2-0.4
	c0.4-1,1-1.9,1.5-2.7c0.1-0.2,0.2-0.3,0.3-0.4C49.3,142.4,48.7,142.4,48,142.4z M46.6,112.1C46.6,112.1,46.6,112.1,46.6,112.1
	L46.6,112.1C46.7,112.1,46.7,112.1,46.6,112.1L46.6,112.1z M117.2,145.9c-0.7-0.6-2.5-1.3-3.8-3h-12.7c0.4,0.6,1,1.1,1.6,1.6
	c0.7,0.5,1.4,1,2.2,1.4h0.1c2.5,1.3,5.4,1.8,7.8,1.8c2.8,0,5-0.6,5.2-1.2C117.5,146.2,117.4,146,117.2,145.9z M167.8,24.2
	C167.8,24.3,167.8,24.3,167.8,24.2c0.1,0,0.1,0,0.1,0C167.9,24.2,167.8,24.2,167.8,24.2z M231.5,23c-3.1,0-6.2,0-9.4,0
	c0.1,0.1,0.2,0.3,0.3,0.5h6.5c0.7,0,1.4,0,2,0c0.7,0,1.3,0.2,1.6,0.8c0,0,0,0,0,0c0.1,0,0.1,0,0.2,0C233,23.2,232.6,23,231.5,23z
	 M235.1,208.9c0,0.1,0.1,0.2,0.1,0.3l0.1,0C235.3,209.1,235.2,209,235.1,208.9z M231.5,23c-3.1,0-6.2,0-9.4,0
	c0.1,0.1,0.2,0.3,0.3,0.5h6.5c0.7,0,1.4,0,2,0c0.7,0,1.3,0.2,1.6,0.8c0,0,0,0,0,0c0.1,0,0.1,0,0.2,0C233,23.2,232.6,23,231.5,23z
	 M117.2,145.9c-0.7-0.6-2.5-1.3-3.8-3h-12.7c0.4,0.6,1,1.1,1.6,1.6c0.7,0.5,1.4,1,2.2,1.4h0.1c2.5,1.3,5.4,1.8,7.8,1.8
	c2.8,0,5-0.6,5.2-1.2C117.5,146.2,117.4,146,117.2,145.9z M167.8,24.2C167.8,24.3,167.8,24.3,167.8,24.2c0.1,0,0.1,0,0.1,0
	C167.9,24.2,167.8,24.2,167.8,24.2z M48,142.4c-1.7,0-2.1,0.7-1.5,2.1c0,0,0,0.1,0,0.1c-0.1,1,0.3,1.2,1.3,1.2h0.1
	c0-0.1,0.1-0.3,0.2-0.4c0.4-1,1-1.9,1.5-2.7c0.1-0.2,0.2-0.3,0.3-0.4C49.3,142.4,48.7,142.4,48,142.4z M117.2,145.9
	c-0.7-0.6-2.5-1.3-3.8-3h-12.7c0.4,0.6,1,1.1,1.6,1.6c0.7,0.5,1.4,1,2.2,1.4h0.1c2.5,1.3,5.4,1.8,7.8,1.8c2.8,0,5-0.6,5.2-1.2
	C117.5,146.2,117.4,146,117.2,145.9z"/>
</svg>
