<svg width="300" height="300" viewBox="0 0 300 300" fill="none" xmlns="http://www.w3.org/2000/svg">
<rect width="300" height="300" fill="#FC565D"/>
<path d="M100.927 164.48C100.927 172.422 116.465 188.33 109.555 188.33C94.2404 188.33 79.141 172.422 79.141 164.48C79.141 156.539 107.607 139.281 114.517 139.281C121.426 139.281 100.927 156.539 100.927 164.48Z" fill="#31CFF4"/>
<path d="M266.541 214.616L245.264 205.336L264.978 172.753L229.918 200.066L213.929 191.489L216.948 183.696L228.407 162.395L239.319 133.167L244.694 126.514L268.367 133.419L246.177 168.294L281.286 139.472L296.759 149.133L294.498 156.14L272.164 206.121L266.541 214.616Z" fill="#FDB157"/>
<path d="M103.459 165.063L122.921 186.316L95.1785 207.758L62.6701 206.002V195.609L62.1619 135.242L63.517 126.464L95.284 125.949L123.324 141.936L103.459 165.063L96.0466 169.253L92.87 165.063L95.1785 159.89L116.42 140.742L96.0466 152.867L81.2221 165.063L97.1055 184.467L111.93 186.316L96.0466 169.253L103.459 165.063Z" fill="#FFE600"/>
<ellipse cx="143.104" cy="160.698" rx="9.81938" ry="27.2538" fill="#31CFF4"/>
<path d="M141.39 117.616L176.102 163.793L145.372 210.105L112.906 166.513L141.39 117.616ZM144.92 188.076L150.086 165.062L142.839 139.749L136.456 165.648L144.92 188.076Z" fill="white"/>
<path d="M212.453 187.89L179.578 186.898L179.755 172.939L178.642 110.082L181.171 98.5127L215.968 95.563L244.089 117.354L202.793 156.843L210.379 174.49L212.453 187.89Z" fill="#FFE600"/>
<path d="M63.8543 85.8484L66.8864 114.764L61.0557 116.384L51.3555 100.897L59.7849 174.061L26.6654 177.877L27.5335 171.11L18.1939 107.814L7.73879 120.23L6.64577 121.579L1 91.2173L63.8543 85.8484Z" fill="white"/>
</svg>
