<svg width="300" height="300" viewBox="0 0 300 300" fill="none" xmlns="http://www.w3.org/2000/svg">
<g clip-path="url(#clip0_5_119806)">
<rect width="300" height="300" fill="#FC565D"/>
<path d="M149.288 210.501C104.638 193.313 64.9157 165.394 33.6349 129.213C25.7814 120.116 17.0819 110.348 12.7996 98.9636C10.4134 92.6068 9.8058 85.4592 13.1275 79.3007C15.6276 74.634 20.0161 71.2809 24.755 69.0314C34.3893 64.4575 45.7773 63.6179 56.2918 64.0237C66.9549 64.4591 77.4868 66.5379 87.515 70.1865C110.244 78.3985 130.139 94.2761 142.282 115.248C142.369 115.42 142.515 115.555 142.693 115.628C142.871 115.701 143.07 115.708 143.253 115.647C143.435 115.586 143.59 115.461 143.688 115.295C143.786 115.129 143.821 114.934 143.786 114.744C140.88 87.1966 164.665 64.5088 189.227 57.0164C203.93 52.5346 219.459 51.9398 234.712 52.7422C242.481 53.1458 250.229 53.9143 257.961 54.7463C264.57 55.4581 271.219 56.135 277.692 57.8123C283.383 59.2758 289.061 61.4875 293.567 65.3537C296.207 67.6532 298.316 70.4989 299.746 73.6935C301.177 76.8881 301.895 80.3552 301.851 83.8546C301.853 97.6404 293.665 110.28 286.248 121.312C271.192 143.645 252.901 163.621 231.972 180.584C208.665 199.53 182.386 214.5 154.196 224.889L155.07 226.209C175.973 210.736 196.896 195.221 216.526 178.14C226.293 169.642 235.732 160.753 244.616 151.333C253.132 142.306 261.567 132.843 268.377 122.44C274.556 113 279.876 101.879 279.66 90.3463C279.456 79.3965 273.635 70.0874 264.727 63.9631C246.023 51.1048 219.753 50.4202 199.178 58.8521C176.081 68.2898 159.286 89.8743 155.028 114.352L156.549 114.06C144.163 88.618 157.125 57.6118 180.022 43.1258C203.45 28.3016 235.884 27.4557 260.879 38.8952C273.856 44.8388 284.943 54.928 289.261 68.8315C293.815 83.4907 291.084 99.4524 286.66 113.792C278.655 139.724 264.979 163.861 247.375 184.486C227.301 208.064 202.109 226.756 173.715 239.139L174.709 240.289L199.935 205.253C200.021 205.121 200.067 204.967 200.066 204.81C200.066 204.653 200.019 204.499 199.933 204.368C199.846 204.237 199.723 204.134 199.578 204.072C199.434 204.01 199.274 203.991 199.119 204.018C172.497 209.818 144.818 203.129 121.409 189.93C97.8245 176.627 78.777 156.77 62.4648 135.432C54.0306 124.401 46.1263 112.912 38.6366 101.212C34.9836 95.5055 31.4166 89.3639 30.2962 82.5881C29.7401 79.3311 29.9803 75.9882 30.9964 72.8441C32.0124 69.7001 33.774 66.8482 36.1313 64.5316C44.2251 56.4062 56.7288 53.3743 67.8193 52.3997C78.8706 51.5003 89.9909 52.8025 100.535 56.2308C123.832 63.6922 144.077 80.6841 153.576 103.424C153.921 104.247 155.334 103.796 155.081 102.915C146.499 72.886 128.218 43.988 98.3325 31.6611C83.8057 25.6683 67.2246 23.9277 52.0711 28.5973C40.0249 32.3042 29.5982 39.8809 21.707 49.6541C4.73 70.6324 -0.285182 99.7756 7.61076 125.405C16.4043 153.94 38.1897 176.909 63.2271 192.318C93.6261 211.025 129.138 219.082 163.786 225.761C168.291 226.631 172.829 227.476 177.314 228.323C178.213 228.491 178.485 227.056 177.644 226.768C125.971 209.02 79.0238 179.739 40.3685 141.149C30.9432 131.716 21.2661 120.938 17.7539 107.735C16.0652 101.354 16.1647 94.5652 18.9355 88.4903C21.7767 82.2642 26.9015 77.4777 32.2855 73.4216C43.1616 65.2312 55.5368 57.9269 68.7044 54.227C81.0893 50.7552 94.006 51.1326 106.025 55.7987C131.678 65.7668 149.208 90.282 164.113 112.19C164.658 113.001 165.738 112.099 165.434 111.317C155.957 85.7064 140.937 60.5779 117.271 45.8031C96.6442 32.9113 68.4179 29.6363 46.6541 41.6941C24.164 54.1675 15.9794 80.2701 19.2591 104.644C22.9636 132.191 40.1565 154.316 61.193 171.474C72.5405 180.73 84.8851 188.675 97.3603 196.312C111.766 205.131 126.28 213.785 140.741 222.511C147.455 226.571 154.485 232.04 162.269 233.857C168.489 235.311 174.387 233.222 179.502 229.734C185.937 225.318 191.435 219.422 197.116 214.116L216.443 196.086C228.175 185.139 240.358 174.496 251.226 162.673C260.822 152.232 269.478 140.349 273.574 126.589C280.267 104.117 273.025 79.2043 258.035 61.6769C242.265 43.2299 218.191 34.17 194.334 40.0704C170.658 45.9249 149.958 64.4903 142.402 87.7719C140.559 93.4512 139.554 99.3684 139.418 105.337C139.403 105.551 139.472 105.761 139.612 105.923C139.752 106.085 139.95 106.185 140.164 106.2C140.377 106.216 140.588 106.146 140.75 106.007C140.912 105.867 141.012 105.669 141.028 105.455C144.626 80.0293 121.723 59.8727 101.481 49.0787C80.7873 38.0521 52.9226 31.1012 31.8881 45.1258C12.3056 58.1792 7.49802 84.7885 13.2071 106.339C20.209 132.759 41.2218 152.81 60.9828 170.369C84.3281 191.11 109.072 210.223 135.041 227.573C145.868 234.808 159.729 246.341 173.716 242.054C179.736 240.206 184.56 235.845 188.772 231.304C193.968 225.757 198.879 219.92 203.833 214.157C224.732 189.856 244.714 164.806 263.778 139.009C268.641 132.425 273.443 125.798 278.183 119.129C282.395 113.177 286.832 107.181 289.54 100.347C291.938 94.2876 292.631 87.6396 290.312 81.4657C288.333 76.179 284.498 71.8446 280.185 68.2943C275.451 64.3896 270.067 61.3912 264.632 58.5776C257.67 54.9728 250.595 51.5933 243.409 48.4391C235.982 45.1846 228.451 42.1793 220.815 39.4232C214.147 37.0203 207.246 34.5571 200.09 34.3279C187.784 33.9306 178.871 41.6832 174.118 52.4899C168.94 64.2461 169.203 77.1134 167.081 89.5523C165.887 96.6376 163.796 103.517 159.596 109.433L161.053 109.944C161.115 81.8601 145.42 54.9036 121.823 39.9344C97.2063 24.3029 61.9123 22.6752 39.2468 42.8962C18.7405 61.1848 14.8213 92.0737 21.8727 117.452C30.3606 148.018 54.6989 171.331 79.2396 189.905C106.575 210.597 137.209 227.419 160.876 252.612C163.797 255.722 166.584 258.945 169.237 262.28C169.318 262.37 169.419 262.442 169.531 262.488C169.644 262.534 169.765 262.555 169.886 262.547C170.008 262.54 170.126 262.506 170.232 262.447C170.338 262.387 170.43 262.305 170.5 262.205L225.268 189.539C234.231 177.662 243.29 165.862 252.099 153.877C260.038 143.078 267.622 131.843 273.138 119.6C278.249 108.237 281.397 95.863 280.369 83.3384C279.447 72.5179 275.253 62.2332 268.345 53.8491C255.325 37.916 233.838 29.0192 213.477 33.8723C190.921 39.2485 172.67 59.3572 170.285 82.496C170.21 83.5252 171.776 83.6402 171.895 82.6142C174.061 61.5719 189.809 43.0794 209.823 36.5572C229.925 30.0091 251.919 37.585 265.677 53.168C272.827 61.1627 277.348 71.1587 278.627 81.8038C280.065 94.3048 277.034 106.79 272.021 118.203C266.738 130.21 259.365 141.234 251.641 151.806C243.431 163.059 234.903 174.09 226.535 185.213L169.169 261.299L170.436 261.231C150.155 235.775 122.283 218.352 95.8842 199.96C70.2747 182.132 44.3251 161.887 29.8728 133.512C17.721 109.651 15.8097 78.3229 30.8142 55.1949C47.6861 29.186 82.7657 23.8189 109.983 35.4755C135.606 46.4384 154.742 71.4758 158.712 99.0047C159.222 102.593 159.47 106.213 159.453 109.838C159.444 110.012 159.492 110.184 159.589 110.329C159.686 110.474 159.828 110.583 159.993 110.641C160.157 110.698 160.336 110.701 160.503 110.649C160.669 110.596 160.814 110.491 160.915 110.349C175.125 90.3371 164.435 60.6709 182.469 42.6265C193.355 31.7314 208.632 36.6907 221.238 41.2921C235.472 46.4574 249.365 52.5178 262.832 59.437C272.853 64.5868 284.742 70.9517 288.879 82.1796C294.316 96.9306 281.891 111.232 273.898 122.388C256.429 146.783 238.131 170.554 219.003 193.703C209.49 205.216 199.807 216.609 189.863 227.757C185.573 232.562 180.869 237.562 174.753 239.985C167.226 242.963 159.383 240.473 152.605 236.79C146.255 233.355 140.281 229.149 134.298 225.125C128.241 221.048 122.244 216.875 116.308 212.605C104.452 204.064 92.881 195.15 81.5967 185.863C70.5187 176.756 59.6324 167.387 49.342 157.469C39.9133 148.375 30.9698 138.551 24.1533 127.304C12.0548 107.343 7.42643 81.0646 19.9235 60.0591C22.8775 55.101 26.8043 50.7911 31.4679 47.3884C36.1316 43.9856 41.4357 41.5603 47.0615 40.2582C58.9167 37.4643 71.4444 39.1713 82.9106 42.8482C94.5884 46.6023 105.536 52.328 115.279 59.7766C124.705 67.0007 133.409 76.2682 137.55 87.5934C139.627 93.251 140.271 99.3338 139.426 105.3L141.036 105.418C141.627 80.7036 157.858 58.5711 179.444 47.3948C190.192 41.8249 202.399 38.9436 214.508 39.957C226.151 40.9361 237.194 45.5952 246.401 52.717C264.385 66.638 275.693 89.7315 274.404 112.563C272.812 140.777 251.042 161.576 231.65 179.682L195.31 213.584C190.097 218.478 185.006 223.832 179.15 227.999C172.36 232.841 165.265 234.045 157.562 230.461C150.303 227.082 143.544 222.312 136.693 218.15L115.028 205.074C103.041 197.84 90.9758 190.713 79.3798 182.855C57.3342 167.908 35.6385 149.225 25.8334 123.741C17.1653 101.208 17.2883 72.8051 33.9593 53.863C50.6303 34.9209 78.7817 32.0197 101.6 39.9688C126.88 48.767 144.916 70.878 156.407 94.1844C159.25 99.9825 161.788 105.925 164.009 111.988L165.336 111.116C151.394 90.6151 135.549 68.7188 112.943 57.1475C101.908 51.4867 89.5349 49.0743 77.204 50.7824C63.2385 52.7153 50.3485 59.3189 38.7069 66.9896C28.505 73.7098 17.5876 81.8002 15.4033 94.6494C13.19 107.674 20.4108 120.32 28.2103 130.151C36.8739 141.07 47.5349 150.643 58.0416 159.747C68.868 169.123 80.2437 177.846 92.1081 185.87C118.456 203.674 147.04 217.925 177.119 228.254L177.443 226.705C143.229 220.295 108.367 213.736 76.9564 198.079C50.8693 185.067 27.1198 164.827 14.3572 138.193C8.38463 125.736 4.97948 112.029 5.50669 98.1692C5.99577 85.1407 9.56238 72.413 15.9152 61.0257C22.1172 50.0183 31.0423 40.4127 42.2442 34.3965C55.535 27.2565 71.1726 25.9099 85.7669 29.2938C117.242 36.5799 138.92 62.7795 149.818 91.9598C151.197 95.6557 152.41 99.4094 153.49 103.202L154.994 102.698C146.277 81.8696 128.676 65.7349 107.939 57.2057C97.4931 52.8637 86.3066 50.5781 74.9938 50.4745C63.7953 50.4227 51.8148 52.426 42.0098 58.0759C37.2339 60.8293 32.8993 64.6229 30.4663 69.6233C27.7028 75.3054 27.9598 81.7213 29.9215 87.6157C32.1849 94.47 36.2871 100.522 40.2327 106.503C44.0328 112.262 47.8945 117.989 51.8707 123.627C68.3625 146.999 87.2465 169.523 111.254 185.514C136.892 202.584 168.751 212.21 199.419 205.522L198.604 204.282L173.378 239.313C173.296 239.458 173.26 239.625 173.276 239.791C173.292 239.957 173.359 240.114 173.468 240.24C173.577 240.366 173.723 240.455 173.885 240.496C174.047 240.536 174.217 240.525 174.372 240.464C200.824 228.964 224.543 212.006 243.974 190.703C263.201 169.631 278.17 144.636 287.129 117.534C291.885 103.154 295.206 87.3168 291.835 72.2596C288.762 58.5176 279.678 47.5892 267.643 40.5723C243.412 26.4458 210.056 25.7419 185.106 38.3687C161.053 50.544 144.785 78.4565 151.712 105.529C152.529 108.702 153.669 111.783 155.114 114.725C155.195 114.878 155.323 115 155.479 115.075C155.635 115.15 155.811 115.172 155.98 115.139C156.15 115.107 156.305 115.02 156.422 114.893C156.539 114.765 156.612 114.604 156.63 114.432C160.367 92.9178 174.202 73.4548 193.573 63.2045C213.517 52.6513 239.49 51.7189 259.529 62.6273C269.73 68.1785 277.492 77.4199 278.06 89.3772C278.588 100.911 273.242 112.084 267.07 121.509C260.509 131.536 252.415 140.686 244.229 149.408C236.043 158.13 227.336 166.453 218.349 174.399C197.902 192.471 175.958 208.746 154.039 224.975C153.252 225.553 154.124 226.598 154.912 226.3C181.5 216.497 206.405 202.631 228.737 185.197C250.979 167.86 270.415 147.202 286.361 123.95C294.005 112.768 302.274 100.28 303.326 86.3934C304.32 73.3059 296.659 63.1287 284.768 58.4074C278.935 56.0928 272.682 54.9437 266.486 54.1221C258.719 53.0989 250.889 52.3406 243.077 51.7129C227.206 50.434 210.997 50.1704 195.385 53.7393C170.299 59.4741 144.837 78.5627 142.129 105.876C141.842 108.927 141.87 111.999 142.211 115.044L143.715 114.534C132.678 95.4703 115.415 80.546 95.3395 71.602C75.7911 62.8961 51.5967 58.9201 30.7194 65.0772C21.1931 67.8859 11.8409 73.8331 9.65731 84.1764C7.06597 96.473 15.0282 108.348 22.1311 117.606C37.409 137.48 55.2022 155.29 75.0652 170.59C97.4846 187.892 122.305 201.841 148.746 211.997C149.712 212.364 150.243 210.856 149.283 210.489L149.288 210.501Z" fill="white"/>
<path d="M177.872 262.148C128.851 241.711 84.9971 210.635 49.4877 171.172C40.5857 161.276 32.2567 150.881 24.5415 140.037C16.7971 129.146 9.8318 117.131 7.00877 103.928C4.18575 90.7255 6.88806 77.062 17.2843 67.9333C28.0337 58.512 42.8762 56.1884 56.7057 57.2308C65.1916 57.8728 73.623 59.591 81.8833 61.577C88.4798 63.1002 94.9449 65.1442 101.217 67.6899C113.237 72.7059 124.329 80.4317 129.891 92.5679C130.267 93.3799 131.443 92.7374 131.256 91.9512C128.004 78.2218 135.41 64.508 145.844 55.8955C157.696 46.1174 173.569 42.7747 188.372 40.4826C212.921 36.6771 246.439 31.2459 262.02 56.1482C268.572 66.6326 269.87 79.5078 269.067 91.5832C268.205 104.583 264.716 117.211 260.585 129.516C251.829 155.467 239.284 179.983 223.356 202.272C207.348 224.756 188.068 244.726 166.154 261.52C163.497 263.536 160.815 265.506 158.109 267.432L159.148 268.42L199.252 185.697L219.079 144.792C225.613 131.323 232.504 117.961 238.54 104.261C243.532 92.9137 247.655 80.6802 246.98 68.1191C246.425 57.7806 242.758 47.1895 235.054 39.9883C217.505 23.5856 190.563 32.8291 172.838 43.8067C149.642 58.2521 130.972 78.9137 118.954 103.439L120.348 103.987C124.044 90.4614 119.342 76.1799 110.53 65.6499C100.73 53.9328 86.0369 47.4974 71.4317 44.2284C57.0763 41.0039 41.1641 39.4705 26.8614 43.7224C13.3094 47.7479 3.22179 57.6649 -1.55689 70.888C-12.5205 101.217 6.04112 131.931 24.2733 155.065C43.0456 178.9 66.1485 198.902 90.8584 216.369C116.426 234.44 143.715 249.897 171.146 264.925C174.531 266.781 177.916 268.631 181.3 270.474C181.475 270.558 181.675 270.572 181.859 270.513C182.043 270.455 182.198 270.328 182.291 270.158C182.385 269.989 182.41 269.79 182.361 269.603C182.312 269.416 182.193 269.255 182.029 269.153C132.878 240.568 83.1702 211.652 41.01 173.125C30.7199 163.747 20.4502 153.968 12.6271 142.359C5.54154 131.842 -0.315283 118.882 1.93237 105.919C6.46301 79.7797 37.2674 73.8121 58.9067 69.2877C75.3353 65.8401 92.9459 62.9919 109.375 67.9699C122.495 71.9499 134.683 80.9009 139.18 94.2598C139.437 95.024 140.779 94.8996 140.656 94.0206C138.593 79.1263 144.929 64.4452 155.176 53.7943C166.061 42.4735 181.129 36.1495 196.212 32.6692C210.993 29.2623 227.106 27.4548 242.076 30.6996C255.76 33.6619 267.35 41.6087 274.614 53.6065C288.048 75.8141 286.426 104.447 280.081 128.624C273.318 154.367 260.156 178.291 242.536 198.235C225.005 218.064 202.973 234.035 178.333 243.825C175.247 245.05 172.129 246.177 168.977 247.204L169.739 248.448C188.173 224.684 205.052 199.755 220.268 173.817C228.011 160.613 235.31 147.164 242.164 133.469C248.359 121.083 254.859 108.512 259.131 95.3065C262.851 83.8231 265.116 70.5405 260.149 59.0639C255.79 49.0323 246.549 42.6701 235.963 40.63C224.857 38.5064 213.165 40.3567 202.472 43.6374C189.996 47.4943 177.931 53.156 166.627 59.6253C140.768 74.4532 118.514 94.8139 101.461 119.247C101.391 119.379 101.361 119.528 101.375 119.676C101.389 119.825 101.447 119.966 101.541 120.082C101.634 120.198 101.76 120.284 101.902 120.329C102.045 120.374 102.197 120.376 102.34 120.336C111.257 116.627 115.11 106.839 114.335 97.6467C113.39 86.4814 105.528 78.042 96.1392 72.6872C86.0809 66.9434 74.1483 63.5982 62.6554 62.4373C52.2517 61.4066 40.8757 62.3062 31.8375 68.0655C21.9404 74.3936 17.4228 85.6584 18.1683 97.1379C19.0318 110.521 26.3407 122.066 34.8035 132.042C44.2907 143.224 54.8347 153.635 65.3436 163.855C75.7432 173.967 86.4528 183.75 97.4723 193.205C122.542 214.703 149.093 234.413 176.931 252.189L177.66 250.868C151.522 234.697 126.676 216.529 103.345 196.528C80.1813 176.666 58.5757 155.06 38.7178 131.9C33.5864 125.916 28.5776 119.829 23.6915 113.64C18.9399 107.623 14.0359 101.6 10.1123 94.9998C6.06187 88.1951 2.73003 80.0747 4.46995 72.0318C6.0537 64.6519 11.6449 59.2565 17.7578 55.2577C43.1276 38.6311 77.1242 35.5403 105.54 45.444C131.647 54.558 153.497 74.9964 164.746 100.178C166.089 103.187 167.272 106.27 168.318 109.398L169.764 108.962C165.254 96.698 166.885 83.0204 172.899 71.5412C178.914 60.0619 189.234 51.366 200.91 45.9522C223.091 35.63 256.172 33.8697 268.316 59.5617C273.669 70.8209 274.219 83.8262 273.623 96.0638C272.867 109.93 270.337 123.643 266.095 136.868C257.592 163.855 243.012 188.55 225.724 210.817C206.001 236.206 182.871 258.658 159.85 281.006C159.151 281.687 160.248 282.725 160.942 282.049C203.43 240.807 247.711 197.336 266.754 139.726C271.311 126.154 274.094 112.051 275.035 97.7677C275.811 85.0137 275.334 71.4591 269.998 59.6266C264.929 48.3908 255.324 40.8513 243.255 38.3662C230.753 35.7955 217.302 37.9326 205.476 42.4072C192.157 47.446 179.967 56.2895 172.723 68.7319C165.625 80.9273 163.415 96.0134 168.333 109.397C168.665 110.302 170.086 109.891 169.779 108.961C165.315 95.8034 158.282 83.6612 149.088 73.2377C139.894 62.8143 128.72 54.3168 116.215 48.2372C88.7999 35.0592 55.719 35.1566 28.1517 47.8781C15.9636 53.5023 1.88022 62.3165 2.5457 77.5445C2.87953 85.1001 6.45992 92.1852 10.5011 98.4122C14.9063 105.198 20.0917 111.519 25.1447 117.822C45.0813 142.69 66.9788 165.924 90.6275 187.301C114.386 208.771 139.835 228.299 166.727 245.694C170.128 247.891 173.549 250.054 176.992 252.183C177.821 252.694 178.535 251.379 177.72 250.862C131.867 221.578 89.5806 187.065 51.712 148.019C42.3849 138.389 32.4256 128.643 25.8662 116.831C19.8965 106.084 17.0867 92.389 22.5409 80.8324C32.6392 59.4375 61.5948 61.8247 80.3798 67.6876C92.3422 71.4173 106.149 77.8999 111.124 90.3091C115.11 100.259 112.785 114.4 101.945 118.926L102.825 120.009C117.704 98.7182 136.593 80.5273 158.437 66.4537C169.328 59.4258 180.884 53.4858 192.94 48.7194C203.765 44.4469 215.165 41.1996 226.901 41.3203C238.317 41.4387 249.837 45.3163 256.374 55.2028C263.432 65.8572 262.164 79.4244 258.886 91.1352C255.23 104.209 248.911 116.527 242.939 128.664C236.653 141.433 229.979 154.001 222.916 166.37C206.755 194.624 188.63 221.711 168.673 247.43C168.245 247.983 168.66 248.951 169.44 248.668C195.617 240.072 219.309 224.77 238.394 204.978C257.479 185.186 272.009 160.985 279.956 134.665C287.415 109.969 290.103 81.1372 278.344 57.2861C272.515 45.4658 262.816 36.1694 250.385 31.5539C235.875 26.1685 219.737 27.0235 204.721 29.4983C189.017 32.0815 173.221 37.0952 160.529 46.9955C149.138 55.8953 140.527 69.1166 138.979 83.6591C138.614 87.1265 138.677 90.6255 139.165 94.0777L140.641 93.8384C136.856 82.6013 127.799 74.232 117.199 69.3482C104.068 63.3052 89.3891 63.0138 75.2764 64.8885C67.355 65.9409 59.5302 67.6146 51.7314 69.3129C45.6576 70.5677 39.6541 72.1409 33.7457 74.0259C23.1093 77.5434 12.4166 82.8924 5.90069 92.3511C-10.0411 115.502 9.09401 143.552 25.5294 160.306C46.4166 181.62 70.0264 200.159 94.5899 217.043C119.51 234.171 145.53 249.619 171.64 264.822L181.325 270.458L182.054 269.137C156.286 255.072 130.532 240.925 105.982 224.812C81.4326 208.699 58.0974 190.594 38.1778 169.002C28.0986 158.098 18.8036 146.272 11.0751 133.561C3.02398 120.32 -3.38161 105.28 -3.27335 89.5309C-3.1802 75.8406 1.89005 61.4798 12.7754 52.633C24.5567 43.0747 40.6331 41.8055 55.1705 43.1549C70.1709 44.5485 85.6454 48.2878 98.3031 56.7455C110.455 64.871 119.704 78.3204 120.164 93.2493C120.261 96.7424 119.834 100.23 118.897 103.597C118.856 103.774 118.88 103.96 118.965 104.12C119.05 104.281 119.19 104.406 119.359 104.472C119.528 104.538 119.715 104.541 119.887 104.48C120.058 104.419 120.202 104.299 120.291 104.141C130.735 82.802 146.285 64.3645 165.563 50.4604C182.701 38.1385 209.081 24.8077 229.482 37.5557C239.214 43.632 244.225 54.7983 245.316 65.8992C246.569 78.6234 242.61 91.1266 237.597 102.662C232.046 115.438 225.608 127.86 219.534 140.391L200.585 179.479L157.841 267.657C157.536 268.288 158.242 269.127 158.88 268.645C182.319 252.027 203.047 231.89 220.329 208.948C237.494 186.164 251.084 160.9 260.63 134.027C265.123 121.333 268.987 108.274 270.319 94.8374C271.538 82.5439 270.742 69.4332 264.986 58.2752C259.033 46.7621 248.013 39.4755 235.426 36.9678C221.625 34.2213 207.338 36.2169 193.573 38.1944C178.559 40.3499 162.966 42.9201 149.903 51.1261C138.969 57.9867 130.063 69.7554 129.038 82.906C128.806 86.0863 129.071 89.2835 129.826 92.3819L131.191 91.7703C120.694 68.8766 92.5217 61.6386 69.9275 57.5024C55.6024 54.8855 40.3563 54.02 26.7754 60.1654C15.2321 65.3884 6.56204 75.3667 4.77623 88.1254C2.95918 101.057 7.60483 114.083 13.5826 125.362C20.0184 137.512 28.6045 148.58 37.256 159.21C54.787 180.694 74.759 200.068 96.7697 216.943C118.701 233.799 142.52 248.051 167.746 259.412C170.856 260.809 173.988 262.161 177.144 263.469C178.031 263.837 178.769 262.521 177.872 262.148Z" fill="#FFE600"/>
<path d="M150.326 131.51C139.446 110.213 127.115 87.0876 104.221 76.8423C94.0266 72.2929 82.2803 70.5826 71.5198 74.1613C61.7814 77.3827 53.9178 84.5148 48.5037 93.1028C36.3756 112.331 36.5826 136.885 43.7619 157.857C51.6302 180.837 67.3077 200.307 86.1469 215.286C106.119 231.164 129.175 242.474 152.322 252.901C155.285 254.228 158.24 255.546 161.186 256.855C161.877 257.162 162.456 256.16 161.76 255.813C140.427 245.236 119.912 233.079 100.387 219.443C90.4333 212.487 80.7538 205.151 71.3486 197.434C62.2697 189.989 53.1936 182.331 45.0014 173.899C30.3228 158.793 15.8045 136.106 28.1428 115.196C37.7081 98.983 58.394 92.1503 76.1506 90.8033C98.1429 89.1357 124.238 94.8527 134.525 116.768C135.636 119.148 136.482 121.643 137.047 124.208L138.185 123.864C134.96 113.649 138.666 102.758 145.257 94.7215C152.379 86.0353 162.81 80.9243 173.195 77.2028C184.444 73.1639 196.218 69.5162 208 67.4887C219.085 65.5744 230.731 65.6587 241.23 70.1086C251.221 74.343 258.598 82.2909 261.709 92.7288C264.82 103.167 263.962 114.535 261.597 125.072C256.816 146.364 245.212 165.592 230.94 181.844C213.322 201.917 191.629 217.785 170.195 233.475L170.941 234.392C186.927 216.654 201.941 198.061 215.918 178.695C223.029 168.836 229.864 158.786 236.423 148.544C242.752 138.661 249.238 128.662 254.562 118.192C259.211 109.055 262.98 97.9388 258.297 88.0479C254.848 80.7751 247.704 76.5744 240.155 74.6204C231.464 72.3704 222.377 72.6869 213.536 73.7056C201.126 75.1363 188.845 77.5211 176.801 80.8387C165.617 83.9158 153.934 87.3453 144.097 93.7019C136.203 98.8062 129.431 106.264 129.154 116.113C129.159 116.23 129.197 116.343 129.265 116.438C129.333 116.533 129.427 116.607 129.536 116.649C129.645 116.691 129.764 116.701 129.878 116.677C129.992 116.652 130.097 116.595 130.179 116.512C143.338 99.2061 134.305 73.2583 117.117 62.336C94.5978 48.0244 64.0848 57.8846 45.6922 74.4073C36.2124 82.9197 28.5935 93.9708 25.3041 106.395C21.9182 119.282 24.0917 132.532 29.9385 144.371C36.1635 156.961 45.7366 167.587 55.7657 177.266C66.6394 187.666 78.1748 197.35 90.2994 206.257C114.624 224.269 140.746 239.651 166.982 254.667C170.257 256.544 173.534 258.416 176.811 260.282C177.48 260.666 178.042 259.632 177.385 259.24C154.096 245.299 130.802 231.311 108.493 215.818C86.1848 200.325 64.8984 183.334 46.1788 163.655C36.7428 153.721 27.2916 143.172 20.5375 131.164C13.8505 119.282 10.3049 105.161 15.8525 92.113C20.4978 81.1954 30.095 73.0682 40.5285 67.8971C52.1424 62.1487 65.5461 59.777 78.4335 60.767C91.7051 61.7835 104.745 66.6747 114.666 75.6921C123.74 83.9381 130.243 95.3125 131.879 107.531C132.268 110.513 132.368 113.525 132.178 116.526L133.34 116.342C130.931 104.562 136.072 92.5278 144.159 84.0659C152.639 75.1981 164.034 69.8392 175.345 65.5747C195.236 58.0814 220.48 52.1643 239.628 64.7628C258.049 76.879 262.285 101.317 260.748 121.788C259.01 144.905 250.616 166.943 238.983 186.819C227.182 206.992 212.194 225.143 196.218 242.122C194.274 244.187 192.315 246.236 190.34 248.269L191.293 248.969C206.155 226.236 220.13 202.952 233.218 179.115C239.755 167.218 246.056 155.192 252.123 143.039C255.169 136.962 258.145 130.858 261.049 124.726C263.745 119.037 266.311 113.233 267.975 107.142C269.525 101.462 270.272 95.454 269.192 89.6192C268.142 84.2386 265.594 79.2651 261.841 75.2729C254.244 66.9943 243.198 62.1019 232.944 58.034C211.641 49.578 185.374 45.0015 164.326 56.7285C148.063 65.7886 135.332 84.9121 138.723 104.069C139.154 106.472 139.839 108.823 140.766 111.081C140.817 111.225 140.922 111.345 141.058 111.414C141.195 111.483 141.353 111.497 141.499 111.453C141.646 111.408 141.77 111.309 141.845 111.176C141.921 111.043 141.942 110.885 141.904 110.737C136.336 90.7608 116.676 79.9115 98.3984 73.5973C88.508 70.1807 78.1339 67.4042 67.647 66.855C57.7723 66.3388 47.2521 68.1591 39.9331 75.3378C32.3721 82.7505 30.5793 93.6417 31.5856 103.804C32.6986 115.051 36.8024 125.889 41.4108 136.121C51.2024 157.861 65.3925 177.292 81.226 194.99C97.503 213.172 115.56 229.647 133.673 245.96C141.679 253.172 151.31 261.756 162.888 260.878C174.467 260 182.723 250.31 189.541 241.967C205.789 222.091 219.083 199.969 229.013 176.287C238.401 153.869 247.685 126.768 238.529 102.78C231.24 83.6909 211.511 70.8348 191.207 70.9803C170.584 71.1257 152.236 85.8988 145.586 105.124C143.966 109.815 143.095 114.733 143.005 119.696C142.991 120.26 143.888 120.522 144.118 119.968C147.97 110.707 146.213 100.267 141.098 91.8515C135.488 82.6196 126.131 76.7011 115.923 73.7165C96.5791 68.0527 73.9936 70.9393 56.6022 81.0836C48.8224 85.6209 41.8763 91.8822 37.4608 99.8093C32.4523 108.799 31.2936 119.319 33.5106 129.315C36.078 140.882 42.58 151.261 49.9182 160.386C57.5945 169.935 66.4712 178.582 75.506 186.829C93.8765 203.599 114.03 218.298 135.605 230.664C145.661 236.417 156.446 242.741 168.225 243.822C173.668 244.32 179.216 243.434 183.949 240.597C188.438 237.909 191.772 233.746 194.512 229.345C197.751 224.107 200.373 218.477 203.167 212.999L212.943 193.852L232.496 155.559C242.3 136.36 255.695 111.01 244.433 89.6067C234.861 71.4063 210.956 66.8275 193.228 74.8275C171.956 84.4434 160.751 106.746 156.597 128.69C155.494 134.707 154.732 140.781 154.314 146.884C154.26 147.609 155.27 147.588 155.484 147.015C159.369 136.536 158.158 124.891 153.471 114.872C148.522 104.291 139.757 96.1257 129.438 90.8632C118.847 85.4634 106.837 82.9473 94.9948 82.8518C82.4453 82.7617 69.5476 85.557 58.9838 92.5678C49.9023 98.6017 42.7227 107.866 39.9 118.478C36.7778 130.23 40.0835 142.08 46.17 152.296C52.6105 163.096 61.5184 172.518 70.4929 181.239C79.7705 190.178 89.6454 198.473 100.049 206.068C120.806 221.379 143.168 234.358 165.618 247.007C168.39 248.571 171.165 250.131 173.942 251.687C174.079 251.753 174.236 251.764 174.381 251.718C174.526 251.672 174.648 251.571 174.722 251.438C174.795 251.304 174.815 251.147 174.776 251C174.738 250.852 174.644 250.725 174.515 250.644C153.262 238.722 131.987 226.744 111.848 212.982C91.7079 199.22 72.5152 183.518 56.7119 164.779C48.7589 155.353 41.2843 144.263 40.022 131.667C38.8863 120.308 43.4272 109.208 51.0501 100.906C67.7161 82.7535 96.3223 80.6264 118.655 87.7327C129.784 91.2748 140.371 97.663 147.441 107.123C154.153 116.096 157.807 127.672 156.309 138.864C155.94 141.55 155.274 144.186 154.322 146.723L155.492 146.851C157.18 124.111 162.988 100.117 180.722 84.4149C188.437 77.5745 198.207 72.7359 208.598 72.1431C218.211 71.5936 228.234 74.4267 235.693 80.6522C254.514 96.3755 246.701 122.996 237.949 141.901C232.639 153.415 226.546 164.588 220.779 175.898L202.675 211.354C199.976 216.622 197.42 222.031 194.438 227.162C191.732 231.814 188.447 236.332 183.848 239.263C173.549 245.823 160.664 242.008 150.476 237.251C139.929 232.31 129.842 226.129 120.076 219.797C110.16 213.354 100.589 206.395 91.4015 198.947C82.3532 191.614 73.6911 183.815 65.4501 175.582C57.2277 167.383 49.287 158.777 43.1441 148.862C37.2177 139.302 32.9462 128.308 33.6472 116.896C34.2133 107.46 38.3247 98.7077 44.7567 91.855C57.4064 78.375 76.9383 72.223 95.0425 72.1678C106.166 72.133 117.675 74.1013 127.321 79.9126C136.245 85.2936 142.964 94.2621 144.668 104.667C145.517 109.624 144.962 114.721 143.065 119.378L144.179 119.651C144.577 99.2355 159.148 80.0706 178.644 74.0714C197.986 68.1282 220.203 76.5456 231.854 92.8382C246.517 113.301 240.881 140.556 233.056 162.499C224.838 185.496 213.491 207.249 199.337 227.141C195.733 232.218 191.944 237.162 187.971 241.974C184.297 246.426 180.475 250.869 175.829 254.337C171.247 257.763 165.814 260.098 160.002 259.721C154.191 259.345 148.928 256.598 144.288 253.308C139.565 249.935 135.314 245.927 131.023 242.032C126.854 238.268 122.7 234.482 118.562 230.677C110.11 222.884 101.79 214.935 93.7467 206.696C77.7985 190.337 62.9375 172.703 51.3683 152.928C45.5593 143.069 40.7264 132.665 36.9387 121.864C33.4975 111.966 31.0801 100.975 33.2075 90.5239C35.3349 80.0726 42.7429 72.1315 53.0637 69.3559C62.9874 66.6781 73.7576 68.1804 83.6059 70.5378C93.3214 72.8625 102.963 76.0612 111.92 80.5172C120.598 84.828 128.918 90.548 134.657 98.4923C137.409 102.303 139.463 106.572 140.723 111.102L141.861 110.758C134.308 92.1393 144.95 71.471 160.433 60.5857C179.915 46.9009 205.917 49.6914 227.205 57.1756C237.722 60.8728 248.937 65.525 257.521 72.831C261.692 76.3769 265.177 80.76 266.981 85.9808C269.042 91.9515 268.781 98.3716 267.401 104.459C264.587 116.876 258.005 128.47 252.402 139.791C246.705 151.279 240.8 162.662 234.685 173.942C222.455 196.49 209.414 218.57 195.563 240.182C193.801 242.933 192.024 245.677 190.232 248.416C189.847 248.989 190.724 249.584 191.184 249.112C208.166 231.596 224.257 212.966 237.141 192.174C249.599 172.065 258.941 149.724 261.521 126.05C263.776 105.381 260.934 80.6327 243.89 66.47C225.96 51.5928 200.414 55.6449 180.095 62.6006C158.861 69.871 133.184 82.8806 131.566 108.443C131.402 111.207 131.605 113.98 132.17 116.691C132.315 117.387 133.295 117.127 133.336 116.502C134.088 104.08 129.737 91.8201 122.14 82.0651C114.319 72.0236 103.382 65.0599 91.1407 61.7454C67.3257 55.3039 37.6262 61.6991 21.29 81.0758C13.2892 90.5799 10.1515 102.673 12.7703 114.863C15.7549 128.757 24.5965 140.674 33.5312 151.34C51.6459 172.898 73.0038 191.488 95.644 208.121C118.728 225.079 143.15 240.092 167.69 254.826C170.713 256.645 173.737 258.459 176.763 260.267L177.336 259.225C152.435 245.036 127.484 230.785 103.87 214.512C91.9785 206.382 80.532 197.619 69.5794 188.26C59.005 179.154 48.5964 169.477 40.1137 158.343C32.0772 147.803 25.6514 135.494 24.8311 122.023C24.0597 109.079 28.8193 96.4819 36.4568 86.1825C51.5034 65.8815 79.2287 51.7129 104.635 58.3392C110.056 59.7226 115.131 62.2206 119.536 65.6744C123.941 69.1282 127.579 73.4622 130.221 78.4006C135.148 87.4813 136.986 98.7909 133.201 108.631C132.221 111.155 130.887 113.527 129.24 115.675L130.264 116.07C130.528 106.861 136.852 99.8505 144.177 95.0083C152.383 89.5842 161.88 86.4808 171.221 83.6533C182.832 80.1356 194.691 77.498 206.697 75.763C215.915 74.435 225.311 73.3706 234.591 74.7258C242.612 75.896 251.079 78.9637 255.729 86.0267C261.956 95.4754 258.645 107 254.081 116.347C249.135 126.444 242.891 136.017 236.883 145.492C230.876 154.967 224.663 164.231 218.203 173.361C203.328 194.351 187.237 214.45 170.013 233.555C169.582 234.038 170.19 234.887 170.759 234.473C190.831 219.777 211.072 204.949 228.098 186.672C243.533 170.102 256.34 150.365 261.994 128.219C267.143 108.063 266.471 82.9966 246.36 71.3462C225.02 58.978 198.903 67.4053 177.308 74.4926C166.689 77.9558 155.858 82.4165 147.673 90.2847C140.545 97.1346 135.393 106.936 135.746 117.014C135.84 119.451 136.264 121.863 137.006 124.185C137.057 124.33 137.162 124.449 137.298 124.518C137.435 124.587 137.593 124.601 137.739 124.557C137.886 124.513 138.01 124.414 138.085 124.28C138.161 124.147 138.182 123.99 138.144 123.841C135.897 113.75 129.33 105.254 120.953 99.3791C111.377 92.6818 99.6715 89.8702 88.1348 89.363C68.9335 88.521 46.7938 92.957 32.8036 107.17C26.0988 113.978 22.1668 123.037 22.2442 132.638C22.3262 143.883 27.66 154.366 34.2317 163.198C41.4894 172.945 50.5188 181.136 59.646 189.085C69.1123 197.333 78.8969 205.198 88.9995 212.678C109.127 227.599 130.398 240.907 152.615 252.478C155.449 253.957 158.299 255.405 161.165 256.82L161.739 255.777C139.393 245.863 116.951 235.654 96.7822 221.681C77.2358 208.16 60.2289 190.843 49.7502 169.276C39.8985 148.986 36.0665 124.402 44.7399 102.982C48.6117 93.4322 54.9385 84.5896 63.7529 79.0624C73.4407 72.9855 85.158 72.0679 96.0216 75.0884C120.014 81.7496 134.255 103.392 145.214 124.21C146.594 126.825 147.937 129.453 149.281 132.08C149.629 132.764 150.641 132.135 150.292 131.455L150.326 131.51Z" fill="white"/>
<path d="M157.062 95.3704C139.06 74.1917 119.526 51.3493 92.0389 42.888C79.7169 39.1184 66.1263 38.2371 53.737 42.2062C42.9043 45.7021 33.6439 52.91 27.58 62.5659C15.6419 81.5059 15.555 106.982 24.1572 127.225C34.9014 152.507 56.3035 171.203 77.8236 187.243C100.648 204.264 125.417 219.619 143.583 242.006C145.82 244.759 147.94 247.606 149.942 250.548C150.293 251.066 150.977 250.729 151.187 250.302C164.07 224.249 189.021 207.485 212.721 192.278C235.621 177.599 260.337 162.334 274.853 138.502C286.558 119.284 290.798 92.5028 278.993 72.3102C265.106 48.5913 234.53 44.8855 209.631 45.0036C195.732 45.0677 181.017 46.9849 169.048 54.6004C158.918 61.0429 150.739 71.7311 149.279 83.8996C148.94 86.8521 149.021 89.8377 149.518 92.7672C149.67 93.6979 151.107 93.3999 150.955 92.4643C147.283 69.8187 124.693 57.9471 105.238 50.7148C84.2895 42.9202 53.5014 33.0468 38.9641 56.8136C33.181 66.2709 31.7612 77.9618 32.4431 88.8434C33.2181 101.409 36.9072 113.887 41.677 125.46C52.0382 150.633 69.1222 172.643 88.9428 191.059C110.985 211.534 136.343 227.937 162.008 243.419C165.312 245.412 168.621 247.394 171.937 249.365C172.098 249.464 172.29 249.498 172.475 249.462C172.66 249.425 172.825 249.32 172.937 249.168C204.927 201.605 236.918 154.043 268.911 106.481C275.034 97.3423 282.055 86.084 278.448 74.6265C275.794 66.2113 268.204 61.0406 260.327 58.0246C250.627 54.3162 240.02 53.1926 229.768 52.1564C217.092 50.8739 204.136 50.5487 191.594 53.1464C169.497 57.7287 147.278 74.086 145.426 98.225L146.902 98.3207C145.436 73.3329 127.772 51.28 104.939 42.0116C93.4592 37.356 80.7111 36.1233 68.6585 39.1637C56.8975 42.1241 46.2208 48.7688 37.8856 57.5308C29.4453 66.3901 23.21 77.4914 20.5071 89.4754C17.6292 102.255 19.2579 115.287 24.1223 127.381C29.5562 140.897 38.5379 152.698 48.1996 163.454C59.0537 175.545 70.8399 186.815 82.4918 198.101C107.495 222.285 133.295 245.595 159.893 268.031C163.239 270.852 166.597 273.659 169.968 276.452C170.128 276.554 170.321 276.591 170.507 276.554C170.694 276.517 170.859 276.41 170.968 276.255L221.083 192.855L245.881 151.574C253.519 138.861 262.204 126.225 267.396 112.249C271.918 100.081 272.743 86.8267 266.461 75.1265C261.02 64.9908 251.668 57.2997 241.398 52.4255C220.091 42.3105 193.237 43.7227 173.74 57.3305C152.747 71.9802 142.753 100.765 151.607 125.048C151.913 125.89 153.07 125.331 152.981 124.568C150.564 99.4889 142.753 72.4509 122.103 56.3137C104.4 42.4767 78.6981 38.384 60.3354 53.2982C44.4015 66.2411 37.9828 88.9254 40.8966 108.789C44.4985 133.346 61.2873 153.971 79.2946 169.892C102.92 190.782 131.231 205.797 153.342 228.495C153.47 228.64 153.651 228.729 153.844 228.741C154.038 228.754 154.228 228.689 154.375 228.562C178.694 204.612 203.001 180.649 227.295 156.671C239.381 144.741 251.575 132.908 263.55 120.857C272.873 111.475 282.763 100.512 285.387 87.0922C287.524 76.136 283.503 65.3547 274.995 58.2777C266.825 51.4752 255.924 48.3226 245.469 47.6C222.213 45.9928 198.739 56.9467 181.734 72.2558C164.061 88.1851 151.617 110.271 148.669 134.032C148.296 137.047 148.089 140.079 148.016 143.119L149.469 143.015C142.389 119.799 130.383 98.3949 114.273 80.273C110.185 75.6737 105.837 71.3137 101.25 67.2147C96.8481 63.2953 91.9303 59.486 86.0836 58.1217C75.2953 55.6001 65.3721 62.8087 59.1898 71.037C45.3233 89.4856 44.7568 114.896 52.054 136.074C60.0211 159.181 77.2644 177.746 95.3952 193.438C117.977 212.978 143.473 229.231 163.282 251.863C163.356 251.946 163.449 252.011 163.552 252.053C163.655 252.095 163.766 252.113 163.877 252.106C163.988 252.099 164.096 252.067 164.193 252.012C164.29 251.957 164.374 251.881 164.437 251.79L229.708 171.324L262.343 131.096C272.004 119.162 283.021 107.351 289.219 93.0985C294.522 80.9119 294.516 67.4502 286.948 56.2359C279.475 45.1614 267.24 38.7488 254.321 36.4901C228.787 32.0271 201.167 40.6822 179.884 54.7139C159.575 68.1108 143.129 87.5159 134.041 110.161C132.868 113.025 131.878 115.961 130.968 118.873L132.354 119.354C137.156 96.3965 127.124 71.3977 107.962 57.976C88.5969 44.4174 61.439 45.1118 41.8844 57.9238C20.8034 71.736 12.8239 97.6262 15.0263 121.835C17.5037 149.191 32.7354 172.962 50.721 192.872C60.6851 203.915 71.5649 214.087 82.5869 224.045C94.297 234.636 106.322 244.862 118.662 254.723C124.865 259.68 131.143 264.543 137.496 269.311C142.352 272.943 148.379 276.622 154.211 272.811C156.521 271.303 158.277 269.114 159.943 266.95C162.403 263.743 164.839 260.51 167.285 257.287L182.73 236.96L243.921 156.438L259.366 136.111C263.901 130.142 268.482 124.216 272.346 117.778C278.734 107.142 284.342 93.8269 280.099 81.3727C276.224 70.0018 265.589 63.9108 254.678 60.6931C248.602 58.903 242.336 57.8381 236.091 56.8193C228.574 55.5154 220.995 54.5976 213.384 54.0693C199.44 53.2294 184.82 54.3607 172.067 60.5094C161.552 65.5754 152.186 73.8548 147.011 84.4506C144.454 89.651 143.106 95.3644 143.068 101.161C143.056 101.358 143.121 101.551 143.25 101.698C143.38 101.846 143.562 101.936 143.758 101.949C143.953 101.961 144.146 101.896 144.294 101.766C144.441 101.636 144.531 101.453 144.543 101.257C145.722 88.5653 141.067 76.2082 133.247 66.3638C124.603 55.451 112.483 48.1844 99.3424 44.0201C85.5939 39.6332 70.5974 38.0468 56.211 38.3961C45.0739 38.664 33.3186 40.5454 23.542 46.1792C14.0926 51.641 7.66183 61.1108 8.02165 72.3131C8.47674 85.8534 17.5342 97.6297 26.0449 107.405C48.9531 133.714 72.6646 159.362 95.9709 185.321L166.507 263.875L175.404 273.79C175.479 273.872 175.572 273.937 175.676 273.979C175.78 274.02 175.891 274.038 176.003 274.031C176.114 274.023 176.223 273.99 176.32 273.935C176.417 273.88 176.501 273.804 176.565 273.711L222.78 195.847C230.479 182.863 238.18 169.885 245.885 156.912L256.938 138.29C260.436 132.398 264.118 126.562 266.992 120.317C271.777 109.879 273.102 98.0438 265.549 88.5831C259.282 80.7505 249.435 76.4334 240.246 73.0799C227.859 68.5733 215.134 64.3915 202.209 61.771C189.143 59.1215 175.134 58.1388 162.138 61.7914C140.648 67.824 119.932 89.0217 125.022 112.878C125.058 113.033 125.143 113.172 125.264 113.274C125.384 113.377 125.535 113.438 125.693 113.448C125.851 113.458 126.009 113.417 126.142 113.331C126.275 113.245 126.377 113.118 126.433 112.97C132.867 91.8012 125.336 66.6874 105.721 55.3058C87.0959 44.4933 62.454 47.7323 49.5701 65.7247C43.6412 74.0042 40.6377 84.5329 42.1472 94.681C43.9222 106.599 51.7739 116.411 59.5025 125.15C79.6567 147.939 100.119 170.46 120.431 193.111L181.586 261.304L189.148 269.715C191.022 271.817 193.07 274.802 195.912 275.659C201.284 277.275 202.641 270.437 203.598 266.786C207.507 251.893 211.414 237 215.319 222.107C223.05 192.636 230.785 163.167 238.522 133.7C242.232 119.583 246.304 105.455 249.593 91.207C251.887 81.2561 253.598 70.4851 251.157 60.3954C248.715 50.3057 241.399 42.4348 231.252 39.9202C220.253 37.2265 208.501 40.1231 198.396 44.6612C177.747 53.9367 160.452 70.5044 149.989 90.6045C147.445 95.4982 145.308 100.594 143.599 105.84L145.022 106.13C147.733 85.1955 137.642 63.3862 120.38 51.4343C111.827 45.5129 101.538 42.2911 91.1201 42.8185C80.973 43.3536 71.1511 47.1724 62.9844 53.1829C54.8178 59.1933 48.1898 67.67 45.0254 77.4061C41.5945 87.9764 42.7816 99.366 46.6332 109.641C50.9352 121.119 58.2682 131.239 65.9893 140.626C75.1978 151.823 84.9942 162.558 94.5425 173.465L163.4 252.104C163.529 252.248 163.709 252.336 163.902 252.349C164.095 252.361 164.286 252.297 164.432 252.171C203.875 207.394 243.416 162.475 277.259 113.215C284.2 103.11 291.904 91.2081 291.061 78.3903C290.372 67.8449 283.299 59.9748 273.963 55.8443C263.993 51.4352 252.77 50.742 242.02 50.5993C228.098 50.4144 214.003 50.9212 200.386 54.0879C175.294 59.9315 150.051 77.6225 146.799 105.072L148.275 105.168C147.259 80.4664 138.758 55.0125 120.984 37.3191C104.955 21.3529 81.9968 14.1656 59.8048 19.0684C49.5458 21.3291 39.7605 26.2593 32.4409 33.9039C23.8713 42.8538 19.307 54.8358 18.1883 67.0611C15.6224 95.055 27.9276 122.914 39.1965 147.795C51.4384 174.793 65.9719 200.685 82.6363 225.187C91.0237 237.523 99.9388 249.488 109.382 261.082C117.077 270.492 127.102 281.811 140.603 277.142C146.447 275.12 151.303 270.905 155.685 266.679C161.311 261.236 166.773 255.59 172.167 249.925C182.88 238.691 193.263 227.152 203.317 215.309C213.524 203.293 223.375 190.981 232.87 178.371C241.514 166.906 250.482 154.71 253.872 140.493C256.788 128.27 254.104 115.674 245.02 106.748C236.725 98.6008 225.188 94.2881 213.884 92.5004C188.561 88.4967 161.848 95.4234 141.101 110.406C135.943 114.142 131.167 118.383 126.845 123.066L127.938 124.028C137.492 108.503 134.476 87.4696 122.794 73.8993C110.315 59.3911 89.7941 57.4019 73.4107 66.3896C65.3712 70.819 58.5746 77.6312 54.8036 86.0605C50.0111 96.7653 50.9949 109.082 54.1977 120.073C57.7724 132.335 63.7868 143.904 69.8714 155.077C75.7046 165.765 82.1014 176.133 89.0347 186.138C104.879 208.968 123.438 229.776 144.303 248.103C145.013 248.728 145.824 247.498 145.123 246.884C110.373 216.336 81.4809 178.435 62.0359 136.335C56.8145 125.025 52.3023 112.677 53.0345 100.016C53.5763 90.0606 57.9945 80.715 65.3383 73.9904C78.7699 61.5635 100.284 57.8198 115.525 69.1207C131.682 81.0603 137.366 105.866 126.697 123.205C126.283 123.881 127.196 124.812 127.79 124.172C144.996 105.544 169.531 94.2037 194.813 92.9816C216.831 91.8994 248.094 98.8677 253.01 124.48C255.752 138.689 248.597 152.859 241.041 164.38C233.155 176.419 223.973 187.73 214.947 198.923C196.41 221.991 176.564 243.97 155.509 264.751C150.762 269.419 145.427 274.326 138.857 276.128C132.05 277.998 125.657 275.381 120.457 270.974C115.257 266.567 111.113 260.961 106.897 255.697C102.565 250.261 98.3424 244.739 94.2292 239.132C77.644 216.506 62.934 192.557 50.2466 167.523C43.826 154.858 37.9357 141.934 32.5757 128.751C27.4946 116.267 23.0214 103.471 20.7603 90.1404C18.5889 77.3304 18.4747 63.7874 23.1289 51.4844C27.1467 40.7177 34.8615 31.7389 44.8873 26.161C63.5763 15.8078 88.1333 16.8459 106.365 27.712C127.33 40.2011 139.861 63.2875 144.588 86.7095C145.807 92.7747 146.54 98.9278 146.782 105.11C146.769 105.307 146.835 105.5 146.964 105.647C147.094 105.795 147.276 105.885 147.472 105.898C147.667 105.91 147.86 105.845 148.007 105.715C148.155 105.585 148.245 105.402 148.257 105.206C151.142 80.8173 172.565 63.7102 194.789 57.1063C207.633 53.2855 221.104 52.1937 234.444 52.0686C245.423 51.9636 256.708 51.9974 267.333 55.053C277.425 57.9551 286.868 64.2412 289.132 75.1808C291.853 88.3432 283.626 101.296 276.546 111.639C260.731 134.704 243.658 156.841 225.928 178.436C205.658 203.128 184.549 227.107 163.446 251.082L164.479 251.149L107.005 185.497L78.4244 152.854C70.2504 143.522 61.9226 134.199 55.3248 123.632C49.1243 113.714 44.4347 102.503 44.4347 90.6261C44.4295 80.1993 48.4564 70.336 55.1502 62.4428C68.7641 46.4433 91.8406 39.474 111.384 48.0834C133.116 57.6468 146.567 82.6098 143.532 106.043C143.429 106.873 144.702 107.109 144.96 106.329C151.904 85.3253 165.501 67.169 183.682 54.6236C192.764 48.3556 203.119 43.1703 214.036 41.19C224.953 39.2097 237.245 40.7792 244.622 50.0007C251.075 58.0732 251.464 69.1338 250.298 78.9697C248.88 90.933 245.151 102.603 242.087 114.212L220.385 196.919L209.66 237.811C207.871 244.626 206.083 251.441 204.295 258.256C203.42 261.586 202.546 264.914 201.672 268.24C200.758 271.676 198.896 276.477 194.592 273.336C191.914 271.385 189.774 268.295 187.577 265.846L180.015 257.434L166.2 242.037L137.933 210.499L80.7382 146.717C71.9663 136.934 62.6684 127.42 54.5554 117.071C47.4773 108.047 42.187 97.5699 43.3701 85.7993C44.5122 75.4262 49.6058 65.8949 57.5878 59.1947C65.9845 52.1496 77.1193 49.4804 87.8847 50.8321C98.8409 52.2109 109.212 57.661 116.292 66.1999C123.372 74.7388 127.076 85.7718 127.241 96.7783C127.319 102.11 126.566 107.421 125.01 112.521L126.421 112.612C121.81 90.9802 139.425 71.6063 158.504 64.5311C183.512 55.2611 211.543 64.8567 235.477 72.9885C244.762 76.1551 254.64 79.7761 261.838 86.7235C265.583 90.3379 268.321 94.8771 269.243 100.076C270.4 106.587 268.569 113.127 265.953 119.047C263.171 125.332 259.444 131.175 255.941 137.072L245.142 155.269L223.525 191.662C207.452 218.75 191.377 245.835 175.298 272.916L176.458 272.843L109.546 198.326L42.9653 124.172C33.0967 113.179 21.8043 102.442 14.6485 89.3628C8.42794 78.0032 6.94723 64.0597 16.1735 53.8157C23.462 45.7383 34.722 42.2801 45.1648 40.7641C57.9257 38.9083 71.3295 39.7776 84.006 41.8869C98.1137 44.2375 112.244 49.1343 123.375 58.3914C133.364 66.703 141.048 78.4843 142.849 91.5277C143.279 94.7269 143.339 97.9653 143.028 101.179L144.503 101.274C144.57 89.1985 150.736 78.4095 159.612 70.5143C169.357 61.8733 181.587 57.379 194.397 55.9125C208.853 54.2607 223.471 56.2038 237.734 58.5942C249.086 60.4988 261.665 62.6612 270.747 70.3348C281.387 79.3175 281.691 93.2094 276.917 105.391C271.746 118.576 262.433 129.626 253.968 140.776L196.934 215.825L168.419 253.35L161.293 262.73C159.263 265.406 157.334 268.36 154.762 270.555C147.857 276.454 140.601 269.869 134.934 265.576C111.171 247.638 88.5043 228.284 67.0564 207.621C48.2814 189.451 30.1159 168.965 21.2885 143.896C13.233 121.011 13.6793 93.1913 28.2692 72.9529C42.0449 53.8498 67.7189 45.4299 90.2947 51.4339C112.982 57.4698 129.203 78.3994 131.775 101.479C132.425 107.295 132.147 113.178 130.951 118.907C130.764 119.805 132.05 120.314 132.337 119.388C146.764 72.6466 193.277 36.101 242.716 36.901C256.951 37.131 271.481 41.2666 281.529 51.8496C291.361 62.2007 293.93 76.1108 289.069 89.4697C283.918 103.651 273.259 115.268 263.935 126.798L232.856 165.117L163.233 250.944L164.393 250.871C132.324 214.235 83.3885 193.258 59.5379 149.273C48.8303 129.518 44.8395 104.713 53.7509 83.4872C57.9921 73.3655 65.878 62.3959 77.0745 59.6118C89.7556 56.4735 100.274 67.7207 108.273 75.943C126.675 94.9062 140.308 117.991 148.044 143.289C148.268 144.031 149.474 144.075 149.492 143.19C150.044 119.461 160.306 96.6699 176.457 79.4636C192.199 62.7012 214.466 50.1641 237.736 48.97C257.726 47.9444 284.991 57.4804 284.504 81.5841C284.223 95.9728 273.807 108.184 264.321 117.956C253.39 129.208 242.016 140.051 230.853 151.07C205.047 176.537 179.229 201.992 153.401 227.434L154.433 227.501C135.596 208.159 112.292 194.276 91.1277 177.774C72.1019 162.94 53.8667 144.746 45.6372 121.498C38.659 101.797 40.9213 78.5608 54.0102 61.8243C60.5247 53.4986 69.707 47.5887 80.1598 45.7664C91.9855 43.7113 104.246 46.8333 114.475 52.8733C139.558 67.6493 148.887 97.4048 151.536 124.841L152.91 124.366C145.067 102.846 152.619 77.4623 169.556 62.4507C187.4 46.6364 214.193 43.4083 236.105 51.7406C247.082 55.918 257.359 63.2038 263.689 73.2585C270.972 84.8355 270.824 98.3021 266.308 110.906C261.437 124.502 253.064 136.737 245.67 149.041C237.919 161.958 230.169 174.875 222.418 187.793C204.872 216.997 187.327 246.203 169.784 275.41L170.784 275.208C145.2 253.99 120.318 231.954 96.1373 209.101C84.1868 197.8 72.4231 186.31 60.8461 174.632C50.9262 164.582 41.1791 154.152 33.544 142.22C26.1372 130.65 20.6568 117.319 20.4781 103.4C20.3268 91.2658 24.1543 79.3003 30.6508 69.1219C44.0294 48.1465 68.6114 35.0168 93.5293 40.0835C117.619 44.9776 138.647 64.7931 144.132 88.9523C144.82 92.0025 145.257 95.104 145.441 98.226C145.495 99.1404 146.828 99.306 146.916 98.3216C148.573 76.9623 167.268 61.2626 186.777 55.8541C198.699 52.5378 211.207 52.2202 223.465 53.1042C234.125 53.8698 245.193 54.8945 255.477 57.9527C263.766 60.4161 272.665 64.736 276.339 73.1085C281.5 84.8895 273.55 97.0035 267.172 106.497C252.194 128.791 237.204 151.076 222.204 173.352C205.384 198.359 188.566 223.363 171.75 248.363L172.75 248.165C125.708 220.153 76.7775 189.136 49.936 139.496C43.6179 127.945 38.914 115.577 35.9561 102.74C33.4699 91.6626 32.6654 79.9315 35.5477 68.8355C38.43 57.7394 45.5045 48.0144 56.8157 44.6041C69.5618 40.767 83.3507 44.9881 95.5434 48.9226C117.143 55.898 145.37 67.2737 149.484 92.765L150.92 92.4621C148.766 79.3165 155.819 66.6394 165.889 58.6186C177.157 49.6358 192.082 46.9202 206.121 46.5236C230.795 45.8217 262.497 48.6944 276.964 71.842C289.463 91.8371 285.195 119.052 273.245 138.259C258.912 161.311 235.019 176.223 212.706 190.525C188.389 206.112 162.949 223.107 149.742 249.812L150.988 249.566C120.266 204.328 62.4667 187.025 32.9584 140.742C20.2748 120.849 15.3267 95.8825 23.861 73.3155C27.7713 62.9645 34.7063 53.7898 44.2612 48.0723C55.5627 41.3097 69.1549 39.8841 81.974 42.0026C113.88 47.2848 136.089 72.9544 155.972 96.3394C156.582 97.0622 157.687 96.0892 157.072 95.371L157.062 95.3704Z" fill="#31CFF4"/>
</g>
<defs>
<clipPath id="clip0_5_119806">
<rect width="300" height="300" fill="white"/>
</clipPath>
</defs>
</svg>
