<svg width="300" height="300" viewBox="0 0 300 300" fill="none" xmlns="http://www.w3.org/2000/svg">
<g clip-path="url(#clip0_5_119813)">
<rect width="300" height="300" fill="#31CFF4"/>
<path d="M118.261 196.623L93.1757 195.398L92.6411 183.821L100.66 133.484L99.9468 122.262L139.862 125.009L140.614 135.045L147.979 184.592L147.682 195.141L123.171 195.635L120.379 167.819L118.261 196.623ZM115.786 142.986L120.36 156.479L124.478 142.986L120.379 133.444L115.786 142.986Z" fill="#FFE600"/>
<path d="M152.393 191.592L144.01 141.205L144.04 129.901L166.597 128.579L166.413 160.014L168.12 160.311L178.632 126.987L193.934 123.291L193.665 131.359L181.478 160.274L195.792 176.888L202.298 165.805L215.73 165.575L199.415 197.767L173.107 165.633L167.979 165.275L178.352 199.919L153.747 200.397L152.393 191.592Z" fill="#FC565D"/>
<path d="M35.6127 173.625L42.1114 125.553L45.3033 115.303L66.1432 120.419L57.1763 148.893L58.642 149.64L77.51 122.343L92.4311 123.272L89.9285 130.519L70.7748 153.346L77.0568 171.797L82.1894 162.741L94.2058 165.844L73.8151 191.546L61.6772 155.867L57.1246 154.106L56.839 188.448L34.3762 181.994L35.6127 173.625Z" fill="white"/>
<path d="M186.337 299.588L167.674 298.916L172.82 268.713L154.632 299.498L140.135 297.794L140.096 291.07L142.391 271.747L141.938 246.651L143.999 240.085L163.756 238.272L157.432 270.921L175.211 238.992L189.642 241.66L190.016 247.572L188.04 291.57L186.337 299.588Z" fill="#FDB157"/>
<path d="M248.16 320L227.113 318.963L226.665 309.162L233.392 266.546L232.794 257.046L266.283 259.371L266.914 267.867L273.094 309.814L272.845 318.746L252.279 319.164L249.937 295.615L248.16 320ZM246.083 274.591L249.921 286.014L253.376 274.591L249.937 266.512L246.083 274.591Z" fill="#FC565D"/>
<path d="M28.012 256.944L37.7544 211.489L41.5563 201.929L61.079 208.344L50.4218 234.894L51.7663 235.715L71.791 211.016L85.97 212.998L83.0473 219.738L63.0787 240.146L67.7195 258.235L73.2867 249.959L84.5323 253.805L63.171 276.868L54.2064 241.887L49.9889 239.871L47.1894 272.663L26.2156 264.85L28.012 256.944Z" fill="#FDB157"/>
<path d="M143.267 271.978L118.471 273.442L117.673 262.986L112.642 216.037L113.772 207.211L139.751 202.67L162.359 217.086L133.929 249.399L140.813 262.092L143.267 271.978Z" fill="#FFE600"/>
<path d="M65.3977 238.968L80.7707 229.8L104.437 251.521L88.3645 227.004L106.647 212.45L111.367 223.268L114.486 256.795L117.271 294.162L88.0329 267.009L87.4099 267.117L102.977 273.176L103.413 269.449L80.7425 250.095L67.3941 245.497L65.3977 238.968Z" fill="#FC565D"/>
<path d="M231.905 265.219L229.215 283.82L227.678 284.22L220.592 273.965L191.236 274.489L190.622 265.003L191.021 226.724L190.591 217.331L206.237 219.872L209.926 268.776L213 219.749L227.263 219.04V226.385L231.905 265.219Z" fill="white"/>
<path d="M108.683 68.3716C108.683 75.1181 121.883 88.6332 116.013 88.6332C103.002 88.6332 90.1748 75.1181 90.1748 68.3716C90.1748 61.625 114.358 46.9641 120.228 46.9641C126.098 46.9641 108.683 61.625 108.683 68.3716Z" fill="white"/>
<path d="M249.379 110.964L231.304 103.08L248.051 75.3993L218.266 98.603L204.683 91.3167L207.248 84.6959L216.983 66.6002L226.253 41.7692L230.82 36.1172L250.931 41.984L232.079 71.6114L261.906 47.1257L275.051 55.3338L273.13 61.2862L254.156 103.747L249.379 110.964Z" fill="#FDB157"/>
<path d="M110.834 68.8663L127.368 86.9223L103.799 105.138L76.182 103.646V94.8169L75.7502 43.532L76.9015 36.0749L103.889 35.6375L127.71 49.2192L110.834 68.8663L104.537 72.4259L101.838 68.8663L103.799 64.4716L121.845 48.2051L104.537 58.5059L91.9427 68.8663L105.436 85.3515L118.031 86.9223L104.537 72.4259L110.834 68.8663Z" fill="#FFE600"/>
<ellipse cx="144.514" cy="65.1582" rx="8.342" ry="23.1533" fill="white"/>
<path d="M143.058 28.5584L172.547 67.7874L146.441 107.132L118.86 70.0986L143.058 28.5584ZM146.057 88.4167L150.446 68.8653L144.289 47.3614L138.866 69.3638L146.057 88.4167Z" fill="#FC565D"/>
<path d="M203.429 88.2591L175.5 87.4166L175.651 75.5573L174.705 22.158L176.854 12.3291L206.415 9.82324L230.305 28.336L195.222 61.8836L201.667 76.875L203.429 88.2591Z" fill="#FFE600"/>
<path d="M77.188 1.57023L79.764 26.1352L74.8105 27.512L66.5697 14.3548L73.7309 76.5107L45.5944 79.7524L46.3319 74.0037L38.3975 20.231L29.5154 30.7789L28.5869 31.9253L23.7905 6.13135L77.188 1.57023Z" fill="#FC565D"/>
</g>
<defs>
<clipPath id="clip0_5_119813">
<rect width="300" height="300" fill="white"/>
</clipPath>
</defs>
</svg>
