<svg width="300" height="300" viewBox="0 0 300 300" fill="none" xmlns="http://www.w3.org/2000/svg">
<rect x="0.75" y="0.75" width="298.5" height="298.5" fill="white"/>
<path d="M85.8905 204.045C86.1568 206.808 96.4823 205.138 101.608 210.668C103.529 212.735 106.638 218.143 107.122 219.471C107.277 219.933 107.564 220.339 107.947 220.638C108.332 220.909 108.787 221.061 109.257 221.076C109.477 221.075 109.696 221.045 109.908 220.984C110.986 220.638 111.383 218.361 111.414 218.182C111.942 214.978 111.086 212.268 111.244 210.362C111.68 204.841 120.713 205.772 128.21 196.868C129.659 195.15 131.668 192.331 134.401 192.344C135.4 192.344 136.61 192.733 139.225 192.741C140.386 192.741 141.181 192.619 141.565 192.65C144.058 192.868 145.599 194.131 150.62 194.499C157.929 195.032 160.107 192.75 162.902 194.818C162.902 194.818 166.194 197.279 168.748 198.275C170.293 198.883 170.232 198.468 171.184 198.975C172.895 199.884 175.035 204.797 175.035 204.797C177.021 209.326 178.44 209.636 177.969 210.777C177.165 212.727 173.166 211.42 170.005 214.641C169.499 215.157 168.298 216.39 168.66 217.526C168.837 217.947 169.13 218.31 169.504 218.572C169.877 218.834 170.318 218.985 170.773 219.008C171.036 219.012 171.297 218.966 171.542 218.872C172.083 218.689 174.934 217.718 175.559 218.374C176.087 218.934 174.633 220.302 174.275 223.436C174.022 225.661 174.598 226.312 174.912 226.553C175.131 226.707 175.379 226.814 175.641 226.867C175.683 226.913 175.734 226.949 175.792 226.972C175.85 226.995 175.912 227.004 175.973 226.999C176.586 226.97 177.173 226.743 177.645 226.352C179.361 224.896 183.042 218.991 186.491 216.967C190.595 214.562 194.485 217.583 196.533 214.886C197.467 213.658 197.742 211.616 196.886 210.397C195.314 208.159 191.59 210.681 186.805 208.788C184.924 208.045 183.138 205.645 179.553 200.837C178.501 199.425 177.161 197.467 177.807 196.531C177.884 196.428 177.979 196.339 178.086 196.269C179.427 195.268 179.942 193.249 180.047 192.929C180.789 190.617 188.298 187.907 190.499 187.02C191.874 186.464 203.265 181.429 208.294 172.074C208.949 170.855 210.613 167.489 212.084 167.734C213.18 167.913 213.154 169.919 214.891 170.702C215.591 170.97 216.35 171.045 217.089 170.917C217.828 170.789 218.518 170.464 219.087 169.976C221.074 168.171 219.86 164.949 221.065 164.464C222.27 163.979 223.615 167.428 226.902 168.398C230.57 169.46 234.276 166.68 234.861 166.213C238.791 163.153 239.694 157.934 240.004 156.137C240.655 152.365 239.852 150.537 241.515 148.396C242.729 146.835 243.794 146.984 245.881 145.646C246.169 145.463 252.666 141.179 252.605 134.814C252.561 130.194 249.086 126.968 248.466 126.391C245.209 123.375 243.021 124.564 241.559 122.487C238.341 117.933 247.488 110.248 244.838 103.197C243.235 98.918 237.939 96.8548 234.564 96.387C225.763 95.1762 216.664 103.062 212.914 111.17C208.853 119.957 212.521 125.923 207.426 130.128C202.82 133.936 195.284 132.804 195 131.711C194.812 130.972 197.934 130.364 199.148 127.34C199.706 125.832 199.741 124.18 199.248 122.649C198.375 119.83 196.022 118.247 195.039 117.609C186.622 112.145 165.093 111.905 156.034 102.555C145.874 92.0639 148.935 67.5633 141.875 61.7977C141.439 61.4611 139.579 60.0186 139.828 58.5324C140.138 56.6703 143.421 56.7839 145.722 54.6726C149.607 51.1232 149.651 42.2497 145.866 39.1898C142.526 36.4841 137.688 39.5264 136.309 37.4414C134.278 34.3553 144.547 27.3876 142.718 21.0712C141.604 17.2071 136.086 14.0117 131.532 15.2837C127.664 16.3634 125.092 20.4199 124.861 23.7202C124.726 25.6653 125.389 27.5581 124.961 27.7111C124.534 27.8641 123.901 25.8752 122.342 24.6031C120.028 22.7017 116.23 22.8547 114.169 23.7289C106.886 26.7887 103.769 43.1851 109.768 50.2927C111.711 52.6007 114.57 53.8771 114.239 55.7654C113.933 57.5139 111.37 57.3478 108.205 59.328C101.656 63.4325 102.656 70.3128 96.3514 72.8219C96.1331 72.9093 95.8755 72.988 95.8755 72.988C94.7943 73.3543 93.6844 73.6292 92.5573 73.8098C91.1253 74.0633 84.7204 75.178 84.262 77.5952C84.0306 78.7623 85.2793 79.9688 87.781 82.3817C90.4006 84.8864 91.0336 84.6897 91.8107 85.8787C93.5047 88.4489 92.0159 91.8585 90.2521 97.3094C88.9423 101.309 88.187 105.47 86.9252 109.479C83.7818 119.432 82.9959 145.323 96.2378 161.527C101.075 167.441 108.375 176.389 114.182 180.174C115.121 180.795 117.238 182.084 118.64 184.668C119.011 185.354 121.071 188.685 120.486 192.344C119.43 198.988 110.209 203.783 105.616 201.689C101.582 199.853 100.87 194.35 97.7572 194.634C96.1461 194.783 94.2644 196.536 94.3736 197.593C94.3883 198.052 94.4707 198.506 94.6181 198.94C94.7365 199.255 94.8071 199.587 94.8276 199.923C94.8132 199.98 94.7957 200.035 94.7753 200.089C94.5308 200.675 91.527 200.225 89.6016 200.736C87.8508 201.2 85.7726 202.817 85.8905 204.045Z" fill="#FC565D"/>
<rect x="47.5" y="247.5" width="205" height="29" stroke="#050505"/>
<rect x="53" y="252" width="194" height="20" fill="url(#paint0_linear_5_119835)"/>
<rect x="52.6038" y="251" width="22" height="22" fill="white" stroke="#050505"/>
<rect x="0.75" y="0.75" width="298.5" height="298.5" stroke="black" stroke-width="1.5"/>
<defs>
<linearGradient id="paint0_linear_5_119835" x1="53" y1="272" x2="245.879" y2="272" gradientUnits="userSpaceOnUse">
<stop stop-color="#E96262"/>
<stop offset="0.322917" stop-color="#E9AD62"/>
<stop offset="0.635417" stop-color="#FFE600"/>
<stop offset="0.989583" stop-color="#60C9EB"/>
</linearGradient>
</defs>
</svg>
