<svg width="300" height="300" viewBox="0 0 300 300" fill="none" xmlns="http://www.w3.org/2000/svg">
<g clip-path="url(#clip0_5_120198)">
<rect width="300" height="300" fill="#FFE600"/>
<path d="M163.811 259.455C159.024 217.24 155.729 174.896 153.923 132.422C153.406 120.269 153.017 108.11 152.754 95.9447C152.752 95.7058 152.657 95.4771 152.488 95.3082C152.319 95.1392 152.09 95.0436 151.851 95.042C141.752 95.8417 132.137 102.046 128.114 111.515C124.158 120.857 127.145 131.986 134.882 138.475C142.618 144.963 153.057 144.533 160.569 138.051C167.452 132.095 170.033 121.754 164.041 114.265C158.285 107.074 146.999 104.511 139.559 110.533L141.067 110.933C136.954 93.7879 144.575 72.4017 163.217 68.0215C171.026 66.2039 179.847 67.5247 186.342 72.3775C192.97 77.3393 195.751 85.4152 194.175 93.4608C192.552 101.743 186.73 109.213 178.096 110.582L178.793 112.23C190.068 105.565 202.421 98.9739 215.652 97.526C228.078 96.1628 240.456 100.937 246.381 112.424C251.664 122.674 251.022 135.5 245.054 145.303C238.626 155.85 227.163 162.666 215.228 165.114C198.925 168.452 182.101 163.696 167.621 156.238L167.167 157.922C178.072 157.813 187.335 165.289 191.764 174.886C196.369 184.9 195.23 196.526 187.584 204.711C180.689 212.091 170.154 215.701 160.17 214.914C149.307 214.054 140.146 207.474 135.076 197.95C129.253 186.991 128.969 173.286 134.706 162.248L133.028 161.794C134.391 179.527 117.397 196.999 99.2643 192.007C95.0376 190.806 91.1422 188.652 87.8772 185.712C84.6121 182.771 82.0641 179.122 80.4287 175.043C77.2419 166.774 79.0776 157.813 84.8331 151.161C91.043 143.994 100.894 140.074 110.224 142.558L110.46 140.789C93.3028 141.91 74.2612 132.774 70.196 114.841C66.6216 99.0345 76.3392 81.4409 93.8602 82.0709C102.172 82.3678 110.218 86.748 113.544 94.5997L115.101 93.6849C104.584 72.7713 123.038 49.0586 143.454 44.2846C165.168 39.2077 189.729 50.9489 193.327 74.2495C195.145 85.9726 191.431 98.4408 182.143 106.105L183.555 107.201C201.767 82.186 243.043 85.9968 262.66 107.08C268.191 113.023 272.535 120.748 272.571 129.054C272.608 136.7 268.797 143.594 262.969 148.356C251.228 158.001 234.185 160.261 219.681 162.593C199.773 165.804 175.164 165.822 162.029 147.678L161.248 149.035C181.113 149.519 195.835 172.741 185.27 190.323C182.913 194.173 179.728 197.45 175.945 199.915C172.163 202.38 167.879 203.971 163.405 204.572C154.42 205.681 145.89 201.797 140.231 194.842C133.9 187.069 131.519 176.316 135.021 166.816C135.366 165.865 133.767 165.174 133.373 166.119C128.605 177.388 123.68 189.02 115.434 198.229C107.643 206.923 96.0473 213.181 84.088 211.891C71.4562 210.528 62.9622 199.719 60.7388 187.802C58.4851 175.686 62.6169 162.569 71.0684 153.651C80.671 143.515 95.5202 139.487 108.994 142.855L108.776 141.207C89.6011 150.943 62.9683 138.535 60.5207 116.531C59.3757 106.232 63.2227 95.5388 70.3899 88.1415C74.0794 84.3299 78.701 81.5487 83.7966 80.0737C88.8922 78.5986 94.2849 78.481 99.44 79.7324C111.308 82.4829 121.668 91.2979 124.97 103.185L126.479 102.306C110.993 88.19 111.72 59.8245 129.447 47.75C147.623 35.3727 174.625 43.5697 182.392 64.1078C187.414 77.3999 185.058 92.3521 180.429 105.39C180.035 106.48 181.78 106.953 182.168 105.868C186.657 93.2366 188.965 78.9024 184.894 65.8405C183.268 60.4446 180.386 55.5111 176.484 51.4449C172.582 47.3787 167.772 44.2957 162.447 42.4489C152.348 38.8987 140.607 39.4197 131.156 44.5936C121.559 49.8523 115.598 59.7396 114.071 70.4146C112.344 82.4829 116.082 95.2541 125.206 103.584C125.349 103.717 125.531 103.801 125.726 103.822C125.92 103.844 126.116 103.802 126.284 103.704C126.453 103.605 126.585 103.455 126.662 103.275C126.738 103.095 126.755 102.896 126.709 102.706C120.475 80.2898 90.8976 69.0635 72.2801 83.9794C67.9381 87.5518 64.4498 92.0498 62.0703 97.1443C59.6908 102.239 58.4804 107.801 58.5275 113.423C58.6911 124.637 64.701 134.597 74.134 140.535C84.7059 147.199 98.4464 148.471 109.685 142.764C109.835 142.673 109.956 142.54 110.032 142.381C110.108 142.223 110.137 142.046 110.115 141.871C110.092 141.697 110.02 141.533 109.906 141.399C109.792 141.265 109.641 141.166 109.473 141.116C103.373 139.595 97.0087 139.477 90.8572 140.771C84.7057 142.065 78.9278 144.737 73.9583 148.586C63.9013 156.462 58.0489 169.33 58.3518 182.089C58.6365 193.988 64.6828 206.541 75.9697 211.557C87.2565 216.574 100.488 212.854 109.951 205.76C122.547 196.321 128.987 181.072 134.93 166.986L133.282 166.289C126.618 184.331 140.583 206.65 160.333 206.541C170.075 206.48 179.514 201.288 185.27 193.522C188.159 189.631 189.962 185.041 190.494 180.224C191.026 175.407 190.269 170.535 188.299 166.107C183.634 155.384 173.062 147.478 161.242 147.187C161.084 147.189 160.93 147.233 160.794 147.313C160.659 147.393 160.546 147.508 160.468 147.645C160.39 147.781 160.348 147.936 160.348 148.094C160.348 148.252 160.389 148.407 160.466 148.544C172.038 164.538 192.897 167.476 211.242 165.507C220.97 164.495 230.617 162.819 240.116 160.491C247.611 158.619 255.22 156.068 261.63 151.646C267.464 147.623 272.081 141.952 273.747 134.943C275.649 126.867 273.183 118.585 268.688 111.794C259.57 98.053 243.679 90.2074 227.569 88.505C210.527 86.6874 192.431 92.0552 182.034 106.323C181.392 107.213 182.725 108.019 183.452 107.419C201.264 92.7216 198.653 63.1929 180.738 49.8644C161.351 35.3848 131.913 39.8438 117.87 59.4731C110.6 69.6694 107.782 83.1009 113.58 94.6543C114.113 95.7084 115.58 94.7815 115.137 93.7395C108.812 78.8236 87.0808 76.0671 75.9273 86.9964C62.7684 99.8948 66.2944 122.226 79.7925 133.307C88.2925 140.292 99.5611 143.34 110.466 142.625C110.683 142.622 110.891 142.542 111.053 142.399C111.215 142.256 111.32 142.059 111.35 141.845C111.379 141.63 111.33 141.413 111.213 141.231C111.095 141.05 110.916 140.916 110.709 140.856C92.8 136.082 73.7947 153.154 77.5206 171.536C79.3866 180.781 86.4265 188.693 94.981 192.401C99.2907 194.257 104.011 194.954 108.673 194.422C113.335 193.891 117.778 192.15 121.559 189.372C130.277 183.107 135.669 172.572 134.833 161.788C134.773 160.964 133.622 160.479 133.155 161.333C122.535 181.78 132.264 211.885 156.601 216.271C167.403 218.216 179.205 215.059 187.299 207.553C195.581 199.913 198.313 188.463 194.824 177.794C190.904 165.871 180.144 155.984 167.167 156.117C166.972 156.123 166.785 156.191 166.632 156.312C166.479 156.433 166.369 156.6 166.318 156.788C166.267 156.976 166.278 157.175 166.349 157.356C166.42 157.538 166.548 157.692 166.713 157.795C180.592 164.944 196.332 169.573 212.054 167.489C224.643 165.804 236.978 159.485 244.624 149.168C248.17 144.39 250.483 138.812 251.358 132.926C252.233 127.041 251.643 121.031 249.64 115.429C245.399 103.918 235.167 96.4657 222.983 95.5812C206.947 94.4119 191.219 102.785 177.872 110.727C177.693 110.844 177.561 111.019 177.499 111.223C177.437 111.427 177.448 111.646 177.531 111.843C177.614 112.039 177.763 112.2 177.953 112.297C178.143 112.395 178.361 112.422 178.569 112.375C195.157 109.685 201.706 87.0146 191.346 74.6979C185.536 67.7973 176.067 64.8348 167.258 65.6102C162.693 66.0194 158.28 67.4567 154.349 69.8143C150.419 72.1719 147.073 75.3887 144.563 79.2235C138.274 88.5837 136.717 100.598 139.316 111.454C139.361 111.604 139.444 111.74 139.556 111.849C139.669 111.958 139.807 112.037 139.959 112.077C140.11 112.117 140.269 112.118 140.421 112.079C140.573 112.04 140.712 111.962 140.825 111.854C146.762 107.05 155.505 108.722 160.878 113.575C167.652 119.688 166.622 129.478 160.509 135.676C154.026 142.249 144.09 143.376 136.693 137.663C129.805 132.344 126.394 122.832 128.969 114.435C131.998 104.517 141.722 97.6895 151.845 96.8656L150.949 95.9629C151.886 138.432 154.319 180.841 158.249 223.19C159.376 235.306 160.626 247.409 161.999 259.498C162.132 260.637 163.938 260.649 163.817 259.498L163.811 259.455Z" fill="#FDB157"/>
<path d="M157.279 378.8C157.788 348.156 159.017 317.525 160.029 286.9C161.241 250.761 162.416 214.611 162.877 178.454C163.077 163.017 163.204 147.556 162.665 132.138H160.847C163.804 162.599 164.852 193.273 166.5 223.826C168.414 259.461 170.341 295.157 174.242 330.648C175.902 345.739 177.78 360.94 181.385 375.71C181.658 376.849 183.33 376.358 183.124 375.232C179.695 356.523 177.853 337.506 175.957 318.591C173.533 294.509 171.407 270.403 169.008 246.321C166.7 223.196 164.24 200.058 160.744 177.079C159.29 167.513 157.66 157.965 155.534 148.526C155.11 146.641 154.662 144.757 154.189 142.885C153.747 141.134 152.753 139.02 152.656 137.221C152.559 135.421 154.092 133.016 154.365 131.035C154.693 128.525 154.502 125.974 153.801 123.541C150.814 112.914 139.867 106.408 129.319 110.673C118.644 114.986 112.804 127.188 117.402 137.936C122.001 148.683 134.487 154.899 145.78 151.325C157.206 147.732 165.458 136.318 164.464 124.262C163.549 113.169 154.831 105.341 143.672 106.892C134.584 108.152 126.175 115.15 126.072 124.807C125.957 135.882 136.274 145.654 147.088 146.175C157.685 146.684 166.088 137.857 168.293 128.048C168.864 125.563 169.042 123.003 168.82 120.463C168.59 118.04 167.53 115.937 167.045 113.623C166.681 111.884 168.329 110.315 169.28 108.776C170.232 107.238 171.098 105.747 171.91 104.184C173.78 100.689 175.427 97.0791 176.841 93.3759C181.979 79.9141 185.353 63.3807 179.501 49.5978C174.878 38.6926 163.67 30.3381 151.493 32.9311C138.431 35.7119 130.361 48.0771 127.393 60.2848C125.575 67.664 125.175 75.2975 124.818 82.8584L126.496 82.398C121.734 71.1597 108.83 65.9555 97.2156 67.1611C83.4267 68.597 70.1527 77.0666 60.3623 86.548C51.5049 95.1146 44.4771 106.971 47.1246 119.706C49.548 131.326 59.3566 140.068 69.977 144.394C86.8133 151.24 105.764 146.95 122.77 143.103C123.679 142.903 123.576 141.625 122.77 141.365C102.171 134.797 77.7681 152.033 79.6947 174.262C80.6095 184.858 86.886 194.757 95.7858 200.495C100.326 203.416 105.564 205.071 110.958 205.288C116.352 205.505 121.706 204.277 126.466 201.731C137.698 195.896 145.604 183.913 145.247 171.124C145.247 170.882 145.151 170.651 144.981 170.481C144.81 170.31 144.579 170.215 144.338 170.215C144.097 170.215 143.866 170.31 143.695 170.481C143.525 170.651 143.429 170.882 143.429 171.124C142.254 184.537 141.157 198.81 147.591 211.164C152.632 220.857 162.022 227.6 173.206 226.988C178.44 226.632 183.505 224.988 187.951 222.205C192.397 219.421 196.087 215.583 198.694 211.03C204.637 200.531 204.837 187.402 201.014 176.164C196.422 162.642 186.577 151.706 175.714 142.788L174.624 144.2C188.619 151.7 203.232 159.437 219.359 160.661C231.355 161.575 244.199 157.831 252.935 149.331C257.164 145.281 260.054 140.035 261.217 134.296C262.38 128.556 261.76 122.599 259.442 117.222C254.431 105.317 243.03 96.3021 230.695 92.9881C212.138 87.9657 192.666 92.9881 174.606 97.6895L175.084 99.4282C201.22 89.6742 208.46 51.5668 187.977 32.7857C177.532 23.2073 162.368 19.7782 148.597 22.3106C133.978 25.0006 122.146 34.8152 116.397 48.4769C109.732 64.3682 111.356 83.5249 121.201 97.75C121.855 98.6952 123.406 97.8106 122.758 96.8352C115.488 86.0028 105.322 76.6971 92.7627 72.5713C81.0275 68.7181 68.1534 70.5114 58.2297 78.0238C48.924 85.0455 43.9985 96.4778 47.0277 107.983C50.1599 119.906 60.3562 129.23 71.534 133.719C88.3764 140.486 107.43 137.178 124.715 134.252C125.86 134.058 125.369 132.331 124.236 132.513C108.661 134.968 93.9773 141.38 81.591 151.137C70.2981 160.043 57.4906 173.595 58.0358 189.038C58.5145 202.651 70.3223 211.666 82.4634 215.168C94.9801 218.773 108.727 217.034 120.431 211.533C133.633 205.36 144.399 193.964 147.416 179.424L145.677 178.939C142.042 198.423 158.69 218.821 178.998 216.749C183.777 216.204 188.387 214.651 192.522 212.194C196.657 209.736 200.225 206.431 202.989 202.494C205.779 198.472 207.525 193.819 208.07 188.954C208.614 184.089 207.941 179.165 206.11 174.625C202.099 164.381 193.138 156.22 182.227 154.142L181.749 155.881C200.727 159.105 219.959 160.593 239.207 160.327C247.731 160.2 256.54 160.152 264.961 158.673C270.614 157.674 276.896 155.59 280.204 150.543C284.293 144.315 281.725 136.9 277.962 131.217C273.594 124.631 267.815 118.7 261.938 113.46C250.578 103.318 236.711 95.3873 221.437 93.388C205.486 91.2978 188.522 95.5811 177.017 107.201C176.175 108.049 177.399 109.176 178.289 108.473C200.342 91.104 201.608 54.1173 178.95 36.7236C168.105 28.4054 153.583 25.1702 140.176 27.7632C126.429 30.4289 115.173 39.6741 109.357 52.3422C102.923 66.3735 103.129 83.3371 111.295 96.6232C111.738 97.3381 113.046 97.1018 112.974 96.1688C111.156 73.1468 80.0884 61.3208 63.1915 76.7395C54.9157 84.2943 51.4625 96.3142 52.9104 107.219C54.4856 119.082 62.1132 128.799 73.1031 133.47C86.0136 138.923 101.669 137.336 112.986 128.999C113.179 128.872 113.316 128.676 113.368 128.451C113.421 128.226 113.386 127.99 113.269 127.79C113.153 127.591 112.964 127.443 112.742 127.379C112.521 127.314 112.282 127.337 112.077 127.442C98.8271 133.131 85.1654 139.062 74.5753 149.125C65.3302 157.91 59.1263 170.396 59.9139 183.368C60.6591 195.733 68.5229 205.553 80.0885 209.697C92.1447 214.023 105.728 212.43 117.59 208.28C132.208 203.133 144.987 193.796 154.334 181.435L152.656 180.981C149.276 206.553 173.782 231.265 199.518 225.746C212.132 223.044 223.273 213.86 228.707 202.215C234.142 190.571 233.07 177.455 226.326 166.646C218.675 154.366 204.831 146.048 190.2 146.654C189.959 146.654 189.728 146.749 189.558 146.92C189.387 147.09 189.291 147.321 189.291 147.562C189.291 147.803 189.387 148.034 189.558 148.205C189.728 148.375 189.959 148.471 190.2 148.471C210.835 149.78 231.49 150.616 252.166 150.979C259.315 151.1 268.705 152.427 274.764 147.623C280.162 143.382 280.046 136.027 278.199 129.981C273.885 115.877 262.822 103.257 251.099 94.7148C238.409 85.433 223.195 80.2327 207.479 79.805C189.15 79.3994 171.235 85.2835 156.715 96.4778C155.91 97.0836 156.97 98.4892 157.806 97.8954C169.087 89.8256 179.883 79.4233 183.094 65.4163C185.796 53.6448 182.524 40.5404 171.88 33.8762C163.161 28.4236 151.76 28.1389 142.193 31.4165C131.191 35.1848 123.37 43.7817 119.25 54.5293C113.797 68.7363 115.13 84.9183 119.856 99.1132L121.595 98.6346C110.75 72.8681 71.9157 65.4223 54.3887 88.4383C46.0765 99.3434 43.8531 114.72 48.2636 127.66C52.7893 140.953 64.3002 149.913 78.1134 151.84C93.3261 153.96 109.666 147.932 118.25 134.876C118.318 134.756 118.358 134.622 118.366 134.485C118.375 134.348 118.353 134.21 118.301 134.083C118.249 133.955 118.169 133.841 118.067 133.748C117.965 133.656 117.843 133.588 117.711 133.549C104.758 130.587 91.5267 139.002 86.6315 150.961C81.4395 163.647 86.5104 178.388 95.7192 187.845C106.788 199.235 123.636 202.888 139 201.482C151.996 200.271 166.972 195.26 173.424 182.931C178.98 172.329 175.357 156.183 162.962 152.488C162.808 152.448 162.647 152.449 162.494 152.49C162.341 152.532 162.202 152.613 162.09 152.725C161.978 152.837 161.897 152.976 161.855 153.129C161.814 153.282 161.813 153.443 161.853 153.597C168.426 172.535 185.693 187.19 205.582 190.22C212.762 191.31 222.964 190.438 227.132 183.446C232.639 174.207 220.91 165.877 214.567 161.23C203.6 153.207 191.166 147.413 177.968 144.176L177.726 145.951C198.228 148.419 218.802 150.034 239.449 150.798C251.784 151.252 274.873 154.626 279.259 138.469C283.13 124.262 268.59 111.636 257.854 105.402C244.526 97.6349 229.083 93.6788 213.683 93.5092C196.113 93.3153 178.544 98.1439 163.816 107.843C162.852 108.449 163.731 110.018 164.725 109.4C175.024 102.985 181.276 91.7765 182.56 79.8232C183.235 73.6581 182.433 67.421 180.221 61.6271C178.008 55.8332 174.449 50.6488 169.838 46.5019C165.091 42.2361 159.505 39.0087 153.438 37.0265C147.372 35.0443 140.958 34.351 134.608 34.9909C122.346 36.3541 109.714 43.5878 105.213 55.5896C100.808 67.3126 107.248 82.9069 120.256 85.2758C121.389 85.4818 121.873 83.743 120.734 83.537C109.405 81.4529 103.262 68.2516 106.4 57.6857C109.993 45.5689 122.637 38.1534 134.608 36.7842C157.782 34.1427 181.149 51.6213 180.985 75.7519C180.894 88.4746 174.715 101.046 163.81 107.862L164.718 109.419C189.304 93.2244 221.934 90.9283 248.797 102.821C261.102 108.274 277.272 118.5 277.962 133.616C278.853 152.512 252.584 149.489 240.636 149.071C219.602 148.336 198.629 146.7 177.72 144.164C176.708 144.042 176.508 145.696 177.484 145.933C187.534 148.389 197.154 152.351 206.019 157.686C210.628 160.47 215.006 163.621 219.111 167.107C222.849 170.287 227.623 174.565 226.575 180.041C224.891 188.856 212.035 189.499 205.219 188.36C196.461 186.841 188.22 183.159 181.246 177.648C173.131 171.34 167.007 162.825 163.61 153.124L162.501 154.233C173.097 157.395 176.435 170.815 172.697 180.284C167.899 192.34 153.728 197.781 141.799 199.38C128.126 201.197 113.246 199.119 101.881 190.85C91.4117 183.222 84.396 169.645 86.8618 156.553C89.4124 143.043 103.413 132.144 117.245 135.306L116.706 133.985C101.941 156.462 63.5672 156.226 51.6018 131.12C46.0584 119.488 46.755 105.02 53.0437 93.8181C59.5868 82.1496 71.9035 75.8307 85.1533 76.4063C99.6935 77.0121 114.113 85.4939 119.868 99.1435C120.304 100.179 121.982 99.7978 121.607 98.6649C114.579 77.6422 115.233 47.2653 137.504 35.4211C146.131 30.8288 156.982 29.6595 166.203 33.1249C177.344 37.3113 183.021 48.271 182.112 59.891C180.9 75.7216 169.111 87.6083 156.867 96.3687L157.957 97.7803C182.427 78.866 217.027 76.3214 243.72 92.0733C256.166 99.3894 266.34 110.014 273.11 122.765C276.417 129.066 280.477 138.832 274.885 145.066C269.602 150.961 259.169 149.307 252.135 149.21C231.464 148.855 210.809 148.019 190.17 146.702V148.52C215.082 147.526 236.789 173.456 228.592 197.708C224.642 209.413 214.749 219.064 203.068 222.984C191.388 226.903 178.835 224.274 169.341 216.556C158.854 208.074 152.644 194.594 154.425 181.071C154.559 180.072 153.214 180.011 152.747 180.617C137.88 200.234 110.605 214.968 85.4986 209.473C73.2061 206.777 63.2945 198.089 61.8042 185.167C60.3623 172.668 66.0451 160.224 74.7389 151.518C85.323 140.953 99.3967 134.9 112.907 129.102L111.998 127.545C93.7563 140.977 62.7311 135.779 55.7215 112.29C52.7711 102.385 54.419 90.9828 60.4531 82.5374C66.9478 73.4497 77.9317 69.7178 88.7035 72.341C100.009 75.0976 110.169 84.1792 111.12 96.2354L112.889 95.7084C98.7605 72.6864 109.726 38.8017 136.056 30.6592C148.567 26.7878 162.713 28.6841 173.921 35.4453C185.553 42.4852 192.648 54.6868 193.581 68.1971C194.599 82.9372 188.734 97.9682 177.029 107.195L178.301 108.467C188.171 98.5073 202.202 94.1513 216.033 94.7148C230.543 95.3206 244.15 101.591 255.492 110.4C261.135 114.828 266.333 119.795 271.013 125.231C275.939 130.902 282.779 139.02 279.919 147.132C277.678 153.481 270.535 155.856 264.501 156.923C256.625 158.304 248.373 158.346 240.406 158.492C220.926 158.844 201.455 157.383 182.245 154.13C181.119 153.942 180.616 155.65 181.767 155.868C200.087 159.352 212.374 181.017 203.577 198.108C194.78 215.198 171.655 220.784 157.255 207.438C149.651 200.392 145.544 189.711 147.47 179.43C147.676 178.297 145.968 177.806 145.731 178.945C140.582 203.742 112.755 218.325 88.8187 214.69C76.7018 212.842 63.028 205.687 60.3441 192.685C57.1756 177.448 69.9527 163.248 80.6701 154.233C93.285 143.686 108.535 136.774 124.781 134.24L124.303 132.501C109.835 134.924 94.768 137.493 80.1975 134.385C68.2261 131.829 56.9514 124.649 51.1959 113.581C48.4707 108.498 47.4937 102.659 48.4156 96.9656C49.3375 91.2722 52.1071 86.0403 56.2971 82.0769C64.7304 73.8799 77.029 70.675 88.4067 73.2317C102.214 76.3275 113.543 86.2209 121.249 97.75L122.806 96.8352C106.503 73.2922 114.01 35.415 142.726 25.6731C155.504 21.3413 170.389 22.8438 181.761 30.2169C193.132 37.59 198.924 50.3369 198.022 63.7381C197.046 78.1995 188.558 92.4853 174.612 97.6652C174.391 97.7372 174.207 97.8914 174.097 98.0959C173.987 98.3003 173.96 98.5392 174.022 98.763C174.083 98.9868 174.229 99.1782 174.428 99.2976C174.627 99.417 174.864 99.4551 175.09 99.404C189.861 95.5387 205.152 91.5644 220.529 92.9942C234.202 94.2604 247.186 100.713 254.831 112.43C261.708 122.971 261.956 136.3 253.565 146.054C245.986 154.863 233.76 159.207 222.334 159.013C205.479 158.734 190.031 150.422 175.539 142.655C174.679 142.195 173.618 143.394 174.448 144.073C191.697 158.231 207.339 179.969 200.033 203.445C196.786 213.866 188.577 222.014 177.865 224.528C166.621 227.17 156.134 221.978 150.263 212.248C142.799 199.889 144.029 184.925 145.235 171.154H143.417C144.023 192.91 119.589 210.806 99.4936 200.561C95.0118 198.226 91.1084 194.918 88.0686 190.881C85.0289 186.843 82.9296 182.177 81.9242 177.224C79.9794 167.186 83.8023 157.286 91.2965 150.495C99.5844 142.982 111.52 139.674 122.303 143.109V141.371C107.624 144.691 92.0538 148.247 77.0592 144.763C66.3359 142.267 55.8245 135.433 50.9414 125.304C45.192 113.375 50.0811 100.567 58.3691 91.2433C66.657 81.9194 78.3618 73.789 90.4787 70.3357C103.25 66.7007 119.311 70.0025 124.963 83.3371C125.339 84.2216 126.611 83.6824 126.647 82.8827C127.15 72.1048 127.762 60.8603 132.615 51.0154C136.716 42.6851 144.762 35.1969 154.346 34.3366C163.931 33.4763 172.364 39.8376 176.763 47.9499C181.961 57.6009 181.355 69.3603 179.089 79.7445C176.503 91.4211 171.678 102.486 164.882 112.327C164.8 112.464 164.757 112.621 164.757 112.781C164.757 112.941 164.8 113.098 164.882 113.235C173.364 129.642 156.182 152.046 138.419 141.71C130.591 137.166 125.054 127.042 129.501 118.3C132.906 111.636 141.054 107.898 148.367 108.57C158.551 109.497 163.695 119.427 162.653 128.915C161.544 138.984 153.516 147.756 143.696 150.052C133.875 152.348 123.758 146.957 119.462 138.02C114.852 128.46 119.565 117.319 128.944 112.829C137.958 108.516 147.767 112.975 151.438 122.026C153.074 126.055 153.371 130.75 151.505 134.749C150.857 136.136 150.621 136.251 150.984 137.681C151.348 139.111 151.76 140.432 152.123 141.813C155.407 154.354 157.545 167.204 159.448 180.017C164.367 213.175 167.36 246.617 170.51 279.981C173.273 309.298 175.581 338.748 180.131 367.883C180.535 370.488 180.975 373.091 181.452 375.692L183.191 375.213C180.022 362.218 178.229 348.883 176.678 335.609C174.703 318.682 173.291 301.682 172.073 284.719C169.511 249.059 167.893 213.332 165.888 177.636C165.04 162.46 164.185 147.265 162.719 132.138C162.604 131.005 160.871 130.926 160.902 132.138C161.974 162.727 160.986 193.431 160.181 224.013C159.23 260.17 157.921 296.321 156.764 332.459C156.267 347.896 155.77 363.357 155.516 378.788C155.516 379.951 157.297 379.951 157.333 378.788L157.279 378.8Z" fill="white"/>
<path d="M145.925 381.423C145.683 357.323 146.888 333.18 147.791 309.104C148.9 279.472 150.172 249.841 151.057 220.203C151.408 208.377 151.772 196.533 151.663 184.701C151.663 184.459 151.567 184.228 151.396 184.058C151.226 183.887 150.995 183.792 150.754 183.792C150.513 183.792 150.282 183.887 150.111 184.058C149.941 184.228 149.845 184.459 149.845 184.701C148.452 211.127 148.549 237.681 149.112 264.132C149.778 295.406 151.129 326.855 155.431 357.868C157.194 370.591 159.242 383.653 163.967 395.642C164.028 395.85 164.161 396.029 164.343 396.146C164.524 396.264 164.742 396.313 164.956 396.283C165.17 396.254 165.367 396.149 165.51 395.987C165.653 395.824 165.734 395.616 165.736 395.4C166.342 365.471 166.948 335.537 167.154 305.602C167.384 270.257 167.317 234.864 165.506 199.58C164.749 184.822 163.798 169.985 161.404 155.39C161.241 154.396 159.508 154.62 159.635 155.632C161.053 166.889 160.702 178.382 160.296 189.699C159.751 204.845 158.708 219.936 157.739 235.046C155.752 265.998 153.28 297.326 155.582 328.345C156.491 340.547 157.927 353.561 163.458 364.66C163.907 365.562 165.482 364.926 165.106 363.969C157.885 345.327 156.715 324.268 155.607 304.518C154.177 279.072 154.122 253.566 153.529 228.091C152.989 204.96 152.414 181.58 148.682 158.692C147.288 150.071 145.404 141.425 142.018 133.343C138.104 124.007 128.756 109.188 116.572 115.822C111.835 118.391 108.939 123.783 108.636 129.066C108.266 135.579 111.883 141.704 116.512 145.993C125.387 154.196 139.285 157.171 150.517 152.312C160.744 147.89 165.7 137.348 163.089 126.612C160.574 116.271 151.578 107.419 140.461 108.055C128.344 108.752 117.56 119.694 116.966 131.792C116.396 143.303 125.617 152.754 136.22 155.596C147.882 158.716 158.975 153.015 164.876 142.8C171.231 131.798 171.892 118.191 170.934 105.844C169.838 91.5948 166.318 76.897 157.37 65.4406C149.56 55.4442 137.262 49.0344 124.442 49.3737C111.841 49.7069 101.42 57.4253 97.2761 69.3301C92.4294 83.2645 96.5855 98.1197 104.062 110.291C108.096 116.852 113.01 122.826 118.05 128.63C118.656 129.29 119.868 128.594 119.559 127.751C114.627 114.926 100.651 109.019 87.5766 109.703C71.334 110.558 58.4962 121.911 49.3238 134.47C44.2711 141.395 39.4486 149.01 36.1709 156.959C33.3962 163.696 31.512 172.166 35.9104 178.666C40.0544 184.797 47.7244 186.354 54.6915 186.112C62.9189 185.827 71.2431 183.689 78.9252 180.823C96.7706 174.129 112.126 162.109 122.909 146.393C123.388 145.69 122.594 144.933 121.885 145.072C96.9732 149.98 82.6087 183.24 101.075 202.67C109.145 211.152 121.643 215.501 133.227 213.575C144.92 211.624 153.704 202.821 156.782 191.534C160.175 179.096 156.818 164.877 146.343 156.844C145.737 156.365 144.78 157.159 145.016 157.862C149.935 172.517 157.892 185.969 168.366 197.338C173.558 203 179.364 208.067 185.674 212.448C192.23 216.955 200.033 220.839 208.2 220.488C220.856 219.942 229.798 208.813 231.428 196.86C233.245 183.592 225.442 171.414 215.161 163.738C200.081 152.445 180.628 150.84 162.453 149.434V151.252L227.344 151.712C242.224 151.821 262.011 153.263 269.438 137.136C275.878 123.165 269.293 107.656 257.927 98.5922C245.386 88.6019 228.447 84.458 212.634 84.6215C193.948 84.786 175.841 91.1297 161.138 102.663C160.429 103.221 161.198 104.451 162.016 104.166C184.027 96.6536 195.768 67.4277 180.282 48.4831C173.261 39.8862 161.907 34.6093 150.772 35.2636C140.152 35.8149 131.064 42.1278 126.217 51.482C120.728 61.9934 120.577 75.4006 127.847 85.1123C127.963 85.291 128.139 85.4231 128.343 85.4855C128.547 85.5479 128.766 85.5366 128.962 85.4535C129.159 85.3705 129.32 85.221 129.417 85.0313C129.514 84.8415 129.542 84.6235 129.495 84.4155C126.926 73.3529 116.469 66.8461 105.734 65.4466C92.2658 63.7139 80.1793 70.56 70.9039 79.8051C65.8511 84.8396 61.5073 90.5346 57.4239 96.3628C53.3405 102.191 48.7967 109.085 49.3177 116.416C50.3779 131.35 69.5892 130.829 80.3671 131.562L143.708 135.803L143.472 134.028C116.936 138.596 83.6144 146.096 76.7623 176.679C74.1027 188.554 77.247 201.173 87.5221 208.407C98.7362 216.283 115.318 216.949 128.192 213.478C135.68 211.461 142.672 207.42 147.022 200.834C151.057 194.739 152.547 187.045 149.875 180.114C149.463 179.054 147.815 179.454 148.137 180.593C156.891 211.727 185.632 237.021 218.154 240.008C225.757 240.704 234.318 239.547 239.14 232.956C243.696 226.734 243.266 218.21 241.563 211.073C237.807 195.085 228.235 180.175 216.53 168.87C203.123 155.893 186.044 146.86 167.626 143.655L167.39 145.424C185.786 147.728 204.436 146.967 222.582 143.17C230.943 141.413 239.388 139.159 247.27 135.827C253.389 133.234 259.575 129.557 263.022 123.668C270.723 110.588 260.193 96.902 249.221 90.0075C236.577 82.0528 220.08 79.7991 205.413 80.9199C188.334 82.1733 172.019 88.5026 158.563 99.0951L159.841 100.367C169.632 87.9173 180.046 74.6615 182.591 58.5643C184.663 45.4842 181.191 31.4529 169.983 23.4861C159.908 16.3129 145.871 15.2406 134.602 20.1055C122.37 25.3945 113.591 36.7722 109.544 49.2525C103.922 66.5978 107.727 85.4273 115.106 101.621C115.494 102.47 116.784 102.003 116.79 101.167C116.972 78.9145 92.6051 60.8422 71.6732 70.0934C66.8546 72.2898 62.5872 75.5347 59.1828 79.5911C55.7784 83.6474 53.3229 88.4129 51.9955 93.5395C49.3904 103.936 52.6014 114.623 59.9987 122.281C68.1533 130.726 80.355 135.003 91.9084 132.307C93.0352 132.047 92.5627 130.308 91.4298 130.569C72.0065 135.124 50.7596 118.228 53.0315 97.8531C54.1402 87.9112 60.4107 78.7146 68.8985 73.5589C73.2108 70.9337 78.1417 69.498 83.1892 69.398C88.2368 69.298 93.2207 70.5371 97.6336 72.9894C107.872 78.551 115.082 89.3471 114.985 101.155L116.663 100.701C110.308 86.7662 106.727 71.0144 109.72 55.7411C112.143 43.3213 119.262 31.3984 130.07 24.5342C140.37 17.979 153.904 17.0036 164.912 22.5349C177.332 28.769 182.482 42.0793 181.185 55.4442C179.555 72.3108 168.669 86.227 158.563 99.0648C158.407 99.2367 158.323 99.4623 158.329 99.6945C158.335 99.9268 158.43 100.148 158.594 100.312C158.759 100.476 158.981 100.57 159.213 100.574C159.445 100.579 159.67 100.494 159.841 100.337C182.221 82.6162 215.579 76.6608 242.139 88.299C254.001 93.4971 269.002 106.898 262.253 121.293C259.357 127.473 253.196 131.296 247.155 133.937C239.885 137.118 232.009 139.232 224.291 140.971C205.613 145.13 186.357 146.032 167.372 143.637C166.372 143.515 166.13 145.236 167.13 145.412C197.828 150.755 224.891 172.614 236.529 201.549C239.425 208.74 241.891 216.834 240.558 224.65C238.922 234.234 230.901 238.469 221.777 238.408C206.521 238.311 191.054 231.526 179.047 222.457C165.112 211.909 154.577 197.011 149.833 180.132L148.094 180.611C153.583 194.86 141.527 207.698 128.604 211.509C116.487 215.071 100.875 214.647 89.903 207.874C78.9312 201.101 75.7263 188.366 78.6465 176.4C81.5969 164.284 89.6668 154.881 100.305 148.72C113.549 141.037 129.022 138.36 143.926 135.797C144.98 135.615 144.641 134.095 143.684 134.028L94.7134 130.732C86.8738 130.205 79.0221 129.745 71.1886 129.145C65.4634 128.703 58.5932 127.933 54.3583 123.613C48.4695 117.585 51.7653 108.849 55.461 102.627C59.0198 96.7505 63.0799 91.1924 67.5959 86.015C75.6415 76.6729 86.377 67.7731 99.2088 67.0158C111.198 66.313 124.806 72.3108 127.732 84.9063L129.38 84.2096C117.178 67.9124 126.956 41.2372 147.191 37.4386C157.4 35.5181 168.293 39.2561 175.817 46.2657C179.814 49.9722 182.753 54.6749 184.332 59.8915C185.912 65.1081 186.076 70.651 184.808 75.952C182.07 87.9416 173.261 98.3681 161.55 102.379L162.422 103.887C186.741 84.67 223.843 79.8596 251.045 96.0114C264.058 103.73 273.861 118.246 268.82 133.761C263.077 151.464 242.369 149.98 227.344 149.877L162.453 149.416C161.277 149.416 161.308 151.131 162.453 151.234C177.968 152.446 194.38 153.657 208.248 161.4C219.305 167.598 229.453 178.588 229.889 191.898C230.289 204.075 222.189 217.464 209.205 218.615C194.586 219.912 180.731 207.595 171.28 197.805C160.206 186.313 151.825 172.505 146.743 157.377L145.422 158.395C163.313 172.075 158.175 204.548 136.286 211.012C125.72 214.132 113.713 211.085 105.297 204.154C96.0826 196.563 92.4415 184.731 95.4041 173.202C98.712 160.309 109.145 149.416 122.358 146.811L121.34 145.484C112.648 158.157 100.874 168.41 87.1283 175.28C80.2913 178.714 73.0403 181.253 65.5543 182.835C58.4235 184.343 50.0023 185.621 43.1381 182.441C25.9686 174.498 40.2543 151.603 46.8944 141.243C54.8975 128.787 65.9541 116.034 80.979 112.43C94.7922 109.122 112.362 113.902 117.857 128.182L119.365 127.309C109.835 116.349 100.136 104.051 97.6275 89.341C95.4889 76.8122 99.0088 62.1206 110.435 55.111C120.971 48.6527 134.796 50.6035 145.01 56.6983C156.624 63.617 163.283 76.267 166.512 89.02C169.541 101.137 170.637 114.465 168.481 126.843C166.53 137.996 160.914 150.289 149.16 153.797C138.443 156.995 125.581 151.204 120.728 141.147C114.955 129.181 123.152 114.998 135.099 110.915C146.943 106.868 158.084 114.938 161.205 126.37C164.349 137.881 157.927 148.707 146.434 151.815C134.651 155.008 120.704 150.307 113.816 140.074C109.981 134.373 109.102 127.024 113.21 121.208C117.451 115.223 125.048 114.702 130.573 119.197C138.025 125.255 141.6 135.755 143.993 144.776C146.101 153.139 147.605 161.642 148.494 170.221C150.881 191.025 151.402 212.024 151.844 232.938C152.323 255.263 152.45 277.606 153.577 299.913C154.474 318.173 155.649 336.87 160.241 354.633C161.093 357.949 162.133 361.213 163.355 364.411L165.003 363.715C160.102 353.87 158.605 342.371 157.642 331.544C156.352 317.041 156.431 302.428 156.806 287.887C157.666 256.674 160.562 225.564 161.907 194.376C162.459 181.52 163.04 168.415 161.435 155.602L159.66 155.838C161.774 168.761 162.689 181.889 163.446 194.939C164.403 211.715 164.864 228.521 165.13 245.315C165.694 280.454 165.385 315.593 164.803 350.731C164.557 365.619 164.266 380.504 163.931 395.388L165.7 395.152C161.653 384.889 159.641 373.802 157.981 362.945C155.685 348.096 154.31 333.107 153.262 318.113C151.057 286.609 150.384 254.93 150.633 223.335C150.73 210.443 150.966 197.544 151.644 184.67H149.827C150.075 208.771 148.87 232.913 147.967 256.99C146.852 286.627 145.586 316.253 144.701 345.897C144.344 357.723 143.987 369.561 144.096 381.393C144.096 381.634 144.191 381.865 144.362 382.036C144.532 382.206 144.763 382.302 145.004 382.302C145.245 382.302 145.476 382.206 145.647 382.036C145.817 381.865 145.913 381.634 145.913 381.393L145.925 381.423Z" fill="#FC565D"/>
<path d="M140.151 370.918C140.091 343.849 141.363 316.756 142.351 289.735C143.562 257.147 144.956 224.565 145.949 191.97C146.361 178.527 146.761 165.071 146.731 151.621C146.731 150.446 145.004 150.47 144.913 151.621C142.744 183.816 141.993 216.131 141.763 248.392C141.49 286.027 141.951 323.777 144.895 361.315C146.155 377.394 147.755 393.588 151.232 409.352C151.42 410.188 152.832 410.243 152.971 409.352C158.054 377.243 159.859 344.479 161.132 312.006C162.616 274.147 162.949 236.1 160.405 198.277C159.314 181.968 157.818 165.507 154.243 149.531C154.183 149.324 154.049 149.145 153.868 149.027C153.686 148.909 153.469 148.861 153.254 148.89C153.04 148.92 152.843 149.025 152.7 149.187C152.557 149.349 152.477 149.557 152.474 149.774C153.856 176.491 154.776 203.233 156.388 229.945C158.302 261.648 160.629 293.497 165.791 324.856C167.917 337.687 170.334 350.907 175.351 362.945C175.714 363.817 177.138 363.805 177.126 362.703C176.52 314.581 173.436 266.374 169.135 218.452C166.863 193.049 164.161 167.646 160.223 142.437C158.654 132.374 156.885 122.329 154.601 112.399C152.353 102.615 149.578 88.0141 136.395 89.7286C122.606 91.5461 114.391 106.88 114.155 119.578C113.9 133.046 122.946 145.599 136.298 148.604C148.797 151.415 162.065 143.37 165.039 130.78C167.844 118.924 158.769 106.874 146.773 105.511C135.262 104.196 126.175 114.998 127.138 126.109C128.241 138.753 142.139 143.424 152.953 140.147C166.281 136.106 174 121.971 178.55 109.788C183.154 97.4409 185.111 83.7368 182.791 70.6506C180.603 58.1885 173.873 46.3019 162.707 39.8376C152.28 33.7791 139.176 32.9733 127.829 36.7477C116.481 40.5221 107.23 49.0221 103.316 60.4604C99.4025 71.8987 100.772 84.8879 106.521 95.3932C109.371 100.567 113.359 105.025 118.184 108.431C118.321 108.509 118.477 108.55 118.635 108.549C118.793 108.549 118.948 108.507 119.085 108.428C119.223 108.349 119.337 108.236 119.416 108.099C119.496 107.963 119.539 107.808 119.541 107.649C120.213 90.7282 108.672 75.2611 93.3319 68.8755C77.4225 62.2658 59.6775 67.5063 47.9605 79.6292C35.9285 92.0853 31.7482 109.921 37.54 126.315C43.3319 142.709 57.5328 155.856 74.6236 159.637C94.3377 163.987 115.615 156.553 129.21 141.873C129.346 141.731 129.432 141.548 129.455 141.352C129.478 141.157 129.436 140.959 129.337 140.789C129.238 140.619 129.087 140.486 128.905 140.409C128.724 140.333 128.522 140.317 128.331 140.365C112.943 143.249 97.8939 150.828 88.2732 163.472C79.5006 174.983 76.7622 190.195 81.6089 203.948C86.2678 217.173 97.797 226.576 112.052 226.849C126.453 227.133 140.63 218.973 148.657 207.189C159.92 190.722 160.532 169.445 157.139 150.428C157.082 150.241 156.967 150.078 156.811 149.962C156.654 149.846 156.465 149.784 156.27 149.784C156.075 149.784 155.885 149.846 155.729 149.962C155.572 150.078 155.457 150.241 155.4 150.428C150.869 174.231 165.233 203.936 190.539 208.861C200.639 210.824 213.083 208.455 217.408 197.956C222.734 184.985 212.107 171.699 203.026 163.599C190.229 152.229 174.632 144.479 157.842 141.146C156.709 140.922 156.218 142.649 157.357 142.885C178.538 147.259 199.742 151.474 220.971 155.529C230.343 157.31 239.867 159.77 249.403 160.418C256.412 160.909 264.119 159.812 268.82 154.051C278.732 141.934 267.851 124.443 258.848 115.44C247.119 103.735 231.478 96.7785 214.93 95.9082C195.962 95.0539 177.09 102.803 163.955 116.446C163.798 116.617 163.713 116.843 163.718 117.075C163.722 117.307 163.816 117.529 163.98 117.693C164.144 117.858 164.365 117.953 164.597 117.959C164.83 117.965 165.055 117.881 165.227 117.725C177.538 105.892 187.801 90.9402 191.412 74.0312C194.677 58.764 191.775 43.206 181.458 31.2528C172.612 20.9837 158.842 13.9196 145.059 16.343C130.179 18.9966 120.031 32.0949 116.051 45.9808C110.09 66.7672 117.711 88.2261 124.751 107.71C124.815 107.914 124.949 108.089 125.13 108.204C125.31 108.319 125.526 108.367 125.738 108.339C125.95 108.31 126.146 108.208 126.29 108.05C126.434 107.892 126.518 107.688 126.526 107.474C127.58 92.9335 118.856 79.9321 106.806 72.5045C93.9923 64.6286 78.5434 63.6471 65.0028 70.2871C50.9958 77.1634 40.8721 90.71 36.2859 105.426C33.9716 112.866 32.6509 121.317 34.0685 129.054C35.5771 137.233 41.2417 142.225 49.1419 144.2C68.959 149.101 91.3751 143.594 108.024 132.301C108.202 132.185 108.334 132.009 108.397 131.805C108.459 131.601 108.448 131.382 108.365 131.186C108.282 130.989 108.132 130.828 107.943 130.731C107.753 130.633 107.535 130.606 107.327 130.653C81.8089 134.676 67.7775 167.04 82.3177 188.335C89.2062 198.423 100.778 204.935 112.834 206.335C125.666 207.819 138.11 202.803 146.761 193.321C156.503 182.671 161.059 167.682 158.363 153.469C158.306 153.283 158.191 153.12 158.035 153.004C157.878 152.888 157.688 152.825 157.494 152.825C157.299 152.825 157.109 152.888 156.953 153.004C156.796 153.12 156.681 153.283 156.624 153.469C151.711 179.799 168.862 212.454 198.112 213.229C209.563 213.532 220.959 207.129 222.346 194.866C223.891 181.096 211.998 168.815 200.742 162.884C184.802 154.475 165.385 153.972 151.329 141.752L150.451 143.267C172.136 146.381 193.93 148.499 215.833 149.622C225.969 150.131 236.492 151.125 246.616 150.064C254.346 149.259 261.829 146.314 266.039 139.432C274.685 125.291 266.469 108.764 254.316 99.9915C241.69 90.8736 225.381 87.7959 210.09 89.8679C193.084 92.1822 177.174 100.809 166.639 114.447C166.033 115.253 167.396 116.319 168.056 115.543C186.753 93.6181 190.527 58.4187 173.279 34.4698C165.572 23.7767 153.213 15.3858 139.509 17.385C126.241 19.3177 116.051 30.2773 111.204 42.2245C103.559 61.0904 109.29 82.3131 114.627 100.991C114.684 101.178 114.799 101.341 114.956 101.457C115.112 101.573 115.302 101.635 115.497 101.635C115.691 101.635 115.881 101.573 116.038 101.457C116.194 101.341 116.309 101.178 116.366 100.991C120.468 85.3302 108.49 70.3356 94.0832 65.4828C77.9921 60.0302 61.0164 68.6877 50.3839 80.6288C39.6665 92.6972 32.9053 109.667 35.6437 125.922C36.9523 133.725 40.854 140.898 47.2819 145.636C54.6611 151.088 64.0395 152.833 72.9696 153.681C96.4575 155.827 120.082 151.449 141.242 141.031C141.392 140.94 141.513 140.806 141.589 140.647C141.664 140.488 141.693 140.311 141.669 140.136C141.646 139.962 141.573 139.798 141.458 139.664C141.344 139.53 141.193 139.433 141.024 139.383C126.072 135.482 109.52 141.261 99.6993 153.124C89.8786 164.986 88.9881 181.707 95.7917 195.345C102.801 209.394 117.148 217.761 132.851 216.586C148.748 215.374 162.743 205.335 168.056 190.189C174.993 170.433 167.196 148.386 158.399 130.538C157.957 129.635 156.376 130.271 156.751 131.229C162.247 145.314 169.363 158.713 177.956 171.154C182.179 177.252 186.751 183.102 191.648 188.675C196.24 193.897 201.226 199.222 207.594 202.276C218.572 207.547 230.052 202.191 234.784 191.334C239.673 180.12 234.857 168.094 226.302 160.176C213.949 148.774 196.616 146.962 180.597 145.46V147.277C201.419 147.625 222.217 145.736 242.636 141.643C249.906 140.183 257.824 138.747 263.84 134.125C269.293 129.944 271.516 123.22 269.129 116.664C264.149 103.027 247.155 95.4598 234.051 92.2913C220.293 89.019 205.922 89.3781 192.345 93.3333C177.035 97.7499 163.228 106.626 153.456 119.275C152.813 120.105 154.158 121.045 154.873 120.366C167.19 108.691 178.283 94.642 182.906 78.0419C186.856 63.8592 185.129 48.5616 176.908 36.1722C169.189 24.54 156.176 17.2821 142.042 19.451C127.32 21.7108 114.664 33.0218 108.932 46.5078C100.863 65.4828 105.297 87.2991 113.682 105.347L115.239 104.432C108.121 90.6798 97.9545 76.6545 83.3235 70.2932C69.5587 64.3075 54.243 67.6396 43.8044 78.2842C33.3657 88.9289 29.8155 104.578 35.2742 118.621C40.648 132.459 53.1525 143.279 67.7533 146.193C85.1955 149.683 103.595 142.758 115.615 129.914L114.343 128.642C95.513 149.58 73.2968 176.915 86.4738 206.614C91.5508 218.064 102.086 226.715 115.021 226.503C128.301 226.291 140.66 217.416 146.949 206.038C155.994 189.68 153.195 169.403 146.761 152.676C146.698 152.444 146.545 152.247 146.336 152.129C146.128 152.01 145.881 151.979 145.649 152.042C145.418 152.106 145.221 152.259 145.103 152.467C144.984 152.676 144.953 152.923 145.016 153.154C147.354 167.457 153.891 180.743 163.797 191.322C173.564 201.791 188.031 211.424 202.765 211.824C216.572 212.199 229.713 200.767 224.272 186.318C221.704 179.496 216.53 173.644 211.55 168.458C206.2 162.912 200.262 157.965 193.841 153.705C179.617 144.263 163.338 138.366 146.367 136.506V138.323C167.941 139.903 189.595 140.085 211.192 138.868C221.492 138.263 231.791 137.493 242.005 136.136C248.803 135.233 256.303 133.652 261.495 128.836C266.948 123.801 267.699 116.18 264.906 109.558C261.659 101.882 254.522 97.1017 247.337 93.509C230.573 85.1424 211.653 77.1876 192.563 77.9752C176.048 78.6477 158.727 87.0629 151.971 102.851C151.866 103.057 151.843 103.295 151.908 103.517C151.972 103.738 152.12 103.927 152.319 104.043C152.519 104.16 152.755 104.195 152.98 104.143C153.205 104.09 153.401 103.953 153.528 103.76C164.028 89.9164 175.339 75.0975 178.441 57.5524C180.809 44.2238 178.198 28.9566 168.341 19.1117C157.969 8.75182 141.933 7.79457 128.931 13.3804C114.53 19.5782 105.412 33.4762 101.311 48.1739C95.5918 68.6574 99.3722 90.1163 103.038 110.576L104.776 110.097C100.693 92.9335 89.9453 76.497 73.321 69.3299C57.5691 62.5445 37.2068 64.7194 25.9624 78.5871C16.1841 90.6313 14.7846 108.522 25.2899 120.566C35.6679 132.459 53.1889 135.015 68.1047 135.282C90.1513 135.676 114.221 133.361 133.669 122.22C134.705 121.614 133.796 120.215 132.76 120.663C106.467 131.98 85.559 159.576 85.6499 188.832C85.6923 202.397 92.0718 215.295 105.643 219.512C117.759 223.268 131.633 219.748 140.933 211.333C153.431 200.028 158.121 182.61 158.702 166.295C158.745 165.132 156.939 165.132 156.885 166.295C156.382 180.369 152.844 195.212 143.471 206.123C135.232 215.719 122.509 220.924 109.884 218.688C95.2767 216.101 87.637 203.542 87.4674 189.317C87.2917 175.722 92.3141 162.054 99.6933 150.797C107.993 138.163 119.804 128.23 133.675 122.22L132.766 120.663C115.96 130.29 96.4157 132.568 77.3922 133.343C63.0096 133.949 46.9669 133.343 34.2927 125.703C20.3583 117.258 16.0387 100.349 23.3876 85.9057C31.4937 69.9115 50.3778 64.3741 67.0081 68.9906C86.1467 74.3039 98.6634 91.9581 103.092 110.576C103.359 111.715 105.031 111.218 104.831 110.097C101.687 92.5276 98.3786 74.3523 101.359 56.4739C103.783 41.9337 110.598 26.9513 123.224 18.518C135.038 10.6421 151.911 8.73365 163.816 17.4941C175.327 25.9759 178.962 41.7641 177.035 55.3471C174.478 73.4193 162.737 88.6986 152.032 102.821L153.589 103.73C159.472 89.9588 173.582 82.0344 188.001 80.1442C205.976 77.7814 223.824 84.6516 239.885 91.9399C247.519 95.3993 256.043 99.0585 261.041 106.141C265.821 112.92 266.494 122.335 259.708 128.042C254.116 132.749 246.143 133.858 239.14 134.658C229.673 135.744 220.181 136.552 210.665 137.081C189.254 138.262 167.79 138.07 146.404 136.506C145.234 136.421 145.271 138.184 146.404 138.323C174.048 141.352 200.929 155.893 217.663 178.309C222.146 184.325 226.042 192.188 222.388 199.574C218.977 206.462 211.265 209.982 203.856 210.031C189.964 210.134 176.138 201.209 166.669 191.667C156.137 181.068 149.188 167.437 146.797 152.688L145.053 153.166C150.602 167.579 153.353 183.943 148.185 198.883C143.786 211.606 132.518 222.275 118.989 224.383C106.158 226.376 94.8163 219.039 89.079 207.831C83.3416 196.623 83.1053 183.507 87.1281 171.735C92.6595 155.541 104.425 142.431 115.669 129.932C116.445 129.072 115.191 127.806 114.397 128.66C104.195 139.565 89.3637 146.09 74.3388 145.236C67.1831 144.779 60.2551 142.54 54.1848 138.724C48.1146 134.907 43.0947 129.634 39.5817 123.383C32.2207 110.351 33.0265 94.6117 42.3383 82.7917C51.2138 71.517 65.6389 66.2098 79.4763 70.7415C95.4281 75.9699 106.37 91.0978 113.761 105.377C114.3 106.42 115.797 105.505 115.318 104.463C108.042 88.8804 103.94 70.8687 108.351 53.9355C112.137 39.3953 123.267 26.4909 137.928 22.2197C151.862 18.1605 165.797 23.9342 174.224 35.4391C182.5 46.7502 185.002 61.2116 181.906 74.7704C177.907 92.2671 166.403 106.989 153.625 119.106L155.037 120.196C171.34 99.0949 199.385 89.153 225.514 92.5336C238.843 94.2542 253.856 99.6462 262.943 109.988C268.523 116.343 270.874 125.594 263.792 131.877C258.527 136.548 251.142 138.044 244.459 139.444C223.465 143.829 202.048 145.861 180.603 145.502C179.428 145.502 179.47 147.199 180.603 147.32C194.023 148.58 208.333 149.895 219.886 157.498C229.652 163.926 237.619 175.516 234.251 187.62C232.754 193.006 229.253 198.059 224.291 200.779C218.687 203.851 212.24 202.942 206.83 199.883C201.087 196.635 196.531 191.589 192.29 186.663C187.753 181.448 183.505 175.987 179.567 170.306C171.052 158 163.995 144.746 158.539 130.811L156.891 131.507C164.3 146.532 170.643 163.799 168.462 180.829C166.421 196.799 155.582 209.606 139.927 213.66C125.23 217.47 109.726 212.557 100.772 200.101C92.2899 188.281 90.3209 171.711 97.8818 158.904C106.364 144.6 124.496 136.954 140.594 141.152L140.382 139.505C123.282 147.904 104.507 152.334 85.456 152.463C69.1346 152.554 47.8938 150.731 40.0179 133.949C33.39 119.942 37.7642 102.524 45.6401 90.0012C53.9159 76.8181 67.9775 65.6161 84.1777 65.6222C101.468 65.6222 119.359 82.5191 114.645 100.506H116.384C111.768 84.3608 107 67.0337 110.647 50.2216C113.367 37.6504 121.909 25.1095 134.341 20.5718C147.67 15.725 161.083 22.4317 169.662 32.731C178.489 43.3211 182.554 57.3767 182.524 71.0263C182.488 86.7478 177.023 102.306 166.772 114.289L168.19 115.386C185.983 92.364 220.583 84.0943 246.634 97.4591C260.568 104.62 273.291 120.481 265.452 136.724C261.689 144.509 253.813 147.665 245.628 148.38C236.571 149.168 227.247 148.38 218.184 147.962C195.667 146.908 173.238 144.771 150.899 141.552C150.111 141.437 149.263 142.4 150.021 143.061C160.399 152.076 173.885 155.178 186.65 159.303C199.936 163.581 213.652 170.724 219.038 184.549C223.842 196.878 216.548 209.043 203.656 211.103C191.454 213.054 179.313 207.504 171.164 198.616C165.755 192.651 161.787 185.522 159.566 177.781C157.346 170.04 156.932 161.892 158.357 153.966H156.618C161.186 178.03 143.108 204.808 117.535 204.857C111.697 204.827 105.93 203.578 100.602 201.191C95.2744 198.804 90.5035 195.332 86.595 190.995C78.4404 181.786 76.0957 169.3 79.858 157.674C83.9293 145.048 94.4406 134.561 107.775 132.459L107.085 130.811C92.9382 140.374 76.0058 144.945 58.9686 143.8C50.9109 143.243 41.1205 141.692 37.3037 133.537C33.9595 126.382 35.1651 117.107 36.9705 109.691C40.3511 95.7567 48.7056 82.7069 60.774 74.7946C73.0302 66.7611 87.9521 65.3374 101.275 71.5897C115.07 78.0601 125.86 91.7218 124.708 107.492L126.478 107.25C120.462 90.607 113.918 72.7953 116.093 54.7837C117.82 40.4313 125.702 25.3519 139.721 19.7478C152.82 14.5194 167.275 19.8629 177.041 29.2111C188.152 39.8557 192.575 54.6564 190.37 69.76C187.716 87.8747 176.938 103.972 163.967 116.44L165.239 117.718C176.708 105.824 192.237 98.6855 208.733 97.7257C224.569 96.8775 240.436 102.3 252.699 112.266C258.49 116.985 263.858 122.795 267.239 129.502C270.444 135.876 272.491 144.327 268.765 150.931C264.688 158.158 255.994 159.152 248.512 158.504C239.643 157.728 230.791 155.523 222.049 153.857C200.61 149.774 179.204 145.533 157.83 141.134L157.345 142.873C170.637 145.492 183.214 150.922 194.235 158.801C204.31 166.034 216.718 177.055 217.015 190.504C217.299 203.324 204.94 208.74 193.841 207.553C182.33 206.341 172.509 198.962 165.936 189.717C158.012 178.563 154.601 164.405 157.169 150.943H155.431C158.308 167.185 158.242 184.87 150.796 199.974C144.507 212.696 132.53 222.39 118.335 224.643C104.14 226.897 90.8359 219.894 84.7472 206.898C79.0038 194.654 80.0216 179.932 87.0433 168.458C95.9916 153.827 112.325 145.224 128.798 142.134L127.919 140.625C116.487 152.978 99.6509 160.012 82.7842 158.994C65.9176 157.977 50.717 147.95 42.5564 133.161C34.4563 118.494 34.7652 100.925 44.277 87.0023C53.4009 73.6738 69.9465 64.9436 86.2073 68.5423C103.952 72.4681 118.456 89.2015 117.711 107.68L119.068 106.904C99.7842 93.2 96.9609 61.666 115.148 45.8536C124.03 38.1533 136.516 34.9908 148.027 36.6629C153.856 37.4922 159.41 39.6707 164.248 43.0248C169.086 46.3789 173.075 50.8161 175.896 55.9832C187.74 77.3512 181.682 107.898 167.59 126.806C163.41 132.41 157.8 137.208 150.857 138.808C144.556 140.256 137.171 139.159 132.584 134.276C124.587 125.758 130.403 109.988 141.46 107.528C155.049 104.499 167.002 119.166 162.858 131.901C158.327 145.836 142.054 151.1 129.701 144.079C116.942 136.809 113.076 121.263 118.317 108.031C120.837 101.658 125.29 95.9142 131.645 92.9819C138.625 89.7831 145.695 91.6976 148.948 98.9131C150.905 103.269 151.838 108.213 152.904 112.847C153.837 116.907 154.679 120.99 155.461 125.079C157.279 134.555 158.775 144.085 160.126 153.639C163.325 176.279 165.675 199.035 167.675 221.814C171.455 264.829 174.115 308.007 175.151 351.185C175.24 355.014 175.31 358.851 175.363 362.696L177.132 362.46C172.794 352.022 170.468 340.729 168.481 329.648C165.797 314.732 163.985 299.659 162.477 284.585C159.308 252.9 157.569 221.081 156.109 189.28C155.503 176.109 155.001 162.932 154.292 149.767L152.523 150.004C155.643 163.938 157.115 178.254 158.205 192.479C159.575 210.4 160.156 228.388 160.344 246.357C160.744 284.083 159.526 321.881 156.636 359.498C155.37 375.995 153.837 392.516 151.25 408.868H152.989C149.912 394.933 148.361 380.605 147.131 366.374C145.598 348.562 144.762 330.696 144.229 312.83C143.114 275.377 143.338 237.875 144.483 200.428C144.98 184.149 145.64 167.864 146.737 151.615H144.919C144.986 178.684 143.738 205.771 142.72 232.798C141.508 265.386 140.121 297.968 139.121 330.563C138.709 344.006 138.31 357.462 138.34 370.918C138.34 371.159 138.436 371.39 138.606 371.56C138.777 371.731 139.008 371.827 139.249 371.827C139.49 371.827 139.721 371.731 139.891 371.56C140.062 371.39 140.157 371.159 140.157 370.918H140.151Z" fill="#31CFF4"/>
</g>
<defs>
<clipPath id="clip0_5_120198">
<rect width="300" height="300" fill="white"/>
</clipPath>
</defs>
</svg>
