<svg width="300" height="300" viewBox="0 0 300 300" fill="none" xmlns="http://www.w3.org/2000/svg">
<rect width="300" height="300" fill="#FC565D"/>
<ellipse cx="156.648" cy="298.145" rx="1.83824" ry="1.83824" fill="#050505"/>
<path d="M159.731 289.772H160.442V293.582H161.569V288.645H159.875L159.731 289.772Z" fill="white"/>
<ellipse cx="156.648" cy="257.705" rx="1.83824" ry="1.83824" fill="#050505"/>
<path d="M161.621 251.502C161.629 251.494 161.652 251.494 161.667 251.494C162.786 251.282 163.368 250.625 163.368 249.733C163.368 249.014 162.733 248.069 161.667 248.069C160.835 248.069 160.253 248.53 160.117 248.636C160.026 248.712 159.731 248.939 159.731 248.939L160.412 249.876C160.412 249.876 160.714 249.634 160.843 249.536C160.896 249.498 161.191 249.226 161.667 249.226C162.067 249.226 162.211 249.46 162.234 249.687C162.256 249.861 162.226 250.194 161.493 250.33C161.485 250.33 161.463 250.337 161.448 250.337C160.314 250.549 159.754 251.275 159.754 252.159C159.754 252.439 159.754 253.142 159.754 253.142H163.368V252.016H160.888C160.888 251.895 160.873 251.645 161.621 251.502Z" fill="white"/>
<ellipse cx="157.566" cy="217.262" rx="1.83824" ry="1.83824" fill="#050505"/>
<path d="M162.585 207.529C161.753 207.529 161.171 208.005 161.035 208.111C160.944 208.186 160.649 208.413 160.649 208.413L161.33 209.373C161.33 209.373 161.511 209.199 161.685 209.078C161.859 208.95 162.108 208.693 162.585 208.693C162.985 208.693 163.136 208.874 163.152 209.033C163.167 209.177 163.167 209.449 162.486 209.532C162.35 209.547 161.927 209.547 161.927 209.547V210.734C161.927 210.734 162.35 210.734 162.486 210.749C163.167 210.832 163.182 211.112 163.152 211.248C163.121 211.399 162.985 211.581 162.585 211.581C162.108 211.581 161.919 211.384 161.753 211.271C161.64 211.195 161.307 210.938 161.307 210.938L160.649 211.868C160.649 211.868 160.944 212.095 161.035 212.17C161.171 212.276 161.753 212.753 162.585 212.753C163.65 212.753 164.286 211.989 164.286 211.248C164.286 210.795 164.134 210.424 163.855 210.144C164.134 209.857 164.286 209.487 164.286 209.033C164.286 208.292 163.65 207.529 162.585 207.529Z" fill="white"/>
<ellipse cx="157.566" cy="168.548" rx="1.83824" ry="1.83824" fill="#050505"/>
<path d="M163.129 162.504V163.986H164.263V159.057H163.129V161.378H161.881L162.448 159.057H161.375L160.649 161.378V162.504H163.129Z" fill="white"/>
<ellipse cx="154.809" cy="145.111" rx="1.83824" ry="1.83824" fill="#050505"/>
<path d="M157.892 136.738H158.603V140.549H159.73V135.612H158.036L157.892 136.738ZM162.278 138.908C162.285 138.901 162.308 138.901 162.323 138.901C163.442 138.689 164.024 138.031 164.024 137.139C164.024 136.421 163.389 135.476 162.323 135.476C161.492 135.476 160.909 135.937 160.773 136.043C160.683 136.119 160.388 136.345 160.388 136.345L161.068 137.283C161.068 137.283 161.371 137.041 161.499 136.943C161.552 136.905 161.847 136.633 162.323 136.633C162.724 136.633 162.868 136.867 162.89 137.094C162.913 137.268 162.883 137.6 162.149 137.736C162.142 137.736 162.119 137.744 162.104 137.744C160.97 137.956 160.411 138.681 160.411 139.566C160.411 139.846 160.411 140.549 160.411 140.549H164.024V139.422H161.545C161.545 139.301 161.529 139.052 162.278 138.908Z" fill="white"/>
<ellipse cx="166.759" cy="121.674" rx="1.83824" ry="1.83824" fill="#050505"/>
<path d="M171.769 113.913C171.754 113.913 171.732 113.913 171.724 113.906C170.976 113.762 170.976 113.528 170.976 113.399C170.976 113.316 170.976 113.218 170.976 113.218H173.002V112.091H169.849C169.849 112.091 169.849 113.187 169.849 113.581C169.849 114.314 170.409 114.715 171.422 114.972C171.686 115.04 172.412 115.1 172.367 115.599C172.351 115.826 172.155 116.06 171.754 116.06C171.278 116.06 170.93 115.697 170.877 115.652C170.749 115.554 170.499 115.357 170.499 115.357L169.842 116.272C169.842 116.272 170.114 116.521 170.212 116.597C170.341 116.703 170.923 117.164 171.754 117.164C172.82 117.164 173.402 116.416 173.455 115.69C173.523 114.669 172.888 114.125 171.769 113.913Z" fill="white"/>
<ellipse cx="146.077" cy="88.1253" rx="1.83824" ry="1.83824" fill="#050505"/>
<path d="M150.96 80.259C150.718 80.259 150.491 80.3044 150.294 80.3724C150.294 80.3724 150.294 80.2515 150.294 79.9718C150.294 79.8054 150.461 79.5862 150.861 79.5862C151.338 79.5862 151.685 79.8962 151.685 79.8962L152.411 78.9663C152.283 78.8604 151.693 78.3842 150.861 78.3842C149.795 78.3842 149.16 79.1553 149.16 79.8962C149.16 80.3422 149.16 81.5896 149.16 81.8315C149.16 81.6879 149.16 81.257 149.16 81.8769C149.168 82.5422 149.554 83.2377 150.332 83.5174C150.688 83.6459 151.27 83.6384 151.625 83.5098C152.381 83.2452 152.751 82.6178 152.751 81.8391C152.751 81.0604 152.018 80.259 150.96 80.259ZM150.96 82.6102C150.589 82.6102 150.287 82.2776 150.287 81.9449C150.287 81.6198 150.589 81.2796 150.96 81.2796C151.33 81.2796 151.625 81.6198 151.625 81.9449C151.625 82.2776 151.33 82.6102 150.96 82.6102Z" fill="white"/>
<ellipse cx="118.504" cy="109.265" rx="1.83824" ry="1.83824" fill="#050505"/>
<path d="M121.587 100.779H123.689L121.708 104.227L122.721 104.809L125.087 100.779V99.6451H121.587V100.779Z" fill="white"/>
<ellipse cx="135.967" cy="128.567" rx="1.83824" ry="1.83824" fill="#050505"/>
<path d="M140.85 118.826C140.608 118.826 140.381 118.864 140.184 118.932C140.184 118.932 139.05 119.325 139.05 120.323C139.058 120.777 139.217 121.17 139.519 121.457C139.27 121.676 139.05 122.001 139.05 122.44C139.065 123.166 139.451 123.748 140.237 123.975C140.57 124.073 141.129 124.073 141.462 123.975C142.256 123.74 142.641 123.151 142.641 122.41C142.641 122.069 142.475 121.722 142.188 121.45C142.49 121.155 142.641 120.754 142.641 120.293C142.641 119.575 141.908 118.826 140.85 118.826ZM140.85 123.135C140.479 123.135 140.184 122.825 140.184 122.523C140.184 122.228 140.479 121.918 140.85 121.918C141.22 121.918 141.522 122.228 141.522 122.523C141.522 122.825 141.22 123.135 140.85 123.135ZM140.85 121.019C140.479 121.019 140.184 120.701 140.184 120.406C140.184 120.111 140.479 119.794 140.85 119.794C141.22 119.794 141.522 120.111 141.522 120.406C141.522 120.701 141.22 121.019 140.85 121.019Z" fill="white"/>
<ellipse cx="188.816" cy="189.229" rx="1.83824" ry="1.83824" fill="#050505"/>
<path d="M191.899 180.856H192.61V184.667H193.736V179.73H192.043L191.899 180.856ZM194.395 180.856H195.105V184.667H196.232V179.73H194.538L194.395 180.856Z" fill="white"/>
<ellipse cx="221.905" cy="172.684" rx="1.83824" ry="1.83824" fill="#050505"/>
<path d="M224.988 164.311H225.699V168.122H226.825V163.185H225.132L224.988 164.311ZM229.759 162.943C228.504 162.943 227.484 164.115 227.484 165.559C227.484 167.003 228.504 168.175 229.759 168.175C231.014 168.175 232.027 167.003 232.027 165.559C232.027 164.115 231.014 162.943 229.759 162.943ZM229.759 167.025C229.17 167.025 228.693 166.33 228.693 165.559C228.693 164.788 229.17 164.092 229.759 164.092C230.349 164.092 230.825 164.788 230.825 165.559C230.825 166.33 230.349 167.025 229.759 167.025Z" fill="white"/>
<ellipse cx="199.387" cy="135.46" rx="1.83824" ry="1.83824" fill="#050505"/>
<path d="M204.27 129.068C204.512 129.068 204.731 129.03 204.935 128.955C204.935 128.955 204.935 129.076 204.935 129.356C204.935 129.522 204.761 129.741 204.368 129.741C203.892 129.741 203.536 129.431 203.536 129.431L202.818 130.361C202.947 130.474 203.529 130.943 204.368 130.943C205.426 130.943 206.061 130.172 206.061 129.431C206.061 128.985 206.061 127.738 206.061 127.496C206.061 127.639 206.061 128.078 206.061 127.45C206.061 126.785 205.668 126.09 204.897 125.81C204.542 125.689 203.952 125.697 203.597 125.817C202.841 126.082 202.47 126.71 202.47 127.488C202.47 128.267 203.204 129.068 204.27 129.068ZM204.27 126.717C204.64 126.717 204.935 127.05 204.935 127.382C204.935 127.707 204.64 128.048 204.27 128.048C203.899 128.048 203.597 127.707 203.597 127.382C203.597 127.05 203.899 126.717 204.27 126.717Z" fill="white"/>
<ellipse cx="247.64" cy="126.269" rx="1.83824" ry="1.83824" fill="#050505"/>
<path d="M252.614 120.066C252.621 120.058 252.644 120.058 252.659 120.058C253.778 119.846 254.36 119.189 254.36 118.297C254.36 117.578 253.725 116.633 252.659 116.633C251.827 116.633 251.245 117.095 251.109 117.2C251.018 117.276 250.724 117.503 250.724 117.503L251.404 118.44C251.404 118.44 251.706 118.198 251.835 118.1C251.888 118.062 252.183 117.79 252.659 117.79C253.06 117.79 253.203 118.024 253.226 118.251C253.249 118.425 253.218 118.758 252.485 118.894C252.477 118.894 252.455 118.901 252.44 118.901C251.306 119.113 250.746 119.839 250.746 120.723C250.746 121.003 250.746 121.706 250.746 121.706H254.36V120.58H251.88C251.88 120.459 251.865 120.209 252.614 120.066ZM257.234 120.224V121.706H258.368V116.777H257.234V119.098H255.987L256.554 116.777H255.48L254.755 119.098V120.224H257.234Z" fill="white"/>
<ellipse cx="226.041" cy="75.7177" rx="1.83824" ry="1.83824" fill="#050505"/>
<path d="M231.014 69.5147C231.021 69.5071 231.044 69.5071 231.059 69.5071C232.178 69.2954 232.76 68.6377 232.76 67.7456C232.76 67.0274 232.125 66.0824 231.059 66.0824C230.228 66.0824 229.646 66.5436 229.509 66.6494C229.419 66.725 229.124 66.9518 229.124 66.9518L229.804 67.8893C229.804 67.8893 230.107 67.6473 230.235 67.5491C230.288 67.5113 230.583 67.2391 231.059 67.2391C231.46 67.2391 231.604 67.4735 231.626 67.7003C231.649 67.8741 231.619 68.2068 230.885 68.3429C230.878 68.3429 230.855 68.3504 230.84 68.3504C229.706 68.5621 229.147 69.2879 229.147 70.1724C229.147 70.4521 229.147 71.1552 229.147 71.1552H232.76V70.0287H230.281C230.281 69.9078 230.265 69.6583 231.014 69.5147ZM235.105 65.9841C234.273 65.9841 233.691 66.4604 233.555 66.5663C233.465 66.6419 233.17 66.8687 233.17 66.8687L233.85 67.8288C233.85 67.8288 234.032 67.6549 234.205 67.5339C234.379 67.4054 234.629 67.1484 235.105 67.1484C235.506 67.1484 235.657 67.3298 235.672 67.4886C235.687 67.6322 235.687 67.9044 235.007 67.9875C234.871 68.0027 234.447 68.0027 234.447 68.0027V69.1896C234.447 69.1896 234.871 69.1896 235.007 69.2047C235.687 69.2879 235.702 69.5676 235.672 69.7037C235.642 69.8549 235.506 70.0363 235.105 70.0363C234.629 70.0363 234.44 69.8397 234.273 69.7263C234.16 69.6507 233.827 69.3937 233.827 69.3937L233.17 70.3236C233.17 70.3236 233.465 70.5504 233.555 70.626C233.691 70.7318 234.273 71.2081 235.105 71.2081C236.171 71.2081 236.806 70.4445 236.806 69.7037C236.806 69.2501 236.655 68.8796 236.375 68.5999C236.655 68.3126 236.806 67.9422 236.806 67.4886C236.806 66.7477 236.171 65.9841 235.105 65.9841Z" fill="white"/>
<ellipse cx="171.354" cy="82.6107" rx="1.83824" ry="1.83824" fill="#050505"/>
<path d="M176.327 76.4076C176.334 76.4001 176.357 76.4001 176.372 76.4001C177.491 76.1884 178.073 75.5307 178.073 74.6386C178.073 73.9204 177.438 72.9754 176.372 72.9754C175.54 72.9754 174.958 73.4365 174.822 73.5424C174.731 73.618 174.437 73.8448 174.437 73.8448L175.117 74.7822C175.117 74.7822 175.419 74.5403 175.548 74.442C175.601 74.4042 175.896 74.1321 176.372 74.1321C176.773 74.1321 176.916 74.3664 176.939 74.5932C176.962 74.7671 176.931 75.0997 176.198 75.2358C176.191 75.2358 176.168 75.2434 176.153 75.2434C175.019 75.4551 174.459 76.1808 174.459 77.0653C174.459 77.3451 174.459 78.0481 174.459 78.0481H178.073V76.9217H175.593C175.593 76.8007 175.578 76.5513 176.327 76.4076ZM180.631 76.4076C180.638 76.4001 180.661 76.4001 180.676 76.4001C181.795 76.1884 182.377 75.5307 182.377 74.6386C182.377 73.9204 181.742 72.9754 180.676 72.9754C179.845 72.9754 179.262 73.4365 179.126 73.5424C179.036 73.618 178.741 73.8448 178.741 73.8448L179.421 74.7822C179.421 74.7822 179.724 74.5403 179.852 74.442C179.905 74.4042 180.2 74.1321 180.676 74.1321C181.077 74.1321 181.221 74.3664 181.243 74.5932C181.266 74.7671 181.236 75.0997 180.502 75.2358C180.495 75.2358 180.472 75.2434 180.457 75.2434C179.323 75.4551 178.764 76.1808 178.764 77.0653C178.764 77.3451 178.764 78.0481 178.764 78.0481H182.377V76.9217H179.898C179.898 76.8007 179.882 76.5513 180.631 76.4076Z" fill="white"/>
<ellipse cx="179.166" cy="32.9781" rx="1.83824" ry="1.83824" fill="#050505"/>
<path d="M184.139 26.775C184.146 26.7675 184.169 26.7675 184.184 26.7675C185.303 26.5558 185.885 25.8981 185.885 25.006C185.885 24.2878 185.25 23.3428 184.184 23.3428C183.353 23.3428 182.77 23.8039 182.634 23.9098C182.544 23.9854 182.249 24.2122 182.249 24.2122L182.929 25.1496C182.929 25.1496 183.232 24.9077 183.36 24.8094C183.413 24.7716 183.708 24.4995 184.184 24.4995C184.585 24.4995 184.728 24.7338 184.751 24.9606C184.774 25.1345 184.744 25.4671 184.01 25.6032C184.003 25.6032 183.98 25.6108 183.965 25.6108C182.831 25.8225 182.271 26.5482 182.271 27.4327C182.271 27.7125 182.271 28.4155 182.271 28.4155H185.885V27.2891H183.405C183.405 27.1681 183.39 26.9187 184.139 26.775ZM186.265 24.6053H186.976V28.4155H188.102V23.4789H186.409L186.265 24.6053Z" fill="white"/>
<ellipse cx="129.993" cy="20.5701" rx="1.83824" ry="1.83824" fill="#050505"/>
<path d="M134.966 14.3671C134.973 14.3595 134.996 14.3595 135.011 14.3595C136.13 14.1478 136.712 13.4901 136.712 12.598C136.712 11.8798 136.077 10.9348 135.011 10.9348C134.179 10.9348 133.597 11.396 133.461 11.5018C133.371 11.5774 133.076 11.8042 133.076 11.8042L133.756 12.7417C133.756 12.7417 134.058 12.4998 134.187 12.4015C134.24 12.3637 134.535 12.0915 135.011 12.0915C135.412 12.0915 135.555 12.3259 135.578 12.5527C135.601 12.7266 135.57 13.0592 134.837 13.1953C134.83 13.1953 134.807 13.2028 134.792 13.2028C133.658 13.4145 133.098 14.1403 133.098 15.0248C133.098 15.3045 133.098 16.0076 133.098 16.0076H136.712V14.8812H134.232C134.232 14.7602 134.217 14.5107 134.966 14.3671ZM139.404 10.829C138.149 10.829 137.129 12.0008 137.129 13.4448C137.129 14.8887 138.149 16.0605 139.404 16.0605C140.659 16.0605 141.672 14.8887 141.672 13.4448C141.672 12.0008 140.659 10.829 139.404 10.829ZM139.404 14.9114C138.815 14.9114 138.338 14.2159 138.338 13.4448C138.338 12.6736 138.815 11.9781 139.404 11.9781C139.994 11.9781 140.47 12.6736 140.47 13.4448C140.47 14.2159 139.994 14.9114 139.404 14.9114Z" fill="white"/>
<ellipse cx="108.395" cy="70.2027" rx="1.83824" ry="1.83824" fill="#050505"/>
<path d="M111.478 61.8299H112.188V65.6402H113.315V60.7035H111.621L111.478 61.8299ZM115.772 63.8107C116.014 63.8107 116.233 63.7729 116.438 63.6973C116.438 63.6973 116.438 63.8182 116.438 64.0979C116.438 64.2643 116.264 64.4835 115.871 64.4835C115.394 64.4835 115.039 64.1735 115.039 64.1735L114.321 65.1034C114.449 65.2168 115.031 65.6855 115.871 65.6855C116.929 65.6855 117.564 64.9144 117.564 64.1735C117.564 63.7275 117.564 62.4801 117.564 62.2382C117.564 62.3818 117.564 62.8203 117.564 62.1928C117.564 61.5275 117.171 60.832 116.4 60.5523C116.044 60.4313 115.455 60.4389 115.099 60.5599C114.343 60.8245 113.973 61.4519 113.973 62.2306C113.973 63.0093 114.706 63.8107 115.772 63.8107ZM115.772 61.4595C116.143 61.4595 116.438 61.7921 116.438 62.1248C116.438 62.4499 116.143 62.7901 115.772 62.7901C115.402 62.7901 115.099 62.4499 115.099 62.1248C115.099 61.7921 115.402 61.4595 115.772 61.4595Z" fill="white"/>
<ellipse cx="63.8159" cy="70.2027" rx="1.83824" ry="1.83824" fill="#050505"/>
<path d="M66.8989 61.8299H67.6096V65.6402H68.736V60.7035H67.0426L66.8989 61.8299ZM71.1936 60.4616C70.9517 60.4616 70.7249 60.4994 70.5283 60.5674C70.5283 60.5674 69.3943 60.9605 69.3943 61.9585C69.4019 62.4121 69.5606 62.8052 69.863 63.0925C69.6136 63.3117 69.3943 63.6368 69.3943 64.0753C69.4094 64.801 69.795 65.3831 70.5812 65.6099C70.9139 65.7082 71.4733 65.7082 71.806 65.6099C72.5998 65.3756 72.9853 64.7859 72.9853 64.045C72.9853 63.7048 72.819 63.3571 72.5317 63.0849C72.8341 62.7901 72.9853 62.3894 72.9853 61.9282C72.9853 61.21 72.252 60.4616 71.1936 60.4616ZM71.1936 64.7708C70.8232 64.7708 70.5283 64.4608 70.5283 64.1584C70.5283 63.8636 70.8232 63.5536 71.1936 63.5536C71.564 63.5536 71.8664 63.8636 71.8664 64.1584C71.8664 64.4608 71.564 64.7708 71.1936 64.7708ZM71.1936 62.654C70.8232 62.654 70.5283 62.3365 70.5283 62.0416C70.5283 61.7468 70.8232 61.4293 71.1936 61.4293C71.564 61.4293 71.8664 61.7468 71.8664 62.0416C71.8664 62.3365 71.564 62.654 71.1936 62.654Z" fill="white"/>
<ellipse cx="40.8384" cy="95.019" rx="1.83824" ry="1.83824" fill="#050505"/>
<path d="M43.9214 86.6462H44.632V90.4565H45.7585V85.5198H44.065L43.9214 86.6462ZM46.4168 86.5328H48.5185L46.5377 89.9802L47.5508 90.5623L49.9171 86.5328V85.3988H46.4168V86.5328Z" fill="white"/>
<ellipse cx="74.3863" cy="118.457" rx="1.83824" ry="1.83824" fill="#050505"/>
<path d="M77.4694 110.084H78.18V113.894H79.3064V108.957H77.613L77.4694 110.084ZM81.764 110.59C81.5221 110.59 81.2953 110.636 81.0988 110.704C81.0988 110.704 81.0988 110.583 81.0988 110.303C81.0988 110.137 81.2651 109.917 81.6658 109.917C82.142 109.917 82.4898 110.227 82.4898 110.227L83.2156 109.298C83.087 109.192 82.4974 108.715 81.6658 108.715C80.5998 108.715 79.9648 109.487 79.9648 110.227C79.9648 110.673 79.9648 111.921 79.9648 112.163C79.9648 112.019 79.9648 111.588 79.9648 112.208C79.9723 112.873 80.3579 113.569 81.1366 113.849C81.4919 113.977 82.074 113.97 82.4293 113.841C83.1853 113.577 83.5558 112.949 83.5558 112.17C83.5558 111.392 82.8224 110.59 81.764 110.59ZM81.764 112.941C81.3936 112.941 81.0912 112.609 81.0912 112.276C81.0912 111.951 81.3936 111.611 81.764 111.611C82.1345 111.611 82.4293 111.951 82.4293 112.276C82.4293 112.609 82.1345 112.941 81.764 112.941Z" fill="white"/>
<ellipse cx="112.071" cy="123.052" rx="1.83824" ry="1.83824" fill="#050505"/>
<path d="M115.154 114.68H115.864V118.49H116.991V113.553H115.297L115.154 114.68ZM119.577 115.292C119.562 115.292 119.539 115.292 119.531 115.284C118.783 115.141 118.783 114.906 118.783 114.778C118.783 114.695 118.783 114.596 118.783 114.596H120.809V113.47H117.657C117.657 113.47 117.657 114.566 117.657 114.959C117.657 115.693 118.216 116.093 119.229 116.35C119.494 116.418 120.219 116.479 120.174 116.978C120.159 117.205 119.962 117.439 119.562 117.439C119.085 117.439 118.738 117.076 118.685 117.031C118.556 116.932 118.307 116.736 118.307 116.736L117.649 117.651C117.649 117.651 117.921 117.9 118.019 117.976C118.148 118.082 118.73 118.543 119.562 118.543C120.628 118.543 121.21 117.794 121.263 117.069C121.331 116.048 120.696 115.504 119.577 115.292Z" fill="white"/>
<ellipse cx="89.0907" cy="153.843" rx="1.83824" ry="1.83824" fill="#050505"/>
<path d="M92.1737 145.47H92.8844V149.28H94.0108V144.344H92.3174L92.1737 145.47ZM97.1488 147.799V149.28H98.2828V144.351H97.1488V146.672H95.9014L96.4684 144.351H95.3949L94.6691 146.672V147.799H97.1488Z" fill="white"/>
<ellipse cx="107.934" cy="186.931" rx="1.83824" ry="1.83824" fill="#050505"/>
<path d="M111.017 178.558H111.727V182.368H112.854V177.432H111.16L111.017 178.558ZM115.447 177.197C114.616 177.197 114.034 177.674 113.898 177.779C113.807 177.855 113.512 178.082 113.512 178.082L114.192 179.042C114.192 179.042 114.374 178.868 114.548 178.747C114.722 178.619 114.971 178.362 115.447 178.362C115.848 178.362 115.999 178.543 116.014 178.702C116.029 178.845 116.029 179.118 115.349 179.201C115.213 179.216 114.79 179.216 114.79 179.216V180.403C114.79 180.403 115.213 180.403 115.349 180.418C116.029 180.501 116.045 180.781 116.014 180.917C115.984 181.068 115.848 181.25 115.447 181.25C114.971 181.25 114.782 181.053 114.616 180.94C114.502 180.864 114.17 180.607 114.17 180.607L113.512 181.537C113.512 181.537 113.807 181.764 113.898 181.839C114.034 181.945 114.616 182.421 115.447 182.421C116.513 182.421 117.148 181.658 117.148 180.917C117.148 180.463 116.997 180.093 116.717 179.813C116.997 179.526 117.148 179.155 117.148 178.702C117.148 177.961 116.513 177.197 115.447 177.197Z" fill="white"/>
<path d="M157.774 299.009L154.329 258.388L160.759 215.93L158.692 167.965L168.108 121.606L147.44 88.558L119.654 108.983L136.188 130.097L199.109 135.376L222.991 171.407L190.842 189.308L155.937 144.785L109.78 185.177L90.2603 153.965L115.061 124.36L76.482 121.606L44.103 96.361L67.0668 69.739L109.78 72.952L131.136 22.6915L180.508 35.0845L172.241 83.7385L227.125 76.624L245.955 124.36" stroke="white" stroke-width="1.89"/>
</svg>
