<svg width="300" height="300" viewBox="0 0 300 300" fill="none" xmlns="http://www.w3.org/2000/svg">
<g clip-path="url(#clip0_5_120236)">
<rect width="300" height="300" fill="#31CFF4"/>
<g filter="url(#filter0_b_5_120236)">
<path d="M195.76 93.9896C195.599 95.6173 189.367 94.6338 186.265 97.8927C185.105 99.1126 183.226 102.3 182.936 103.084C182.841 103.355 182.668 103.593 182.438 103.77C182.203 103.933 181.923 104.022 181.635 104.027C181.502 104.027 181.37 104.009 181.243 103.972C180.591 103.766 180.352 102.43 180.335 102.32C180.012 100.429 180.531 98.8351 180.437 97.7111C180.156 94.4557 174.716 95.0039 170.192 89.7541C169.315 88.7261 168.089 87.0779 166.455 87.0847C165.849 87.0847 165.12 87.3143 163.539 87.3211C162.838 87.3211 162.358 87.2458 162.137 87.2663C160.63 87.3965 159.705 88.1401 156.673 88.356C152.257 88.6713 150.943 87.328 149.257 88.5445C149.257 88.5445 147.269 89.994 145.727 90.6006C144.792 90.9433 144.83 90.7136 144.255 91.0118C143.204 91.5498 141.928 94.4385 141.928 94.4385C140.729 97.108 139.874 97.293 140.158 97.9647C140.645 99.1161 143.064 98.345 144.967 100.243C145.272 100.548 145.997 101.271 145.78 101.957C145.673 102.205 145.497 102.419 145.271 102.574C145.045 102.728 144.779 102.817 144.504 102.831C144.345 102.834 144.187 102.808 144.038 102.752C143.712 102.642 141.988 102.067 141.616 102.457C141.245 102.848 142.17 103.595 142.387 105.442C142.541 106.754 142.191 107.155 142.002 107.279C141.871 107.37 141.721 107.433 141.564 107.464C141.539 107.491 141.508 107.513 141.473 107.527C141.439 107.54 141.401 107.546 141.364 107.542C140.993 107.526 140.638 107.392 140.351 107.162C139.299 106.302 137.095 102.82 135.013 101.628C132.535 100.213 130.187 101.991 128.949 100.401C128.385 99.6781 128.22 98.4753 128.736 97.7556C129.685 96.4363 131.936 97.9236 134.824 96.8064C135.959 96.3678 137.039 94.9525 139.201 92.1186C139.836 91.2859 140.645 90.1311 140.253 89.5794C140.206 89.5192 140.149 89.4671 140.084 89.4252C139.275 88.8324 138.963 87.6433 138.9 87.4548C138.451 86.0841 133.919 84.4941 132.591 83.9698C131.764 83.6271 124.88 80.6732 121.848 75.1596C121.452 74.44 120.446 72.4559 119.56 72.5998C118.897 72.706 118.915 73.8951 117.863 74.3509C117.44 74.5081 116.982 74.5513 116.536 74.476C116.09 74.4006 115.674 74.2094 115.329 73.9225C114.131 72.8568 114.863 70.9584 114.138 70.6705C113.412 70.3827 112.599 72.4182 110.612 72.9836C108.397 73.6073 106.16 71.9556 105.806 71.702C103.43 69.8961 102.887 66.8189 102.701 65.76C102.308 63.536 102.792 62.4566 101.79 61.1921C101.054 60.2772 100.412 60.3628 99.1506 59.5713C98.9753 59.465 95.0533 56.9395 95.0918 53.1872C95.1164 50.4458 97.2159 48.5611 97.5874 48.2218C99.5571 46.4399 100.875 47.1424 101.762 45.9191C103.703 43.2325 98.1797 38.7228 99.7779 34.5456C100.749 32.0201 103.945 30.8036 105.982 30.5295C111.299 29.8167 116.798 34.4668 119.058 39.2437C121.512 44.4284 119.293 47.9443 122.371 50.4252C125.15 52.6663 129.703 52.0015 129.871 51.3573C129.987 50.9221 128.119 50.5623 127.365 48.7872C127.031 47.8977 127.01 46.9244 127.306 46.0218C127.828 44.3598 129.254 43.4278 129.85 43.0508C134.932 39.8297 147.928 39.6858 153.4 34.1721C159.533 28.0039 157.686 13.543 161.948 10.1437C162.2 9.94148 163.35 9.09507 163.185 8.21439C162.996 7.12125 161.016 7.18636 159.624 5.94245C157.28 3.8487 157.262 -1.38397 159.537 -3.18645C161.556 -4.78332 164.475 -2.9877 165.309 -4.21448C166.536 -6.03751 160.336 -10.1394 161.454 -13.8677C162.127 -16.1465 165.46 -18.0312 168.208 -17.2944C170.542 -16.6571 172.095 -14.2652 172.235 -12.3222C172.316 -11.1742 171.916 -10.0571 172.175 -9.96802C172.435 -9.87892 172.817 -11.0509 173.753 -11.8013C175.155 -12.9219 177.433 -12.8294 178.688 -12.3222C183.083 -10.5197 184.965 -0.84938 181.344 3.34155C180.17 4.71225 178.439 5.45583 178.642 6.56953C178.828 7.59756 180.373 7.50161 182.287 8.67013C186.251 11.0894 185.638 15.1467 189.444 16.6271L189.732 16.7264C190.385 16.9433 191.056 17.1084 191.736 17.2199C192.602 17.3673 196.468 18.0252 196.759 19.4507C196.899 20.1361 196.146 20.8489 194.635 22.2744C193.065 23.7513 192.672 23.6451 192.203 24.3305C191.179 25.8451 192.076 27.8566 193.145 31.0709C193.927 33.4285 194.39 35.8684 195.154 38.2465C197.05 44.1166 197.526 59.3793 189.528 68.9366C186.609 72.4216 182.199 77.6885 178.695 79.9296C177.575 80.5657 176.646 81.4794 176.003 82.5785C175.779 82.9829 174.534 84.9498 174.885 87.1053C175.526 91.022 181.092 93.8491 183.864 92.6155C186.318 91.5327 186.731 88.2875 188.599 88.4554C189.574 88.5411 190.702 89.576 190.643 90.1996C190.634 90.4691 190.584 90.7358 190.496 90.9912C190.425 91.1784 190.382 91.3746 190.369 91.5738C190.377 91.6078 190.387 91.641 190.401 91.6731C190.548 92.0158 192.364 91.752 193.524 92.0535C194.575 92.3105 195.83 93.2631 195.76 93.9896Z" fill="#FC565D" fill-opacity="0.8"/>
<path d="M96.1071 156.349C96.2684 157.968 102.5 156.99 105.602 160.23C106.762 161.443 108.641 164.611 108.932 165.392C109.026 165.661 109.199 165.898 109.429 166.073C109.664 166.235 109.944 166.324 110.232 166.328C110.365 166.329 110.497 166.311 110.625 166.274C111.277 166.07 111.515 164.741 111.532 164.632C111.855 162.751 111.336 161.167 111.431 160.049C111.711 156.813 117.151 157.358 121.676 152.138C122.552 151.116 123.779 149.477 125.412 149.484C126.018 149.484 126.747 149.712 128.328 149.719C129.029 149.719 129.509 149.644 129.73 149.665C131.237 149.794 132.163 150.533 135.194 150.748C139.611 151.061 140.925 149.726 142.611 150.935C142.611 150.935 144.598 152.377 146.14 152.98C147.076 153.32 147.038 153.092 147.612 153.388C148.664 153.923 149.94 156.796 149.94 156.796C151.138 159.45 151.994 159.634 151.71 160.301C151.222 161.446 148.804 160.68 146.901 162.567C146.596 162.87 145.87 163.589 146.088 164.271C146.194 164.518 146.371 164.73 146.597 164.884C146.822 165.038 147.088 165.126 147.364 165.139C147.523 165.143 147.681 165.116 147.83 165.061C148.156 164.952 149.88 164.38 150.252 164.768C150.623 165.156 149.698 165.899 149.481 167.736C149.326 169.041 149.677 169.439 149.866 169.562C149.997 169.653 150.146 169.716 150.304 169.746C150.329 169.773 150.359 169.795 150.394 169.809C150.429 169.822 150.467 169.828 150.504 169.824C150.875 169.807 151.23 169.675 151.517 169.446C152.568 168.591 154.773 165.129 156.855 163.944C159.333 162.536 161.681 164.305 162.918 162.724C163.483 162.005 163.648 160.809 163.132 160.094C162.182 158.782 159.932 160.261 157.044 159.15C155.909 158.714 154.829 157.307 152.666 154.489C152.032 153.661 151.222 152.513 151.615 151.964C151.662 151.904 151.719 151.853 151.783 151.811C152.593 151.222 152.905 150.039 152.968 149.852C153.417 148.489 157.948 146.908 159.277 146.387C160.104 146.046 166.988 143.109 170.019 137.627C170.416 136.912 171.421 134.939 172.308 135.082C172.971 135.188 172.953 136.37 174.005 136.823C174.428 136.98 174.886 137.023 175.332 136.948C175.778 136.873 176.194 136.683 176.539 136.397C177.737 135.338 177.005 133.45 177.73 133.164C178.456 132.878 179.269 134.902 181.256 135.464C183.472 136.084 185.708 134.442 186.062 134.19C188.438 132.394 188.981 129.335 189.167 128.282C189.56 126.071 189.076 124.997 190.078 123.74C190.814 122.83 191.456 122.916 192.718 122.129C192.893 122.023 196.815 119.512 196.776 115.781C196.752 113.056 194.652 111.182 194.281 110.844C192.311 109.073 190.993 109.771 190.106 108.555C188.165 105.884 193.688 101.4 192.09 97.2468C191.119 94.7358 187.923 93.5263 185.886 93.2537C180.569 92.545 175.07 97.1684 172.809 101.918C170.356 107.073 172.575 110.568 169.497 113.035C166.718 115.263 162.165 114.602 161.997 113.962C161.881 113.529 163.749 113.171 164.503 111.407C164.837 110.522 164.858 109.554 164.562 108.657C164.04 107.005 162.614 106.078 162.018 105.703C156.935 102.5 143.939 102.357 138.468 96.8754C132.334 90.7427 134.181 76.3649 129.919 72.9851C129.667 72.784 128.517 71.9425 128.682 71.0669C128.871 69.98 130.852 70.0447 132.243 68.808C134.588 66.7263 134.605 61.5237 132.331 59.7315C130.312 58.1439 127.392 59.9292 126.558 58.7094C125.331 56.8969 131.532 52.8186 130.414 49.1117C129.741 46.846 126.407 44.9721 123.66 45.7046C121.325 46.3383 119.773 48.7165 119.632 50.6483C119.552 51.7897 119.951 52.9004 119.692 52.9889C119.433 53.0775 119.051 51.9123 118.115 51.1662C116.713 50.0521 114.435 50.144 113.18 50.6483C108.785 52.4404 106.902 62.0552 110.523 66.222C111.697 67.5849 113.429 68.3242 113.225 69.4315C113.039 70.4536 111.494 70.3582 109.58 71.52C105.616 73.9254 106.229 77.9594 102.423 79.4312L102.136 79.53C101.482 79.7456 100.812 79.9097 100.131 80.0207C99.2651 80.1672 95.3991 80.8213 95.1082 82.2387C94.968 82.9201 95.7216 83.6287 97.2322 85.0461C98.8024 86.5145 99.195 86.4089 99.6646 87.0903C100.688 88.5962 99.7908 90.5962 98.7218 93.792C97.9402 96.1361 97.4776 98.5619 96.7135 100.926C94.8173 106.763 94.3406 121.938 102.339 131.44C105.259 134.905 109.668 140.142 113.173 142.37C114.293 143.002 115.221 143.911 115.864 145.004C116.089 145.406 117.333 147.361 116.983 149.504C116.341 153.399 110.775 156.21 108.003 154.983C105.549 153.906 105.136 150.68 103.268 150.847C102.293 150.932 101.165 151.961 101.224 152.581C101.233 152.849 101.283 153.114 101.372 153.368C101.442 153.554 101.485 153.749 101.498 153.947C101.49 153.981 101.48 154.014 101.466 154.046C101.319 154.387 99.5034 154.124 98.3432 154.424C97.2918 154.68 96.037 155.627 96.1071 156.349Z" fill="#FFE600" fill-opacity="0.8"/>
<path d="M-14.3929 102.349C-14.2316 103.968 -7.99989 102.99 -4.89801 106.23C-3.73787 107.443 -1.85922 110.611 -1.56831 111.392C-1.47399 111.661 -1.30099 111.898 -1.07055 112.073C-0.83567 112.235 -0.555931 112.324 -0.26799 112.328C-0.135109 112.329 -0.00283813 112.311 0.124603 112.274C0.776527 112.07 1.0149 110.741 1.03242 110.632C1.35488 108.751 0.836128 107.167 0.930756 106.049C1.21116 102.813 6.65083 103.358 11.1757 98.138C12.052 97.1159 13.2787 95.4771 14.912 95.484C15.5183 95.484 16.2474 95.7122 17.8281 95.719C18.5291 95.719 19.0093 95.6441 19.2301 95.6645C20.7372 95.794 21.6626 96.5333 24.6943 96.748C29.1106 97.0614 30.4249 95.7259 32.1108 96.9354C32.1108 96.9354 34.0981 98.3766 35.6403 98.9796C36.5761 99.3203 36.5376 99.092 37.1124 99.3885C38.1639 99.9234 39.4396 102.796 39.4396 102.796C40.6383 105.45 41.4935 105.634 41.2096 106.301C40.7224 107.446 38.304 106.68 36.4009 108.567C36.0959 108.87 35.3704 109.589 35.5877 110.271C35.6944 110.518 35.8709 110.73 36.0967 110.884C36.3224 111.038 36.5882 111.126 36.8635 111.139C37.0227 111.143 37.181 111.116 37.3296 111.061C37.6556 110.952 39.3801 110.38 39.7516 110.768C40.1231 111.156 39.1978 111.899 38.9805 113.736C38.8263 115.041 39.1768 115.439 39.366 115.562C39.4969 115.653 39.6463 115.716 39.8041 115.746C39.8286 115.773 39.8595 115.795 39.8943 115.809C39.929 115.822 39.9666 115.828 40.004 115.824C40.3747 115.807 40.7299 115.675 41.0168 115.446C42.0683 114.591 44.2729 111.129 46.3549 109.944C48.8329 108.536 51.1812 110.305 52.4185 108.724C52.9828 108.005 53.1475 106.809 52.6323 106.094C51.6825 104.782 49.4322 106.261 46.5442 105.15C45.4086 104.714 44.329 103.307 42.1665 100.489C41.5321 99.661 40.7224 98.5128 41.115 97.9643C41.162 97.9045 41.2188 97.8527 41.2832 97.811C42.0929 97.2215 42.4049 96.0393 42.4679 95.8519C42.9166 94.4891 47.4485 92.9082 48.7769 92.3869C49.604 92.0462 56.4877 89.1093 59.5195 83.6273C59.9156 82.9119 60.9215 80.9392 61.8082 81.0823C62.4707 81.1879 62.4532 82.3701 63.5047 82.8233C63.9275 82.9796 64.3859 83.0226 64.8317 82.9477C65.2775 82.8727 65.6944 82.6827 66.0387 82.3974C67.2374 81.3378 66.5049 79.4503 67.2304 79.1641C67.9559 78.8779 68.7691 80.9017 70.7564 81.4639C72.9715 82.0839 75.2077 80.4417 75.5617 80.1896C77.938 78.3941 78.4813 75.3346 78.6671 74.2818C79.0596 72.0706 78.5759 70.9973 79.5783 69.7401C80.3144 68.8305 80.9558 68.9156 82.2176 68.1286C82.3928 68.023 86.3149 65.512 86.2763 61.7812C86.2518 59.0556 84.1523 57.1817 83.7808 56.8444C81.811 55.0727 80.4931 55.7712 79.6064 54.5549C77.6647 51.8837 83.1884 47.4 81.5902 43.2468C80.6193 40.7358 77.4228 39.5263 75.3864 39.2537C70.0694 38.545 64.5701 43.1684 62.3094 47.9179C59.856 53.0728 62.0746 56.5684 58.9973 59.0352C56.2178 61.2634 51.6649 60.6024 51.4967 59.9619C51.381 59.5292 53.2491 59.1714 54.0027 57.4066C54.3372 56.5221 54.3581 55.5544 54.0623 54.657C53.54 53.0046 52.1135 52.0779 51.5177 51.7031C46.4355 48.5005 33.4391 48.3574 27.9679 42.8754C21.8343 36.7427 23.6814 22.3649 19.4194 18.9851C19.167 18.784 18.0174 17.9425 18.1821 17.0669C18.3714 15.98 20.3517 16.0447 21.7431 14.808C24.0879 12.7263 24.1055 7.52367 21.8307 5.73155C19.8119 4.14385 16.8923 5.92916 16.0581 4.70943C14.8314 2.89687 21.0316 -1.18141 19.9136 -4.8883C19.2406 -7.154 15.9074 -9.02789 13.1595 -8.29537C10.8252 -7.66165 9.27251 -5.28352 9.13232 -3.35171C9.0517 -2.21034 9.45132 -1.09964 9.19196 -1.01105C8.93259 -0.92247 8.55054 -2.08768 7.61472 -2.83383C6.21275 -3.94794 3.93451 -3.85595 2.67974 -3.35171C-1.71547 -1.55959 -3.59766 8.05518 0.0229492 12.222C1.19711 13.5849 2.92854 14.3242 2.72525 15.4315C2.53949 16.4536 0.993843 16.3582 -0.919861 17.52C-4.88396 19.9254 -4.27056 23.9594 -8.07693 25.4312L-8.36436 25.53C-9.018 25.7456 -9.68845 25.9097 -10.3692 26.0207C-11.2349 26.1672 -15.1009 26.8213 -15.3918 28.2387C-15.532 28.9201 -14.7784 29.6287 -13.2678 31.0461C-11.6976 32.5145 -11.305 32.4089 -10.8354 33.0903C-9.81194 34.5962 -10.7092 36.5962 -11.7782 39.792C-12.5598 42.1361 -13.0224 44.5619 -13.7865 46.9264C-15.6827 52.7627 -16.1594 67.9378 -8.16106 77.4401C-5.24142 80.9051 -0.832245 86.1418 2.67271 88.37C3.79273 89.0024 4.72124 89.9108 5.36449 91.0037C5.58881 91.4057 6.83305 93.3613 6.48255 95.5044C5.84115 99.3987 0.27533 102.21 -2.49709 100.983C-4.95055 99.9063 -5.36414 96.6798 -7.23228 96.8468C-8.20665 96.932 -9.33527 97.9609 -9.2757 98.581C-9.26671 98.8489 -9.21705 99.1141 -9.12843 99.368C-9.05768 99.5541 -9.01521 99.7492 -9.00229 99.9472C-9.00971 99.981 -9.02022 100.014 -9.03378 100.046C-9.18098 100.387 -10.9966 100.124 -12.1568 100.424C-13.2082 100.68 -14.463 101.627 -14.3929 102.349Z" fill="#FFE600" fill-opacity="0.8"/>
<path d="M195.76 218.99C195.599 220.617 189.367 219.634 186.265 222.893C185.105 224.113 183.226 227.3 182.936 228.084C182.841 228.355 182.668 228.593 182.438 228.77C182.203 228.933 181.923 229.022 181.635 229.027C181.502 229.027 181.37 229.009 181.243 228.972C180.591 228.766 180.352 227.43 180.335 227.32C180.012 225.429 180.531 223.835 180.437 222.711C180.156 219.456 174.716 220.004 170.192 214.754C169.315 213.726 168.089 212.078 166.455 212.085C165.849 212.085 165.12 212.314 163.539 212.321C162.838 212.321 162.358 212.246 162.137 212.266C160.63 212.397 159.705 213.14 156.673 213.356C152.257 213.671 150.943 212.328 149.257 213.545C149.257 213.545 147.269 214.994 145.727 215.601C144.792 215.943 144.83 215.714 144.255 216.012C143.204 216.55 141.928 219.439 141.928 219.439C140.729 222.108 139.874 222.293 140.158 222.965C140.645 224.116 143.064 223.345 144.967 225.243C145.272 225.548 145.997 226.271 145.78 226.957C145.673 227.205 145.497 227.419 145.271 227.574C145.045 227.728 144.779 227.817 144.504 227.831C144.345 227.834 144.187 227.808 144.038 227.752C143.712 227.642 141.988 227.067 141.616 227.457C141.245 227.848 142.17 228.595 142.387 230.442C142.541 231.754 142.191 232.155 142.002 232.279C141.871 232.37 141.721 232.433 141.564 232.464C141.539 232.491 141.508 232.513 141.473 232.527C141.439 232.54 141.401 232.546 141.364 232.542C140.993 232.526 140.638 232.392 140.351 232.162C139.299 231.302 137.095 227.82 135.013 226.628C132.535 225.213 130.187 226.991 128.949 225.401C128.385 224.678 128.22 223.475 128.736 222.756C129.685 221.436 131.936 222.924 134.824 221.806C135.959 221.368 137.039 219.953 139.201 217.119C139.836 216.286 140.645 215.131 140.253 214.579C140.206 214.519 140.149 214.467 140.084 214.425C139.275 213.832 138.963 212.643 138.9 212.455C138.451 211.084 133.919 209.494 132.591 208.97C131.764 208.627 124.88 205.673 121.848 200.16C121.452 199.44 120.446 197.456 119.56 197.6C118.897 197.706 118.915 198.895 117.863 199.351C117.44 199.508 116.982 199.551 116.536 199.476C116.09 199.401 115.674 199.209 115.329 198.923C114.131 197.857 114.863 195.958 114.138 195.671C113.412 195.383 112.599 197.418 110.612 197.984C108.397 198.607 106.16 196.956 105.806 196.702C103.43 194.896 102.887 191.819 102.701 190.76C102.308 188.536 102.792 187.457 101.79 186.192C101.054 185.277 100.412 185.363 99.1506 184.571C98.9753 184.465 95.0533 181.939 95.0918 178.187C95.1164 175.446 97.2159 173.561 97.5874 173.222C99.5571 171.44 100.875 172.142 101.762 170.919C103.703 168.232 98.1797 163.723 99.7779 159.546C100.749 157.02 103.945 155.804 105.982 155.529C111.299 154.817 116.798 159.467 119.058 164.244C121.512 169.428 119.293 172.944 122.371 175.425C125.15 177.666 129.703 177.002 129.871 176.357C129.987 175.922 128.119 175.562 127.365 173.787C127.031 172.898 127.01 171.924 127.306 171.022C127.828 169.36 129.254 168.428 129.85 168.051C134.932 164.83 147.928 164.686 153.4 159.172C159.533 153.004 157.686 138.543 161.948 135.144C162.2 134.941 163.35 134.095 163.185 133.214C162.996 132.121 161.016 132.186 159.624 130.942C157.28 128.849 157.262 123.616 159.537 121.814C161.556 120.217 164.475 122.012 165.309 120.786C166.536 118.962 160.336 114.861 161.454 111.132C162.127 108.854 165.46 106.969 168.208 107.706C170.542 108.343 172.095 110.735 172.235 112.678C172.316 113.826 171.916 114.943 172.175 115.032C172.435 115.121 172.817 113.949 173.753 113.199C175.155 112.078 177.433 112.171 178.688 112.678C183.083 114.48 184.965 124.151 181.344 128.342C180.17 129.712 178.439 130.456 178.642 131.57C178.828 132.598 180.373 132.502 182.287 133.67C186.251 136.089 185.638 140.147 189.444 141.627L189.732 141.726C190.385 141.943 191.056 142.108 191.736 142.22C192.602 142.367 196.468 143.025 196.759 144.451C196.899 145.136 196.146 145.849 194.635 147.274C193.065 148.751 192.672 148.645 192.203 149.33C191.179 150.845 192.076 152.857 193.145 156.071C193.927 158.428 194.39 160.868 195.154 163.247C197.05 169.117 197.526 184.379 189.528 193.937C186.609 197.422 182.199 202.689 178.695 204.93C177.575 205.566 176.646 206.479 176.003 207.579C175.779 207.983 174.534 209.95 174.885 212.105C175.526 216.022 181.092 218.849 183.864 217.616C186.318 216.533 186.731 213.288 188.599 213.455C189.574 213.541 190.702 214.576 190.643 215.2C190.634 215.469 190.584 215.736 190.496 215.991C190.425 216.178 190.382 216.375 190.369 216.574C190.377 216.608 190.387 216.641 190.401 216.673C190.548 217.016 192.364 216.752 193.524 217.054C194.575 217.311 195.83 218.263 195.76 218.99Z" fill="#FC565D" fill-opacity="0.8"/>
<path d="M195.76 281.49C195.599 283.117 189.367 282.134 186.265 285.393C185.105 286.613 183.226 289.8 182.936 290.584C182.841 290.855 182.668 291.093 182.438 291.27C182.203 291.433 181.923 291.522 181.635 291.527C181.502 291.527 181.37 291.509 181.243 291.472C180.591 291.266 180.352 289.93 180.335 289.82C180.012 287.929 180.531 286.335 180.437 285.211C180.156 281.956 174.716 282.504 170.192 277.254C169.315 276.226 168.089 274.578 166.455 274.585C165.849 274.585 165.12 274.814 163.539 274.821C162.838 274.821 162.358 274.746 162.137 274.766C160.63 274.897 159.705 275.64 156.673 275.856C152.257 276.171 150.943 274.828 149.257 276.045C149.257 276.045 147.269 277.494 145.727 278.101C144.792 278.443 144.83 278.214 144.255 278.512C143.204 279.05 141.928 281.939 141.928 281.939C140.729 284.608 139.874 284.793 140.158 285.465C140.645 286.616 143.064 285.845 144.967 287.743C145.272 288.048 145.997 288.771 145.78 289.457C145.673 289.705 145.497 289.919 145.271 290.074C145.045 290.228 144.779 290.317 144.504 290.331C144.345 290.334 144.187 290.308 144.038 290.252C143.712 290.142 141.988 289.567 141.616 289.957C141.245 290.348 142.17 291.095 142.387 292.942C142.541 294.254 142.191 294.655 142.002 294.779C141.871 294.87 141.721 294.933 141.564 294.964C141.539 294.991 141.508 295.013 141.473 295.027C141.439 295.04 141.401 295.046 141.364 295.042C140.993 295.026 140.638 294.892 140.351 294.662C139.299 293.802 137.095 290.32 135.013 289.128C132.535 287.713 130.187 289.491 128.949 287.901C128.385 287.178 128.22 285.975 128.736 285.256C129.685 283.936 131.936 285.424 134.824 284.306C135.959 283.868 137.039 282.453 139.201 279.619C139.836 278.786 140.645 277.631 140.253 277.079C140.206 277.019 140.149 276.967 140.084 276.925C139.275 276.332 138.963 275.143 138.9 274.955C138.451 273.584 133.919 271.994 132.591 271.47C131.764 271.127 124.88 268.173 121.848 262.66C121.452 261.94 120.446 259.956 119.56 260.1C118.897 260.206 118.915 261.395 117.863 261.851C117.44 262.008 116.982 262.051 116.536 261.976C116.09 261.901 115.674 261.709 115.329 261.423C114.131 260.357 114.863 258.458 114.138 258.171C113.412 257.883 112.599 259.918 110.612 260.484C108.397 261.107 106.16 259.456 105.806 259.202C103.43 257.396 102.887 254.319 102.701 253.26C102.308 251.036 102.792 249.957 101.79 248.692C101.054 247.777 100.412 247.863 99.1506 247.071C98.9753 246.965 95.0533 244.439 95.0918 240.687C95.1164 237.946 97.2159 236.061 97.5874 235.722C99.5571 233.94 100.875 234.642 101.762 233.419C103.703 230.732 98.1797 226.223 99.7779 222.046C100.749 219.52 103.945 218.304 105.982 218.029C111.299 217.317 116.798 221.967 119.058 226.744C121.512 231.928 119.293 235.444 122.371 237.925C125.15 240.166 129.703 239.502 129.871 238.857C129.987 238.422 128.119 238.062 127.365 236.287C127.031 235.398 127.01 234.424 127.306 233.522C127.828 231.86 129.254 230.928 129.85 230.551C134.932 227.33 147.928 227.186 153.4 221.672C159.533 215.504 157.686 201.043 161.948 197.644C162.2 197.441 163.35 196.595 163.185 195.714C162.996 194.621 161.016 194.686 159.624 193.442C157.28 191.349 157.262 186.116 159.537 184.314C161.556 182.717 164.475 184.512 165.309 183.286C166.536 181.462 160.336 177.361 161.454 173.632C162.127 171.354 165.46 169.469 168.208 170.206C170.542 170.843 172.095 173.235 172.235 175.178C172.316 176.326 171.916 177.443 172.175 177.532C172.435 177.621 172.817 176.449 173.753 175.699C175.155 174.578 177.433 174.671 178.688 175.178C183.083 176.98 184.965 186.651 181.344 190.842C180.17 192.212 178.439 192.956 178.642 194.07C178.828 195.098 180.373 195.002 182.287 196.17C186.251 198.589 185.638 202.647 189.444 204.127L189.732 204.226C190.385 204.443 191.056 204.608 191.736 204.72C192.602 204.867 196.468 205.525 196.759 206.951C196.899 207.636 196.146 208.349 194.635 209.774C193.065 211.251 192.672 211.145 192.203 211.83C191.179 213.345 192.076 215.357 193.145 218.571C193.927 220.928 194.39 223.368 195.154 225.747C197.05 231.617 197.526 246.879 189.528 256.437C186.609 259.922 182.199 265.189 178.695 267.43C177.575 268.066 176.646 268.979 176.003 270.079C175.779 270.483 174.534 272.45 174.885 274.605C175.526 278.522 181.092 281.349 183.864 280.116C186.318 279.033 186.731 275.788 188.599 275.955C189.574 276.041 190.702 277.076 190.643 277.7C190.634 277.969 190.584 278.236 190.496 278.491C190.425 278.678 190.382 278.875 190.369 279.074C190.377 279.108 190.387 279.141 190.401 279.173C190.548 279.516 192.364 279.252 193.524 279.554C194.575 279.811 195.83 280.763 195.76 281.49Z" fill="#FFE600" fill-opacity="0.8"/>
<path d="M314.76 280.49C314.599 282.117 308.367 281.134 305.265 284.393C304.105 285.613 302.226 288.8 301.936 289.584C301.841 289.855 301.668 290.093 301.438 290.27C301.203 290.433 300.923 290.522 300.635 290.527C300.502 290.527 300.37 290.509 300.243 290.472C299.591 290.266 299.352 288.93 299.335 288.82C299.012 286.929 299.531 285.335 299.437 284.211C299.156 280.956 293.716 281.504 289.192 276.254C288.315 275.226 287.089 273.578 285.455 273.585C284.849 273.585 284.12 273.814 282.539 273.821C281.838 273.821 281.358 273.746 281.137 273.766C279.63 273.897 278.705 274.64 275.673 274.856C271.257 275.171 269.943 273.828 268.257 275.045C268.257 275.045 266.269 276.494 264.727 277.101C263.792 277.443 263.83 277.214 263.255 277.512C262.204 278.05 260.928 280.939 260.928 280.939C259.729 283.608 258.874 283.793 259.158 284.465C259.645 285.616 262.064 284.845 263.967 286.743C264.272 287.048 264.997 287.771 264.78 288.457C264.673 288.705 264.497 288.919 264.271 289.074C264.045 289.228 263.779 289.317 263.504 289.331C263.345 289.334 263.187 289.308 263.038 289.252C262.712 289.142 260.988 288.567 260.616 288.957C260.245 289.348 261.17 290.095 261.387 291.942C261.541 293.254 261.191 293.655 261.002 293.779C260.871 293.87 260.721 293.933 260.564 293.964C260.539 293.991 260.508 294.013 260.473 294.027C260.439 294.04 260.401 294.046 260.364 294.042C259.993 294.026 259.638 293.892 259.351 293.662C258.299 292.802 256.095 289.32 254.013 288.128C251.535 286.713 249.187 288.491 247.949 286.901C247.385 286.178 247.22 284.975 247.736 284.256C248.685 282.936 250.936 284.424 253.824 283.306C254.959 282.868 256.039 281.453 258.201 278.619C258.836 277.786 259.645 276.631 259.253 276.079C259.206 276.019 259.149 275.967 259.084 275.925C258.275 275.332 257.963 274.143 257.9 273.955C257.451 272.584 252.919 270.994 251.591 270.47C250.764 270.127 243.88 267.173 240.848 261.66C240.452 260.94 239.446 258.956 238.56 259.1C237.897 259.206 237.915 260.395 236.863 260.851C236.44 261.008 235.982 261.051 235.536 260.976C235.09 260.901 234.674 260.709 234.329 260.423C233.131 259.357 233.863 257.458 233.138 257.171C232.412 256.883 231.599 258.918 229.612 259.484C227.397 260.107 225.16 258.456 224.806 258.202C222.43 256.396 221.887 253.319 221.701 252.26C221.308 250.036 221.792 248.957 220.79 247.692C220.054 246.777 219.412 246.863 218.151 246.071C217.975 245.965 214.053 243.439 214.092 239.687C214.116 236.946 216.216 235.061 216.587 234.722C218.557 232.94 219.875 233.642 220.762 232.419C222.703 229.732 217.18 225.223 218.778 221.046C219.749 218.52 222.945 217.304 224.982 217.029C230.299 216.317 235.798 220.967 238.058 225.744C240.512 230.928 238.293 234.444 241.371 236.925C244.15 239.166 248.703 238.502 248.871 237.857C248.987 237.422 247.119 237.062 246.365 235.287C246.031 234.398 246.01 233.424 246.306 232.522C246.828 230.86 248.254 229.928 248.85 229.551C253.932 226.33 266.928 226.186 272.4 220.672C278.533 214.504 276.686 200.043 280.948 196.644C281.2 196.441 282.35 195.595 282.185 194.714C281.996 193.621 280.016 193.686 278.624 192.442C276.28 190.349 276.262 185.116 278.537 183.314C280.556 181.717 283.475 183.512 284.309 182.286C285.536 180.462 279.336 176.361 280.454 172.632C281.127 170.354 284.46 168.469 287.208 169.206C289.542 169.843 291.095 172.235 291.235 174.178C291.316 175.326 290.916 176.443 291.175 176.532C291.435 176.621 291.817 175.449 292.753 174.699C294.155 173.578 296.433 173.671 297.688 174.178C302.083 175.98 303.965 185.651 300.344 189.842C299.17 191.212 297.439 191.956 297.642 193.07C297.828 194.098 299.373 194.002 301.287 195.17C305.251 197.589 304.638 201.647 308.444 203.127L308.732 203.226C309.385 203.443 310.056 203.608 310.736 203.72C311.602 203.867 315.468 204.525 315.759 205.951C315.899 206.636 315.146 207.349 313.635 208.774C312.065 210.251 311.672 210.145 311.203 210.83C310.179 212.345 311.076 214.357 312.145 217.571C312.927 219.928 313.39 222.368 314.154 224.747C316.05 230.617 316.526 245.879 308.528 255.437C305.609 258.922 301.199 264.189 297.695 266.43C296.575 267.066 295.646 267.979 295.003 269.079C294.779 269.483 293.534 271.45 293.885 273.605C294.526 277.522 300.092 280.349 302.864 279.116C305.318 278.033 305.731 274.788 307.599 274.955C308.574 275.041 309.702 276.076 309.643 276.7C309.634 276.969 309.584 277.236 309.496 277.491C309.425 277.678 309.382 277.875 309.369 278.074C309.377 278.108 309.387 278.141 309.401 278.173C309.548 278.516 311.364 278.252 312.524 278.554C313.575 278.811 314.83 279.763 314.76 280.49Z" fill="#FFE600" fill-opacity="0.8"/>
</g>
</g>
<defs>
<filter id="filter0_b_5_120236" x="-35.4084" y="-146.957" width="371.184" height="594.087" filterUnits="userSpaceOnUse" color-interpolation-filters="sRGB">
<feFlood flood-opacity="0" result="BackgroundImageFix"/>
<feGaussianBlur in="BackgroundImageFix" stdDeviation="10"/>
<feComposite in2="SourceAlpha" operator="in" result="effect1_backgroundBlur_5_120236"/>
<feBlend mode="normal" in="SourceGraphic" in2="effect1_backgroundBlur_5_120236" result="shape"/>
</filter>
<clipPath id="clip0_5_120236">
<rect width="300" height="300" fill="white"/>
</clipPath>
</defs>
</svg>
