<svg width="300" height="300" viewBox="0 0 300 300" fill="none" xmlns="http://www.w3.org/2000/svg">
<g clip-path="url(#clip0_5_122070)">
<rect width="300" height="300" fill="#FFE600"/>
<path d="M229.429 185.458L226.483 184.403C227.909 180.42 229.237 179.486 231.651 177.805C233.4 176.609 235.071 175.301 236.653 173.889C242.321 168.851 245.513 165.499 245.066 163.268C244.265 159.267 232.46 157.926 228.012 157.421C226.908 157.296 226.018 157.197 225.388 157.09C223.105 156.867 220.863 156.334 218.723 155.508H218.665C217.543 155.007 215.572 154.099 214.977 153.639L216.895 151.167C217.194 151.377 218.683 152.097 219.921 152.642C221.748 153.335 223.658 153.786 225.603 153.983H225.835C226.376 154.077 227.306 154.18 228.379 154.305C235.307 155.092 246.898 156.406 248.146 162.647C248.901 166.406 245.718 170.018 238.758 176.218C237.084 177.71 235.316 179.094 233.466 180.362C231.257 181.882 230.52 182.392 229.429 185.458Z" fill="white"/>
<path d="M253.525 324.147L253.382 324.145L-11.4207 319.643L-11.4511 319.643L-11.4788 319.63L-12.3729 319.219C-15.3955 317.825 -18.32 314.391 -21.5763 308.464C-24.5671 303.029 -27.2118 296.602 -28.9023 292.174C-29.3296 291.056 -31.4107 285.535 -33.2326 279.572C-34.1434 276.591 -34.9904 273.497 -35.5333 270.787C-36.0747 268.083 -36.3192 265.737 -36.0072 264.265C-35.0744 259.87 -30.7495 258.352 -29.1446 257.789L-29.1323 257.784L-29.1313 257.784C-26.516 256.887 -22.9399 256.062 -17.5383 254.852L-17.5369 254.851L-15.4509 254.405C-15.4504 254.404 -15.4499 254.404 -15.4494 254.404C0.850067 250.734 12.6038 248.085 22.7034 244.891L22.7471 245.029L22.7035 244.891C35.7799 240.759 44.7106 236.209 48.8699 233.866C48.9959 233.794 49.2038 233.683 49.4796 233.537L49.6474 233.448C57.0327 229.512 62.345 225.891 65.4448 222.693L65.5488 222.794L65.4448 222.693C71.858 216.081 76.0717 206.793 79.1249 196.5C82.1766 186.213 84.0648 174.938 85.8368 164.357L85.839 164.344C87.5059 154.378 89.0618 145.08 91.4012 137.296C93.7401 129.513 96.8686 123.22 101.696 119.281L253.525 324.147ZM253.525 324.147L253.529 324.004L253.659 319.292L253.659 319.29C253.782 311.063 253.338 294.382 252.449 278.446C252.005 270.478 251.449 262.695 250.796 256.247C250.144 249.804 249.395 244.68 248.561 242.039C247.051 237.257 245.787 232.236 244.567 227.377M253.525 324.147L54.2445 241.965L53.6669 242.276C53.6663 242.276 53.6658 242.277 53.6653 242.277C49.1871 244.807 39.5722 249.701 25.6651 254.098C15.181 257.411 3.25485 260.098 -13.238 263.814L-13.2641 263.82L-15.3784 264.294C-20.0076 265.331 -24.4025 266.321 -26.3499 267.075C-25.8694 270.349 -23.6429 278.814 -19.5619 289.375L-19.697 289.427L-19.5618 289.375C-16.9151 296.234 -14.6158 301.033 -12.7772 304.303C-10.9677 307.522 -9.60816 309.253 -8.80746 310.012L243.999 314.309C243.936 304.251 243.387 288.907 242.546 275.084C242.124 268.139 241.628 261.58 241.084 256.269C240.539 250.952 239.947 246.902 239.335 244.965C237.74 239.926 236.447 234.782 235.201 229.823L235.185 229.758L235.325 229.723L235.185 229.758C233.893 224.612 232.557 219.297 230.918 214.251L231.056 214.206L230.918 214.251C230.378 212.58 229.846 210.98 229.336 209.456L229.331 209.441C227.35 203.493 225.637 198.35 225.05 193.739C224.461 189.118 225.001 185.02 227.538 181.168L227.618 181.047L227.739 181.126L235.57 186.299L235.691 186.378L235.611 186.499C234.444 188.267 234.273 190.56 234.85 193.764C235.426 196.967 236.745 201.049 238.52 206.373L238.52 206.374C238.619 206.671 238.718 206.97 238.818 207.273C239.242 208.548 239.681 209.87 240.125 211.247C241.861 216.617 243.257 222.084 244.567 227.377M244.567 227.377L244.426 227.412M244.567 227.377C244.567 227.377 244.567 227.376 244.567 227.376L244.426 227.412M244.426 227.412C245.647 232.271 246.912 237.295 248.423 242.083L227.58 181.369L227.579 181.368L227.659 181.247L227.78 181.327L235.37 186.34L235.491 186.419C233.095 190.049 234.833 195.776 238.383 206.419C238.481 206.717 238.581 207.016 238.681 207.319C239.104 208.594 239.543 209.915 239.988 211.292C241.722 216.656 243.117 222.119 244.426 227.412ZM101.871 119.138L101.697 119.28L54.2454 241.965C57.3187 240.339 66.6988 235.345 72.4385 229.421C79.9128 221.711 84.7157 211.463 88.1219 200.336C91.5261 189.216 93.5387 177.204 95.4239 165.953L95.4271 165.934C96.8758 157.275 98.2839 148.867 100.184 141.925C102.085 134.976 104.471 129.533 107.852 126.774L107.853 126.773L107.981 126.667C107.981 126.667 107.981 126.667 107.981 126.667C113.142 122.505 115.453 118.229 114.738 113.964C113.862 108.707 109.115 106.797 105.38 105.294L105.356 105.284L105.347 105.281C102.851 104.274 100.301 103.246 98.3144 101.432L98.3142 101.431C94.5529 98.0104 92.238 91.0723 92.4519 83.7781C92.5431 80.6496 93.1072 77.7186 94.0274 75.2642C94.9483 72.8081 96.2223 70.8387 97.7266 69.622C99.2271 68.4084 101.045 67.8967 103.019 67.7388C104.99 67.5811 107.105 67.7772 109.199 67.9715L109.213 67.9727C111.525 68.1892 114.145 68.4344 116.585 68.0188C119.031 67.6021 121.307 66.5195 122.919 64.0773L122.919 64.0772C125.005 60.9111 124.736 57.5346 123.279 54.0314C121.826 50.5369 119.181 46.8904 116.475 43.1601L116.469 43.1527L116.469 43.1525C113.866 39.5742 111.099 35.7586 109.219 32.0145C107.338 28.2677 106.362 24.6215 107.301 21.3738C108.319 17.8457 111.626 14.3772 115.837 12.1082C120.045 9.84079 125.127 8.7882 129.67 10.0561C133.491 11.1271 136.719 13.7475 139.049 16.9211C141.379 20.0945 142.802 23.8092 143.024 27.0538C143.087 28.9236 142.971 30.7952 142.677 32.6429L142.677 32.6437C142.524 33.6398 142.429 34.644 142.393 35.6511L142.393 35.6546C142.371 37.6922 143.059 39.0484 143.865 39.9339C144.667 40.8162 145.578 41.2233 145.992 41.3795C146.826 41.6948 149.715 42.3781 152.185 39.4055L152.187 39.4021C152.733 38.7032 153.236 37.9718 153.694 37.212C153.694 37.2116 153.694 37.2111 153.695 37.2106L153.733 37.1506C154.658 35.6918 155.779 33.9227 157.274 32.6972C159.398 30.9563 162.365 30.1698 165.297 30.0254C168.229 29.881 171.103 30.3794 173.027 31.1855L173.083 31.0519L173.027 31.1855C176.14 32.489 179.092 35.2833 181.608 39.1676C184.122 43.0501 186.192 48.012 187.546 53.6336C189.281 60.8497 189.624 68.1894 188.709 74.6992C187.794 81.2099 185.622 86.8799 182.339 90.7685C180.788 92.5059 179.099 94.1146 177.287 95.5788L177.284 95.5815L177.282 95.5835C175.339 97.2478 173.249 99.038 171.775 101.134C170.296 103.236 169.432 105.654 169.95 108.569L169.95 108.569C170.899 113.858 175.485 115.596 179.454 117.1L179.468 117.105L179.472 117.107C182.244 118.071 184.908 119.319 187.423 120.83C194.369 125.164 197.407 130.875 200.642 136.956L200.647 136.966L200.664 136.997C204.422 144.067 208.33 151.42 218.205 155.338L218.339 155.392L218.393 155.257L221.862 146.531L221.915 146.397L221.78 146.343C215.212 143.737 212.569 138.771 209.191 132.423C205.69 125.833 201.701 118.336 192.547 112.623L192.545 112.622C189.497 110.769 186.264 109.24 182.898 108.058C181.794 107.67 180.714 107.215 179.664 106.697C179.963 106.248 180.553 105.639 181.246 104.99C181.991 104.294 182.839 103.566 183.537 102.968L183.572 102.938C183.572 102.938 183.573 102.938 183.573 102.937C185.784 101.134 187.842 99.1528 189.727 97.0121L189.729 97.0098C198.346 86.8066 201.164 68.8907 196.951 51.3665L196.951 51.3664C193.486 37.013 185.953 26.1159 176.751 22.2595C170.096 19.4576 159.61 19.3318 152.413 24.2479C150.9 14.8204 143.718 3.94066 132.26 0.73828L132.26 0.738256C125.452 -1.15992 117.814 0.116699 111.417 3.46738C105.021 6.81777 99.8479 12.2521 97.9881 18.6917C96.386 24.2393 97.5143 29.664 99.8044 34.7529C102.094 39.8397 105.551 44.6057 108.622 48.8391C109.713 50.3438 111.143 52.3166 112.344 54.1659C112.944 55.0906 113.487 55.9822 113.9 56.7674C114.275 57.4776 114.538 58.0906 114.649 58.558C114.145 58.6102 113.422 58.5968 112.64 58.5523C111.778 58.5033 110.856 58.4175 110.099 58.346L110.098 58.346L110.071 58.3434C104.876 57.8614 97.7017 57.1957 91.6262 62.1101C86.2543 66.441 83.0351 74.2659 82.7661 83.5012C82.4478 93.7497 85.8045 103.152 91.7535 108.583L91.8512 108.476L91.7536 108.583C95.0383 111.58 98.7492 113.077 101.712 114.27L101.716 114.272C102.855 114.69 103.961 115.193 105.025 115.776C104.773 116.297 104.034 117.398 101.872 119.137L101.871 119.138Z" fill="white" stroke="white" stroke-width="0.28971"/>
<path d="M243.953 152.899L244.64 153.999L243.351 153.854L243.287 154.415L245.088 154.615L245.649 154.969L245.95 154.491L245.39 154.138L244.43 152.602L243.953 152.899ZM244.87 151.565C244.765 151.731 244.452 152.228 244.452 152.228L246.536 153.541L246.837 153.063L246.314 152.734C246.314 152.734 246.401 152.597 246.431 152.549C246.702 152.119 246.575 151.549 246.142 151.276C245.712 151.005 245.141 151.135 244.87 151.565ZM245.956 152.25C245.926 152.298 245.84 152.435 245.84 152.435L245.228 152.049C245.228 152.049 245.314 151.912 245.344 151.864C245.451 151.695 245.692 151.616 245.861 151.722C246.03 151.829 246.062 152.081 245.956 152.25ZM246.084 149.455C245.7 150.064 245.881 150.872 246.492 151.257C247.101 151.641 247.908 151.455 248.292 150.847C248.675 150.238 248.495 149.43 247.886 149.046C247.274 148.661 246.467 148.846 246.084 149.455ZM247.817 150.547C247.608 150.879 247.14 150.958 246.812 150.751C246.48 150.542 246.349 150.086 246.558 149.754C246.767 149.423 247.235 149.344 247.567 149.553C247.895 149.76 248.026 150.216 247.817 150.547ZM248.853 147.957C248.85 147.701 248.719 147.449 248.486 147.303C248.378 147.234 248.349 147.096 248.416 146.991C248.428 146.972 248.46 146.921 248.46 146.921L247.982 146.62C247.982 146.62 247.95 146.671 247.938 146.69C247.707 147.056 247.817 147.544 248.187 147.777C248.292 147.844 248.324 147.984 248.256 148.092L248.259 148.094L248.017 148.146L247.303 147.697L247.002 148.174L249.086 149.488L249.387 149.01L248.695 148.574L249.926 148.295L249.798 147.742L248.853 147.957ZM248.882 145.192L249.602 146.563L248.468 145.848L248.167 146.326L250.25 147.639L250.552 147.161L249.834 145.792L250.965 146.505L251.265 146.03L249.181 144.717L248.882 145.192ZM250.016 143.392L250.465 143.675L250.831 143.095L252.465 144.125L252.766 143.647L251.132 142.617L251.497 142.037L251.048 141.754L250.016 143.392ZM251.937 140.344L252.657 141.715L251.523 141L251.222 141.478L253.306 142.792L253.607 142.314L252.889 140.944L254.021 141.657L254.32 141.183L252.236 139.869L251.937 140.344ZM252.41 139.593L254.491 140.904L254.79 140.429L253.187 139.419L253.659 138.67L255.262 139.68L255.561 139.206L253.48 137.894L252.41 139.593ZM254.273 136.461C253.889 137.07 254.07 137.878 254.681 138.263C255.29 138.647 256.097 138.461 256.481 137.853C256.864 137.244 256.684 136.436 256.075 136.052C255.463 135.667 254.656 135.852 254.273 136.461ZM256.006 137.553C255.797 137.885 255.329 137.964 255.001 137.757C254.669 137.548 254.538 137.092 254.747 136.76C254.956 136.429 255.424 136.35 255.756 136.559C256.084 136.766 256.215 137.222 256.006 137.553ZM255.224 135.128L257.308 136.441L257.609 135.963L256.003 134.951L256.497 134.167L256.019 133.866L255.224 135.128ZM256.616 132.927C256.511 133.092 256.198 133.589 256.198 133.589L258.282 134.903L258.583 134.425L258.061 134.095C258.061 134.095 258.147 133.958 258.177 133.911C258.448 133.48 258.322 132.911 257.888 132.638C257.458 132.367 256.887 132.496 256.616 132.927ZM257.702 133.611C257.672 133.659 257.586 133.796 257.586 133.796L256.974 133.411C256.974 133.411 257.06 133.274 257.09 133.226C257.197 133.057 257.438 132.978 257.607 133.084C257.776 133.19 257.809 133.443 257.702 133.611ZM257.857 130.922L257.556 131.4L259.084 133.369L259.529 133.022L259.201 132.597L259.649 131.886L260.174 131.999L260.293 131.451L257.857 130.922ZM258.831 132.124L258.445 131.627L259.06 131.76L258.831 132.124ZM259.598 128.71C259.562 128.768 259.534 128.826 259.509 128.886L259.258 128.727L258.959 129.202L259.21 129.361C259.167 129.409 259.126 129.459 259.092 129.513C258.811 129.959 258.942 130.549 259.388 130.831C259.834 131.112 260.426 130.977 260.707 130.531C260.741 130.477 260.769 130.419 260.791 130.357L261.042 130.515L261.342 130.041L261.09 129.882C261.137 129.836 261.177 129.786 261.213 129.728C261.492 129.285 261.358 128.693 260.912 128.412C260.466 128.131 259.877 128.267 259.598 128.71ZM260.29 130.042C260.286 130.105 260.266 130.173 260.229 130.23C260.113 130.415 259.874 130.469 259.689 130.353C259.508 130.238 259.45 129.997 259.567 129.812C259.603 129.755 259.655 129.708 259.714 129.678L260.29 130.042ZM260.735 129.427C260.697 129.488 260.645 129.535 260.59 129.567L260.013 129.203C260.014 129.137 260.035 129.07 260.073 129.01C260.187 128.828 260.431 128.773 260.613 128.887C260.798 129.003 260.85 129.246 260.735 129.427ZM260.759 126.345L261.48 127.716L260.345 127.001L260.044 127.479L262.128 128.793L262.429 128.315L261.712 126.945L262.843 127.658L263.142 127.184L261.058 125.87L260.759 126.345ZM263.084 125.376C263.08 125.12 262.95 124.868 262.717 124.722C262.609 124.654 262.58 124.515 262.646 124.41C262.658 124.391 262.69 124.34 262.69 124.34L262.213 124.039C262.213 124.039 262.18 124.09 262.168 124.109C261.937 124.475 262.048 124.964 262.418 125.197C262.523 125.263 262.555 125.403 262.486 125.511L262.49 125.513L262.248 125.566L261.534 125.116L261.233 125.594L263.316 126.907L263.618 126.429L262.926 125.993L264.157 125.714L264.029 125.161L263.084 125.376ZM263.112 122.611L263.833 123.982L262.699 123.267L262.397 123.745L264.481 125.059L264.782 124.581L264.065 123.212L265.196 123.924L265.495 123.45L263.411 122.136L263.112 122.611Z" fill="white"/>
<path d="M252.97 157.758L251.214 154.717L248.456 156.309L250.003 158.989C250.118 159.188 250.043 159.448 249.844 159.562C249.814 159.58 249.712 159.639 249.712 159.639L250.518 161.036L251.416 160.518L251.127 160.018L253.032 158.91L253.324 159.416L254.222 158.898L253.415 157.501L252.97 157.758ZM252.072 158.276L250.994 158.898C251.027 158.759 250.967 158.601 250.894 158.475L249.869 156.698L250.838 156.138L252.072 158.276ZM252.58 153.929C252.58 153.929 253.737 155.934 254.127 156.608C254.241 156.807 254.167 157.067 253.968 157.182C253.938 157.199 253.835 157.258 253.835 157.258L254.353 158.155C254.353 158.155 254.456 158.096 254.486 158.079C255.184 157.676 255.418 156.786 255.018 156.094C254.761 155.648 253.992 154.317 253.992 154.317L254.962 153.758L256.71 156.787L257.608 156.269L255.337 152.337L252.58 153.929ZM257.463 151.11C256.65 151.579 256.37 152.624 256.839 153.437C257.086 153.864 257.489 154.145 257.935 154.249L257.934 155.486L258.978 155.486L258.976 154.162C259.04 154.133 259.109 154.101 259.17 154.066C259.26 154.014 259.519 153.864 259.519 153.864L260.085 154.846L260.989 154.324L258.715 150.386C258.715 150.386 257.776 150.929 257.463 151.11ZM258.997 152.961C258.997 152.961 258.738 153.111 258.648 153.163C258.329 153.347 257.927 153.234 257.742 152.915C257.562 152.602 257.665 152.197 257.984 152.013C258.074 151.961 258.333 151.811 258.333 151.811L258.997 152.961ZM265.846 150.308L264.098 147.279L263.206 147.793L264.955 150.822L263.986 151.382L262.237 148.353L261.34 148.871L263.61 152.803L265.922 151.468L266.214 151.974L267.111 151.456L266.298 150.047L265.846 150.308ZM271.49 148.261L269.217 144.323L268.313 144.845L270.587 148.783L271.49 148.261ZM267.66 147.245L266.913 147.676L266.037 146.159L265.134 146.68L267.408 150.619C267.408 150.619 268.648 149.902 269.058 149.666C269.726 149.28 269.955 148.425 269.573 147.763C269.187 147.094 268.328 146.859 267.66 147.245ZM268.54 148.769C268.353 148.877 267.793 149.2 267.793 149.2L267.431 148.574C267.431 148.574 267.991 148.25 268.178 148.143C268.347 148.045 268.572 148.116 268.669 148.284C268.767 148.453 268.708 148.671 268.54 148.769ZM269.799 143.987L272.069 147.919L272.966 147.401L271.217 144.373L272.632 143.556L274.381 146.584L275.278 146.066L273.008 142.134L269.799 143.987ZM274.093 141.508C274.093 141.508 275.25 143.513 275.64 144.188C275.754 144.387 275.68 144.646 275.481 144.761C275.451 144.779 275.348 144.838 275.348 144.838L275.866 145.735C275.866 145.735 275.969 145.676 275.999 145.658C276.697 145.255 276.931 144.366 276.531 143.673C276.274 143.228 275.505 141.897 275.505 141.897L276.475 141.337L278.223 144.366L279.121 143.848L276.85 139.916L274.093 141.508ZM278.976 138.689C278.163 139.158 277.883 140.203 278.352 141.016C278.599 141.444 279.002 141.725 279.448 141.829L279.447 143.065L280.491 143.065L280.489 141.741C280.553 141.713 280.622 141.68 280.683 141.646C280.773 141.593 281.032 141.444 281.032 141.444L281.598 142.425L282.502 141.904L280.228 137.966C280.228 137.966 279.289 138.508 278.976 138.689ZM280.51 140.541C280.51 140.541 280.251 140.69 280.161 140.742C279.842 140.927 279.44 140.814 279.255 140.495C279.074 140.181 279.178 139.776 279.497 139.592C279.587 139.54 279.846 139.391 279.846 139.391L280.51 140.541ZM280.811 137.629L281.301 138.478L282.397 137.846L284.18 140.935L285.084 140.413L283.3 137.324L284.396 136.692L283.906 135.843L280.811 137.629Z" fill="white"/>
<path d="M246.786 174.252L245.529 174.625L246.309 173.801L245.962 173.473L244.529 174.986L244.876 175.315L246.131 174.944L245.353 175.766L245.698 176.092L247.13 174.579L246.786 174.252ZM248.063 176.225C248.276 176.001 248.303 175.583 247.976 175.274C247.722 175.033 247.408 175.008 247.335 175.001C247.284 175 247.128 174.984 247.128 174.984L247.06 175.473C247.06 175.473 247.164 175.475 247.254 175.486C247.342 175.499 247.495 175.49 247.641 175.628C247.764 175.744 247.755 175.846 247.716 175.897C247.679 175.945 247.6 176.028 247.366 175.859C247.32 175.824 247.192 175.699 247.192 175.699L246.846 176.065C246.846 176.065 246.978 176.185 247.015 176.229C247.199 176.452 247.123 176.542 247.072 176.577C247.021 176.612 246.92 176.635 246.798 176.519C246.652 176.381 246.655 176.262 246.637 176.179C246.625 176.123 246.599 175.945 246.599 175.945L246.129 176.04C246.129 176.04 246.153 176.194 246.157 176.246C246.168 176.318 246.21 176.63 246.465 176.871C246.791 177.18 247.207 177.13 247.419 176.906C247.551 176.767 247.612 176.61 247.609 176.441C247.778 176.434 247.932 176.364 248.063 176.225ZM250.654 178.274L250.598 177.773L249.677 177.88L249.735 176.956L249.229 176.925L249.169 177.939L248.16 178.054L248.219 178.558L249.135 178.451L249.082 179.375L249.585 179.404L249.648 178.392L250.654 178.274ZM251.969 179.089L250.943 179.477L251.275 178.431L250.82 178.286L250.357 179.748L249.972 180.156L250.319 180.484L250.705 180.077L252.137 179.533L251.969 179.089ZM252.395 181.778L253.502 180.609L252.442 179.606L251.467 180.636C251.394 180.712 251.27 180.713 251.194 180.641C251.183 180.63 251.143 180.593 251.143 180.593L250.635 181.13L250.98 181.456L251.162 181.264L251.898 181.956L251.713 182.151L252.058 182.477L252.567 181.94L252.395 181.778ZM252.05 181.452L251.636 181.06C251.701 181.055 251.763 181.009 251.809 180.96L252.456 180.277L252.828 180.63L252.05 181.452ZM254.59 181.53C254.148 181.111 253.447 181.128 253.027 181.573C252.608 182.015 252.63 182.715 253.072 183.134C253.514 183.552 254.215 183.535 254.633 183.093C255.054 182.649 255.032 181.948 254.59 181.53ZM253.398 182.789C253.158 182.561 253.169 182.159 253.395 181.921C253.623 181.68 254.023 181.647 254.264 181.875C254.504 182.103 254.493 182.504 254.265 182.745C254.039 182.983 253.639 183.017 253.398 182.789ZM256.657 184.249C256.678 184.269 256.735 184.324 256.735 184.324L257.062 183.979C257.062 183.979 257.004 183.924 256.983 183.905C256.717 183.653 256.293 183.664 256.039 183.933C256.015 183.958 255.98 183.977 255.948 183.987C255.93 183.961 255.913 183.936 255.892 183.912L256.411 183.363L256.067 183.037L255.55 183.583C255.52 183.564 255.494 183.544 255.465 183.529C255.471 183.495 255.488 183.459 255.512 183.433L255.514 183.435C255.768 183.167 255.756 182.744 255.488 182.489C255.469 182.472 255.409 182.415 255.409 182.415L255.083 182.76C255.083 182.76 255.143 182.817 255.162 182.834C255.24 182.909 255.244 183.03 255.169 183.109C255.075 183.209 255.015 183.332 254.996 183.459C254.868 183.487 254.751 183.551 254.654 183.653C254.582 183.729 254.46 183.733 254.382 183.658C254.363 183.641 254.303 183.584 254.303 183.584L253.977 183.929C253.977 183.929 254.037 183.986 254.055 184.003C254.324 184.257 254.747 184.246 254.999 183.979L254.997 183.977C255.023 183.949 255.056 183.933 255.09 183.925C255.109 183.952 255.128 183.978 255.151 184.004L254.634 184.551L254.979 184.877L255.496 184.331C255.521 184.35 255.546 184.366 255.574 184.383C255.566 184.415 255.551 184.449 255.525 184.477C255.273 184.743 255.284 185.166 255.55 185.418C255.571 185.438 255.629 185.493 255.629 185.493L255.955 185.148C255.955 185.148 255.898 185.093 255.877 185.073C255.8 185.001 255.797 184.879 255.869 184.803C255.966 184.701 256.021 184.578 256.042 184.449C256.168 184.423 256.29 184.359 256.384 184.259C256.459 184.18 256.58 184.177 256.657 184.249ZM257.795 185.331L258.124 184.984L257.263 184.169L255.83 185.683L256.691 186.498L257.017 186.153L256.504 185.667L256.736 185.421L257.155 185.818L257.47 185.484L257.051 185.088L257.281 184.845L257.795 185.331ZM257.864 187.02C257.63 186.79 257.644 186.386 257.877 186.15C258.105 185.914 258.507 185.887 258.744 186.119C258.869 186.238 258.908 186.424 258.903 186.586L259.41 186.579C259.413 186.288 259.299 185.996 259.077 185.777C258.639 185.354 257.938 185.362 257.513 185.797C257.09 186.235 257.098 186.936 257.533 187.361C257.758 187.578 258.049 187.683 258.342 187.675L258.335 187.168C258.173 187.177 257.99 187.143 257.864 187.02ZM259.724 186.499L259.415 186.825L259.836 187.224L258.713 188.411L259.06 188.74L260.184 187.553L260.605 187.951L260.914 187.625L259.724 186.499ZM261.773 189.32C262.016 189.063 262.005 188.658 261.748 188.415C261.591 188.266 261.114 187.815 261.114 187.815L259.681 189.328C259.681 189.328 260.158 189.779 260.315 189.928C260.572 190.172 260.978 190.16 261.219 189.906C261.324 189.795 261.381 189.656 261.393 189.513C261.532 189.496 261.668 189.431 261.773 189.32ZM260.642 189.584C260.57 189.516 260.355 189.312 260.355 189.312L260.583 189.071C260.583 189.071 260.798 189.275 260.87 189.343C260.935 189.404 260.933 189.512 260.872 189.577C260.81 189.642 260.707 189.645 260.642 189.584ZM261.196 188.998C261.124 188.93 260.909 188.726 260.909 188.726L261.133 188.49C261.133 188.49 261.348 188.694 261.42 188.762C261.484 188.823 261.487 188.927 261.426 188.992C261.365 189.057 261.261 189.059 261.196 188.998ZM262.951 190.211L263.279 189.864L262.418 189.049L260.985 190.563L261.846 191.378L262.173 191.033L261.659 190.546L261.891 190.301L262.31 190.698L262.626 190.364L262.207 189.968L262.437 189.725L262.951 190.211ZM264.296 190.844L263.735 191.436L263.258 190.985L263.819 190.392L263.472 190.064L262.041 191.575L262.388 191.904L262.949 191.311L263.426 191.762L262.865 192.355L263.212 192.684L264.643 191.172L264.296 190.844ZM265.668 192.142L265.107 192.735L264.63 192.283L265.191 191.691L264.844 191.362L263.413 192.874L263.76 193.202L264.321 192.61L264.798 193.061L264.237 193.653L264.584 193.982L266.015 192.471L265.668 192.142ZM267.082 193.354C266.64 192.935 265.94 192.952 265.519 193.397C265.101 193.839 265.122 194.539 265.564 194.958C266.006 195.376 266.707 195.359 267.125 194.917C267.546 194.473 267.524 193.772 267.082 193.354ZM265.891 194.613C265.65 194.385 265.661 193.984 265.887 193.745C266.115 193.504 266.515 193.471 266.756 193.699C266.997 193.927 266.985 194.328 266.757 194.569C266.532 194.807 266.131 194.841 265.891 194.613ZM269.347 195.102L269.333 194.584C269.237 194.56 269.146 194.513 269.069 194.441C268.993 194.368 268.941 194.279 268.911 194.186L268.396 194.202C268.435 194.424 268.545 194.638 268.723 194.806C268.901 194.975 269.121 195.073 269.347 195.102ZM268.856 195.143L267.6 195.516L268.38 194.692L268.033 194.363L266.6 195.877L266.947 196.205L268.201 195.835L267.424 196.657L267.769 196.983L269.201 195.469L268.856 195.143ZM271.541 197.684L270.439 198.848L270.094 198.522L271.196 197.357L270.854 197.033L269.752 198.197L269.407 197.871L270.509 196.707L270.164 196.38L268.733 197.892L270.455 199.522L271.886 198.01L271.541 197.684ZM271.964 199.773C272.177 199.813 272.407 199.745 272.567 199.576C272.641 199.498 272.761 199.497 272.837 199.569C272.851 199.582 272.888 199.617 272.888 199.617L273.217 199.27C273.217 199.27 273.18 199.235 273.166 199.222C272.9 198.97 272.476 198.982 272.222 199.25C272.15 199.326 272.028 199.33 271.949 199.255L271.947 199.258L271.944 199.048L272.435 198.53L272.087 198.201L270.655 199.715L271.002 200.043L271.477 199.541L271.507 200.609L271.986 200.593L271.964 199.773ZM274.145 200.039C273.703 199.621 273.003 199.638 272.582 200.082C272.164 200.524 272.185 201.225 272.627 201.643C273.069 202.062 273.77 202.045 274.188 201.603C274.609 201.158 274.587 200.458 274.145 200.039ZM272.954 201.298C272.713 201.071 272.724 200.669 272.95 200.431C273.178 200.19 273.578 200.156 273.819 200.384C274.06 200.612 274.048 201.014 273.82 201.254C273.595 201.493 273.194 201.526 272.954 201.298ZM275.141 201.091C275.141 201.091 274.411 201.862 274.166 202.121C274.094 202.198 273.97 202.199 273.893 202.126C273.882 202.115 273.842 202.078 273.842 202.078L273.516 202.423C273.516 202.423 273.555 202.46 273.567 202.471C273.835 202.725 274.257 202.712 274.509 202.445C274.671 202.274 275.155 201.763 275.155 201.763L275.527 202.115L274.426 203.279L274.77 203.606L276.201 202.095L275.141 201.091ZM276.539 205.284L277.971 203.77L277.624 203.442L276.191 204.955L276.539 205.284ZM276.484 203.468L276.197 203.197L276.749 202.614L276.402 202.285L274.969 203.799C274.969 203.799 275.446 204.25 275.604 204.399C275.86 204.642 276.266 204.631 276.507 204.376C276.75 204.119 276.741 203.712 276.484 203.468ZM275.93 204.054C275.858 203.986 275.643 203.782 275.643 203.782L275.871 203.542C275.871 203.542 276.086 203.745 276.158 203.813C276.223 203.875 276.221 203.983 276.16 204.048C276.098 204.113 275.995 204.115 275.93 204.054Z" fill="white"/>
<path d="M249.558 170.225C249.048 169.893 248.362 170.036 248.028 170.549C247.696 171.059 247.843 171.744 248.354 172.076C248.864 172.408 249.55 172.265 249.882 171.755C250.216 171.242 250.069 170.557 249.558 170.225ZM248.613 171.678C248.335 171.497 248.274 171.1 248.453 170.825C248.634 170.547 249.022 170.442 249.299 170.623C249.577 170.804 249.638 171.201 249.457 171.479C249.278 171.754 248.89 171.859 248.613 171.678ZM250.474 170.916L250.229 171.293L250.715 171.609L249.823 172.979L250.223 173.24L251.115 171.87L251.601 172.186L251.847 171.81L250.474 170.916ZM253.118 174.102C253.335 174.102 253.549 173.994 253.676 173.799C253.735 173.709 253.852 173.686 253.941 173.743C253.957 173.754 253.999 173.782 253.999 173.782L254.26 173.381C254.26 173.381 254.217 173.353 254.201 173.343C253.894 173.143 253.48 173.231 253.278 173.54C253.221 173.628 253.102 173.654 253.011 173.594L253.009 173.597L252.968 173.392L253.357 172.793L252.957 172.533L251.82 174.279L252.22 174.54L252.598 173.961L252.819 175.006L253.288 174.904L253.118 174.102ZM255.591 174.187L254.652 174.754L254.79 173.665L254.317 173.604L254.125 175.126L253.819 175.596L254.219 175.857L254.525 175.386L255.836 174.593L255.591 174.187ZM256.708 174.979C256.569 174.888 256.153 174.617 256.153 174.617L255.016 176.364L255.416 176.624L255.701 176.186C255.701 176.186 255.816 176.261 255.856 176.287C256.217 176.522 256.7 176.422 256.936 176.059C257.171 175.698 257.069 175.213 256.708 174.979ZM256.115 175.889C256.075 175.863 255.96 175.788 255.96 175.788L256.294 175.276C256.294 175.276 256.409 175.35 256.449 175.377C256.591 175.469 256.655 175.674 256.563 175.816C256.47 175.957 256.257 175.981 256.115 175.889ZM258.547 176.172L257.378 176.765L257.997 175.814L257.597 175.553L256.46 177.3L256.86 177.561L258.028 176.971L257.41 177.919L257.808 178.178L258.945 176.431L258.547 176.172ZM259.526 178.722L260.4 177.379L260.005 177.121L259.131 178.465L258.701 178.185L259.575 176.841L259.177 176.582L258.042 178.326L259.067 178.994L258.921 179.218L259.319 179.477L259.726 178.852L259.526 178.722Z" fill="white"/>
<path d="M251.832 166.924L252.446 165.437L251.098 164.879L250.556 166.19C250.516 166.287 250.4 166.332 250.303 166.292C250.288 166.286 250.238 166.265 250.238 166.265L249.956 166.949L250.395 167.13L250.496 166.886L251.431 167.268L251.328 167.516L251.767 167.697L252.05 167.014L251.832 166.924ZM251.393 166.742L250.866 166.525C250.925 166.497 250.966 166.432 250.992 166.37L251.351 165.501L251.825 165.697L251.393 166.742ZM253.085 165.7C253.085 165.7 252.68 166.681 252.543 167.011C252.503 167.108 252.388 167.154 252.291 167.114C252.276 167.107 252.226 167.087 252.226 167.087L252.044 167.526C252.044 167.526 252.095 167.546 252.109 167.552C252.451 167.694 252.839 167.53 252.979 167.191C253.069 166.973 253.338 166.322 253.338 166.322L253.812 166.518L253.2 168L253.639 168.181L254.434 166.258L253.085 165.7ZM255.444 166.675C255.046 166.511 254.588 166.701 254.424 167.099C254.338 167.308 254.348 167.533 254.435 167.724L253.985 168.069L254.277 168.448L254.757 168.078C254.786 168.093 254.817 168.109 254.846 168.121C254.89 168.14 255.017 168.192 255.017 168.192L254.819 168.672L255.26 168.855L256.056 166.929C256.056 166.929 255.597 166.739 255.444 166.675ZM255.2 167.75C255.2 167.75 255.073 167.698 255.029 167.68C254.873 167.615 254.801 167.437 254.866 167.281C254.929 167.128 255.105 167.053 255.261 167.117C255.305 167.135 255.432 167.188 255.432 167.188L255.2 167.75ZM258.325 167.88L258.013 168.634L257.407 168.383L257.718 167.629L257.276 167.447L256.482 169.37L256.923 169.552L257.235 168.798L257.842 169.049L257.53 169.803L257.972 169.986L258.767 168.063L258.325 167.88ZM260.08 168.505C259.517 168.273 258.869 168.539 258.635 169.105C258.403 169.667 258.673 170.314 259.236 170.546C259.798 170.779 260.447 170.512 260.679 169.949C260.913 169.384 260.642 168.738 260.08 168.505ZM259.417 170.107C259.111 169.981 258.978 169.602 259.103 169.298C259.23 168.992 259.592 168.817 259.898 168.944C260.204 169.071 260.337 169.45 260.211 169.756C260.085 170.059 259.724 170.234 259.417 170.107ZM262.482 170.278C262.617 169.951 262.462 169.576 262.135 169.441C261.935 169.358 261.328 169.107 261.328 169.107L260.532 171.034C260.532 171.034 261.139 171.284 261.339 171.367C261.666 171.502 262.04 171.347 262.174 171.023C262.233 170.881 262.236 170.731 262.196 170.594C262.32 170.528 262.424 170.419 262.482 170.278ZM261.52 170.928C261.429 170.89 261.155 170.777 261.155 170.777L261.282 170.471C261.282 170.471 261.556 170.584 261.647 170.622C261.729 170.656 261.767 170.758 261.733 170.84C261.699 170.923 261.603 170.962 261.52 170.928ZM261.828 170.183C261.737 170.145 261.463 170.032 261.463 170.032L261.587 169.732C261.587 169.732 261.861 169.845 261.952 169.883C262.035 169.917 262.075 170.012 262.041 170.095C262.006 170.177 261.911 170.217 261.828 170.183ZM264.036 170.227L262.996 171.024L263.429 169.976L262.988 169.793L262.191 171.719L262.633 171.902L263.672 171.107L263.24 172.153L263.679 172.334L264.475 170.408L264.036 170.227ZM265.714 170.92L265.406 171.665C265.406 171.665 265.132 171.552 265.041 171.514C264.941 171.473 264.893 171.364 264.934 171.263C264.993 171.122 265.169 170.695 265.169 170.695L264.731 170.514C264.731 170.514 264.554 170.941 264.496 171.082C264.354 171.424 264.517 171.815 264.858 171.956C264.95 171.994 265.224 172.107 265.224 172.107L264.918 172.846L265.357 173.028L266.153 171.102L265.714 170.92ZM266.857 172.72C267.07 172.681 267.261 172.536 267.35 172.321C267.392 172.22 267.503 172.177 267.6 172.217C267.618 172.224 267.665 172.244 267.665 172.244L267.847 171.802C267.847 171.802 267.8 171.782 267.783 171.775C267.444 171.635 267.053 171.798 266.911 172.139C266.871 172.236 266.759 172.283 266.659 172.242L266.658 172.245L266.579 172.05L266.852 171.39L266.41 171.208L265.614 173.134L266.056 173.317L266.32 172.677L266.73 173.664L267.172 173.478L266.857 172.72ZM268.99 172.188C268.427 171.955 267.779 172.222 267.545 172.787C267.313 173.35 267.584 173.996 268.146 174.229C268.709 174.461 269.357 174.195 269.589 173.632C269.823 173.067 269.552 172.42 268.99 172.188ZM268.328 173.79C268.021 173.663 267.888 173.284 268.014 172.981C268.14 172.675 268.502 172.5 268.808 172.627C269.115 172.753 269.248 173.132 269.121 173.439C268.996 173.742 268.634 173.917 268.328 173.79ZM271.393 173.96C271.528 173.633 271.372 173.259 271.045 173.124C270.845 173.041 270.238 172.79 270.238 172.79L269.442 174.716C269.442 174.716 270.049 174.967 270.249 175.05C270.576 175.185 270.951 175.029 271.085 174.705C271.143 174.564 271.147 174.414 271.107 174.277C271.231 174.21 271.334 174.102 271.393 173.96ZM270.431 174.611C270.339 174.573 270.065 174.46 270.065 174.46L270.192 174.154C270.192 174.154 270.466 174.267 270.557 174.305C270.64 174.339 270.677 174.44 270.643 174.523C270.609 174.605 270.513 174.645 270.431 174.611ZM270.739 173.866C270.647 173.828 270.373 173.715 270.373 173.715L270.498 173.414C270.498 173.414 270.771 173.528 270.863 173.565C270.945 173.599 270.985 173.695 270.951 173.778C270.917 173.86 270.821 173.9 270.739 173.866Z" fill="white"/>
<path d="M242.193 178.421C242.402 178.478 242.637 178.431 242.811 178.277C242.892 178.205 243.011 178.214 243.081 178.292C243.093 178.307 243.127 178.345 243.127 178.345L243.484 178.027C243.484 178.027 243.451 177.989 243.438 177.975C243.194 177.701 242.771 177.676 242.495 177.922C242.417 177.992 242.295 177.985 242.223 177.904L242.221 177.906L242.235 177.697L242.769 177.222L242.451 176.865L240.894 178.25L241.211 178.607L241.728 178.148L241.666 179.214L242.145 179.24L242.193 178.421ZM244.38 179.015L244.062 178.658L242.102 179.437L242.279 179.88L242.702 179.713L243.175 180.244L242.959 180.645L243.377 180.87L244.38 179.015ZM243.174 179.524L243.668 179.328L243.415 179.796L243.174 179.524ZM244.71 181.251C244.918 181.309 245.154 181.262 245.328 181.107C245.409 181.035 245.528 181.044 245.597 181.123C245.61 181.137 245.644 181.175 245.644 181.175L246.001 180.857C246.001 180.857 245.967 180.819 245.955 180.805C245.711 180.531 245.288 180.506 245.012 180.752C244.933 180.822 244.812 180.815 244.74 180.734L244.738 180.736L244.752 180.527L245.286 180.053L244.968 179.695L243.41 181.08L243.728 181.438L244.245 180.978L244.182 182.044L244.662 182.07L244.71 181.251ZM246.635 183.416C246.844 183.474 247.079 183.427 247.253 183.272C247.334 183.2 247.453 183.209 247.523 183.288C247.536 183.302 247.569 183.34 247.569 183.34L247.927 183.023C247.927 183.023 247.893 182.985 247.88 182.97C247.636 182.696 247.214 182.672 246.937 182.917C246.859 182.987 246.737 182.98 246.665 182.899L246.663 182.901L246.677 182.692L247.211 182.218L246.893 181.861L245.336 183.245L245.653 183.603L246.17 183.143L246.108 184.209L246.587 184.235L246.635 183.416ZM248.998 184.151L247.942 184.45L248.363 183.437L247.922 183.253L247.336 184.67L246.917 185.042L247.234 185.4L247.653 185.027L249.127 184.608L248.998 184.151ZM249.867 185.209C249.757 185.085 249.426 184.714 249.426 184.714L247.869 186.099L248.186 186.456L248.577 186.109C248.577 186.109 248.668 186.211 248.7 186.247C248.986 186.568 249.478 186.599 249.802 186.311C250.124 186.026 250.153 185.531 249.867 185.209ZM249.055 185.931C249.023 185.896 248.932 185.793 248.932 185.793L249.389 185.387C249.389 185.387 249.48 185.489 249.512 185.525C249.624 185.651 249.632 185.866 249.506 185.978C249.379 186.09 249.167 186.058 249.055 185.931ZM251.326 186.846L250.042 187.109L250.89 186.355L250.572 185.998L249.015 187.383L249.332 187.74L250.614 187.479L249.769 188.231L250.084 188.585L251.642 187.2L251.326 186.846ZM251.597 189.563L252.795 188.498L252.482 188.145L251.284 189.211L250.943 188.827L252.141 187.762L251.825 187.407L250.27 188.79L251.084 189.704L250.884 189.882L251.199 190.237L251.756 189.742L251.597 189.563ZM253.874 189.692L253.556 189.335L251.597 190.114L251.774 190.557L252.197 190.39L252.669 190.921L252.454 191.322L252.871 191.547L253.874 189.692ZM252.668 190.201L253.163 190.004L252.91 190.473L252.668 190.201ZM255.403 191.43C255.403 191.43 254.61 192.136 254.343 192.373C254.265 192.443 254.141 192.433 254.071 192.355C254.061 192.343 254.025 192.302 254.025 192.302L253.67 192.618C253.67 192.618 253.706 192.658 253.716 192.67C253.962 192.946 254.383 192.969 254.657 192.725C254.833 192.569 255.359 192.101 255.359 192.101L255.7 192.484L254.502 193.549L254.818 193.904L256.373 192.521L255.403 191.43ZM257.363 193.615L257.045 193.258L255.085 194.037L255.262 194.481L255.685 194.314L256.158 194.845L255.942 195.245L256.36 195.47L257.363 193.615ZM256.157 194.125L256.652 193.928L256.398 194.396L256.157 194.125ZM258.019 194.372L256.464 195.755L256.78 196.11L257.978 195.045L258.475 195.604L257.277 196.67L257.593 197.025L259.148 195.642L258.019 194.372ZM260.127 196.623C259.722 196.168 259.023 196.124 258.566 196.531C258.111 196.935 258.072 197.635 258.476 198.09C258.881 198.545 259.58 198.588 260.035 198.184C260.492 197.777 260.531 197.077 260.127 196.623ZM258.831 197.775C258.611 197.527 258.657 197.128 258.902 196.91C259.15 196.689 259.552 196.69 259.772 196.938C259.992 197.186 259.946 197.585 259.699 197.805C259.453 198.023 259.051 198.022 258.831 197.775ZM262.233 198.559L262.263 198.042C262.17 198.009 262.083 197.954 262.013 197.876C261.943 197.797 261.899 197.704 261.878 197.608L261.362 197.58C261.383 197.805 261.474 198.027 261.637 198.21C261.8 198.394 262.01 198.51 262.233 198.559ZM261.741 198.557L260.457 198.821L261.304 198.067L260.987 197.71L259.429 199.095L259.747 199.452L261.029 199.191L260.183 199.942L260.499 200.297L262.056 198.912L261.741 198.557Z" fill="white"/>
</g>
<defs>
<clipPath id="clip0_5_122070">
<rect width="300" height="300" fill="white"/>
</clipPath>
</defs>
</svg>
