<svg width="300" height="300" viewBox="0 0 300 300" fill="none" xmlns="http://www.w3.org/2000/svg">
<g clip-path="url(#clip0_5_122135)">
<rect width="300" height="300" fill="#FC565D"/>
<path d="M46.5239 31.4082C41.9968 32.5497 41.6137 27.0645 25.7595 17.1433C25.7595 17.1433 8.55002 6.43891 6.08665 -0.469967C4.71137 -4.31293 6.22195 -3.79113 4.80565 -9.97878C4.36308 -11.8745 3.81703 -13.7445 3.16995 -15.5805C-2.83925 -2.46699 -8.11329 10.9711 -12.6277 24.6713C-12.1035 25.199 -11.6121 25.722 -11.1885 26.2518C-9.98448 25.5982 -8.87582 24.7824 -7.89358 23.8274C-7.57137 23.4621 -7.18738 23.1564 -6.75915 22.9243C-2.91457 21.0815 3.67737 27.1748 8.39255 31.824C24.4172 47.8842 32.4168 55.8875 34.1653 63.3432C38.6137 82.3697 27.1448 94.8734 34.6589 101.97C38.743 105.909 46.5386 105.948 51.6465 103.12C62.8599 96.9271 53.6918 80.7011 64.937 66.6445C74.4002 54.8327 98.5132 44.2799 104.9 38.6497C106.624 37.0937 107.795 35.0197 108.237 32.7402C108.291 32.512 108.29 32.2747 108.237 32.0466C108.183 31.8186 108.078 31.606 107.929 31.4254C107.873 30.4141 107.608 29.4253 107.151 28.5219C106.424 27.2127 104.359 24.7722 95.8395 24.4273C83.917 24.0521 78.001 28.7489 76.1973 26.4636C74.0864 23.7658 79.2897 13.5523 80.2639 11.6903C80.7469 10.8222 81.0619 9.87091 81.1923 8.88613C81.3574 7.16609 81.0334 5.43434 80.2575 3.89037C79.4816 2.34641 78.2854 1.05296 76.8067 0.158999C72.7368 -1.82321 67.4829 2.00166 65.2754 3.61632C51.615 13.7446 54.3075 29.4738 46.5239 31.4082Z" stroke="#31CFF4" stroke-width="7.21839"/>
<path d="M214.52 30.5036C212.735 26.1896 218.107 25.016 225.627 7.89224C225.627 7.89224 233.726 -10.6861 240.206 -14.1241C243.809 -16.0414 243.511 -14.4712 249.429 -16.7687C251.24 -17.4812 253.012 -18.2923 254.735 -19.1984C240.889 -23.2451 226.829 -26.5174 212.619 -29C212.173 -28.405 211.727 -27.843 211.264 -27.3471C212.085 -26.2504 213.053 -25.2716 214.14 -24.438C214.548 -24.1721 214.906 -23.8365 215.198 -23.4464C217.578 -19.9092 212.504 -12.5043 208.586 -7.1655C195.016 11.0161 188.256 20.0905 181.132 22.9003C162.95 30.0573 148.917 20.5202 142.983 28.9829C139.678 33.5944 140.769 41.3134 144.306 45.958C152.058 56.1562 166.785 44.7348 182.322 53.8257C195.38 61.4785 209.313 83.8089 215.809 89.313C217.598 90.7931 219.82 91.6516 222.14 91.7592C222.373 91.7789 222.608 91.7445 222.826 91.6584C223.044 91.5724 223.239 91.4372 223.396 91.2634C224.389 91.0623 225.329 90.657 226.156 90.0733C227.346 89.1642 229.462 86.7675 228.569 78.2882C227.214 66.4371 221.71 61.2637 223.71 59.148C226.074 56.6687 236.933 60.338 238.917 61.0322C239.845 61.3843 240.832 61.5583 241.826 61.5447C243.551 61.459 245.218 60.8875 246.633 59.8962C248.049 58.9049 249.155 57.534 249.826 55.9414C251.197 51.6274 246.652 46.9828 244.735 45.0324C232.735 32.9829 217.561 37.925 214.52 30.5036Z" stroke="white" stroke-width="7.21839"/>
<path d="M270.593 171.206C273.83 167.841 277.058 172.292 295.76 172.319C295.76 172.319 316.027 172.293 321.774 176.851C324.975 179.383 323.417 179.74 327.894 184.24C329.272 185.615 330.726 186.912 332.246 188.128C330.404 173.821 327.767 159.628 324.346 145.615C323.622 145.444 322.928 145.261 322.288 145.035C321.612 146.227 321.104 147.506 320.776 148.836C320.696 149.317 320.532 149.779 320.291 150.203C318.004 153.801 309.187 152.12 302.725 150.671C280.629 145.526 269.606 142.97 264.176 137.57C250.332 123.781 253.445 107.102 243.313 105.058C237.763 103.877 231.129 107.971 228.291 113.073C222.055 124.262 238.422 133.177 236.321 151.055C234.543 166.085 219.67 187.801 217.231 195.959C216.592 198.191 216.696 200.571 217.527 202.739C217.602 202.961 217.728 203.162 217.894 203.327C218.06 203.492 218.262 203.617 218.485 203.691C219.067 204.52 219.815 205.219 220.681 205.743C221.991 206.469 225.035 207.447 232.446 203.23C242.76 197.238 245.293 190.122 248.033 191.106C251.252 192.278 252.243 203.698 252.402 205.793C252.452 206.785 252.688 207.759 253.099 208.664C253.869 210.211 255.06 211.508 256.536 212.408C258.011 213.307 259.711 213.771 261.439 213.747C265.941 213.275 268.374 207.249 269.392 204.711C275.622 188.887 265.012 176.967 270.593 171.206Z" stroke="#FFE600" stroke-width="7.21839"/>
<path d="M151.457 265.814C155.16 268.657 151.095 272.359 153.144 290.949C153.144 290.949 155.419 311.088 151.527 317.305C149.365 320.767 148.837 319.259 144.862 324.207C143.649 325.73 142.521 327.318 141.482 328.964C155.496 325.546 169.308 321.35 182.855 316.395C182.944 315.656 183.05 314.947 183.203 314.286C181.943 313.746 180.616 313.383 179.257 313.204C178.771 313.178 178.293 313.066 177.845 312.874C174.016 311.001 174.708 302.051 175.431 295.469C178.092 272.938 179.409 261.7 184.174 255.704C196.341 240.415 213.263 241.658 214.17 231.362C214.727 225.716 209.923 219.576 204.538 217.323C192.725 212.367 185.682 229.621 167.681 229.517C152.546 229.418 129.314 217.047 120.936 215.528C118.647 215.141 116.293 215.508 114.231 216.575C114.019 216.674 113.832 216.821 113.687 217.005C113.541 217.188 113.44 217.403 113.391 217.632C112.632 218.302 112.02 219.124 111.595 220.043C111.019 221.425 110.385 224.559 115.398 231.456C122.497 241.041 129.851 242.77 129.176 245.602C128.369 248.931 117.13 251.183 115.065 251.573C114.085 251.733 113.143 252.076 112.29 252.584C110.838 253.521 109.68 254.849 108.95 256.415C108.22 257.982 107.947 259.722 108.163 261.437C109.132 265.859 115.391 267.608 118.026 268.339C134.443 272.774 145.113 260.907 151.457 265.814Z" stroke="#FDB157" stroke-width="7.21839"/>
<path d="M25.676 186.273C24.7328 190.846 19.6279 188.803 3.79423 198.756C3.79423 198.756 -13.3345 209.59 -20.6267 208.8C-24.6851 208.365 -23.5578 207.232 -29.7449 205.813C-31.6442 205.387 -33.5655 205.064 -35.5 204.847C-26.3104 215.966 -16.5084 226.564 -6.13988 236.592C-5.43659 236.35 -4.75184 236.136 -4.09052 235.985C-4.15478 234.616 -4.40651 233.263 -4.83869 231.963C-5.02727 231.514 -5.13534 231.035 -5.15785 230.549C-5.14316 226.285 3.21211 223.003 9.45035 220.782C30.885 213.348 41.5725 209.63 49.0459 211.302C68.1113 215.58 74.3752 231.348 84.0355 227.673C89.3595 225.711 92.7878 218.71 92.4662 212.88C91.7722 200.089 73.1733 201.279 65.4139 185.036C58.8999 171.374 59.8968 145.072 57.6085 136.871C56.9581 134.642 55.6008 132.685 53.7412 131.294C53.559 131.147 53.3453 131.044 53.1167 130.993C52.8881 130.942 52.6507 130.944 52.4232 131C51.4887 130.609 50.4832 130.417 49.4706 130.436C47.9754 130.521 44.8794 131.317 40.8602 138.837C35.3321 149.407 36.985 156.778 34.1424 157.406C30.7947 158.132 23.865 149.002 22.6128 147.314C22.0416 146.501 21.3223 145.804 20.4925 145.258C19.0159 144.36 17.3158 143.898 15.588 143.924C13.8603 143.951 12.1751 144.464 10.7265 145.406C7.17025 148.208 8.32642 154.603 8.81904 157.293C11.9904 174 27.323 178.424 25.676 186.273Z" stroke="#FFE600" stroke-width="7.21839"/>
<circle cx="141.5" cy="130.5" r="50.5" fill="white"/>
</g>
<defs>
<clipPath id="clip0_5_122135">
<rect width="300" height="300" fill="white"/>
</clipPath>
</defs>
</svg>
