<svg width="300" height="300" viewBox="0 0 300 300" fill="none" xmlns="http://www.w3.org/2000/svg">
<rect width="300" height="300" fill="#FDB157"/>
<path d="M135.183 207.61H106.386V236.406H135.183V207.61Z" fill="#FFE600"/>
<path d="M135.183 178.812H106.386V207.609H135.183V178.812Z" fill="#31CFF4"/>
<path d="M106.386 150.02H77.5935V178.813H106.386V150.02Z" fill="#31CFF4"/>
<path d="M77.5937 121.224H48.7969V150.02H77.5937V121.224Z" fill="#FFE600"/>
<path d="M48.7968 92.4268H20V121.224H48.7968V92.4268Z" fill="#31CFF4"/>
<path d="M135.183 150.02H106.386V178.813H135.183V150.02Z" fill="#FFE600"/>
<path d="M135.183 121.224H106.386V150.02H135.183V121.224Z" fill="#31CFF4"/>
<path d="M135.183 92.4268H106.386V121.224H135.183V92.4268Z" fill="#FFE600"/>
<path d="M135.183 63.6301H106.386V92.4269H135.183V63.6301Z" fill="#31CFF4"/>
<path d="M163.979 150.02H135.183V178.813H163.979V150.02Z" fill="#31CFF4"/>
<path d="M192.777 121.224H163.98V150.02H192.777V121.224Z" fill="#31CFF4"/>
<path d="M135.183 236.406H106.386V265.203H135.183V236.406Z" fill="#31CFF4"/>
<path d="M135.183 265.203H106.386V294H135.183V265.203Z" fill="#FFE600"/>
<path d="M192.876 149.98H164.079V178.777H192.876V149.98Z" fill="#FFE600"/>
<path d="M192.876 121.183H164.079V149.979H192.876V121.183Z" fill="#FC565D"/>
<path d="M164.079 92.3901H135.287V121.182H164.079V92.3901Z" fill="#FC565D"/>
<path d="M135.287 63.5935H106.49V92.3903H135.287V63.5935Z" fill="#FFE600"/>
<path d="M106.49 34.7966H77.6931V63.5934H106.49V34.7966Z" fill="#FC565D"/>
<path d="M279.267 34.7966H250.47V63.5934H279.267V34.7966Z" fill="#FC565D"/>
<path d="M192.876 92.3901H164.079V121.182H192.876V92.3901Z" fill="#FFE600"/>
<path d="M192.876 63.5935H164.079V92.3903H192.876V63.5935Z" fill="#FC565D"/>
<path d="M192.876 34.7966H164.079V63.5934H192.876V34.7966Z" fill="#FFE600"/>
<path d="M192.876 6H164.079V34.7968H192.876V6Z" fill="#FC565D"/>
<path d="M221.673 92.3901H192.876V121.182H221.673V92.3901Z" fill="#FC565D"/>
<path d="M250.47 63.5935H221.673V92.3903H250.47V63.5935Z" fill="#FFE600"/>
<path d="M192.876 178.776H164.079V207.573H192.876V178.776Z" fill="#FC565D"/>
<path d="M192.876 207.573H164.079V236.37H192.876V207.573Z" fill="#FFE600"/>
<path d="M221.573 92.4268H192.777V121.224H221.573V92.4268Z" fill="#31CFF4"/>
</svg>
