<svg width="300" height="300" viewBox="0 0 300 300" fill="none" xmlns="http://www.w3.org/2000/svg">
<g clip-path="url(#clip0_7_143795)">
<rect width="300" height="300" fill="#FC565D"/>
<path d="M149.94 228.224C171.499 228.224 188.976 210.747 188.976 189.188C188.976 167.629 171.499 150.152 149.94 150.152C128.381 150.152 110.904 167.629 110.904 189.188C110.904 210.747 128.381 228.224 149.94 228.224Z" fill="#FFE600"/>
<mask id="mask0_7_143795" style="mask-type:luminance" maskUnits="userSpaceOnUse" x="110" y="150" width="79" height="79">
<path d="M149.94 228.222C171.499 228.222 188.976 210.745 188.976 189.186C188.976 167.627 171.499 150.15 149.94 150.15C128.381 150.15 110.904 167.627 110.904 189.186C110.904 210.745 128.381 228.222 149.94 228.222Z" fill="white"/>
</mask>
<g mask="url(#mask0_7_143795)">
<path d="M188.987 189.185C188.988 191.515 188.782 193.84 188.371 196.132C188.355 196.208 188.343 196.286 188.327 196.361C187.77 199.368 186.857 202.297 185.608 205.087C185.394 205.568 185.171 206.044 184.937 206.514C184.632 207.124 184.309 207.734 183.969 208.345C183.708 208.803 183.436 209.26 183.154 209.718C181.558 212.293 179.669 214.674 177.525 216.814C176.951 217.388 176.358 217.944 175.746 218.481C173.382 220.567 170.773 222.359 167.977 223.817C167.17 224.243 166.343 224.638 165.498 225.003C160.521 227.157 155.151 228.253 149.728 228.222C144.305 228.192 138.948 227.034 133.995 224.824C133.899 224.783 133.805 224.739 133.709 224.694C130.288 223.126 127.113 221.071 124.28 218.593L124.239 218.556C124.104 218.44 123.971 218.328 123.841 218.202C120.465 215.166 117.643 211.565 115.502 207.562C114.858 206.36 114.279 205.124 113.767 203.86C113.411 202.991 113.089 202.106 112.801 201.207C112.766 201.102 112.732 200.997 112.7 200.889C112.638 200.697 112.578 200.502 112.521 200.308C112.407 199.925 112.298 199.534 112.194 199.136C110.711 193.486 110.513 187.576 111.613 181.839C112.714 176.103 115.085 170.685 118.553 165.985C118.878 165.542 119.214 165.108 119.56 164.683C120.058 164.065 120.574 163.463 121.108 162.879L121.167 162.815L121.552 162.398L121.572 162.377C125.554 158.165 130.422 154.893 135.826 152.796C141.229 150.7 147.031 149.833 152.811 150.257C158.591 150.682 164.205 152.388 169.243 155.252C174.282 158.116 178.62 162.065 181.943 166.814C186.539 173.367 188.999 181.181 188.987 189.185Z" fill="#31CFF4"/>
<path d="M131.931 200.134H132.018C131.975 200.132 131.932 200.132 131.89 200.134H131.931Z" fill="#FC565D"/>
<path d="M180.785 183.779C180.366 188.128 164.06 185.505 155.952 194.219C152.917 197.483 148.007 206.01 147.254 208.105C147.011 208.831 146.559 209.468 145.954 209.936C145.338 210.369 144.607 210.608 143.855 210.623C143.508 210.62 143.164 210.57 142.831 210.474C141.126 209.927 140.501 206.354 140.453 206.058C139.617 200.999 140.968 196.73 140.718 193.725C139.993 185.015 125.766 186.482 113.936 172.436C111.647 169.721 108.476 165.276 104.166 165.296C102.584 165.296 100.673 165.912 96.541 165.928C94.7097 165.928 93.453 165.729 92.851 165.782C88.9114 166.127 86.4827 168.119 78.5533 168.696C67.0093 169.536 63.5711 165.949 59.1599 169.202C59.1599 169.202 53.9637 173.079 49.9326 174.654C47.4878 175.611 47.5839 174.954 46.08 175.755C43.3811 177.193 40.0024 184.939 40.0024 184.939C36.8664 192.077 34.6253 192.571 35.367 194.366C36.6397 197.444 42.9691 195.384 47.9571 200.464C48.7514 201.274 50.6514 203.211 50.0791 205.012C49.6876 206.241 48.17 207.301 46.7416 207.347C46.3271 207.356 45.9149 207.284 45.5283 207.134C44.6768 206.844 40.1695 205.319 39.1898 206.347C38.352 207.235 40.6457 209.394 41.2134 214.333C41.6094 217.84 40.7006 218.868 40.2039 219.246C39.8616 219.49 39.4716 219.659 39.0593 219.743C38.994 219.816 38.9123 219.873 38.8208 219.909C38.7293 219.945 38.6306 219.958 38.5328 219.949C37.3585 219.949 36.2781 219.262 35.8935 218.932C33.1878 216.632 27.3734 207.322 21.93 204.133C15.4518 200.34 9.31241 205.099 6.07333 200.846C4.60373 198.914 4.1688 195.693 5.52166 193.768C7.99618 190.241 13.8815 194.226 21.4355 191.234C24.4113 190.062 27.2292 186.271 32.881 178.692C34.5429 176.465 36.6603 173.377 35.6646 171.905C35.545 171.739 35.3951 171.597 35.2228 171.486C33.1076 169.907 32.2927 166.727 32.1279 166.221C30.9582 162.579 19.1029 158.299 15.6235 156.9C13.4557 156.03 -4.52065 148.087 -12.4707 133.334C-13.5077 131.409 -16.1333 126.1 -18.4567 126.487C-20.1896 126.773 -20.1461 129.957 -22.893 131.168C-24.9532 132.084 -27.826 131.56 -29.5154 130.024C-32.6538 127.176 -30.7355 122.094 -32.6377 121.325C-34.6132 120.531 -36.6643 126.004 -41.8537 127.506C-47.6451 129.181 -53.4938 124.802 -54.4254 124.072C-60.6358 119.247 -62.055 111.01 -62.5449 108.179C-63.5681 102.227 -62.316 99.3475 -64.9301 95.9688C-66.8461 93.5126 -68.5286 93.7483 -71.8295 91.6332C-72.2873 91.3494 -82.5425 84.5897 -82.4418 74.5542C-82.3777 67.2635 -76.8907 62.1794 -75.911 61.2775C-70.7651 56.5139 -67.3154 58.3932 -65.0011 55.1152C-59.9261 47.932 -74.3635 35.841 -70.1836 24.6977C-67.6496 17.9448 -59.2875 14.6897 -53.963 13.9572C-40.0636 12.0435 -25.6834 24.4871 -19.7707 37.2671C-13.3612 51.1276 -19.1526 60.5335 -11.1087 67.1673C-3.83391 73.1693 8.06714 71.3838 8.51123 69.6602C8.8111 68.4996 3.87808 67.5404 1.95981 62.7929C0.609238 59.4531 1.55234 56.2186 1.80415 55.3945C3.16387 50.9491 6.8974 48.4562 8.44255 47.4467C21.7354 38.8283 55.7217 38.4529 70.0195 23.7019C86.0638 7.15632 81.2361 -31.4768 92.3771 -40.5714C93.0341 -41.107 96.0008 -43.3778 95.6071 -45.7241C95.1172 -48.6565 89.9347 -48.4871 86.3019 -51.8086C80.1671 -57.41 80.1213 -71.401 86.073 -76.2287C91.3379 -80.4933 98.9858 -75.6953 101.165 -79.0031C104.37 -83.872 88.1606 -94.8482 91.0426 -104.822C92.8029 -110.918 101.52 -115.958 108.712 -113.951C114.813 -112.245 118.874 -105.85 119.242 -100.646C119.457 -97.5768 118.411 -94.5941 119.086 -94.3537C119.762 -94.1134 120.762 -97.2472 123.207 -99.2547C126.858 -102.249 132.832 -102.022 136.113 -100.646C147.611 -95.8394 152.53 -69.9588 143.063 -58.756C139.995 -55.114 135.465 -53.1042 135.998 -50.1238C136.481 -47.3975 140.526 -47.6333 145.526 -44.5086C155.895 -38.0351 154.291 -27.1802 164.244 -23.22C164.589 -23.0827 164.994 -22.9545 164.994 -22.9545C166.704 -22.3717 168.459 -21.9292 170.241 -21.6314C172.505 -21.2354 182.614 -19.4728 183.374 -15.6614C183.74 -13.8301 181.771 -11.921 177.816 -8.10739C173.716 -4.15869 172.684 -4.47001 171.457 -2.61355C168.776 1.44273 171.132 6.81982 173.92 15.4177C175.964 21.7241 177.175 28.2801 179.171 34.6049C184.134 50.3058 185.383 91.1296 164.463 116.692C156.811 126.031 145.283 140.114 136.12 146.114C134.636 147.084 131.264 149.122 129.078 153.196C128.497 154.281 125.24 159.535 126.16 165.301C127.831 175.778 142.392 183.341 149.641 180.043C156.007 177.142 157.138 168.462 162.023 168.92C164.571 169.149 167.517 171.921 167.368 173.592C167.222 175.194 166.979 175.709 166.979 175.709C166.764 176.602 166.604 176.939 166.652 177.264C166.672 177.353 166.698 177.44 166.732 177.525C167.119 178.44 171.864 177.735 174.899 178.548C177.688 179.287 180.97 181.84 180.785 183.779Z" fill="#FDB157"/>
<path d="M131.931 200.134H132.018C131.975 200.132 131.932 200.132 131.89 200.134H131.931Z" fill="#FC565D"/>
</g>
<path d="M51.0387 72.0727C72.5977 72.0727 90.0748 54.5957 90.0748 33.0367C90.0748 11.4777 72.5977 -5.99927 51.0387 -5.99927C29.4796 -5.99927 12.0026 11.4777 12.0026 33.0367C12.0026 54.5957 29.4796 72.0727 51.0387 72.0727Z" fill="#FFE600"/>
<mask id="mask1_7_143795" style="mask-type:luminance" maskUnits="userSpaceOnUse" x="12" y="-6" width="79" height="79">
<path d="M51.0361 72.072C72.5951 72.072 90.0722 54.595 90.0722 33.036C90.0722 11.477 72.5951 -6 51.0361 -6C29.4771 -6 12 11.477 12 33.036C12 54.595 29.4771 72.072 51.0361 72.072Z" fill="white"/>
</mask>
<g mask="url(#mask1_7_143795)">
<path d="M90.0747 33.0364C90.076 35.3659 89.8699 37.6909 89.4589 39.9838C89.4429 40.0593 89.4314 40.1372 89.4154 40.2127C88.858 43.2189 87.9451 46.1482 86.6959 48.9388C86.4823 49.4195 86.2587 49.8948 86.0252 50.3649C85.72 50.9753 85.3972 51.5857 85.0569 52.1961C84.796 52.654 84.5243 53.1118 84.242 53.5696C82.6459 56.1443 80.757 58.5256 78.6131 60.6658C78.0393 61.2396 77.4464 61.7951 76.8345 62.3323C74.47 64.4185 71.8612 66.2103 69.0652 67.6682C68.258 68.0939 67.4316 68.4892 66.5862 68.8539C61.6093 71.008 56.239 72.1044 50.8161 72.0737C45.3931 72.043 40.0357 70.8857 35.0835 68.6754C34.9874 68.6342 34.8935 68.5907 34.7974 68.5449C31.3765 66.977 28.2006 64.9222 25.3685 62.4444L25.3273 62.4078C25.1923 62.2911 25.0595 62.1789 24.929 62.053C21.5533 59.0169 18.7315 55.4166 16.5898 51.4133C15.9466 50.2109 15.3674 48.9753 14.8547 47.7118C14.4991 46.8419 14.1771 45.9576 13.8887 45.0587C13.8543 44.9534 13.82 44.8481 13.788 44.7405C13.7261 44.5483 13.6666 44.3537 13.6094 44.1591C13.4949 43.7761 13.3858 43.3854 13.2821 42.9871C11.7994 37.3372 11.601 31.427 12.7015 25.6904C13.8019 19.9539 16.1732 14.5366 19.6412 9.83637C19.9662 9.39382 20.302 8.95965 20.6484 8.53388C21.1459 7.91582 21.6617 7.31455 22.1958 6.73007L22.2554 6.66597L22.6399 6.24936L22.6605 6.22875C26.6417 2.01682 31.5106 -1.25607 36.9138 -3.35244C42.3171 -5.4488 48.1193 -6.31608 53.8994 -5.89133C59.6796 -5.46658 65.2926 -3.76047 70.3314 -0.896776C75.3702 1.96692 79.7084 5.91637 83.0311 10.665C87.6269 17.2188 90.0868 25.0318 90.0747 33.0364Z" fill="#FDB157"/>
<path d="M68.6304 44.5896C68.4381 46.5948 60.9276 45.3862 57.1849 49.3967C55.7862 50.9006 53.5223 54.8287 53.1721 55.7924C53.0611 56.1282 52.8522 56.4232 52.5723 56.6394C52.2889 56.8387 51.9527 56.9494 51.6063 56.9576C51.4468 56.9555 51.2883 56.9324 51.1348 56.8889C50.3496 56.6371 50.0635 54.9867 50.0406 54.8539C49.656 52.5236 50.2695 50.5573 50.1619 49.1746C49.8277 45.1618 43.274 45.8371 37.8236 39.3727C36.7683 38.1229 35.3056 36.0741 33.3233 36.0833C32.5953 36.0833 31.7209 36.3671 29.8118 36.374C28.9671 36.374 28.3879 36.2824 28.111 36.3076C26.2957 36.4679 25.1786 37.3835 21.5252 37.649C16.2076 38.0382 14.6258 36.3809 12.5977 37.8779C12.5977 37.8779 10.2056 39.6634 8.34682 40.396C7.22059 40.8377 7.26637 40.5333 6.57277 40.9041C5.32978 41.5657 3.77319 45.1321 3.77319 45.1321C2.32877 48.4215 1.29638 48.6482 1.63975 49.4814C2.22576 50.9006 5.13979 49.9506 7.43118 52.2901C7.79973 52.6655 8.67417 53.556 8.41092 54.3869C8.23008 54.9523 7.52961 55.4422 6.87264 55.4628C6.68187 55.4662 6.49223 55.4327 6.3141 55.3644C5.92266 55.2293 3.84644 54.5266 3.3932 55.0004C3.00863 55.4101 4.06391 56.4036 4.32716 58.679C4.51029 60.2951 4.09825 60.7689 3.86934 60.9429C3.71056 61.056 3.52953 61.1341 3.33826 61.1718C3.30966 61.2037 3.27422 61.2287 3.23457 61.245C3.19493 61.2612 3.15212 61.2683 3.10935 61.2657C2.66501 61.2467 2.23836 61.0863 1.89155 60.8078C0.646277 59.748 -2.03198 55.4582 -4.54084 53.9909C-7.51667 52.242 -10.3529 54.435 -11.8431 52.4755C-12.5298 51.5851 -12.7198 50.104 -12.0995 49.2158C-10.9549 47.5906 -8.24689 49.4219 -4.77432 48.0484C-3.40086 47.5105 -2.10752 45.7593 0.490619 42.2707C1.25518 41.2475 2.23034 39.8237 1.77252 39.1461C1.71723 39.0698 1.64812 39.0046 1.56879 38.9538C0.593627 38.2259 0.218214 36.7609 0.142674 36.5274C-0.392977 34.8266 -5.85478 32.8557 -7.45715 32.2124C-8.4552 31.8095 -16.7395 28.1516 -20.3975 21.3552C-20.8736 20.4693 -22.0822 18.0246 -23.1444 18.2031C-23.9433 18.3336 -23.9227 19.8055 -25.1886 20.3595C-25.6972 20.5539 -26.2488 20.6077 -26.7854 20.515C-27.322 20.4224 -27.8237 20.1867 -28.2376 19.833C-29.6844 18.5213 -28.8008 16.1704 -29.6775 15.8271C-30.5542 15.4837 -31.5317 17.9811 -33.9215 18.6747C-36.5883 19.4461 -39.2826 17.4294 -39.7106 17.0952C-42.572 14.8725 -43.2267 11.0795 -43.451 9.7701C-43.9226 7.02319 -43.3412 5.70238 -44.5498 4.14808C-45.4334 3.00353 -46.2094 3.12485 -47.7294 2.14969C-47.9377 2.01921 -52.6624 -1.09396 -52.6166 -5.71794C-52.5869 -9.07604 -50.0597 -11.4155 -49.6087 -11.8344C-47.2372 -14.0297 -45.6486 -13.1621 -44.5727 -14.6729C-42.2332 -17.9806 -48.8854 -23.55 -46.9579 -28.6822C-45.7928 -31.7931 -41.9402 -33.2924 -39.4886 -33.6289C-33.0791 -34.5102 -26.4613 -28.7806 -23.7396 -22.893C-20.8072 -16.5042 -23.4809 -12.1801 -19.7702 -9.11725C-16.419 -6.35202 -10.9366 -7.1738 -10.7329 -7.9727C-10.5955 -8.50606 -12.8663 -8.95014 -13.7499 -11.1362C-14.3725 -12.6768 -13.9376 -14.1647 -13.8232 -14.5447C-13.1959 -16.5934 -11.4768 -17.7494 -10.7603 -18.2073C-4.63698 -22.1697 11.0159 -22.3437 17.6063 -29.1377C24.9978 -36.7581 22.7705 -54.5467 27.9072 -58.7426C28.2094 -58.9875 29.576 -60.0337 29.3951 -61.1164C29.1662 -62.467 26.781 -62.3869 25.1076 -63.9183C22.2829 -66.4981 22.26 -72.9419 25.0024 -75.1646C27.4334 -77.1309 30.954 -74.9197 31.9544 -76.4442C33.4331 -78.6875 25.9638 -83.7419 27.2915 -88.3361C28.1018 -91.1448 32.1169 -93.4659 35.4292 -92.5411C38.2402 -91.756 40.1104 -88.8099 40.2798 -86.4132C40.3783 -84.9986 39.8953 -83.6251 40.2066 -83.5152C40.5179 -83.4054 40.978 -84.8475 42.1065 -85.7723C43.789 -87.1457 46.5405 -87.045 48.0582 -86.4132C53.3552 -84.1928 55.6123 -72.278 51.263 -67.1161C49.8506 -65.4382 47.7652 -64.5134 48.0101 -63.14C48.2391 -61.8833 50.0955 -61.9954 52.3984 -60.5533C57.1757 -57.5775 56.4363 -52.5735 61.0191 -50.7514C61.1794 -50.6873 61.3648 -50.63 61.3671 -50.63C62.1539 -50.3603 62.9616 -50.1559 63.7821 -50.0189C64.8259 -49.838 69.4819 -49.0254 69.8322 -47.2719C69.9993 -46.425 69.0905 -45.5482 67.2707 -43.7948C65.3822 -41.9773 64.906 -42.1215 64.3406 -41.2768C63.1068 -39.4089 64.1918 -36.9275 65.4852 -32.9719C66.4283 -30.0671 66.9845 -27.0478 67.9048 -24.1337C70.1939 -16.9025 70.7661 1.90247 61.1313 13.6753C57.6129 17.9719 52.3022 24.4593 48.0834 27.2222C47.3967 27.6686 45.8469 28.6071 44.8397 30.4842C44.5719 30.9832 43.0725 33.4028 43.496 36.0581C44.2652 40.8858 50.9722 44.3698 54.312 42.8499C57.2467 41.513 57.764 37.5186 60.0142 37.7223C61.1885 37.8299 62.546 39.0957 62.4773 39.874C62.4658 40.2063 62.4049 40.5349 62.2964 40.8492C62.198 41.2612 62.1248 41.4169 62.1454 41.5657C62.156 41.6068 62.169 41.6474 62.1843 41.687C62.3605 42.1128 64.5466 41.7831 65.9453 42.1586C67.2043 42.5157 68.7174 43.6923 68.6304 44.5896Z" fill="#FC565D"/>
</g>
<path d="M149.94 72.0749C171.499 72.0749 188.976 54.5979 188.976 33.0389C188.976 11.4799 171.499 -5.99707 149.94 -5.99707C128.381 -5.99707 110.903 11.4799 110.903 33.0389C110.903 54.5979 128.381 72.0749 149.94 72.0749Z" fill="#FFE600"/>
<mask id="mask2_7_143795" style="mask-type:luminance" maskUnits="userSpaceOnUse" x="110" y="-6" width="79" height="79">
<path d="M149.94 72.0722C171.499 72.0722 188.976 54.5952 188.976 33.0362C188.976 11.4773 171.499 -5.99976 149.94 -5.99976C128.381 -5.99976 110.904 11.4773 110.904 33.0362C110.904 54.5952 128.381 72.0722 149.94 72.0722Z" fill="white"/>
</mask>
<g mask="url(#mask2_7_143795)">
<path d="M189.005 33.0755C189.007 35.4049 188.801 37.7299 188.39 40.0229C188.376 40.0984 188.362 40.174 188.346 40.2518C187.789 43.2595 186.876 46.1903 185.627 48.9824C185.413 49.4631 185.189 49.9385 184.956 50.4085C184.649 51.0266 184.326 51.6378 183.988 52.2398C183.727 52.6976 183.455 53.1554 183.173 53.6132C181.577 56.188 179.688 58.5692 177.544 60.7095C176.97 61.2833 176.377 61.8387 175.765 62.3759C173.401 64.4614 170.792 66.2523 167.996 67.7095C167.186 68.1338 166.359 68.5283 165.517 68.893C160.541 71.0458 155.173 72.1415 149.751 72.1108C144.33 72.08 138.974 70.9235 134.023 68.7144L133.737 68.584C130.317 67.0158 127.141 64.9618 124.308 62.4858L124.267 62.4515C124.132 62.3347 123.999 62.2225 123.869 62.0966C120.49 59.0616 117.665 55.4612 115.521 51.4569C114.877 50.2553 114.298 49.0205 113.785 47.7577C113.433 46.8879 113.111 46.0035 112.819 45.1047C112.785 44.9994 112.751 44.8941 112.719 44.7865C112.657 44.5942 112.597 44.3996 112.54 44.2051C112.426 43.8159 112.311 43.4268 112.213 43.033C110.729 37.3821 110.53 31.4706 111.631 25.7328C112.731 19.9949 115.103 14.5765 118.572 9.87544C118.897 9.43441 119.233 9.00025 119.579 8.57295C120.077 7.96252 120.592 7.36049 121.127 6.76685L121.186 6.70504C121.314 6.56312 121.443 6.42577 121.571 6.28843L121.591 6.26783C125.573 2.05625 130.442 -1.21616 135.846 -3.31197C141.249 -5.40778 147.052 -6.27442 152.832 -5.84901C158.612 -5.42361 164.225 -3.71683 169.263 -0.852502C174.302 2.01182 178.64 5.96184 181.962 10.711C186.556 17.2631 189.015 25.0734 189.005 33.0755Z" fill="#31CFF4"/>
<path d="M130.777 43.7563H130.864C130.822 43.7541 130.779 43.7541 130.736 43.7563H130.777Z" fill="#FC565D"/>
<path d="M239.061 76.161C238.881 78.0357 231.86 76.9049 228.367 80.659C227.06 82.0645 224.947 85.7362 224.617 86.6381C224.513 86.9518 224.318 87.2275 224.056 87.4302C223.791 87.616 223.476 87.7187 223.152 87.7255C223.003 87.7249 222.855 87.7033 222.713 87.6614C221.978 87.4325 221.708 85.885 221.687 85.7614C221.328 83.5822 221.916 81.7418 221.802 80.4484C221.49 76.6966 215.362 77.3284 210.264 71.292C209.278 70.1246 207.914 68.2109 206.057 68.2178C205.37 68.2178 204.553 68.4833 202.772 68.4902C201.985 68.4902 201.442 68.4055 201.184 68.4284C199.487 68.5772 198.437 69.4333 195.026 69.6828C190.054 70.0445 188.573 68.4948 186.675 69.9003C186.675 69.9003 184.437 71.5713 182.699 72.2489C181.646 72.6609 181.69 72.3771 181.042 72.7227C179.879 73.3408 178.423 76.6783 178.423 76.6783C177.072 79.7525 176.109 79.9654 176.427 80.7369C176.974 82.0645 179.7 81.1764 181.843 83.3624C182.186 83.7127 183.004 84.5482 182.759 85.3242C182.638 85.61 182.439 85.856 182.185 86.0338C181.93 86.2116 181.631 86.3139 181.321 86.3291C181.143 86.3328 180.965 86.3017 180.799 86.2376C180.431 86.1117 178.489 85.4547 178.068 85.8988C177.707 86.2811 178.695 87.2104 178.94 89.3324C179.11 90.8432 178.711 91.285 178.505 91.4475C178.357 91.5529 178.189 91.6261 178.011 91.6627C177.983 91.6944 177.947 91.7188 177.907 91.7339C177.867 91.749 177.824 91.7545 177.782 91.7497C177.364 91.7309 176.963 91.5784 176.638 91.3148C175.472 90.3236 172.975 86.3131 170.622 84.9396C167.834 83.3052 165.187 85.3563 163.793 83.525C163.162 82.6917 162.974 81.3045 163.564 80.4759C164.631 78.9559 167.165 80.6682 170.42 79.384C171.698 78.8804 172.913 77.2483 175.351 73.9817C176.065 73.0249 176.979 71.6926 176.548 71.0608C176.497 70.9889 176.433 70.9275 176.358 70.88C175.443 70.1933 175.097 68.8198 175.026 68.6115C174.522 67.0435 169.415 65.1984 167.918 64.5964C166.987 64.2164 159.24 60.7965 155.818 54.4328C155.36 53.6042 154.241 51.3196 153.241 51.4845C152.494 51.6081 152.513 52.9792 151.329 53.5012C150.853 53.683 150.337 53.7333 149.836 53.6467C149.334 53.5601 148.864 53.3398 148.477 53.009C147.126 51.782 147.953 49.5937 147.133 49.264C146.314 48.9344 145.4 51.2784 143.164 51.9263C140.669 52.6473 138.151 50.7611 137.75 50.4498C135.074 48.3713 134.463 44.8255 134.252 43.6054C133.813 41.0439 134.358 39.8009 133.225 38.3405C132.401 37.2829 131.675 37.3836 130.249 36.4726C130.054 36.3489 125.636 33.4395 125.671 29.1154C125.698 25.977 128.06 23.7887 128.482 23.3926C130.7 21.3325 132.185 22.1497 133.181 20.7373C135.367 17.6447 129.15 12.437 130.949 7.63907C132.055 4.75938 135.656 3.3493 137.949 3.0334C143.935 2.20933 150.127 7.56811 152.675 13.0734C155.436 19.0411 152.941 23.0928 156.404 25.9496C159.538 28.534 164.663 27.7648 164.856 27.0232C164.984 26.5241 162.859 26.1075 162.033 24.0656C161.654 23.041 161.631 21.9187 161.967 20.8792C162.553 18.9632 164.16 17.8897 164.83 17.4456C170.553 13.7349 185.192 13.5724 191.352 7.22016C198.263 0.103354 196.182 -16.5292 200.982 -20.4505C201.264 -20.6794 202.541 -21.6591 202.372 -22.6709C202.161 -23.9345 199.929 -23.8612 198.366 -25.2919C195.724 -27.7023 195.701 -33.7295 198.267 -35.808C200.538 -37.6393 203.828 -35.5791 204.766 -37.0029C206.14 -39.0997 199.167 -43.8267 200.417 -48.1211C201.174 -50.749 204.929 -52.9282 208.026 -52.0538C210.654 -51.319 212.402 -48.5652 212.558 -46.331C212.652 -45.0102 212.201 -43.7237 212.492 -43.6207C212.782 -43.5177 213.213 -44.8683 214.268 -45.7313C215.841 -47.0223 218.414 -46.9239 219.826 -46.331C224.78 -44.2548 226.897 -33.116 222.82 -28.2883C221.499 -26.7203 219.547 -25.855 219.778 -24.5708C219.984 -23.3965 221.728 -23.4972 223.88 -22.1513C228.346 -19.3631 227.655 -14.6888 231.942 -12.9949C232.091 -12.9376 232.265 -12.8827 232.265 -12.8827C232.998 -12.6266 233.751 -12.4299 234.515 -12.2944C235.49 -12.125 239.844 -11.365 240.172 -9.72374C240.33 -8.93171 239.485 -8.12137 237.777 -6.47322C236.012 -4.77242 235.568 -4.90748 235.03 -4.10858C233.886 -2.362 234.888 -0.0454353 236.09 3.65604C236.971 6.3732 237.491 9.19794 238.352 11.9197C240.49 18.684 241.028 36.2642 232.018 47.2748C228.728 51.2899 223.763 57.3468 219.817 59.9404C219.178 60.3593 217.727 61.236 216.784 62.9895C216.534 63.4473 215.131 65.7204 215.527 68.204C216.248 72.7159 222.518 75.9732 225.64 74.5517C228.387 73.3019 228.87 69.5683 230.972 69.7583C232.07 69.8591 233.341 71.0517 233.275 71.7704C233.266 72.0824 233.209 72.3912 233.107 72.6861C233.014 73.0729 232.945 73.2172 232.966 73.3568C232.975 73.3949 232.986 73.4323 233 73.469C233.167 73.8696 235.211 73.5605 236.518 73.9108C237.72 74.2267 239.142 75.3254 239.061 76.161Z" fill="#FC565D"/>
<path d="M130.777 43.7563H130.864C130.822 43.7541 130.779 43.7541 130.736 43.7563H130.777Z" fill="#FC565D"/>
</g>
<path d="M248.839 72.0752C270.398 72.0752 287.875 54.5982 287.875 33.0392C287.875 11.4802 270.398 -5.99683 248.839 -5.99683C227.28 -5.99683 209.802 11.4802 209.802 33.0392C209.802 54.5982 227.28 72.0752 248.839 72.0752Z" fill="#FFE600"/>
<mask id="mask3_7_143795" style="mask-type:luminance" maskUnits="userSpaceOnUse" x="209" y="-6" width="79" height="79">
<path d="M248.838 72.0722C270.397 72.0722 287.874 54.5952 287.874 33.0362C287.874 11.4773 270.397 -5.99976 248.838 -5.99976C227.279 -5.99976 209.802 11.4773 209.802 33.0362C209.802 54.5952 227.279 72.0722 248.838 72.0722Z" fill="white"/>
</mask>
<g mask="url(#mask3_7_143795)">
<path d="M287.867 33.043C287.868 35.3725 287.662 37.6974 287.251 39.9904C287.235 40.0659 287.224 40.1438 287.208 40.2193C286.65 43.2255 285.737 46.1547 284.488 48.9453C284.275 49.4261 284.051 49.9014 283.817 50.3715C283.512 50.9819 283.189 51.5923 282.849 52.2027C282.588 52.6606 282.317 53.1184 282.034 53.5762C280.438 56.1509 278.549 58.5322 276.405 60.6724C275.832 61.2462 275.239 61.8017 274.627 62.3389C272.262 64.4251 269.653 66.2168 266.857 67.6748C266.05 68.1005 265.224 68.4958 264.378 68.8605C259.401 71.0146 254.031 72.111 248.608 72.0803C243.185 72.0496 237.828 70.8923 232.876 68.682C232.78 68.6408 232.686 68.5973 232.59 68.5515C229.169 66.9836 225.993 64.9288 223.161 62.451L223.12 62.4144C222.985 62.2977 222.852 62.1855 222.721 62.0596C219.346 59.0235 216.524 55.4232 214.382 51.4199C213.739 50.2175 213.16 48.9819 212.647 47.7184C212.291 46.8485 211.969 45.9642 211.681 45.0653C211.647 44.96 211.612 44.8547 211.58 44.7471C211.518 44.5549 211.459 44.3603 211.402 44.1657C211.287 43.7827 211.178 43.392 211.074 42.9937C209.592 37.3438 209.393 31.4336 210.494 25.697C211.594 19.9605 213.965 14.5432 217.433 9.84297C217.758 9.40041 218.094 8.96624 218.441 8.54047C218.938 7.92241 219.454 7.32114 219.988 6.73666L220.048 6.67257L220.432 6.25595L220.453 6.23535C224.434 2.02341 229.303 -1.24948 234.706 -3.34585C240.109 -5.44221 245.912 -6.30949 251.692 -5.88474C257.472 -5.45999 263.085 -3.75388 268.124 -0.890184C273.162 1.97351 277.501 5.92296 280.823 10.6716C285.419 17.2254 287.879 25.0384 287.867 33.043Z" fill="#FFE600"/>
<path d="M251.538 67.451C251.428 68.5955 247.143 67.9088 245.014 70.1979C244.215 71.0563 242.927 73.295 242.725 73.8467C242.661 74.0376 242.543 74.2055 242.384 74.3297C242.222 74.4431 242.03 74.506 241.832 74.5106C241.741 74.5094 241.65 74.4963 241.562 74.4716C241.116 74.3274 240.951 73.3866 240.937 73.3111C240.708 71.9811 241.072 70.8594 241.008 70.0697C240.818 67.7806 237.078 68.1675 233.969 64.4797C233.367 63.7655 232.534 62.5981 231.401 62.6027C230.987 62.6027 230.485 62.7652 229.398 62.7698C228.917 62.7698 228.588 62.7171 228.43 62.7309C227.395 62.8224 226.756 63.3443 224.673 63.4977C221.64 63.7266 220.736 62.7721 219.578 63.6282C219.578 63.6282 218.204 64.6491 217.154 65.0634C216.51 65.313 216.536 65.1413 216.14 65.3519C215.432 65.7296 214.537 67.7646 214.537 67.7646C213.713 69.6394 213.125 69.7698 213.319 70.2414C213.654 71.0494 215.318 70.5092 216.625 71.8438C216.833 72.0566 217.332 72.5648 217.181 73.0387C217.109 73.2134 216.989 73.3643 216.835 73.474C216.682 73.5837 216.5 73.6479 216.311 73.659C216.203 73.6606 216.095 73.642 215.993 73.6041C215.764 73.5262 214.585 73.1256 214.327 73.3958C214.098 73.6247 214.709 74.1969 214.86 75.4949C214.963 76.4105 214.725 76.6852 214.594 76.7859C214.504 76.8496 214.401 76.894 214.292 76.9164C214.275 76.9354 214.254 76.95 214.23 76.9591C214.206 76.9683 214.18 76.9717 214.155 76.969C213.904 76.9541 213.664 76.8613 213.468 76.7035C212.758 76.0992 211.232 73.6521 209.806 72.812C208.105 71.8163 206.491 73.0661 205.642 71.9491C205.255 71.4409 205.14 70.5939 205.495 70.088C206.145 69.1609 207.693 70.207 209.677 69.4242C210.456 69.1151 211.2 68.1194 212.685 66.1279C213.122 65.5419 213.679 64.7315 213.415 64.3447C213.385 64.3007 213.346 64.2633 213.301 64.2348C212.745 63.8205 212.53 62.9827 212.488 62.8499C212.179 61.893 209.066 60.7691 208.151 60.4005C207.565 60.1533 202.84 58.0771 200.752 54.2017C200.482 53.6981 199.791 52.3017 199.182 52.4047C198.724 52.4803 198.738 53.3204 198.014 53.634C197.724 53.7455 197.409 53.7765 197.103 53.7237C196.797 53.6709 196.511 53.5363 196.275 53.3341C195.451 52.5856 195.954 51.251 195.455 51.045C194.956 50.839 194.398 52.2742 193.033 52.668C191.511 53.1098 189.975 51.9584 189.73 51.7684C188.098 50.5002 187.725 48.3347 187.597 47.593C187.329 46.0296 187.661 45.2719 186.969 44.3883C186.466 43.7428 186.024 43.8046 185.156 43.2438C185.037 43.1705 182.343 41.3942 182.368 38.7571C182.387 36.8411 183.826 35.5066 184.085 35.2685C185.438 34.0164 186.345 34.5108 186.951 33.6479C188.286 31.7616 184.493 28.5844 185.589 25.6566C186.255 23.8826 188.453 23.0264 189.851 22.8342C193.514 22.3328 197.282 25.6017 198.836 28.9598C200.521 32.6017 198.999 35.0717 201.112 36.816C203.023 38.3932 206.148 37.9239 206.267 37.4706C206.344 37.1662 205.049 36.9144 204.545 35.6646C204.314 35.0396 204.3 34.3553 204.504 33.7211C204.861 32.5537 205.841 31.8898 206.251 31.6334C209.744 29.3695 218.674 29.2711 222.432 25.3957C226.646 21.0464 225.376 10.8965 228.306 8.50669C228.478 8.36705 229.258 7.7696 229.155 7.15383C229.025 6.3824 227.665 6.42819 226.711 5.55146C225.108 4.07957 225.085 0.403279 226.649 -0.858015C228.036 -1.97967 230.044 -0.718379 230.616 -1.58824C231.458 -2.86784 227.191 -5.74982 227.956 -8.37084C228.414 -9.9732 230.703 -11.2963 232.598 -10.7698C234.201 -10.312 235.267 -8.64095 235.363 -7.27436C235.421 -6.46859 235.134 -5.67199 235.322 -5.62163C235.51 -5.57127 235.764 -6.38161 236.405 -6.9081C237.364 -7.69555 238.923 -7.63603 239.797 -7.27436C242.819 -6.00849 244.11 0.787847 241.629 3.73392C240.823 4.69076 239.635 5.21725 239.775 6.00012C239.9 6.71661 240.965 6.65481 242.276 7.47659C245.001 9.17739 244.579 12.0296 247.196 13.0689C247.285 13.1032 247.393 13.1375 247.393 13.1375C247.84 13.2904 248.3 13.4067 248.766 13.4855C249.361 13.5885 252.017 14.0532 252.216 15.0535C252.314 15.5365 251.795 16.0378 250.755 17.0359C249.679 18.0751 249.407 17.9927 249.084 18.4803C248.382 19.547 249 20.9594 249.732 23.2187C250.27 24.876 250.588 26.5974 251.106 28.2547C252.41 32.3751 252.738 43.1064 247.242 49.8226C245.234 52.272 242.206 55.9734 239.797 57.5483C239.028 57.9963 238.39 58.6389 237.948 59.4117C237.794 59.6955 236.941 61.0758 237.181 62.5912C237.62 65.3381 241.446 67.3319 243.362 66.4644C245.037 65.7021 245.332 63.4222 246.614 63.5389C247.285 63.6007 248.059 64.3286 248.02 64.7682C248.013 64.9576 247.978 65.1451 247.917 65.3244C247.868 65.4551 247.839 65.5925 247.832 65.7319C247.837 65.7554 247.844 65.7783 247.853 65.8005C247.953 66.0432 249.201 65.8555 249.998 66.0684C250.723 66.2698 251.586 66.9405 251.538 67.451Z" fill="#FDB157"/>
</g>
<path d="M51.0387 228.217C72.5977 228.217 90.0748 210.74 90.0748 189.181C90.0748 167.622 72.5977 150.145 51.0387 150.145C29.4796 150.145 12.0026 167.622 12.0026 189.181C12.0026 210.74 29.4796 228.217 51.0387 228.217Z" fill="#FFE600"/>
<mask id="mask4_7_143795" style="mask-type:luminance" maskUnits="userSpaceOnUse" x="12" y="150" width="79" height="79">
<path d="M51.0361 228.218C72.5951 228.218 90.0722 210.741 90.0722 189.182C90.0722 167.623 72.5951 150.146 51.0361 150.146C29.4771 150.146 12 167.623 12 189.182C12 210.741 29.4771 228.218 51.0361 228.218Z" fill="white"/>
</mask>
<g mask="url(#mask4_7_143795)">
<path d="M91.2465 189.449C91.2478 191.779 91.0418 194.104 90.6307 196.397C90.617 196.472 90.6033 196.548 90.5873 196.626C90.0302 199.634 89.1173 202.564 87.8678 205.356C87.6541 205.837 87.4306 206.313 87.1971 206.783C86.8903 207.401 86.5676 208.012 86.2288 208.614C85.9678 209.072 85.6962 209.529 85.4139 209.987C83.8177 212.562 81.9288 214.943 79.785 217.083C79.2112 217.657 78.6183 218.213 78.0063 218.75C75.6418 220.835 73.033 222.626 70.2371 224.084C69.4268 224.508 68.6004 224.902 67.758 225.267C62.7824 227.42 57.4138 228.516 51.9925 228.485C46.5712 228.454 41.2154 227.298 36.2645 225.088L35.9784 224.958C32.5582 223.39 29.3825 221.336 26.5496 218.86L26.5083 218.825C26.3733 218.709 26.2405 218.597 26.11 218.471C22.7308 215.436 19.9058 211.835 17.7617 207.831C17.1185 206.629 16.5393 205.395 16.0265 204.132C15.674 203.262 15.352 202.378 15.0605 201.479C15.0262 201.373 14.9919 201.268 14.9598 201.161C14.898 200.968 14.8385 200.774 14.7813 200.579C14.6668 200.19 14.5524 199.801 14.4539 199.407C12.9702 193.756 12.7713 187.845 13.8717 182.107C14.9721 176.369 17.344 170.95 20.8131 166.249C21.1381 165.808 21.4738 165.374 21.8203 164.947C22.3178 164.337 22.8336 163.735 23.3677 163.141L23.4272 163.079C23.5554 162.937 23.6836 162.8 23.8118 162.662L23.8324 162.642C27.814 158.43 32.6833 155.158 38.0869 153.062C43.4904 150.966 49.2928 150.1 55.0729 150.525C60.8531 150.95 66.466 152.657 71.5046 155.522C76.5431 158.386 80.8808 162.336 84.2029 167.085C88.7967 173.637 91.2565 181.447 91.2465 189.449Z" fill="#FFE600"/>
<path d="M33.0179 200.126H33.1049C33.0622 200.123 33.0194 200.123 32.9767 200.126H33.0179Z" fill="#FC565D"/>
<path d="M88.7982 251.689C88.6654 253.063 83.5172 252.234 80.9557 254.988C79.9989 256.018 78.4377 258.71 78.2088 259.371C78.1317 259.602 77.9884 259.804 77.7967 259.953C77.6572 260.056 77.4956 260.125 77.3247 260.154C77.1538 260.184 76.9783 260.173 76.8124 260.122C76.2722 259.951 76.0753 258.82 76.0616 258.728C75.7961 257.126 76.2241 255.782 76.144 254.837C75.9151 252.09 71.4216 252.548 67.6743 248.116C66.9532 247.26 65.9506 245.854 64.5886 245.861C64.0896 245.861 63.4875 246.056 62.1828 246.06C61.6036 246.06 61.2076 245.999 61.0153 246.015C59.7723 246.124 59.0055 246.752 56.5012 246.93C52.8547 247.196 51.7696 246.06 50.3778 247.09C50.3778 247.09 48.7366 248.315 47.4638 248.812C46.6901 249.114 46.7221 248.906 46.246 249.16C45.3945 249.618 44.3277 252.06 44.3277 252.06C43.3366 254.315 42.6292 254.47 42.8627 255.036C43.2656 256.009 45.264 255.359 46.8343 256.961C47.0861 257.22 47.6859 257.831 47.505 258.399C47.4171 258.608 47.2715 258.789 47.0851 258.919C46.8987 259.05 46.6792 259.125 46.452 259.136C46.3208 259.138 46.1902 259.116 46.0675 259.069C45.7996 258.978 44.3758 258.495 44.0668 258.82C43.8012 259.101 44.5246 259.781 44.7054 261.338C44.8313 262.446 44.5452 262.771 44.3873 262.89C44.2784 262.967 44.1543 263.02 44.0233 263.045C44.0033 263.069 43.9778 263.088 43.9491 263.099C43.9204 263.111 43.8893 263.115 43.8585 263.112C43.5536 263.097 43.2616 262.984 43.0252 262.791C42.1691 262.063 40.3332 259.129 38.6141 258.117C36.5677 256.918 34.6288 258.421 33.6079 257.078C33.15 256.469 33.0058 255.453 33.4316 254.844C34.2145 253.729 36.0732 254.986 38.4676 254.042C39.4039 253.674 40.2989 252.477 42.0821 250.082C42.6063 249.38 43.277 248.404 42.9611 247.94C42.9244 247.887 42.8778 247.842 42.8238 247.807C42.1554 247.308 41.9082 246.303 41.8463 246.143C41.4755 244.998 37.726 243.641 36.6341 243.199C35.9473 242.924 30.2703 240.418 27.7615 235.757C27.4341 235.15 26.6055 233.468 25.8707 233.596C25.3236 233.685 25.3373 234.693 24.4698 235.075C24.1207 235.208 23.7422 235.245 23.374 235.181C23.0058 235.118 22.6615 234.956 22.3775 234.713C21.3886 233.814 21.9929 232.209 21.3909 231.966C20.7889 231.724 20.1182 233.463 18.4792 233.921C16.6479 234.45 14.8029 233.067 14.5099 232.839C12.5481 231.314 12.0994 228.718 11.9461 227.821C11.6233 225.941 12.0216 225.03 11.1929 223.964C10.5863 223.188 10.0484 223.263 9.01372 222.59C8.8695 222.501 5.63042 220.365 5.66247 217.197C5.68307 214.894 7.41592 213.29 7.72266 213.001C9.34793 211.497 10.4375 212.086 11.1678 211.055C12.7701 208.787 8.21024 204.971 9.53106 201.441C10.33 199.308 12.9647 198.28 14.6541 198.049C19.0423 197.444 23.5816 201.375 25.4518 205.411C27.4753 209.787 25.6464 212.759 28.1873 214.853C30.4764 216.748 34.2419 216.185 34.3816 215.641C34.4777 215.274 32.9188 214.972 32.3214 213.47C32.0425 212.72 32.0247 211.897 32.271 211.136C32.7014 209.73 33.8734 208.943 34.3701 208.618C38.5683 205.896 49.302 205.777 53.8275 201.118C58.8956 195.895 57.3688 183.694 60.8894 180.821C61.0954 180.654 62.034 179.935 61.9081 179.193C61.7547 178.278 60.118 178.321 58.9711 177.273C57.0323 175.506 57.0185 171.092 58.8979 169.561C60.5644 168.215 62.9771 169.73 63.6638 168.684C64.6779 167.148 59.5572 163.683 60.4591 160.533C61.0153 158.608 63.7668 157.014 66.0376 157.648C67.965 158.189 69.2424 160.208 69.3614 161.851C69.4301 162.82 69.1004 163.763 69.3133 163.838C69.5262 163.914 69.8421 162.923 70.6158 162.291C71.7604 161.343 73.6557 161.416 74.6904 161.851C78.3232 163.374 79.8752 171.541 76.8857 175.08C75.9174 176.225 74.4867 176.865 74.6561 177.806C74.8072 178.667 76.0845 178.594 77.664 179.58C80.9397 181.625 80.4315 185.051 83.5744 186.301C83.6843 186.345 83.8034 186.384 83.8034 186.384C84.3436 186.568 84.8978 186.708 85.4607 186.802C86.1749 186.928 89.3682 187.489 89.6062 188.689C89.723 189.268 89.1003 189.87 87.8528 191.072C86.5571 192.319 86.2298 192.216 85.8429 192.807C84.9983 194.086 85.7399 195.783 86.6212 198.5C87.2668 200.491 87.649 202.563 88.2808 204.559C89.8466 209.517 90.2426 222.414 83.6362 230.483C81.2235 233.429 77.5816 237.875 74.6881 239.77C74.2303 240.077 73.1544 240.72 72.4654 242.006C72.2823 242.35 71.2522 244.009 71.5498 245.829C72.0786 249.137 76.6751 251.527 78.9665 250.485C80.9786 249.57 81.3334 246.823 82.8763 246.969C83.6797 247.042 84.6114 247.917 84.5633 248.446C84.5563 248.673 84.5146 248.899 84.4397 249.114C84.3833 249.273 84.3486 249.438 84.3367 249.606C84.3427 249.634 84.3512 249.66 84.3619 249.686C84.4855 249.979 85.9826 249.755 86.9417 250.011C87.8207 250.272 88.8577 251.089 88.7982 251.689Z" fill="#FC565D"/>
<path d="M33.0179 200.126H33.1049C33.0622 200.123 33.0194 200.123 32.9767 200.126H33.0179Z" fill="#FC565D"/>
</g>
<path d="M248.838 306.291C270.398 306.291 287.875 288.814 287.875 267.255C287.875 245.696 270.398 228.219 248.838 228.219C227.279 228.219 209.802 245.696 209.802 267.255C209.802 288.814 227.279 306.291 248.838 306.291Z" fill="#FFE600"/>
<mask id="mask5_7_143795" style="mask-type:luminance" maskUnits="userSpaceOnUse" x="209" y="228" width="79" height="79">
<path d="M248.838 306.291C270.398 306.291 287.875 288.814 287.875 267.255C287.875 245.696 270.398 228.219 248.838 228.219C227.279 228.219 209.802 245.696 209.802 267.255C209.802 288.814 227.279 306.291 248.838 306.291Z" fill="white"/>
</mask>
<g mask="url(#mask5_7_143795)">
<path d="M287.869 267.258C287.871 269.588 287.665 271.913 287.254 274.206C287.238 274.281 287.226 274.359 287.21 274.435C286.653 277.441 285.74 280.37 284.491 283.161C284.277 283.641 284.053 284.117 283.82 284.587C283.515 285.197 283.192 285.808 282.852 286.418C282.591 286.876 282.319 287.334 282.037 287.792C280.441 290.366 278.552 292.747 276.408 294.888C275.834 295.462 275.241 296.017 274.629 296.554C272.265 298.64 269.656 300.432 266.86 301.89C266.053 302.316 265.226 302.711 264.381 303.076C259.404 305.23 254.034 306.326 248.611 306.296C243.188 306.265 237.83 305.108 232.878 302.897C232.782 302.856 232.688 302.813 232.592 302.767C229.171 301.199 225.995 299.144 223.163 296.666L223.122 296.63C222.987 296.513 222.854 296.401 222.724 296.275C219.348 293.239 216.526 289.639 214.384 285.635C213.741 284.433 213.162 283.197 212.649 281.934C212.294 281.064 211.972 280.18 211.683 279.281C211.649 279.175 211.615 279.07 211.583 278.962C211.521 278.77 211.461 278.576 211.404 278.381C211.29 277.998 211.181 277.607 211.077 277.209C209.594 271.559 209.396 265.649 210.496 259.912C211.597 254.176 213.968 248.759 217.436 244.058C217.761 243.616 218.097 243.182 218.443 242.756C218.941 242.138 219.456 241.536 219.991 240.952L220.05 240.888L220.435 240.471L220.455 240.451C224.436 236.239 229.305 232.966 234.709 230.869C240.112 228.773 245.914 227.906 251.694 228.331C257.474 228.755 263.087 230.461 268.126 233.325C273.165 236.189 277.503 240.138 280.826 244.887C285.422 251.441 287.881 259.254 287.869 267.258Z" fill="#FC565D"/>
<path d="M255.524 293.432H255.614C255.569 293.43 255.525 293.43 255.481 293.432H255.524Z" fill="#31CFF4"/>
<path d="M331.085 276.609C330.856 278.924 322.201 277.525 317.893 282.158C316.291 283.891 313.672 288.421 313.267 289.534C313.139 289.92 312.9 290.26 312.58 290.511C312.344 290.683 312.071 290.798 311.784 290.847C311.496 290.897 311.201 290.88 310.921 290.797C310.016 290.506 309.685 288.604 309.659 288.451C309.213 285.763 309.932 283.495 309.799 281.899C309.414 277.271 301.856 278.051 295.568 270.594C294.35 269.151 292.667 266.791 290.376 266.8C289.536 266.8 288.522 267.128 286.326 267.137C285.354 267.137 284.685 267.032 284.365 267.059C282.272 267.242 280.981 268.3 276.769 268.607C270.637 269.064 268.81 267.144 266.469 268.874C266.469 268.874 263.708 270.935 261.565 271.772C260.265 272.281 260.318 271.93 259.519 272.356C258.084 273.121 256.289 277.236 256.289 277.236C254.622 281.03 253.434 281.29 253.828 282.245C254.503 283.879 257.866 282.785 260.51 285.484C260.931 285.914 261.941 286.945 261.636 287.901C261.43 288.554 260.622 289.119 259.864 289.142C259.644 289.146 259.425 289.107 259.219 289.028C258.761 288.874 256.371 288.062 255.852 288.609C255.408 289.08 256.625 290.227 256.928 292.853C257.138 294.714 256.655 295.261 256.392 295.462C256.209 295.591 256 295.681 255.781 295.726C255.746 295.765 255.703 295.795 255.654 295.814C255.606 295.833 255.553 295.841 255.501 295.835C254.988 295.81 254.496 295.621 254.098 295.295C252.661 294.073 249.573 289.126 246.679 287.432C243.246 285.418 239.974 287.947 238.255 285.688C237.475 284.66 237.244 282.941 237.962 281.927C239.276 280.052 242.403 282.156 246.416 280.581C247.993 279.958 249.493 277.944 252.498 273.917C253.382 272.734 254.506 271.095 253.977 270.312C253.916 270.222 253.838 270.144 253.748 270.083C252.624 269.243 252.191 267.554 252.104 267.283C251.482 265.349 245.184 263.076 243.337 262.332C242.193 261.874 232.631 257.651 228.41 249.813C227.86 248.79 226.466 245.97 225.23 246.176C224.315 246.327 224.333 248.018 222.875 248.662C221.783 249.145 220.254 248.87 219.356 248.055C217.688 246.542 218.706 243.843 217.697 243.436C216.648 243.014 215.559 245.922 212.8 246.721C209.724 247.611 206.62 245.283 206.123 244.889C202.813 242.341 202.06 237.967 201.799 236.463C201.256 233.302 201.927 231.77 200.533 229.976C199.514 228.671 198.619 228.795 196.871 227.671C196.626 227.522 191.175 223.93 191.228 218.608C191.253 214.717 194.179 212.025 194.698 211.542C197.431 209.024 199.276 210.013 200.494 208.268C203.191 204.452 195.52 198.031 197.747 192.109C199.086 188.522 203.53 186.79 206.361 186.405C213.744 185.389 221.385 191.997 224.525 198.787C227.931 206.151 224.855 211.148 229.126 214.673C232.993 217.862 239.313 216.912 239.551 215.996C239.709 215.38 237.09 214.87 236.069 212.347C235.353 210.571 235.854 208.854 235.987 208.417C236.71 206.055 238.693 204.729 239.519 204.194C246.581 199.615 264.635 199.416 272.237 191.578C280.762 182.791 278.189 162.278 284.115 157.434C284.463 157.15 286.038 155.944 285.83 154.687C285.569 153.131 282.817 153.22 280.885 151.455C277.628 148.479 277.6 141.047 280.766 138.483C283.568 136.217 287.634 138.767 288.778 137.009C290.484 134.422 281.87 128.592 283.401 123.292C284.335 120.053 288.966 117.375 292.786 118.444C296.028 119.348 298.186 122.745 298.379 125.51C298.493 127.14 297.937 128.727 298.296 128.853C298.656 128.978 299.187 127.317 300.487 126.25C302.426 124.659 305.601 124.78 307.343 125.51C313.452 128.07 316.067 141.813 311.035 147.767C309.408 149.702 306.999 150.768 307.283 152.346C307.54 153.795 309.689 153.671 312.344 155.321C317.854 158.755 317 164.528 322.288 166.627C322.471 166.701 322.689 166.769 322.689 166.769C323.597 167.079 324.529 167.314 325.475 167.472C326.677 167.683 332.047 168.616 332.452 170.645C332.647 171.62 331.598 172.632 329.499 174.653C327.322 176.752 326.773 176.585 326.12 177.571C324.696 179.725 325.946 182.585 327.43 187.151C328.515 190.503 329.158 193.984 330.22 197.345C332.857 205.709 333.521 227.396 322.419 240.977C318.351 245.931 312.225 253.414 307.356 256.607C306.569 257.124 304.777 258.21 303.616 260.37C303.307 260.945 301.579 263.738 302.066 266.8C302.955 272.365 310.689 276.385 314.54 274.632C317.925 273.091 318.523 268.483 321.119 268.719C322.471 268.842 324.039 270.321 323.957 271.2C323.944 271.584 323.875 271.963 323.751 272.326C323.637 272.8 323.552 272.979 323.577 273.153C323.588 273.2 323.602 273.246 323.621 273.29C323.824 273.782 326.347 273.402 327.97 273.835C329.439 274.233 331.184 275.581 331.085 276.609Z" fill="#FDB157"/>
<path d="M255.524 293.432H255.614C255.569 293.43 255.525 293.43 255.481 293.432H255.524Z" fill="#31CFF4"/>
</g>
<path d="M248.838 150.147C270.398 150.147 287.875 132.67 287.875 111.111C287.875 89.5522 270.398 72.0752 248.838 72.0752C227.279 72.0752 209.802 89.5522 209.802 111.111C209.802 132.67 227.279 150.147 248.838 150.147Z" fill="#FFE600"/>
<mask id="mask6_7_143795" style="mask-type:luminance" maskUnits="userSpaceOnUse" x="209" y="72" width="79" height="79">
<path d="M248.838 150.147C270.398 150.147 287.875 132.67 287.875 111.111C287.875 89.5522 270.398 72.0752 248.838 72.0752C227.279 72.0752 209.802 89.5522 209.802 111.111C209.802 132.67 227.279 150.147 248.838 150.147Z" fill="white"/>
</mask>
<g mask="url(#mask6_7_143795)">
<path d="M287.877 111.111C287.878 113.441 287.672 115.766 287.261 118.059C287.245 118.134 287.233 118.212 287.217 118.288C286.66 121.294 285.747 124.223 284.498 127.014C284.284 127.494 284.061 127.97 283.827 128.44C283.522 129.05 283.199 129.661 282.859 130.271C282.598 130.729 282.326 131.187 282.044 131.645C280.448 134.219 278.559 136.601 276.415 138.741C275.841 139.315 275.248 139.87 274.636 140.407C272.272 142.493 269.663 144.285 266.867 145.743C266.06 146.169 265.233 146.564 264.388 146.929C259.411 149.083 254.041 150.179 248.618 150.149C243.195 150.118 237.838 148.961 232.885 146.75C232.789 146.709 232.695 146.666 232.599 146.62C229.178 145.052 226.003 142.997 223.17 140.519L223.129 140.483C222.994 140.366 222.861 140.254 222.731 140.128C219.355 137.092 216.533 133.492 214.392 129.488C213.748 128.286 213.169 127.05 212.657 125.787C212.301 124.917 211.979 124.033 211.691 123.134C211.656 123.028 211.622 122.923 211.59 122.815C211.528 122.623 211.469 122.429 211.411 122.234C211.297 121.851 211.188 121.46 211.084 121.062C209.601 115.412 209.403 109.502 210.503 103.765C211.604 98.0288 213.975 92.6115 217.443 87.9113C217.768 87.4688 218.104 87.0346 218.45 86.6088C218.948 85.9908 219.464 85.3895 219.998 84.805L220.057 84.7409L220.442 84.3243L220.462 84.3037C224.444 80.0918 229.312 76.8189 234.716 74.7225C240.119 72.6261 245.921 71.7589 251.701 72.1836C257.481 72.6084 263.095 74.3145 268.133 77.1782C273.172 80.0419 277.51 83.9913 280.833 88.74C285.429 95.2937 287.889 103.107 287.877 111.111Z" fill="#FDB157"/>
<path d="M271.509 138.917C271.42 139.833 267.959 139.283 266.245 141.135C265.599 141.822 264.557 143.637 264.395 144.081C264.344 144.236 264.247 144.373 264.118 144.473C263.988 144.564 263.833 144.615 263.674 144.619C263.6 144.618 263.527 144.608 263.456 144.587C263.095 144.47 262.962 143.71 262.951 143.649C262.774 142.575 263.06 141.669 263.008 141.032C262.854 139.183 259.833 139.494 257.319 136.514C256.834 135.937 256.161 134.994 255.245 134.998C254.911 134.998 254.504 135.129 253.627 135.133C253.238 135.133 252.972 135.09 252.844 135.101C252.006 135.174 251.491 135.598 249.809 135.719C247.357 135.898 246.627 135.135 245.688 135.827C245.078 136.282 244.422 136.67 243.729 136.985C243.212 137.187 243.232 137.049 242.912 137.214C242.339 137.518 241.621 139.164 241.621 139.164C240.957 140.68 240.476 140.783 240.639 141.165C240.909 141.817 242.252 141.38 243.308 142.458C243.477 142.632 243.88 143.042 243.766 143.424C243.707 143.565 243.609 143.687 243.484 143.775C243.358 143.863 243.211 143.913 243.058 143.921C242.97 143.923 242.882 143.907 242.8 143.875C242.619 143.813 241.655 143.491 241.454 143.708C241.252 143.926 241.763 144.356 241.884 145.404C241.969 146.148 241.774 146.366 241.669 146.446C241.597 146.499 241.514 146.535 241.426 146.551C241.412 146.567 241.395 146.579 241.375 146.587C241.356 146.595 241.335 146.599 241.314 146.597C241.108 146.587 240.912 146.511 240.753 146.38C240.179 145.892 238.945 143.914 237.777 143.239C236.404 142.433 235.097 143.443 234.41 142.541C234.099 142.131 234.007 141.447 234.293 141.039C234.82 140.288 236.067 141.133 237.672 140.501C238.301 140.252 238.901 139.446 240.103 137.837C240.455 137.365 240.904 136.708 240.694 136.397C240.668 136.361 240.636 136.331 240.6 136.307C240.142 135.971 239.977 135.298 239.943 135.188C239.693 134.417 237.177 133.508 236.438 133.21C235.98 133.025 232.16 131.34 230.486 128.206C230.258 127.799 229.708 126.673 229.216 126.753C228.847 126.815 228.857 127.49 228.273 127.749C228.038 127.838 227.784 127.863 227.537 127.82C227.289 127.778 227.058 127.669 226.867 127.506C226.201 126.902 226.609 125.821 226.204 125.659C225.798 125.496 225.35 126.652 224.249 126.973C223.019 127.327 221.776 126.398 221.58 126.245C220.261 125.219 219.959 123.47 219.856 122.87C219.638 121.607 219.906 120.996 219.35 120.277C218.942 119.755 218.585 119.805 217.885 119.361C217.786 119.302 215.61 117.867 215.63 115.735C215.644 114.188 216.809 113.107 217.017 112.915C218.109 111.903 218.849 112.304 219.334 111.608C220.412 110.084 217.347 107.515 218.233 105.151C218.771 103.718 220.547 103.026 221.667 102.861C224.617 102.454 227.669 105.096 228.925 107.811C230.285 110.752 229.056 112.748 230.757 114.158C232.302 115.431 234.827 115.053 234.923 114.687C234.987 114.44 233.938 114.229 233.531 113.229C233.344 112.723 233.333 112.169 233.499 111.656C233.787 110.713 234.579 110.184 234.909 109.969C237.731 108.138 244.947 108.06 247.984 104.933C251.391 101.422 250.365 93.2198 252.73 91.2878C252.869 91.1756 253.499 90.6926 253.416 90.1936C253.313 89.571 252.212 89.6076 251.441 88.9026C250.138 87.7145 250.127 84.7433 251.393 83.7177C252.512 82.8021 254.14 83.8322 254.598 83.1294C255.284 82.0948 251.837 79.7668 252.45 77.6493C252.824 76.3537 254.673 75.2847 256.2 75.7105C257.496 76.0722 258.359 77.4296 258.436 78.5352C258.482 79.1853 258.258 79.8194 258.402 79.8698C258.546 79.9201 258.759 79.2563 259.279 78.8305C260.053 78.1942 261.321 78.2422 262.026 78.5352C264.468 79.5585 265.512 85.05 263.502 87.4284C262.852 88.2021 261.9 88.6279 262.003 89.2597C262.106 89.8388 262.964 89.7884 264.024 90.4523C266.226 91.8257 265.885 94.1309 267.998 94.9687C268.071 94.9984 268.158 95.0259 268.158 95.0259C268.522 95.1498 268.894 95.244 269.273 95.3074C269.754 95.3899 271.899 95.7653 272.061 96.5733C272.139 96.9648 271.72 97.3676 270.88 98.1757C270.04 98.9837 269.79 98.9494 269.529 99.3431C268.962 100.204 269.461 101.346 270.054 103.171C270.489 104.51 270.74 105.901 271.168 107.243C272.221 110.578 272.487 119.245 268.046 124.672C266.423 126.652 263.976 129.642 262.03 130.914C261.409 131.276 260.893 131.794 260.536 132.418C260.412 132.647 259.721 133.764 259.917 134.989C260.272 137.212 263.363 138.819 264.901 138.118C266.254 137.502 266.503 135.66 267.531 135.756C268.071 135.804 268.698 136.392 268.676 136.747C268.672 136.903 268.645 137.057 268.593 137.205C268.555 137.312 268.531 137.423 268.524 137.537C268.529 137.555 268.535 137.574 268.543 137.592C268.623 137.789 269.63 137.635 270.276 137.821C270.85 137.967 271.548 138.51 271.509 138.917Z" fill="#31CFF4"/>
</g>
<path d="M51.0366 150.145C72.5956 150.145 90.0727 132.668 90.0727 111.109C90.0727 89.5503 72.5956 72.0732 51.0366 72.0732C29.4775 72.0732 12.0005 89.5503 12.0005 111.109C12.0005 132.668 29.4775 150.145 51.0366 150.145Z" fill="#FFE600"/>
<mask id="mask7_7_143795" style="mask-type:luminance" maskUnits="userSpaceOnUse" x="12" y="72" width="79" height="79">
<path d="M51.0366 150.145C72.5956 150.145 90.0727 132.668 90.0727 111.109C90.0727 89.5503 72.5956 72.0732 51.0366 72.0732C29.4775 72.0732 12.0005 89.5503 12.0005 111.109C12.0005 132.668 29.4775 150.145 51.0366 150.145Z" fill="white"/>
</mask>
<g mask="url(#mask7_7_143795)">
<path d="M90.0697 111.11C90.071 113.44 89.8649 115.765 89.4539 118.058C89.4379 118.133 89.4264 118.211 89.4104 118.287C88.853 121.293 87.9401 124.222 86.6909 127.013C86.4773 127.493 86.2537 127.969 86.0202 128.439C85.715 129.049 85.3922 129.66 85.0519 130.27C84.791 130.728 84.5193 131.186 84.237 131.644C82.6409 134.218 80.752 136.6 78.6081 138.74C78.0343 139.314 77.4414 139.869 76.8295 140.406C74.465 142.493 71.8562 144.284 69.0602 145.742C68.253 146.168 67.4266 146.563 66.5811 146.928C61.6042 149.082 56.234 150.178 50.8111 150.148C45.3881 150.117 40.0307 148.96 35.0785 146.749C34.9823 146.708 34.8885 146.665 34.7923 146.619C31.3715 145.051 28.1956 142.996 25.3635 140.518L25.3223 140.482C25.1873 140.365 25.0545 140.253 24.924 140.127C21.5483 137.091 18.7265 133.491 16.5848 129.487C15.9416 128.285 15.3624 127.049 14.8497 125.786C14.4941 124.916 14.1721 124.032 13.8837 123.133C13.8493 123.027 13.815 122.922 13.7829 122.815C13.7211 122.622 13.6616 122.428 13.6044 122.233C13.4899 121.85 13.3808 121.459 13.2771 121.061C11.7944 115.411 11.596 109.501 12.6965 103.764C13.7969 98.0278 16.1682 92.6106 19.6362 87.9103C19.9612 87.4678 20.297 87.0336 20.6434 86.6079C21.1409 85.9898 21.6567 85.3885 22.1908 84.804L22.2503 84.7399L22.6349 84.3233L22.6555 84.3027C26.6367 80.0908 31.5055 76.8179 36.9088 74.7215C42.3121 72.6252 48.1143 71.7579 53.8944 72.1826C59.6746 72.6074 65.2876 74.3135 70.3264 77.1772C75.3652 80.0409 79.7034 83.9903 83.0261 88.739C87.6219 95.2928 90.0818 103.106 90.0697 111.11Z" fill="#31CFF4"/>
<path d="M96.4791 288.918C96.1838 291.967 84.7657 290.127 79.0819 296.243C76.9553 298.532 73.5171 304.5 72.9814 305.967C72.8119 306.478 72.4929 306.926 72.0658 307.254C71.6348 307.557 71.1232 307.725 70.5962 307.737C70.3538 307.735 70.1127 307.7 69.8797 307.634C68.687 307.249 68.2475 304.743 68.2155 304.541C67.6295 300.998 68.5749 298.006 68.4009 295.902C67.8927 289.802 57.9283 290.829 49.6303 280.998C48.0279 279.098 45.8074 275.985 42.7881 275.998C41.6802 275.998 40.3411 276.429 37.4476 276.44C36.1657 276.44 35.2844 276.3 34.8632 276.339C32.1163 276.58 30.4041 277.976 24.8507 278.379C16.7656 278.967 14.3574 276.449 11.2671 278.732C11.2671 278.732 7.62746 281.449 4.805 282.552C3.09275 283.223 3.16142 282.763 2.10614 283.323C0.215341 284.331 -2.15159 289.754 -2.15159 289.754C-4.34684 294.755 -5.91488 295.101 -5.39525 296.358C-4.50479 298.514 -0.0707923 297.069 3.41323 300.627C3.96948 301.197 5.29945 302.554 4.89885 303.815C4.62645 304.674 3.56202 305.418 2.56168 305.45C2.27172 305.455 1.98353 305.404 1.71242 305.301C1.11497 305.097 -2.04172 304.028 -2.72845 304.749C-3.31446 305.37 -1.70751 306.883 -1.31149 310.342C-1.03222 312.798 -1.66859 313.519 -2.01653 313.775C-2.25701 313.948 -2.53184 314.067 -2.8223 314.123C-2.86783 314.175 -2.92502 314.215 -2.98911 314.24C-3.05321 314.265 -3.12237 314.274 -3.19084 314.267C-3.86725 314.234 -4.51529 313.985 -5.04044 313.558C-6.93353 311.955 -11.0058 305.425 -14.8195 303.191C-19.3565 300.535 -23.6577 303.877 -25.9262 300.901C-26.9563 299.546 -27.2585 297.292 -26.3131 295.943C-24.578 293.473 -20.4576 296.257 -15.1674 294.169C-13.0889 293.35 -11.1089 290.694 -7.15557 285.384C-5.96753 283.816 -4.48648 281.646 -5.17321 280.611C-5.25635 280.494 -5.36129 280.395 -5.48224 280.318C-6.96329 279.21 -7.54243 276.983 -7.65002 276.628C-8.46952 274.078 -16.7721 271.079 -19.2077 270.102C-20.7277 269.49 -33.3223 263.921 -38.894 253.595C-39.6197 252.247 -41.4555 248.529 -43.0854 248.788C-44.2986 248.989 -44.2688 251.219 -46.1917 252.066C-47.6315 252.702 -49.6459 252.34 -50.8294 251.267C-53.0269 249.273 -51.6855 245.714 -53.0178 245.176C-54.3913 244.619 -55.8357 248.454 -59.4708 249.507C-63.5271 250.681 -67.6246 247.611 -68.2747 247.105C-72.624 243.724 -73.6197 237.949 -73.9631 235.973C-74.6796 231.807 -73.7937 229.793 -75.6341 227.421C-76.9756 225.702 -78.1522 225.867 -80.4664 224.384C-80.7846 224.187 -87.9678 219.453 -87.8992 212.423C-87.8534 207.316 -84.0077 203.757 -83.321 203.12C-79.7156 199.785 -77.2983 201.104 -75.6776 198.805C-72.1249 193.769 -82.2359 185.3 -79.3082 177.503C-77.5341 172.774 -71.6763 170.494 -67.9473 169.981C-58.2141 168.64 -48.142 177.352 -44.001 186.305C-39.5098 196.013 -43.5661 202.601 -37.9349 207.248C-32.8393 211.45 -24.5047 210.2 -24.2002 208.994C-23.9919 208.182 -27.4462 207.509 -28.7785 204.187C-29.7239 201.845 -29.0646 199.581 -28.8883 199.005C-27.9361 195.891 -25.3219 194.145 -24.2323 193.437C-14.9225 187.403 8.8819 187.138 18.9013 176.807C30.1294 165.24 26.7438 138.174 34.5519 131.803C35.0097 131.43 37.0882 129.839 36.8135 128.194C36.4702 126.133 32.842 126.262 30.2965 123.934C25.9998 120.012 25.9655 110.213 30.1362 106.832C33.8308 103.844 39.1805 107.205 40.705 104.888C42.9529 101.477 31.599 93.7907 33.6088 86.8043C34.8426 82.5329 40.9477 79.0031 45.9837 80.4109C50.2575 81.6035 53.1005 86.0833 53.3569 89.7275C53.508 91.877 52.7732 93.9669 53.247 94.134C53.7209 94.3011 54.4213 92.1082 56.1359 90.7004C58.6928 88.6036 62.8773 88.7638 65.1756 89.7275C73.2286 93.1017 76.6737 111.22 70.0422 119.069C67.895 121.619 64.7223 123.027 65.0954 125.115C65.4342 127.024 68.2658 126.859 71.7659 129.047C79.0315 133.582 77.9076 141.18 84.8779 143.952C85.1182 144.048 85.4044 144.139 85.4044 144.139C86.5987 144.545 87.8234 144.855 89.0669 145.066C90.651 145.343 97.7312 146.577 98.2646 149.246C98.5209 150.533 97.1383 151.867 94.3731 154.532C91.5026 157.299 90.7792 157.08 89.9185 158.38C88.0437 161.221 89.6896 164.986 91.6445 171.009C93.0775 175.427 93.9336 180.019 95.3231 184.446C98.7979 195.434 99.6724 224.047 85.0221 241.939C79.6725 248.472 71.5988 258.336 65.1801 262.541C64.1409 263.227 61.7808 264.649 60.2494 267.501C59.8419 268.261 57.562 271.942 58.2052 275.971C59.375 283.296 69.5729 288.604 74.6502 286.295C79.1139 284.264 79.9014 278.189 83.3213 278.5C85.1068 278.663 87.1716 280.602 87.0663 281.771C86.9633 282.9 86.7939 283.255 86.7939 283.255C86.6428 283.88 86.5306 284.115 86.565 284.344C86.5785 284.407 86.5969 284.468 86.6199 284.528C86.89 285.175 90.2138 284.674 92.3427 285.244C94.309 285.773 96.6095 287.561 96.4791 288.918Z" fill="#FFE600"/>
</g>
<path d="M51.0363 306.288C72.5954 306.288 90.0724 288.811 90.0724 267.252C90.0724 245.693 72.5954 228.216 51.0363 228.216C29.4773 228.216 12.0002 245.693 12.0002 267.252C12.0002 288.811 29.4773 306.288 51.0363 306.288Z" fill="#FFE600"/>
<mask id="mask8_7_143795" style="mask-type:luminance" maskUnits="userSpaceOnUse" x="12" y="228" width="79" height="79">
<path d="M51.0361 306.288C72.5951 306.288 90.0722 288.811 90.0722 267.252C90.0722 245.693 72.5951 228.216 51.0361 228.216C29.4771 228.216 12 245.693 12 267.252C12 288.811 29.4771 306.288 51.0361 306.288Z" fill="white"/>
</mask>
<g mask="url(#mask8_7_143795)">
<path d="M91.2464 267.52C91.2477 269.85 91.0416 272.175 90.6306 274.467C90.6169 274.543 90.6032 274.619 90.5871 274.696C90.0301 277.704 89.1172 280.635 87.8677 283.427C87.654 283.908 87.4305 284.383 87.197 284.853C86.8902 285.471 86.5675 286.082 86.2287 286.684C85.9677 287.142 85.6961 287.6 85.4138 288.058C83.8176 290.633 81.9287 293.014 79.7848 295.154C79.211 295.728 78.6182 296.283 78.0062 296.82C75.6417 298.906 73.0329 300.697 70.237 302.154C69.4266 302.578 68.6003 302.973 67.7579 303.338C62.7823 305.49 57.4137 306.586 51.9924 306.555C46.5711 306.525 41.2153 305.368 36.2644 303.159L35.9783 303.029C32.5581 301.46 29.3824 299.406 26.5494 296.93L26.5082 296.896C26.3732 296.779 26.2404 296.667 26.1099 296.541C22.7306 293.506 19.9056 289.906 17.7616 285.901C17.1183 284.7 16.5392 283.465 16.0264 282.202C15.6739 281.332 15.3519 280.448 15.0604 279.549C15.0261 279.444 14.9917 279.339 14.9597 279.231C14.8979 279.039 14.8384 278.844 14.7811 278.65C14.6667 278.26 14.5522 277.871 14.4538 277.478C12.9701 271.827 12.7712 265.915 13.8716 260.177C14.972 254.44 17.3439 249.021 20.8129 244.32C21.138 243.879 21.4737 243.445 21.8201 243.018C22.3176 242.407 22.8334 241.805 23.3676 241.211L23.4271 241.15C23.5553 241.008 23.6835 240.87 23.8117 240.733L23.8323 240.712C27.8139 236.501 32.6832 233.228 38.0867 231.133C43.4903 229.037 49.2927 228.17 55.0728 228.596C60.853 229.021 66.4659 230.728 71.5044 233.592C76.543 236.456 80.8807 240.406 84.2028 245.156C88.7966 251.708 91.2564 259.518 91.2464 267.52Z" fill="#FFE600"/>
<path d="M33.0187 278.201H33.1057C33.063 278.199 33.0202 278.199 32.9775 278.201H33.0187Z" fill="#FC565D"/>
<path d="M81.2663 275.575C81.1312 276.919 76.0952 276.106 73.6024 278.805C72.6661 279.812 71.1507 282.445 70.915 283.09C70.841 283.315 70.7015 283.513 70.5144 283.658C70.3238 283.792 70.0974 283.866 69.8643 283.871C69.7582 283.869 69.6527 283.854 69.5507 283.825C69.0242 283.656 68.8296 282.552 68.8158 282.463C68.5572 280.902 68.9738 279.583 68.8983 278.656C68.6693 275.969 64.2834 276.42 60.63 272.089C59.9227 271.251 58.9452 269.88 57.6153 269.884C57.1254 269.884 56.5371 270.074 55.2621 270.079C54.6967 270.079 54.3075 270.02 54.1175 270.036C52.902 270.141 52.1512 270.757 49.7041 270.935C46.1423 271.194 45.0801 270.084 43.7204 271.091C43.7204 271.091 42.118 272.288 40.8705 272.773C40.1173 273.069 40.1471 272.865 39.6824 273.112C38.8492 273.556 37.8076 275.946 37.8076 275.946C36.8393 278.15 36.148 278.301 36.3769 278.858C36.7684 279.808 38.7233 279.171 40.2684 280.739C40.5134 280.989 41.0994 281.586 40.9231 282.143C40.8367 282.348 40.6942 282.524 40.512 282.652C40.3297 282.779 40.1152 282.853 39.893 282.864C39.7647 282.867 39.6371 282.844 39.5176 282.797C39.2406 282.697 37.8672 282.239 37.5581 282.545C37.2995 282.82 38.0159 283.486 38.1808 285.011C38.3044 286.091 38.0228 286.409 37.8694 286.526C37.7634 286.602 37.6425 286.654 37.5146 286.68C37.4949 286.702 37.4701 286.72 37.4422 286.731C37.4144 286.742 37.3843 286.746 37.3544 286.744C37.0555 286.729 36.7692 286.619 36.5372 286.43C35.704 285.72 33.9093 282.845 32.2291 281.852C30.2284 280.682 28.3376 282.152 27.335 280.838C26.8772 280.243 26.7467 279.249 27.1633 278.654C27.9279 277.564 29.7431 278.791 32.0757 277.871C32.9914 277.509 33.8635 276.34 35.6101 274C36.1229 273.314 36.7753 272.361 36.4685 271.906C36.4313 271.855 36.3856 271.812 36.3335 271.778C35.6788 271.29 35.4178 270.308 35.3766 270.152C35.0149 269.028 31.3569 267.708 30.2834 267.275C29.6264 267.014 24.0639 264.565 21.6145 260.012C21.294 259.416 20.4837 257.777 19.7672 257.896C19.2316 257.986 19.2453 258.968 18.3937 259.343C18.0527 259.473 17.683 259.509 17.3233 259.447C16.9636 259.385 16.6273 259.228 16.3496 258.991C15.3813 258.112 15.9719 256.541 15.3859 256.306C14.7998 256.07 14.1452 257.745 12.5451 258.215C10.7573 258.732 8.95119 257.379 8.66505 257.155C6.74678 255.667 6.30956 253.124 6.15848 252.252C5.84258 250.42 6.23173 249.525 5.42139 248.481C4.8308 247.724 4.31117 247.795 3.29252 247.145C3.15288 247.055 -0.0129483 244.97 0.01681 241.88C0.037412 239.629 1.73135 238.061 2.03351 237.78C3.61986 236.31 4.68658 236.892 5.40078 235.878C6.96653 233.662 2.50964 229.926 3.79841 226.492C4.57899 224.409 7.1611 223.404 8.80468 223.178C13.0968 222.578 17.5353 226.419 19.3597 230.363C21.3375 234.642 19.5543 237.544 22.0334 239.593C24.279 241.445 27.9508 240.893 28.0881 240.362C28.1797 240.003 26.6574 239.707 26.0668 238.24C25.7941 237.504 25.7772 236.698 26.0187 235.951C26.4377 234.577 27.5891 233.808 28.0789 233.497C32.181 230.837 42.6697 230.723 47.0785 226.172C52.0321 221.065 50.5396 209.141 53.9802 206.335C54.1816 206.17 55.0972 205.469 54.9759 204.732C54.8248 203.817 53.227 203.881 52.1054 202.855C50.2123 201.127 50.1963 196.81 52.0344 195.319C53.662 194.003 56.0198 195.484 56.6928 194.463C57.6816 192.959 52.6777 189.571 53.5681 186.495C54.1106 184.613 56.8026 183.061 59.0208 183.677C60.9047 184.204 62.1568 186.177 62.269 187.781C62.3354 188.729 62.0126 189.652 62.2209 189.725C62.4292 189.798 62.7383 188.832 63.4937 188.212C64.6222 187.296 66.4695 187.358 67.4767 187.781C71.0271 189.269 72.5448 197.254 69.6216 200.713C68.6762 201.836 67.2776 202.457 67.4424 203.377C67.5912 204.217 68.841 204.146 70.3816 205.11C73.5863 207.108 73.0873 210.457 76.1593 211.677C76.2669 211.721 76.3882 211.76 76.3882 211.76C76.916 211.947 77.4579 212.092 78.0089 212.192C78.7071 212.314 81.8271 212.858 82.0629 214.024C82.1751 214.591 81.5662 215.18 80.3461 216.354C79.0802 217.572 78.762 217.476 78.3843 218.05C77.5557 219.3 78.2836 220.962 79.1443 223.615C79.7761 225.561 80.1492 227.584 80.765 229.537C82.2964 234.397 82.681 246.987 76.2257 254.873C73.8679 257.745 70.3106 262.095 67.4813 263.949C66.5778 264.474 65.8286 265.228 65.3089 266.135C65.1281 266.469 64.1232 268.092 64.407 269.871C64.9244 273.105 69.4179 275.44 71.6543 274.421C73.6207 273.526 73.9686 270.85 75.4771 270.988C76.2623 271.061 77.1734 271.903 77.1253 272.43C77.1201 272.652 77.0815 272.872 77.0108 273.082C76.9538 273.236 76.9198 273.397 76.9101 273.561C76.9163 273.589 76.9248 273.616 76.9353 273.643C77.0543 273.929 78.5171 273.707 79.4533 273.959C80.3117 274.188 81.3235 274.975 81.2663 275.575Z" fill="#31CFF4"/>
<path d="M33.0187 278.201H33.1057C33.063 278.199 33.0202 278.199 32.9775 278.201H33.0187Z" fill="#FC565D"/>
</g>
<path d="M248.838 228.219C270.398 228.219 287.875 210.742 287.875 189.183C287.875 167.624 270.398 150.147 248.838 150.147C227.279 150.147 209.802 167.624 209.802 189.183C209.802 210.742 227.279 228.219 248.838 228.219Z" fill="#FFE600"/>
<mask id="mask9_7_143795" style="mask-type:luminance" maskUnits="userSpaceOnUse" x="209" y="150" width="79" height="79">
<path d="M248.838 228.219C270.398 228.219 287.875 210.742 287.875 189.183C287.875 167.624 270.398 150.147 248.838 150.147C227.279 150.147 209.802 167.624 209.802 189.183C209.802 210.742 227.279 228.219 248.838 228.219Z" fill="white"/>
</mask>
<g mask="url(#mask9_7_143795)">
<path d="M287.877 189.178C287.878 191.508 287.672 193.833 287.261 196.126C287.245 196.201 287.233 196.279 287.217 196.355C286.66 199.361 285.747 202.29 284.498 205.081C284.284 205.561 284.061 206.037 283.827 206.507C283.522 207.117 283.199 207.728 282.859 208.338C282.598 208.796 282.326 209.254 282.044 209.711C280.448 212.286 278.559 214.667 276.415 216.808C275.841 217.381 275.248 217.937 274.636 218.474C272.272 220.56 269.663 222.352 266.867 223.81C266.06 224.236 265.233 224.631 264.388 224.996C259.411 227.15 254.041 228.246 248.618 228.216C243.195 228.185 237.838 227.028 232.885 224.817C232.789 224.776 232.695 224.733 232.599 224.687C229.178 223.119 226.003 221.064 223.17 218.586L223.129 218.55C222.994 218.433 222.861 218.321 222.731 218.195C219.355 215.159 216.533 211.558 214.392 207.555C213.748 206.353 213.169 205.117 212.657 203.854C212.301 202.984 211.979 202.099 211.691 201.201C211.656 201.095 211.622 200.99 211.59 200.882C211.528 200.69 211.469 200.496 211.411 200.301C211.297 199.918 211.188 199.527 211.084 199.129C209.601 193.479 209.403 187.569 210.503 181.832C211.604 176.096 213.975 170.678 217.443 165.978C217.768 165.536 218.104 165.101 218.45 164.676C218.948 164.058 219.464 163.456 219.998 162.872L220.057 162.808L220.442 162.391L220.462 162.371C224.444 158.159 229.312 154.886 234.716 152.789C240.119 150.693 245.921 149.826 251.701 150.251C257.481 150.675 263.095 152.381 268.133 155.245C273.172 158.109 277.51 162.058 280.833 166.807C285.429 173.361 287.889 181.174 287.877 189.178Z" fill="#FC565D"/>
<path d="M255.532 215.352H255.621C255.577 215.35 255.532 215.35 255.488 215.352H255.532Z" fill="#31CFF4"/>
<path d="M305.487 212.635C305.354 214.026 300.144 213.186 297.553 215.972C296.582 217.014 295.014 219.738 294.769 220.408C294.693 220.641 294.548 220.845 294.355 220.994C294.213 221.099 294.05 221.169 293.876 221.2C293.703 221.23 293.525 221.219 293.357 221.168C292.812 220.992 292.613 219.85 292.597 219.756C292.329 218.14 292.762 216.78 292.681 215.816C292.453 213.033 287.904 213.502 284.12 209.016C283.39 208.148 282.376 206.726 280.998 206.726C280.494 206.726 279.883 206.923 278.562 206.93C277.976 206.93 277.576 206.866 277.383 206.882C276.124 206.992 275.348 207.628 272.805 207.814C269.115 208.082 268.019 206.932 266.609 207.974C266.609 207.974 264.947 209.215 263.66 209.718C262.877 210.023 262.909 209.814 262.429 210.069C261.566 210.526 260.485 213.003 260.485 213.003C259.485 215.292 258.768 215.443 259.004 216.016C259.412 217 261.435 216.343 263.024 217.966C263.278 218.225 263.884 218.843 263.711 219.419C263.621 219.632 263.474 219.814 263.286 219.946C263.098 220.078 262.876 220.154 262.646 220.166C262.513 220.168 262.381 220.145 262.257 220.097C261.985 220.003 260.545 219.516 260.231 219.845C259.963 220.129 260.689 220.818 260.879 222.398C261.005 223.517 260.714 223.847 260.556 223.968C260.446 224.046 260.32 224.1 260.188 224.126C260.167 224.15 260.141 224.168 260.112 224.18C260.083 224.191 260.052 224.196 260.02 224.192C259.712 224.178 259.416 224.064 259.178 223.867C258.313 223.132 256.454 220.157 254.714 219.138C252.654 217.925 250.681 219.447 249.649 218.087C249.177 217.469 249.04 216.441 249.47 215.826C250.262 214.697 252.141 215.97 254.556 215.015C255.504 214.642 256.408 213.431 258.219 211.007C258.75 210.297 259.428 209.309 259.109 208.839C259.071 208.786 259.023 208.741 258.968 208.707C258.292 208.201 258.031 207.184 257.979 207.022C257.605 205.859 253.817 204.49 252.714 204.046C252.027 203.767 246.274 201.23 243.736 196.515C243.406 195.901 242.566 194.205 241.824 194.326C241.27 194.418 241.284 195.437 240.407 195.823C240.054 195.958 239.671 195.996 239.298 195.931C238.926 195.867 238.577 195.703 238.29 195.457C237.287 194.542 237.901 192.925 237.292 192.681C236.683 192.436 236.005 194.175 234.348 194.656C232.496 195.192 230.628 193.791 230.331 193.56C228.346 192.017 227.893 189.387 227.735 188.48C227.41 186.58 227.813 185.66 226.973 184.589C226.361 183.803 225.828 183.879 224.768 183.201C224.624 183.112 221.335 180.951 221.378 177.744C221.399 175.416 223.152 173.791 223.463 173.5C225.109 171.978 226.21 172.585 226.95 171.532C228.573 169.242 223.958 165.374 225.295 161.812C226.105 159.653 228.777 158.607 230.477 158.378C234.918 157.767 239.515 161.741 241.403 165.827C243.463 170.254 241.602 173.26 244.173 175.382C246.496 177.3 250.299 176.728 250.441 176.178C250.537 175.808 248.962 175.492 248.348 173.983C248.067 173.223 248.049 172.39 248.298 171.619C248.733 170.197 249.926 169.4 250.422 169.078C254.671 166.331 265.53 166.205 270.109 161.492C275.236 156.204 273.691 143.866 277.253 140.951C277.463 140.782 278.411 140.056 278.285 139.306C278.13 138.369 276.475 138.422 275.309 137.362C273.35 135.572 273.334 131.101 275.236 129.559C276.923 128.185 279.357 129.728 280.059 128.67C281.085 127.116 275.905 123.609 276.825 120.43C277.388 118.482 280.174 116.87 282.472 117.513C284.42 118.058 285.718 120.102 285.835 121.764C285.903 122.744 285.569 123.699 285.784 123.774C286 123.85 286.32 122.858 287.103 122.208C288.27 121.251 290.179 121.325 291.223 121.764C294.897 123.305 296.47 131.571 293.444 135.151C292.464 136.316 291.015 136.957 291.187 137.898C291.34 138.77 292.633 138.694 294.231 139.692C297.543 141.753 297.031 145.23 300.213 146.493C300.322 146.537 300.453 146.578 300.453 146.578C300.999 146.765 301.559 146.907 302.129 147.002C302.852 147.127 306.082 147.688 306.324 148.908C306.441 149.497 305.812 150.106 304.548 151.321C303.239 152.582 302.909 152.484 302.515 153.077C301.643 154.37 302.396 156.094 303.287 158.841C303.942 160.855 304.328 162.961 304.967 164.971C306.551 169.989 306.952 183.034 300.265 191.202C297.825 194.178 294.142 198.685 291.214 200.601C290.277 201.143 289.501 201.925 288.964 202.865C288.776 203.21 287.737 204.891 288.03 206.731C288.566 210.08 293.217 212.497 295.534 211.442C297.571 210.526 297.93 207.745 299.489 207.887C300.304 207.96 301.247 208.846 301.199 209.379C301.191 209.61 301.149 209.837 301.073 210.055C301.014 210.215 300.98 210.383 300.97 210.554C300.976 210.582 300.985 210.609 300.995 210.636C301.119 210.932 302.634 210.703 303.605 210.964C304.496 211.197 305.546 212.012 305.487 212.635Z" fill="#31CFF4"/>
<path d="M255.532 215.352H255.621C255.577 215.35 255.532 215.35 255.488 215.352H255.532Z" fill="#31CFF4"/>
</g>
<path d="M149.938 150.149C171.497 150.149 188.974 132.672 188.974 111.113C188.974 89.5544 171.497 72.0774 149.938 72.0774C128.379 72.0774 110.902 89.5544 110.902 111.113C110.902 132.672 128.379 150.149 149.938 150.149Z" fill="#FFE600"/>
<mask id="mask10_7_143795" style="mask-type:luminance" maskUnits="userSpaceOnUse" x="110" y="72" width="79" height="79">
<path d="M149.938 150.147C171.497 150.147 188.974 132.67 188.974 111.111C188.974 89.5522 171.497 72.0752 149.938 72.0752C128.379 72.0752 110.902 89.5522 110.902 111.111C110.902 132.67 128.379 150.147 149.938 150.147Z" fill="white"/>
</mask>
<g mask="url(#mask10_7_143795)">
<path d="M188.976 111.111C188.977 113.441 188.771 115.766 188.36 118.059C188.344 118.134 188.333 118.212 188.317 118.288C187.76 121.294 186.847 124.223 185.597 127.014C185.384 127.494 185.16 127.97 184.927 128.44C184.622 129.05 184.299 129.661 183.958 130.271C183.697 130.729 183.426 131.187 183.144 131.645C181.547 134.219 179.658 136.601 177.515 138.741C176.941 139.315 176.348 139.87 175.736 140.407C173.372 142.493 170.763 144.285 167.967 145.743C167.159 146.169 166.333 146.564 165.488 146.929C160.511 149.083 155.141 150.179 149.718 150.149C144.295 150.118 138.937 148.961 133.985 146.75C133.889 146.709 133.795 146.666 133.699 146.62C130.278 145.052 127.102 142.997 124.27 140.519L124.229 140.483C124.094 140.366 123.961 140.254 123.831 140.128C120.455 137.092 117.633 133.492 115.491 129.488C114.848 128.286 114.269 127.05 113.756 125.787C113.401 124.917 113.079 124.033 112.79 123.134C112.756 123.028 112.721 122.923 112.689 122.815C112.628 122.623 112.568 122.429 112.511 122.234C112.396 121.851 112.287 121.46 112.184 121.062C110.701 115.412 110.503 109.502 111.603 103.765C112.703 98.0288 115.075 92.6115 118.543 87.9113C118.868 87.4688 119.203 87.0346 119.55 86.6088C120.047 85.9908 120.563 85.3895 121.097 84.805L121.157 84.7409L121.541 84.3243L121.562 84.3037C125.543 80.0918 130.412 76.8189 135.815 74.7225C141.219 72.6261 147.021 71.7589 152.801 72.1836C158.581 72.6084 164.194 74.3145 169.233 77.1782C174.272 80.0419 178.61 83.9913 181.933 88.74C186.528 95.2937 188.988 103.107 188.976 111.111Z" fill="#FC565D"/>
<path d="M163.075 224.037C162.83 226.573 153.33 225.042 148.606 230.121C146.836 232.024 143.975 236.989 143.528 238.213C143.388 238.638 143.124 239.011 142.771 239.285C142.412 239.537 141.986 239.676 141.548 239.685C141.347 239.684 141.146 239.655 140.953 239.598C139.957 239.28 139.593 237.195 139.566 237.025C139.078 234.077 139.866 231.589 139.722 229.84C139.298 224.758 131.007 225.619 124.108 217.433C122.775 215.851 120.928 213.262 118.415 213.274C117.499 213.274 116.38 213.631 113.974 213.64C112.905 213.64 112.172 213.525 111.822 213.555C109.528 213.77 108.111 214.915 103.49 215.258C96.7619 215.748 94.759 213.656 92.1883 215.554C92.1883 215.554 89.1598 217.813 86.8112 218.731C85.3874 219.287 85.4377 218.905 84.5656 219.372C82.993 220.21 81.0243 224.724 81.0243 224.724C79.193 228.883 77.8905 229.171 78.3232 230.217C79.0649 232.012 82.7549 230.81 85.6483 233.77C86.1061 234.244 87.2186 235.373 86.8844 236.421C86.6555 237.137 85.7719 237.758 84.941 237.783C84.6995 237.787 84.4594 237.745 84.2337 237.659C83.7369 237.49 81.1113 236.599 80.539 237.202C80.0515 237.719 81.3883 238.976 81.7179 241.855C81.9468 243.899 81.4203 244.499 81.1319 244.719C80.9311 244.861 80.7026 244.959 80.4612 245.007C80.4234 245.05 80.3758 245.084 80.3225 245.105C80.2691 245.126 80.2116 245.134 80.1545 245.129C79.5916 245.1 79.0525 244.893 78.6162 244.536C77.039 243.197 73.6511 237.769 70.4784 235.91C66.7037 233.701 63.1235 236.476 61.2373 233.997C60.3812 232.871 60.1271 230.993 60.9145 229.876C62.359 227.816 65.788 230.137 70.19 228.4C71.9183 227.713 73.5641 225.509 76.8627 221.091C77.8287 219.793 79.0649 217.994 78.4834 217.135C78.4142 217.038 78.3272 216.955 78.227 216.89C76.9955 215.975 76.5194 214.118 76.4232 213.821C75.7365 211.699 68.8326 209.206 66.809 208.391C65.5454 207.883 55.0636 203.254 50.435 194.656C49.8307 193.535 48.3016 190.442 46.9464 190.666C45.9369 190.834 45.9621 192.69 44.362 193.395C43.1648 193.924 41.4869 193.624 40.5026 192.729C38.6713 191.069 39.7907 188.107 38.6713 187.661C37.5268 187.203 36.325 190.387 33.3011 191.264C29.9269 192.241 26.5185 189.689 25.9759 189.266C22.3569 186.454 21.5282 181.654 21.2444 180.004C20.6469 176.538 21.384 174.858 19.8526 172.889C18.7355 171.459 17.7558 171.594 15.8329 170.371C15.5674 170.206 9.59053 166.267 9.65233 160.418C9.69125 156.17 12.8868 153.208 13.4591 152.679C16.4578 149.902 18.4677 150.999 19.816 149.087C22.7735 144.9 14.361 137.857 16.7966 131.363C18.2731 127.428 23.1466 125.53 26.2483 125.104C34.3495 123.99 42.7299 131.237 46.1636 138.688C49.8994 146.764 46.5229 152.246 51.211 156.112C55.4504 159.61 62.3841 158.569 62.6566 157.564C62.8305 156.888 59.9554 156.33 58.8383 153.56C58.0509 151.614 58.6094 149.73 58.7468 149.25C59.5411 146.659 61.7226 145.205 62.6222 144.619C70.3846 139.581 90.183 139.361 98.52 130.765C107.871 121.124 105.053 98.6103 111.55 93.3088C111.932 92.9975 113.66 91.6744 113.431 90.3055C113.145 88.5978 110.126 88.7031 108.008 86.762C104.433 83.4977 104.405 75.3439 107.876 72.5329C110.95 70.0447 115.4 72.8419 116.67 70.9145C118.54 68.076 109.091 61.6803 110.771 55.8683C111.797 52.3156 116.876 49.3787 121.068 50.5576C124.623 51.551 126.99 55.2777 127.202 58.3108C127.328 60.0985 126.717 61.8383 127.111 61.9733C127.505 62.1084 128.088 60.2862 129.514 59.1165C131.641 57.3722 135.125 57.5141 137.034 58.3062C143.737 61.1103 146.612 76.1955 141.084 82.7148C139.298 84.8368 136.659 86.0088 136.963 87.7508C137.245 89.3395 139.603 89.2021 142.517 91.022C148.56 94.7944 147.624 101.119 153.424 103.424C153.626 103.504 153.861 103.578 153.861 103.578C154.86 103.918 155.884 104.177 156.924 104.351C158.243 104.58 164.133 105.608 164.577 107.829C164.79 108.9 163.64 110.01 161.338 112.226C158.948 114.529 158.346 114.346 157.632 115.431C156.07 117.795 157.442 120.924 159.067 125.938C160.259 129.614 160.964 133.434 162.127 137.12C165.018 146.276 165.746 170.06 153.557 184.962C149.105 190.399 142.388 198.605 137.048 202.1C136.183 202.668 134.219 203.856 132.944 206.221C132.605 206.853 130.707 209.913 131.243 213.274C132.218 219.379 140.701 223.787 144.927 221.865C148.64 220.175 149.297 215.121 152.142 215.38C153.628 215.515 155.347 217.128 155.258 218.101C155.168 219.074 155.029 219.335 155.029 219.335C154.903 219.855 154.8 220.052 154.837 220.251C154.849 220.302 154.865 220.353 154.885 220.402C155.113 220.942 157.874 220.525 159.644 220.999C161.262 221.42 163.185 222.908 163.075 224.037Z" fill="#FFE600"/>
</g>
<path d="M149.94 306.296C171.499 306.296 188.976 288.819 188.976 267.26C188.976 245.701 171.499 228.224 149.94 228.224C128.381 228.224 110.904 245.701 110.904 267.26C110.904 288.819 128.381 306.296 149.94 306.296Z" fill="#FFE600"/>
<mask id="mask11_7_143795" style="mask-type:luminance" maskUnits="userSpaceOnUse" x="110" y="228" width="79" height="79">
<path d="M149.94 306.296C171.499 306.296 188.976 288.819 188.976 267.26C188.976 245.701 171.499 228.224 149.94 228.224C128.381 228.224 110.904 245.701 110.904 267.26C110.904 288.819 128.381 306.296 149.94 306.296Z" fill="white"/>
</mask>
<g mask="url(#mask11_7_143795)">
<path d="M188.978 267.26C188.98 269.589 188.774 271.914 188.363 274.207C188.347 274.283 188.335 274.361 188.319 274.436C187.762 277.442 186.849 280.372 185.6 283.162C185.386 283.643 185.162 284.118 184.929 284.588C184.624 285.199 184.301 285.809 183.961 286.42C183.7 286.877 183.428 287.335 183.146 287.793C181.55 290.368 179.661 292.749 177.517 294.889C176.943 295.463 176.35 296.018 175.738 296.556C173.374 298.642 170.765 300.434 167.969 301.892C167.162 302.317 166.335 302.713 165.49 303.077C160.513 305.231 155.143 306.328 149.72 306.297C144.297 306.266 138.939 305.109 133.987 302.899C133.891 302.858 133.797 302.814 133.701 302.768C130.28 301.2 127.104 299.146 124.272 296.668L124.231 296.631C124.096 296.514 123.963 296.402 123.833 296.276C120.457 293.24 117.635 289.64 115.494 285.637C114.85 284.434 114.271 283.199 113.758 281.935C113.403 281.065 113.081 280.181 112.792 279.282C112.758 279.177 112.724 279.072 112.692 278.964C112.63 278.772 112.57 278.577 112.513 278.383C112.399 277.999 112.29 277.609 112.186 277.21C110.703 271.561 110.505 265.65 111.605 259.914C112.706 254.177 115.077 248.76 118.545 244.06C118.87 243.617 119.206 243.183 119.552 242.757C120.05 242.139 120.565 241.538 121.1 240.953L121.159 240.889L121.544 240.473L121.564 240.452C125.545 236.24 130.414 232.967 135.818 230.871C141.221 228.775 147.023 227.907 152.803 228.332C158.583 228.757 164.196 230.463 169.235 233.327C174.274 236.19 178.612 240.14 181.935 244.888C186.531 251.442 188.99 259.255 188.978 267.26Z" fill="#FDB157"/>
<path d="M170.191 332.783C170.052 334.22 164.663 333.353 161.983 336.235C160.98 337.313 159.357 340.126 159.103 340.813C159.024 341.055 158.874 341.267 158.673 341.422C158.471 341.565 158.232 341.644 157.986 341.651C157.872 341.651 157.759 341.635 157.649 341.603C157.084 341.422 156.878 340.229 156.862 340.142C156.587 338.471 157.034 337.059 156.951 336.065C156.711 333.188 152.007 333.673 148.095 329.033C147.339 328.136 146.291 326.666 144.865 326.673C144.343 326.673 143.72 326.877 142.347 326.882C141.742 326.882 141.326 326.815 141.127 326.834C139.826 326.948 139.023 327.605 136.402 327.797C132.586 328.074 131.451 326.882 129.992 327.962C129.992 327.962 128.273 329.246 126.941 329.766C126.133 330.082 126.165 329.864 125.668 330.13C124.776 330.604 123.658 333.165 123.658 333.165C122.622 335.525 121.882 335.683 122.127 336.281C122.548 337.299 124.645 336.617 126.284 338.297C126.547 338.565 127.175 339.213 126.987 339.801C126.894 340.021 126.741 340.209 126.546 340.346C126.351 340.482 126.121 340.561 125.883 340.573C125.747 340.575 125.611 340.551 125.483 340.502C125.201 340.406 123.711 339.902 123.386 340.241C123.109 340.534 123.867 341.248 124.055 342.882C124.187 344.041 123.885 344.382 123.723 344.505C123.608 344.585 123.479 344.641 123.343 344.67C123.321 344.694 123.294 344.712 123.263 344.724C123.233 344.735 123.201 344.74 123.169 344.737C122.85 344.721 122.544 344.604 122.296 344.402C121.401 343.642 119.479 340.564 117.679 339.511C115.539 338.256 113.509 339.829 112.437 338.423C111.952 337.785 111.808 336.72 112.254 336.084C113.074 334.916 115.019 336.233 117.519 335.246C118.499 334.859 119.433 333.607 121.303 331.1C121.852 330.366 122.553 329.342 122.219 328.857C122.178 328.802 122.129 328.755 122.072 328.717C121.374 328.196 121.104 327.145 121.049 326.978C120.644 325.781 116.725 324.366 115.576 323.908C114.859 323.62 108.914 320.994 106.289 316.125C105.945 315.489 105.078 313.735 104.311 313.861C103.739 313.957 103.752 315.006 102.844 315.409C102.479 315.549 102.083 315.588 101.697 315.522C101.312 315.455 100.952 315.286 100.655 315.031C99.6183 314.09 100.252 312.41 99.6229 312.158C98.9934 311.906 98.2929 313.703 96.5761 314.2C94.6624 314.754 92.7281 313.307 92.4214 313.055C90.3612 311.453 89.9034 308.738 89.7362 307.802C89.3997 305.836 89.8164 304.883 88.9488 303.766C88.3147 302.954 87.7585 303.031 86.6597 302.333C86.5086 302.239 83.1184 300.005 83.1505 296.688C83.1711 294.278 84.9818 292.598 85.3091 292.298C87.0099 290.723 88.1522 291.346 88.9167 290.261C90.5947 287.887 85.8219 283.89 87.2022 280.207C88.04 277.975 90.8053 276.899 92.5656 276.656C97.1598 276.025 101.912 280.136 103.867 284.362C105.987 288.94 104.071 292.051 106.731 294.246C109.134 296.228 113.069 295.638 113.216 295.068C113.314 294.685 111.684 294.367 111.05 292.797C110.76 292.011 110.741 291.15 110.997 290.352C111.455 288.883 112.682 288.063 113.195 287.727C117.59 284.877 128.823 284.751 133.552 279.877C138.856 274.406 137.258 261.638 140.944 258.632C141.159 258.454 142.141 257.705 142.01 256.927C141.848 255.958 140.135 256.011 138.934 254.917C136.908 253.065 136.892 248.441 138.86 246.846C140.602 245.435 143.127 247.022 143.848 245.93C144.908 244.328 139.549 240.692 140.502 237.396C141.083 235.382 143.965 233.715 146.341 234.379C148.36 234.942 149.702 237.055 149.823 238.776C149.894 239.791 149.546 240.777 149.77 240.855C149.995 240.933 150.324 239.9 151.132 239.237C152.341 238.245 154.316 238.321 155.399 238.779C159.201 240.381 160.827 248.922 157.688 252.628C156.674 253.83 155.17 254.493 155.353 255.48C155.511 256.382 156.851 256.304 158.501 257.336C161.935 259.477 161.399 263.059 164.682 264.371C164.796 264.417 164.931 264.458 164.931 264.458C165.496 264.651 166.075 264.797 166.664 264.895C167.412 265.026 170.755 265.609 171.013 266.868C171.135 267.477 170.48 268.107 169.182 269.363C167.827 270.668 167.486 270.565 167.081 271.181C166.195 272.52 166.973 274.299 167.893 277.133C168.58 279.218 168.969 281.386 169.631 283.476C171.27 288.665 171.691 302.159 164.769 310.608C162.251 313.692 158.432 318.348 155.404 320.33C154.914 320.651 153.801 321.324 153.076 322.672C152.883 323.029 151.808 324.766 152.112 326.673C152.664 330.134 157.478 332.636 159.874 331.544C161.98 330.585 162.351 327.719 163.965 327.866C164.807 327.944 165.783 328.859 165.732 329.411C165.725 329.649 165.681 329.884 165.604 330.109C165.544 330.275 165.507 330.448 165.496 330.624C165.503 330.654 165.512 330.683 165.524 330.711C165.65 331.018 167.22 330.78 168.223 331.05C169.154 331.297 170.242 332.149 170.191 332.783Z" fill="#FFE600"/>
</g>
</g>
<defs>
<clipPath id="clip0_7_143795">
<rect width="300" height="300" fill="white"/>
</clipPath>
</defs>
</svg>
