<svg width="300" height="300" viewBox="0 0 300 300" fill="none" xmlns="http://www.w3.org/2000/svg">
<g clip-path="url(#clip0_7_143806)">
<rect width="300" height="300" fill="#31CFF4"/>
<path d="M149.999 300.007C177.612 300.007 199.997 277.622 199.997 250.009C199.997 222.396 177.612 200.011 149.999 200.011C122.385 200.011 100 222.396 100 250.009C100 277.622 122.385 300.007 149.999 300.007Z" fill="#FFE600"/>
<mask id="mask0_7_143806" style="mask-type:luminance" maskUnits="userSpaceOnUse" x="100" y="200" width="100" height="101">
<path d="M149.999 300.004C177.612 300.004 199.997 277.619 199.997 250.006C199.997 222.393 177.612 200.008 149.999 200.008C122.385 200.008 100 222.393 100 250.006C100 277.619 122.385 300.004 149.999 300.004Z" fill="white"/>
</mask>
<g mask="url(#mask0_7_143806)">
<path d="M200.011 250.006C200.012 252.989 199.748 255.967 199.222 258.904C199.201 259.001 199.187 259.1 199.166 259.197C198.452 263.048 197.283 266.799 195.683 270.374C195.41 270.989 195.123 271.598 194.824 272.2C194.433 272.982 194.02 273.764 193.584 274.546C193.25 275.132 192.902 275.719 192.54 276.305C190.496 279.603 188.076 282.653 185.33 285.394C184.596 286.129 183.836 286.84 183.052 287.529C180.024 290.201 176.682 292.496 173.101 294.363C172.067 294.908 171.009 295.414 169.926 295.882C163.551 298.641 156.673 300.045 149.727 300.006C142.781 299.966 135.919 298.484 129.577 295.653C129.453 295.6 129.333 295.544 129.21 295.486C124.829 293.478 120.761 290.846 117.133 287.672L117.081 287.625C116.908 287.476 116.738 287.332 116.571 287.171C112.247 283.282 108.633 278.671 105.889 273.543C105.066 272.003 104.324 270.421 103.667 268.802C103.212 267.688 102.799 266.555 102.43 265.404C102.386 265.269 102.342 265.134 102.301 264.997C102.222 264.75 102.145 264.501 102.072 264.252C101.925 263.761 101.786 263.261 101.653 262.751C99.7538 255.514 99.4997 247.944 100.909 240.597C102.319 233.249 105.356 226.311 109.798 220.29C110.214 219.724 110.644 219.167 111.088 218.622C111.725 217.831 112.386 217.06 113.07 216.312L113.146 216.23L113.639 215.696L113.665 215.67C118.764 210.275 125 206.083 131.921 203.398C138.842 200.713 146.273 199.602 153.677 200.146C161.08 200.69 168.269 202.875 174.723 206.543C181.177 210.211 186.733 215.27 190.989 221.352C196.876 229.746 200.026 239.753 200.011 250.006Z" fill="white"/>
<path d="M126.932 264.029H127.044C126.989 264.026 126.934 264.026 126.88 264.029H126.932Z" fill="#FC565D"/>
<path d="M189.506 243.081C188.969 248.651 168.085 245.291 157.7 256.453C153.812 260.634 147.523 271.556 146.559 274.238C146.248 275.168 145.668 275.984 144.893 276.584C144.104 277.138 143.168 277.444 142.205 277.463C141.761 277.459 141.32 277.395 140.894 277.273C138.71 276.572 137.909 271.995 137.848 271.617C136.778 265.138 138.507 259.669 138.188 255.82C137.258 244.664 119.036 246.543 103.884 228.553C100.952 225.076 96.8914 219.382 91.3706 219.408C89.3446 219.408 86.8964 220.197 81.6043 220.217C79.2587 220.217 77.6491 219.962 76.878 220.03C71.8321 220.472 68.7213 223.023 58.5651 223.762C43.7793 224.838 39.3755 220.244 33.7256 224.41C33.7256 224.41 27.0701 229.377 21.9069 231.394C18.7756 232.619 18.8988 231.778 16.9725 232.804C13.5157 234.645 9.18817 244.567 9.18817 244.567C5.17141 253.709 2.30104 254.342 3.25099 256.641C4.88115 260.584 12.988 257.945 19.3767 264.451C20.3941 265.489 22.8276 267.97 22.0946 270.277C21.5932 271.852 19.6494 273.209 17.8198 273.268C17.289 273.28 16.761 273.187 16.2659 272.995C15.1752 272.623 9.40221 270.67 8.14734 271.987C7.07425 273.124 10.012 275.889 10.7392 282.216C11.2464 286.708 10.0824 288.024 9.44619 288.508C9.00776 288.821 8.50821 289.038 7.98021 289.144C7.89661 289.238 7.79193 289.311 7.67473 289.357C7.55752 289.403 7.43112 289.42 7.30587 289.408C5.80178 289.408 4.4179 288.529 3.92533 288.106C0.459772 285.16 -6.98736 273.236 -13.9595 269.151C-22.2569 264.293 -30.1204 270.389 -34.2691 264.941C-36.1514 262.467 -36.7085 258.341 -34.9757 255.876C-31.8063 251.357 -24.2682 256.462 -14.5928 252.63C-10.7813 251.129 -7.17207 246.273 0.0668994 236.566C2.19549 233.713 4.90753 229.758 3.63214 227.873C3.47894 227.66 3.28696 227.478 3.06627 227.336C0.357156 225.313 -0.686613 221.241 -0.897713 220.593C-2.39594 215.928 -17.5805 210.445 -22.037 208.654C-24.8136 207.54 -47.8381 197.366 -58.0208 178.469C-59.3489 176.004 -62.7119 169.205 -65.6878 169.7C-67.9073 170.067 -67.8516 174.145 -71.3699 175.696C-74.0087 176.869 -77.6883 176.197 -79.852 174.23C-83.8717 170.583 -81.4148 164.074 -83.8512 163.089C-86.3815 162.071 -89.0085 169.081 -95.6552 171.005C-103.073 173.151 -110.564 167.542 -111.757 166.607C-119.712 160.426 -121.53 149.877 -122.157 146.25C-123.468 138.627 -121.864 134.939 -125.212 130.612C-127.666 127.466 -129.821 127.768 -134.049 125.058C-134.635 124.695 -147.771 116.037 -147.642 103.183C-147.559 93.845 -140.532 87.3332 -139.277 86.178C-132.686 80.0767 -128.267 82.4838 -125.303 78.2852C-118.803 69.0848 -137.295 53.5984 -131.941 39.3257C-128.695 30.6765 -117.985 26.5073 -111.165 25.569C-93.3624 23.1179 -74.944 39.0559 -67.3708 55.4249C-59.1613 73.1778 -66.5791 85.2251 -56.2763 93.7219C-46.9585 101.409 -31.7154 99.1225 -31.1466 96.9148C-30.7625 95.4283 -37.0808 94.1998 -39.5378 88.119C-41.2676 83.8413 -40.0597 79.6984 -39.7372 78.6429C-37.9956 72.9491 -33.2136 69.7562 -31.2345 68.4633C-14.2087 57.4245 29.3218 56.9437 47.6348 38.0503C68.1848 16.8583 62.0013 -32.624 76.2711 -44.2726C77.1125 -44.9587 80.9123 -47.8672 80.408 -50.8724C79.7806 -54.6282 73.1427 -54.4113 68.4897 -58.6655C60.6321 -65.8399 60.5734 -83.7599 68.1965 -89.9434C74.94 -95.4056 84.7356 -89.2602 87.5268 -93.4969C91.6315 -99.7331 70.8704 -113.792 74.5617 -126.566C76.8164 -134.374 87.9812 -140.83 97.1934 -138.259C105.007 -136.074 110.208 -127.883 110.68 -121.218C110.956 -117.287 109.616 -113.466 110.481 -113.158C111.346 -112.851 112.627 -116.864 115.758 -119.436C120.435 -123.271 128.087 -122.98 132.289 -121.218C147.016 -115.061 153.317 -81.9128 141.19 -67.5639C137.261 -62.8992 131.459 -60.325 132.142 -56.5076C132.761 -53.0157 137.942 -53.3176 144.345 -49.3155C157.627 -41.024 155.571 -27.1208 168.319 -22.0485C168.762 -21.8726 169.281 -21.7084 169.281 -21.7084C171.471 -20.962 173.719 -20.3952 176.001 -20.0138C178.901 -19.5066 191.848 -17.249 192.822 -12.3673C193.291 -10.0217 190.769 -7.5765 185.703 -2.6919C180.452 2.36569 179.13 1.96695 177.558 4.34475C174.125 9.54014 177.142 16.4273 180.713 27.4396C183.331 35.5171 184.882 43.9142 187.439 52.0151C193.795 72.1252 195.396 124.413 168.601 157.154C158.799 169.117 144.034 187.154 132.298 194.838C130.398 196.082 126.079 198.691 123.279 203.91C122.534 205.3 118.362 212.028 119.541 219.414C121.681 232.833 140.331 242.521 149.617 238.296C157.77 234.581 159.219 223.463 165.475 224.049C168.739 224.343 172.512 227.893 172.322 230.033C172.134 232.086 171.823 232.745 171.823 232.745C171.547 233.889 171.342 234.32 171.404 234.736C171.429 234.85 171.463 234.962 171.506 235.071C172.002 236.243 178.08 235.34 181.968 236.381C185.539 237.328 189.743 240.597 189.506 243.081Z" fill="#FDB157"/>
<path d="M126.932 264.029H127.044C126.989 264.026 126.934 264.026 126.88 264.029H126.932Z" fill="#FC565D"/>
</g>
<path d="M50.0017 99.9976C77.6151 99.9976 100 77.6126 100 49.9993C100 22.386 77.6151 0.000976562 50.0017 0.000976562C22.3884 0.000976562 0.0032959 22.386 0.0032959 49.9993C0.0032959 77.6126 22.3884 99.9976 50.0017 99.9976Z" fill="#FFE600"/>
<mask id="mask1_7_143806" style="mask-type:luminance" maskUnits="userSpaceOnUse" x="0" y="0" width="100" height="100">
<path d="M49.9984 99.9966C77.6118 99.9966 99.9969 77.6116 99.9969 49.9983C99.9969 22.385 77.6118 0 49.9984 0C22.3851 0 0 22.385 0 49.9983C0 77.6116 22.3851 99.9966 49.9984 99.9966Z" fill="white"/>
</mask>
<g mask="url(#mask1_7_143806)">
<path d="M100 49.9988C100.002 52.9824 99.7377 55.9603 99.2113 58.8972C99.1907 58.9939 99.1761 59.0936 99.1556 59.1904C98.4417 63.0408 97.2724 66.7926 95.6724 70.3669C95.3988 70.9826 95.1124 71.5915 94.8134 72.1935C94.4224 72.9754 94.009 73.7572 93.5731 74.5391C93.2389 75.1254 92.891 75.7118 92.5294 76.2982C90.485 79.596 88.0657 82.646 85.3197 85.3872C84.5848 86.1222 83.8254 86.8337 83.0416 87.5217C80.0132 90.1938 76.6718 92.4887 73.0906 94.356C72.0566 94.9014 70.9982 95.4076 69.9153 95.8748C63.5407 98.6338 56.6624 100.038 49.7166 99.9987C42.7707 99.9594 35.9087 98.4772 29.5659 95.6461C29.4427 95.5933 29.3225 95.5376 29.1994 95.4789C24.8179 93.4708 20.7501 90.839 17.1227 87.6653L17.0699 87.6184C16.8969 87.4689 16.7269 87.3252 16.5598 87.164C12.236 83.2753 8.62178 78.6639 5.87869 73.5363C5.05485 71.9963 4.31301 70.4138 3.65628 68.7954C3.20085 67.6813 2.78842 66.5486 2.419 65.3973C2.37502 65.2624 2.33104 65.1275 2.28999 64.9897C2.21083 64.7435 2.1346 64.4942 2.0613 64.245C1.9147 63.7544 1.77495 63.254 1.64203 62.7439C-0.256959 55.5074 -0.511061 47.9374 0.898382 40.5899C2.30783 33.2423 5.34503 26.3037 9.78697 20.2836C10.2033 19.7167 10.6333 19.1607 11.077 18.6153C11.7142 17.8237 12.3749 17.0536 13.059 16.3049L13.1353 16.2229L13.6278 15.6892L13.6542 15.6629C18.7534 10.2681 24.9896 6.0761 31.9102 3.39101C38.8309 0.705933 46.2625 -0.404893 53.6658 0.139134C61.0691 0.683161 68.2585 2.8684 74.7124 6.53629C81.1662 10.2042 86.7226 15.2627 90.9784 21.3449C96.8648 29.7392 100.016 39.7463 100 49.9988Z" fill="#FDB157"/>
<path d="M72.5336 64.7965C72.2874 67.3649 62.6677 65.8169 57.8739 70.9536C56.0825 72.8799 53.1828 77.9111 52.7342 79.1454C52.592 79.5755 52.3245 79.9533 51.9661 80.2303C51.603 80.4855 51.1724 80.6273 50.7288 80.6378C50.5245 80.6351 50.3214 80.6055 50.1248 80.5498C49.1191 80.2273 48.7526 78.1134 48.7233 77.9433C48.2308 74.9586 49.0165 72.4401 48.8787 70.6692C48.4507 65.5295 40.0565 66.3944 33.0755 58.1147C31.7239 56.5138 29.8504 53.8897 27.3113 53.9015C26.379 53.9015 25.259 54.265 22.8137 54.2738C21.7318 54.2738 20.9901 54.1566 20.6353 54.1888C18.3103 54.394 16.8795 55.5668 12.2001 55.9069C5.3892 56.4053 3.36322 54.2826 0.76552 56.2001C0.76552 56.2001 -2.29836 58.487 -4.6791 59.4252C-6.12162 59.9911 -6.06298 59.6011 -6.95136 60.0761C-8.54341 60.9234 -10.5371 65.4914 -10.5371 65.4914C-12.3872 69.7046 -13.7095 69.9949 -13.2697 71.0621C-12.5191 72.8799 -8.78676 71.6631 -5.85188 74.6596C-5.37984 75.1404 -4.25984 76.2809 -4.59701 77.3452C-4.82863 78.0694 -5.72581 78.6969 -6.56728 78.7232C-6.81162 78.7275 -7.05451 78.6847 -7.28267 78.5972C-7.78403 78.4242 -10.4433 77.5241 -11.0238 78.131C-11.5164 78.6558 -10.1648 79.9283 -9.8276 82.8426C-9.59304 84.9126 -10.1208 85.5195 -10.414 85.7423C-10.6173 85.8872 -10.8492 85.9871 -11.0942 86.0355C-11.1308 86.0764 -11.1762 86.1084 -11.227 86.1292C-11.2778 86.15 -11.3326 86.1591 -11.3874 86.1557C-11.9565 86.1314 -12.503 85.9259 -12.9472 85.5693C-14.5422 84.2118 -17.9725 78.7174 -21.1859 76.838C-24.9975 74.598 -28.6302 77.4068 -30.5388 74.8971C-31.4184 73.7565 -31.6618 71.8596 -30.8672 70.722C-29.4013 68.6403 -25.9328 70.9859 -21.485 69.2267C-19.7258 68.5377 -18.0693 66.2948 -14.7415 61.8265C-13.7623 60.5159 -12.5133 58.6922 -13.0996 57.8244C-13.1705 57.7267 -13.259 57.6432 -13.3606 57.5781C-14.6096 56.6458 -15.0904 54.7693 -15.1872 54.4703C-15.8733 52.2918 -22.8689 49.7674 -24.9212 48.9436C-26.1996 48.4275 -36.8103 43.7423 -41.4955 35.0374C-42.1054 33.9027 -43.6534 30.7714 -45.0139 31.0001C-46.0371 31.1672 -46.0107 33.0525 -47.6321 33.762C-48.2835 34.0111 -48.9901 34.0799 -49.6774 33.9612C-50.3647 33.8425 -51.0072 33.5408 -51.5374 33.0877C-53.3904 31.4077 -52.2587 28.3966 -53.3816 27.9568C-54.5046 27.517 -55.7565 30.7157 -58.8175 31.6041C-62.2332 32.5922 -65.6841 30.0091 -66.2323 29.5811C-69.8973 26.7341 -70.7358 21.8759 -71.0231 20.1989C-71.6271 16.6805 -70.8824 14.9888 -72.4305 12.998C-73.5622 11.5321 -74.5561 11.6874 -76.5029 10.4384C-76.7697 10.2713 -82.8213 6.28389 -82.7626 0.361381C-82.7245 -3.93977 -79.4877 -6.93621 -78.9101 -7.47275C-75.8726 -10.2845 -73.8378 -9.17327 -72.4598 -11.1084C-69.4633 -15.345 -77.9836 -22.4784 -75.5149 -29.0518C-74.0225 -33.0363 -69.088 -34.9567 -65.9479 -35.3877C-57.7385 -36.5165 -49.2622 -29.1779 -45.7762 -21.6369C-42.0203 -13.4539 -45.4448 -7.91548 -40.6922 -3.99255C-36.3998 -0.450767 -29.3778 -1.50333 -29.1169 -2.52658C-28.9409 -3.20972 -31.8494 -3.77851 -32.9812 -6.57851C-33.7786 -8.5517 -33.2216 -10.4575 -33.075 -10.9442C-32.2716 -13.5682 -30.0697 -15.0489 -29.152 -15.6353C-21.3091 -20.7104 -1.26045 -20.9333 7.18061 -29.6353C16.6479 -39.3957 13.7951 -62.1797 20.3744 -67.554C20.7614 -67.8677 22.5118 -69.2076 22.2801 -70.5944C21.9869 -72.3242 18.9318 -72.2216 16.7886 -74.1831C13.1706 -77.4874 13.1413 -85.7408 16.6537 -88.5877C19.7675 -91.1062 24.2768 -88.274 25.558 -90.2266C27.4521 -93.0999 17.8851 -99.5737 19.5857 -105.458C20.6236 -109.056 25.7662 -112.029 30.0087 -110.844C33.6092 -109.838 36.0046 -106.065 36.2215 -102.995C36.3476 -101.183 35.7289 -99.4241 36.1277 -99.2834C36.5264 -99.1427 37.1158 -100.99 38.5612 -102.174C40.7162 -103.933 44.2404 -103.804 46.1843 -102.995C52.9688 -100.151 55.8597 -84.8905 50.289 -78.279C48.48 -76.1299 45.809 -74.9454 46.1227 -73.1862C46.4159 -71.5766 48.7937 -71.7203 51.7432 -69.8731C57.8622 -66.0616 56.9152 -59.6524 62.7849 -57.3186C62.9902 -57.2365 63.2277 -57.1632 63.2306 -57.1632C64.2384 -56.8177 65.273 -56.5559 66.3238 -56.3804C67.6608 -56.1488 73.6243 -55.1079 74.0729 -52.8621C74.287 -51.7772 73.123 -50.6543 70.7921 -48.4084C68.3732 -46.0805 67.7634 -46.2652 67.0392 -45.1833C65.4589 -42.7909 66.8486 -39.6126 68.5052 -34.5462C69.7131 -30.8256 70.4256 -26.9584 71.6042 -23.226C74.5362 -13.9641 75.2691 10.1218 62.9286 25.2007C58.4222 30.704 51.6201 39.0131 46.2165 42.5519C45.3369 43.1237 43.352 44.3258 42.062 46.73C41.7189 47.3691 39.7985 50.4682 40.3409 53.8692C41.326 60.0527 49.9166 64.5151 54.1943 62.5683C57.9531 60.856 58.6157 55.7398 61.4978 56.0007C63.0019 56.1385 64.7405 57.7599 64.6526 58.7567C64.6379 59.1823 64.5599 59.6033 64.421 60.0058C64.2949 60.5335 64.2011 60.7329 64.2274 60.9235C64.241 60.9762 64.2577 61.0281 64.2773 61.0789C64.5031 61.6242 67.3031 61.202 69.0945 61.6828C70.7071 62.1402 72.6451 63.6472 72.5336 64.7965Z" fill="#FC565D"/>
</g>
<path d="M149.999 100C177.612 100 199.997 77.615 199.997 50.0017C199.997 22.3884 177.612 0.00341797 149.999 0.00341797C122.385 0.00341797 100 22.3884 100 50.0017C100 77.615 122.385 100 149.999 100Z" fill="#FFE600"/>
<mask id="mask2_7_143806" style="mask-type:luminance" maskUnits="userSpaceOnUse" x="100" y="0" width="100" height="100">
<path d="M149.999 99.9969C177.612 99.9969 199.997 77.6119 199.997 49.9986C199.997 22.3852 177.612 0.000244141 149.999 0.000244141C122.385 0.000244141 100 22.3852 100 49.9986C100 77.6119 122.385 99.9969 149.999 99.9969Z" fill="white"/>
</mask>
<g mask="url(#mask2_7_143806)">
<path d="M200.035 50.049C200.037 53.0326 199.773 56.0105 199.247 58.9474C199.229 59.0441 199.211 59.1409 199.191 59.2406C198.478 63.093 197.308 66.8468 195.708 70.423C195.434 71.0387 195.148 71.6476 194.849 72.2496C194.456 73.0412 194.042 73.824 193.609 74.5951C193.274 75.1815 192.926 75.7679 192.565 76.3543C190.52 79.6521 188.101 82.702 185.355 85.4433C184.62 86.1782 183.861 86.8897 183.077 87.5777C180.048 90.2489 176.707 92.5427 173.126 94.4092C172.088 94.9525 171.03 95.4578 169.951 95.925C163.578 98.6823 156.702 100.086 149.758 100.046C142.814 100.007 135.954 98.5257 129.613 95.6963L129.246 95.5292C124.866 93.5206 120.798 90.8898 117.17 87.7185L117.117 87.6745C116.944 87.525 116.774 87.3813 116.607 87.22C112.279 83.3326 108.66 78.7212 105.914 73.5924C105.09 72.0534 104.348 70.4718 103.692 68.8544C103.24 67.7403 102.828 66.6076 102.454 65.4563C102.41 65.3214 102.366 65.1865 102.325 65.0487C102.246 64.8025 102.17 64.5533 102.097 64.304C101.95 63.8056 101.803 63.3072 101.677 62.8029C99.7771 55.5651 99.5222 47.9935 100.932 40.6443C102.341 33.2951 105.379 26.355 109.822 20.3338C110.239 19.7689 110.669 19.2128 111.112 18.6655C111.75 17.8837 112.41 17.1126 113.094 16.3522L113.171 16.2731C113.335 16.0913 113.499 15.9154 113.663 15.7395L113.69 15.7131C118.789 10.3188 125.026 6.12738 131.947 3.44302C138.868 0.75865 146.3 -0.351367 153.703 0.193504C161.107 0.738375 168.296 2.92447 174.749 6.59317C181.203 10.2619 186.759 15.3212 191.014 21.404C196.898 29.7962 200.048 39.7997 200.035 50.049Z" fill="white"/>
<path d="M125.455 63.7292H125.567C125.512 63.7263 125.457 63.7263 125.402 63.7292H125.455Z" fill="#FC565D"/>
<path d="M264.148 105.234C263.917 107.635 254.924 106.187 250.45 110.995C248.776 112.795 246.07 117.498 245.648 118.653C245.514 119.055 245.264 119.408 244.929 119.668C244.589 119.906 244.186 120.037 243.771 120.046C243.581 120.045 243.391 120.018 243.208 119.964C242.267 119.671 241.921 117.689 241.895 117.53C241.435 114.739 242.188 112.382 242.041 110.725C241.643 105.92 233.794 106.729 227.264 98.9975C226.001 97.5023 224.253 95.0512 221.876 95.06C220.996 95.06 219.949 95.4001 217.668 95.4089C216.66 95.4089 215.965 95.3004 215.633 95.3297C213.461 95.5203 212.115 96.6168 207.746 96.9364C201.378 97.3996 199.481 95.4147 197.051 97.2149C197.051 97.2149 194.183 99.3552 191.958 100.223C190.609 100.751 190.665 100.387 189.835 100.83C188.346 101.622 186.481 105.896 186.481 105.896C184.751 109.834 183.517 110.107 183.924 111.095C184.625 112.795 188.117 111.658 190.861 114.458C191.301 114.906 192.348 115.976 192.034 116.97C191.88 117.336 191.625 117.651 191.299 117.879C190.973 118.107 190.59 118.238 190.193 118.257C189.965 118.262 189.738 118.222 189.524 118.14C189.052 117.979 186.566 117.137 186.027 117.706C185.563 118.196 186.83 119.386 187.144 122.104C187.361 124.039 186.851 124.605 186.587 124.813C186.397 124.948 186.181 125.042 185.953 125.089C185.917 125.129 185.871 125.161 185.82 125.18C185.769 125.199 185.714 125.206 185.66 125.2C185.124 125.176 184.611 124.981 184.194 124.643C182.702 123.374 179.503 118.237 176.489 116.478C172.918 114.384 169.529 117.011 167.743 114.666C166.934 113.599 166.693 111.822 167.45 110.76C168.816 108.814 172.062 111.007 176.231 109.362C177.867 108.717 179.424 106.626 182.546 102.443C183.461 101.217 184.631 99.5106 184.08 98.7014C184.014 98.6093 183.932 98.5307 183.836 98.4698C182.664 97.5902 182.221 95.831 182.13 95.5642C181.485 93.5559 174.944 91.1927 173.026 90.4216C171.833 89.9349 161.911 85.5546 157.528 77.4038C156.942 76.3425 155.508 73.4164 154.227 73.6275C153.271 73.7858 153.294 75.542 151.779 76.2105C151.169 76.4434 150.508 76.5078 149.865 76.3969C149.223 76.286 148.621 76.0038 148.125 75.5802C146.396 74.0086 147.454 71.2057 146.404 70.7835C145.355 70.3613 144.185 73.3636 141.32 74.1934C138.125 75.1169 134.899 72.701 134.386 72.3023C130.959 69.6401 130.176 65.0985 129.906 63.5358C129.343 60.2549 130.041 58.6629 128.59 56.7923C127.534 55.4378 126.605 55.5668 124.778 54.3999C124.529 54.2415 118.87 50.515 118.914 44.9766C118.95 40.9569 121.975 38.154 122.515 37.6468C125.356 35.008 127.259 36.0547 128.534 34.2457C131.334 30.2847 123.371 23.6145 125.676 17.4692C127.092 13.7808 131.704 11.9747 134.641 11.5701C142.308 10.5146 150.239 17.3783 153.503 24.4296C157.039 32.0732 153.843 37.2627 158.279 40.9217C162.293 44.2319 168.857 43.2468 169.103 42.2968C169.268 41.6577 166.547 41.124 165.488 38.5088C165.003 37.1964 164.973 35.7589 165.403 34.4275C166.154 31.9735 168.212 30.5984 169.071 30.0296C176.401 25.2769 195.151 25.0688 203.041 16.9326C211.892 7.81724 209.227 -13.4862 215.375 -18.5086C215.736 -18.8018 217.372 -20.0567 217.155 -21.3526C216.885 -22.971 214.027 -22.8772 212.024 -24.7097C208.641 -27.797 208.611 -35.5168 211.898 -38.179C214.807 -40.5245 219.02 -37.8858 220.222 -39.7094C221.981 -42.3951 213.05 -48.4495 214.651 -53.9499C215.622 -57.3157 220.43 -60.1069 224.397 -58.9869C227.763 -58.0458 230.003 -54.5187 230.202 -51.6571C230.322 -49.9654 229.745 -48.3176 230.117 -48.1857C230.49 -48.0537 231.041 -49.7836 232.392 -50.8889C234.407 -52.5425 237.702 -52.4165 239.511 -51.6571C245.856 -48.9978 248.568 -34.731 243.346 -28.5476C241.654 -26.5392 239.153 -25.4309 239.45 -23.7861C239.713 -22.282 241.948 -22.411 244.704 -20.687C250.424 -17.1159 249.538 -11.1289 255.03 -8.95929C255.221 -8.88599 255.443 -8.81563 255.443 -8.81563C256.382 -8.48765 257.346 -8.23567 258.325 -8.06212C259.574 -7.84515 265.151 -6.87175 265.57 -4.76955C265.773 -3.7551 264.691 -2.7172 262.503 -0.606206C260.243 1.57222 259.674 1.39924 258.985 2.42248C257.519 4.65955 258.803 7.62667 260.343 12.3676C261.471 15.8478 262.137 19.4658 263.239 22.9519C265.978 31.6158 266.667 54.133 255.127 68.2357C250.914 73.3783 244.554 81.1362 239.499 84.4581C238.681 84.9946 236.823 86.1175 235.615 88.3634C235.295 88.9498 233.498 91.8612 234.005 95.0424C234.929 100.821 242.959 104.993 246.958 103.173C250.477 101.572 251.095 96.7898 253.787 97.0331C255.194 97.1621 256.821 98.6897 256.736 99.6103C256.725 100.01 256.653 100.405 256.522 100.783C256.402 101.279 256.314 101.463 256.341 101.642C256.352 101.691 256.367 101.739 256.385 101.786C256.599 102.299 259.217 101.903 260.891 102.352C262.43 102.756 264.251 104.164 264.148 105.234Z" fill="#FC565D"/>
<path d="M125.455 63.7292H125.567C125.512 63.7263 125.457 63.7263 125.402 63.7292H125.455Z" fill="#FC565D"/>
</g>
<path d="M249.996 100C277.609 100 299.994 77.6153 299.994 50.002C299.994 22.3887 277.609 0.00366211 249.996 0.00366211C222.383 0.00366211 199.998 22.3887 199.998 50.002C199.998 77.6153 222.383 100 249.996 100Z" fill="#FFE600"/>
<mask id="mask3_7_143806" style="mask-type:luminance" maskUnits="userSpaceOnUse" x="199" y="0" width="101" height="100">
<path d="M249.996 99.9969C277.609 99.9969 299.994 77.6119 299.994 49.9986C299.994 22.3852 277.609 0.000244141 249.996 0.000244141C222.382 0.000244141 199.997 22.3852 199.997 49.9986C199.997 77.6119 222.382 99.9969 249.996 99.9969Z" fill="white"/>
</mask>
<g mask="url(#mask3_7_143806)">
<path d="M299.985 50.0073C299.986 52.991 299.722 55.9689 299.196 58.9057C299.175 59.0025 299.161 59.1022 299.14 59.1989C298.426 63.0493 297.257 66.8012 295.657 70.3755C295.383 70.9912 295.097 71.6 294.798 72.2021C294.407 72.9839 293.994 73.7658 293.558 74.5476C293.224 75.134 292.876 75.7204 292.514 76.3068C290.47 79.6045 288.05 82.6545 285.304 85.3958C284.569 86.1307 283.81 86.8422 283.026 87.5302C279.998 90.2024 276.656 92.4972 273.075 94.3646C272.041 94.9099 270.983 95.4162 269.9 95.8833C263.525 98.6423 256.647 100.047 249.701 100.007C242.755 99.9679 235.893 98.4857 229.55 95.6546C229.427 95.6018 229.307 95.5461 229.184 95.4875C224.802 93.4793 220.735 90.8475 217.107 87.6739L217.055 87.627C216.882 87.4774 216.712 87.3338 216.544 87.1725C212.221 83.2838 208.606 78.6725 205.863 73.5449C205.039 72.0048 204.298 70.4223 203.641 68.8039C203.185 67.6898 202.773 66.5571 202.404 65.4058C202.36 65.271 202.316 65.1361 202.275 64.9983C202.195 64.752 202.119 64.5028 202.046 64.2536C201.899 63.763 201.76 63.2626 201.627 62.7524C199.728 55.5159 199.474 47.946 200.883 40.5984C202.292 33.2509 205.33 26.3123 209.772 20.2921C210.188 19.7253 210.618 19.1692 211.062 18.6239C211.699 17.8322 212.36 17.0621 213.044 16.3135L213.12 16.2314L213.612 15.6978L213.639 15.6714C218.738 10.2766 224.974 6.08464 231.895 3.39956C238.816 0.714478 246.247 -0.396348 253.65 0.147679C261.054 0.691706 268.243 2.87694 274.697 6.54483C281.151 10.2127 286.707 15.2713 290.963 21.3535C296.849 29.7477 300 39.7549 299.985 50.0073Z" fill="#FFE600"/>
<path d="M253.454 94.0778C253.313 95.5438 247.824 94.6642 245.098 97.5961C244.075 98.6956 242.424 101.563 242.166 102.27C242.084 102.514 241.932 102.729 241.729 102.888C241.521 103.033 241.276 103.114 241.022 103.12C240.905 103.118 240.789 103.102 240.676 103.07C240.105 102.885 239.894 101.68 239.876 101.584C239.583 99.8801 240.049 98.4434 239.967 97.4319C239.723 94.5 234.933 94.9955 230.951 90.2721C230.18 89.3574 229.113 87.8621 227.661 87.8679C227.131 87.8679 226.489 88.0761 225.096 88.082C224.48 88.082 224.058 88.0145 223.856 88.0321C222.531 88.1494 221.713 88.8179 219.044 89.0143C215.16 89.3075 214.002 88.0849 212.518 89.1814C212.518 89.1814 210.759 90.4891 209.413 91.0198C208.589 91.3394 208.621 91.1195 208.114 91.3892C207.208 91.873 206.062 94.4795 206.062 94.4795C205.006 96.8807 204.253 97.0478 204.502 97.6518C204.93 98.6868 207.062 97.9948 208.736 99.7042C209.003 99.9768 209.642 100.628 209.448 101.235C209.356 101.458 209.203 101.652 209.006 101.792C208.808 101.933 208.576 102.015 208.334 102.029C208.195 102.031 208.057 102.007 207.927 101.959C207.633 101.859 206.123 101.346 205.792 101.692C205.499 101.985 206.282 102.718 206.475 104.381C206.607 105.553 206.302 105.905 206.135 106.034C206.019 106.116 205.887 106.173 205.748 106.201C205.726 106.226 205.699 106.244 205.668 106.256C205.638 106.268 205.605 106.272 205.572 106.269C205.251 106.25 204.943 106.131 204.693 105.929C203.784 105.155 201.828 102.02 200.002 100.944C197.823 99.669 195.756 101.27 194.668 99.839C194.173 99.1881 194.026 98.1033 194.481 97.4554C195.313 96.2679 197.295 97.6078 199.837 96.6051C200.834 96.2093 201.787 94.9339 203.69 92.3831C204.25 91.6325 204.962 90.5946 204.625 90.0991C204.586 90.0428 204.537 89.9949 204.479 89.9584C203.766 89.4277 203.491 88.3546 203.438 88.1846C203.042 86.959 199.054 85.5195 197.882 85.0474C197.131 84.7308 191.08 82.0715 188.406 77.1077C188.06 76.4627 187.174 74.6742 186.394 74.8062C185.808 74.9029 185.826 75.9789 184.899 76.3806C184.528 76.5234 184.124 76.5631 183.732 76.4955C183.34 76.4279 182.973 76.2555 182.671 75.9965C181.615 75.0378 182.26 73.3285 181.621 73.0646C180.982 72.8007 180.267 74.639 178.519 75.1433C176.569 75.7092 174.602 74.2344 174.288 73.9911C172.198 72.3668 171.72 69.5932 171.556 68.6432C171.213 66.6407 171.638 65.6703 170.752 64.5385C170.107 63.7117 169.542 63.7909 168.43 63.0726C168.278 62.9787 164.827 60.7036 164.859 57.326C164.883 54.8719 166.727 53.1626 167.058 52.8577C168.791 51.2539 169.952 51.8872 170.729 50.7819C172.438 48.366 167.58 44.2964 168.984 40.5465C169.838 38.2742 172.652 37.1777 174.444 36.9314C179.135 36.2893 183.961 40.4761 185.952 44.7773C188.11 49.442 186.16 52.6055 188.866 54.8397C191.314 56.8598 195.316 56.2587 195.469 55.6782C195.568 55.2883 193.909 54.9658 193.264 53.3649C192.968 52.5645 192.95 51.688 193.211 50.8757C193.669 49.3804 194.923 48.5302 195.448 48.2018C199.922 45.3021 211.36 45.176 216.174 40.2123C221.572 34.6416 219.945 21.6414 223.697 18.5804C223.917 18.4016 224.917 17.6363 224.785 16.8477C224.618 15.8596 222.877 15.9182 221.654 14.7953C219.602 12.9101 219.572 8.20138 221.575 6.58588C223.352 5.14923 225.923 6.76473 226.656 5.65059C227.735 4.01164 222.27 0.320334 223.249 -3.03673C223.835 -5.08909 226.767 -6.78375 229.195 -6.1094C231.247 -5.52301 232.614 -3.3827 232.737 -1.63234C232.81 -0.600294 232.443 0.42002 232.684 0.484522C232.924 0.549025 233.25 -0.48888 234.071 -1.16323C235.299 -2.17181 237.296 -2.09558 238.416 -1.63234C242.286 -0.0109747 243.94 8.69394 240.761 12.4673C239.729 13.6929 238.208 14.3672 238.387 15.37C238.548 16.2877 239.911 16.2085 241.591 17.2611C245.08 19.4395 244.541 23.0927 247.892 24.4238C248.006 24.4678 248.144 24.5117 248.144 24.5117C248.717 24.7075 249.306 24.8565 249.903 24.9574C250.666 25.0893 254.067 25.6845 254.322 26.9658C254.448 27.5844 253.782 28.2265 252.451 29.5048C251.073 30.8359 250.724 30.7304 250.311 31.3549C249.411 32.7212 250.202 34.5302 251.14 37.424C251.829 39.5467 252.237 41.7515 252.9 43.8742C254.571 49.1517 254.99 62.8966 247.951 71.4989C245.379 74.6361 241.5 79.3771 238.416 81.3942C237.43 81.968 236.613 82.7911 236.047 83.7808C235.85 84.1444 234.757 85.9123 235.065 87.8533C235.628 91.3716 240.527 93.9253 242.981 92.8141C245.127 91.8378 245.505 88.9176 247.147 89.0671C248.006 89.1463 248.997 90.0786 248.947 90.6416C248.939 90.8842 248.894 91.1243 248.815 91.354C248.753 91.5214 248.716 91.6974 248.707 91.8759C248.713 91.906 248.722 91.9354 248.733 91.9639C248.862 92.2746 250.46 92.0342 251.481 92.3069C252.41 92.5649 253.515 93.424 253.454 94.0778Z" fill="#FDB157"/>
</g>
<path d="M50.0017 299.999C77.6151 299.999 100 277.614 100 250.001C100 222.387 77.6151 200.002 50.0017 200.002C22.3884 200.002 0.0032959 222.387 0.0032959 250.001C0.0032959 277.614 22.3884 299.999 50.0017 299.999Z" fill="#FFE600"/>
<mask id="mask4_7_143806" style="mask-type:luminance" maskUnits="userSpaceOnUse" x="0" y="200" width="100" height="100">
<path d="M49.9984 300C77.6118 300 99.9969 277.615 99.9969 250.001C99.9969 222.388 77.6118 200.003 49.9984 200.003C22.3851 200.003 0 222.388 0 250.001C0 277.615 22.3851 300 49.9984 300Z" fill="white"/>
</mask>
<g mask="url(#mask4_7_143806)">
<path d="M101.501 250.344C101.503 253.328 101.239 256.306 100.712 259.243C100.695 259.339 100.677 259.436 100.657 259.536C99.9431 263.388 98.7738 267.142 97.1734 270.718C96.8997 271.334 96.6134 271.943 96.3143 272.545C95.9214 273.336 95.508 274.119 95.0741 274.89C94.7399 275.477 94.3919 276.063 94.0303 276.649C91.9859 279.947 89.5666 282.997 86.8207 285.738C86.0857 286.473 85.3264 287.185 84.5426 287.873C81.514 290.544 78.1726 292.838 74.5915 294.704C73.5536 295.248 72.4952 295.753 71.4163 296.22C65.0433 298.977 58.1671 300.381 51.2234 300.342C44.2797 300.302 37.4198 298.821 31.0786 295.991L30.7121 295.824C26.3315 293.816 22.2639 291.185 18.6354 288.014L18.5826 287.97C18.4096 287.82 18.2396 287.676 18.0725 287.515C13.7442 283.628 10.1259 279.016 7.37966 273.888C6.55581 272.349 5.81397 270.767 5.15725 269.15C4.70573 268.035 4.2933 266.903 3.91997 265.751C3.87599 265.617 3.83201 265.482 3.79096 265.344C3.7118 265.098 3.63557 264.848 3.56227 264.599C3.41567 264.101 3.26908 263.602 3.143 263.098C1.24263 255.86 0.987822 248.289 2.39729 240.939C3.80675 233.59 6.84469 226.65 11.2879 220.629C11.7043 220.064 12.1343 219.508 12.578 218.961C13.2152 218.179 13.8759 217.408 14.56 216.647L14.6362 216.568C14.8004 216.386 14.9646 216.211 15.1288 216.035L15.1552 216.008C20.255 210.614 26.4917 206.423 33.4127 203.738C40.3337 201.054 47.7655 199.944 55.1689 200.489C62.5722 201.034 69.7615 203.22 76.2149 206.888C82.6684 210.557 88.2242 215.616 92.4793 221.699C98.3632 230.091 101.514 240.095 101.501 250.344Z" fill="#FFE600"/>
<path d="M26.9202 264.018H27.0316C26.9769 264.015 26.9221 264.015 26.8674 264.018H26.9202Z" fill="#FC565D"/>
<path d="M98.3651 330.062C98.195 331.821 91.6011 330.76 88.3203 334.287C87.0947 335.607 85.0951 339.055 84.8019 339.902C84.7032 340.197 84.5196 340.456 84.2742 340.647C84.0955 340.779 83.8884 340.867 83.6695 340.905C83.4506 340.942 83.226 340.928 83.0134 340.864C82.3215 340.644 82.0694 339.195 82.0518 339.078C81.7117 337.026 82.2599 335.305 82.1573 334.094C81.8641 330.575 76.1087 331.162 71.3091 325.486C70.3856 324.389 69.1014 322.589 67.3569 322.598C66.7177 322.598 65.9466 322.847 64.2754 322.853C63.5336 322.853 63.0264 322.774 62.7801 322.794C61.188 322.935 60.2058 323.738 56.9983 323.967C52.3277 324.307 50.938 322.853 49.1553 324.172C49.1553 324.172 47.0531 325.741 45.423 326.377C44.432 326.764 44.473 326.497 43.8632 326.823C42.7725 327.409 41.4062 330.537 41.4062 330.537C40.1367 333.425 39.2307 333.625 39.5298 334.349C40.0458 335.595 42.6054 334.762 44.6167 336.815C44.9392 337.146 45.7074 337.929 45.4758 338.656C45.3631 338.925 45.1766 339.156 44.9379 339.323C44.6992 339.49 44.4181 339.586 44.1271 339.6C43.959 339.603 43.7918 339.574 43.6345 339.515C43.2915 339.398 41.4678 338.779 41.072 339.195C40.7319 339.556 41.6584 340.427 41.89 342.42C42.0512 343.839 41.6848 344.256 41.4824 344.408C41.3431 344.507 41.1841 344.575 41.0163 344.608C40.9907 344.638 40.9581 344.662 40.9213 344.676C40.8845 344.691 40.8446 344.697 40.8052 344.693C40.4147 344.673 40.0407 344.53 39.7379 344.282C38.6414 343.35 36.29 339.591 34.0881 338.295C31.4669 336.759 28.9836 338.685 27.6759 336.964C27.0895 336.184 26.9048 334.882 27.4502 334.103C28.4529 332.675 30.8336 334.284 33.9004 333.076C35.0996 332.604 36.246 331.071 38.53 328.004C39.2014 327.104 40.0605 325.855 39.6558 325.26C39.6088 325.192 39.5491 325.134 39.4799 325.09C38.6238 324.451 38.3072 323.163 38.228 322.958C37.753 321.492 32.9505 319.754 31.552 319.188C30.6724 318.836 23.4011 315.625 20.1877 309.656C19.7685 308.879 18.7071 306.724 17.766 306.888C17.0652 307.003 17.0828 308.293 15.9716 308.782C15.5245 308.953 15.0397 309 14.5681 308.919C14.0965 308.837 13.6556 308.63 13.2918 308.319C12.0252 307.167 12.7992 305.112 12.0281 304.801C11.257 304.49 10.398 306.718 8.2987 307.305C5.95315 307.982 3.59 306.211 3.21471 305.918C0.702037 303.965 0.127376 300.64 -0.0690643 299.491C-0.482468 297.084 0.0276895 295.917 -1.03367 294.551C-1.81064 293.557 -2.49965 293.654 -3.82488 292.792C-4.0096 292.677 -8.1583 289.942 -8.11725 285.884C-8.09086 282.934 -5.87138 280.879 -5.4785 280.51C-3.39682 278.583 -2.00122 279.337 -1.06593 278.018C0.986436 275.112 -4.854 270.224 -3.16227 265.703C-2.13902 262.971 1.23565 261.654 3.39943 261.358C9.01996 260.584 14.834 265.618 17.2294 270.787C19.8212 276.393 17.4786 280.199 20.7331 282.882C23.665 285.309 28.4881 284.588 28.6669 283.89C28.7901 283.421 26.7934 283.034 26.0282 281.111C25.671 280.149 25.6482 279.096 25.9637 278.12C26.5149 276.32 28.016 275.311 28.6523 274.895C34.0294 271.409 47.7773 271.256 53.5738 265.29C60.0651 258.599 58.1095 242.972 62.6188 239.293C62.8827 239.078 64.0848 238.158 63.9236 237.208C63.7271 236.035 61.6308 236.091 60.1619 234.748C57.6785 232.485 57.6609 226.832 60.068 224.87C62.2025 223.146 65.2928 225.087 66.1724 223.747C67.4712 221.78 60.9124 217.341 62.0676 213.307C62.7801 210.841 66.3043 208.8 69.2128 209.613C71.6815 210.304 73.3175 212.89 73.47 214.996C73.5579 216.236 73.1357 217.444 73.4084 217.54C73.6811 217.637 74.0857 216.368 75.0767 215.558C76.5426 214.345 78.9703 214.438 80.2955 214.996C84.9485 216.945 86.9364 227.406 83.1073 231.939C81.8671 233.405 80.0346 234.226 80.2515 235.431C80.4451 236.534 82.0811 236.44 84.1041 237.703C88.2997 240.322 87.6488 244.711 91.6744 246.312C91.8151 246.367 91.9676 246.417 91.9676 246.417C92.6595 246.653 93.3694 246.833 94.0903 246.954C95.0051 247.115 99.0951 247.833 99.4001 249.37C99.5496 250.111 98.7521 250.882 97.1542 252.422C95.4947 254.02 95.0755 253.888 94.58 254.644C93.4981 256.283 94.448 258.456 95.5768 261.936C96.4036 264.487 96.8933 267.14 97.7025 269.697C99.7079 276.047 100.215 292.566 91.7536 302.901C88.6633 306.674 83.9986 312.368 80.2926 314.796C79.7062 315.189 78.3282 316.012 77.4457 317.66C77.2111 318.1 75.8918 320.226 76.2729 322.557C76.9502 326.793 82.8375 329.854 85.7724 328.52C88.3496 327.347 88.804 323.829 90.7802 324.017C91.8093 324.11 93.0026 325.23 92.941 325.908C92.932 326.2 92.8786 326.488 92.7827 326.764C92.7104 326.967 92.666 327.179 92.6507 327.394C92.6585 327.429 92.6692 327.464 92.683 327.497C92.8413 327.872 94.7588 327.585 95.9873 327.913C97.1132 328.247 98.4413 329.294 98.3651 330.062Z" fill="#FC565D"/>
<path d="M26.9202 264.018H27.0316C26.9769 264.015 26.9221 264.015 26.8674 264.018H26.9202Z" fill="#FC565D"/>
</g>
<path d="M249.993 200C277.606 200 299.991 177.615 299.991 150.001C299.991 122.388 277.606 100.003 249.993 100.003C222.38 100.003 199.995 122.388 199.995 150.001C199.995 177.615 222.38 200 249.993 200Z" fill="#FFE600"/>
<mask id="mask5_7_143806" style="mask-type:luminance" maskUnits="userSpaceOnUse" x="199" y="100" width="101" height="100">
<path d="M249.993 200C277.606 200 299.991 177.615 299.991 150.001C299.991 122.388 277.606 100.003 249.993 100.003C222.38 100.003 199.995 122.388 199.995 150.001C199.995 177.615 222.38 200 249.993 200Z" fill="white"/>
</mask>
<g mask="url(#mask5_7_143806)">
<path d="M299.994 150.001C299.996 152.985 299.732 155.963 299.205 158.9C299.185 158.997 299.17 159.096 299.15 159.193C298.436 163.043 297.266 166.795 295.666 170.37C295.393 170.985 295.106 171.594 294.807 172.196C294.416 172.978 294.003 173.76 293.567 174.542C293.233 175.128 292.885 175.715 292.523 176.301C290.479 179.599 288.06 182.649 285.314 185.39C284.579 186.125 283.819 186.836 283.036 187.524C280.007 190.197 276.666 192.491 273.085 194.359C272.051 194.904 270.992 195.41 269.909 195.877C263.535 198.636 256.656 200.041 249.711 200.001C242.765 199.962 235.903 198.48 229.56 195.649C229.437 195.596 229.317 195.54 229.193 195.482C224.812 193.473 220.744 190.842 217.117 187.668L217.064 187.621C216.891 187.472 216.721 187.328 216.554 187.167C212.23 183.278 208.616 178.667 205.873 173.539C205.049 171.999 204.307 170.416 203.65 168.798C203.195 167.684 202.782 166.551 202.413 165.4C202.369 165.265 202.325 165.13 202.284 164.992C202.205 164.746 202.129 164.497 202.055 164.248C201.909 163.757 201.769 163.257 201.636 162.747C199.737 155.51 199.483 147.94 200.892 140.593C202.302 133.245 205.339 126.306 209.781 120.286C210.197 119.719 210.627 119.163 211.071 118.618C211.708 117.826 212.369 117.056 213.053 116.308L213.129 116.226L213.622 115.692L213.648 115.666C218.747 110.271 224.984 106.079 231.904 103.394C238.825 100.709 246.256 99.5978 253.66 100.142C261.063 100.686 268.253 102.871 274.706 106.539C281.16 110.207 286.717 115.265 290.972 121.348C296.859 129.742 300.01 139.749 299.994 150.001Z" fill="#FDB157"/>
<path d="M279.031 185.616C278.916 186.788 274.483 186.085 272.287 188.457C271.46 189.336 270.126 191.661 269.918 192.23C269.852 192.429 269.729 192.603 269.563 192.731C269.396 192.849 269.199 192.914 268.995 192.919C268.9 192.918 268.807 192.904 268.716 192.878C268.253 192.729 268.083 191.755 268.068 191.676C267.842 190.301 268.209 189.14 268.141 188.325C267.945 185.956 264.075 186.354 260.856 182.537C260.234 181.798 259.372 180.59 258.199 180.596C257.771 180.596 257.249 180.763 256.126 180.769C255.628 180.769 255.288 180.713 255.124 180.728C254.051 180.822 253.391 181.364 251.236 181.52C248.096 181.748 247.161 180.772 245.958 181.658C245.177 182.24 244.336 182.738 243.449 183.141C242.786 183.399 242.812 183.223 242.402 183.434C241.669 183.824 240.748 185.932 240.748 185.932C239.898 187.873 239.282 188.005 239.491 188.495C239.837 189.33 241.558 188.77 242.909 190.151C243.126 190.374 243.642 190.899 243.496 191.389C243.42 191.569 243.295 191.725 243.134 191.838C242.974 191.95 242.785 192.015 242.59 192.025C242.476 192.027 242.364 192.007 242.258 191.966C242.027 191.887 240.792 191.474 240.534 191.752C240.276 192.031 240.93 192.582 241.086 193.925C241.194 194.878 240.945 195.156 240.81 195.259C240.718 195.327 240.612 195.373 240.499 195.394C240.481 195.414 240.459 195.43 240.434 195.44C240.409 195.45 240.382 195.454 240.355 195.452C240.092 195.439 239.84 195.342 239.637 195.174C238.901 194.549 237.321 192.016 235.826 191.151C234.066 190.119 232.392 191.412 231.513 190.257C231.114 189.732 230.997 188.855 231.363 188.334C232.038 187.372 233.635 188.454 235.691 187.645C236.497 187.325 237.265 186.293 238.804 184.232C239.256 183.628 239.831 182.786 239.561 182.388C239.529 182.342 239.488 182.303 239.441 182.273C238.854 181.842 238.643 180.98 238.599 180.84C238.28 179.851 235.057 178.687 234.11 178.306C233.524 178.069 228.631 175.911 226.487 171.897C226.194 171.375 225.491 169.933 224.86 170.035C224.388 170.115 224.4 170.979 223.652 171.311C223.352 171.426 223.026 171.457 222.709 171.403C222.393 171.348 222.096 171.209 221.852 171C220.999 170.226 221.521 168.842 221.002 168.634C220.483 168.426 219.908 169.906 218.498 170.317C216.923 170.771 215.331 169.581 215.079 169.384C213.39 168.071 213.003 165.831 212.871 165.063C212.593 163.444 212.936 162.662 212.223 161.741C211.702 161.072 211.244 161.137 210.347 160.568C210.221 160.492 207.433 158.654 207.459 155.924C207.477 153.942 208.969 152.558 209.236 152.312C210.634 151.016 211.581 151.529 212.203 150.638C213.584 148.685 209.658 145.395 210.793 142.367C211.482 140.531 213.757 139.646 215.191 139.435C218.97 138.913 222.878 142.296 224.488 145.774C226.229 149.541 224.655 152.098 226.833 153.904C228.812 155.534 232.046 155.05 232.169 154.581C232.252 154.264 230.909 153.995 230.387 152.713C230.148 152.066 230.133 151.356 230.346 150.699C230.715 149.491 231.73 148.814 232.152 148.538C235.767 146.193 245.008 146.093 248.899 142.088C253.262 137.591 251.948 127.085 254.977 124.611C255.156 124.467 255.962 123.849 255.857 123.209C255.725 122.412 254.314 122.459 253.326 121.556C251.658 120.034 251.643 116.228 253.265 114.915C254.699 113.742 256.783 115.062 257.37 114.161C258.249 112.836 253.834 109.854 254.619 107.142C255.097 105.483 257.466 104.114 259.422 104.659C261.081 105.122 262.187 106.861 262.286 108.277C262.345 109.11 262.058 109.922 262.242 109.986C262.427 110.051 262.7 109.201 263.365 108.655C264.356 107.84 265.981 107.902 266.884 108.277C270.012 109.588 271.349 116.621 268.775 119.668C267.942 120.659 266.722 121.204 266.854 122.013C266.986 122.755 268.086 122.69 269.443 123.541C272.264 125.3 271.827 128.252 274.533 129.325C274.627 129.364 274.738 129.399 274.738 129.399C275.204 129.557 275.681 129.678 276.166 129.759C276.782 129.865 279.529 130.346 279.737 131.381C279.837 131.882 279.3 132.398 278.224 133.433C277.148 134.468 276.829 134.424 276.495 134.928C275.767 136.031 276.407 137.494 277.166 139.831C277.723 141.546 278.046 143.328 278.594 145.046C279.943 149.318 280.283 160.419 274.595 167.37C272.516 169.906 269.382 173.735 266.89 175.366C266.093 175.828 265.433 176.493 264.975 177.292C264.817 177.585 263.931 179.016 264.183 180.584C264.638 183.431 268.596 185.49 270.566 184.592C272.299 183.804 272.619 181.444 273.935 181.567C274.627 181.628 275.43 182.382 275.401 182.836C275.397 183.036 275.361 183.234 275.295 183.423C275.246 183.559 275.216 183.703 275.207 183.848C275.214 183.872 275.222 183.895 275.231 183.918C275.334 184.17 276.624 183.974 277.45 184.211C278.186 184.399 279.081 185.094 279.031 185.616Z" fill="white"/>
</g>
<path d="M49.9991 199.997C77.6124 199.997 99.9975 177.612 99.9975 149.999C99.9975 122.385 77.6124 100 49.9991 100C22.3857 100 0.000610352 122.385 0.000610352 149.999C0.000610352 177.612 22.3857 199.997 49.9991 199.997Z" fill="#FFE600"/>
<mask id="mask6_7_143806" style="mask-type:luminance" maskUnits="userSpaceOnUse" x="0" y="100" width="100" height="100">
<path d="M49.9991 199.997C77.6124 199.997 99.9975 177.612 99.9975 149.999C99.9975 122.385 77.6124 100 49.9991 100C22.3857 100 0.000610352 122.385 0.000610352 149.999C0.000610352 177.612 22.3857 199.997 49.9991 199.997Z" fill="white"/>
</mask>
<g mask="url(#mask6_7_143806)">
<path d="M99.9936 150C99.9953 152.984 99.7314 155.962 99.2049 158.899C99.1844 158.995 99.1697 159.095 99.1492 159.192C98.4353 163.042 97.2661 166.794 95.6661 170.368C95.3924 170.984 95.1061 171.593 94.807 172.195C94.4161 172.977 94.0027 173.759 93.5668 174.541C93.2325 175.127 92.8846 175.713 92.523 176.3C90.4786 179.597 88.0593 182.647 85.3134 185.389C84.5784 186.124 83.8191 186.835 83.0353 187.523C80.0068 190.195 76.6654 192.49 73.0842 194.357C72.0502 194.903 70.9918 195.409 69.9089 195.876C63.5344 198.635 56.6561 200.04 49.7102 200C42.7643 199.961 35.9024 198.479 29.5595 195.648C29.4364 195.595 29.3162 195.539 29.193 195.48C24.8115 193.472 20.7438 190.84 17.1163 187.667L17.0636 187.62C16.8906 187.47 16.7205 187.327 16.5534 187.165C12.2297 183.277 8.61543 178.665 5.87234 173.538C5.0485 171.998 4.30666 170.415 3.64993 168.797C3.1945 167.683 2.78207 166.55 2.41265 165.399C2.36867 165.264 2.32469 165.129 2.28364 164.991C2.20448 164.745 2.12825 164.496 2.05495 164.246C1.90836 163.756 1.7686 163.256 1.63568 162.745C-0.263307 155.509 -0.517409 147.939 0.892035 140.591C2.30148 133.244 5.33868 126.305 9.78062 120.285C10.197 119.718 10.627 119.162 11.0707 118.617C11.7079 117.825 12.3686 117.055 13.0527 116.306L13.1289 116.224L13.6215 115.691L13.6479 115.664C18.747 110.27 24.9832 106.078 31.9039 103.392C38.8245 100.707 46.2561 99.5966 53.6595 100.141C61.0628 100.685 68.2522 102.87 74.706 106.538C81.1598 110.206 86.7162 115.264 90.972 121.346C96.8584 129.741 100.009 139.748 99.9936 150Z" fill="white"/>
<path d="M108.203 377.741C107.825 381.646 93.2003 379.289 85.9202 387.123C83.1965 390.055 78.7927 397.698 78.1066 399.578C77.8895 400.232 77.481 400.806 76.9339 401.225C76.3819 401.614 75.7265 401.83 75.0515 401.844C74.7411 401.842 74.4324 401.797 74.1338 401.712C72.6063 401.22 72.0434 398.009 72.0023 397.751C71.2517 393.212 72.4626 389.38 72.2398 386.686C71.5889 378.872 58.8262 380.189 48.1979 367.596C46.1455 365.163 43.3015 361.175 39.4343 361.193C38.0152 361.193 36.3 361.744 32.594 361.759C30.9522 361.759 29.8234 361.58 29.2839 361.63C25.7656 361.938 23.5725 363.726 16.4596 364.242C6.10393 364.996 3.01953 361.77 -0.938595 364.694C-0.938595 364.694 -5.60039 368.174 -9.21548 369.587C-11.4086 370.446 -11.3206 369.857 -12.6722 370.575C-15.094 371.865 -18.1257 378.811 -18.1257 378.811C-20.9374 385.217 -22.9458 385.66 -22.2802 387.269C-21.1397 390.031 -15.4605 388.181 -10.9981 392.737C-10.2856 393.468 -8.58218 395.206 -9.09527 396.822C-9.44417 397.921 -10.8075 398.874 -12.0888 398.915C-12.4602 398.921 -12.8293 398.856 -13.1765 398.725C-13.9418 398.464 -17.9849 397.094 -18.8645 398.018C-19.6151 398.812 -17.5569 400.75 -17.0496 405.181C-16.6919 408.327 -17.507 409.25 -17.9527 409.579C-18.2607 409.799 -18.6127 409.952 -18.9847 410.024C-19.043 410.09 -19.1163 410.142 -19.1984 410.174C-19.2805 410.206 -19.3691 410.218 -19.4568 410.209C-20.3231 410.166 -21.1531 409.848 -21.8258 409.3C-24.2505 407.248 -29.4664 398.883 -34.351 396.021C-40.1621 392.62 -45.6713 396.901 -48.5768 393.089C-49.8962 391.354 -50.2832 388.466 -49.0723 386.739C-46.8499 383.575 -41.5724 387.14 -34.7967 384.466C-32.1345 383.417 -29.5984 380.016 -24.5349 373.214C-23.0132 371.205 -21.1162 368.426 -21.9958 367.101C-22.1023 366.951 -22.2367 366.824 -22.3916 366.725C-24.2886 365.306 -25.0304 362.454 -25.1682 361.999C-26.2178 358.733 -36.852 354.892 -39.9716 353.64C-41.9184 352.857 -58.0499 345.724 -65.1863 332.498C-66.1157 330.771 -68.4671 326.01 -70.5547 326.341C-72.1086 326.599 -72.0705 329.455 -74.5333 330.539C-76.3775 331.354 -78.9576 330.891 -80.4734 329.516C-83.2881 326.962 -81.57 322.403 -83.2764 321.714C-85.0356 321.002 -86.8856 325.913 -91.5415 327.261C-96.7369 328.766 -101.985 324.834 -102.818 324.186C-108.388 319.855 -109.664 312.458 -110.104 309.928C-111.021 304.592 -109.887 302.012 -112.244 298.974C-113.962 296.772 -115.469 296.983 -118.433 295.084C-118.841 294.831 -128.041 288.768 -127.953 279.764C-127.895 273.223 -122.969 268.664 -122.089 267.849C-117.472 263.577 -114.376 265.266 -112.3 262.322C-107.749 255.872 -120.7 245.024 -116.95 235.037C-114.678 228.98 -107.175 226.06 -102.399 225.403C-89.9319 223.685 -77.0313 234.844 -71.7275 246.311C-65.975 258.745 -71.1704 267.183 -63.9578 273.135C-57.4313 278.518 -46.7561 276.917 -46.3661 275.372C-46.0993 274.331 -50.5236 273.469 -52.23 269.215C-53.4409 266.216 -52.5965 263.316 -52.3708 262.577C-51.1511 258.59 -47.8028 256.353 -46.4072 255.447C-34.483 247.718 -3.99368 247.378 8.83944 234.146C23.2206 219.331 18.8843 184.664 28.8851 176.504C29.4715 176.026 32.1337 173.989 31.7819 171.881C31.3421 169.242 26.695 169.406 23.4347 166.424C17.9314 161.402 17.8874 148.85 23.2294 144.52C27.9616 140.694 34.8135 144.998 36.7662 142.031C39.6454 137.662 25.1029 127.817 27.6772 118.868C29.2575 113.397 37.077 108.876 43.5273 110.679C49.0012 112.207 52.6427 117.945 52.9711 122.612C53.1646 125.365 52.2234 128.042 52.8303 128.256C53.4372 128.47 54.3344 125.662 56.5304 123.858C59.8054 121.173 65.165 121.378 68.1087 122.612C78.4233 126.934 82.8358 150.14 74.342 160.194C71.5918 163.46 67.5282 165.263 68.0061 167.937C68.44 170.382 72.0668 170.171 76.5498 172.974C85.8557 178.782 84.4162 188.513 93.3439 192.064C93.6518 192.187 94.0183 192.304 94.0183 192.304C95.548 192.824 97.1166 193.221 98.7094 193.492C100.738 193.847 109.807 195.427 110.49 198.846C110.818 200.493 109.047 202.203 105.506 205.615C101.829 209.16 100.902 208.879 99.8001 210.544C97.3988 214.183 99.5069 219.006 102.011 226.72C103.846 232.378 104.943 238.26 106.722 243.93C111.173 258.003 112.293 294.653 93.5286 317.569C86.6767 325.936 76.3357 338.57 68.1146 343.956C66.7835 344.836 63.7606 346.656 61.7991 350.309C61.2773 351.283 58.357 355.997 59.1809 361.158C60.6791 370.54 73.741 377.339 80.244 374.381C85.9613 371.78 86.9699 363.999 91.3502 364.397C93.6371 364.606 96.2817 367.089 96.1469 368.587C96.0149 370.033 95.798 370.487 95.798 370.487C95.6045 371.287 95.4608 371.589 95.5048 371.883C95.5222 371.963 95.5457 372.041 95.5751 372.117C95.9211 372.947 100.178 372.305 102.905 373.035C105.424 373.712 108.37 376.002 108.203 377.741Z" fill="#FFE600"/>
</g>
<path d="M249.996 300.002C277.609 300.002 299.994 277.617 299.994 250.003C299.994 222.39 277.609 200.005 249.996 200.005C222.382 200.005 199.997 222.39 199.997 250.003C199.997 277.617 222.382 300.002 249.996 300.002Z" fill="#FFE600"/>
<mask id="mask7_7_143806" style="mask-type:luminance" maskUnits="userSpaceOnUse" x="199" y="200" width="101" height="101">
<path d="M249.996 300.002C277.609 300.002 299.994 277.617 299.994 250.003C299.994 222.39 277.609 200.005 249.996 200.005C222.382 200.005 199.997 222.39 199.997 250.003C199.997 277.617 222.382 300.002 249.996 300.002Z" fill="white"/>
</mask>
<g mask="url(#mask7_7_143806)">
<path d="M299.997 249.997C299.998 252.98 299.735 255.958 299.208 258.895C299.188 258.992 299.173 259.091 299.152 259.188C298.438 263.039 297.269 266.79 295.669 270.365C295.396 270.98 295.109 271.589 294.81 272.191C294.419 272.973 294.006 273.755 293.57 274.537C293.236 275.123 292.888 275.71 292.526 276.296C290.482 279.594 288.062 282.644 285.317 285.385C284.582 286.12 283.822 286.831 283.038 287.519C280.01 290.192 276.669 292.486 273.087 294.354C272.053 294.899 270.995 295.405 269.912 295.873C263.538 298.632 256.659 300.036 249.713 299.997C242.767 299.957 235.906 298.475 229.563 295.644C229.44 295.591 229.319 295.535 229.196 295.477C224.815 293.469 220.747 290.837 217.12 287.663L217.067 287.616C216.894 287.467 216.724 287.323 216.557 287.162C212.233 283.273 208.619 278.662 205.876 273.534C205.052 271.994 204.31 270.412 203.653 268.793C203.198 267.679 202.785 266.546 202.416 265.395C202.372 265.26 202.328 265.125 202.287 264.988C202.208 264.741 202.131 264.492 202.058 264.243C201.912 263.752 201.772 263.252 201.639 262.742C199.74 255.505 199.486 247.935 200.895 240.588C202.305 233.24 205.342 226.302 209.784 220.281C210.2 219.715 210.63 219.158 211.074 218.613C211.711 217.821 212.372 217.051 213.056 216.303L213.132 216.221L213.625 215.687L213.651 215.661C218.75 210.266 224.986 206.074 231.907 203.389C238.828 200.704 246.259 199.593 253.663 200.137C261.066 200.681 268.255 202.866 274.709 206.534C281.163 210.202 286.719 215.261 290.975 221.343C296.862 229.737 300.012 239.744 299.997 249.997Z" fill="#FC565D"/>
<path d="M258.568 283.521H258.683C258.626 283.518 258.569 283.518 258.513 283.521H258.568Z" fill="white"/>
<path d="M322.552 280.04C322.382 281.823 315.709 280.747 312.39 284.315C311.147 285.649 309.139 289.138 308.825 289.997C308.727 290.295 308.542 290.556 308.294 290.747C308.113 290.882 307.903 290.972 307.682 291.01C307.46 291.049 307.232 291.035 307.016 290.97C306.318 290.745 306.063 289.281 306.043 289.161C305.7 287.091 306.254 285.35 306.151 284.115C305.858 280.55 300.032 281.151 295.186 275.405C294.25 274.293 292.951 272.473 291.186 272.473C290.541 272.473 289.759 272.725 288.067 272.734C287.316 272.734 286.803 272.652 286.557 272.672C284.944 272.813 283.95 273.628 280.693 273.865C275.967 274.208 274.562 272.737 272.756 274.071C272.756 274.071 270.628 275.66 268.98 276.305C267.977 276.695 268.018 276.428 267.402 276.753C266.297 277.34 264.913 280.512 264.913 280.512C263.632 283.444 262.714 283.638 263.016 284.37C263.538 285.631 266.13 284.79 268.165 286.869C268.49 287.2 269.267 287.991 269.044 288.73C268.93 289.002 268.742 289.236 268.501 289.405C268.259 289.574 267.975 289.671 267.681 289.686C267.511 289.689 267.341 289.659 267.183 289.598C266.834 289.478 264.989 288.853 264.588 289.276C264.245 289.639 265.174 290.522 265.418 292.545C265.579 293.978 265.206 294.401 265.004 294.556C264.863 294.656 264.702 294.725 264.532 294.758C264.506 294.789 264.473 294.813 264.436 294.827C264.398 294.842 264.358 294.848 264.318 294.843C263.923 294.825 263.544 294.679 263.239 294.427C262.131 293.486 259.75 289.674 257.522 288.37C254.883 286.816 252.356 288.765 251.033 287.024C250.429 286.232 250.254 284.916 250.805 284.127C251.819 282.682 254.226 284.312 257.32 283.089C258.533 282.611 259.691 281.06 262.011 277.955C262.691 277.047 263.559 275.78 263.151 275.179C263.102 275.111 263.04 275.053 262.969 275.009C262.104 274.361 261.77 273.059 261.703 272.851C261.225 271.362 256.372 269.608 254.959 269.039C254.08 268.682 246.712 265.433 243.46 259.393C243.038 258.608 241.962 256.435 241.012 256.59C240.303 256.708 240.32 258.012 239.197 258.508C238.745 258.681 238.254 258.728 237.777 258.646C237.299 258.563 236.853 258.354 236.485 258.039C235.201 256.866 235.987 254.796 235.207 254.482C234.427 254.169 233.559 256.397 231.436 257.013C229.064 257.699 226.672 255.904 226.291 255.608C223.749 253.632 223.168 250.263 222.966 249.102C222.55 246.669 223.066 245.49 221.99 244.118C221.207 243.112 220.524 243.209 219.166 242.341C218.981 242.227 214.768 239.459 214.824 235.351C214.85 232.37 217.096 230.288 217.495 229.916C219.603 227.966 221.013 228.743 221.96 227.394C224.039 224.462 218.128 219.507 219.84 214.945C220.878 212.18 224.3 210.84 226.478 210.547C232.166 209.764 238.054 214.854 240.473 220.088C243.111 225.758 240.728 229.608 244.02 232.326C246.996 234.783 251.866 234.05 252.048 233.346C252.171 232.871 250.154 232.466 249.368 230.534C249.008 229.56 248.985 228.494 249.304 227.506C249.861 225.685 251.388 224.665 252.024 224.251C257.466 220.733 271.375 220.572 277.239 214.535C283.807 207.762 281.828 191.959 286.39 188.226C286.659 188.009 287.873 187.08 287.712 186.118C287.513 184.919 285.393 184.987 283.901 183.629C281.391 181.336 281.37 175.61 283.807 173.634C285.968 171.875 289.084 173.851 289.984 172.497C291.298 170.506 284.663 166.014 285.841 161.942C286.563 159.447 290.131 157.382 293.075 158.206C295.57 158.904 297.232 161.522 297.382 163.651C297.47 164.906 297.041 166.128 297.317 166.225C297.593 166.322 298.003 165.052 299.006 164.22C300.501 162.994 302.946 163.088 304.283 163.651C308.989 165.624 311.003 176.211 307.127 180.797C305.873 182.289 304.017 183.11 304.236 184.315C304.433 185.432 306.089 185.336 308.136 186.614C312.378 189.253 311.722 193.706 315.797 195.325C315.938 195.38 316.105 195.433 316.105 195.433C316.804 195.673 317.522 195.854 318.251 195.976C319.178 196.137 323.315 196.855 323.625 198.418C323.775 199.171 322.969 199.951 321.35 201.508C319.673 203.124 319.251 202.998 318.747 203.757C317.63 205.413 318.594 207.621 319.735 211.14C320.573 213.72 321.069 216.417 321.887 218.991C323.916 225.418 324.429 242.127 315.865 252.588C312.739 256.4 308.022 262.173 304.272 264.627C303.072 265.322 302.077 266.322 301.39 267.527C301.149 267.969 299.818 270.121 300.193 272.479C300.879 276.768 306.837 279.864 309.804 278.512C312.414 277.34 312.874 273.777 314.871 273.959C315.914 274.053 317.122 275.188 317.061 275.871C317.051 276.166 316.997 276.457 316.9 276.736C316.824 276.941 316.78 277.156 316.768 277.375C316.776 277.411 316.786 277.446 316.8 277.48C316.958 277.859 318.899 277.565 320.142 277.9C321.283 278.199 322.629 279.243 322.552 280.04Z" fill="white"/>
<path d="M258.568 283.521H258.683C258.626 283.518 258.569 283.518 258.513 283.521H258.568Z" fill="white"/>
</g>
<path d="M149.996 200.002C177.609 200.002 199.994 177.617 199.994 150.004C199.994 122.39 177.609 100.005 149.996 100.005C122.383 100.005 99.9976 122.39 99.9976 150.004C99.9976 177.617 122.383 200.002 149.996 200.002Z" fill="#FFE600"/>
<mask id="mask8_7_143806" style="mask-type:luminance" maskUnits="userSpaceOnUse" x="99" y="100" width="101" height="100">
<path d="M149.996 200C177.609 200 199.994 177.615 199.994 150.001C199.994 122.388 177.609 100.003 149.996 100.003C122.383 100.003 99.9976 122.388 99.9976 150.001C99.9976 177.615 122.383 200 149.996 200Z" fill="white"/>
</mask>
<g mask="url(#mask8_7_143806)">
<path d="M199.997 150.001C199.999 152.985 199.735 155.963 199.209 158.9C199.188 158.997 199.174 159.096 199.153 159.193C198.439 163.043 197.27 166.795 195.67 170.37C195.396 170.985 195.11 171.594 194.811 172.196C194.42 172.978 194.006 173.76 193.571 174.542C193.236 175.128 192.888 175.715 192.527 176.301C190.482 179.599 188.063 182.649 185.317 185.39C184.582 186.125 183.823 186.836 183.039 187.524C180.011 190.197 176.669 192.491 173.088 194.359C172.054 194.904 170.996 195.41 169.913 195.877C163.538 198.636 156.66 200.041 149.714 200.001C142.768 199.962 135.906 198.48 129.563 195.649C129.44 195.596 129.32 195.54 129.197 195.482C124.815 193.473 120.748 190.842 117.12 187.668L117.067 187.621C116.894 187.472 116.724 187.328 116.557 187.167C112.233 183.278 108.619 178.667 105.876 173.539C105.052 171.999 104.31 170.416 103.654 168.798C103.198 167.684 102.786 166.551 102.416 165.4C102.372 165.265 102.328 165.13 102.287 164.992C102.208 164.746 102.132 164.497 102.059 164.248C101.912 163.757 101.772 163.257 101.639 162.747C99.7405 155.51 99.4864 147.94 100.896 140.593C102.305 133.245 105.342 126.306 109.784 120.286C110.201 119.719 110.631 119.163 111.074 118.618C111.712 117.826 112.372 117.056 113.056 116.308L113.133 116.226L113.625 115.692L113.652 115.666C118.751 110.271 124.987 106.079 131.908 103.394C138.828 100.709 146.26 99.5978 153.663 100.142C161.067 100.686 168.256 102.871 174.71 106.539C181.164 110.207 186.72 115.265 190.976 121.348C196.862 129.742 200.013 139.749 199.997 150.001Z" fill="#FC565D"/>
<path d="M166.823 294.639C166.509 297.888 154.341 295.927 148.29 302.433C146.023 304.869 142.358 311.228 141.787 312.797C141.607 313.341 141.269 313.818 140.816 314.169C140.357 314.492 139.812 314.671 139.251 314.682C138.992 314.681 138.736 314.643 138.488 314.571C137.213 314.163 136.747 311.492 136.711 311.275C136.087 307.499 137.096 304.312 136.911 302.072C136.368 295.563 125.749 296.665 116.912 286.181C115.206 284.155 112.84 280.839 109.62 280.853C108.448 280.853 107.014 281.311 103.932 281.323C102.563 281.323 101.625 281.176 101.176 281.214C98.2385 281.49 96.4236 282.956 90.504 283.395C81.887 284.023 79.3216 281.343 76.029 283.774C76.029 283.774 72.15 286.668 69.1419 287.843C67.3182 288.556 67.3827 288.066 66.2656 288.664C64.2514 289.737 61.7299 295.519 61.7299 295.519C59.3844 300.846 57.7161 301.216 58.2702 302.556C59.2202 304.854 63.9465 303.315 67.6524 307.106C68.2388 307.713 69.6637 309.158 69.2357 310.501C68.9425 311.419 67.8108 312.213 66.7465 312.246C66.4371 312.251 66.1296 312.198 65.8405 312.087C65.2043 311.87 61.8413 310.73 61.1083 311.501C60.4838 312.164 62.1961 313.773 62.6183 317.462C62.9115 320.08 62.2371 320.848 61.8677 321.129C61.6105 321.312 61.3178 321.438 61.0087 321.499C60.9602 321.554 60.8993 321.597 60.831 321.624C60.7626 321.651 60.6889 321.661 60.6158 321.654C59.8948 321.618 59.2043 321.352 58.6455 320.895C56.6254 319.18 52.2861 312.228 48.2224 309.847C43.3877 307.018 38.8021 310.572 36.3862 307.396C35.2896 305.954 34.9642 303.55 35.9728 302.119C37.8228 299.48 42.2149 302.453 47.853 300.228C50.0666 299.348 52.1747 296.525 56.3996 290.866C57.6369 289.204 59.2202 286.899 58.4754 285.8C58.3868 285.675 58.2754 285.569 58.1471 285.486C56.5697 284.313 55.9598 281.935 55.8367 281.554C54.9571 278.836 46.1144 275.643 43.5225 274.6C41.9041 273.949 28.4787 268.02 22.5503 257.008C21.7763 255.571 19.8178 251.61 18.082 251.898C16.7891 252.112 16.8213 254.49 14.7719 255.393C13.2385 256.07 11.0894 255.686 9.82863 254.539C7.48307 252.414 8.91679 248.62 7.48307 248.048C6.0171 247.462 4.47783 251.54 0.604734 252.663C-3.71695 253.915 -8.08262 250.646 -8.77749 250.103C-13.4129 246.503 -14.4743 240.355 -14.8378 238.241C-15.6031 233.802 -14.659 231.65 -16.6204 229.128C-18.0512 227.296 -19.3061 227.469 -21.7689 225.903C-22.109 225.692 -29.7643 220.646 -29.6852 213.155C-29.6353 207.713 -25.5423 203.919 -24.8094 203.242C-20.9685 199.686 -18.3943 201.09 -16.6674 198.642C-12.8793 193.279 -23.6542 184.258 -20.5346 175.94C-18.6435 170.9 -12.4014 168.469 -8.42859 167.924C1.94756 166.496 12.6814 175.779 17.0793 185.322C21.8643 195.666 17.5396 202.688 23.5443 207.64C28.9742 212.12 37.8551 210.786 38.204 209.499C38.4268 208.634 34.7443 207.919 33.3135 204.371C32.3049 201.879 33.0203 199.466 33.1962 198.85C34.2136 195.531 37.0077 193.669 38.16 192.919C48.1022 186.466 73.4606 186.184 84.1388 175.175C96.1157 162.825 92.5065 133.99 100.827 127.2C101.317 126.801 103.531 125.106 103.237 123.353C102.871 121.166 99.0037 121.3 96.2917 118.814C91.712 114.633 91.6768 104.19 96.1216 100.589C100.059 97.4022 105.759 100.985 107.386 98.5164C109.782 94.8808 97.6785 86.6889 99.8305 79.2448C101.144 74.6944 107.65 70.9327 113.018 72.4427C117.572 73.7151 120.603 78.4883 120.876 82.3731C121.037 84.663 120.254 86.8913 120.759 87.0642C121.263 87.2372 122.011 84.9034 123.837 83.4052C126.561 81.171 131.023 81.3528 133.469 82.3673C142.053 85.9589 145.736 105.28 138.655 113.631C136.368 116.348 132.988 117.85 133.378 120.081C133.738 122.116 136.758 121.94 140.491 124.271C148.231 129.102 147.032 137.203 154.461 140.156C154.719 140.258 155.021 140.352 155.021 140.352C156.3 140.788 157.612 141.12 158.944 141.343C160.633 141.636 168.177 142.953 168.746 145.797C169.019 147.169 167.547 148.591 164.597 151.429C161.536 154.379 160.765 154.144 159.85 155.534C157.851 158.562 159.607 162.57 161.689 168.991C163.216 173.7 164.119 178.593 165.609 183.314C169.312 195.042 170.244 225.504 154.631 244.591C148.929 251.555 140.327 262.066 133.486 266.543C132.378 267.27 129.862 268.792 128.229 271.82C127.795 272.629 125.365 276.549 126.051 280.853C127.3 288.673 138.166 294.32 143.578 291.857C148.334 289.693 149.175 283.22 152.82 283.551C154.722 283.724 156.924 285.791 156.81 287.037C156.696 288.283 156.517 288.617 156.517 288.617C156.355 289.283 156.224 289.535 156.27 289.79C156.286 289.856 156.307 289.921 156.332 289.984C156.625 290.675 160.161 290.142 162.428 290.749C164.5 291.288 166.963 293.194 166.823 294.639Z" fill="#FFE600"/>
</g>
<rect width="300" height="300" fill="white" fill-opacity="0.05"/>
</g>
<defs>
<clipPath id="clip0_7_143806">
<rect width="300" height="300" fill="white"/>
</clipPath>
</defs>
</svg>
