<svg width="300" height="300" viewBox="0 0 300 300" fill="none" xmlns="http://www.w3.org/2000/svg">
<g clip-path="url(#clip0_1_16)">
<rect width="300" height="300" fill="white"/>
<path d="M246.523 261.706C246.173 265.334 232.595 263.141 225.855 270.402C223.329 273.118 219.241 280.218 218.604 281.963C218.401 282.57 218.023 283.103 217.519 283.496C217.013 283.851 216.415 284.051 215.797 284.07C215.507 284.07 215.219 284.029 214.941 283.949C213.523 283.496 213.001 280.505 212.961 280.27C212.266 276.062 213.391 272.503 213.185 270.001C212.61 262.751 200.732 263.973 190.875 252.28C188.969 250.024 186.328 246.322 182.734 246.339C181.419 246.339 179.829 246.85 176.39 246.861C174.863 246.861 173.818 246.701 173.313 246.741C170.035 247.028 168.008 248.687 161.406 249.169C151.795 249.869 148.931 246.873 145.256 249.588C145.256 249.588 140.928 252.82 137.569 254.129C135.537 254.927 135.617 254.381 134.366 255.047C132.115 256.241 129.302 262.693 129.302 262.693C126.69 268.64 124.824 269.048 125.444 270.546C126.5 273.106 131.759 271.39 135.916 275.62C136.582 276.298 138.16 277.916 137.684 279.409C137.451 279.962 137.067 280.438 136.575 280.782C136.083 281.127 135.505 281.325 134.905 281.355C134.56 281.36 134.217 281.299 133.895 281.177C133.183 280.936 129.434 279.661 128.613 280.523C127.918 281.257 129.83 283.054 130.301 287.17C130.634 290.092 129.876 290.947 129.463 291.263C129.175 291.465 128.849 291.606 128.504 291.676C128.449 291.736 128.382 291.783 128.306 291.813C128.23 291.843 128.149 291.855 128.068 291.848C127.262 291.811 126.49 291.513 125.869 290.999C123.613 289.087 118.773 281.332 114.237 278.674C108.841 275.517 103.726 279.484 101.033 275.942C99.8044 274.329 99.4427 271.648 100.568 270.046C102.635 267.107 107.532 270.42 113.824 267.934C116.298 266.958 118.647 263.807 123.36 257.492C124.744 255.638 126.506 253.067 125.656 251.838C125.555 251.703 125.431 251.586 125.289 251.494C123.526 250.179 122.849 247.527 122.711 247.108C121.735 244.072 111.861 240.513 108.967 239.347C107.159 238.618 92.1803 232.006 85.5666 219.721C84.7054 218.12 82.5181 213.7 80.5833 214.021C79.1423 214.257 79.1768 216.891 76.8918 217.919C75.9716 218.272 74.9732 218.369 74.0021 218.201C73.031 218.034 72.1232 217.607 71.3747 216.966C68.7625 214.595 70.3585 210.365 68.774 209.727C67.1895 209.09 65.4212 213.619 61.0982 214.894C56.2757 216.289 51.4016 212.638 50.6323 212.024C45.4653 208.005 44.2769 201.151 43.8693 198.792C43.0139 193.838 44.0702 191.439 41.8829 188.626C40.2869 186.577 38.8861 186.772 36.1418 185.015C35.7629 184.774 27.2202 179.149 27.3006 170.791C27.358 164.724 31.9279 160.487 32.7431 159.729C37.0259 155.769 39.9022 157.33 41.8255 154.603C46.0566 148.622 34.0291 138.531 37.5139 129.271C39.6209 123.652 46.5848 120.942 51.0226 120.328C62.5966 118.738 74.561 129.094 79.4925 139.742C84.8317 151.28 80.0092 159.115 86.709 164.637C92.7659 169.637 102.675 168.15 103.048 166.715C103.295 165.745 99.1901 164.947 97.5941 160.975C96.8604 158.995 96.8139 156.826 97.462 154.816C98.6103 151.113 101.705 149.035 102.996 148.197C114.065 141.022 142.374 140.706 154.287 128.428C167.646 114.651 163.622 82.4766 172.905 74.9051C173.479 74.4631 175.925 72.5688 175.598 70.6171C175.19 68.1717 170.873 68.321 167.847 65.5484C162.738 60.8873 162.68 49.2345 167.658 45.2163C172.05 41.6631 178.411 45.6583 180.225 42.9202C182.895 38.8675 169.392 29.7175 171.797 21.4228C173.261 16.3484 180.518 12.1522 186.506 13.8226C191.592 15.2405 194.974 20.5675 195.278 24.9014C195.456 27.4558 194.583 29.9414 195.146 30.1423C195.709 30.3432 196.541 27.7314 198.591 26.0609C201.634 23.5639 206.628 23.7648 209.338 24.9129C218.914 28.9311 223.013 50.4629 215.125 59.7967C212.57 62.8275 208.81 64.5037 209.246 66.9835C209.648 69.2796 213.018 69.0615 217.18 71.6619C225.792 77.052 224.477 86.0872 232.767 89.3821C233.054 89.4969 233.393 89.6003 233.393 89.6003C234.815 90.0814 236.274 90.4424 237.756 90.6794C239.639 91.0124 248.061 92.4762 248.664 95.6505C248.968 97.1832 247.327 98.7675 244.037 101.936C240.592 105.225 239.76 104.967 238.738 106.528C236.51 109.904 238.468 114.381 240.788 121.539C242.51 126.792 243.503 132.256 245.162 137.52C249.296 150.591 250.329 184.591 232.917 205.87C226.555 213.637 216.956 225.387 209.321 230.358C208.086 231.173 205.302 232.867 203.459 236.259C202.971 237.16 200.261 241.534 201.031 246.339C202.42 255.064 214.545 261.361 220.585 258.612C225.889 256.201 226.825 248.974 230.919 249.347C233.037 249.542 235.511 251.844 235.368 253.233C235.349 253.835 235.24 254.431 235.046 255.001C234.891 255.416 234.798 255.851 234.771 256.293C234.79 256.367 234.813 256.439 234.84 256.511C235.161 257.28 239.111 256.689 241.643 257.36C243.945 257.969 246.678 260.093 246.523 261.706Z" fill="#FC565D"/>
<rect x="150.3" y="0.349976" width="75" height="75" fill="#31CFF4" fill-opacity="0.5" stroke="#050505"/>
<rect x="197.7" y="75.35" width="75" height="75" fill="#FFE600" fill-opacity="0.5" stroke="#050505"/>
<rect x="27" y="149" width="75" height="75" fill="#FFE600" fill-opacity="0.5" stroke="#050505"/>
<rect x="183" y="217" width="75" height="75" fill="#FC565D" fill-opacity="0.5" stroke="#050505"/>
<rect x="123" y="75" width="75" height="75" fill="#FC565D" fill-opacity="0.5" stroke="#050505"/>
<rect x="84.3" y="223.65" width="75" height="75" fill="#FDB157" fill-opacity="0.5" stroke="#050505"/>
</g>
<rect x="0.75" y="0.75" width="298.5" height="298.5" stroke="black" stroke-width="1.5"/>
<defs>
<clipPath id="clip0_1_16">
<rect width="300" height="300" fill="white"/>
</clipPath>
</defs>
</svg>
