<svg width="300" height="300" viewBox="0 0 300 300" fill="none" xmlns="http://www.w3.org/2000/svg">
<g clip-path="url(#clip0_7_162992)">
<rect width="300" height="300" fill="#FC565D"/>
<ellipse cx="127.954" cy="-50.5584" rx="162" ry="101.407" transform="rotate(-8.34061 127.954 -50.5584)" fill="white"/>
<path d="M194.555 38.0643C194.534 38.1134 194.516 38.1636 194.501 38.2147C194.504 38.2647 194.504 38.315 194.501 38.365C188.218 40.9641 183.45 42.661 180.84 43.4665C178.939 44.0894 175.47 45.2278 170.573 46.538C159.963 49.3763 149.169 51.4686 138.267 52.7995C134.062 49.6426 130.209 46.0419 126.775 42.0596L126.647 41.8985C120.686 34.7243 120.407 17.1968 128.558 10.9784C133.757 6.9939 136.785 10.2695 148.835 7.02606C163.774 2.98787 164.773 -4.18626 173.827 -4.02516C185.19 -3.82111 197.218 7.78861 198.153 17.9163C198.078 17.8626 198.733 24.9831 194.555 38.0643Z" fill="#FDB157"/>
<path d="M47.494 41.9305L46.71 44.2396L45.2493 48.5356L44.4761 48.2778L41.9306 47.4187L40.2016 46.828C27.0289 42.2546 14.3925 36.2623 2.51537 28.9568C-0.720909 26.9592 -3.8926 24.8721 -7 22.6955C-5.1957 21.0917 -3.3629 19.5201 -1.50133 17.9807C1.02254 19.7098 3.57879 21.3745 6.18858 22.9855C16.4333 29.2926 27.2714 34.5804 38.5476 38.7731C39.772 39.2349 40.9963 39.6752 42.2313 40.1048L44.1646 40.7707L46.001 41.3935L47.494 41.9305Z" fill="#161616"/>
<path d="M259.306 -7C249.083 2.38315 237.997 10.7796 226.195 18.0775L224.949 18.8508L221.963 20.6766L223.778 23.6409L225.604 26.6264L227.441 25.5524L228.59 24.8437C229.288 24.4141 229.986 23.9844 230.673 23.5441C243.185 15.7572 254.904 6.76448 265.664 -3.30555C263.573 -4.60865 261.454 -5.8401 259.306 -7Z" fill="#161616"/>
<path d="M109.173 58.1049C105.092 58.1049 101.043 57.9975 97.0261 57.7827L93.5249 57.6002L93.9009 50.5978L97.4021 50.791C110.869 51.4805 124.371 50.9882 137.752 49.3197C148.49 48.0116 159.124 45.9516 169.574 43.155C169.871 43.0694 170.178 43.026 170.487 43.0261H173.988V50.0393H170.927C160.304 52.859 149.499 54.9439 138.589 56.2792C128.83 57.4872 119.007 58.0969 109.173 58.1049V58.1049Z" fill="#161616"/>
<path d="M32.9956 110.483L27.0671 106.746L55.4955 61.7134L61.4239 65.4616L32.9956 110.483Z" fill="#FDB157"/>
<path d="M71.2079 127.313L29.548 112.159L-6.28015 114.983L-6.82788 108.003L30.5146 105.049L73.6029 120.719L71.2079 127.313Z" fill="#FDB157"/>
<path d="M33.0278 106.727L27.1709 110.584L53.1752 150.067L59.0322 146.209L33.0278 106.727Z" fill="#FDB157"/>
<path d="M100.323 49.8675C91.2696 65.4295 72.0561 70.821 57.9546 63.346C46.2589 57.1599 39.6968 42.9403 42.5536 28.6777L100.323 49.8675Z" fill="white"/>
<path d="M103.621 48.6752C103.454 48.1837 103.179 47.7356 102.817 47.364C102.454 46.9923 102.013 46.7064 101.526 46.5273C91.8458 42.9473 82.1587 39.3925 72.4642 35.8627L43.7673 25.3268C43.2925 25.1513 42.7851 25.0816 42.2806 25.1224C41.7761 25.1632 41.2863 25.3136 40.8458 25.563C40.4029 25.8099 40.019 26.15 39.7205 26.5598C39.4219 26.9696 39.216 27.4394 39.1169 27.9366C38.4108 31.4959 38.2191 35.1379 38.5476 38.7516C38.8021 41.4891 39.3568 44.1903 40.2016 46.8065C42.5137 54.1104 47.2157 60.424 53.5512 64.7314C54.4443 65.3356 55.3693 65.8912 56.3221 66.396C57.449 66.9922 58.611 67.5194 59.8018 67.9747C63.5743 69.4106 67.5792 70.1388 71.6157 70.1227C76.7599 70.0732 81.8372 68.9512 86.5233 66.8283C91.2093 64.7053 95.4011 61.6281 98.8306 57.7934C100.558 55.8774 102.081 53.7861 103.374 51.5536C103.486 51.3627 103.58 51.1612 103.653 50.9521C103.899 50.2111 103.887 49.4089 103.621 48.6752V48.6752ZM93.7826 52.9712C85.0833 62.8411 70.821 66.1812 59.5978 60.2421C56.5032 58.5502 53.7721 56.2652 51.5608 53.5176C49.3494 50.77 47.7012 47.6137 46.71 44.2289C46.4246 43.304 46.1879 42.3648 46.001 41.4151C45.467 38.7983 45.2828 36.1222 45.4533 33.4569L70.0585 42.4891C77.9988 45.353 85.9391 48.2671 93.8794 51.2313L94.9534 51.6072C94.5882 52.069 94.2231 52.5201 93.8794 52.9604L93.7826 52.9712Z" fill="#161616"/>
<path d="M215.759 50.9489L211.623 56.6125L268.32 98.0175L272.456 92.3539L215.759 50.9489Z" fill="#31CFF4"/>
<path d="M263.054 131.319L256.341 129.31L267.092 93.4176L297.271 58.8997L302.544 63.5178L273.364 96.8865L263.054 131.319Z" fill="#31CFF4"/>
<path d="M328.121 75.3545L269.256 91.7236L271.135 98.4804L330 82.1113L328.121 75.3545Z" fill="#31CFF4"/>
<path d="M215.766 55.3662C212.802 57.8252 209.367 59.6526 205.671 60.7361C201.566 61.8599 197.271 62.1147 193.062 61.4841C188.853 60.8535 184.822 59.3514 181.227 57.0739C176.903 54.429 173.232 50.8423 170.487 46.5811C175.331 45.2708 178.853 44.1324 180.754 43.5095C183.364 42.6503 188.133 41.0071 194.416 38.4081C205.603 33.7445 216.411 28.2183 226.742 21.8794C228.229 27.929 227.988 34.2743 226.048 40.1941C224.108 46.1138 220.545 51.3703 215.766 55.3662V55.3662Z" fill="white"/>
<path d="M230.694 23.5227C230.555 22.685 230.394 21.8472 230.19 21.0202C230.194 20.999 230.194 20.9771 230.19 20.9559C230.057 20.4316 229.804 19.9457 229.449 19.5372C229.095 19.1287 228.65 18.809 228.149 18.6038C227.632 18.3804 227.069 18.2862 226.508 18.3292C225.946 18.3723 225.404 18.5512 224.927 18.8508C215.563 24.5851 205.805 29.6492 195.726 34.0048C194.845 34.3915 193.975 34.7566 193.094 35.0788C188.455 37.0012 183.944 38.6873 179.68 40.0942C178.005 40.642 174.514 41.7697 169.682 43.08H169.563C169.034 43.2341 168.548 43.5081 168.142 43.8806C167.736 44.2531 167.421 44.7141 167.222 45.2279C167.011 45.7858 166.941 46.3871 167.018 46.9785C167.035 47.1061 167.064 47.2319 167.104 47.3544C167.099 47.3936 167.099 47.4333 167.104 47.4725C167.153 47.6341 167.215 47.7921 167.287 47.9451C167.361 48.0999 167.443 48.2504 167.534 48.3961C167.576 48.4666 167.623 48.5348 167.673 48.6003C168.092 49.2446 168.532 49.8783 169.005 50.4905C171.82 54.2827 175.334 57.5016 179.358 59.9737C184.871 63.3981 191.223 65.2306 197.712 65.2685C200.721 65.2713 203.715 64.8482 206.605 64.0119C209.861 63.0856 212.945 61.6346 215.734 59.716C216.486 59.222 217.216 58.642 217.882 58.0835C219.043 57.1437 220.141 56.1284 221.168 55.0442C225.088 50.8859 227.988 45.8745 229.641 40.4046C231.294 34.9347 231.655 29.1557 230.694 23.5227V23.5227ZM213.511 52.6385C210.91 54.7832 207.899 56.3731 204.661 57.3103C201.026 58.2994 197.224 58.5181 193.499 57.9521C189.774 57.3862 186.209 56.0481 183.031 54.0238C180.561 52.5138 178.325 50.6505 176.394 48.4929L178.144 47.9666L178.928 47.7195H179.111L180.185 47.3759H180.282L181.098 47.1182L181.85 46.8712C186.285 45.4105 190.957 43.6491 195.758 41.673C196.95 41.1789 198.153 40.6635 199.345 40.148C200.268 39.7399 201.203 39.3317 202.127 38.9021L203.899 38.0966C204.973 37.6026 206.047 37.0872 207.174 36.5502C208.066 36.1313 208.957 35.7016 209.838 35.2506C210.718 34.7995 211.685 34.3378 212.598 33.8652C213.908 33.1886 215.208 32.5119 216.507 31.8139C217.807 31.1158 219.214 30.3424 220.567 29.5906H220.631L223.102 28.1838L224.09 27.6145C224.465 32.3244 223.704 37.0554 221.87 41.41C220.037 45.7645 217.185 49.6153 213.554 52.6385H213.511Z" fill="#161616"/>
<path d="M230.168 20.9556C230.173 20.9236 230.173 20.8909 230.168 20.8589C230.062 20.3014 229.82 19.7787 229.464 19.3367C229.108 18.8946 228.649 18.5469 228.127 18.3243C227.524 18.0568 226.856 17.971 226.205 18.0773C225.735 18.1428 225.285 18.3076 224.884 18.5607C215.611 24.3275 205.918 29.3894 195.886 33.7038C194.984 34.112 194.06 34.4986 193.148 34.8744L192.879 34.9818L192.471 35.1537C184.994 38.2329 177.353 40.9003 169.584 43.1441H169.423C168.733 43.3816 168.133 43.8293 167.71 44.4244C167.286 45.0195 167.059 45.7323 167.06 46.4628C167.044 46.6271 167.044 46.7925 167.06 46.9568C167.07 47.0882 167.095 47.218 167.136 47.3434C167.126 47.3786 167.126 47.4156 167.136 47.4508C167.185 47.6124 167.246 47.7704 167.318 47.9234C167.392 48.0782 167.475 48.2287 167.565 48.3744C167.608 48.4449 167.655 48.5131 167.705 48.5785C168.033 49.0116 168.456 49.363 168.943 49.6052C169.429 49.8474 169.965 49.9739 170.508 49.9748C170.816 49.9731 171.123 49.9333 171.421 49.8565L172.71 49.5021L174.009 49.137L176.415 48.4389L178.165 47.9127L178.949 47.6657H179.132L180.206 47.3219H180.303L181.119 47.0642L181.871 46.8172C186.306 45.3565 190.978 43.5952 195.779 41.6191C196.971 41.1251 198.174 40.6095 199.366 40.094C200.29 39.6859 201.224 39.2777 202.148 38.8481L203.92 38.0427C204.994 37.5486 206.068 37.0332 207.195 36.4962C208.087 36.0773 208.978 35.6478 209.859 35.1967C210.739 34.7456 211.706 34.2838 212.619 33.8112C213.929 33.1346 215.229 32.458 216.528 31.7599C217.828 31.0618 219.235 30.2886 220.588 29.5368H220.652L223.123 28.1298L225.582 26.6799C226.205 26.3148 226.828 25.9496 227.44 25.6059C227.827 25.3804 228.213 25.1549 228.589 24.9186C229.21 24.4838 229.69 23.877 229.971 23.173C230.251 22.4689 230.32 21.6982 230.168 20.9556V20.9556Z" fill="#161616"/>
</g>
<defs>
<clipPath id="clip0_7_162992">
<rect width="300" height="300" fill="white"/>
</clipPath>
</defs>
</svg>
