<svg width="300" height="300" viewBox="0 0 300 300" fill="none" xmlns="http://www.w3.org/2000/svg">
<g clip-path="url(#clip0_7_163005)">
<rect width="300" height="300" fill="#31CFF4"/>
<path d="M116.982 197.702L122.259 226.709" stroke="white" stroke-miterlimit="10"/>
<path d="M113.219 198.407L118.487 227.408L126.131 226.02L120.862 197.019L113.219 198.407Z" fill="white" stroke="white" stroke-miterlimit="10"/>
<path d="M91.481 207.39L147.65 242.444" stroke="white" stroke-miterlimit="10"/>
<path d="M93.554 204.111L89.4414 210.702L145.612 245.753L149.725 239.162L93.554 204.111Z" fill="white" stroke="white" stroke-miterlimit="10"/>
<path d="M93.3765 235.537L122.259 226.708" stroke="white" stroke-miterlimit="10"/>
<path d="M91.8545 229.815L94.1421 237.274L123.138 228.381L120.851 220.922L91.8545 229.815Z" fill="white" stroke="white" stroke-width="1.00424" stroke-miterlimit="10"/>
<path d="M191.845 208.225L169.943 227.957" stroke="white" stroke-miterlimit="10"/>
<path d="M189.228 205.319L167.329 225.049L172.529 230.82L194.428 211.091L189.228 205.319Z" fill="white" stroke="white" stroke-miterlimit="10"/>
<path d="M170.187 191.617L169.909 257.829" stroke="white" stroke-miterlimit="10"/>
<path d="M166.242 191.581L165.96 257.79L173.728 257.823L174.01 191.614L166.242 191.581Z" fill="white" stroke="white" stroke-miterlimit="10"/>
<path d="M147.249 208.032L169.942 227.956" stroke="white" stroke-miterlimit="10"/>
<path d="M149.842 205.199L144.717 211.037L167.412 230.963L172.537 225.126L149.842 205.199Z" fill="white" stroke="white" stroke-miterlimit="10"/>
<path d="M238.453 245.941L243.723 274.952" stroke="white" stroke-miterlimit="10"/>
<path d="M234.687 246.655L239.955 275.656L247.599 274.267L242.331 245.266L234.687 246.655Z" fill="white" stroke="white" stroke-miterlimit="10"/>
<path d="M212.948 255.635L269.124 290.685" stroke="white" stroke-miterlimit="10"/>
<path d="M215.015 252.359L210.902 258.95L267.073 294L271.186 287.41L215.015 252.359Z" fill="white" stroke="white" stroke-miterlimit="10"/>
<path d="M214.843 283.781L243.725 274.952" stroke="white" stroke-miterlimit="10"/>
<path d="M213.28 278.744L215.567 286.203L244.564 277.31L242.276 269.851L213.28 278.744Z" fill="white" stroke="white" stroke-width="1.00424" stroke-miterlimit="10"/>
<path d="M313.309 256.469L291.407 276.2" stroke="white" stroke-miterlimit="10"/>
<path d="M310.694 253.553L288.795 273.282L293.994 279.053L315.894 259.324L310.694 253.553Z" fill="white" stroke="white" stroke-miterlimit="10"/>
<path d="M291.659 239.855L291.374 306.072" stroke="white" stroke-miterlimit="10"/>
<path d="M287.71 239.819L287.428 306.028L295.197 306.061L295.479 239.852L287.71 239.819Z" fill="white" stroke="white" stroke-miterlimit="10"/>
<path d="M268.712 256.275L291.406 276.199" stroke="white" stroke-miterlimit="10"/>
<path d="M271.313 253.442L266.188 259.279L288.882 279.206L294.008 273.368L271.313 253.442Z" fill="white" stroke="white" stroke-miterlimit="10"/>
<path d="M7.60294 23.0381L12.8753 52.0369" stroke="white" stroke-width="0.75" stroke-miterlimit="10"/>
<path d="M3.83233 23.7289L9.10059 52.7297L16.744 51.3412L11.4758 22.3404L3.83233 23.7289Z" fill="white" stroke="white" stroke-width="0.75" stroke-miterlimit="10"/>
<path d="M-17.9031 32.719L38.2663 67.7733" stroke="white" stroke-width="0.75" stroke-miterlimit="10"/>
<path d="M-15.812 29.4574L-19.9246 36.0481L36.2465 71.0986L40.359 64.5079L-15.812 29.4574Z" fill="white" stroke="white" stroke-width="0.75" stroke-miterlimit="10"/>
<path d="M-16.0029 60.873L12.8746 52.0368" stroke="white" stroke-width="0.75" stroke-miterlimit="10"/>
<path d="M-17.2274 57.1603L-14.9553 64.5891L13.9255 55.7561L11.6534 48.3272L-17.2274 57.1603Z" fill="white" stroke="white" stroke-width="0.75" stroke-miterlimit="10"/>
<path d="M82.4592 33.5532L60.5573 53.2844" stroke="white" stroke-width="0.75" stroke-miterlimit="10"/>
<path d="M79.8356 30.6495L57.9365 50.3787L63.1363 56.1504L85.0354 36.4212L79.8356 30.6495Z" fill="white" stroke="white" stroke-width="0.75" stroke-miterlimit="10"/>
<path d="M60.8062 16.9525L60.524 83.1577" stroke="white" stroke-width="0.75" stroke-miterlimit="10"/>
<path d="M56.8611 16.923L56.5791 83.1321L64.3476 83.1652L64.6295 16.9561L56.8611 16.923Z" fill="white" stroke="white" stroke-width="0.75" stroke-miterlimit="10"/>
<path d="M37.8643 33.3608L60.5578 53.2853" stroke="white" stroke-width="0.75" stroke-miterlimit="10"/>
<path d="M40.4682 30.5146L35.3425 36.3523L58.0373 56.2789L63.163 50.4412L40.4682 30.5146Z" fill="white" stroke="white" stroke-width="0.75" stroke-miterlimit="10"/>
<path d="M128.472 70.3293L133.749 99.3355" stroke="white" stroke-miterlimit="10"/>
<path d="M124.711 71.0326L129.979 100.033L137.623 98.645L132.355 69.6441L124.711 71.0326Z" fill="white" stroke="white" stroke-miterlimit="10"/>
<path d="M102.971 80.0178L159.148 115.068" stroke="white" stroke-miterlimit="10"/>
<path d="M105.049 76.748L100.936 83.3386L157.107 118.389L161.22 111.798L105.049 76.748Z" fill="white" stroke="white" stroke-miterlimit="10"/>
<path d="M104.866 108.164L133.748 99.3353" stroke="white" stroke-miterlimit="10"/>
<path d="M103.677 104.455L105.949 111.884L134.83 103.051L132.558 95.6219L103.677 104.455Z" fill="white" stroke="white" stroke-miterlimit="10"/>
<path d="M203.332 80.8521L181.43 100.583" stroke="white" stroke-miterlimit="10"/>
<path d="M200.779 78.068L178.88 97.7971L184.08 103.569L205.979 83.8397L200.779 78.068Z" fill="white" stroke="white" stroke-miterlimit="10"/>
<path d="M181.686 64.2465L181.397 130.456" stroke="white" stroke-miterlimit="10"/>
<path d="M177.728 64.216L177.446 130.425L185.214 130.458L185.496 64.249L177.728 64.216Z" fill="white" stroke="white" stroke-miterlimit="10"/>
<path d="M158.735 80.658L181.429 100.582" stroke="white" stroke-miterlimit="10"/>
<path d="M161.347 77.8142L156.221 83.6519L178.916 103.578L184.041 97.7408L161.347 77.8142Z" fill="white" stroke="white" stroke-miterlimit="10"/>
</g>
<defs>
<clipPath id="clip0_7_163005">
<rect width="300" height="300" fill="white"/>
</clipPath>
</defs>
</svg>
