<svg width="300" height="300" viewBox="0 0 300 300" fill="none" xmlns="http://www.w3.org/2000/svg">
<g clip-path="url(#clip0_7_163015)">
<rect width="300" height="300" fill="#FFE600"/>
<path d="M300.055 149.954C300.094 175.545 293.558 200.716 281.074 223.055C279.762 225.405 278.395 227.7 276.956 229.977C274.263 234.253 271.35 238.388 268.231 242.364C265.171 246.262 261.928 250.009 258.504 253.603C244.508 268.285 227.672 279.969 209.022 287.945C190.371 295.921 170.294 300.022 150.009 300C113.206 300.052 77.6766 286.529 50.2221 262.019C47.2712 259.378 44.4113 256.554 41.6789 253.767C29.4676 241.022 19.6011 226.223 12.5333 210.049C10.9121 206.406 9.45453 202.598 8.14298 198.773C4.48434 188.153 2.03996 177.154 0.85657 165.984C0.285938 160.66 -0.000244448 155.309 2.57425e-05 149.954C-0.00469961 141.882 0.641129 133.823 1.93103 125.854C3.90049 113.6 7.40146 101.642 12.351 90.2603C13.8265 86.8539 15.4115 83.5384 17.1238 80.2777C21.2148 72.4743 25.981 65.0443 31.3684 58.0725C34.9833 53.4147 38.8703 48.9743 43.0087 44.7747L43.6642 44.1007C48.0054 39.7234 52.6172 35.6228 57.4721 31.8232C73.0944 19.5744 90.9956 10.5528 110.135 5.28252C121.47 2.18529 133.128 0.424577 144.872 0.0363025C146.567 0.0363025 148.261 0.0363025 149.955 0.0363025C179.306 -0.0079319 208.019 8.59595 232.51 24.7736C235.333 26.5952 238.065 28.5809 240.743 30.6211L242.073 31.641C249.864 37.7176 257.044 44.5384 263.513 52.0066L263.786 52.3344C265.426 54.156 267.029 56.1962 268.578 58.1999C269.051 58.8193 269.525 59.4204 269.98 60.0215L270.982 61.3697C271.383 61.898 271.765 62.4443 272.148 62.9907L273.423 64.8123C273.696 65.2313 273.969 65.6321 274.26 66.0329L274.425 66.3062L275.517 67.9274C276.228 69.0204 276.938 70.1315 277.631 71.2609L278.669 72.9733C279.707 74.6856 280.709 76.4161 281.656 78.1831C282.312 79.3671 282.931 80.5511 283.478 81.8263L284.316 83.5202V83.6296C284.625 84.2308 284.917 84.8319 285.209 85.4512C285.5 86.0706 285.646 86.3803 285.846 86.8357L286.193 87.5461L286.684 88.6755C286.848 89.0034 286.994 89.3494 287.158 89.6955L287.613 90.7884C287.777 91.1163 287.904 91.4625 288.068 91.8086C288.36 92.4826 288.633 93.1566 288.906 93.8306L289.617 95.6522L289.726 95.9619C290.109 96.9274 290.473 97.911 290.819 98.8947L291.183 99.8782L291.529 100.862L292.186 102.793C292.386 103.412 292.604 104.05 292.786 104.615C292.895 104.924 292.987 105.234 293.096 105.544L293.37 106.472L293.643 107.401C293.807 107.948 293.971 108.494 294.117 109.041C294.262 109.587 294.316 109.733 294.408 110.079C294.499 110.425 294.663 110.954 294.772 111.373C294.881 111.792 294.955 112.046 295.027 112.393C295.1 112.739 295.3 113.449 295.428 113.977L295.92 115.981C297.095 121.054 298.002 126.186 298.634 131.355C299.485 137.52 299.959 143.731 300.055 149.954Z" fill="white"/>
<path d="M258.503 253.603C244.507 268.286 227.672 279.97 209.021 287.945C190.37 295.921 170.293 300.022 150.008 300C113.205 300.052 77.6759 286.529 50.2214 262.019C50.5493 254.296 53.7001 254.259 69.1837 225.587C95.6698 176.513 100.425 136.001 116.819 122.557C117.967 121.61 122.375 118.186 121.792 114.615C121.045 110.098 113.067 110.371 107.456 105.252C98.0019 96.6178 97.9291 75.0682 107.11 67.6361C115.234 61.0601 127.001 68.4558 130.353 63.3554C135.308 55.8504 110.316 38.9458 114.76 23.5897C117.474 14.1902 130.9 6.43022 141.976 9.52694C151.63 12.2047 157.113 22.4603 158.188 30.02C159.135 36.5049 157.058 42.6437 157.896 42.8623C158.734 43.0809 159.572 36.1953 164.308 32.1513C169.536 27.6884 178.48 27.6154 184.2 30.02C201.906 37.4521 209.484 77.3817 194.911 94.5594C190.175 100.17 183.198 103.267 183.981 107.857C184.728 112.065 190.958 111.701 198.663 116.51C214.639 126.474 212.162 143.196 227.482 149.298C229.759 150.191 229.03 149.517 236.735 151.74C249.742 155.51 256.262 157.459 256.955 160.848C257.519 163.635 254.478 166.567 248.394 172.469C241.745 178.936 239.285 179.118 237.701 182.27C235.041 187.388 238.356 192.926 244.113 205.203C257.119 232.946 259.25 245.06 258.503 253.603Z" fill="#FFE600"/>
<path d="M27.4345 81.0983C25.7448 81.6728 23.956 81.8963 22.1769 81.7554C20.3979 81.6144 18.6665 81.1119 17.0884 80.2785C21.191 72.4737 25.9695 65.0436 31.3695 58.0732C30.9323 68.8571 33.3001 78.5481 27.4345 81.0983Z" fill="#FFE600"/>
<path d="M112.358 49.1294C112.23 56.2701 97.7854 56.2336 90.9362 68.2197C84.6152 79.3315 91.3361 89.2776 85.5799 92.9208C80.5158 96.1086 68.6754 92.6111 63.7206 84.9968C54.9952 71.772 73.2294 55.8511 63.7206 38.8738C62.2293 36.0829 60.1323 33.6616 57.5825 31.7877C73.2048 19.5389 91.1051 10.5174 110.244 5.24707C110.344 5.66714 110.417 6.09292 110.463 6.5221C111.647 17.4517 95.5625 21.9876 97.712 32.3525C99.6611 41.2419 112.467 42.4077 112.358 49.1294Z" fill="#FFE600"/>
<path d="M61.3525 220.615C53.2828 234.441 54.7217 231.726 51.1514 237.902C44.0835 250.106 43.5558 251.855 41.6796 253.768C29.4683 241.023 19.6018 226.223 12.5339 210.049C17.2337 193.327 24.4465 181.632 30.9314 181.924C32.5424 182.043 34.0942 182.584 35.4311 183.49C40.222 186.988 37.5621 193.6 42.4258 197.936C44.2776 199.438 46.51 200.396 48.8744 200.705C52.7221 201.428 56.6931 201.126 60.3874 199.83C63.18 198.859 66.0586 198.158 68.9849 197.735C69.3937 197.663 69.8139 197.682 70.2141 197.792C70.6144 197.903 70.9846 198.101 71.2984 198.373C71.2984 198.373 73.6119 199.684 61.3525 220.615Z" fill="#FFE600"/>
<path d="M300.054 149.955C300.094 175.545 293.558 200.717 281.073 223.056C276.123 221.732 271.481 219.448 267.411 216.334C265.262 214.658 255.206 206.825 255.17 195.604C255.17 177.625 280.781 170.102 278.322 159.646C275.699 148.461 245.533 154.381 233.128 135.2C226.753 125.363 227.39 113.65 227.663 108.787C228.101 102.065 228.739 92.1918 235.789 87.6378C241.854 83.7395 249.706 85.7069 253.057 86.5813C278.268 93.2484 278.924 118.878 298.87 131.338C299.643 137.514 300.038 143.731 300.054 149.955Z" fill="#FFE600"/>
<path d="M94.5234 136.402C90.6588 144.261 87.4124 152.41 84.8141 160.775C83.2475 165.675 81.1708 170.812 76.9264 181.104C76.0756 183.575 74.6884 185.827 72.8643 187.698C69.9315 190.503 66.635 191.341 60.2412 192.871C57.5077 193.682 54.6349 193.912 51.8074 193.545C50.7088 193.416 49.6308 193.147 48.6009 192.744C43.1361 190.248 46.1966 180.921 41.0414 175.73C36.7971 171.485 28.8731 171.103 23.6633 173.653C20.0201 175.365 18.0526 178.644 14.3729 185.275C11.9589 189.616 9.86473 194.127 8.10672 198.773C4.44808 188.154 2.00371 177.154 0.820312 165.984C2.1683 161.776 3.57054 157.222 4.97317 152.268C9.49075 136.329 9.70998 131.593 6.99579 128.478C5.66297 127.023 3.85341 126.092 1.89477 125.854C3.86423 113.6 7.3652 101.642 12.3147 90.2604C14.3461 91.7165 16.6926 92.6714 19.1635 93.0473C21.8259 93.3231 24.517 93.02 27.0512 92.1585C29.5854 91.297 31.903 89.8975 33.8457 88.0561C46.3055 76.3797 36.7421 52.2252 42.9537 44.7566C43.1535 44.5144 43.3735 44.289 43.6102 44.0826C43.9618 43.7703 44.3533 43.5069 44.7753 43.2995C46.2956 42.6898 47.9461 42.4769 49.5713 42.6809C51.1965 42.8848 52.7432 43.4989 54.0657 44.4653C61.8986 50.0576 47.8724 77.6001 60.1318 92.8469C65.2323 99.2043 76.5259 105.234 83.4844 102.21C85.9253 101.135 88.3845 98.6761 90.7708 99.6597C92.6835 100.479 92.593 102.829 94.1596 106.017C97.1106 111.864 101.318 111.482 103.085 115.125C105.326 119.661 100.68 124.124 94.5234 136.402Z" fill="#FFE600"/>
<path d="M276.956 229.977C274.262 234.254 271.35 238.388 268.23 242.364C265.115 232.819 262.201 228.338 264.132 226.444C266.063 224.549 269.997 227.482 276.956 229.977Z" fill="#FFE600"/>
<path d="M232.566 24.6468C218.485 30.1116 213.949 39.092 205.515 36.6511C197.081 34.2101 198.739 24.5009 188.774 21.1127C179.138 17.8339 172.981 25.3572 165.221 20.785C160.922 18.2347 161.578 15.1379 155.457 8.56188C152.367 5.22845 148.822 2.34646 144.928 0.000440662C146.622 0.000440662 148.316 0.000440662 150.01 0.000440662C179.352 -0.0708162 208.066 8.50129 232.566 24.6468Z" fill="#FFE600"/>
<path d="M296.193 115.964C293.905 111.06 291.036 106.449 287.649 102.229C283.132 96.4906 277.995 89.9875 270.399 85.2514C259.907 78.7118 240.47 72.9554 229.777 81.2437C216.807 91.2807 221.744 117.985 216.224 118.423C213.984 118.605 213.382 114.215 207.244 110.681C201.105 107.147 197.353 108.859 196.169 106.491C194.092 102.392 206.169 97.6747 209.612 85.9436C213.492 72.7916 203.838 60.0221 209.758 55.3224C210.367 54.7725 211.13 54.4227 211.944 54.3204C216.461 53.9379 217.627 63.7927 224.203 68.456C230.378 72.8279 238.776 70.8241 249.542 68.2192C256.734 66.4698 263.628 63.6646 269.998 59.8946C275.964 67.8212 281.126 76.3214 285.409 85.2696C290.101 95.0817 293.716 105.373 296.193 115.964Z" fill="#FFE600"/>
<path d="M263.569 51.8793C254.078 58.1638 242.857 66.1971 232.802 62.6814C224.04 59.6029 217.154 48.1086 219.649 40.8222C221.799 34.5924 230.725 32.042 240.799 30.439L242.129 31.4592C249.922 37.553 257.103 44.392 263.569 51.8793Z" fill="#FFE600"/>
</g>
<defs>
<clipPath id="clip0_7_163015">
<rect width="300" height="300" fill="white"/>
</clipPath>
</defs>
</svg>
