<svg width="300" height="300" viewBox="0 0 300 300" fill="none" xmlns="http://www.w3.org/2000/svg">
<g clip-path="url(#clip0_1_17)">
<rect width="300" height="300" fill="#FC565D"/>
<path fill-rule="evenodd" clip-rule="evenodd" d="M126.213 311.698C127.043 309.438 127.412 307.034 127.297 304.628C128.127 302.968 128.038 300.848 128.961 299.232C128.385 298.224 128.675 297.285 128.155 296.676C126.68 296.475 126.487 298.692 126.317 300.203C126.176 301.473 126.414 302.859 126.317 303.887C126.072 306.857 124.661 310.082 126.213 311.698Z" fill="#31CFF4"/>
<path fill-rule="evenodd" clip-rule="evenodd" d="M255.967 253.906C256.289 253.862 256.116 253.56 256.019 253.306C255.944 253.385 255.897 253.488 255.888 253.597C255.878 253.706 255.906 253.815 255.967 253.906Z" fill="#31CFF4"/>
<path fill-rule="evenodd" clip-rule="evenodd" d="M274.305 214.574C275.171 216.621 276.155 218.258 277.771 217.697C277.819 215.525 275.377 214.066 274.305 214.574Z" fill="#31CFF4"/>
<path fill-rule="evenodd" clip-rule="evenodd" d="M272.842 213.083C273.132 213.034 272.713 212.276 272.491 212.651L272.636 212.978C272.725 212.901 272.793 212.99 272.842 213.083Z" fill="#31CFF4"/>
<path fill-rule="evenodd" clip-rule="evenodd" d="M260.968 201.838C261.105 201.785 261.242 201.721 261.371 201.656C260.412 200.044 259.662 198.835 258.3 197.969C257.849 199.665 260.231 200.443 260.968 201.838Z" fill="#31CFF4"/>
<path fill-rule="evenodd" clip-rule="evenodd" d="M257.409 198.174C257.369 197.191 258.006 198.577 257.409 198.174V198.174Z" fill="#31CFF4"/>
<path fill-rule="evenodd" clip-rule="evenodd" d="M265.587 194.369C264.89 192.282 263.169 190.819 262.206 192.177C262.568 193.805 264.354 195.796 265.587 194.369Z" fill="#31CFF4"/>
<path fill-rule="evenodd" clip-rule="evenodd" d="M257.123 196.735C257.075 197.042 256.648 197.175 256.869 197.614C257.454 197.944 257.236 197.179 257.123 196.735Z" fill="#31CFF4"/>
<path fill-rule="evenodd" clip-rule="evenodd" d="M290.805 175.459C290.894 175.415 290.982 175.382 291.075 175.342C291.027 175.229 290.982 175.124 290.93 175.016C290.843 175.06 290.755 175.099 290.664 175.132C290.708 175.245 290.757 175.374 290.805 175.459Z" fill="#31CFF4"/>
<path fill-rule="evenodd" clip-rule="evenodd" d="M290.055 175.213C290.002 175.121 289.915 175.053 289.812 175.026C289.709 174.998 289.6 175.011 289.507 175.064C289.56 175.156 289.648 175.224 289.751 175.251C289.853 175.279 289.963 175.266 290.055 175.213Z" fill="#31CFF4"/>
<path fill-rule="evenodd" clip-rule="evenodd" d="M288.818 174.971C288.858 174.633 289.12 174.222 288.733 174.036C288.399 174.206 288.33 174.508 288.48 174.923C288.503 174.899 288.532 174.882 288.563 174.871C288.595 174.861 288.628 174.858 288.661 174.862C288.694 174.867 288.725 174.879 288.752 174.898C288.78 174.917 288.802 174.942 288.818 174.971Z" fill="#31CFF4"/>
<path fill-rule="evenodd" clip-rule="evenodd" d="M277.331 169.002C277.122 168.482 276.739 168.599 276.364 168.648C276.594 169.091 276.908 169.24 277.331 169.002Z" fill="#31CFF4"/>
<path fill-rule="evenodd" clip-rule="evenodd" d="M123.633 225.295C123.806 224.718 123.266 225.182 123.073 224.763C122.863 224.408 123.383 224.416 123.266 224.098C122.094 221.276 121.183 218.729 119.071 218.58C119.236 220.805 121.727 223.94 123.162 225.698C123.472 225.641 123.472 225.423 123.633 225.295Z" fill="#31CFF4"/>
<path fill-rule="evenodd" clip-rule="evenodd" d="M286.859 98.245C286.473 98.1822 286.076 98.2334 285.718 98.3923C285.361 98.5512 285.057 98.8109 284.844 99.1397C284.933 99.6515 285.215 99.4742 285.336 99.8934C285.876 99.2969 286.372 99.2525 287.008 98.5714L286.871 98.4384L286.859 98.245Z" fill="#31CFF4"/>
<path fill-rule="evenodd" clip-rule="evenodd" d="M290.33 54.4227C291.063 54.8257 291.905 53.7657 292.006 53.1007C292.917 53.141 293.707 52.3309 293.949 51.6538C292.506 51.94 290.946 52.5445 290.322 54.0358V54.2292L290.33 54.4227Z" fill="#31CFF4"/>
<path fill-rule="evenodd" clip-rule="evenodd" d="M22.9784 125.845C21.4344 125.268 19.9407 124.564 18.5127 123.741C17.4003 123.068 15.2078 120.827 14.3292 118.997C13.6876 117.447 13.2435 115.822 13.0072 114.161C12.9508 113.641 13.241 112.911 13.3095 112.283C13.511 110.384 13.6682 110.09 14.4622 108.676C15.3005 107.176 15.7519 106.922 17.1908 105.721C17.7913 105.217 18.2266 104.561 18.8029 104.234C19.8871 103.657 21.1093 103.389 22.3357 103.46C23.562 103.531 24.7451 103.938 25.7553 104.637C26.3679 105.076 27.1377 106.132 27.9116 106.983C30.0799 109.365 33.6952 113.093 34.0458 117.272C34.0982 117.881 33.6952 118.139 33.5339 119.05C33.4171 119.723 33.6307 120.541 33.4412 121.029C32.6956 122.915 29.3746 125.377 27.9519 125.789C26.33 126.259 24.6105 126.278 22.9784 125.845ZM24.9654 119.723C24.5623 119.058 23.8651 118.683 23.458 119.231C23.6151 119.473 23.8505 119.654 24.1248 119.743C24.3991 119.833 24.6958 119.826 24.9654 119.723ZM27.2748 116.18C26.9604 116.019 26.2228 116.305 26.6098 116.869C26.9241 117.031 27.6778 116.744 27.2748 116.18Z" fill="#31CFF4"/>
<path fill-rule="evenodd" clip-rule="evenodd" d="M43.0293 88.4511C42.4771 88.173 42.6262 88.8864 42.3643 89.1322C42.7512 89.7046 43.1945 88.9025 43.0293 88.4511Z" fill="#31CFF4"/>
<path fill-rule="evenodd" clip-rule="evenodd" d="M89.9956 26.9557C90.31 27.3587 90.3986 26.5808 90.5961 26.4922C90.2132 26.073 90.1488 26.8347 89.9956 26.9557Z" fill="#31CFF4"/>
<path fill-rule="evenodd" clip-rule="evenodd" d="M113.065 29.5109C111.276 29.5432 108.978 28.0801 107.104 27.6851C106.439 27.5441 105.746 27.7617 104.996 27.6489C104.247 27.536 103.622 27.0806 102.941 27.008C101.623 26.8589 100.309 27.008 98.9871 26.8106C97.6652 26.6131 96.3231 26.1415 95.0898 26.0045C94.3643 25.9279 93.7315 26.2302 93.0464 26.1335C91.7808 25.944 89.2981 24.88 88.5767 24.0336C87.8552 23.1872 87.3394 21.4219 86.3962 20.5353C85.4531 19.6486 83.9417 19.8501 82.7689 18.8465C81.5961 17.843 80.4232 15.3361 80.4837 13.6473C80.5321 12.3213 82.1361 9.74593 83.5266 9.21392C84.3327 8.89955 85.6506 9.53234 86.6622 9.38321C88.085 9.16557 89.7495 8.24261 91.3254 7.51715C94.7794 5.90499 98.5801 4.00264 101.861 3.24493C102.695 3.05147 103.654 2.55978 104.432 2.49932C105.081 2.44693 105.847 2.83787 106.48 2.75324C107.181 2.66054 107.802 2.20914 108.442 2.08017C110.425 1.67713 112.021 1.95522 113.763 2.45096C116.1 3.10791 117.68 3.29734 119.405 5.00219C122.948 8.50862 125.136 15.4328 124.33 19.5116C124.189 20.1846 123.206 22.1595 122.835 23.0784C121.831 25.5611 120.272 27.2781 117.692 28.2615C115.943 28.9063 114.645 29.4746 113.065 29.5109ZM109.639 21.7121C109.107 20.503 107.721 20.2854 106.971 21.1479C107.721 21.8371 108.571 22.1555 109.639 21.7121ZM113.045 18.4636C114.186 15.731 115.31 20.4788 113.045 18.4636V18.4636Z" fill="#31CFF4"/>
<path fill-rule="evenodd" clip-rule="evenodd" d="M308.119 45.5961L308.019 45.6405C307.974 45.4631 308.059 45.3462 307.902 45.1165C307.428 45.2593 307.007 45.5399 306.693 45.9226C306.814 46.3256 307.18 46.0878 307.063 46.4828C306.153 46.8859 305.721 47.5106 304.81 47.9096L304.839 47.8249L304.758 47.7887C304.706 47.6677 304.653 47.5468 304.597 47.4259C304.521 47.4263 304.448 47.454 304.391 47.5039C304.334 47.5538 304.297 47.6226 304.287 47.6975C304.277 47.7725 304.294 47.8487 304.335 47.9121C304.377 47.9755 304.439 48.0218 304.512 48.0426L304.565 48.1635L304.665 48.1191C304.113 48.893 303.13 49.1711 302.525 49.7877C302.3 50.0134 302.271 50.5011 302.086 50.6986C301.139 51.7263 299.861 51.9601 298.588 52.8226C297.08 53.8423 296.137 55.6721 294.408 56.3975C292.32 57.2762 290.249 56.6192 287.96 57.522V57.3769L287.859 57.2802C287.831 57.2036 287.81 57.1311 287.903 57.115C287.693 56.7119 287.186 57.1512 287.5 57.5784L287.702 57.4898V57.6308L287.802 57.7316C287.174 58.0177 285.989 57.5301 286.154 58.6062C285.835 58.8037 285.751 58.1427 285.392 58.5095C285.025 59.7186 283.244 59.2551 282.95 60.311C282.643 60.4602 282.498 60.0571 282.144 60.3796C281.801 60.5206 282.265 61.0687 281.91 61.1856C280.757 60.4199 280.83 62.9711 279.895 62.6446C279.77 62.8864 280.374 63.1968 280.012 63.4507C279.399 62.8663 278.399 64.1117 277.956 64.5026C278.029 65.0991 278.504 64.7847 278.359 65.1838C278.021 65.8206 277.742 65.0508 277.247 65.3853C277.037 65.4981 277.166 65.7883 277.311 66.0745C276.388 66.3364 275.485 67.1385 274.284 66.5501C274.075 66.7596 274.115 67.3561 273.591 67.1425C273.035 66.7758 274.143 66.5863 273.668 65.9576C272.346 65.9334 272.257 67.2393 272.245 68.1743C271.782 68.3678 271.463 68.0453 270.984 68.2952C270.984 68.7869 271.354 68.9038 271.362 69.4278C270.895 70.4233 271.29 71.846 270.363 72.6077C271.088 73.2969 270.173 74.1635 270.56 74.9695C270.947 75.7756 272.225 75.7756 273.216 76.1021C274.208 76.4285 275.232 76.622 275.961 76.9081C276.691 77.1943 277.642 77.8512 278.379 78.0084C281.124 78.613 285.404 77.2023 288.363 76.1907C289.547 75.7877 289.886 74.8889 290.607 74.4778C292.151 73.5952 294.186 73.7846 295.444 73.7806C295.637 74.9373 294.416 75.1469 293.715 75.8401C293.388 76.1665 293.348 76.763 293.03 77.0089C291.897 77.8835 291.014 77.4764 289.592 77.0895C289.721 77.0291 289.568 76.6865 289.431 76.7268C288.762 77.1298 288.221 77.1298 287.573 77.4039C287.627 77.5793 287.736 77.733 287.883 77.8432C287.48 77.9157 287.037 78.1616 286.674 78.089C286.905 78.0111 286.953 77.8459 286.819 77.5933C286.311 77.8271 285.896 77.7505 285.364 78.0931C285.267 78.3873 285.658 78.4074 285.364 78.6613C285.09 78.5686 285.316 78.077 284.9 78.1495C284.127 78.4115 283.764 79.54 282.732 78.6734C282.329 78.7017 282.478 78.9878 282.643 79.2901C282.192 79.3264 281.837 79.0362 281.378 79.1289C281.357 79.2612 281.306 79.3869 281.228 79.4961C281.151 79.6052 281.049 79.6947 280.931 79.7576C280.096 79.9269 279.077 79.3546 278.77 80.2816C278.508 80.5758 278.52 79.9269 278.262 80.2211C277.96 80.3863 278.021 80.7249 277.859 80.9667C276.743 80.7773 276.356 82.0872 275.562 82.5587C274.768 83.0303 273.752 83.0343 272.95 83.4253C273.023 83.9653 272.285 84.0983 272.112 84.5175C271.826 84.4127 271.387 83.8485 271.197 84.3442C270.863 84.6062 271.79 84.9769 271.262 85.0334C270.089 85.0334 269.48 86.7302 268.037 86.4521C267.775 86.6052 268.303 87.1534 267.9 87.234C267.59 87.4556 266.748 87.375 266.095 87.7499C265.756 87.4791 265.348 87.3087 264.918 87.2581C264.112 87.1937 261.605 87.9635 261.758 88.7937C262.161 89.1323 262.733 88.8703 263.088 89.362C262.927 89.5353 262.959 89.8013 263.052 90.0996C261.395 90.563 261.141 91.7117 259.86 92.3767C259.372 93.9889 261.633 95.3028 262.802 95.2544C263.834 95.2101 264.273 94.2992 264.902 94.0453C265.405 93.8677 265.957 93.8855 266.448 94.0952C266.939 94.3049 267.334 94.6913 267.554 95.1778C268.323 97.2817 265.393 96.6489 264.559 97.0842C263.955 97.3945 263.87 98.2732 262.661 98.2087C262.33 99.2243 261.153 99.8652 261.202 101.159C261.29 103.605 262.556 103.509 264.188 103.875C265.591 104.19 267.01 104.359 268.307 104.794C270.048 105.387 271.6 106.342 273.249 106.503C273.902 106.564 274.627 106.237 275.473 106.382C276.258 106.63 276.976 107.053 277.573 107.62C276.884 107.781 276.364 107.346 275.606 107.769C275.356 108.643 274.248 110.151 273.478 110.292C272.983 110.384 272.354 109.78 271.866 109.856C271.225 109.961 270.979 110.711 270.528 111.17C270.903 114.564 273.716 114.991 275.739 116.22C276.183 116.49 276.578 117.027 277.025 117.24C279.25 118.389 281.749 117.949 284.385 118.449C286.243 118.808 288.213 119.151 289.306 119.013C289.87 118.945 290.221 118.566 290.66 118.558C290.93 118.558 291.277 118.872 291.68 118.961C292.679 119.211 293.263 119.417 294.122 119.61C295.166 119.892 296.241 120.047 297.322 120.073C297.552 120.073 298.076 119.67 298.676 119.618C298.975 119.582 299.752 119.84 300.554 119.795C301.356 119.751 302.038 119.525 302.525 119.646C303.67 119.936 304.295 120.956 303.525 121.661C302.485 122.609 299.97 121.839 299.325 121.641C298.189 121.303 297.137 121.42 296.23 121.137V120.996L296.125 120.896L296.427 120.763C296.149 120.477 295.508 120.287 295.315 120.682C295.347 120.763 295.383 120.843 295.42 120.924L295.472 121.045L295.529 121.166C292.578 121.569 289.773 121.468 287.262 120.36L287.363 120.315L287.311 120.194C287.415 119.674 286.871 119.457 286.505 119.691C286.56 119.867 286.67 120.02 286.819 120.13L286.714 120.174L286.771 120.295C286.448 120.4 286.234 120.13 285.964 120.077V119.936L285.86 119.84L286.057 119.747L285.9 119.388C285.799 119.429 285.698 119.473 285.602 119.521C285.65 119.638 285.706 119.759 285.759 119.884H285.634L285.557 119.985C285.476 120.026 285.384 120.041 285.294 120.03C285.203 120.018 285.118 119.98 285.05 119.92V119.779L284.949 119.683L285.15 119.59C284.481 119.07 283.667 119.058 282.813 119.187L282.97 119.55H282.845L282.772 119.654C282.103 119.852 281.656 119.251 280.995 119.429L281.019 119.348L281.043 119.263C280.926 118.86 280.721 118.764 280.431 118.957C280.483 119.078 280.536 119.199 280.592 119.32L280.515 119.284L280.487 119.368C279.858 119.324 279.439 118.562 278.847 118.361C277.984 118.481 278.416 119.251 277.638 119.167C277.674 118.723 276.977 118.179 277.029 119.167C276.969 118.155 276.4 119.126 276.001 118.469C275.639 118.469 275.352 118.872 274.893 118.671C275.095 118.671 274.804 118.026 274.679 118.187C274.377 118.655 273.918 118.328 273.47 118.433C273.232 118.095 273.752 118.131 273.41 117.74C272.648 118.514 272.056 117.579 271.032 117.78C270.734 117.446 271.314 117.542 271.032 117.212C270.097 117.256 269.142 117.369 268.69 116.515C268.178 117.413 267.344 118.155 268.243 119.308C268.585 119.755 271.145 120.335 271.705 120.658L271.608 120.702L271.661 120.823C271.499 120.932 271.524 121.129 271.661 121.395C271.736 121.395 271.809 121.367 271.866 121.317C271.923 121.268 271.96 121.199 271.97 121.124C271.981 121.049 271.964 120.973 271.922 120.909C271.881 120.846 271.818 120.8 271.745 120.779L271.85 120.734L271.798 120.614C273.672 120.392 275.639 119.844 277.118 121.017C276.944 121.726 276.602 122.274 275.675 122.375C275.457 122.036 276.142 121.678 275.675 121.516C274.917 121.045 275.449 122.093 274.933 122.278C274.208 122.242 274.861 121.581 274.353 121.234C274.006 121.412 274.558 122.04 274.172 122.181C273.95 121.94 273.579 122.206 273.402 121.798C273.027 121.359 273.97 121.581 273.591 121.137C272.886 122.093 271.499 121.811 270.367 121.698C270.214 121.778 270.423 122.044 270.169 122.077C269.246 121.577 268.388 122.532 267.538 122.077C267.187 122.266 267.231 122.411 266.84 122.387C266.53 122.297 266.251 122.123 266.034 121.883C264.789 122.987 264.188 121.359 262.6 122.25C262.282 122.25 262.79 121.847 262.391 121.766C261.988 122.234 261.544 121.919 261.073 121.766C261.363 120.456 265.506 120.061 264.499 118.381C264.261 117.978 263.834 117.889 263.229 118.22L263.177 118.099L263.076 118.143C263.036 117.97 263.116 117.849 262.967 117.619L262.564 117.792C262.617 117.968 262.726 118.123 262.874 118.232L262.774 118.276L262.826 118.397C262.709 118.655 262.354 119.288 262.084 119.155C262.278 119.026 261.855 118.578 261.681 118.752C261.327 118.752 261.621 119.098 261.681 119.324C261.351 119.546 261.242 119.005 260.916 119.227C260.38 119.67 259.928 120.682 259.537 120.988C259.432 121.073 259.07 120.988 258.981 121.093C258.703 121.444 258.828 121.899 258.497 122.169C258.308 122.177 258.121 122.211 257.941 122.27C257.369 122.459 257.087 123.189 256.386 122.814C256.321 123.54 256.18 123.62 255.442 123.665C255.6 124.281 255.289 124.66 255.116 125.107C254.963 126.808 256.543 128.392 257.296 130.347C257.39 130.733 257.517 131.111 257.675 131.475C258.34 132.491 259.646 132.64 260.093 133.434L259.989 133.479L260.045 133.603C258.703 134.321 260.509 136.485 260.928 137.231C261.347 137.976 261.407 138.903 261.782 139.447C262.27 140.149 263.322 140.387 264.297 141.06C264.559 141.249 264.7 141.608 264.97 141.769C266.461 142.736 268.259 142.607 268.964 144.324C272.89 145.807 276.856 147.146 280.318 150.265C280.58 150.668 280.37 150.793 280.588 151.148C281.313 150.966 281.797 151.664 282.281 152.28L282.244 152.413L282.285 152.566C281.237 152.675 280.733 150.857 279.629 151.144L279.999 151.99H279.87L279.798 152.095C278.126 151.223 276.546 150.184 275.082 148.995L275.183 148.951L275.127 148.83C275.869 148.916 276.575 149.203 277.166 149.66C277.235 149.596 277.368 149.568 277.315 149.447C276.747 148.415 275.28 147.835 274.764 148.556L274.873 148.794L274.796 148.758L274.772 148.842C273.64 148.721 272.757 147.653 271.705 147.315L271.806 147.266L271.757 147.146L272.056 147.013C271.955 146.319 270.846 146.323 270.939 146.928L270.838 146.976L270.895 147.097C270.77 147.121 270.677 147.033 270.589 146.94V146.803L270.484 146.702L270.685 146.614C270.63 146.438 270.521 146.285 270.375 146.174L270.472 146.134L270.419 146.013C270.367 145.892 270.419 145.828 270.419 145.727C269.553 145.662 269.21 144.812 268.336 145.348C267.671 144.413 266.663 144.655 265.881 144.139C265.667 144.191 265.756 144.389 265.688 144.514L265.635 144.393L265.534 144.441C265.075 144.764 264.99 143.764 264.672 144.389C264.765 144.889 265.131 144.413 265.24 144.86C264.031 145.187 262.504 144.022 261.407 142.954L261.508 142.906L261.452 142.785C261.546 142.813 261.646 142.818 261.742 142.799C261.839 142.781 261.93 142.74 262.008 142.68H262.133L262.209 142.575C262.395 142.748 262.58 142.914 262.87 142.712C262.729 142.289 262.536 142.039 262.205 142.289H262.076L262.004 142.39C261.718 142.059 261.423 141.761 260.984 141.987C261.016 142.265 260.879 142.607 261.202 142.756L261.097 142.801L261.153 142.922C260.698 142.869 259.783 142.817 259.771 142.228C259.856 142.394 260.085 142.228 259.92 142.023C259.293 141.9 258.71 141.609 258.235 141.181C258.304 140.737 259.263 141.148 259.13 140.495C258.61 139.871 257.921 139.847 257.292 139.585C257.012 140.014 256.639 140.375 256.2 140.641C255.761 140.907 255.29 141.116 254.798 141.261C254.193 141.966 254.975 143.365 254.189 143.978V144.062L254.165 144.143C253.798 143.829 253.556 144.606 253.923 144.683C253.979 144.66 254.03 144.625 254.072 144.582C254.115 144.538 254.147 144.486 254.169 144.429L254.221 144.55L254.326 144.506C254.366 144.683 254.282 144.8 254.439 145.034C254.523 145.34 254.842 144.764 254.894 145.263C256.047 149.024 260.057 149.092 262.016 152.204C262.749 153.316 263.294 154.541 263.628 155.831C262.56 154.86 261.581 153.594 260.239 153.582C260.904 155.17 262.596 155.75 263.556 157.306C263.024 157.044 262.975 156.943 262.548 157.463C261.951 156.085 259.356 156.254 258.55 155.198C257.627 153.989 255.918 152.893 255.193 151.635C255.007 151.313 254.983 150.801 254.814 150.507C254.213 149.419 253.133 148.871 252.395 147.972C252.178 147.71 252.065 147.262 251.871 147.049C251.61 146.779 251.255 146.791 250.997 146.428C249.997 145.017 249.84 143.78 248.893 142.454C248.212 141.511 247.357 141.306 246.737 140.814C246.297 140.471 246.16 139.971 245.802 139.782C244.465 139.102 243.016 138.669 241.526 138.504C240.316 138.371 238.539 138.597 237.809 137.408C237.406 136.711 237.552 135.457 237.967 135.034C238.523 134.462 239.607 135.062 240.59 134.736C241.933 134.293 241.916 133.575 242.158 132.318C240.594 129.863 238.507 127.05 235.956 128.287C236.447 130.041 235.827 131.242 236.201 132.934C235.561 134.821 234.621 136.562 235.468 139.169C235.065 140.004 235.19 141.108 234.456 141.781C234.775 142.664 234.255 143.095 234.093 143.671C234.037 143.865 234.19 144.139 234.158 144.365C234.081 144.836 233.634 145.171 233.574 145.485C233.489 145.916 233.473 147.198 233.666 147.609C234.005 148.33 235.25 148.693 235.827 149.249C235.96 149.386 235.972 149.701 236.089 149.858C236.455 150.321 237.112 150.664 237.483 151.111C238.289 152.087 238.773 153.566 239.865 153.808C240.148 153.676 240.465 153.635 240.772 153.691C241.215 154.436 241.578 155.545 241.078 156.299C240.929 155.791 240.542 156.125 240.216 156.246C239.841 155.73 239.385 155.472 238.745 155.887C238.773 156.855 239.845 158.507 240.788 159.454C241.332 160.002 242.521 160.341 242.686 160.776C242.851 161.212 242.235 161.643 242.408 162.054C241.55 161.49 240.893 160.208 239.796 160.466C240.147 161.361 239.559 161.985 239.796 162.924C240.276 164.827 241.223 165.101 242.34 166.262C243.456 167.422 244.032 168.563 244.875 169.035C246.62 170.018 248.974 169.998 250.517 170.715C250.739 169.752 249.768 169.635 249.224 169.127C248.417 168.386 247.656 167.035 246.991 166.511C248.321 166.467 249.058 168.478 250.279 168.805C250.529 169.885 251.037 169.434 251.17 170.284C252.379 170.34 253.081 172.17 254.06 173.049C253.298 176.217 256.337 178.071 257.905 180.706C259.969 182.568 262.741 183.56 264.007 187.228L263.959 187.107L263.854 187.155C263.813 187.089 263.748 187.042 263.674 187.021C263.599 187.001 263.519 187.01 263.451 187.046C263.539 187.252 263.628 187.449 263.717 187.647L264.019 187.514L263.995 187.598L264.071 187.635C264.144 187.897 264.184 188.168 264.188 188.441C263.153 190.146 261.702 190.375 260.114 189.517C258.022 188.396 255.043 185.632 253.778 184.104C252.021 183.919 249.57 182.633 247.575 182.52C245.935 182.431 243.948 183.016 244.234 185.007C244.347 185.833 244.847 186.313 244.83 186.905C244.772 187.186 244.692 187.462 244.593 187.731C243.637 189.63 241.191 188.836 239.756 188.715C238.813 188.634 237.83 188.86 237.028 188.763C236.798 188.739 236.548 188.505 236.31 188.509C235.081 188.509 234.073 188.791 233.086 188.509C232.28 188.106 231.933 187.087 231.127 186.784C230.785 186.651 230.216 186.901 229.813 186.784C229.241 186.627 228.894 185.978 228.386 186.264C228.076 185.527 227.177 185.382 226.533 184.773C226.343 184.596 226.327 184.257 226.129 184.096C225.932 183.935 225.468 183.907 225.206 183.633C224.767 183.173 224.59 182.371 224.211 181.912C223.143 180.622 222.014 180.763 220.584 181.057C220.507 181.69 220.511 182.351 221.128 182.835C220.89 184.044 221.934 185.035 222.212 186.393C222.788 186.111 223.05 186.796 223.143 187.425C223.203 187.308 223.389 186.978 223.498 187.425C224.481 187.76 224.904 189.037 225.678 190.21C226.375 191.254 227.435 192.024 228.008 192.781C228.939 194.027 228.6 194.986 229.132 195.889C228.524 195.756 228.886 196.469 229.003 196.957C229.35 197.271 229.189 196.312 229.455 196.901C229.858 197.404 229.301 197.453 229.68 197.956C229.987 197.586 229.922 197.521 230.289 197.956L230.188 198.001L230.24 198.122C230.205 198.134 230.172 198.151 230.14 198.17L229.938 198.255C229.995 198.384 230.085 198.495 230.2 198.577L230.402 198.484L230.498 198.436L230.446 198.315C230.696 198.271 230.732 198.956 230.966 198.952L230.865 199L230.922 199.121C230.643 199.242 230.922 199.794 231.135 199.891L231.236 199.843L231.216 199.927L231.288 199.964C231.458 200.544 232.187 201.33 232.582 201.265C231.917 201.56 233.207 202.414 232.558 202.575C231.49 202.716 230.865 200.963 230.18 199.879C228.971 197.948 228.165 196.562 226.738 195.043C225.863 194.12 225.013 193.612 224.425 193.027C223.159 191.818 222.409 190.295 222.929 189.368C221.934 188.304 221.349 186.74 220.511 185.531C220.318 185.237 220.011 185.128 219.838 184.813C219.6 184.41 219.592 183.858 219.354 183.439C219.278 183.298 218.891 183.105 218.79 182.972C217.678 181.492 217.069 179.606 216.021 178.57C215.792 178.349 215.433 178.312 215.215 178.075C214.998 177.837 214.893 177.389 214.687 177.148C214.417 176.833 213.881 176.491 213.506 176.092C212.297 174.883 211.991 174.621 210.637 174.48C209.77 174.383 208.855 174.504 208.102 174.157C206.949 173.621 206.618 172.948 205.429 172.166C204.539 169.377 203.06 172.372 202.096 172.48C202.217 172.799 202.157 173.016 201.907 173.141C197.296 175.282 193.528 174.463 191.331 168.156C191.666 167.221 191.432 166.004 191.331 164.851C189.05 165.468 185.052 166.697 184.238 169.429C182.952 169.974 181.969 170.8 180.574 170.905C179.587 170.977 178.357 170.445 177.241 171.227C176.838 171.154 176.608 170.687 176.217 170.522C175.576 170.252 175.048 170.562 174.396 170.465C174.057 170.413 173.702 170.098 173.372 170.062C171.864 169.853 170.381 170.143 169.108 169.361C168.331 169.452 167.544 169.407 166.782 169.228C166.782 169.982 166.669 170.24 166.968 171.021C167.371 172.061 167.649 173.291 167.943 174.339C168.386 175.914 169.116 178.466 170.027 179.614C173.138 183.564 176.826 187.985 179.051 193.072C179.357 193.475 178.76 193.43 179.014 193.805C179.159 194.023 179.446 193.729 179.526 194.16C179.49 195.176 180.292 195.103 180.332 196.256H180.203L180.131 196.368C179.292 195.965 179.151 194.95 178.567 194.172C178.079 193.511 177.241 193.092 176.709 192.399C176.467 192.072 176.383 191.657 176.133 191.355C175.576 190.686 174.778 190.174 174.17 189.34C173.984 189.09 173.92 188.642 173.747 188.376C173.384 187.828 172.836 187.449 172.501 186.909C170.764 184.088 169.531 180.964 168.318 177.639C167.717 176.027 166.923 174.657 166.149 172.98C165.376 171.304 164.63 168.631 163.763 167.547C163.207 166.854 162.192 166.657 161.748 166.266C160.805 165.411 159.665 162.61 158.633 162.171C157.682 161.768 156.19 162.453 156.025 163.323C154.993 163.904 153.958 163.727 152.95 163.96C152.571 164.049 152.297 164.476 151.902 164.569C151.507 164.662 150.967 164.291 150.58 164.291C150.1 164.291 149.456 164.432 148.863 164.468C148.271 164.452 147.679 164.472 147.09 164.529C146.513 164.718 145.26 165.967 145.478 166.834C145.558 167.164 146.05 167.576 146.364 168.043C148.105 170.546 149.77 172.855 150.169 176.164L150.145 176.245L150.125 176.325C149.786 175.753 149.633 176.874 150.177 176.446L150.254 176.483V176.406C150.826 177.212 150.213 177.454 150.391 178.079C150.794 178.131 150.693 178.55 150.967 178.828C151.346 179.231 151.886 179.187 152.345 179.522C153.188 180.13 154.477 181.496 154.893 182.867C155.134 183.673 155.175 185.74 153.538 186.051C153.184 186.123 151.842 185.704 151.297 185.317C150.206 184.477 149.489 183.24 149.302 181.875C149.258 180.755 150.27 179.86 150.109 178.78C149.778 176.648 147.896 175.959 147.34 174.665C146.836 173.48 147.489 171.626 146.493 170.288C145.909 169.482 144.551 169.663 143.841 169.155C143.555 168.942 143.462 168.466 143.217 168.277C142.56 167.886 141.776 167.766 141.032 167.942C140.855 167.999 140.629 168.39 140.536 168.446C139.896 168.821 138.473 168.813 137.618 169.163C137.397 169.252 137.268 169.534 137.066 169.566C136.514 169.615 135.656 168.942 134.987 169.192C134.663 168.679 134.227 168.246 133.713 167.925C133.199 167.604 132.619 167.403 132.016 167.338C131.077 167.164 129.94 166.874 128.812 166.588C127.272 166.185 126.394 166.439 124.806 166.185C124.205 166.088 123.23 165.758 122.98 165.834C121.811 166.237 121.896 168.466 121.078 169.413C120.802 169.728 120.461 169.979 120.078 170.147C118.232 170.747 118.676 167.035 118.635 166.314C119.57 165.472 119.494 163.779 119.977 162.55C120.268 161.812 120.711 161.449 120.783 160.603C120.817 159.989 120.787 159.373 120.695 158.765C120.054 158.161 119.155 158.439 118.361 158.362C118.489 158.553 118.547 158.782 118.526 159.011C117.837 159.946 117.599 161.026 116.87 162.05C115.806 163.517 114.395 164.662 113.049 165.899C112.541 166.37 111.647 167.354 111.364 167.511C111.164 167.476 110.959 167.467 110.756 167.487C110.635 167.604 110.687 168.132 110.518 168.293C110.268 168.567 109.623 168.623 109.369 168.946C109.116 169.268 109.369 169.458 109.079 169.651C107.403 171.11 105.891 173.154 104.779 174.584C104.843 174.52 104.851 174.427 104.779 174.294C104.162 174.613 104.549 174.697 104.489 174.995C104.464 175.459 104.334 175.911 104.11 176.317C103.739 176.845 101.232 178.486 100.994 177.406C100.547 175.334 103.936 174.149 105.311 173.049C106.141 172.384 106.443 171.352 107.032 170.703C107.858 169.804 108.882 169.091 109.365 168.378C109.595 168.043 109.587 167.515 109.797 167.168C110.063 166.737 110.554 166.524 110.889 166.108C111.078 165.871 111.131 165.456 111.324 165.198C111.727 164.637 112.384 164.327 112.763 163.831C112.969 163.573 112.961 163.082 113.166 162.8C113.69 162.16 114.27 161.567 114.899 161.03C115.967 159.99 117.225 159.341 117.519 157.995C116.503 157.568 115.709 156.363 114.883 155.267C115.286 152.776 111.933 150.527 110.047 151.345C109.877 151.942 109.567 152.804 108.761 152.784C108.761 153.687 108.019 154.235 108.003 155.138C107.91 155.452 107.79 155.138 107.499 155.363C108.438 156.976 106.048 160.2 105.129 158.427C104.936 158.048 105.174 156.685 105.492 156.25C106.238 155.218 108.015 154.852 107.866 153.469C107.071 151.888 105.681 150.688 104.001 150.132C103.457 149.884 102.869 149.747 102.272 149.729C101.925 149.761 101.526 150.188 101.063 150.257C100.748 150.309 100.458 150.124 100.204 150.201C98.4995 150.757 96.7705 152.768 95.4485 152.74C94.6828 153.296 92.861 155.682 91.0917 155.093C90.4806 154.806 90.0011 154.298 89.7496 153.671C89.5078 152.812 90.3823 152.034 90.9587 151.547C91.6801 150.95 92.4096 149.798 93.1391 149.431C94.445 148.77 96.1458 149.499 97.3307 148.875C97.899 148.572 98.1368 147.802 98.5156 147.484C99.6079 146.593 100.894 146.392 101.361 145.509C101.764 144.703 101.313 143.724 101.704 142.474C101.999 141.732 102.515 141.099 103.183 140.661C104.098 139.992 104.823 140.366 105.549 140.052C106.028 139.846 106.504 138.988 107.084 138.367C107.749 137.65 107.971 137.561 108.265 136.687C108.841 135.014 106.415 131.802 105.174 131.564C104.771 131.488 104.432 131.878 104.122 131.891C103.355 131.846 102.607 131.636 101.929 131.274C101.498 131.04 101.099 130.327 100.442 130.065C99.9379 129.966 99.4276 129.901 98.9146 129.871C97.8547 129.726 96.9962 129.706 96.1417 130.089C95.6057 129.916 95.1503 129.468 94.5296 129.654C94.0792 129.205 93.8132 128.604 93.784 127.969C94.2676 126.796 95.4525 127.094 96.2868 126.574C96.7624 126.272 97.0405 125.639 97.3186 125.111C97.5967 124.583 97.6854 123.749 97.8909 123.415C98.0401 123.169 98.3464 123.245 98.4391 123.032C98.6043 122.629 98.4391 122.044 98.7172 121.75C98.435 120.831 98.9348 120.174 98.6648 119.179C98.4794 118.494 97.895 117.97 97.7216 117.293C97.5483 116.615 98.032 115.914 97.6773 115.277C97.0446 114.6 95.4606 115.237 94.5336 114.935C93.8646 114.717 93.3245 113.871 93.0625 114.862C91.2972 114.459 91.6358 115.938 91.2811 116.801C91.2126 116.978 90.8781 117.006 90.737 117.204C90.4146 117.659 90.3703 118.155 90.0519 118.373C89.6345 118.615 89.1679 118.761 88.6866 118.8C88.2053 118.838 87.7214 118.768 87.2709 118.594C87.3192 119.034 87.6376 118.538 87.6739 118.997C86.7469 119.332 85.8038 119.473 85.9368 120.489C86.5013 120.618 87.0217 120.894 87.4462 121.288C87.8706 121.682 88.184 122.18 88.3551 122.734C87.8392 123.846 87.1459 124.394 85.9368 123.802C85.3202 123.491 85.2315 122.814 84.7035 122.903C84.1111 123 83.6073 124.515 83.0269 125.083C80.8787 127.151 77.6866 126.051 75.9858 124.596C75.657 124.229 75.4219 123.787 75.3007 123.31C74.8976 122.101 74.1883 119.783 74.2971 118.852C74.3938 118.07 74.9218 117.671 75.2201 116.837C75.47 116.164 75.4941 115.338 75.8407 114.979C76.5016 114.373 77.3179 113.963 78.1985 113.794C79.1094 113.621 80.7135 114.6 81.5881 113.883C82.2813 113.319 81.9911 110.997 83.0269 110.074C83.6033 109.562 84.3368 109.611 84.7277 109.03C85.3605 108.091 85.4169 105.995 85.5338 104.919C85.429 104.677 85.3242 104.436 85.2154 104.194C85.7958 100.901 87.3314 98.0797 88.6735 95.1698C90.0438 94.7667 89.9068 93.2916 91.0917 93.082C92.0912 91.5344 92.8771 90.3212 94.1024 89.3016C94.4732 88.9912 94.9084 88.9993 95.0495 88.7413C95.5358 87.683 95.94 86.5889 96.2586 85.4687C96.6173 84.4651 98.169 82.6796 99.0799 82.063C99.3419 81.8816 99.7812 81.8736 99.9827 81.6599C100.478 81.1441 100.317 80.2413 100.704 79.7536C101.098 79.2907 101.591 78.9228 102.147 78.6775C102.522 78.5566 102.885 78.8871 103.211 78.6452C103.832 78.1817 104.122 75.9973 104.15 75.0582C104.178 74.1191 103.747 73.4098 103.441 72.3457C102.885 70.4716 102.877 68.5773 102.635 67.2231C102.417 66.0543 101.962 65.0669 102.062 64.019C102.196 63.0744 102.432 62.1472 102.768 61.2541C103.019 60.627 103.311 60.0171 103.642 59.4284C103.864 59.0818 104.287 58.973 104.485 58.6223C104.682 58.2717 104.682 57.5059 104.855 57.0102C105.085 56.3855 105.456 55.8938 105.537 55.5552C105.702 54.8741 105.5 54.2816 105.807 53.9954C106.822 53.0483 108.378 53.5924 109.398 53.9954C109.547 54.3985 109.801 54.4307 109.926 54.9184C110.151 55.0433 110.365 55.2247 110.635 55.1804C111.759 57.3487 113.48 57.1472 114.798 58.0984C115.242 58.4208 115.717 59.1866 116.346 59.7105C116.705 60.0168 117.209 60.1659 117.523 60.4884C118.24 61.2138 118.684 62.0602 119.538 62.6245C120.577 63.2935 121.672 63.8707 122.811 64.3495C123.431 64.6034 124.911 65.3047 125.459 65.1959C127.264 64.8412 127.232 62.6769 127.156 61.4234C127.119 60.9196 126.865 60.2627 126.918 59.8113C126.998 59.0818 127.841 57.4777 128.739 57.1351C129.106 57.0173 129.499 57.0012 129.874 57.0885C130.249 57.1758 130.594 57.3632 130.871 57.6308C132.081 59.1825 130.912 61.4516 130.779 63.1484C130.589 65.611 132.629 66.7435 134.406 66.7395C134.604 66.7395 134.809 66.4977 135.011 66.4775C136.345 66.3082 137.832 66.7879 138.896 66.0745C139.299 66.2518 139.613 66.6266 140.02 66.7314C140.424 66.671 140.331 66.3808 140.669 66.3002C141.629 67.1385 143.047 66.3606 144.075 66.9571C144.293 66.6911 144.22 66.276 144.357 65.9657C145.139 65.4659 146.276 65.6513 147.025 65.22C148.085 64.6074 148.742 63.3298 149.758 62.7172C151.233 61.8224 153.232 61.6854 154.534 61.3227C155.155 61.1494 155.453 60.6859 156.146 60.3272C156.686 60.045 157.355 60.0289 157.907 59.6984C158.618 59.1744 159.283 58.5906 159.894 57.9533C162.965 58.1507 163.014 55.2449 164.412 53.7899C165.505 52.6574 166.311 50.8598 167.415 49.7273C167.326 49.3041 167.548 49.0381 167.548 48.6592C168.604 47.4501 169.648 46.8294 170.168 45.6284C170.543 44.7578 170.232 43.7825 170.361 42.8071C170.45 42.134 171.002 41.6182 170.829 40.8685C171.308 40.5017 171.232 39.7561 171.453 39.2966C171.562 39.083 171.897 39.075 172.006 38.8936C172.114 38.7122 172.006 38.4422 172.094 38.277C172.183 38.1117 172.497 37.9304 172.59 37.7691C173.034 36.7731 173.253 35.6915 173.231 34.6012C173.231 32.8158 173.872 32.6304 174.782 31.3205C175.04 30.9578 175.133 30.5145 175.371 30.1961C175.646 29.8527 175.943 29.5282 176.262 29.2247C176.878 28.5839 177.507 27.7053 178.043 27.2861C179.127 26.4357 180.534 26.3188 181.807 25.7667C182.452 25.4845 182.879 24.8075 183.714 24.9243C187.829 21.16 187.518 15.191 190.162 10.689C190.29 9.84528 190.602 9.04015 191.077 8.33146C191.552 7.62276 192.179 7.02807 192.911 6.59013C195.353 5.23592 198.28 7.24307 198.61 10.5601C198.699 11.475 198.388 14.1068 197.51 13.7844C197.683 15.0338 196.74 15.727 196.704 16.8757C196.373 17.0288 196.301 17.2787 195.853 17.3956C195.337 19.0561 193.911 20.2612 193.564 22.0104C192.456 22.3368 192.496 23.2195 192.137 23.9369C191.259 24.0135 191.226 24.876 190.122 25.1138C189.524 26.3907 188.822 27.616 188.022 28.7774C187.587 29.3658 187.647 30.3895 187.361 31.0908C187.023 31.8969 186.354 32.5014 185.935 33.2994C185.608 33.9362 185.531 34.6577 185.217 35.2098C184.862 35.8305 184.338 36.1771 183.883 36.822C183.132 37.9153 182.477 39.0724 181.928 40.2801C181.42 41.3723 180.852 42.3436 180.469 43.2303C180.208 43.8333 180.102 44.4918 180.16 45.1463C180.217 45.8008 180.437 46.4306 180.8 46.9785C183.782 51.7062 189.546 45.2697 191.4 43.3028C191.267 42.9522 191.363 42.7144 191.23 42.3678C192.266 40.2075 193.532 36.959 196.099 35.4557C196.877 35.0043 198.006 34.307 199.005 34.174C200.005 34.041 201.258 34.7705 202.229 33.9C202.584 33.1866 202.713 32.2878 203.144 31.6188C203.289 31.3931 203.636 31.385 203.793 31.1875C204.664 30.0993 204.793 28.3904 205.18 27.2579C205.373 26.6977 205.861 26.2906 206.058 25.7143C206.401 24.7107 206.058 23.7555 206.094 22.5303C206.127 21.8008 206.784 19.4148 207.134 18.903C207.88 17.8394 208.502 16.694 208.988 15.4892C209.488 14.2438 209.935 12.8372 210.484 11.8014C211.032 10.7656 211.789 9.87088 212.249 9.00435C213.119 7.35592 214.502 6.13067 214.981 4.04696C215.973 3.50689 215.812 2.48721 216.098 1.68113C216.263 1.22167 216.674 0.939545 216.904 0.472021C217.464 -0.82173 217.952 -2.25251 218.693 -3.6309C219.437 -4.96618 220.019 -6.38551 220.426 -7.85876C220.636 -8.7132 220.507 -9.40644 220.789 -10.0352C221.003 -10.5148 221.543 -10.8412 221.821 -11.4982C221.93 -11.7481 221.821 -12.135 221.902 -12.401C222.305 -13.8398 223.224 -15.1296 223.514 -16.4314C223.707 -17.3866 223.514 -18.8254 223.949 -19.8008C224.102 -20.1474 224.755 -20.6512 224.985 -21.2638C225.388 -22.2835 225.565 -24.0488 226.109 -25.5118C226.202 -25.7536 226.424 -25.9955 226.512 -26.2574C227.089 -28.1558 227.391 -30.4853 229.652 -31.0939C230.889 -31.4324 232.268 -30.8077 232.876 -28.6313C233.553 -26.2695 231.708 -24.3712 230.781 -22.2271C230.446 -21.4573 230.253 -20.6713 229.974 -19.9942C229.652 -19.2284 229.168 -18.6481 228.854 -17.9105C228.354 -16.8143 228.141 -15.3754 227.613 -14.1945C227.137 -13.1385 226.404 -12.2075 226 -11.0307C225.932 -10.8332 226.029 -10.4987 225.964 -10.2971C225.529 -8.97114 224.674 -7.87891 224.114 -6.59725C223.655 -5.5292 223.441 -4.29188 222.905 -3.32862C222.675 -2.89334 222.212 -2.63539 221.966 -2.19205C221.66 -1.61571 221.446 -0.982948 221.096 -0.36227C220.583 0.479073 220.127 1.35434 219.733 2.25748C219.431 3.01116 219.475 4.08324 219.229 4.92962C218.892 6.038 218.623 7.16592 218.423 8.30708C218.363 8.66578 218.125 8.97209 218.02 9.34288C217.738 10.552 217.956 12.015 217.746 13.067C217.492 14.3123 216.561 15.5134 216.912 16.8958C217.077 17.2581 217.27 17.6071 217.488 17.9397C218.762 20.9504 218.294 23.5822 218.294 26.077C217.952 26.1254 218.089 26.4196 217.746 26.4801C217.581 28.3139 216.497 29.7044 215.921 31.3165C215.981 31.6389 215.114 31.3165 215.328 31.8727C215.405 32.2757 215.695 32.0017 215.84 32.2193C214.881 33.3438 215.921 34.3111 216.509 35.3831C216.856 36.0159 217.041 37.0961 217.472 37.8377C217.71 38.2407 217.976 38.3294 218.093 38.7163C218.411 39.7682 217.899 41.7592 217.815 42.4444C217.77 42.8232 217.932 43.2101 217.887 43.4197C217.75 44.0767 217.283 44.4273 217.259 44.9956C217.214 46.104 218.294 48.5504 219.169 49.3403C220.825 50.8356 222.655 49.2477 223.848 47.9942C224.215 47.5912 224.417 47.0471 224.735 46.7367C224.916 46.5634 225.194 46.64 225.335 46.4747C225.799 45.9226 225.96 45.181 226.516 44.7981C226.77 44.6248 227.113 44.6812 227.371 44.5644C228.306 44.1371 229.527 42.8273 230.51 42.1461C231.167 41.7068 231.175 40.4856 231.72 40.0221C231.446 39.5103 231.72 39.2725 231.542 38.813C232.038 37.6361 232.751 37.0638 232.945 35.7419C233.138 34.4199 232.574 32.6264 233.166 31.6107C234.114 29.9784 236.983 30.4016 238.587 29.5028C238.966 29.2933 239.184 28.8015 239.631 28.6081C240.627 28.1728 242.263 28.7089 243.521 28.4711C244.464 28.2978 245.177 28.3501 245.733 27.7819C246.608 26.7347 247.351 25.5842 247.946 24.356C248.014 24.1666 247.821 23.953 247.946 23.7837C248.8 22.4376 249.86 22.0708 251.714 22.2643C252.084 22.8646 252.4 23.4957 252.661 24.1505C252.19 25.7626 251.827 27.4473 251.344 29.0595C250.934 29.3423 250.593 29.7146 250.348 30.1482C250.103 30.5817 249.96 31.0653 249.929 31.5624C249.641 31.6512 249.381 31.8137 249.175 32.0339C248.563 33.6743 248.772 35.7338 247.563 37.0759C247.877 38.3455 246.402 39.5627 246.789 41.3078C246.906 41.8358 247.595 43.0812 248.091 43.1819C248.764 43.327 251.182 41.4569 251.589 41.062C251.871 40.7839 251.884 40.3325 252.125 40.1027C252.484 39.7722 253.02 39.8125 253.532 39.4821C254.862 38.6196 255.547 37.2331 256.599 36.1086C257.47 35.1776 258.614 34.5287 259.485 33.6904C260.122 33.0657 260.545 32.1588 261.214 31.6309C261.714 31.2278 262.266 31.1795 262.665 30.8248C262.995 30.5507 263.277 30.0187 263.604 29.6882C264.304 28.9675 265.051 28.2943 265.841 27.6731C266.985 26.7501 267.751 25.2548 268.755 24.2271C269.255 23.7031 269.964 23.4895 270.5 23.0179C270.903 22.6472 271.185 22.0668 271.588 21.6718C272.056 21.2124 272.696 20.9746 273.132 20.5554C274.373 19.3463 275.006 17.0248 276.682 15.8157C278.186 14.7315 279.721 14.135 280.677 13.1838C281.632 12.2327 281.733 11.0679 282.341 10.4311C283.284 9.44365 285.968 7.71462 286.46 8.89956C286.771 9.63308 284.687 12.3334 284.159 12.6559C283.417 13.0992 282.381 12.934 281.591 13.3572C279.447 14.5139 279.504 18.1573 277.509 19.0561C276.92 19.3181 276.146 19.0561 275.534 19.2052C274.728 19.8582 274.155 20.9504 273.712 21.5952C272.946 22.7076 271.874 23.0744 270.826 24.0135C270.085 24.6906 269.617 26.0609 268.489 26.0569C267.622 27.3063 266.393 28.8177 264.966 29.4867C262.588 32.7554 258.957 35.2663 256.502 38.277C256.136 38.547 255.991 38.0392 255.596 38.3898C255.313 38.5349 255.648 38.9823 255.309 39.0951C254.196 39.7849 253.304 40.7794 252.738 41.9607C251.646 41.9607 251.162 43.0651 250.594 43.6293C250.376 43.6656 250.34 43.0812 250.03 43.4439C249.574 43.593 250.058 44.2137 249.747 44.4354C248.671 43.5205 248.538 45.3503 247.805 45.7291C247.071 46.108 246.434 45.1286 246.14 46.0314C246.205 46.8133 246.701 46.104 246.858 46.5755C245.588 46.9785 245.673 48.1877 245.548 49.3202C245.483 49.8925 245.169 50.4286 245.072 50.9727C245.01 51.7869 245.01 52.6048 245.072 53.4191C245.072 54.4549 244.826 55.2489 244.919 55.793C245.092 56.8288 245.87 58.3724 246.346 58.7674C246.906 59.2349 247.289 58.852 248.071 58.8722C248.929 58.9004 250.11 59.5332 251.005 59.0173C251.15 59.2228 251.19 59.8234 251.472 59.5332C251.577 58.5498 252.649 58.6304 253.371 58.4007C253.048 59.4566 251.541 59.779 250.38 60.5891C249.929 60.3433 250.356 59.646 249.8 59.5453C249.664 59.9702 249.418 60.3515 249.086 60.6503C248.755 60.9491 248.35 61.1547 247.914 61.2461C248.454 61.9756 247.43 62.5398 247.603 63.2613C247.777 63.9827 248.885 64.7807 249.55 64.7001C250.058 64.6437 250.727 64.1399 251.36 63.8941C255.934 62.1691 261.395 60.3513 265.099 57.8203C265.373 57.8848 265.502 58.453 265.817 58.3684C267.654 58.8641 269.218 58.8843 271.189 58.8722C272.051 58.9101 272.914 58.8683 273.769 58.7473C274.655 58.5578 275.361 58.0097 276.275 57.6389C277.555 57.1593 278.867 56.7715 280.201 56.4781C283.147 55.7648 286.339 56.5467 288.822 55.1159C289.076 54.9748 289.269 54.6766 289.519 54.5234C291.043 53.5682 292.937 53.0483 294.674 51.811C295.976 50.884 297.705 49.3565 299.107 48.8406C300.252 48.4134 301.755 48.4617 302.775 47.6315C303.263 47.2284 303.956 46.765 304.569 46.2612C305.532 45.4793 306.314 44.4112 307.249 43.6374C308.482 42.6137 309.897 41.9164 311.142 41.0499C311.791 40.5984 312.581 39.7722 313.331 39.2201C314.693 38.2165 316.204 37.2895 317.422 36.2578C318.574 35.2743 319.437 34.1902 320.553 33.5775C321.4 33.0641 322.387 32.8288 323.374 32.9045C323.197 33.638 322.613 33.6622 322.903 34.2708C323.636 35.8507 326.059 32.4289 326.933 33.9241C327.586 35.0325 325.523 35.6532 325.007 36.0764C324.168 36.7615 323.761 37.9062 323.028 38.3898C321.537 39.3853 318.953 38.3898 317.502 40.2599C317.301 40.5219 317.345 41.066 317.216 41.2474C316.507 42.2791 315.628 41.7995 314.705 42.0534C313.544 42.392 312.444 43.2625 311.299 43.8469C310.155 44.4313 309.143 45.1407 308.152 45.6767L308.119 45.5961ZM262.612 187.091C262.654 187.047 262.685 186.995 262.701 186.937C262.718 186.88 262.721 186.819 262.709 186.76C261.782 185.293 260.315 185.728 259.275 184.672C259.848 186.135 261.415 186.784 262.612 187.091ZM258.151 184.023C257.619 183.012 256.567 181.17 255.459 181.17C255.976 182.419 256.934 183.434 258.151 184.023ZM253.314 183.407C252.782 182.702 252.166 182.319 251.42 182.371C251.587 182.725 251.862 183.016 252.205 183.202C252.549 183.389 252.943 183.46 253.33 183.407H253.314ZM227.117 193.269C227.294 193.225 227.242 193.08 227.367 193.007C226.589 192.463 226.045 191.097 225.15 190.964C225.38 192.04 226.468 192.64 227.117 193.269ZM244.109 174.661C242.779 173.194 240.482 173.508 238.745 174.439C239.148 175.874 240.155 175.145 241.485 174.959C242.65 174.79 243.182 175.044 244.109 174.661ZM222.156 180.614L222.357 180.521C222.321 180.444 222.284 180.364 222.252 180.287C222.184 180.311 222.119 180.344 222.051 180.372L222.156 180.614ZM279.439 150.97C279.073 150.205 278.565 149.931 277.952 150.039C278.038 150.352 278.239 150.621 278.515 150.793C278.79 150.965 279.12 151.027 279.439 150.966V150.97ZM275.582 147.919C275.953 147.964 275.635 147.25 275.421 147.561C275.473 147.678 275.546 147.794 275.582 147.915V147.919ZM274.518 147.956L274.82 147.823C274.764 147.617 274.635 147.657 274.562 147.504L274.361 147.597L274.518 147.956ZM273.503 147.553C273.293 147.041 273.075 146.577 272.628 146.928C272.817 147.468 273.075 147.79 273.503 147.54V147.553ZM240.453 160.139L240.651 160.043L240.55 159.805L240.349 159.89C240.389 159.962 240.425 160.059 240.482 160.127L240.453 160.139ZM227.101 164.895C226.516 163.936 225.489 164.222 224.751 163.916C224.014 163.61 223.139 162.582 222.256 163.146C222.083 166.773 225.271 167.104 227.101 164.895ZM255.866 148.866L256.168 148.734L256.007 148.371L255.704 148.504L255.866 148.866ZM240.417 155.404C240.518 155.363 240.619 155.315 240.715 155.279C240.667 155.15 240.611 155.029 240.558 154.908L240.256 155.041L240.417 155.404ZM263.342 143.252L263.644 143.119L263.483 142.756L263.185 142.889L263.342 143.252ZM253.048 147.085L253.25 146.992C253.214 146.916 253.177 146.835 253.145 146.751C253.077 146.783 253.012 146.815 252.94 146.843C252.976 146.904 253.016 146.98 253.048 147.065V147.085ZM260.581 141.878C260.879 141.761 260.496 140.894 260.21 141.035C259.678 141.217 260.291 141.922 260.581 141.858V141.878ZM301.856 121.323C301.727 120.867 301.401 121.089 301.099 121.23C301.196 121.33 301.325 121.392 301.463 121.406C301.602 121.42 301.741 121.385 301.856 121.307V121.323ZM256.289 139.718C256.527 139.677 256.406 139.464 256.329 139.27C256.274 139.33 256.24 139.406 256.232 139.487C256.225 139.568 256.245 139.649 256.289 139.718ZM292.159 120.541C292.006 120.138 291.72 120.243 291.446 120.283C291.595 120.747 291.881 120.662 292.179 120.561L292.159 120.541ZM149.274 175.354L149.572 175.221L149.415 174.862C149.206 174.915 149.161 175.076 149.294 175.334L149.274 175.354ZM267.646 120.859C267.61 120.783 267.578 120.702 267.542 120.618C266.997 120.714 267.638 121.343 267.646 120.859ZM270.847 116.426C271.25 116.353 270.979 115.68 270.633 115.946C270.786 116.265 270.572 116.253 270.847 116.418V116.426ZM264.438 117.385C264.18 117.006 263.862 116.829 263.632 117.168C263.737 117.796 264.313 117.74 264.438 117.377V117.385ZM270.282 113.508L270.226 113.387C270.677 113.673 270.266 112.738 270.169 113.266L270.073 113.311L270.125 113.431C269.234 112.932 267.521 111.61 267.707 110.328C267.255 110.191 266.498 109.723 266.139 110.304L266.083 110.179L265.986 110.227L265.684 110.356L265.788 110.598L266.087 110.469L266.167 110.505L266.191 110.421C266.349 110.792 266.594 110.8 266.808 111.013C266.808 111.307 266.248 110.949 265.958 111.247C265.45 113.46 268.13 115.435 269.754 113.895C269.968 114.125 270.387 113.971 270.198 113.548L270.282 113.508ZM239.14 124.954C239.817 124.797 239.365 123.943 238.922 123.902C238.531 124.023 238.869 124.793 239.14 124.954ZM238.567 123.914C238.479 123.713 238.39 123.511 238.297 123.31C237.926 123.374 238.023 123.673 238.112 123.971C238.187 123.993 238.267 124 238.345 123.99C238.424 123.981 238.499 123.955 238.567 123.914ZM265.067 96.7819L265.268 96.6892L265.164 96.4474L264.962 96.5361C265.015 96.6046 265.067 96.6892 265.067 96.7819ZM291.925 76.4043C292.022 76.5333 292.236 76.4043 292.228 76.2673C292.22 75.957 291.752 76.1383 291.942 76.3922L291.925 76.4043ZM270.528 69.1497C270.294 67.9728 269.557 68.7466 269.037 67.9405C268.497 67.9405 269.069 68.5209 268.747 68.6418C268.078 68.8071 267.779 67.864 267.058 67.8035C265.921 67.7148 264.837 69.0126 264.374 69.859C263.636 69.7099 262.52 70.4233 262.27 71.0681C263.177 71.9467 263.882 70.9472 264.89 70.4877C266.506 69.7381 269.162 69.8106 270.544 69.1255L270.528 69.1497ZM266.018 66.2437C264.833 65.7883 263.503 67.5173 262.516 68.0816C262.919 68.5935 263.535 68.3799 263.898 69.0529C264.458 68.0091 265.47 67.2272 266.034 66.2196L266.018 66.2437ZM294.416 54.5556C294.345 54.5219 294.266 54.5112 294.189 54.5249C294.112 54.5386 294.041 54.5761 293.986 54.6321C293.932 54.6881 293.896 54.7598 293.884 54.8372C293.872 54.9146 293.885 54.9937 293.92 55.0635C294.174 55.1562 294.718 54.9466 294.432 54.5315L294.416 54.5556ZM183.798 103.726C183.976 103.69 183.923 103.537 184.048 103.476C183.984 103.384 183.895 103.396 183.839 103.275L183.641 103.364C183.71 103.472 183.766 103.593 183.815 103.71L183.798 103.726ZM283.977 58.586C284.038 58.8399 284.509 58.5618 284.223 58.3321L284.026 58.4208C284.102 58.4933 284.05 58.5377 284.01 58.5699L283.977 58.586ZM312.089 42.7023C311.436 42.396 310.284 43.4197 309.836 43.8429C310.372 44.2419 311.678 43.1779 312.105 42.6862L312.089 42.7023ZM313.234 41.7632C313.597 41.8116 314.77 41.461 314.536 40.8967C313.98 41.1063 313.456 41.3481 313.25 41.7471L313.234 41.7632ZM315.652 40.6992C315.616 40.2599 314.657 40.6992 314.951 41.0096C315.092 41.07 315.709 40.9693 315.656 40.6831L315.652 40.6992ZM185.213 97.6203C185.104 97.2857 184.899 97.2817 184.649 97.4348C184.758 97.7653 184.959 97.7694 185.213 97.6203ZM318.195 38.551C318.373 38.5107 318.316 38.3616 318.445 38.2971C318.381 38.0472 317.909 38.3415 318.195 38.551ZM321.15 37.1001C321.005 36.56 320.428 36.9268 320.65 37.3218C320.997 37.2694 320.88 37.3218 321.15 37.1001ZM206.03 83.9452C205.616 83.2654 205.088 82.9698 204.446 83.0585C204.43 83.9049 205.72 84.2636 206.03 83.9452ZM205.345 82.6595L205.651 82.5305C205.583 82.2565 205.438 82.2363 205.337 82.0912C205.171 82.2 205.2 82.3975 205.345 82.6756V82.6595ZM212.575 77.3071C213.281 77.2386 213.027 76.3237 212.604 75.9973C211.91 76.1262 212.237 76.9404 212.575 77.3071ZM117.12 118.199L117.015 117.958C116.471 118.05 117.112 118.683 117.12 118.199ZM239.164 63.3862L239.361 63.2975C239.329 63.2169 239.289 63.1363 239.256 63.0517C239.192 63.088 239.119 63.1121 239.055 63.1444L239.164 63.3862ZM211.757 74.3448C212.382 74.236 212.253 73.3856 211.785 73.039C211.306 73.0833 211.503 73.442 211.185 73.5871C211.325 73.8765 211.519 74.1364 211.757 74.3529V74.3448ZM222.301 67.8116C222.107 67.0821 221.386 67.336 221.341 67.8116C221.648 68.4403 222.079 68.2469 222.301 67.8196V67.8116ZM223.457 64.9903C223.739 64.9097 223.86 64.7566 223.699 64.4502C223.624 64.4266 223.545 64.4197 223.467 64.4302C223.389 64.4406 223.314 64.4681 223.248 64.5107C223.316 64.68 223.385 64.8372 223.457 64.9984V64.9903ZM223.175 63.5313L223.377 63.4426C223.312 63.35 223.377 63.3096 223.425 63.2774C223.389 63.1968 223.353 63.1162 223.32 63.0356C223.24 63.096 223.199 63.0356 223.167 62.959L222.966 63.0477C223.03 63.1444 222.966 63.1807 222.917 63.2129C222.949 63.2935 222.982 63.3741 223.022 63.4547C223.099 63.4023 223.151 63.4668 223.175 63.5394V63.5313ZM224.787 60.6536C225.021 60.6173 225.013 60.4561 225.134 60.3594C225.069 60.0894 224.928 60.0692 224.824 59.9201C224.493 60.1377 224.513 60.3715 224.787 60.6617V60.6536ZM222.575 61.3469C222.949 61.2824 222.853 60.9801 222.764 60.6859C222.563 60.7705 222.49 60.4118 222.256 60.6214C222.236 60.7612 222.255 60.9039 222.311 61.0336C222.367 61.1632 222.458 61.2745 222.575 61.3549V61.3469ZM117.986 105.995C118.357 106.044 118.043 105.326 117.829 105.633L117.986 105.995ZM97.5685 114.588C97.3468 114.342 97.1332 114.072 96.7624 114.37C96.9156 114.83 97.2783 114.572 97.5685 114.588ZM125.705 99.845C125.773 99.8168 125.838 99.7846 125.906 99.7604C125.87 99.6758 125.834 99.5992 125.801 99.5145L125.6 99.6032L125.705 99.845ZM144.176 84.9044C144.26 84.8671 144.333 84.808 144.386 84.7332C144.44 84.6583 144.473 84.5705 144.481 84.4788C144.489 84.387 144.473 84.2948 144.433 84.2116C144.394 84.1284 144.333 84.0573 144.256 84.0056C144.163 84.0325 144.079 84.0872 144.017 84.1625C143.955 84.2378 143.917 84.3301 143.908 84.4274C143.899 84.5247 143.92 84.6223 143.968 84.7074C144.016 84.7926 144.088 84.8613 144.176 84.9044ZM127.784 90.1439C127.821 90.1842 128.091 90.2648 128.139 90.1439C128.248 89.8255 127.446 89.7409 127.784 90.1318V90.1439ZM147.13 79.8745C147.404 79.7939 147.533 79.6407 147.368 79.3384C147.07 79.407 146.937 79.5601 147.11 79.8543L147.13 79.8745ZM151.967 76.1545C151.604 75.5781 151.229 75.0421 150.584 75.4653C150.822 76.3842 151.511 76.7268 151.942 76.1424L151.967 76.1545ZM140.452 81.0635C140.681 80.9869 140.726 80.8216 140.597 80.5677C140.368 80.6483 140.32 80.8136 140.452 81.0635ZM154.768 73.2929L154.969 73.2042C154.933 73.1236 154.893 73.0471 154.86 72.9624L154.659 73.0511C154.695 73.1438 154.735 73.2244 154.768 73.305V73.2929ZM152.216 71.8419C152.082 71.8021 151.937 71.8115 151.809 71.8683C151.68 71.9252 151.576 72.0258 151.515 72.1523C151.769 73.0027 152.595 72.5271 152.216 71.8419ZM152.16 71.721L152.361 71.6324C152.329 71.5558 152.293 71.4712 152.257 71.3946L152.055 71.4832C152.083 71.5598 152.12 71.6404 152.152 71.721H152.16ZM153.861 70.6812L154.159 70.5482C154.086 70.387 154.018 70.2298 153.953 70.0686C153.659 70.1451 153.683 70.3789 153.853 70.6812H153.861ZM154.421 68.4161L154.623 68.3275C154.59 68.2469 154.554 68.1662 154.518 68.0856L154.316 68.1743L154.421 68.4161ZM157.307 65.9979C157.585 65.9173 157.71 65.7641 157.549 65.4619C157.474 65.4364 157.395 65.4283 157.316 65.4381C157.238 65.4479 157.163 65.4753 157.097 65.5183C157.158 65.6674 157.226 65.8246 157.299 65.9858L157.307 65.9979Z" fill="#31CFF4"/>
<path fill-rule="evenodd" clip-rule="evenodd" d="M172.993 243.725H172.824C174.242 245.475 174.738 248.868 176.451 250.847C176.931 251.415 178.942 252.576 179.478 252.238C180.284 251.718 179.571 249.505 178.922 248.405C177.616 246.176 174.666 244.652 173.106 243.6L172.993 243.725Z" fill="#31CFF4"/>
<path fill-rule="evenodd" clip-rule="evenodd" d="M287.314 191.355L287.242 191.202C288.451 192.145 290.337 192.616 291.792 193.841C293.001 194.877 296.834 198.428 295.327 200.427C294.489 201.544 292.026 200.395 291.087 199.585C289.019 197.807 288.636 193.624 286.521 192.483L286.666 192.386L286.718 192.205C286.944 192.1 287.165 192.008 287.391 191.911C287.319 191.742 287.254 191.58 287.181 191.415L287.314 191.355ZM293.997 198.493C293.666 197.578 293.086 197.541 292.481 197.614C292.336 198.553 293.683 199.153 293.997 198.493ZM289.16 194.059C289.563 193.91 289.382 193.253 289.072 193.124C288.532 193.205 288.814 193.914 289.14 194.047L289.16 194.059Z" fill="#31CFF4"/>
<path fill-rule="evenodd" clip-rule="evenodd" d="M286.307 192.193V191.996C286.198 191.875 285.63 191.447 285.759 191.85C285.888 192.253 286.069 192.693 286.448 192.322L286.307 192.193Z" fill="#31CFF4"/>
<path d="M304.899 42.5411V230.163C296.298 229.643 292.643 227.467 288.209 230.744C288.209 230.744 281.608 235.669 276.489 237.672C273.382 238.881 273.503 238.051 271.588 239.07C268.162 240.896 263.858 250.742 263.858 250.742C259.876 259.811 257.026 260.415 257.969 262.717C259.582 266.626 267.642 264.01 273.946 270.459C274.958 271.491 277.372 273.953 276.642 276.239C276.146 277.798 274.224 279.152 272.406 279.205C271.879 279.217 271.355 279.125 270.863 278.935C269.783 278.564 264.055 276.625 262.802 277.935C261.742 279.064 264.656 281.804 265.377 288.08C265.881 292.533 264.728 293.839 264.096 294.319C263.658 294.629 263.159 294.844 262.633 294.948C262.551 295.041 262.448 295.114 262.332 295.159C262.216 295.205 262.091 295.222 261.968 295.209C260.741 295.149 259.566 294.697 258.614 293.92C255.176 290.998 247.789 279.173 240.881 275.122C232.651 270.286 224.852 276.331 220.729 270.947C218.863 268.492 218.311 264.401 220.023 261.959C223.175 257.477 230.648 262.527 240.244 258.735C244.012 257.247 247.599 252.431 254.785 242.803C256.897 239.981 259.586 236.052 258.32 234.182C258.168 233.971 257.978 233.79 257.76 233.65C255.072 231.634 254.04 227.604 253.83 226.959C252.343 222.336 237.306 216.883 232.872 215.122C230.12 214.014 207.275 203.925 197.183 185.188C195.869 182.742 192.536 175.999 189.582 176.491C187.381 176.853 187.434 180.9 183.94 182.436C181.328 183.588 177.668 182.931 175.528 180.985C171.538 177.357 173.972 170.909 171.562 169.941C169.055 168.93 166.448 175.882 159.874 177.793C152.511 179.921 145.087 174.359 143.906 173.44C136.014 167.305 134.233 156.847 133.592 153.252C132.29 145.695 133.898 142.035 130.561 137.743C128.143 134.623 125.991 134.921 121.795 132.233C121.219 131.87 108.193 123.29 108.318 110.538C108.394 101.268 115.367 94.8191 116.608 93.6705C123.149 87.6249 127.53 90.0069 130.473 85.8435C136.921 76.7187 118.579 61.363 123.887 47.2083C127.111 38.6316 137.727 34.4965 144.49 33.5655C162.147 31.1472 180.413 46.9342 187.922 63.1726C196.067 80.7773 188.728 92.7234 198.924 101.151C208.166 108.776 223.28 106.507 223.844 104.319C224.247 102.844 217.96 101.626 215.522 95.593C213.809 91.349 215.006 87.242 215.324 86.1941C217.053 80.5516 221.773 77.3797 223.788 76.1182C240.667 65.1717 283.84 64.6921 302.009 45.9548C303.044 44.879 304.009 43.7388 304.899 42.5411Z" fill="#FDB157"/>
</g>
<defs>
<clipPath id="clip0_1_17">
<rect width="300" height="300" fill="white"/>
</clipPath>
</defs>
</svg>
