<svg width="300" height="300" viewBox="0 0 300 300" fill="none" xmlns="http://www.w3.org/2000/svg">
<g clip-path="url(#clip0_1_18)">
<rect width="300" height="300" fill="#FC565D"/>
<path d="M13.1908 78.6419L26.189 17.9956L31.2616 5.24052L57.3088 13.8004L43.0899 49.2231L44.8838 50.319L71.6008 17.3649L90.5185 20.0094L86.619 29.0021L59.9768 56.2302L66.1686 80.365L73.5963 69.3225L88.6003 74.4536L60.1 105.225L48.1394 58.5532L42.5123 55.8637L38.7772 99.6151L10.7939 89.1907L13.1908 78.6419Z" fill="#31CFF4"/>
<path d="M222.375 35.3801L242.885 23.1476L274.461 52.1285L253.017 19.4171L277.41 1.60692e-06L283.707 14.4337L287.869 59.1644L291.585 109.02L252.574 72.7931L251.743 72.9363L272.513 81.0204L273.095 76.0475L242.848 50.2255L225.038 44.0913L222.375 35.3801Z" fill="#31CFF4"/>
<path d="M152.513 172.964L128.387 195.684L118.622 185.666L73.2884 141.919L66.8919 131.919L89.5944 105.036L125.072 100.441L123.631 157.847L141.54 164.946L152.513 172.964Z" fill="#31CFF4"/>
<path d="M224.15 187.294L200.405 179.745L217.837 142.771L183.435 175.822L165.413 168.438L167.772 159.783L177.643 135.77L186.05 103.354L191.052 95.6542L217.092 100.401L197.27 140.096L231.556 105.429L249.148 114.028L247.511 121.76L229.211 177.599L224.15 187.294Z" fill="#31CFF4"/>
<path d="M120.367 261.33L123.331 286.202L121.497 287.246L108.866 276.48L71.3706 287.249L67.3096 275.249L54.6172 225.828L50.8246 213.884L71.7814 211.774L93.3863 273.467L80.4184 209.29L98.4792 203.473L101.013 212.929L120.367 261.33Z" fill="#31CFF4"/>
<path d="M197.129 288.227L170.387 279.629L173.194 266.843L196.573 214.241L199.084 201.791L241.402 216.342L239.281 227.51L232.752 283.702L229.347 295.127L202.722 288.57L207.839 257.413L197.129 288.227ZM210.136 228.988L211.133 245.034L219.527 231.504L217.889 219.906L210.136 228.988Z" fill="#31CFF4"/>
<path d="M24.4497 86.9762L32.4307 49.7387L35.5453 41.907L51.5385 47.1628L42.808 68.9127L43.9095 69.5856L60.3139 49.3515L71.9295 50.9752L69.5352 56.4968L53.1767 73.2151L56.9785 88.0342L61.5392 81.254L70.7517 84.4045L53.2523 103.299L45.9084 74.6415L42.4534 72.9901L40.16 99.854L22.978 93.4533L24.4497 86.9762Z" fill="#FFE600"/>
<path d="M237.264 41.9859L249.858 34.475L269.246 52.2695L256.079 32.1844L271.056 20.2621L274.923 29.1245L277.478 56.5897L279.76 87.2012L255.807 64.9578L255.297 65.0458L268.049 70.0095L268.407 66.9561L249.835 51.1011L238.9 47.3346L237.264 41.9859Z" fill="#FFE600"/>
<path d="M127.172 160.01L112.358 173.96L106.362 167.809L78.5272 140.948L74.5998 134.808L88.5393 118.301L110.323 115.48L109.438 150.728L120.434 155.087L127.172 160.01Z" fill="#FFE600"/>
<path d="M228.563 169.423L213.984 164.789L224.687 142.086L203.564 162.379L192.498 157.846L193.947 152.531L200.008 137.787L205.17 117.883L208.241 113.156L224.23 116.07L212.059 140.444L233.111 119.158L243.912 124.437L242.907 129.185L231.671 163.471L228.563 169.423Z" fill="#FFE600"/>
<path d="M106.05 269.215L107.87 284.487L106.744 285.128L98.9882 278.517L75.9659 285.13L73.4724 277.761L65.6792 247.417L63.3505 240.082L76.2181 238.787L89.4837 276.667L81.5213 237.262L92.6108 233.69L94.1666 239.496L106.05 269.215Z" fill="#FFE600"/>
<path d="M193.077 285.73L176.657 280.451L178.381 272.6L192.736 240.302L194.277 232.658L220.261 241.592L218.958 248.449L214.95 282.952L212.859 289.967L196.511 285.941L199.653 266.81L193.077 285.73ZM201.064 249.357L201.675 259.209L206.829 250.902L205.824 243.78L201.064 249.357Z" fill="#FFE600"/>
<path d="M24.8894 66.3662L30.2805 41.2128L32.3843 35.9225L43.1875 39.4728L37.2902 54.1646L38.0342 54.6191L49.1152 40.9512L56.9614 42.048L55.3441 45.7778L44.2941 57.0708L46.8622 67.0809L49.9429 62.5009L56.1658 64.6291L44.3452 77.3918L39.3845 58.0343L37.0506 56.9188L35.5015 75.065L23.8953 70.7414L24.8894 66.3662Z" fill="#FDB157"/>
<path d="M257.392 55.1988L265.899 50.1253L278.995 62.1453L270.101 48.5781L280.218 40.5247L282.83 46.5111L284.556 65.0635L286.097 85.7412L269.917 70.7161L269.573 70.7755L278.187 74.1284L278.428 72.0658L265.883 61.356L258.496 58.8118L257.392 55.1988Z" fill="#FDB157"/>
<path d="M111.915 154.271L101.909 163.695L97.8584 159.54L79.0562 141.395L76.4033 137.248L85.8192 126.098L100.534 124.192L99.9358 148.002L107.364 150.946L111.915 154.271Z" fill="#FDB157"/>
<path d="M214.368 167.256L204.519 164.125L211.749 148.79L197.481 162.498L190.006 159.435L190.985 155.845L195.079 145.886L198.566 132.441L200.64 129.248L211.44 131.216L203.219 147.68L217.439 133.302L224.736 136.868L224.057 140.075L216.467 163.235L214.368 167.256Z" fill="#FDB157"/>
<path d="M84.0884 261.72L85.3181 272.036L84.5572 272.469L79.3183 268.003L63.767 272.47L62.0827 267.493L56.8185 246.995L55.2455 242.041L63.9374 241.166L72.8981 266.754L67.5196 240.136L75.0105 237.723L76.0614 241.645L84.0884 261.72Z" fill="#FDB157"/>
<path d="M212.614 285.033L201.522 281.467L202.687 276.164L212.383 254.347L213.424 249.183L230.976 255.218L230.096 259.85L227.389 283.156L225.976 287.895L214.934 285.175L217.056 272.252L212.614 285.033ZM218.009 260.463L218.422 267.118L221.903 261.507L221.224 256.696L218.009 260.463Z" fill="#FDB157"/>
</g>
<defs>
<clipPath id="clip0_1_18">
<rect width="300" height="300" fill="white"/>
</clipPath>
</defs>
</svg>
