<svg width="300" height="300" viewBox="0 0 300 300" fill="none" xmlns="http://www.w3.org/2000/svg">
<g clip-path="url(#clip0_1_19)">
<rect width="300" height="300" fill="white"/>
<rect x="90.0316" y="210.034" width="90.2009" height="90.2009" transform="rotate(-15 90.0316 210.034)" fill="#31CFF4"/>
<path fill-rule="evenodd" clip-rule="evenodd" d="M180.14 198.684C177.534 204.064 174.508 209.631 171.527 212.949C171.486 212.996 171.443 213.045 171.396 213.097C170.605 213.981 169.06 215.709 168.419 218.374C168.407 218.425 168.391 218.49 168.371 218.566C168.101 219.624 167.225 223.053 168.617 226.165C171.323 232.23 181.352 234.443 185.202 231.272C186.542 230.17 187.238 228.652 187.778 227.188L191.044 239.376C189.801 242.085 188.422 247.319 188.307 248.612C188.278 249.092 188.107 249.552 187.818 249.936C187.52 250.292 187.124 250.554 186.679 250.688C186.469 250.744 186.252 250.771 186.034 250.767C184.916 250.713 183.955 248.644 183.88 248.48C183.076 246.705 182.807 244.972 182.576 243.488C182.427 242.531 182.295 241.677 182.045 240.981C181.13 238.401 178.571 237.915 175.06 237.248C171.558 236.582 167.109 235.737 162.399 232.455C162.213 232.326 162.018 232.187 161.816 232.042C160.038 230.774 157.672 229.086 155.333 229.725C154.965 229.824 154.583 229.985 154.109 230.185C153.352 230.504 152.363 230.922 150.828 231.339C150.227 231.5 149.72 231.599 149.324 231.676C148.99 231.742 148.735 231.791 148.571 231.85C147.628 232.193 146.879 232.66 146.008 233.203C144.731 233.998 143.192 234.957 140.398 235.929C137.359 236.986 135.144 237.253 133.433 237.46C131.294 237.719 129.943 237.882 128.754 239.375C128.754 239.375 126.239 242.564 124.056 244.168C123.383 244.664 123.041 244.801 122.764 244.911C122.497 245.018 122.291 245.101 121.908 245.458C120.507 246.762 119.719 251.994 119.719 251.994C119.358 254.351 118.869 255.714 118.55 256.604C118.215 257.537 118.067 257.952 118.446 258.446C119.021 259.198 120.055 259.139 121.373 259.064C122.953 258.973 124.942 258.859 127.036 260.093C127.652 260.456 129.113 261.324 129.057 262.5C128.996 262.947 128.809 263.368 128.519 263.713C128.229 264.059 127.848 264.315 127.418 264.454C127.169 264.524 126.908 264.547 126.65 264.521L126.643 264.521C126.062 264.483 123.115 264.292 122.688 265.073C122.518 265.387 122.811 265.759 123.287 266.364C123.826 267.05 124.6 268.034 125.207 269.571C126.017 271.628 125.633 272.397 125.394 272.706C125.225 272.909 125.015 273.075 124.779 273.193C124.751 273.247 124.711 273.294 124.661 273.331C124.612 273.367 124.555 273.392 124.495 273.403C123.903 273.532 123.285 273.466 122.733 273.214C122.019 272.877 120.925 272.067 119.64 271.117C117.308 269.393 114.347 267.203 111.891 266.528C109.656 265.916 107.808 266.547 106.192 267.099C105.844 267.218 105.506 267.333 105.178 267.432L103.481 261.098C103.58 261.078 103.682 261.058 103.784 261.037C105.448 260.708 107.488 260.303 109.501 258.811C111.104 257.624 112.194 254.889 114.377 249.415L114.393 249.374C115.037 247.759 115.817 245.549 114.961 244.822C114.861 244.744 114.748 244.683 114.627 244.644C113.219 244.083 112.255 242.528 111.964 242.06C111.938 242.017 111.917 241.984 111.902 241.961C110.735 240.151 104.275 239.432 101.284 239.099C100.945 239.061 100.65 239.029 100.413 239C100.037 238.954 98.9471 238.794 97.4127 238.45L89.8138 210.091L176.941 186.746L180.14 198.684Z" fill="#FFE600"/>
<path d="M200.416 226.386C198.444 226.391 195.687 227.59 195.303 227.094C195.269 227.047 195.238 226.999 195.211 226.949C195.144 226.622 195.127 226.287 195.16 225.956C195.189 225.503 195.152 225.049 195.049 224.607C194.87 223.572 192.635 222.377 191.056 222.648C188.024 223.17 188.752 228.608 185.348 231.399C181.512 234.583 171.465 232.354 168.743 226.3C168.47 225.687 168.27 225.044 168.149 224.384C165.899 226.006 163.568 227.544 161.308 229.16C160.798 229.595 160.31 230.06 159.843 230.555L159.775 230.668L159.746 230.778C160.764 231.355 161.703 232.07 162.477 232.619C171.922 239.202 180.3 236.004 182.151 241.159C182.789 242.939 182.664 245.746 183.989 248.67C184.066 248.838 185.035 250.905 186.147 250.96C186.364 250.964 186.582 250.938 186.792 250.881C187.238 250.747 187.634 250.485 187.932 250.128C188.223 249.744 188.393 249.283 188.423 248.802C188.551 247.426 190.135 241.449 191.442 238.982C194.936 232.386 205.236 231.336 204.776 228.632C204.629 227.418 202.228 226.406 200.416 226.386Z" fill="#FDB157"/>
<path d="M118.485 258.63C117.742 257.661 119.02 257.001 119.76 252.167C119.76 252.167 120.548 246.927 121.952 245.621C122.732 244.893 122.764 245.309 124.102 244.329C124.512 244.026 124.904 243.701 125.278 243.356C121.507 243.271 117.735 243.396 113.978 243.73C113.906 243.911 113.831 244.083 113.748 244.24C114.03 244.461 114.34 244.643 114.671 244.78C114.792 244.819 114.905 244.88 115.005 244.959C115.846 245.691 115.065 247.904 114.437 249.518C112.241 255.028 111.147 257.777 109.538 258.969C105.431 262.007 101.241 260.548 100.315 263.087C99.7927 264.475 100.591 266.351 101.798 267.284C104.446 269.335 107.393 265.454 111.932 266.699C115.747 267.748 120.777 272.444 122.79 273.395C123.342 273.648 123.962 273.714 124.555 273.584C124.615 273.574 124.672 273.549 124.721 273.512C124.77 273.476 124.811 273.429 124.838 273.374C125.076 273.256 125.286 273.09 125.455 272.887C125.694 272.577 126.066 271.828 125.267 269.747C124.123 266.846 122.383 265.912 122.745 265.242C123.174 264.456 126.165 264.648 126.712 264.689C126.971 264.715 127.232 264.692 127.482 264.621C127.912 264.483 128.294 264.226 128.584 263.88C128.875 263.534 129.062 263.112 129.123 262.665C129.178 261.483 127.715 260.617 127.099 260.254C123.253 258.023 119.755 260.298 118.485 258.63Z" fill="#FC565D"/>
<rect x="84.5078" y="23.2528" width="89.8421" height="89.8421" transform="rotate(-15 84.5078 23.2528)" fill="#FFE600"/>
<path fill-rule="evenodd" clip-rule="evenodd" d="M189.715 88.4466L123.887 106.085C124.106 102.08 124.862 98.7361 126.558 96.3853C127.085 95.6959 129.328 92.7458 128.344 90.5889C127.67 89.1086 125.881 88.8922 123.684 88.6265C121.87 88.407 119.777 88.1539 117.805 87.127C110.447 83.3179 106.768 69.8525 111.282 63.6599C113.426 60.7116 116.91 60.1207 119.864 59.6198C122.394 59.1908 124.534 58.8278 125.111 57.1068C125.934 54.6276 122.66 51.9699 118.823 48.8561C114.122 45.0409 108.578 40.5409 108.694 34.8456C108.815 28.5202 115.91 21.4151 123.357 21.4914C129.682 21.555 135.246 26.6703 136.942 31.5907C137.423 32.9896 137.617 34.4457 137.768 35.585C137.931 36.8079 138.045 37.6657 138.414 37.6957C138.739 37.7221 138.947 37.0569 139.253 36.082C139.619 34.9151 140.125 33.3045 141.134 31.9053C143.881 28.0727 149.723 26.7566 153.214 27.2449C165.54 28.9253 176.959 52.5684 170.725 65.8139C170.016 67.326 169.082 68.6904 168.225 69.9429C166.645 72.2514 165.325 74.1799 166.151 75.9523C166.846 77.4474 168.466 77.6075 170.834 77.8416C172.477 78.0039 174.479 78.2018 176.782 78.9056C182.411 80.6313 185.617 84.0647 188.628 87.29C188.992 87.6797 189.353 88.0664 189.715 88.4466Z" fill="#FC565D"/>
<rect x="235.042" y="87.1411" width="90.2008" height="90.2008" transform="rotate(45 235.042 87.1411)" fill="#FDB157"/>
<mask id="mask0_1_19" style="mask-type:alpha" maskUnits="userSpaceOnUse" x="170" y="87" width="129" height="128">
<rect x="234.779" y="87.2946" width="90.2008" height="90.2008" transform="rotate(45 234.779 87.2946)" fill="#FFE600"/>
</mask>
<g mask="url(#mask0_1_19)">
<path fill-rule="evenodd" clip-rule="evenodd" d="M204.719 184.642L158.325 138.247L222.106 74.4659L241.011 93.3704C241.08 93.6318 241.147 93.8991 241.21 94.1725C242.716 100.719 241.152 105.845 239.683 110.66C238.116 115.797 236.657 120.581 239.148 126.36C239.315 126.749 239.542 127.176 239.542 127.176C240.451 129.015 241.513 130.774 242.716 132.435L242.752 132.487C244.32 134.727 250.919 144.159 248.453 147.781C247.266 149.556 244.148 149.5 237.907 149.383C234.639 149.308 232.872 149.004 231.606 148.787C230.352 148.572 229.591 148.441 228.348 148.7C223.595 149.674 221.138 154.585 217.445 161.967C216.932 162.994 216.394 164.069 215.823 165.187C214.042 168.706 212.013 172.088 209.985 175.47C208.17 178.496 206.355 181.521 204.719 184.642Z" fill="#31CFF4"/>
</g>
<rect x="24.3457" y="87.0865" width="90.2009" height="90.2009" transform="rotate(15 24.3457 87.0865)" fill="#FC565D"/>
<path fill-rule="evenodd" clip-rule="evenodd" d="M60.6578 190.197C60.427 189.495 60.2237 188.78 60.0521 188.054C60.0272 187.948 60 187.83 59.9705 187.701C59.574 185.976 58.7449 182.368 57.1844 182.216C56.6023 182.157 56.1704 182.604 55.6596 183.131C55.0755 183.735 54.3881 184.445 53.2547 184.629C52.4127 184.717 51.5625 184.576 50.794 184.221C50.0255 183.866 49.3671 183.31 48.8885 182.612C47.9748 181.193 48.2727 179.585 48.5132 178.287C48.7046 177.254 48.8596 176.417 48.3399 176.027C47.8031 175.624 46.9938 176.11 45.903 176.765C44.61 177.541 42.9214 178.555 40.822 178.607C36.5102 178.693 33.2774 174.58 32.7756 173.899C29.3816 169.416 29.9194 163.464 30.1057 161.416C30.2462 159.873 30.5176 158.658 30.7532 157.604C31.1744 155.718 31.4807 154.347 30.7177 152.539C30.1827 151.273 29.5198 150.73 28.6487 150.016C28.1054 149.572 27.4813 149.06 26.7567 148.266C26.4959 147.982 20.658 141.415 22.583 134.497C23.9772 129.484 28.6963 126.985 29.5539 126.531L29.5586 126.529C31.8988 125.297 33.572 125.254 34.9541 125.218C36.191 125.187 37.1947 125.161 38.2347 124.294C40.5921 122.335 39.9668 118.71 39.2764 114.709C38.5491 110.493 37.7498 105.86 40.2894 102.316C43.2872 98.121 49.6681 97.4211 53.4871 97.8981C63.4446 99.1521 71.07 110.405 72.7946 120.337C73.6505 125.276 72.9039 129.091 72.2641 132.362C71.5097 136.217 70.9037 139.315 73.2474 142.6C77.1616 148.095 85.7146 149.065 86.3433 147.957C86.5039 147.67 86.1321 147.264 85.5866 146.667C84.704 145.701 83.3666 144.238 83.094 141.981C82.9254 140.175 83.3692 138.364 84.3539 136.841C86.1299 134.024 89.1596 132.988 90.4178 132.579C94.2827 131.327 99.7905 131.299 105.848 131.431L88.129 197.558L60.6578 190.197Z" fill="#FDB157"/>
</g>
<rect x="0.75" y="0.75" width="298.5" height="298.5" stroke="black" stroke-width="1.5"/>
<defs>
<clipPath id="clip0_1_19">
<rect width="300" height="300" fill="white"/>
</clipPath>
</defs>
</svg>
