<svg width="300" height="300" viewBox="0 0 300 300" fill="none" xmlns="http://www.w3.org/2000/svg">
<g clip-path="url(#clip0_1_20)">
<rect width="300" height="300" fill="#31CFF4"/>
<path fill-rule="evenodd" clip-rule="evenodd" d="M225.311 135.189L225.117 135.306C224.986 134.949 225.117 134.693 224.738 134.259C223.823 134.694 223.057 135.39 222.534 136.26C222.882 137.035 223.571 136.461 223.431 137.299C221.691 138.353 220.988 139.765 219.247 140.827V140.649L219.077 140.595L218.652 139.904C218.504 139.933 218.37 140.012 218.273 140.129C218.177 140.246 218.125 140.393 218.125 140.544C218.125 140.696 218.177 140.842 218.273 140.959C218.37 141.076 218.504 141.155 218.652 141.184L218.799 141.417L218.985 141.3C218.08 143.03 216.154 143.867 215.118 145.294C214.723 145.814 214.793 146.845 214.476 147.272C212.829 149.598 210.3 150.467 207.949 152.576C205.164 155.065 203.749 159.059 200.432 161.021C196.433 163.348 192.033 162.627 187.617 165.1L187.57 164.806L187.338 164.635C187.269 164.488 187.199 164.34 187.385 164.286C186.851 163.557 185.931 164.558 186.712 165.333C186.844 165.263 186.967 165.178 187.099 165.1L187.145 165.387L187.377 165.566C186.178 166.341 183.626 165.659 184.284 167.807C183.68 168.295 183.356 166.969 182.737 167.807C182.327 170.343 178.584 169.916 178.267 172.157C177.687 172.537 177.277 171.762 176.643 172.514C175.985 172.902 177.076 173.887 176.395 174.259C173.843 173.018 174.694 178.199 172.745 177.788C172.552 178.315 173.866 178.78 173.201 179.408C171.794 178.4 170.108 181.208 169.335 182.13C169.652 183.325 170.526 182.557 170.379 183.402C169.868 184.798 169.095 183.301 168.182 184.116C167.78 184.41 168.128 184.953 168.499 185.512C166.697 186.287 165.073 188.179 162.475 187.311C162.104 187.799 162.351 189.048 161.23 188.714C160 188.125 162.196 187.427 161.052 186.279C158.353 186.59 158.538 189.281 158.732 191.188C157.842 191.708 157.108 191.15 156.195 191.793C156.373 192.786 157.123 192.925 157.278 193.996C156.613 196.152 157.804 198.943 156.133 200.758C157.796 201.96 156.172 203.984 157.185 205.52C158.198 207.055 160.797 206.729 162.9 207.071C165.004 207.412 167.123 207.567 168.7 207.947C170.278 208.327 172.382 209.413 173.89 209.498C179.636 209.971 187.957 205.938 193.695 203.03C196.016 201.875 196.433 199.928 197.787 198.92C200.687 196.687 204.871 196.508 207.438 196.159C208.15 198.486 205.721 199.261 204.492 200.812C203.912 201.588 203.997 202.798 203.417 203.387C201.352 205.481 199.449 204.891 196.456 204.504C196.704 204.341 196.302 203.728 196.031 203.806C194.778 204.783 193.649 204.992 192.443 205.698C192.608 206.035 192.88 206.307 193.216 206.473C192.443 206.737 191.577 207.365 190.826 207.311C191.267 207.094 191.321 206.745 190.981 206.264C190.014 206.877 189.14 206.838 188.158 207.691C188.042 208.319 188.846 208.242 188.328 208.847C187.748 208.73 188.073 207.668 187.246 207.924C185.745 208.699 185.32 211.08 182.984 209.599C182.211 209.762 182.551 210.304 182.984 210.871C182.08 211.08 181.291 210.584 180.37 210.871C180.36 211.149 180.284 211.421 180.15 211.664C180.016 211.908 179.826 212.117 179.597 212.274C177.942 212.856 175.73 212.011 175.344 213.942C174.895 214.608 174.74 213.282 174.292 213.942C173.727 214.36 173.944 215.035 173.704 215.57C171.384 215.492 170.959 218.269 169.474 219.448C167.989 220.626 165.924 220.921 164.4 221.937C164.702 223.015 163.233 223.488 163.001 224.395C162.39 224.263 161.33 223.232 161.09 224.294C160.479 224.915 162.475 225.419 161.415 225.683C159.026 226.016 158.26 229.638 155.275 229.467C154.78 229.847 156.009 230.816 155.213 231.096C154.641 231.638 152.893 231.701 151.679 232.647C150.918 232.188 150.044 231.954 149.157 231.972C147.502 232.057 142.607 234.298 143.148 235.981C144.069 236.555 145.159 235.857 146.01 236.757C145.731 237.152 145.878 237.695 146.149 238.308C142.901 239.711 142.708 242.185 140.279 243.829C139.73 247.242 144.695 249.312 147.054 248.886C149.142 248.513 149.784 246.559 150.998 245.784C151.969 245.28 153.094 245.16 154.149 245.447C155.204 245.734 156.113 246.408 156.698 247.335C158.84 251.406 152.707 250.925 151.13 252.042C149.993 252.817 150.062 254.655 147.58 254.865C147.193 257.028 144.974 258.665 145.43 261.286C146.288 266.249 148.825 265.699 152.259 266.001C155.19 266.257 158.159 266.195 160.889 266.738C164.586 267.459 168.012 268.979 171.407 268.847C172.753 268.793 174.137 267.932 175.9 267.994C177.572 268.28 179.158 268.94 180.541 269.925C179.179 270.452 178.012 269.708 176.581 270.778C176.318 272.632 174.477 276.013 172.946 276.517C171.964 276.843 170.525 275.741 169.52 276.075C168.236 276.462 167.973 278.068 167.154 279.13C168.855 285.939 174.694 286.04 179.156 287.986C180.131 288.413 181.066 289.359 182.049 289.708C186.89 291.43 191.847 289.848 197.346 290.142C201.213 290.359 205.327 290.515 207.516 289.933C208.645 289.638 209.248 288.77 210.145 288.638C210.694 288.545 211.483 289.103 212.334 289.189C214.429 289.437 215.682 289.685 217.484 289.848C219.619 290.034 222.48 290.243 224.112 289.902C224.576 289.801 225.543 288.902 226.741 288.599C227.337 288.444 228.992 288.746 230.608 288.444C232.224 288.142 233.555 287.475 234.576 287.591C236.988 287.87 238.535 289.778 237.166 291.406C235.31 293.632 229.99 292.748 228.621 292.531C226.215 292.151 224.104 292.678 222.179 292.36L222.032 292.283L221.8 292.12L222.372 291.755C221.73 291.251 220.377 291.042 220.09 291.903C220.176 292.058 220.276 292.213 220.369 292.36L220.508 292.593L220.655 292.826C214.762 294.439 209.055 295.036 203.641 293.446L203.834 293.33L203.695 293.097C203.704 292.883 203.648 292.671 203.534 292.49C203.42 292.308 203.254 292.166 203.058 292.082C202.861 291.998 202.644 291.976 202.434 292.018C202.225 292.061 202.033 292.167 201.885 292.322C202.054 292.656 202.325 292.928 202.659 293.097L202.465 293.221L202.605 293.446C201.978 293.756 201.476 293.26 200.888 293.229V292.942L200.648 292.771L201.027 292.531L200.609 291.841C200.416 291.949 200.223 292.073 200.037 292.19C200.169 292.422 200.323 292.655 200.455 292.888H200.2L200.076 293.112C199.917 293.213 199.734 293.267 199.546 293.267C199.358 293.267 199.175 293.213 199.016 293.112V292.818L198.776 292.647C198.908 292.57 199.039 292.492 199.163 292.407C197.663 291.531 196 291.732 194.299 292.221C194.438 292.453 194.577 292.686 194.724 292.919H194.461L194.345 293.151C193.038 293.741 191.963 292.671 190.664 293.151V292.973V292.795C190.308 292.019 189.891 291.864 189.326 292.345L189.759 293.035L189.55 293.058V293.237C188.259 293.322 187.192 291.88 185.939 291.639C184.214 292.128 185.304 293.578 183.735 293.64C183.696 292.725 182.118 291.802 182.497 293.764C182.095 291.717 181.206 293.857 180.177 292.624C179.442 292.74 178.971 293.601 177.988 293.345C178.398 293.345 177.625 292.058 177.416 292.415C176.929 293.462 175.908 292.919 175.026 293.252C174.446 292.624 175.514 292.562 174.709 291.856C173.371 293.648 171.91 291.903 169.884 292.632C169.188 292.027 170.394 292.073 169.698 291.468C167.811 291.825 165.901 292.314 164.748 290.693C163.975 292.67 162.428 294.408 164.609 296.517C165.429 297.292 170.796 297.804 172.026 298.301L171.84 298.425L171.979 298.657C171.678 298.921 171.778 299.324 172.157 299.821C172.306 299.792 172.44 299.713 172.536 299.596C172.632 299.479 172.685 299.332 172.685 299.181C172.685 299.029 172.632 298.883 172.536 298.766C172.44 298.649 172.306 298.57 172.157 298.541L172.358 298.417L172.211 298.192C175.962 297.223 179.814 295.555 183.139 297.51C182.984 298.999 182.443 300.216 180.587 300.674C180.046 300.046 181.36 299.123 180.316 298.929C178.638 298.153 180.015 300.17 179.017 300.689C177.532 300.813 178.677 299.286 177.548 298.719C176.89 299.177 178.182 300.27 177.432 300.705C176.921 300.27 176.241 300.906 175.769 300.139C174.88 299.363 176.867 299.534 175.97 298.735C174.802 300.875 171.902 300.681 169.567 300.767C169.28 300.976 169.775 301.457 169.273 301.589C167.254 300.813 165.769 303.016 163.921 302.364C163.256 302.845 163.387 303.14 162.583 303.186C161.921 303.106 161.295 302.837 160.781 302.411C158.546 305.001 156.914 301.852 153.898 304.109C153.249 304.218 154.169 303.225 153.334 303.186C152.614 304.249 151.655 303.729 150.658 303.551C150.882 300.798 159.165 298.851 156.69 295.703C156.095 294.927 155.197 294.927 154.061 295.703L153.921 295.47L153.728 295.594C153.597 295.237 153.728 294.982 153.357 294.547L152.583 295.02C152.752 295.355 153.023 295.627 153.357 295.796L153.156 295.912L153.303 296.145C153.133 296.703 152.583 298.083 152.003 297.897C152.359 297.579 151.369 296.781 151.052 297.207C150.333 297.331 151.052 297.936 151.238 298.378C150.627 298.913 150.256 297.843 149.691 298.378C148.717 299.433 148.082 301.62 147.371 302.357C147.185 302.558 146.42 302.473 146.273 302.721C145.809 303.496 146.188 304.427 145.592 305.047C145.208 305.117 144.836 305.239 144.486 305.412C143.365 305.955 143.001 307.521 141.47 306.963C141.54 308.452 141.277 308.661 139.784 308.956C140.271 310.166 139.784 311.027 139.521 311.981C139.676 315.494 143.326 318.293 145.399 322.062C145.698 322.824 146.058 323.56 146.474 324.264C148.113 326.149 150.812 326.095 151.934 327.591L151.74 327.708L151.88 327.948C149.359 329.778 153.627 333.695 154.687 335.129C155.746 336.564 156.125 338.41 157.007 339.418C158.19 340.713 160.394 340.915 162.568 342.047C163.155 342.365 163.581 343.055 164.114 343.311C167.417 344.862 171.075 344.086 172.954 347.413C181.345 349.36 189.782 351.019 197.702 356.394C198.343 357.107 197.957 357.456 198.475 358.123C199.898 357.549 201.05 358.844 202.226 359.953L202.187 360.24L202.319 360.542C200.207 361.054 198.684 357.487 196.518 358.379L197.508 360H197.284L197.16 360.224C193.519 358.91 190.019 357.231 186.712 355.215L186.905 355.091L186.758 354.858C188.293 354.833 189.805 355.224 191.136 355.99C191.259 355.843 191.515 355.742 191.383 355.509C189.937 353.571 186.789 352.756 185.97 354.4L186.256 354.858L186.093 354.804V354.982C183.773 355.052 181.701 353.105 179.435 352.718L179.62 352.594L179.481 352.361L180.061 352.012C179.659 350.624 177.401 350.934 177.741 352.144L177.548 352.268L177.695 352.501C177.447 352.578 177.238 352.431 177.029 352.268L176.983 351.981L176.743 351.803C176.875 351.725 177.006 351.655 177.13 351.57C176.962 351.225 176.692 350.941 176.357 350.756L176.55 350.647L176.403 350.422C176.272 350.189 176.403 350.042 176.318 349.833C174.532 349.941 173.634 348.282 171.979 349.647C170.371 347.917 168.383 348.693 166.651 347.824C166.233 347.987 166.458 348.367 166.357 348.639L166.218 348.406L166.025 348.53C165.182 349.305 164.733 347.305 164.261 348.669C164.586 349.654 165.197 348.584 165.537 349.445C163.179 350.453 159.745 348.491 157.224 346.622L157.409 346.498L157.27 346.265C157.469 346.295 157.672 346.278 157.862 346.214C158.053 346.151 158.226 346.044 158.368 345.901H158.616L158.739 345.668C159.165 345.963 159.582 346.25 160.116 345.761C159.722 344.932 159.258 344.49 158.647 345.087H158.384L158.26 345.312C157.595 344.714 156.914 344.187 156.071 344.761C156.226 345.312 156.033 346.048 156.729 346.265L156.535 346.39L156.675 346.622C155.739 346.622 153.867 346.785 153.674 345.583C153.89 345.901 154.316 345.529 153.929 345.125C152.993 345.219 151.547 344.637 150.263 343.877C150.263 342.954 152.351 343.52 151.895 342.233C150.665 341.101 149.242 341.24 147.905 340.876C147.454 341.831 146.793 342.672 145.971 343.334C145.152 343.996 144.253 344.551 143.295 344.986C142.259 346.591 144.231 349.228 142.808 350.694V350.872V351.05C141.973 350.507 141.694 352.159 142.46 352.214C142.569 352.151 142.664 352.067 142.739 351.968C142.815 351.868 142.87 351.754 142.901 351.632L143.04 351.865L143.233 351.741C143.365 352.097 143.233 352.353 143.605 352.787C143.868 353.385 144.378 352.12 144.602 353.129C147.982 360.473 156.164 359.511 161.005 365.312C162.786 367.378 164.218 369.722 165.243 372.253C162.807 370.57 160.464 368.259 157.734 368.6C159.521 371.655 163.148 372.377 165.468 375.285C164.315 374.889 164.184 374.703 163.457 375.882C161.864 373.23 156.636 374.331 154.71 372.361C152.491 370.135 148.709 368.398 146.891 366.033C146.42 365.42 146.234 364.389 145.809 363.831C144.262 361.783 141.942 360.961 140.179 359.333C139.661 358.86 139.312 357.976 138.856 357.596C138.253 357.122 137.526 357.247 136.907 356.58C134.487 353.966 133.814 351.492 131.494 349.049C129.847 347.312 128.052 347.134 126.653 346.304C125.663 345.723 125.245 344.753 124.472 344.459C121.563 343.44 118.495 342.956 115.416 343.032C112.91 343.101 109.368 344.048 107.558 341.822C106.506 340.519 106.491 337.944 107.226 336.944C108.2 335.618 110.567 336.548 112.477 335.61C115.083 334.33 114.851 332.872 114.998 330.236C111.131 325.66 106.12 320.503 101.271 323.722C102.748 327.165 101.82 329.786 103.049 333.136C102.276 337.153 100.838 340.938 103.281 346.048C102.671 347.871 103.243 350.081 101.944 351.663C102.833 353.369 101.889 354.393 101.727 355.61C101.665 356.021 102.052 356.533 102.044 357.014C102.044 357.991 101.217 358.829 101.17 359.457C101.108 360.356 101.441 362.978 101.944 363.761C102.833 365.133 105.47 365.529 106.793 366.506C107.102 366.754 107.21 367.39 107.496 367.677C108.362 368.522 109.816 369.034 110.667 369.848C112.57 371.617 113.977 374.501 116.259 374.688C116.798 374.337 117.434 374.166 118.076 374.199C119.182 375.595 120.187 377.759 119.414 379.426C118.973 378.433 118.277 379.224 117.651 379.566C116.738 378.612 115.748 378.216 114.557 379.24C114.882 381.21 117.527 384.281 119.7 385.948C120.961 386.917 123.474 387.282 123.93 388.119C124.387 388.957 123.25 390.012 123.721 390.803C121.811 389.887 120.118 387.46 117.968 388.282C118.927 390.012 117.906 391.454 118.648 393.3C120.149 397.045 122.144 397.348 124.742 399.395C127.341 401.442 128.81 403.622 130.659 404.358C134.479 405.909 139.266 405.188 142.615 406.22C142.8 404.195 140.79 404.219 139.521 403.335C137.681 402.047 135.755 399.511 134.262 398.627C136.954 398.162 139.003 402.063 141.578 402.389C142.352 404.521 143.303 403.459 143.798 405.157C146.273 404.94 148.214 408.476 150.441 409.996C149.768 416.666 156.458 419.612 160.379 424.576C165.089 427.809 171.028 429.058 174.586 436.208L174.454 435.983L174.253 436.1C174.149 435.977 174.004 435.899 173.845 435.879C173.686 435.858 173.525 435.899 173.395 435.991L174.106 437.147C174.302 437.038 174.495 436.922 174.686 436.798V436.976L174.856 437.03C175.075 437.553 175.231 438.099 175.32 438.659C173.681 442.42 170.796 443.312 167.324 441.986C162.761 440.272 155.94 435.464 152.947 432.68C149.32 432.788 143.984 430.842 139.893 431.129C136.536 431.4 132.685 433.145 133.783 437.123C134.247 438.783 135.392 439.62 135.523 440.83C135.482 441.42 135.397 442.006 135.268 442.583C133.845 446.716 128.648 445.778 125.701 445.925C123.76 446.018 121.834 446.755 120.164 446.778C119.692 446.778 119.12 446.391 118.617 446.453C116.119 446.809 114.147 447.655 112.028 447.329C110.28 446.755 109.29 444.746 107.566 444.351C106.839 444.173 105.741 444.84 104.898 444.716C103.691 444.553 102.802 443.32 101.851 444.048C101.016 442.637 99.1594 442.583 97.6668 441.52C97.2337 441.21 97.11 440.535 96.6305 440.264C96.035 439.892 95.2462 440.055 94.6352 439.566C93.6144 438.791 93.0266 437.162 92.1373 436.332C89.6006 434.006 87.3501 434.595 84.5583 435.557C84.5583 436.875 84.7594 438.217 86.1514 439.031C86.0045 441.598 88.3787 443.296 89.3377 446.011C90.4281 445.282 91.1551 446.6 91.5109 447.864C91.6037 447.6 91.8898 446.879 92.2301 447.74C94.3259 448.143 95.5401 450.656 97.4348 452.819C99.1362 454.75 101.51 456.022 102.887 457.41C105.122 459.69 104.697 461.745 106.027 463.444C104.759 463.335 105.687 464.692 106.027 465.662C106.8 466.205 106.228 464.289 106.932 465.414C107.844 466.336 106.769 466.585 107.705 467.507C108.223 466.662 108.084 466.554 108.95 467.368L108.757 467.492L108.896 467.725C108.828 467.76 108.764 467.802 108.703 467.849C108.571 467.911 108.448 467.996 108.316 468.074C108.467 468.324 108.684 468.528 108.942 468.663L109.321 468.415L109.507 468.291L109.368 468.066C109.863 467.903 110.141 469.283 110.597 469.214L110.412 469.338L110.551 469.57C110.025 469.896 110.76 470.943 111.201 471.075L111.394 470.958V471.129L111.556 471.183C112.059 472.331 113.768 473.727 114.549 473.51C113.273 474.285 116.096 475.681 114.859 476.185C112.724 476.767 110.992 473.37 109.275 471.346C106.251 467.748 104.264 465.142 100.954 462.459C98.9197 460.815 97.0404 460.016 95.687 459.008C92.7792 456.875 90.869 453.998 91.6423 451.959C89.3222 450.074 87.6982 447.042 85.6874 444.801C85.2157 444.258 84.5583 444.08 84.1407 443.521C83.5452 442.746 83.3673 441.644 82.7796 440.861C82.5707 440.59 81.7355 440.303 81.4958 440.086C78.8277 437.379 77.0644 433.696 74.6515 431.873C74.1179 431.485 73.3832 431.509 72.8495 431.098C72.3159 430.687 72.0066 429.795 71.5194 429.361C70.8852 428.787 69.7329 428.228 68.8203 427.523C66.0594 425.39 65.3402 424.94 62.5406 425.025C60.7541 425.025 58.929 425.568 57.2972 425.025C54.8069 424.25 53.9563 422.97 51.3191 421.714C48.7283 416.286 46.5474 422.784 44.6295 423.265C44.9543 423.878 44.9001 424.335 44.4207 424.661C35.6275 430.299 27.7469 429.678 21.5368 417.426C21.9622 415.425 21.1501 413.005 20.6011 410.686C16.131 412.571 8.33549 416.185 7.45386 421.985C4.98682 423.451 3.21581 425.413 0.408493 426.01C-1.58679 426.429 -4.23169 425.685 -6.28111 427.561C-7.05447 427.561 -7.71954 426.638 -8.56252 426.406C-9.9391 426.041 -10.929 426.817 -12.2824 426.801C-12.9862 426.801 -13.8291 426.243 -14.4788 426.227C-17.5722 426.227 -20.5419 427.22 -23.3415 425.972C-24.8986 426.372 -26.5127 426.5 -28.1132 426.352C-27.9121 427.903 -28.0591 428.445 -27.2393 429.95C-26.1488 431.966 -25.2285 434.394 -24.3392 436.449C-23.0013 439.551 -20.8126 444.545 -18.6472 446.639C-11.2229 453.82 -2.50708 461.823 3.42464 471.579C4.1516 472.354 2.92966 472.354 3.54836 473.13C3.9041 473.533 4.40678 472.851 4.6852 473.711C4.89401 475.79 6.51035 475.425 6.89703 477.76H6.63409L6.5181 478C4.70068 477.449 4.13611 475.379 2.72859 473.952C1.55307 472.742 -0.264328 472.122 -1.54037 470.85C-2.12041 470.253 -2.41429 469.423 -3.00204 468.88C-4.31677 467.67 -6.09549 466.841 -7.54941 465.305C-7.99023 464.847 -8.25319 463.948 -8.67854 463.459C-9.56792 462.443 -10.7821 461.815 -11.6096 460.807C-15.9172 455.565 -19.2968 449.508 -22.6764 443.095C-24.3469 439.946 -26.3344 437.402 -28.3684 434.192C-30.4023 430.981 -32.6606 425.747 -34.7254 423.777C-36.0479 422.513 -38.1669 422.389 -39.1491 421.714C-41.3068 420.233 -44.4003 414.835 -46.6198 414.223C-48.6615 413.657 -51.5075 415.471 -51.608 417.325C-53.5414 418.79 -55.6991 418.728 -57.6789 419.473C-58.4523 419.76 -58.8699 420.706 -59.6433 421.024C-60.4166 421.342 -61.6231 420.714 -62.4119 420.822C-63.3941 420.931 -64.6547 421.419 -65.8534 421.66C-67.0521 421.9 -68.8386 421.985 -69.4418 422.272C-70.5632 422.815 -72.7673 425.708 -72.1022 427.422C-71.847 428.073 -70.7333 428.779 -69.9677 429.609C-65.7374 434.262 -61.7159 438.48 -59.9913 445.119V445.282V445.452C-60.8342 444.382 -60.842 446.709 -59.8521 445.685L-59.6819 445.739V445.576C-58.2976 447.089 -59.4809 447.724 -58.9086 448.95C-58.1352 448.95 -58.1352 449.834 -57.532 450.322C-56.6426 451.036 -55.5599 450.795 -54.539 451.354C-52.652 452.354 -49.6514 454.789 -48.4295 457.465C-47.718 459.016 -47.0683 463.25 -50.3087 464.343C-51.0048 464.584 -53.8508 464.095 -55.0649 463.459C-57.5784 462.156 -59.7051 459.016 -60.0686 456.992C-60.4708 454.719 -58.6688 452.602 -59.2952 450.454C-60.5558 446.204 -64.5773 445.336 -66.0622 442.831C-67.4156 440.551 -66.6035 436.627 -68.9932 434.138C-70.393 432.703 -73.1153 433.409 -74.7007 432.587C-75.3426 432.23 -75.6596 431.284 -76.2474 430.966C-77.6904 430.349 -79.3162 430.322 -80.7793 430.888C-81.1196 431.051 -81.4367 431.904 -81.6455 432.059C-82.8519 432.998 -85.7443 433.378 -87.3916 434.324C-87.8092 434.572 -87.9948 435.185 -88.3969 435.262C-89.5183 435.51 -91.444 434.378 -92.7355 435.076C-94.8623 432.749 -96.6874 432.23 -99.2937 432.114C-101.25 432.013 -103.64 431.741 -106.006 431.47C-109.247 431.09 -110.979 431.842 -114.266 431.788C-115.519 431.788 -117.584 431.354 -118.079 431.578C-120.345 432.68 -119.556 437.247 -120.963 439.403C-121.431 440.123 -122.055 440.727 -122.788 441.171C-126.377 442.909 -126.501 435.223 -126.779 433.758C-125.109 431.788 -125.735 428.329 -125.085 425.716C-124.706 424.165 -123.902 423.265 -123.956 421.512C-124.065 420.252 -124.295 419.006 -124.645 417.79C-126.122 416.735 -127.869 417.55 -129.509 417.604C-129.196 417.956 -129.013 418.405 -128.991 418.876C-130.135 420.985 -130.321 423.281 -131.528 425.537C-133.283 428.825 -135.835 431.555 -138.233 434.448C-139.137 435.549 -140.676 437.806 -141.218 438.194C-141.636 438.183 -142.055 438.224 -142.463 438.318C-142.672 438.589 -142.424 439.651 -142.71 440.07C-143.143 440.698 -144.443 440.993 -144.876 441.714C-145.309 442.435 -144.721 442.761 -145.27 443.265C-148.279 446.708 -150.784 451.299 -152.656 454.518C-152.532 454.37 -152.548 454.177 -152.741 453.936C-153.916 454.75 -153.097 454.844 -153.143 455.441C-153.065 456.392 -153.203 457.349 -153.545 458.24C-154.156 459.419 -158.804 463.459 -159.585 461.342C-161.07 457.24 -154.504 453.882 -152.006 451.261C-150.506 449.671 -150.173 447.484 -149.152 446.003C-147.722 443.94 -145.842 442.172 -145.054 440.574C-144.675 439.799 -144.837 438.76 -144.505 438.007C-144.087 437.061 -143.143 436.456 -142.579 435.549C-142.262 435.006 -142.262 434.153 -141.945 433.564C-141.272 432.315 -140.027 431.501 -139.393 430.384C-139.045 429.803 -139.199 428.833 -138.89 428.174C-138.004 426.723 -136.99 425.355 -135.858 424.087C-133.964 421.668 -131.589 419.992 -131.365 417.17C-133.554 416.588 -135.495 414.347 -137.482 412.331C-137.32 407.142 -144.791 403.49 -148.395 405.677C-148.58 406.941 -148.975 408.779 -150.614 408.965C-150.374 410.81 -151.728 412.129 -151.511 413.975C-151.612 414.642 -151.937 414.06 -152.47 414.572C-150.15 417.573 -154.079 424.855 -156.438 421.474C-156.94 420.752 -156.832 417.914 -156.306 416.937C-155.069 414.61 -151.558 413.393 -152.246 410.609C-154.301 407.609 -157.457 405.546 -161.024 404.87C-162.198 404.532 -163.428 404.426 -164.643 404.56C-165.347 404.723 -166.043 405.7 -166.963 405.971C-167.589 406.165 -168.224 405.863 -168.726 406.095C-172.036 407.701 -174.998 412.299 -177.697 412.594C-179.097 413.936 -182.152 419.302 -185.903 418.597C-187.211 418.168 -188.314 417.267 -188.996 416.068C-189.723 414.386 -188.153 412.548 -187.094 411.415C-185.794 410.004 -184.627 407.453 -183.227 406.499C-180.752 404.785 -177.094 405.809 -174.859 404.172C-173.776 403.397 -173.537 401.768 -172.825 401.008C-170.853 398.891 -168.293 398.131 -167.589 396.2C-166.948 394.432 -168.185 392.571 -167.729 389.911C-167.332 388.317 -166.454 386.884 -165.215 385.808C-163.545 384.188 -161.959 384.746 -160.575 383.901C-159.663 383.358 -158.928 381.473 -157.915 380.023C-156.77 378.379 -156.368 378.092 -155.981 376.27C-155.27 372.702 -161.085 366.816 -163.676 366.684C-164.558 366.638 -165.107 367.522 -165.733 367.631C-167.309 367.756 -168.893 367.533 -170.374 366.979C-171.317 366.63 -172.322 365.281 -173.738 364.916C-174.788 364.843 -175.843 364.843 -176.893 364.916C-179.089 364.916 -180.837 365.11 -182.477 366.126C-183.614 365.924 -184.658 365.133 -185.91 365.692C-186.951 364.9 -187.657 363.746 -187.89 362.458C-187.225 359.93 -184.735 360.217 -183.181 358.929C-182.299 358.154 -181.904 356.805 -181.487 355.657C-181.069 354.509 -181.116 352.772 -180.791 352.043C-180.551 351.492 -179.909 351.562 -179.778 351.105C-179.553 350.275 -180.041 349.088 -179.569 348.414C-180.404 346.622 -179.569 345.141 -180.381 343.179C-180.945 341.837 -182.291 340.907 -182.833 339.596C-183.374 338.286 -182.577 336.704 -183.467 335.533C-184.944 334.331 -187.983 336.068 -189.955 335.703C-191.378 335.447 -192.685 333.865 -192.964 335.967C-196.668 335.649 -195.578 338.549 -196.057 340.41C-196.158 340.79 -196.83 340.946 -197.062 341.364C-197.596 342.38 -197.542 343.396 -198.137 343.931C-198.918 344.544 -199.826 344.971 -200.794 345.182C-201.762 345.393 -202.766 345.382 -203.729 345.149C-203.505 346.033 -203.002 344.932 -202.785 345.831C-204.572 346.77 -206.451 347.312 -205.879 349.352C-204.696 349.456 -203.561 349.868 -202.587 350.549C-201.613 351.229 -200.833 352.153 -200.326 353.229C-201.099 355.633 -202.36 356.952 -204.966 356.068C-206.304 355.61 -206.675 354.253 -207.719 354.579C-208.903 354.943 -209.506 358.193 -210.534 359.496C-214.332 364.304 -221.13 362.947 -224.989 360.442C-225.757 359.785 -226.357 358.952 -226.736 358.014C-227.896 355.626 -229.969 351.128 -230 349.197C-230 347.576 -229.064 346.614 -228.678 344.877C-228.36 343.435 -228.531 341.775 -227.904 340.914C-226.731 339.487 -225.187 338.413 -223.442 337.812C-221.632 337.208 -218.098 338.743 -216.52 337.037C-215.267 335.688 -216.52 331.042 -214.649 328.863C-213.612 327.661 -212.112 327.56 -211.47 326.273C-210.449 324.171 -210.913 319.891 -210.929 317.657C-211.207 317.192 -211.486 316.727 -211.78 316.261C-211.501 309.39 -209.158 303.21 -207.224 296.874C-204.564 295.641 -205.237 292.702 -202.847 291.942C-201.246 288.506 -199.978 285.815 -197.766 283.411C-197.101 282.682 -196.219 282.573 -195.995 282C-195.098 279.487 -194.882 277.044 -194.448 275.02C-194.015 272.996 -191.355 268.816 -189.669 267.304C-189.182 266.862 -188.3 266.722 -187.944 266.241C-187.071 265.055 -187.651 263.263 -186.993 262.155C-186.322 261.101 -185.42 260.215 -184.356 259.564C-183.629 259.208 -182.809 259.789 -182.206 259.2C-181.069 258.083 -181.085 253.554 -181.286 251.623C-181.487 249.692 -182.546 248.374 -183.482 246.288C-185.129 242.627 -185.671 238.758 -186.576 236.074C-187.349 233.748 -188.548 231.856 -188.625 229.692C-188.617 227.729 -188.391 225.773 -187.952 223.86C-187.614 222.514 -187.19 221.19 -186.684 219.897C-186.32 219.122 -185.493 218.788 -185.191 218.021C-184.836 217.129 -185.098 215.694 -184.874 214.639C-184.588 213.306 -183.962 212.197 -183.892 211.491C-183.745 210.056 -184.317 208.893 -183.776 208.234C-181.966 206.024 -178.656 206.683 -176.468 207.233C-176.058 208.009 -175.532 208.009 -175.145 208.963C-174.65 209.157 -174.163 209.475 -173.599 209.296C-170.722 213.414 -167.272 212.53 -164.318 214.104C-163.328 214.632 -162.145 216.066 -160.722 216.982C-159.91 217.509 -158.843 217.672 -158.108 218.238C-156.453 219.517 -155.316 221.123 -153.421 222.038C-151.122 223.115 -148.734 223.99 -146.283 224.651C-144.953 224.992 -141.751 226.016 -140.669 225.644C-137.096 224.426 -137.753 220.021 -138.256 217.478C-138.465 216.462 -139.161 215.198 -139.192 214.228C-139.192 212.677 -137.954 209.211 -136.23 208.257C-134.977 207.567 -132.711 207.745 -131.752 208.684C-128.852 211.506 -130.615 216.439 -130.414 219.967C-130.128 225.039 -125.665 226.784 -122.069 226.288C-121.675 226.241 -121.296 225.675 -120.917 225.582C-118.249 224.868 -115.063 225.434 -113.129 223.643C-112.294 223.899 -111.521 224.574 -110.654 224.674C-109.881 224.442 -110.129 223.899 -109.456 223.612C-107.275 225.062 -104.607 223.077 -102.356 224.015C-101.977 223.41 -102.248 222.581 -102.055 221.914C-100.601 220.681 -98.2341 220.743 -96.8344 219.657C-94.8468 218.106 -93.8569 215.322 -91.9699 213.794C-89.209 211.561 -85.1797 210.692 -82.6354 209.63C-81.4212 209.102 -80.9417 208.079 -79.6579 207.164C-78.6371 206.427 -77.245 206.21 -76.2551 205.38C-74.949 204.12 -73.756 202.747 -72.6899 201.278C-66.387 200.836 -67.0908 194.887 -64.6469 191.537C-62.7367 188.932 -61.5535 185.031 -59.6665 182.417C-59.9603 181.58 -59.5814 180.975 -59.6665 180.207C-57.8568 177.47 -55.9079 175.895 -55.1732 173.297C-54.6551 171.421 -55.5522 169.521 -55.5599 167.481C-55.5599 166.085 -54.5855 164.883 -55.15 163.402C-54.2761 162.518 -54.6551 161.021 -54.3071 160.021C-54.1446 159.556 -53.4718 159.447 -53.3017 159.075C-53.1857 158.834 -53.4022 158.16 -53.3017 157.795C-53.1547 157.314 -52.5283 157.02 -52.4355 156.624C-51.8061 154.47 -51.6582 152.204 -52.0024 149.986C-52.4896 146.341 -51.229 145.79 -49.7519 142.867C-49.3343 142.091 -49.2647 141.145 -48.8625 140.416C-48.402 139.635 -47.885 138.888 -47.3158 138.183C-46.2331 136.709 -45.1968 134.74 -44.2224 133.731C-42.2503 131.707 -39.4198 131.071 -36.9914 129.598C-35.7463 128.822 -35.0735 127.349 -33.3334 127.357C-26.0096 118.531 -28.2833 106.418 -24.169 96.5383C-24.1449 94.7817 -23.7321 93.0524 -22.9604 91.4752C-22.1887 89.8981 -21.0774 88.5125 -19.7067 87.4184C-15.1129 83.9829 -8.60892 87.2632 -7.01579 93.9326C-6.5827 95.7783 -6.49763 101.23 -8.36917 100.819C-7.67314 103.316 -9.39775 104.991 -9.14255 107.341C-9.76897 107.744 -9.86952 108.318 -10.728 108.636C-11.3157 112.172 -13.891 115.026 -14.1075 118.718C-16.273 119.687 -15.9404 121.517 -16.474 123.045C-18.2451 123.448 -18.0672 125.209 -20.2249 125.992C-21.0816 128.767 -22.1708 131.465 -23.4807 134.057C-24.2 135.368 -23.7978 137.446 -24.1845 138.951C-24.6562 140.695 -25.8472 142.107 -26.5046 143.852C-26.9995 145.24 -26.9609 146.737 -27.4404 147.939C-27.9895 149.303 -28.9871 150.157 -29.7141 151.568C-30.9442 154.003 -31.9536 156.544 -32.7302 159.16C-33.4649 161.533 -34.3542 163.666 -34.8879 165.589C-35.2537 166.89 -35.289 168.262 -34.9904 169.58C-34.6919 170.898 -34.0691 172.12 -33.1787 173.135C-25.8163 181.952 -15.8631 167.233 -12.6382 162.704C-13.0094 162.029 -12.8702 161.518 -13.2414 160.843C-11.6947 156.19 -10.0551 149.21 -5.25255 145.403C-3.78314 144.27 -1.68732 142.533 0.315689 141.983C2.31871 141.432 5.05641 142.572 6.81195 140.525C7.34557 138.974 7.35332 137.097 8.04933 135.624C8.28134 135.127 8.98511 135.011 9.24805 134.569C10.7174 132.103 10.5086 128.582 10.9881 126.17C11.2279 124.968 12.1095 124.007 12.3492 122.781C12.7669 120.633 11.7847 118.78 11.5759 116.267C11.4289 114.77 12.1095 109.722 12.6818 108.574C13.9097 106.199 14.8621 103.691 15.5201 101.098C16.1851 98.4227 16.711 95.437 17.5385 93.1648C18.366 90.8926 19.6575 88.8685 20.3536 86.9608C21.676 83.3547 24.1431 80.4776 24.5452 76.1038C26.4167 74.7311 25.7981 72.6916 26.1616 70.9622C26.3704 69.9851 27.136 69.2949 27.4221 68.2712C28.1955 65.4794 28.8064 62.4239 29.9355 59.4072C31.07 56.4767 31.849 53.4199 32.2556 50.3028C32.449 48.5036 32.0005 47.1233 32.3949 45.7661C32.6965 44.727 33.7018 43.8894 34.0963 42.4935C34.2432 41.9507 33.9261 41.1907 34.0034 40.6245C34.4752 37.5768 35.9446 34.6997 36.1302 32.001C36.2694 29.9924 35.4883 27.1076 36.1302 25.0215C36.3467 24.246 37.4991 23.0672 37.8316 21.7489C38.3807 19.5619 38.2415 15.9093 38.9453 12.7763C39.069 12.2567 39.4479 11.7061 39.5407 11.1399C40.1904 7.10733 40.1517 2.28372 44.5831 0.391497C47.0114 -0.639921 49.9966 0.244157 51.845 4.51717C53.8712 9.17019 50.6385 13.5285 49.3547 18.1505C48.883 19.8178 48.7051 21.4774 48.3107 22.9353C47.8622 24.5872 47.0888 25.8978 46.6016 27.4953C45.8901 29.8683 45.8282 32.8618 45.109 35.421C44.4362 37.7087 43.2142 39.7948 42.7193 42.3074C42.6342 42.7339 42.9281 43.3853 42.843 43.8196C42.3326 46.6424 40.8864 49.093 40.1053 51.8771C39.4634 54.2036 39.3319 56.7628 38.5586 58.8566C38.2106 59.8027 37.3367 60.4619 36.9655 61.4313C36.4937 62.6876 36.2385 64.0757 35.6971 65.4019C34.8866 67.2586 34.2019 69.1681 33.6477 71.1173C33.2456 72.7459 33.6477 74.9173 33.3616 76.7087C32.9948 79.0636 32.7675 81.4382 32.681 83.82C32.681 84.5955 32.2634 85.2547 32.186 86.0302C31.954 88.6049 32.7893 91.5053 32.6578 93.7077C32.4877 96.3211 30.9177 99.0276 32.0082 101.75C32.4477 102.44 32.9389 103.096 33.4776 103.712C36.8958 109.505 36.6793 114.995 37.3908 120.082C36.7025 120.284 37.0737 120.858 36.3854 121.036C36.5556 124.821 34.7382 127.931 34.0112 131.413C34.22 132.056 32.3717 131.614 32.9517 132.708C33.2301 133.545 33.725 132.871 34.0885 133.274C32.449 135.833 34.8619 137.516 36.3235 139.54C37.2052 140.734 37.8703 142.89 38.9607 144.286C39.5562 145.061 40.1285 145.147 40.4688 145.907C41.4046 147.954 40.9096 152.157 40.9328 153.584C40.9328 154.36 41.3813 155.135 41.3427 155.554C41.2499 156.927 40.3992 157.772 40.5074 158.943C40.7162 161.207 43.6009 165.922 45.5885 167.28C49.3702 169.87 52.6493 166.124 54.7296 163.231C55.3793 162.34 55.6267 161.145 56.1913 160.424C56.5084 160.021 57.0961 160.098 57.3436 159.718C58.1169 158.462 58.2562 156.903 59.277 155.973C59.7487 155.554 60.4525 155.577 60.9475 155.259C62.7417 154.135 64.8607 151.126 66.6781 149.505C67.8846 148.419 67.5675 145.93 68.5806 144.852C67.8768 143.89 68.395 143.301 67.8768 142.417C68.5651 139.873 69.8953 138.54 69.8876 135.763C69.8798 132.987 68.2712 129.513 69.1915 127.233C70.6764 123.65 76.6236 123.681 79.6397 121.44C80.3589 120.905 80.6605 119.842 81.519 119.323C83.4214 118.159 86.9325 118.803 89.3918 117.965C91.2556 117.353 92.725 117.267 93.6995 115.949C95.1926 113.573 96.385 111.02 97.2492 108.349C97.342 107.946 96.8935 107.574 97.0714 107.194C98.4325 104.208 100.482 103.169 104.31 103.052C105.228 104.172 106.046 105.371 106.754 106.635C106.251 110.071 105.98 113.615 105.431 117.012C104.677 117.701 104.088 118.554 103.709 119.505C103.329 120.456 103.17 121.481 103.243 122.502C102.683 122.765 102.201 123.168 101.843 123.673C101.07 127.194 102.052 131.327 99.9483 134.406C100.938 136.903 98.2701 139.835 99.5461 143.247C99.925 144.294 101.688 146.643 102.709 146.713C104.117 146.814 108.517 142.339 109.236 141.417C109.731 140.781 109.631 139.866 110.064 139.315C110.698 138.539 111.804 138.477 112.755 137.663C115.214 135.531 116.235 132.514 118.053 129.908C119.599 127.768 121.749 126.124 123.257 124.154C124.379 122.696 124.982 120.742 126.204 119.501C127.117 118.555 128.215 118.299 128.942 117.5C129.529 116.849 129.963 115.701 130.535 114.925C131.76 113.272 133.096 111.705 134.533 110.234C136.606 108.031 137.758 104.805 139.506 102.393C140.38 101.184 141.78 100.555 142.723 99.4464C143.496 98.5856 143.852 97.3215 144.571 96.4064C145.391 95.344 146.629 94.6771 147.402 93.6999C149.591 90.9159 150.232 85.9449 153.31 83.0601C156.064 80.4233 159.026 78.787 160.704 76.5768C162.382 74.3666 162.25 71.9781 163.333 70.5047C164.98 68.2325 169.938 63.9672 171.283 66.2394C172.119 67.6586 168.631 73.7385 167.641 74.545C166.257 75.654 164.107 75.5919 162.614 76.6854C158.569 79.6323 159.698 87.0461 155.886 89.4347C154.764 90.1249 153.109 89.7681 151.911 90.28C150.441 91.831 149.591 94.2273 148.864 95.662C147.618 98.1436 145.53 99.1905 143.667 101.416C142.344 102.967 141.795 105.93 139.475 106.224C138.06 109.016 135.972 112.428 133.288 114.204C129.359 121.525 122.662 127.651 118.478 134.468C117.805 135.127 117.372 134.135 116.661 134.957C116.127 135.321 116.939 136.143 116.274 136.508C114.201 138.226 112.661 140.502 111.835 143.068C109.615 143.355 108.935 145.752 107.968 147.062C107.543 147.202 107.311 146.015 106.777 146.845C105.888 147.272 107.048 148.396 106.475 148.939C104.039 147.388 104.225 151.149 102.879 152.111C101.534 153.072 99.9328 151.273 99.577 153.189C99.9328 154.74 100.737 153.189 101.193 154.112C98.7186 155.298 99.2213 157.71 99.2831 160.06C99.2831 161.246 98.8191 162.433 98.7727 163.565C98.7186 165.054 99.2058 166.822 99.4456 168.559C99.7394 170.668 99.4456 172.359 99.7858 173.445C100.428 175.508 102.438 178.439 103.513 179.114C104.782 179.889 105.455 179.021 107.048 178.85C108.803 178.664 111.379 179.626 113.057 178.331C113.413 178.718 113.645 179.881 114.147 179.253C114.085 177.222 116.297 177.082 117.697 176.423C117.333 178.664 114.356 179.734 112.222 181.712C111.239 181.339 111.912 179.796 110.752 179.742C110.59 180.646 110.192 181.491 109.601 182.192C109.009 182.894 108.243 183.426 107.38 183.736C108.68 185.07 106.762 186.504 107.311 187.931C107.891 189.482 110.335 190.676 111.672 190.328C112.678 190.064 113.908 188.862 115.122 188.203C123.961 183.418 134.556 178.206 141.416 172.018C141.996 172.072 142.406 173.189 143.032 172.933C146.899 173.437 150.085 173.049 154.099 172.475C155.863 172.314 157.608 171.99 159.312 171.506C161.06 170.878 162.336 169.56 164.099 168.551C166.567 167.222 169.125 166.068 171.755 165.1C177.555 162.828 184.26 163.549 188.924 159.943C189.396 159.579 189.697 158.92 190.169 158.532C193.007 156.205 196.719 154.577 199.913 151.552C202.303 149.303 205.397 145.713 208.126 144.263C210.346 143.076 213.416 142.758 215.265 140.819C216.146 139.889 217.422 138.726 218.536 137.531C220.276 135.662 221.568 133.274 223.254 131.436C225.481 129.009 228.164 127.186 230.461 125.085C231.652 123.983 233.037 122.076 234.413 120.742C236.903 118.314 239.726 116.011 241.915 113.568C244.103 111.125 245.403 108.807 247.537 107.232C249.084 106.092 251.087 105.061 253.09 105.084C252.928 106.635 251.744 106.845 252.502 108C254.428 111.017 258.411 103.347 260.615 106.186C262.247 108.256 258.225 110.063 257.289 111.102C255.743 112.731 255.263 115.174 253.902 116.368C251.141 118.803 245.619 117.492 243.175 121.711C242.843 122.3 243.083 123.402 242.874 123.805C241.714 126.131 239.78 125.356 237.986 126.178C235.728 127.186 233.725 129.28 231.559 130.777C229.394 132.273 227.53 134.003 225.659 135.375L225.311 135.189ZM171.802 436.34C171.873 436.239 171.92 436.122 171.937 435.999C171.955 435.877 171.943 435.751 171.902 435.634C169.582 432.897 166.751 434.192 164.346 432.331C165.916 435.153 169.28 436.038 171.802 436.34ZM161.879 431.315C160.518 429.399 157.873 425.933 155.615 426.243C157.016 428.643 159.244 430.447 161.879 431.315ZM151.903 431.392C150.635 430.105 149.273 429.492 147.765 429.803C148.199 430.472 148.833 430.986 149.576 431.272C150.32 431.558 151.134 431.6 151.903 431.392ZM101.317 458.752C101.665 458.62 101.51 458.333 101.75 458.155C100.018 457.263 98.533 454.626 96.6769 454.595C97.4426 456.728 99.84 457.651 101.317 458.752ZM130.705 416.099C127.612 413.478 122.971 414.758 119.731 417.131C120.976 419.946 122.824 418.178 125.446 417.433C127.813 416.774 128.957 417.139 130.713 416.107L130.705 416.099ZM87.7213 434.308L88.108 434.06C88.0075 433.913 87.9147 433.765 87.8296 433.61C87.6982 433.68 87.5744 433.765 87.4429 433.843L87.7213 434.308ZM196.047 357.999C195.088 356.541 193.982 356.122 192.767 356.518C193.703 358.123 194.848 358.317 196.054 358.007L196.047 357.999ZM187.362 352.849C188.135 352.849 187.284 351.461 186.936 352.151C187.083 352.392 187.23 352.625 187.369 352.857L187.362 352.849ZM185.204 353.214C185.405 353.09 185.591 352.966 185.784 352.857C185.614 352.454 185.359 352.578 185.173 352.276L184.786 352.524C184.91 352.772 185.08 352.989 185.212 353.222L185.204 353.214ZM183.023 352.656C182.458 351.663 181.894 350.779 181.074 351.624C181.623 352.702 182.242 353.292 183.031 352.663L183.023 352.656ZM119.298 387.46L119.677 387.22C119.592 387.072 119.499 386.909 119.398 386.754C119.275 386.84 119.143 386.917 119.019 386.987L119.298 387.46ZM93.4443 400.853C91.9981 399.062 89.9951 399.93 88.3942 399.511C86.7933 399.093 84.798 397.185 83.1044 398.627C83.7617 406.111 90.3431 405.909 93.4443 400.853ZM147.526 360.201L148.106 359.852L147.68 359.162L147.1 359.511L147.526 360.201ZM117.914 377.813L118.478 377.472C118.347 377.223 118.2 376.999 118.06 376.766C117.875 376.89 117.674 377.006 117.488 377.115L117.914 377.813ZM161.222 346.684L161.802 346.335L161.377 345.637L160.797 345.994L161.222 346.684ZM141.339 357.355L141.725 357.107C141.633 356.962 141.54 356.807 141.447 356.642L141.06 356.89C141.114 357.037 141.215 357.192 141.3 357.355H141.339ZM155.259 344.652C155.832 344.327 154.811 342.667 154.269 343.032C153.202 343.59 154.617 344.877 155.19 344.652H155.259ZM233.531 291.321C233.145 290.422 232.542 290.964 231.985 291.321C232.199 291.479 232.458 291.565 232.723 291.565C232.989 291.565 233.248 291.479 233.462 291.321H233.531ZM145.871 341.473C146.342 341.318 146.033 340.922 145.871 340.55C145.772 340.684 145.719 340.845 145.719 341.011C145.719 341.178 145.772 341.339 145.871 341.473ZM213.571 292.43C213.153 291.655 212.597 291.942 212.024 292.097C212.442 293.012 212.999 292.764 213.571 292.43ZM-61.9092 443.715L-61.3447 443.358L-61.7623 442.668C-62.2108 442.885 -62.2572 443.227 -61.9092 443.715ZM163.766 299.867C163.673 299.72 163.573 299.565 163.48 299.402C162.405 299.759 163.882 300.852 163.766 299.867ZM169.041 289.925C169.891 289.662 169.11 288.374 168.484 289.002C168.878 289.631 168.437 289.669 169.041 289.956V289.925ZM156.296 293.655C155.669 292.95 154.973 292.678 154.594 293.438C154.965 294.702 156.118 294.4 156.296 293.655ZM167.123 284.132L166.976 283.9C167.973 284.357 166.883 282.566 166.829 283.667L166.643 283.783L166.782 284.016C164.834 283.24 160.99 281.022 160.967 278.363C160.008 278.207 158.368 277.455 157.765 278.743L157.626 278.51L157.44 278.626L156.86 278.983C156.953 279.138 157.053 279.293 157.139 279.448C157.332 279.332 157.525 279.216 157.711 279.091L157.881 279.153V278.975C158.299 279.689 158.824 279.627 159.304 280.007C159.374 280.611 158.144 280.007 157.626 280.72C157.208 285.373 163.21 288.661 166.086 285.071C166.581 285.482 167.393 285.071 166.86 284.241L167.123 284.132ZM106.947 316.106C108.277 315.594 107.125 313.981 106.212 314.02C105.424 314.377 106.336 315.858 106.916 316.106H106.947ZM105.493 314.144C105.254 313.756 105.029 313.369 104.782 312.981C104.008 313.221 104.318 313.803 104.588 314.385C104.743 314.408 104.9 314.399 105.051 314.357C105.201 314.316 105.342 314.243 105.462 314.144H105.493ZM151.895 251.445L152.274 251.204L151.996 250.739L151.617 250.98L151.895 251.445ZM200.903 202.456C201.128 202.689 201.522 202.332 201.476 202.1C201.352 201.487 200.447 201.999 200.911 202.456H200.903ZM155.375 193.561C154.602 191.235 153.287 192.98 152.003 191.499C150.905 191.677 152.235 192.677 151.617 193.05C150.302 193.569 149.428 191.723 147.951 191.809C145.631 191.933 143.759 194.911 143.048 196.733C141.501 196.632 139.436 198.4 139.111 199.835C141.192 201.386 142.329 199.145 144.277 197.92C147.34 195.927 152.761 195.345 155.383 193.561H155.375ZM145.399 188.908C142.862 188.311 140.635 192.204 138.787 193.631C139.753 194.562 140.944 193.957 141.88 195.229C142.692 192.964 144.533 191.088 145.407 188.877L145.399 188.908ZM199.929 157.214C199.387 157.027 198.56 157.679 199.063 158.385C199.604 158.532 200.64 157.958 199.937 157.183L199.929 157.214ZM-11.4626 288.095C-11.1146 287.963 -11.2616 287.668 -11.0296 287.506C-11.1842 287.343 -11.3621 287.389 -11.5091 287.157C-11.6251 287.242 -11.7565 287.319 -11.888 287.397L-11.4626 288.095ZM179.821 168.311C180.015 168.807 180.896 168.117 180.254 167.729C180.123 167.799 179.999 167.884 179.875 167.962C180.022 168.133 179.93 168.202 179.821 168.311ZM232.619 128.14C231.204 127.69 229.147 130.102 228.342 131.087C229.518 131.754 231.884 129.28 232.619 128.14ZM234.684 125.907C235.457 125.907 237.715 124.867 237.089 123.782C235.991 124.394 234.985 125.038 234.684 125.907ZM239.285 123.068C239.084 122.192 237.251 123.316 237.94 123.89C238.272 123.999 239.463 123.642 239.285 123.068ZM-10.3103 275.284C-10.6197 274.632 -11.0373 274.679 -11.5013 275.059C-11.1842 275.703 -10.7511 275.656 -10.3103 275.284ZM243.856 118.02C244.212 117.888 244.049 117.593 244.297 117.43C244.096 116.934 243.214 117.64 243.856 118.02ZM249.463 114.243C249.022 113.181 247.955 114.088 248.512 114.832C249.2 114.631 248.976 114.77 249.463 114.243ZM28.2805 241.635C27.2494 240.363 26.0919 239.905 24.8082 240.262C25.0015 241.991 27.716 242.371 28.2651 241.635H28.2805ZM26.5327 239.2L27.1128 238.858C26.8962 238.316 26.6024 238.316 26.3394 238.083C26.0378 238.308 26.1461 238.711 26.5173 239.2H26.5327ZM39.7573 226.28C41.1725 225.954 40.4069 224.155 39.4479 223.604C38.0636 224.039 38.953 225.628 39.7418 226.28H39.7573ZM-143.097 336.091C-143.19 335.936 -143.29 335.781 -143.375 335.626C-144.474 335.975 -142.996 337.076 -143.112 336.091H-143.097ZM89.995 190.552L90.374 190.312C90.2812 190.165 90.1807 190.01 90.0879 189.847L89.7089 190.087C89.7862 190.242 89.879 190.397 89.9796 190.552H89.995ZM37.2748 220.487C38.5122 220.091 38.0482 218.393 36.9732 217.811C36.0065 218.036 36.5169 218.757 35.9059 219.099C36.2702 219.639 36.7287 220.109 37.2593 220.487H37.2748ZM56.9182 204.201C56.3228 202.774 54.9307 203.488 54.9616 204.449C55.7582 205.69 56.5703 205.178 56.9028 204.24L56.9182 204.201ZM58.465 198.137C59.0063 197.896 59.2383 197.54 58.8053 196.966C58.6461 196.938 58.4827 196.945 58.3264 196.986C58.1702 197.028 58.0248 197.103 57.9004 197.206C58.0783 197.555 58.2871 197.865 58.4804 198.176L58.465 198.137ZM57.4828 195.236L57.8695 194.996C57.7148 194.825 57.8076 194.732 57.9236 194.647C57.8205 194.492 57.7277 194.337 57.6452 194.182C57.4983 194.329 57.3977 194.182 57.3127 194.073L56.926 194.306C57.0807 194.484 56.9801 194.577 56.8719 194.655C56.9647 194.81 57.0497 194.965 57.158 195.12C57.3049 195.012 57.4055 195.136 57.4983 195.275L57.4828 195.236ZM59.9731 188.924C60.4293 188.776 60.3752 188.451 60.5995 188.218C60.3829 187.691 60.0968 187.691 59.8261 187.443C59.2461 187.97 59.3466 188.435 59.9885 188.963L59.9731 188.924ZM55.6654 190.94C56.4388 190.707 56.1217 190.118 55.8665 189.544C55.4798 189.777 55.2323 189.063 54.8147 189.544C54.8067 189.841 54.8842 190.135 55.0377 190.389C55.1913 190.643 55.4145 190.848 55.6808 190.979L55.6654 190.94ZM-144.737 310.926C-143.963 310.926 -144.806 309.545 -145.154 310.228L-144.737 310.926ZM-183.869 334.16C-184.387 333.726 -184.905 333.229 -185.586 333.943C-185.137 334.811 -184.464 334.16 -183.869 334.16ZM-130.723 296.308L-130.337 296.075C-130.429 295.92 -130.53 295.765 -130.615 295.61L-131.002 295.842L-130.723 296.308ZM-97.2752 260.728C-97.1149 260.628 -96.9841 260.487 -96.8962 260.32C-96.8083 260.152 -96.7665 259.965 -96.7752 259.776C-96.7838 259.587 -96.8426 259.404 -96.9455 259.245C-97.0483 259.087 -97.1915 258.959 -97.3602 258.874C-97.5368 258.958 -97.6847 259.092 -97.7854 259.26C-97.886 259.428 -97.9348 259.622 -97.9258 259.818C-97.9167 260.013 -97.85 260.202 -97.7343 260.36C-97.6185 260.517 -97.4588 260.637 -97.2752 260.704V260.728ZM-129.169 275.92C-129.084 275.997 -128.511 276.083 -128.45 275.803C-128.303 275.144 -129.965 275.222 -129.169 275.896V275.92ZM-92.7278 249.63C-92.1942 249.39 -91.9544 249.041 -92.3952 248.467C-92.9057 248.684 -93.1299 249.033 -92.7278 249.63ZM-83.9346 240.704C-84.824 239.634 -85.7366 238.649 -86.9353 239.68C-86.1078 241.487 -84.6152 241.999 -83.9037 240.681L-83.9346 240.704ZM-105.875 253.919C-105.426 253.709 -105.38 253.353 -105.713 252.872C-106.2 253.089 -106.246 253.438 -105.875 253.919ZM-78.9078 234.112C-78.7763 234.043 -78.6526 233.957 -78.5211 233.88C-78.6139 233.732 -78.7144 233.577 -78.7995 233.422L-79.1862 233.655C-79.1243 233.81 -79.0238 233.957 -78.9387 234.12L-78.9078 234.112ZM-84.5147 231.84C-84.7996 231.797 -85.0907 231.856 -85.3358 232.008C-85.5809 232.16 -85.7641 232.395 -85.8526 232.67C-85.1102 234.329 -83.5712 233.135 -84.5456 231.84H-84.5147ZM-84.6539 231.607L-84.2749 231.375C-84.36 231.22 -84.4605 231.065 -84.5533 230.917L-84.94 231.15L-84.6539 231.607ZM-81.4831 229.025L-80.9185 228.668C-81.1041 228.358 -81.2897 228.048 -81.4676 227.738C-82.0554 227.986 -81.9007 228.451 -81.514 229.025H-81.4831ZM-80.9727 224.24C-80.8412 224.17 -80.7097 224.085 -80.5937 224.008C-80.6814 223.852 -80.7742 223.697 -80.8721 223.542L-81.2511 223.783L-80.9727 224.24ZM-75.7757 218.486C-75.2343 218.246 -75.0023 217.897 -75.4276 217.323C-75.5881 217.297 -75.7521 217.305 -75.9092 217.346C-76.0663 217.388 -76.2131 217.462 -76.3402 217.563L-75.7757 218.486Z" fill="#FC565D"/>
<path d="M194.161 264.714C197.163 274.238 199.321 289.493 199.06 307H-22V267.327C-6.24114 262.822 8.69517 256.966 18.2197 247.113C44.0784 220.384 36.2844 157.969 54.2547 143.273C55.311 142.412 60.098 138.741 59.4597 134.947C58.6731 130.212 50.3217 130.487 44.465 125.117C34.5764 116.071 34.4955 93.4682 44.0964 85.6653C52.5961 78.7769 64.9075 86.5303 68.4224 81.1871C73.5959 73.3166 47.4585 55.5887 52.1062 39.4737C54.9424 29.6254 68.9977 21.48 80.5854 24.7238C90.4201 27.4809 96.9646 37.8113 97.5534 46.2134C97.8995 51.1691 96.2049 55.9942 97.3017 56.3861C98.3984 56.7781 99.9986 51.7098 103.945 48.466C109.833 43.6275 119.466 43.9969 124.752 46.2134C143.284 54.0029 151.217 95.7704 135.953 113.904C131.008 119.76 123.713 123.031 124.567 127.87C125.345 132.271 131.867 131.893 139.922 136.939C156.638 147.395 154.053 164.934 170.095 171.322C170.653 171.547 171.304 171.75 171.304 171.75C174.063 172.693 176.894 173.408 179.768 173.89C183.414 174.53 199.703 177.377 200.93 183.536C201.523 186.505 198.336 189.577 191.976 195.727C185.364 202.111 183.701 201.583 181.719 204.602C177.404 211.152 181.198 219.843 185.688 233.732C188.987 243.91 190.938 254.506 194.161 264.714Z" fill="#FFE600"/>
</g>
<defs>
<clipPath id="clip0_1_20">
<rect width="300" height="300" fill="white"/>
</clipPath>
</defs>
</svg>
