<svg width="206" height="254" viewBox="0 0 206 254" fill="none" xmlns="http://www.w3.org/2000/svg">
<path d="M203.822 225.913C203.495 229.213 190.878 227.219 184.598 233.825C182.249 236.298 178.445 242.758 177.856 244.349C177.665 244.898 177.315 245.381 176.848 245.738C176.373 246.068 175.806 246.25 175.223 246.259C174.954 246.26 174.687 246.222 174.429 246.148C173.109 245.731 172.626 243.022 172.591 242.8C171.938 238.965 172.988 235.735 172.796 233.457C172.229 226.858 161.215 227.969 152.054 217.327C150.28 215.243 147.796 211.902 144.489 211.916C143.262 211.916 141.785 212.381 138.585 212.395C137.166 212.395 136.194 212.243 135.746 212.284C132.695 212.548 130.822 214.056 124.683 214.493C115.742 215.132 113.081 212.409 109.667 214.875C109.667 214.875 105.644 217.814 102.521 219.043C100.627 219.738 100.705 219.272 99.5409 219.877C97.412 220.967 94.829 226.823 94.829 226.823C92.4021 232.234 90.6705 232.609 91.2453 233.971C92.2317 236.305 97.1282 234.742 100.982 238.59C101.599 239.208 103.068 240.674 102.628 242.063C102.412 242.567 102.054 243.001 101.597 243.314C101.14 243.627 100.602 243.808 100.045 243.835C99.7225 243.842 99.402 243.788 99.101 243.675C98.4411 243.453 94.9496 242.286 94.1974 243.078C93.4452 243.87 95.3185 245.384 95.7585 249.128C96.0708 251.788 95.3612 252.601 94.978 252.851C94.7132 253.037 94.4107 253.165 94.091 253.226C94.0415 253.283 93.9789 253.326 93.9086 253.354C93.8382 253.382 93.762 253.393 93.6864 253.386C92.9359 253.352 92.2167 253.081 91.6357 252.615C89.5068 250.871 85.0432 243.814 80.828 241.397C75.8109 238.528 71.0563 242.133 68.5513 238.91C67.4088 237.444 67.0752 235.006 68.1183 233.547C70.0414 230.873 74.5974 233.888 80.4447 231.623C82.744 230.734 84.9296 227.865 89.3081 222.12C90.5925 220.432 92.2318 218.091 91.437 216.973C91.3418 216.851 91.2267 216.746 91.0964 216.66C89.4571 215.459 88.8254 213.048 88.6977 212.666C87.7894 209.888 78.6138 206.665 75.9243 205.602C74.2496 204.907 60.3124 198.919 54.1741 187.743C53.3722 186.284 51.3355 182.262 49.5401 182.554C48.1989 182.769 48.2344 185.179 46.1055 186.103C45.2493 186.422 44.3213 186.51 43.4187 186.357C42.5161 186.204 41.672 185.817 40.9748 185.235C38.5479 183.075 40.0311 179.226 38.5621 178.643C37.0932 178.059 35.4468 182.185 31.4232 183.332C26.9383 184.596 22.4109 181.248 21.6941 180.734C16.8828 177.073 15.7828 170.835 15.4067 168.689C14.6119 164.18 15.5913 161.992 13.5617 159.429C12.0715 157.574 10.7729 157.748 8.21819 156.143C7.86337 155.928 -0.077488 150.809 0.000571713 143.202C0.0502461 137.645 4.30104 133.825 5.05325 133.137C9.04139 129.525 11.7096 130.949 13.5049 128.469C17.4363 123.023 6.25253 113.881 9.48846 105.414C11.4541 100.294 17.926 97.8284 22.0489 97.2726C32.8141 95.8278 43.9483 105.254 48.5254 114.937C53.4929 125.447 49.0008 132.574 55.2314 137.603C60.8588 142.146 70.0769 140.799 70.4175 139.493C70.6517 138.611 66.8694 137.881 65.3437 134.283C64.6665 132.48 64.6241 130.507 65.2231 128.677C66.2805 125.308 69.1687 123.419 70.3751 122.655C80.6648 116.125 106.978 115.833 118.055 104.657C130.474 92.1531 126.734 62.8393 135.363 55.9485C135.874 55.5387 138.202 53.8229 137.868 52.0377C137.485 49.8218 133.476 49.9537 130.658 47.4322C125.911 43.188 125.876 32.5808 130.481 28.927C134.569 25.69 140.48 29.3299 142.169 26.8431C144.652 23.1476 132.099 14.8327 134.363 7.27501C135.725 2.65565 142.474 -1.16487 148.037 0.328608C152.764 1.62064 155.907 6.46924 156.191 10.4078C156.354 12.7349 155.545 14.9994 156.07 15.18C156.595 15.3606 157.369 12.985 159.264 11.4637C162.102 9.19224 166.715 9.37978 169.255 10.4078C178.154 14.0617 181.965 33.6645 174.634 42.1599C172.257 44.9385 168.752 46.4458 169.163 48.7034C169.539 50.7873 172.669 50.5928 176.543 52.9615C184.569 57.8657 183.327 66.0903 191.034 69.0911L191.616 69.2925C192.939 69.7321 194.297 70.0667 195.675 70.2928C197.428 70.5915 205.255 71.9252 205.844 74.8149C206.128 76.2042 204.602 77.6491 201.544 80.5388C198.365 83.5327 197.57 83.3173 196.619 84.7066C194.547 87.7769 196.363 91.8544 198.528 98.3701C200.11 103.149 201.047 108.095 202.594 112.916C206.433 124.815 207.398 155.754 191.204 175.128C185.293 182.192 176.366 192.869 169.27 197.412C167.002 198.701 165.122 200.553 163.82 202.782C163.365 203.601 160.846 207.588 161.556 211.958C162.855 219.897 174.123 225.628 179.737 223.128C184.704 220.933 185.541 214.354 189.324 214.695C191.297 214.868 193.582 216.966 193.461 218.23C193.443 218.777 193.342 219.317 193.163 219.835C193.02 220.214 192.934 220.612 192.907 221.016C192.923 221.085 192.944 221.152 192.971 221.217C193.269 221.912 196.945 221.377 199.294 221.988C201.423 222.509 203.963 224.44 203.822 225.913Z" fill="white"/>
</svg>
