<svg width="2063" height="425" viewBox="0 0 2063 425" fill="none" xmlns="http://www.w3.org/2000/svg">
<path d="M250.2 56.7C249.3 61 246.6 65 241.6 67.7C200.9 89.4 167.7 119.7 136.6 152.7C123.4 166.7 110.6 181.2 97.8001 195.6C95.5001 198.2 93.3001 200.7 91.0001 203.3C86.4001 208.5 81.8001 213.7 77.2001 218.8C107.5 222.4 134.9 237.5 158.9 258.3C195.4 290.1 224 335.4 242.5 374.5C247.5 384.8 242 394.5 234.4 398.9C230.6 401.1 226.1 402.1 221.9 401.2C217.7 400.3 213.9 397.4 211.5 392.3C196.5 360.8 173.4 320.9 143.7 292C114.5 263.6 79.0001 246.1 38.6001 257.5C38.9001 289.5 39.2001 321.5 39.5001 353.5C39.6001 359.2 37.4001 363.5 34.0001 366.5C30.6001 369.4 26.2001 370.8 21.8001 370.8C17.4001 370.8 12.9001 369.4 9.50015 366.5C6.10015 363.6 3.80015 359.2 3.80015 353.5C2.90015 246.8 1.90015 140 0.800147 33.3C0.700147 27.6 2.90015 23.3 6.30015 20.3C9.70015 17.4 14.1001 16 18.5001 16C22.9001 16 27.4001 17.4 30.8001 20.3C34.2001 23.2 36.5001 27.6 36.5001 33.3C37.0001 91.8 37.6001 150.2 38.1001 208.7C47.8001 198.3 57.3001 187.6 66.9001 176.9C68.7001 174.9 70.5001 172.9 72.3001 170.8C86.1001 155.3 99.8001 139.8 114 124.9C146.1 91.1 180.6 59.9 222.9 37.5L223.1 37.2L223.3 36.9L223.6 36.7C233.8 31.3 243.4 36.5 247.8 44C250 47.8 251 52.4 250.2 56.7Z" fill="#67BDE0"/>
<path d="M549.601 139.399C549.501 139.399 549.401 139.399 549.401 139.399C548.801 146.799 547.301 153.899 543.601 160.399C538.801 168.599 531.601 173.299 522.301 174.999C520.801 175.299 520.001 175.799 519.301 177.199C515.301 184.699 509.701 191.099 503.301 196.699C489.401 208.899 473.201 217.099 456.101 223.599C441.001 229.399 425.401 233.499 409.601 236.499C403.101 237.699 396.601 238.599 390.101 239.299C381.801 240.199 373.401 240.599 365.001 240.799C360.301 240.899 355.601 240.799 350.901 240.599C345.201 240.399 339.401 240.199 333.701 239.299C330.201 238.699 327.101 236.999 324.301 234.499C324.901 234.299 325.301 234.899 325.801 235.299C329.201 237.999 333.201 239.099 337.501 239.499C341.801 239.799 346.201 240.099 350.501 240.399C351.101 240.499 351.601 240.399 352.201 240.399C354.801 240.499 357.501 240.499 360.101 240.599C364.601 240.599 369.101 240.599 373.601 240.299C375.401 240.199 377.101 240.199 378.901 240.099C390.101 239.399 401.201 237.999 412.201 235.899C425.401 233.399 438.301 229.899 451.001 225.499C465.301 220.499 479.001 214.099 491.701 205.699C498.601 201.199 504.801 195.899 510.401 189.799C514.001 185.899 517.101 181.599 519.501 176.899C520.001 175.799 520.801 175.299 522.001 175.099C526.901 174.299 531.401 172.499 535.401 169.599C540.501 165.899 543.901 160.999 546.101 155.199C547.701 150.799 548.701 146.299 549.201 141.699C549.301 140.999 549.301 140.299 549.601 139.699L549.701 139.599C549.401 139.299 549.501 139.399 549.601 139.399Z" fill="#67BDE0"/>
<path d="M284.901 204.694H284.801V176.094H284.901C284.901 179.294 284.901 182.494 284.901 185.694C284.901 191.994 284.901 198.394 284.901 204.694Z" fill="#67BDE0"/>
<path d="M549.301 129.995V127.795C548.801 120.895 547.701 113.995 546.201 107.295C543.301 94.7952 540.001 82.4952 535.901 70.2952C534.701 66.5952 533.401 62.8952 532.101 59.1952C531.201 56.6952 530.901 54.0952 530.201 51.4952C528.401 44.2952 523.701 39.4952 517.901 35.3952C512.901 31.7952 507.201 29.7952 501.401 27.9952C489.801 24.3952 477.901 21.5952 465.901 19.6952C459.301 18.6952 452.601 17.8952 445.901 17.3952C437.901 16.7952 429.801 16.0952 421.801 15.5952C416.901 15.2952 412.001 15.0952 407.101 14.7952C400.901 14.3952 394.701 14.1952 388.401 13.9952C382.601 13.8952 376.901 13.6952 371.201 13.4952C369.301 13.4952 367.401 13.4952 365.401 13.4952H351.701C349.701 13.4952 347.701 13.4952 345.701 13.4952C345.701 13.4952 345.701 13.4952 345.701 13.3952H371.201C376.401 13.2952 381.601 13.4952 386.801 13.4952C391.101 13.4952 395.401 13.6952 399.701 13.8952C404.401 14.0952 409.201 14.2952 413.901 14.5952C420.301 14.9952 426.701 15.3952 433.001 15.8952C437.801 16.2952 442.601 16.5952 447.501 16.9952C455.101 17.5952 462.801 18.5952 470.301 19.8952C482.601 22.0952 494.701 25.1952 506.501 29.0952C513.101 31.2952 518.801 34.8952 523.801 39.6952C527.201 42.9952 529.401 46.9952 530.401 51.4952C531.901 58.2952 534.301 64.7952 536.601 71.3952C539.401 79.6952 541.601 88.1952 543.901 96.5952C546.101 104.595 547.801 112.695 548.901 120.895C549.201 123.095 549.201 125.295 549.301 127.595V129.795V129.895C549.301 130.495 549.201 131.095 549.401 131.695C549.101 131.395 549.401 130.695 549.301 129.995Z" fill="#67BDE0"/>
<path d="M549.401 139.394C548.801 146.794 547.301 153.994 543.601 160.494C538.801 168.694 531.601 173.394 522.301 175.094C520.801 175.394 520.001 175.894 519.301 177.294C515.301 184.794 509.701 191.194 503.301 196.794C489.401 208.994 473.201 217.194 456.101 223.694C441.001 229.494 425.401 233.594 409.601 236.594C403.101 237.794 396.601 238.694 390.101 239.394C381.801 240.294 373.401 240.694 365.001 240.894C360.301 240.994 355.601 240.894 350.901 240.694C345.201 240.494 339.401 240.294 333.701 239.394C330.201 238.794 327.101 237.094 324.301 234.594C324.901 234.394 325.301 234.994 325.801 235.394C329.201 238.094 333.201 239.194 337.501 239.594C341.801 239.894 346.201 240.194 350.501 240.494C351.101 240.594 351.601 240.494 352.201 240.494C354.801 240.594 357.501 240.594 360.101 240.694C364.601 240.694 369.101 240.694 373.601 240.394C375.401 240.294 377.101 240.294 378.901 240.194C390.101 239.494 401.201 238.094 412.201 235.994C425.401 233.494 438.301 229.994 451.001 225.594C465.301 220.594 479.001 214.194 491.701 205.794C498.601 201.294 504.801 195.994 510.401 189.894C514.001 185.994 517.101 181.694 519.501 176.994C520.001 175.894 520.801 175.394 522.001 175.194C526.901 174.394 531.401 172.594 535.401 169.694C540.501 165.994 543.901 161.094 546.101 155.294C547.701 150.894 548.701 146.394 549.201 141.794C549.301 141.094 549.301 140.394 549.601 139.794C549.301 139.394 549.301 139.394 549.401 139.394V137.494C549.501 136.794 549.201 136.194 549.601 135.594C549.401 136.194 549.501 136.894 549.501 137.494V137.594C549.401 138.194 549.501 138.794 549.401 139.394Z" fill="#67BDE0"/>
<path d="M549.601 127.898C549.601 127.998 549.501 127.998 549.501 127.998C549.501 127.998 549.401 127.998 549.401 127.898C548.901 120.998 547.801 114.098 546.301 107.398C543.401 94.8984 540.101 82.5984 536.001 70.3984C534.801 66.6984 533.501 62.9984 532.201 59.2984C531.301 56.7984 531.001 54.1984 530.301 51.5984C528.501 44.3984 523.801 39.5984 518.001 35.4984C513.001 31.8984 507.301 29.8984 501.501 28.0984C489.901 24.4984 478.001 21.6984 466.001 19.7984C459.401 18.7984 452.701 17.9984 446.001 17.4984C438.001 16.8984 429.901 16.1984 421.901 15.6984C417.001 15.3984 412.101 15.1984 407.201 14.8984C401.001 14.4984 394.801 14.2984 388.501 14.0984C382.701 13.9984 377.001 13.7984 371.301 13.5984C371.201 13.5984 371.201 13.5984 371.201 13.4984C371.201 13.4984 371.201 13.3984 371.301 13.3984V13.4984C376.501 13.3984 381.701 13.5984 386.901 13.5984C391.201 13.5984 395.501 13.7984 399.801 13.9984C404.501 14.1984 409.301 14.3984 414.001 14.6984C420.401 15.0984 426.801 15.4984 433.101 15.9984C437.901 16.3984 442.701 16.6984 447.601 17.0984C455.201 17.6984 462.901 18.6984 470.401 19.9984C482.701 22.1984 494.801 25.2984 506.601 29.1984C513.201 31.3984 518.901 34.9984 523.901 39.7984C527.301 43.0984 529.501 47.0984 530.501 51.5984C532.001 58.3984 534.401 64.8984 536.701 71.4984C539.501 79.7984 541.701 88.2984 544.001 96.6984C546.201 104.698 547.901 112.798 549.001 120.998C549.301 123.198 549.301 125.398 549.401 127.698C549.501 127.898 549.501 127.898 549.601 127.898Z" fill="#67BDE0"/>
<path d="M284.901 176.094C284.801 176.194 284.801 176.194 284.901 176.094C284.801 176.194 284.701 176.194 284.701 176.094C284.701 176.094 284.701 176.094 284.901 176.094C284.801 176.094 284.801 176.094 284.901 176.094Z" fill="#67BDE0"/>
<path d="M345.901 13.4984C345.801 13.5984 345.801 13.5984 345.901 13.4984C345.801 13.4984 345.801 13.3984 345.801 13.3984C345.901 13.4984 346.001 13.4984 345.901 13.4984Z" fill="#67BDE0"/>
<path d="M284.901 204.694H284.801H284.701C284.701 204.594 284.801 204.594 284.801 204.594C284.801 204.594 284.801 204.594 284.901 204.694Z" fill="#67BDE0"/>
<path d="M284.901 204.694H284.801H284.701V185.694C284.701 185.594 284.801 185.594 284.801 185.594H284.901C284.901 191.994 284.901 198.394 284.901 204.694Z" fill="#67BDE0"/>
<path d="M365.601 13.4969L351.801 13.5969L351.701 13.4969C351.701 13.4969 351.701 13.4969 351.701 13.3969C351.701 13.3969 351.701 13.2969 351.801 13.2969H365.501C365.601 13.4969 365.601 13.4969 365.601 13.4969Z" fill="#67BDE0"/>
<path d="M284.901 176.094C284.901 179.294 284.901 182.494 284.901 185.694C284.901 185.694 284.901 185.694 284.801 185.694H284.701V176.094C284.701 176.094 284.701 176.094 284.901 176.094C284.801 176.094 284.801 176.094 284.901 176.094Z" fill="#67BDE0"/>
<path d="M351.801 13.3984V13.4984V13.5984C349.801 13.5984 347.801 13.5984 345.801 13.5984C345.801 13.5984 345.801 13.5984 345.801 13.4984V13.3984H351.801Z" fill="#67BDE0"/>
<path d="M371.3 13.4984C371.3 13.5984 371.3 13.5984 371.3 13.4984C369.4 13.5984 367.5 13.5984 365.5 13.5984V13.4984V13.3984H371.3C371.3 13.4984 371.3 13.4984 371.3 13.4984Z" fill="#67BDE0"/>
<path d="M549.6 127.898V130.098L549.5 130.198C549.5 130.198 549.4 130.198 549.4 130.098V127.898H549.5C549.5 127.898 549.5 127.898 549.6 127.898Z" fill="#67BDE0"/>
<path d="M549.6 130V131.9C549.1 131.3 549.4 130.6 549.4 130H549.5C549.5 130 549.5 130 549.6 130Z" fill="#67BDE0"/>
<path d="M549.6 135.594V137.494C549.6 137.594 549.5 137.594 549.5 137.594C549.5 137.594 549.4 137.594 549.4 137.494C549.4 136.894 549.1 136.194 549.6 135.594Z" fill="#67BDE0"/>
<path d="M549.6 132C549.1 131.4 549.4 130.7 549.4 130.1V127.9C548.9 121 547.8 114.1 546.3 107.4C543.4 94.9 540.1 82.6 536 70.4C534.8 66.7 533.5 63 532.2 59.3C531.3 56.8 531 54.2 530.3 51.6C528.5 44.4 523.8 39.6 518 35.5C513 31.9 507.3 29.9 501.5 28.1C489.9 24.5 478 21.7 466 19.8C459.4 18.8 452.7 18 446 17.5C438 16.9 429.9 16.2 421.9 15.7C417 15.4 412.1 15.2 407.2 14.9C401 14.5 394.8 14.3 388.5 14.1C382.7 14 377 13.8 371.3 13.6C369.4 13.6 367.5 13.6 365.5 13.6H351.8C349.8 13.6 347.8 13.6 345.8 13.6C345.8 13.6 345.8 13.6 345.8 13.5C339.5 13.5 333.2 13.7 326.9 13.7C323.7 13.7 320.6 13.9 317.4 14C315 14.1 312.6 14.1 310.2 14.4C301.3 15.5 293.9 22.4 292.8 31.4C292 38 291.4 44.7 290.8 51.3C289.8 61.4 289 71.4 288.3 81.5C287.7 88.7 287.3 96 286.8 103.3C286.4 109.4 286.1 115.6 285.8 121.7C285.5 127.6 285.3 133.6 285.1 139.5C284.9 144.8 284.7 150.1 284.7 155.4C284.7 162.3 284.5 169.2 284.6 176H284.7C284.7 179.2 284.7 182.4 284.7 185.6C284.7 191.9 284.7 198.3 284.7 204.6H284.6C284.7 208 284.6 211.5 284.7 214.9C284.8 224.7 284.9 234.4 285.3 244.1C285.4 247.3 285.6 250.5 285.6 253.7C285.6 255.6 285.7 257.5 285.8 259.4C286.1 263.8 286.3 268.2 286.5 272.6C286.7 275.8 286.8 278.9 287 282.1C287.3 286.2 287.6 290.4 287.8 294.5C288.1 298.4 288.3 302.2 288.6 306.1C289 311.4 289.4 316.7 289.9 322C290.4 326.8 290.8 331.7 291.2 336.5C291.5 340.2 292 344 292.3 347.7C292.8 353.7 295.3 358.6 300 362.3C302.7 364.4 305.7 365.8 309.2 366.1H314.5C314.6 366 314.7 365.9 314.9 365.9C319.5 365.1 323.4 362.9 326.4 359.4C329.7 355.4 331.4 350.8 331 345.6C330.3 336.4 329.3 327.3 328.4 318.2C327.8 311.2 327.2 304.1 326.7 297.1C326.2 289.7 325.7 282.3 325.3 274.9C324.9 268.7 324.6 262.4 324.3 256.1C324 249.9 323.8 243.7 323.6 237.5C323.6 236.6 323.6 235.6 323.6 234.5V234.4C324.2 234.2 324.6 234.8 325.1 235.2C328.5 237.9 332.5 239 336.8 239.4C341.1 239.7 345.5 240 349.8 240.3C350.4 240.4 350.9 240.3 351.5 240.3C354.1 240.4 356.8 240.4 359.4 240.5C363.9 240.5 368.4 240.5 372.9 240.2C374.7 240.1 376.4 240.1 378.2 240C389.4 239.3 400.5 237.9 411.5 235.8C424.7 233.3 437.6 229.8 450.3 225.4C464.6 220.4 478.3 214 491 205.6C497.9 201.1 504.1 195.8 509.7 189.7C513.3 185.8 516.4 181.5 518.8 176.8C519.3 175.7 520.1 175.2 521.3 175C526.2 174.2 530.7 172.4 534.7 169.5C539.8 165.8 543.2 160.9 545.4 155.1C547 150.7 548 146.2 548.5 141.6C548.6 140.9 548.6 140.2 548.9 139.6L549 139.5V137.6C549.1 136.9 548.8 136.3 549.2 135.7V132H549.6ZM509.6 137.2C504.7 136.5 500.2 137.5 496.1 140.2C491.9 143 489.1 146.9 488 151.9C486.4 159 482.3 164.4 477.1 169.1C467.7 177.5 456.5 182.9 444.9 187.4C432.6 192.2 419.8 195.6 406.8 198.1C399.4 199.6 391.9 200.6 384.4 201.3C373.7 202.4 362.9 202.7 352.2 202.4C347 202.3 341.8 201.9 336.6 201.4C332.1 201 327.9 202 324.2 204.9C324 205 323.9 205.3 323.6 205.2C323.4 204.6 323.4 204 323.4 203.3C323.4 194.4 323.3 185.5 323.5 176.5C323.6 171.1 323.6 165.8 323.7 160.4C323.9 154.4 324 148.5 324.2 142.5C324.4 136.2 324.7 129.9 324.9 123.6C325.2 117.5 325.5 111.5 325.8 105.4C326.3 96.8 326.9 88.2 327.5 79.6C328 72.8 328.6 66.1 329.2 59.3C329.4 57.1 329.7 54.9 329.8 52.8C329.9 52.2 330 51.9 330.7 51.9C337.2 51.8 343.8 51.7 350.3 51.4C356.1 51.2 361.8 51.3 367.6 51.2C371.1 51.1 374.6 51 378.1 51.1C383.3 51.3 388.5 51.1 393.7 51.3C399.7 51.5 405.7 51.7 411.7 52C420.2 52.5 428.6 53.1 437 54C450.7 55.5 464.2 57.5 477.6 60.5C483.2 61.7 488.7 63.3 494 65.3C494.5 65.5 494.8 65.9 495 66.4C496.9 70.7 498 75.3 499.3 79.8C502.1 89 504.6 98.4 506.9 107.7C508.8 115.3 510.1 123 510.7 130.8C510.8 132.5 510.8 134.2 510.9 135.8C511 137.2 510.5 137.3 509.6 137.2Z" fill="#67BDE0"/>
<path d="M549.6 137.5V139.4C549.5 139.4 549.4 139.4 549.4 139.4V137.5H549.5C549.5 137.5 549.5 137.5 549.6 137.5Z" fill="#67BDE0"/>
<path d="M796.5 78.7978C795.1 82.9978 792 86.3978 788.2 88.6978C784.4 90.8978 779.8 91.8978 775.4 91.1978C771 90.3978 766.8 87.7978 763.8 82.8978C755.6 69.2978 743.5 63.5978 729.8 61.3978C718.5 59.5978 706.3 60.1978 694.3 60.7978C691.7 60.8978 689.1 61.0978 686.5 61.1978C682.4 61.3978 678.2 61.4978 674.1 61.4978C654.3 61.4978 634.7 59.2978 616.9 51.5978C615.2 87.9978 614.7 124.498 615.3 160.998C650.2 155.598 685.5 153.598 720.8 154.898C725.5 154.998 730 156.898 733.3 160.198C736.6 163.498 738.5 167.998 738.6 172.698C738.5 177.398 736.7 181.898 733.3 185.298C730 188.598 725.5 190.498 720.8 190.598H720.7C685.8 189.098 650.8 191.198 616.3 196.898C616.5 202.698 616.8 208.498 617 214.198C618.2 257.298 618.9 301.898 608.9 344.298C661.7 355.598 715.5 361.698 769.6 362.598C781.1 362.998 786.8 372.198 786.8 381.098C786.8 385.498 785.4 389.898 782.5 393.198C779.6 396.498 775.2 398.598 769.5 398.398C706.3 397.298 643.5 389.498 582 374.898C577.4 373.598 573.6 370.598 571.2 366.498C568.9 362.398 568.2 357.498 569.5 352.898C583.8 307.698 582.5 259.498 581.2 212.298V211.198C578.1 147.398 578.7 83.3978 582.9 19.5978C583 16.0978 584.1 12.7978 586.1 9.89776C588.1 6.99776 590.8 4.79776 594.1 3.49776C597.3 2.19776 600.9 1.79776 604.3 2.39776C607.7 2.99776 610.9 4.59776 613.4 6.99776C625.6 19.0978 640.4 23.7978 656.3 25.3978C668 26.4978 680.1 25.9978 692.1 25.3978C696.5 25.1978 700.9 24.9978 705.2 24.8978C707.1 24.8978 709 24.7978 710.8 24.7978C744.8 24.7978 775.8 33.5978 794.8 64.9978L795.5 66.1978L795.3 66.2978C797.7 70.4978 797.9 74.9978 796.5 78.7978Z" fill="#67BDE0"/>
<path d="M1102.2 385.802C1089.7 350.502 1075.9 315.802 1061.4 281.502C1065.1 281.102 1068.9 280.702 1072.6 280.302C1077.3 280.102 1081.7 278.202 1085 274.902C1088.3 271.602 1090.2 267.102 1090.3 262.502V262.402C1090.3 257.702 1088.4 253.202 1085.1 249.802C1081.8 246.502 1077.3 244.602 1072.5 244.602H1072.4H1072.3C1063.7 245.602 1055.1 246.402 1046.5 247.302C1027.2 203.502 1006.9 160.102 986.6 116.802C976 94.0016 965.3 71.3016 954.8 48.5016V48.4016V48.3016C953.2 45.6016 950.9 43.4016 948.2 41.9016C945.5 40.4016 942.4 39.6016 939.3 39.6016C936.2 39.6016 933.1 40.4016 930.4 41.9016C927.7 43.4016 925.4 45.6016 923.8 48.3016C896.8 95.2016 876.5 145.702 863.6 198.302C859 216.902 855.1 235.602 851.6 254.302C848.5 254.202 845.4 254.202 842.3 254.102C836.6 254.002 832.2 256.102 829.3 259.402C826.4 262.702 825 267.102 825 271.502C825 275.902 826.4 280.402 829.3 283.802C832.2 287.302 836.5 289.602 842.2 289.702C843.2 289.702 844.3 289.802 845.3 289.802C841.7 311.302 838.5 332.902 835.3 354.402C833.7 364.902 832.2 375.402 830.6 385.802C829.5 390.302 830.2 395.102 832.5 399.102C834.8 403.202 838.6 406.202 843 407.602C847.6 408.802 852.4 408.202 856.6 405.902C860.7 403.602 863.8 399.702 865 395.102L865.5 393.502H865C866.3 385.102 867.5 376.702 868.8 368.402C872.7 342.302 876.6 316.202 881 290.302C928.7 290.502 976.4 288.702 1024 284.802C1039.6 321.202 1054.3 357.902 1067.6 395.402C1071.4 406.202 1082 409.202 1090.5 406.902C1094.8 405.702 1098.6 403.202 1100.9 399.602C1103.5 396.002 1104.2 391.202 1102.2 385.802ZM888.9 254.702H887.7C890.6 239.902 893.7 225.202 897.2 210.502C906.6 171.202 920.3 133.202 938.1 97.0016C944.1 109.902 950.1 122.802 956.2 135.702C974.1 173.802 992 212.002 1009.1 250.402C969.1 253.302 929 254.702 888.9 254.702Z" fill="#67BDE0"/>
<path d="M1377.3 46.2C1375.4 50.2 1371.7 53.4 1366.2 54.8C1328.1 64.4 1289.6 72.2 1250.8 78.1C1251.6 117.8 1252.6 157.5 1253.6 197.2L1253.7 201.3C1254.9 249.5 1256.2 297.6 1257 345.8C1257.1 351.5 1255 355.9 1251.6 358.8C1248.3 361.7 1243.8 363.1 1239.4 363.1C1235 363.1 1230.5 361.7 1227.1 358.8C1223.7 355.9 1221.3 351.6 1221.2 345.9C1220.3 297.8 1219.1 249.6 1217.9 201.4L1217.8 197.3C1216.8 159.2 1215.8 121.2 1215.1 83.1C1162.4 89.6 1109.2 92.8 1056 92.5C1053.1 92.5 1050.6 91.9 1048.5 90.9C1046.3 89.9 1044.5 88.5 1043.1 86.8C1040.2 83.4 1038.8 79 1038.8 74.6C1038.8 70.2 1040.2 65.8 1043.1 62.4C1046 59 1050.4 56.8 1056.1 56.8C1058.2 56.8 1060.3 56.8 1062.4 56.8C1113.3 56.8 1164.2 53.6 1214.6 47.1C1214.9 42.1 1216.9 38.2 1220 35.5C1223.4 32.6 1227.8 31.2 1232.2 31.2C1236.6 31.2 1241.1 32.6 1244.5 35.5C1246.5 37.2 1248.1 39.4 1249.1 42.1C1285.2 36.4 1321.1 29.1 1356.7 20.1C1358.3 19.7 1359.9 19.5 1361.4 19.5C1365 19.5 1368.2 20.6 1370.8 22.4C1374.5 24.9 1377 28.9 1378.2 33.2C1379.4 37.5 1379.2 42.3 1377.3 46.2Z" fill="#67BDE0"/>
<path d="M1706.2 50.3031C1706.4 48.8031 1706.4 47.3031 1706.4 45.8031C1706.4 42.4031 1706 38.9031 1705 35.2031C1702.4 25.6031 1693.2 21.7031 1685.1 22.7031C1681 23.2031 1677.1 24.9031 1674.2 27.8031C1671.3 30.8031 1669.6 34.9031 1669.9 40.0031C1670.1 43.1031 1670.2 46.2031 1670.4 49.4031C1670.2 49.9031 1670.1 50.5031 1669.9 51.0031C1669.8 51.2031 1669.7 51.4031 1669.7 51.6031C1669.6 51.8031 1669.5 52.1031 1669.3 52.4031C1667.9 55.5031 1666.3 58.5031 1664.6 61.6031L1664.4 62.0031C1662.7 65.2031 1661 68.4031 1659.5 71.7031C1651.7 89.8031 1648.4 109.403 1650.1 128.903C1649.2 129.603 1648.3 130.303 1647.4 131.003C1641.4 135.603 1635.3 140.303 1629.9 145.603C1624.2 151.703 1619.2 158.503 1615 165.703C1599 190.503 1573.9 210.803 1550.4 229.803C1548.2 231.603 1545.9 233.403 1543.7 235.203C1541.7 236.903 1539.6 238.503 1537.6 240.203C1512.9 260.303 1488.4 280.203 1466.6 302.603C1466.7 298.703 1466.8 294.803 1466.8 290.803C1466.8 279.203 1467.7 267.503 1468.7 255.503C1468.8 252.303 1469.2 249.103 1469.8 245.903C1470 245.003 1470.5 243.503 1470.9 242.003C1471.1 241.403 1471.2 240.903 1471.4 240.403C1471.5 240.003 1471.6 239.603 1471.7 239.203C1471.7 239.003 1471.8 238.903 1471.8 238.803C1471.8 238.703 1471.9 238.503 1471.9 238.303V238.203C1475.6 228.103 1473.3 218.303 1471 208.403C1470.8 207.503 1470.6 206.503 1470.3 205.603C1469.4 201.503 1468.4 197.403 1467.4 193.303C1465 183.103 1462.6 173.003 1460.6 162.703C1452.7 121.103 1451.2 76.7031 1469.4 37.8031C1474.2 27.5031 1468.8 17.8031 1461.3 13.4031C1457.5 11.2031 1453.1 10.2031 1448.9 11.1031C1444.7 12.0031 1440.9 14.9031 1438.5 20.0031L1438 21.1031L1438.6 21.4031C1421.6 59.9031 1415.8 102.603 1422.2 144.303C1424.5 161.803 1427.7 179.103 1431.8 196.203C1432.5 199.203 1433.2 202.203 1433.9 205.203C1434.9 209.303 1435.8 213.303 1436.7 217.403C1437.3 220.003 1437.8 222.503 1438.4 225.103C1438.5 225.603 1438.5 226.103 1438.6 226.603C1437 230.303 1436 234.403 1435.3 238.503C1434.5 243.403 1434.1 248.403 1433.7 253.003C1433.6 254.403 1433.5 255.703 1433.4 256.903C1432.3 269.403 1431.9 282.003 1431.4 294.603C1431.2 298.803 1431.1 302.903 1430.9 307.003C1430.3 321.403 1429.6 338.903 1427.8 351.703C1422.7 359.803 1418 368.403 1413.8 377.403C1412.3 380.103 1411.5 383.203 1411.6 386.303C1411.6 389.403 1412.4 392.503 1414 395.203C1415.6 397.903 1417.8 400.203 1420.5 401.703C1423.2 403.303 1426.2 404.203 1429.3 404.203C1440.3 404.903 1447.7 398.903 1452.7 390.803C1457.3 383.403 1459.8 374.103 1461.2 366.303C1467.8 356.003 1475 346.303 1482.9 337.003C1490.8 327.703 1499.4 319.003 1508.5 310.903C1521.4 299.203 1534.9 288.103 1548.6 277.203C1550.7 275.503 1552.8 273.903 1554.8 272.203C1566.4 262.903 1578 253.603 1589.2 244.003C1596.7 237.703 1603.9 231.103 1610.9 224.203C1617.9 217.403 1624.7 210.303 1631.3 203.103C1637.2 196.503 1642.6 189.403 1647.4 181.903C1648.7 179.903 1650 177.803 1651.4 175.803L1651.5 175.603C1652.2 174.603 1652.9 173.603 1653.3 173.203C1653.3 173.203 1653.3 173.203 1653.4 173.103C1660 166.903 1666.9 161.003 1674.2 155.603C1674.7 225.903 1670.5 296.203 1655.5 364.603C1653.1 375.803 1660.5 383.803 1669 386.103C1673.2 387.303 1677.8 387.103 1681.7 385.203C1685.6 383.303 1688.7 379.603 1689.9 374.003C1712.8 267.803 1712.1 158.003 1706.2 50.3031ZM1652.2 173.103C1652.1 173.103 1651.9 173.003 1651.8 172.903C1651.8 172.803 1651.9 172.803 1651.9 172.703L1652.3 173.103C1652.3 173.103 1652.3 173.103 1652.2 173.103Z" fill="#67BDE0"/>
<path d="M2052.4 245.003C2052 245.503 2052.2 246.103 2052.2 246.703V248.603C2051.7 256.103 2050.2 263.303 2047.9 270.403C2043.4 284.303 2036.1 296.703 2027.3 308.203C2019.1 319.003 2009.9 329.003 2000.3 338.603C1991.3 347.703 1982.1 356.703 1973 365.703C1965.3 373.403 1952.1 372.903 1945 364.603C1944.6 364.103 1944.1 363.803 1943.5 363.703C1941.3 363.303 1939 363.003 1936.7 363.003C1932.6 363.003 1928.6 363.403 1924.5 363.603C1923.5 363.703 1922.8 363.903 1922 364.503C1917.5 368.103 1913 371.603 1908.4 375.103C1895.8 384.703 1882.8 393.603 1869.6 402.203C1858.6 409.303 1846.6 413.503 1833.6 414.703C1833.2 414.603 1833 413.803 1832.4 414.603C1832.3 414.803 1831.7 414.603 1831.4 414.703C1830.8 414.703 1830.2 414.503 1829.7 414.903C1830.9 414.703 1832.2 414.803 1833.4 414.803H1833.6C1836.5 414.703 1839.3 414.603 1842.1 414.003C1851.2 412.203 1859.7 408.903 1867.5 404.103C1875.6 399.103 1883.4 393.803 1891.1 388.303C1901.8 380.803 1912.2 373.103 1922.3 364.903C1923 364.403 1923.7 364.103 1924.5 364.103C1927 363.903 1929.6 363.803 1932.1 363.603C1935.8 363.303 1939.5 363.403 1943.2 364.103C1943.7 364.203 1944.1 364.403 1944.5 364.803C1949.3 370.003 1955.2 372.103 1962.2 371.303C1966.4 370.803 1970.1 369.103 1973.1 366.103C1978.9 360.403 1984.6 354.503 1990.5 348.903C1995.5 344.103 2000.5 339.103 2005.3 334.003C2008.7 330.403 2012.2 326.803 2015.5 323.103C2020.2 317.803 2024.7 312.403 2028.9 306.703C2033.5 300.503 2037.7 294.003 2041.3 287.203C2044.5 281.103 2047.1 274.703 2049.1 268.103C2051 261.703 2052.3 255.103 2052.2 248.403V246.503V246.403C2052.4 246.003 2052.2 245.503 2052.4 245.003ZM1947.7 359.403C1947.7 359.803 1947.9 360.003 1948.2 360.303C1948.4 359.603 1948.2 359.403 1947.7 359.403ZM1920.8 361.703C1920.8 361.803 1920.8 362.003 1920.9 362.003C1921.3 362.203 1921.5 361.803 1921.8 361.503C1921.4 361.403 1921 361.203 1920.8 361.703ZM1916.3 326.103C1915.8 326.103 1915.4 326.103 1914.9 326.103V326.303C1915.3 326.303 1915.8 326.303 1916.2 326.303C1916.5 326.303 1916.8 326.403 1917.1 326.103C1916.7 326.103 1916.5 326.103 1916.3 326.103ZM1867.5 196.703C1867.3 196.703 1867.2 196.903 1867.1 197.103C1867 197.303 1867.2 197.403 1867.3 197.403C1867.5 197.403 1867.7 197.303 1867.7 197.003C1867.6 196.903 1867.7 196.603 1867.5 196.703ZM1832.8 410.103C1832.6 410.403 1832.6 410.703 1832.8 410.903C1833 410.703 1832.9 410.403 1832.8 410.103ZM1828.1 414.903C1821.5 414.203 1815.5 412.103 1810 408.503C1803.2 404.103 1798 398.203 1793.5 391.703C1787.9 383.703 1783.6 374.903 1779.5 366.103C1779.3 365.703 1779.3 365.303 1778.8 365.003C1778.5 365.603 1778.3 366.103 1778.1 366.603C1775.1 373.003 1771.6 379.103 1767.5 384.803C1767.3 385.103 1767.1 385.703 1766.5 385.303C1765.8 384.903 1765.5 385.303 1765.1 385.703C1763.2 387.803 1760.9 389.403 1758.3 390.403C1751.5 392.903 1745.1 391.703 1739.1 387.803C1734.7 384.803 1731.7 380.803 1731 375.303V371.703C1731.1 370.703 1731.3 369.703 1731.6 368.803C1732.3 366.403 1733.8 364.403 1735 362.203C1742.3 349.503 1747.2 336.003 1750.4 321.803C1754.1 305.403 1755.2 288.703 1755.4 271.903C1755.5 260.703 1755.1 249.403 1754.7 238.203C1754.3 227.003 1753.9 215.803 1753.6 204.703C1753.4 198.603 1753.5 192.503 1753.7 186.303C1753.9 178.203 1754.3 170.203 1755.2 162.103C1756.5 150.303 1758.6 138.803 1762.1 127.503C1762.3 126.803 1762.3 126.303 1761.9 125.703C1760.2 122.803 1759.2 119.703 1758.5 116.403C1757.5 110.803 1757.6 105.103 1757.8 99.4026C1758 93.3026 1758.3 87.3026 1757.9 81.2026C1757.4 75.1026 1755 70.0026 1750.7 65.7026C1749 64.0026 1747.2 62.3026 1745.5 60.5026C1742.8 57.7026 1740.7 54.6026 1740.2 50.7026C1739.8 47.2026 1740.3 43.9026 1741.7 40.7026C1745.9 30.9026 1752.3 22.9026 1760.8 16.6026C1766.1 12.7026 1771.9 10.3026 1778.5 9.90263C1780.1 9.90263 1781.7 9.90263 1783.3 9.90263V9.80263H1783.2H1783.1H1778.5C1773.4 9.70263 1768.7 10.9026 1764.3 13.6026C1757.9 17.5026 1752.5 22.6026 1748 28.6026C1745 32.7026 1742.1 37.0026 1740.6 42.0026C1738.5 48.6026 1739.3 54.7026 1744.2 59.9026C1746.4 62.3026 1748.8 64.6026 1751.1 66.9026C1754.1 70.1026 1756.4 73.7026 1757 78.2026C1757.5 82.2026 1757.8 86.1026 1757.7 90.1026C1757.5 95.0026 1757.3 99.8026 1757.2 104.703C1757.1 107.503 1757.4 110.203 1757.6 112.903C1758 117.303 1759 121.503 1761.2 125.403C1761.6 126.203 1761.7 126.903 1761.4 127.803C1759.8 133.003 1758.5 138.303 1757.4 143.603C1755.3 154.003 1754.2 164.503 1753.5 175.103C1753.2 180.403 1753 185.603 1753 190.903C1753 196.103 1752.8 201.403 1753.2 206.603C1753.4 209.903 1753.2 213.203 1753.4 216.403C1753.6 220.903 1753.7 225.503 1753.9 230.003C1754.1 234.203 1754.2 238.403 1754.4 242.603C1754.6 248.403 1754.8 254.203 1754.9 260.003C1755.1 268.203 1755 276.503 1754.5 284.703C1754.3 289.203 1754 293.803 1753.5 298.303C1752.9 304.403 1752.1 310.403 1750.9 316.403C1749.3 324.803 1747.1 333.103 1744.1 341.103C1741.3 348.603 1738 355.903 1733.8 362.703C1732.1 365.403 1730.6 368.203 1730.7 371.503V375.003V375.103C1730.7 377.303 1731.1 379.303 1732.3 381.303C1734.7 385.503 1738.3 388.403 1742.6 390.203C1750 393.403 1758.8 392.603 1764.9 386.303C1765.3 385.903 1765.8 385.503 1766.4 385.503C1767.1 385.503 1767.6 385.103 1768 384.503C1771.9 378.903 1775.4 373.003 1778.3 366.803C1778.4 366.503 1778.4 366.103 1778.8 365.903C1779.1 366.403 1779.3 366.803 1779.5 367.303C1782.3 373.303 1785.2 379.203 1788.5 384.903C1792.6 391.803 1797.2 398.203 1803.1 403.603C1807 407.103 1811.3 410.003 1816.1 412.103C1819.1 413.403 1822.1 414.503 1825.4 414.603C1826.6 414.603 1827.8 414.603 1828.9 414.903C1828.8 414.803 1828.4 414.903 1828.1 414.903ZM2052.3 237.703V237.603V235.703H2052.2V237.603C2052.2 238.103 2052.1 238.603 2052.4 239.103C2052.2 238.603 2052.4 238.103 2052.3 237.703Z" fill="#67BDE0"/>
<path d="M2052.4 239C2052 238.5 2052.2 238 2052.2 237.5V235.6H2052.3C2052.1 231.7 2052 227.8 2051.3 223.9C2050.6 219.8 2048.9 216.1 2045.9 213.1C2040.7 207.9 2034.4 206.2 2027.2 207.7C2026.1 207.9 2025.3 207.7 2024.4 207.2C2022 205.6 2019.8 203.7 2017.8 201.7C2014.8 198.7 2012.1 195.4 2009.7 191.9C2005.5 185.8 2002.3 179.2 1998.9 172.7C1996.7 168.4 1994.6 163.9 1992.2 159.7C1988.3 153 1984 146.6 1978.2 141.5C1974.6 138.3 1970.7 135.6 1966.3 133.6C1959.6 130.5 1952.5 128.8 1945.1 128.4C1939.1 128 1933 128.5 1927.2 130C1914.9 133 1904.5 139.3 1896.1 148.8C1891.9 153.6 1888.3 158.8 1885.4 164.5C1884.7 165.9 1884.7 165.9 1883.2 165.2C1877.8 162.8 1872.1 161.4 1866.2 161.3C1862.6 161.2 1859.1 161.8 1855.7 162.8C1854.3 163.2 1853 163.9 1851.9 164.4C1852.1 164.1 1852.1 163.7 1852.1 162.7C1852 159.5 1851.8 156.3 1851.7 153.1C1851.6 149.9 1851.3 146.7 1851.1 143.5C1850.8 139.3 1850.4 135.2 1850 131C1849.6 126.8 1849.1 122.6 1848.7 118.4C1848.1 113.3 1847.4 108.2 1846.7 103.1C1845.8 96.8 1844.7 90.6 1843.6 84.3C1842.9 80.4 1842.2 76.6 1841.4 72.8C1841.2 71.8 1841.4 71.1 1842.4 70.5C1844.2 69.5 1845.9 68.3 1847.6 67.1C1851.5 64.5 1855.2 61.5 1858.1 57.7C1861.2 53.6 1862.7 49 1862 43.9C1861.3 38.6 1858.7 34.3 1854.5 30.9C1850.3 27.6 1845.6 26.2 1840.3 26.8C1835.6 27.4 1831 28.6 1826.4 29.9C1822.4 31 1818.4 32.2 1814.3 32.9C1812.8 33.2 1812.7 33.1 1812.3 31.7C1811.8 29.6 1811.1 27.5 1810 25.7C1804 15.6 1795.2 10.2 1783.4 10C1783.4 10 1783.4 10 1783.4 10.1C1781.8 10.1 1780.2 10.1 1778.6 10.1C1772 10.5 1766.2 12.9 1760.9 16.8C1752.4 23.2 1745.9 31.1 1741.8 40.9C1740.5 44.1 1739.9 47.4 1740.3 50.9C1740.8 54.9 1743 57.9 1745.6 60.7C1747.3 62.5 1749 64.2 1750.8 65.9C1755.1 70.2 1757.5 75.2 1758 81.4C1758.5 87.5 1758.2 93.5 1757.9 99.6C1757.7 105.3 1757.6 110.9 1758.6 116.6C1759.2 119.9 1760.2 123 1762 125.9C1762.4 126.5 1762.4 127 1762.2 127.7C1758.7 139 1756.5 150.6 1755.3 162.3C1754.4 170.3 1754 178.4 1753.8 186.5C1753.6 192.6 1753.6 198.7 1753.7 204.9C1754 216.1 1754.4 227.3 1754.8 238.4C1755.2 249.6 1755.6 260.9 1755.5 272.1C1755.3 288.9 1754.2 305.6 1750.5 322C1747.3 336.2 1742.4 349.7 1735.1 362.4C1733.9 364.5 1732.4 366.6 1731.7 369C1731.4 370 1731.2 370.9 1731.1 371.9V375.5C1731.8 380.9 1734.8 385 1739.2 388C1745.1 392 1751.5 393.1 1758.4 390.6C1761.1 389.6 1763.3 388 1765.2 385.9C1765.6 385.5 1765.9 385 1766.6 385.5C1767.2 385.9 1767.4 385.3 1767.6 385C1771.7 379.2 1775.2 373.2 1778.2 366.8C1778.4 366.3 1778.7 365.8 1778.9 365.2C1779.3 365.5 1779.4 365.9 1779.6 366.3C1783.7 375.1 1788 383.9 1793.6 391.9C1798.1 398.4 1803.4 404.3 1810.1 408.7C1815.6 412.3 1821.7 414.4 1828.2 415.1C1828.5 415.1 1828.9 415 1829.2 415.4H1829.9C1830.4 415 1831 415.2 1831.6 415.2C1832 415.2 1832.5 415.3 1832.6 415.1C1833.1 414.4 1833.4 415.1 1833.8 415.2C1846.8 413.9 1858.8 409.7 1869.8 402.7C1883.1 394.1 1896.1 385.2 1908.6 375.6C1913.2 372.1 1917.7 368.6 1922.2 365C1923 364.4 1923.7 364.1 1924.7 364.1C1928.8 363.9 1932.8 363.4 1936.9 363.5C1939.2 363.5 1941.4 363.8 1943.7 364.2C1944.3 364.3 1944.8 364.6 1945.2 365.1C1952.3 373.4 1965.5 373.9 1973.2 366.2C1982.3 357.1 1991.5 348.2 2000.5 339.1C2010.1 329.5 2019.3 319.6 2027.5 308.7C2036.3 297.1 2043.6 284.8 2048.1 270.9C2050.4 263.8 2051.8 256.5 2052.4 249.1V247.2C2052.4 246.6 2052.2 246 2052.6 245.5V239H2052.4ZM1867.1 197.1C1867.2 196.9 1867.3 196.8 1867.5 196.7C1867.7 196.6 1867.6 196.9 1867.7 197C1867.7 197.3 1867.6 197.4 1867.3 197.4C1867.1 197.3 1867 197.3 1867.1 197.1ZM1832.8 411C1832.6 410.7 1832.6 410.5 1832.8 410.2C1832.9 410.4 1833 410.7 1832.8 411ZM1916.2 326.3C1915.8 326.3 1915.4 326.3 1914.9 326.3V326.1C1915.4 326.1 1915.8 326.1 1916.3 326.1C1916.5 326.1 1916.7 326.1 1917.1 326.2C1916.7 326.4 1916.4 326.3 1916.2 326.3ZM1920.9 362C1920.8 362 1920.8 361.8 1920.8 361.7C1921 361.2 1921.3 361.4 1921.8 361.5C1921.5 361.8 1921.4 362.2 1920.9 362ZM1948.2 360.2C1947.8 360 1947.6 359.8 1947.7 359.3C1948.2 359.4 1948.4 359.6 1948.2 360.2ZM2014.7 247.3C2013.9 256.4 2011.1 264.9 2006.9 272.9C2002.4 281.4 1996.7 288.9 1990.4 296.1C1981.6 306 1971.9 314.9 1962.2 323.9C1961 325 1959.7 326.2 1958.5 327.4C1957.9 328.1 1957.2 328.2 1956.4 328C1947.1 325.8 1937.6 324.4 1928 324.5C1920.3 324.6 1912.8 325.7 1905.6 328.6C1902.5 329.9 1900.2 332.1 1898.3 334.8C1898 335.2 1897.7 335.6 1897.3 336C1885.8 344.9 1874.4 354 1862.3 362.1C1855.6 366.6 1848.8 370.8 1841.5 374.2C1839.8 375 1838.1 375.6 1836.3 375.9C1834.8 376.1 1833.4 376.5 1832.1 377.2C1831.6 377.4 1831.5 377.3 1831.1 377C1827.4 374 1824.9 370.2 1822.5 366.2C1818.3 359.2 1814.7 351.9 1811.4 344.4C1807.1 334.9 1797.6 332.3 1789.2 335.7C1788.9 335.8 1788.7 336 1788.2 335.9C1788.7 333.5 1789.1 331.1 1789.6 328.7C1791.1 320.6 1792 312.4 1792.7 304.1C1793.4 295.1 1793.6 286.1 1793.7 277C1793.9 267.7 1793.6 258.5 1793.5 249.2C1793.4 243 1793.2 236.9 1793 230.7C1792.8 222.9 1792.6 215.1 1792.6 207.3C1792.6 195.9 1793 184.4 1794.1 173.1C1795.6 156.2 1798.7 139.7 1804.5 123.8C1807.2 116.4 1803.9 107.1 1797.1 102.5C1796.3 102 1796 101.5 1796.1 100.5C1796.6 94.7 1797.4 88.8 1797.4 82.9C1797.4 80.7 1797.3 78.6 1797 76.4C1796.9 75.6 1797.1 75.3 1797.9 75.3C1799.1 75.2 1800.3 75 1801.5 74.8C1802.2 74.7 1802.6 74.9 1802.8 75.6C1804.9 85 1806.6 94.4 1808.1 103.9C1809.3 112 1810.3 120.1 1811.1 128.3C1811.7 134.4 1812.1 140.5 1812.4 146.6C1813 157.3 1813 168.1 1812.8 178.8C1812.6 188 1812 197.1 1811.2 206.2C1810.2 218.1 1808.6 230 1806.6 241.7C1806.1 244.5 1805.6 247.3 1805.1 250.1C1803 260.7 1809.3 270.2 1820.1 272.2C1827.8 273.7 1834.5 271.7 1839.4 265.3C1840.9 263.4 1841.7 261.1 1842.5 258.8C1846 247.8 1849.3 236.7 1853.4 225.9C1856.6 217.7 1860.2 209.8 1865.4 202.6C1865.6 202.3 1865.8 202 1866.1 201.7C1867.8 199.4 1867.9 199.3 1870.3 200.8C1874.5 203.3 1878.4 206.2 1882.1 209.4C1888.7 215.2 1899.5 216.2 1906.6 211.6C1910.7 209 1913.1 205.2 1914.1 200.5C1915.6 193.4 1917.6 186.5 1921.3 180.1C1925 173.8 1929.9 169.1 1937 167C1939.5 166.3 1942 166.2 1944.4 166.9C1944.8 167 1945.2 167.1 1945.6 167.2C1949 167.4 1951.6 169.4 1954.4 171C1955.3 171.5 1955.7 172.7 1956.9 173C1957.2 173.1 1957 174.2 1957.2 174.9C1957.3 175.2 1957.3 175.5 1957.4 175.8C1963.8 190.5 1971.4 204.5 1981.1 217.4C1987 225.2 1993.5 232.4 2001.5 238.2C2005.2 240.9 2009.1 243.1 2013.3 244.7C2014.6 245.4 2014.8 246 2014.7 247.3Z" fill="#67BDE0"/>
<path d="M1783.2 10.0063C1783.1 10.1063 1783.1 10.0063 1783.1 10.0063C1783.1 10.0063 1783.1 9.90625 1783.2 9.90625C1783.2 9.90625 1783.2 9.90625 1783.2 10.0063Z" fill="#67BDE0"/>
<path d="M2052.4 235.602C2052.4 235.702 2052.3 235.702 2052.3 235.702C2052.3 235.702 2052.2 235.702 2052.2 235.602H2052.3C2052.4 235.602 2052.4 235.602 2052.4 235.602Z" fill="#67BDE0"/>
<path d="M2052.4 248.599H2052.3C2052.3 255.399 2051.1 261.899 2049.2 268.299C2047.3 274.899 2044.6 281.299 2041.4 287.399C2037.8 294.199 2033.7 300.699 2029 306.899C2024.8 312.599 2020.3 317.999 2015.6 323.299C2012.3 326.999 2008.8 330.599 2005.4 334.199C2000.6 339.299 1995.7 344.299 1990.6 349.099C1984.7 354.799 1979 360.599 1973.2 366.299C1970.1 369.299 1966.5 370.999 1962.3 371.499C1955.3 372.299 1949.4 370.199 1944.6 364.999C1944.2 364.599 1943.8 364.399 1943.3 364.299C1939.6 363.599 1936 363.399 1932.2 363.799C1929.7 363.999 1927.1 364.099 1924.6 364.299C1923.8 364.399 1923.1 364.599 1922.4 365.099C1912.3 373.299 1901.8 380.999 1891.2 388.499C1883.4 393.899 1875.6 399.299 1867.6 404.299C1859.7 409.099 1851.2 412.399 1842.2 414.199C1839.4 414.799 1836.5 414.899 1833.7 414.999V415.099L1833.6 414.999C1833.7 414.999 1833.7 414.999 1833.8 414.999C1846.8 413.699 1858.8 409.499 1869.8 402.499C1883.1 393.899 1896.1 384.999 1908.6 375.399C1913.2 371.899 1917.7 368.399 1922.2 364.799C1923 364.199 1923.7 363.899 1924.7 363.899C1928.8 363.699 1932.8 363.199 1936.9 363.299C1939.2 363.299 1941.4 363.599 1943.7 363.999C1944.3 364.099 1944.8 364.399 1945.2 364.899C1952.3 373.199 1965.5 373.699 1973.2 365.999C1982.3 356.899 1991.5 347.999 2000.5 338.899C2010.1 329.299 2019.3 319.399 2027.5 308.499C2036.3 296.899 2043.6 284.599 2048.1 270.699C2050.4 263.599 2051.8 256.299 2052.4 248.899C2052.4 248.799 2052.5 248.799 2052.5 248.799C2052.4 248.499 2052.4 248.499 2052.4 248.599Z" fill="#67BDE0"/>
<path d="M1741.6 40.9016C1740.3 44.1016 1739.7 47.4016 1740.1 50.9016C1740.6 54.9016 1742.8 57.9016 1745.4 60.7016C1747.1 62.5016 1748.8 64.2016 1750.6 65.9016C1754.9 70.2016 1757.3 75.2016 1757.8 81.4016C1758.3 87.5016 1758 93.5016 1757.7 99.6016C1757.5 105.302 1757.4 110.902 1758.4 116.602C1759 119.902 1760 123.002 1761.8 125.902C1762.2 126.502 1762.2 127.002 1762 127.702C1758.5 139.002 1756.3 150.602 1755.1 162.302C1754.2 170.302 1753.8 178.402 1753.6 186.502C1753.4 192.602 1753.4 198.702 1753.5 204.902C1753.8 216.102 1754.2 227.302 1754.6 238.402C1755 249.602 1755.4 260.902 1755.3 272.102C1755.1 288.902 1754 305.602 1750.3 322.002C1747.1 336.202 1742.2 349.702 1734.9 362.402C1733.7 364.502 1732.2 366.602 1731.5 369.002C1731.2 370.002 1731 370.902 1730.9 371.902C1730.9 372.002 1730.8 372.002 1730.8 372.002C1730.8 372.002 1730.7 372.002 1730.7 371.902H1730.8C1730.7 368.602 1732.2 365.802 1733.9 363.102C1738.1 356.302 1741.4 349.002 1744.2 341.502C1747.2 333.502 1749.4 325.202 1751 316.802C1752.2 310.802 1753 304.802 1753.6 298.702C1754 294.202 1754.3 289.602 1754.6 285.102C1755.1 276.902 1755.2 268.602 1755 260.402C1754.9 254.602 1754.8 248.802 1754.5 243.002C1754.3 238.802 1754.2 234.602 1754 230.402C1753.8 225.902 1753.7 221.302 1753.5 216.802C1753.3 213.502 1753.5 210.302 1753.3 207.002C1752.9 201.802 1753.1 196.502 1753.1 191.302C1753.1 186.002 1753.3 180.802 1753.6 175.502C1754.2 164.902 1755.4 154.402 1757.5 144.002C1758.6 138.702 1759.9 133.402 1761.5 128.202C1761.8 127.302 1761.7 126.602 1761.3 125.802C1759.1 121.902 1758.1 117.702 1757.7 113.302C1757.5 110.602 1757.2 107.802 1757.3 105.102C1757.5 100.202 1757.6 95.4016 1757.8 90.5016C1758 86.5016 1757.6 82.5016 1757.1 78.6016C1756.5 74.1016 1754.3 70.5016 1751.2 67.3016C1749 64.9016 1746.6 62.7016 1744.3 60.3016C1739.4 55.0016 1738.6 49.0016 1740.7 42.4016C1742.2 37.4016 1745.1 33.2016 1748.1 29.0016C1752.5 23.0016 1757.9 17.9016 1764.4 14.0016C1768.8 11.4016 1773.5 10.1016 1778.6 10.2016V10.1016C1778.7 10.1016 1778.7 10.2016 1778.7 10.2016L1778.6 10.3016C1772 10.7016 1766.2 13.1016 1760.9 17.0016C1752.2 23.1016 1745.8 31.1016 1741.6 40.9016Z" fill="#67BDE0"/>
<path d="M1829.1 415.1C1827.9 414.8 1826.7 414.8 1825.6 414.8C1822.3 414.7 1819.2 413.6 1816.3 412.3C1811.5 410.2 1807.2 407.4 1803.3 403.8C1797.4 398.4 1792.8 391.9 1788.7 385.1C1785.3 379.4 1782.4 373.5 1779.7 367.5C1779.5 367 1779.3 366.6 1779 366.1C1778.6 366.2 1778.6 366.7 1778.5 367C1775.6 373.2 1772.1 379.1 1768.2 384.7C1767.8 385.2 1767.4 385.7 1766.6 385.7C1765.9 385.7 1765.5 386 1765.1 386.5C1759 392.7 1750.2 393.5 1742.8 390.4C1738.4 388.5 1734.9 385.6 1732.5 381.5C1731.4 379.6 1731 377.5 1730.9 375.3C1730.8 375.3 1730.8 375.3 1730.8 375.3C1730.8 375.2 1730.9 375.2 1730.9 375.2C1730.9 375.2 1731 375.2 1731 375.3C1731.7 380.7 1734.7 384.8 1739.1 387.8C1745 391.8 1751.4 392.9 1758.3 390.4C1761 389.4 1763.2 387.8 1765.1 385.7C1765.5 385.3 1765.8 384.8 1766.5 385.3C1767.1 385.7 1767.3 385.1 1767.5 384.8C1771.6 379 1775.1 373 1778.1 366.6C1778.3 366.1 1778.6 365.6 1778.8 365C1779.2 365.3 1779.3 365.7 1779.5 366.1C1783.6 374.9 1787.9 383.7 1793.5 391.7C1798 398.2 1803.3 404.1 1810 408.5C1815.5 412.1 1821.6 414.2 1828.1 414.9C1828.4 414.9 1828.8 414.8 1829.1 415.1Z" fill="#67BDE0"/>
<path d="M1783.2 10.0047C1781.6 10.0047 1780 10.0047 1778.4 10.0047V9.90469V9.80469H1783.2C1783.2 9.90469 1783.2 9.90469 1783.2 10.0047Z" fill="#67BDE0"/>
<path d="M1833.7 414.999C1833.7 415.099 1833.7 415.099 1833.7 415.199H1829.9C1830.4 414.799 1831 414.999 1831.6 414.999C1832 414.999 1832.5 415.099 1832.6 414.899C1833 414.099 1833.3 414.899 1833.7 414.999Z" fill="#67BDE0"/>
<path d="M1730.9 371.703V375.303H1730.8C1730.7 375.303 1730.7 375.303 1730.7 375.303V371.703C1730.7 371.703 1730.8 371.703 1730.9 371.703C1730.8 371.703 1730.8 371.703 1730.9 371.703Z" fill="#67BDE0"/>
<path d="M2052.4 235.602V237.502C2052.4 237.602 2052.3 237.602 2052.3 237.602C2052.3 237.602 2052.2 237.602 2052.2 237.502V235.602H2052.3C2052.4 235.602 2052.4 235.602 2052.4 235.602Z" fill="#67BDE0"/>
<path d="M2052.4 246.7V248.6H2052.3H2052.2V246.7C2052.2 246.6 2052.3 246.5 2052.3 246.5C2052.4 246.6 2052.4 246.6 2052.4 246.7Z" fill="#67BDE0"/>
<path d="M2052.4 245V246.7H2052.3H2052.2C2052.2 246.1 2052.1 245.5 2052.4 245Z" fill="#67BDE0"/>
<path d="M2052.4 237.6V239C2052 238.5 2052.2 238 2052.2 237.5H2052.3C2052.4 237.5 2052.4 237.5 2052.4 237.6Z" fill="#67BDE0"/>
<path d="M1917.1 326.2C1916.8 326.5 1916.5 326.4 1916.2 326.4C1915.8 326.4 1915.4 326.4 1914.9 326.4V326.2C1915.4 326.2 1915.8 326.2 1916.3 326.2C1916.5 326.1 1916.7 326.1 1917.1 326.2Z" fill="#67BDE0"/>
<path d="M1921.8 361.5C1921.5 361.9 1921.3 362.2 1920.9 362C1920.8 362 1920.8 361.8 1920.8 361.7C1921 361.2 1921.4 361.4 1921.8 361.5Z" fill="#67BDE0"/>
<path d="M1867.7 197C1867.7 197.3 1867.6 197.4 1867.3 197.4C1867.1 197.4 1867 197.3 1867.1 197.1C1867.2 196.9 1867.3 196.8 1867.5 196.7C1867.7 196.6 1867.6 196.9 1867.7 197Z" fill="#67BDE0"/>
<path d="M1948.2 360.205C1947.8 360.005 1947.6 359.805 1947.7 359.305C1948.2 359.405 1948.4 359.605 1948.2 360.205Z" fill="#67BDE0"/>
<path d="M1832.8 411.003C1832.6 410.703 1832.6 410.503 1832.8 410.203C1832.9 410.403 1833 410.703 1832.8 411.003Z" fill="#67BDE0"/>
</svg>
