<?xml version="1.0" encoding="utf-8"?>
<!-- Generator: Adobe Illustrator 25.4.1, SVG Export Plug-In . SVG Version: 6.00 Build 0)  -->
<svg version="1.1" id="Слой_1" xmlns="http://www.w3.org/2000/svg" xmlns:xlink="http://www.w3.org/1999/xlink" x="0px" y="0px"
	 viewBox="0 0 2063 425" style="enable-background:new 0 0 2063 425;" xml:space="preserve">
<style type="text/css">
	.st0{fill:#67BDE0;}
</style>
<path class="st0" d="M250.2,56.7c-0.9,4.3-3.6,8.3-8.6,11c-40.7,21.7-73.9,52-105,85c-13.2,14-26,28.5-38.8,42.9
	c-2.3,2.6-4.5,5.1-6.8,7.7c-4.6,5.2-9.2,10.4-13.8,15.5c30.3,3.6,57.7,18.7,81.7,39.5c36.5,31.8,65.1,77.1,83.6,116.2
	c5,10.3-0.5,20-8.1,24.4c-3.8,2.2-8.3,3.2-12.5,2.3c-4.2-0.9-8-3.8-10.4-8.9c-15-31.5-38.1-71.4-67.8-100.3
	c-29.2-28.4-64.7-45.9-105.1-34.5c0.3,32,0.6,64,0.9,96c0.1,5.7-2.1,10-5.5,13c-3.4,2.9-7.8,4.3-12.2,4.3c-4.4,0-8.9-1.4-12.3-4.3
	c-3.4-2.9-5.7-7.3-5.7-13C2.9,246.8,1.9,140,0.8,33.3c-0.1-5.7,2.1-10,5.5-13c3.4-2.9,7.8-4.3,12.2-4.3s8.9,1.4,12.3,4.3
	c3.4,2.9,5.7,7.3,5.7,13c0.5,58.5,1.1,116.9,1.6,175.4c9.7-10.4,19.2-21.1,28.8-31.8c1.8-2,3.6-4,5.4-6.1
	c13.8-15.5,27.5-31,41.7-45.9c32.1-33.8,66.6-65,108.9-87.4l0.2-0.3l0.2-0.3l0.3-0.2c10.2-5.4,19.8-0.2,24.2,7.3
	C250,47.8,251,52.4,250.2,56.7z"/>
<g>
	<path class="st0" d="M549.6,139.4c-0.1,0-0.2,0-0.2,0c-0.6,7.4-2.1,14.5-5.8,21c-4.8,8.2-12,12.9-21.3,14.6c-1.5,0.3-2.3,0.8-3,2.2
		c-4,7.5-9.6,13.9-16,19.5c-13.9,12.2-30.1,20.4-47.2,26.9c-15.1,5.8-30.7,9.9-46.5,12.9c-6.5,1.2-13,2.1-19.5,2.8
		c-8.3,0.9-16.7,1.3-25.1,1.5c-4.7,0.1-9.4,0-14.1-0.2c-5.7-0.2-11.5-0.4-17.2-1.3c-3.5-0.6-6.6-2.3-9.4-4.8c0.6-0.2,1,0.4,1.5,0.8
		c3.4,2.7,7.4,3.8,11.7,4.2c4.3,0.3,8.7,0.6,13,0.9c0.6,0.1,1.1,0,1.7,0c2.6,0.1,5.3,0.1,7.9,0.2c4.5,0,9,0,13.5-0.3
		c1.8-0.1,3.5-0.1,5.3-0.2c11.2-0.7,22.3-2.1,33.3-4.2c13.2-2.5,26.1-6,38.8-10.4c14.3-5,28-11.4,40.7-19.8
		c6.9-4.5,13.1-9.8,18.7-15.9c3.6-3.9,6.7-8.2,9.1-12.9c0.5-1.1,1.3-1.6,2.5-1.8c4.9-0.8,9.4-2.6,13.4-5.5
		c5.1-3.7,8.5-8.6,10.7-14.4c1.6-4.4,2.6-8.9,3.1-13.5c0.1-0.7,0.1-1.4,0.4-2c0,0,0.1-0.1,0.1-0.1h0
		C549.4,139.3,549.5,139.4,549.6,139.4z"/>
	<path class="st0" d="M284.9,204.7l-0.1,0v-28.6c0,0,0.1,0,0.1,0c0,3.2,0,6.4,0,9.6C284.9,192,284.9,198.4,284.9,204.7z"/>
	<path class="st0" d="M549.3,130v-2.2c-0.5-6.9-1.6-13.8-3.1-20.5c-2.9-12.5-6.2-24.8-10.3-37c-1.2-3.7-2.5-7.4-3.8-11.1
		c-0.9-2.5-1.2-5.1-1.9-7.7c-1.8-7.2-6.5-12-12.3-16.1c-5-3.6-10.7-5.6-16.5-7.4c-11.6-3.6-23.5-6.4-35.5-8.3
		c-6.6-1-13.3-1.8-20-2.3c-8-0.6-16.1-1.3-24.1-1.8c-4.9-0.3-9.8-0.5-14.7-0.8c-6.2-0.4-12.4-0.6-18.7-0.8
		c-5.8-0.1-11.5-0.3-17.2-0.5c-1.9,0-3.8,0-5.8,0h-13.7c-2,0-4,0-6,0c0,0,0,0,0-0.1h25.5c5.2-0.1,10.4,0.1,15.6,0.1
		c4.3,0,8.6,0.2,12.9,0.4c4.7,0.2,9.5,0.4,14.2,0.7c6.4,0.4,12.8,0.8,19.1,1.3c4.8,0.4,9.6,0.7,14.5,1.1c7.6,0.6,15.3,1.6,22.8,2.9
		c12.3,2.2,24.4,5.3,36.2,9.2c6.6,2.2,12.3,5.8,17.3,10.6c3.4,3.3,5.6,7.3,6.6,11.8c1.5,6.8,3.9,13.3,6.2,19.9
		c2.8,8.3,5,16.8,7.3,25.2c2.2,8,3.9,16.1,5,24.3c0.3,2.2,0.3,4.4,0.4,6.7v2.2c0,0,0,0.1,0,0.1c0,0.6-0.1,1.2,0.1,1.8
		C549.1,131.4,549.4,130.7,549.3,130z"/>
	<path class="st0" d="M549.4,139.4C549.4,139.4,549.3,139.4,549.4,139.4c-0.6,7.4-2.1,14.6-5.8,21.1c-4.8,8.2-12,12.9-21.3,14.6
		c-1.5,0.3-2.3,0.8-3,2.2c-4,7.5-9.6,13.9-16,19.5c-13.9,12.2-30.1,20.4-47.2,26.9c-15.1,5.8-30.7,9.9-46.5,12.9
		c-6.5,1.2-13,2.1-19.5,2.8c-8.3,0.9-16.7,1.3-25.1,1.5c-4.7,0.1-9.4,0-14.1-0.2c-5.7-0.2-11.5-0.4-17.2-1.3
		c-3.5-0.6-6.6-2.3-9.4-4.8c0.6-0.2,1,0.4,1.5,0.8c3.4,2.7,7.4,3.8,11.7,4.2c4.3,0.3,8.7,0.6,13,0.9c0.6,0.1,1.1,0,1.7,0
		c2.6,0.1,5.3,0.1,7.9,0.2c4.5,0,9,0,13.5-0.3c1.8-0.1,3.5-0.1,5.3-0.2c11.2-0.7,22.3-2.1,33.3-4.2c13.2-2.5,26.1-6,38.8-10.4
		c14.3-5,28-11.4,40.7-19.8c6.9-4.5,13.1-9.8,18.7-15.9c3.6-3.9,6.7-8.2,9.1-12.9c0.5-1.1,1.3-1.6,2.5-1.8c4.9-0.8,9.4-2.6,13.4-5.5
		c5.1-3.7,8.5-8.6,10.7-14.4c1.6-4.4,2.6-8.9,3.1-13.5c0.1-0.7,0.1-1.4,0.4-2C549.3,139.4,549.3,139.4,549.4,139.4l0-1.9
		c0.1-0.7-0.2-1.3,0.2-1.9c-0.2,0.6-0.1,1.3-0.1,1.9v0.1C549.4,138.2,549.5,138.8,549.4,139.4z"/>
	<path class="st0" d="M549.6,127.9c0,0.1-0.1,0.1-0.1,0.1c0,0-0.1,0-0.1-0.1c-0.5-6.9-1.6-13.8-3.1-20.5c-2.9-12.5-6.2-24.8-10.3-37
		c-1.2-3.7-2.5-7.4-3.8-11.1c-0.9-2.5-1.2-5.1-1.9-7.7c-1.8-7.2-6.5-12-12.3-16.1c-5-3.6-10.7-5.6-16.5-7.4
		c-11.6-3.6-23.5-6.4-35.5-8.3c-6.6-1-13.3-1.8-20-2.3c-8-0.6-16.1-1.3-24.1-1.8c-4.9-0.3-9.8-0.5-14.7-0.8
		c-6.2-0.4-12.4-0.6-18.7-0.8c-5.8-0.1-11.5-0.3-17.2-0.5c-0.1,0-0.1,0-0.1-0.1c0,0,0,0,0,0c0,0,0-0.1,0.1-0.1c0,0,0,0.1,0,0.1
		c5.2-0.1,10.4,0.1,15.6,0.1c4.3,0,8.6,0.2,12.9,0.4c4.7,0.2,9.5,0.4,14.2,0.7c6.4,0.4,12.8,0.8,19.1,1.3c4.8,0.4,9.6,0.7,14.5,1.1
		c7.6,0.6,15.3,1.6,22.8,2.9c12.3,2.2,24.4,5.3,36.2,9.2c6.6,2.2,12.3,5.8,17.3,10.6c3.4,3.3,5.6,7.3,6.6,11.8
		c1.5,6.8,3.9,13.3,6.2,19.9c2.8,8.3,5,16.8,7.3,25.2c2.2,8,3.9,16.1,5,24.3c0.3,2.2,0.3,4.4,0.4,6.7
		C549.5,127.9,549.5,127.9,549.6,127.9z"/>
	<path class="st0" d="M284.9,176.1C284.8,176.2,284.8,176.2,284.9,176.1c-0.1,0.1-0.2,0.1-0.2,0
		C284.7,176.1,284.7,176.1,284.9,176.1C284.8,176.1,284.8,176.1,284.9,176.1z"/>
	<path class="st0" d="M345.9,13.5C345.9,13.6,345.9,13.6,345.9,13.5C345.9,13.6,345.9,13.6,345.9,13.5
		C345.8,13.6,345.8,13.6,345.9,13.5c-0.1,0-0.1-0.1-0.1-0.1C345.9,13.5,346,13.5,345.9,13.5z"/>
	<path class="st0" d="M284.9,204.7l-0.1,0h0l-0.1,0c0-0.1,0.1-0.1,0.1-0.1C284.8,204.6,284.8,204.6,284.9,204.7z"/>
	<path class="st0" d="M284.9,204.7l-0.1,0h0l-0.1,0v-19c0-0.1,0.1-0.1,0.1-0.1c0,0,0.1,0,0.1,0C284.9,192,284.9,198.4,284.9,204.7z"
		/>
	<path class="st0" d="M365.6,13.5C365.6,13.6,365.6,13.6,365.6,13.5C365.6,13.6,365.6,13.6,365.6,13.5l-13.8,0.1
		c0,0-0.1-0.1-0.1-0.1c0,0,0,0,0-0.1c0,0,0-0.1,0.1-0.1h13.7C365.6,13.5,365.6,13.5,365.6,13.5z"/>
	<path class="st0" d="M284.9,176.1c0,3.2,0,6.4,0,9.6c0,0,0,0-0.1,0c0,0-0.1,0-0.1,0v-9.6C284.7,176.1,284.7,176.1,284.9,176.1
		C284.8,176.1,284.8,176.1,284.9,176.1z"/>
	<path class="st0" d="M351.8,13.4c0,0,0,0.1,0,0.1v0.1c-2,0-4,0-6,0c0,0,0,0,0-0.1c0,0,0-0.1,0-0.1H351.8z"/>
	<path class="st0" d="M371.3,13.5C371.3,13.6,371.3,13.6,371.3,13.5c-1.9,0.1-3.8,0.1-5.8,0.1c0,0,0-0.1,0-0.1c0,0,0-0.1,0-0.1h5.8
		C371.3,13.5,371.3,13.5,371.3,13.5z"/>
	<path class="st0" d="M549.6,127.9v2.2c0,0-0.1,0.1-0.1,0.1c0,0-0.1,0-0.1-0.1v-2.2c0,0,0.1,0,0.1,0
		C549.5,127.9,549.5,127.9,549.6,127.9z"/>
	<path class="st0" d="M549.6,130v1.9c-0.5-0.6-0.2-1.3-0.2-1.9c0,0,0.1,0,0.1,0C549.5,130,549.5,130,549.6,130z"/>
	<path class="st0" d="M549.6,135.6v1.9c0,0.1-0.1,0.1-0.1,0.1c0,0-0.1,0-0.1-0.1C549.4,136.9,549.1,136.2,549.6,135.6z"/>
	<path class="st0" d="M549.6,132c-0.5-0.6-0.2-1.3-0.2-1.9v-2.2c-0.5-6.9-1.6-13.8-3.1-20.5c-2.9-12.5-6.2-24.8-10.3-37
		c-1.2-3.7-2.5-7.4-3.8-11.1c-0.9-2.5-1.2-5.1-1.9-7.7c-1.8-7.2-6.5-12-12.3-16.1c-5-3.6-10.7-5.6-16.5-7.4
		c-11.6-3.6-23.5-6.4-35.5-8.3c-6.6-1-13.3-1.8-20-2.3c-8-0.6-16.1-1.3-24.1-1.8c-4.9-0.3-9.8-0.5-14.7-0.8
		c-6.2-0.4-12.4-0.6-18.7-0.8c-5.8-0.1-11.5-0.3-17.2-0.5c-1.9,0-3.8,0-5.8,0h-13.7c-2,0-4,0-6,0c0,0,0,0,0-0.1
		c-6.3,0-12.6,0.2-18.9,0.2c-3.2,0-6.3,0.2-9.5,0.3c-2.4,0.1-4.8,0.1-7.2,0.4c-8.9,1.1-16.3,8-17.4,17c-0.8,6.6-1.4,13.3-2,19.9
		c-1,10.1-1.8,20.1-2.5,30.2c-0.6,7.2-1,14.5-1.5,21.8c-0.4,6.1-0.7,12.3-1,18.4c-0.3,5.9-0.5,11.9-0.7,17.8
		c-0.2,5.3-0.4,10.6-0.4,15.9c0,6.9-0.2,13.8-0.1,20.6c0,0,0.1,0,0.1,0c0,3.2,0,6.4,0,9.6c0,6.3,0,12.7,0,19l-0.1,0
		c0.1,3.4,0,6.9,0.1,10.3c0.1,9.8,0.2,19.5,0.6,29.2c0.1,3.2,0.3,6.4,0.3,9.6c0,1.9,0.1,3.8,0.2,5.7c0.3,4.4,0.5,8.8,0.7,13.2
		c0.2,3.2,0.3,6.3,0.5,9.5c0.3,4.1,0.6,8.3,0.8,12.4c0.3,3.9,0.5,7.7,0.8,11.6c0.4,5.3,0.8,10.6,1.3,15.9c0.5,4.8,0.9,9.7,1.3,14.5
		c0.3,3.7,0.8,7.5,1.1,11.2c0.5,6,3,10.9,7.7,14.6c2.7,2.1,5.7,3.5,9.2,3.8h5.3c0.1-0.1,0.2-0.2,0.4-0.2c4.6-0.8,8.5-3,11.5-6.5
		c3.3-4,5-8.6,4.6-13.8c-0.7-9.2-1.7-18.3-2.6-27.4c-0.6-7-1.2-14.1-1.7-21.1c-0.5-7.4-1-14.8-1.4-22.2c-0.4-6.2-0.7-12.5-1-18.8
		c-0.3-6.2-0.5-12.4-0.7-18.6c0-0.9,0-1.9,0-3v-0.1c0,0,0,0,0,0c0.6-0.2,1,0.4,1.5,0.8c3.4,2.7,7.4,3.8,11.7,4.2
		c4.3,0.3,8.7,0.6,13,0.9c0.6,0.1,1.1,0,1.7,0c2.6,0.1,5.3,0.1,7.9,0.2c4.5,0,9,0,13.5-0.3c1.8-0.1,3.5-0.1,5.3-0.2
		c11.2-0.7,22.3-2.1,33.3-4.2c13.2-2.5,26.1-6,38.8-10.4c14.3-5,28-11.4,40.7-19.8c6.9-4.5,13.1-9.8,18.7-15.9
		c3.6-3.9,6.7-8.2,9.1-12.9c0.5-1.1,1.3-1.6,2.5-1.8c4.9-0.8,9.4-2.6,13.4-5.5c5.1-3.7,8.5-8.6,10.7-14.4c1.6-4.4,2.6-8.9,3.1-13.5
		c0.1-0.7,0.1-1.4,0.4-2c0,0,0.1-0.1,0.1-0.1v-1.9c0.1-0.7-0.2-1.3,0.2-1.9V132z M509.6,137.2c-4.9-0.7-9.4,0.3-13.5,3
		c-4.2,2.8-7,6.7-8.1,11.7c-1.6,7.1-5.7,12.5-10.9,17.2c-9.4,8.4-20.6,13.8-32.2,18.3c-12.3,4.8-25.1,8.2-38.1,10.7
		c-7.4,1.5-14.9,2.5-22.4,3.2c-10.7,1.1-21.5,1.4-32.2,1.1c-5.2-0.1-10.4-0.5-15.6-1c-4.5-0.4-8.7,0.6-12.4,3.5
		c-0.2,0.1-0.3,0.4-0.6,0.3c-0.2-0.6-0.2-1.2-0.2-1.9c0-8.9-0.1-17.8,0.1-26.8c0.1-5.4,0.1-10.7,0.2-16.1c0.2-6,0.3-11.9,0.5-17.9
		c0.2-6.3,0.5-12.6,0.7-18.9c0.3-6.1,0.6-12.1,0.9-18.2c0.5-8.6,1.1-17.2,1.7-25.8c0.5-6.8,1.1-13.5,1.7-20.3
		c0.2-2.2,0.5-4.4,0.6-6.5c0.1-0.6,0.2-0.9,0.9-0.9c6.5-0.1,13.1-0.2,19.6-0.5c5.8-0.2,11.5-0.1,17.3-0.2c3.5-0.1,7-0.2,10.5-0.1
		c5.2,0.2,10.4,0,15.6,0.2c6,0.2,12,0.4,18,0.7c8.5,0.5,16.9,1.1,25.3,2c13.7,1.5,27.2,3.5,40.6,6.5c5.6,1.2,11.1,2.8,16.4,4.8
		c0.5,0.2,0.8,0.6,1,1.1c1.9,4.3,3,8.9,4.3,13.4c2.8,9.2,5.3,18.6,7.6,27.9c1.9,7.6,3.2,15.3,3.8,23.1c0.1,1.7,0.1,3.4,0.2,5
		C511,137.2,510.5,137.3,509.6,137.2z"/>
	<path class="st0" d="M549.6,137.5v1.9c-0.1,0-0.2,0-0.2,0v-1.9c0,0,0.1,0,0.1,0C549.5,137.5,549.5,137.5,549.6,137.5z"/>
</g>
<path class="st0" d="M796.5,78.8c-1.4,4.2-4.5,7.6-8.3,9.9c-3.8,2.2-8.4,3.2-12.8,2.5c-4.4-0.8-8.6-3.4-11.6-8.3
	c-8.2-13.6-20.3-19.3-34-21.5c-11.3-1.8-23.5-1.2-35.5-0.6c-2.6,0.1-5.2,0.3-7.8,0.4c-4.1,0.2-8.3,0.3-12.4,0.3
	c-19.8,0-39.4-2.2-57.2-9.9c-1.7,36.4-2.2,72.9-1.6,109.4c34.9-5.4,70.2-7.4,105.5-6.1c4.7,0.1,9.2,2,12.5,5.3
	c3.3,3.3,5.2,7.8,5.3,12.5l0,0v0c-0.1,4.7-1.9,9.2-5.3,12.6c-3.3,3.3-7.8,5.2-12.5,5.3h-0.1c-34.9-1.5-69.9,0.6-104.4,6.3
	c0.2,5.8,0.5,11.6,0.7,17.3v0c1.2,43.1,1.9,87.7-8.1,130.1c52.8,11.3,106.6,17.4,160.7,18.3h0c11.5,0.4,17.2,9.6,17.2,18.5
	c0,4.4-1.4,8.8-4.3,12.1c-2.9,3.3-7.3,5.4-13,5.2c-63.2-1.1-126-8.9-187.5-23.5l0,0l0,0c-4.6-1.3-8.4-4.3-10.8-8.4
	c-2.3-4.1-3-9-1.7-13.6l0,0l0,0c14.3-45.2,13-93.4,11.7-140.6l0-1.1c-3.1-63.8-2.5-127.8,1.7-191.6c0.1-3.5,1.2-6.8,3.2-9.7
	c2-2.9,4.7-5.1,8-6.4c3.2-1.3,6.8-1.7,10.2-1.1s6.6,2.2,9.1,4.6l0,0l0,0c12.2,12.1,27,16.8,42.9,18.4c11.7,1.1,23.8,0.6,35.8,0
	c4.4-0.2,8.8-0.4,13.1-0.5c1.9,0,3.8-0.1,5.6-0.1c34,0,65,8.8,84,40.2l0.7,1.2l-0.2,0.1C797.7,70.5,797.9,75,796.5,78.8z"/>
<path class="st0" d="M1102.2,385.8L1102.2,385.8c-12.5-35.3-26.3-70-40.8-104.3c3.7-0.4,7.5-0.8,11.2-1.2c4.7-0.2,9.1-2.1,12.4-5.4
	c3.3-3.3,5.2-7.8,5.3-12.4v-0.1c0-4.7-1.9-9.2-5.2-12.6c-3.3-3.3-7.8-5.2-12.6-5.2h-0.1l-0.1,0c-8.6,1-17.2,1.8-25.8,2.7
	c-19.3-43.8-39.6-87.2-59.9-130.5C976,94,965.3,71.3,954.8,48.5l0-0.1l0-0.1c-1.6-2.7-3.9-4.9-6.6-6.4c-2.7-1.5-5.8-2.3-8.9-2.3
	c-3.1,0-6.2,0.8-8.9,2.3c-2.7,1.5-5,3.7-6.6,6.4l0,0v0c-27,46.9-47.3,97.4-60.2,150c-4.6,18.6-8.5,37.3-12,56
	c-3.1-0.1-6.2-0.1-9.3-0.2c-5.7-0.1-10.1,2-13,5.3c-2.9,3.3-4.3,7.7-4.3,12.1c0,4.4,1.4,8.9,4.3,12.3c2.9,3.5,7.2,5.8,12.9,5.9
	c1,0,2.1,0.1,3.1,0.1c-3.6,21.5-6.8,43.1-10,64.6c-1.6,10.5-3.1,21-4.7,31.4c-1.1,4.5-0.4,9.3,1.9,13.3c2.3,4.1,6.1,7.1,10.5,8.5
	l0,0h0c4.6,1.2,9.4,0.6,13.6-1.7c4.1-2.3,7.2-6.2,8.4-10.8l0.5-1.6h-0.5c1.3-8.4,2.5-16.8,3.8-25.1c3.9-26.1,7.8-52.2,12.2-78.1
	c47.7,0.2,95.4-1.6,143-5.5c15.6,36.4,30.3,73.1,43.6,110.6c3.8,10.8,14.4,13.8,22.9,11.5c4.3-1.2,8.1-3.7,10.4-7.3
	C1103.5,396,1104.2,391.2,1102.2,385.8z M888.9,254.7h-1.2c2.9-14.8,6-29.5,9.5-44.2c9.4-39.3,23.1-77.3,40.9-113.5
	c6,12.9,12,25.8,18.1,38.7c17.9,38.1,35.8,76.3,52.9,114.7C969.1,253.3,929,254.7,888.9,254.7z"/>
<path class="st0" d="M1377.3,46.2c-1.9,4-5.6,7.2-11.1,8.6c-38.1,9.6-76.6,17.4-115.4,23.3c0.8,39.7,1.8,79.4,2.8,119.1l0.1,4.1
	c1.2,48.2,2.5,96.3,3.3,144.5c0.1,5.7-2,10.1-5.4,13c-3.3,2.9-7.8,4.3-12.2,4.3c-4.4,0-8.9-1.4-12.3-4.3c-3.4-2.9-5.8-7.2-5.9-12.9
	v0c-0.9-48.1-2.1-96.3-3.3-144.5l-0.1-4.1c-1-38.1-2-76.1-2.7-114.2c-52.7,6.5-105.9,9.7-159.1,9.4c-2.9,0-5.4-0.6-7.5-1.6
	c-2.2-1-4-2.4-5.4-4.1c-2.9-3.4-4.3-7.8-4.3-12.2c0-4.4,1.4-8.8,4.3-12.2c2.9-3.4,7.3-5.6,13-5.6c2.1,0,4.2,0,6.3,0
	c50.9,0,101.8-3.2,152.2-9.7c0.3-5,2.3-8.9,5.4-11.6c3.4-2.9,7.8-4.3,12.2-4.3c4.4,0,8.9,1.4,12.3,4.3c2,1.7,3.6,3.9,4.6,6.6
	c36.1-5.7,72-13,107.6-22c1.6-0.4,3.2-0.6,4.7-0.6c3.6,0,6.8,1.1,9.4,2.9c3.7,2.5,6.2,6.5,7.4,10.8S1379.2,42.3,1377.3,46.2z"/>
<path class="st0" d="M1706.2,50.3c0.2-1.5,0.2-3,0.2-4.5c0-3.4-0.4-6.9-1.4-10.6c-2.6-9.6-11.8-13.5-19.9-12.5
	c-4.1,0.5-8,2.2-10.9,5.1c-2.9,3-4.6,7.1-4.3,12.2v0c0.2,3.1,0.3,6.2,0.5,9.4c-0.2,0.5-0.3,1.1-0.5,1.6v0c-0.1,0.2-0.2,0.4-0.2,0.6
	c-0.1,0.2-0.2,0.5-0.4,0.8l0,0l0,0c-1.4,3.1-3,6.1-4.7,9.2l-0.2,0.4c-1.7,3.2-3.4,6.4-4.9,9.7v0c-7.8,18.1-11.1,37.7-9.4,57.2
	c-0.9,0.7-1.8,1.4-2.7,2.1c-6,4.6-12.1,9.3-17.5,14.6l0,0l0,0c-5.7,6.1-10.7,12.9-14.9,20.1c-16,24.8-41.1,45.1-64.6,64.1
	c-2.2,1.8-4.5,3.6-6.7,5.4c-2,1.7-4.1,3.3-6.1,5c-24.7,20.1-49.2,40-71,62.4c0.1-3.9,0.2-7.8,0.2-11.8v0c0-11.6,0.9-23.3,1.9-35.3
	l0,0v0c0.1-3.2,0.5-6.4,1.1-9.6c0.2-0.9,0.7-2.4,1.1-3.9c0.2-0.6,0.3-1.1,0.5-1.6c0.1-0.4,0.2-0.8,0.3-1.2c0-0.2,0.1-0.3,0.1-0.4
	c0-0.1,0.1-0.3,0.1-0.5c0,0,0-0.1,0-0.1c3.7-10.1,1.4-19.9-0.9-29.8c-0.2-0.9-0.4-1.9-0.7-2.8v0c-0.9-4.1-1.9-8.2-2.9-12.3
	c-2.4-10.2-4.8-20.3-6.8-30.6c-7.9-41.6-9.4-86,8.8-124.9v0c4.8-10.3-0.6-20-8.1-24.4c-3.8-2.2-8.2-3.2-12.4-2.3
	c-4.2,0.9-8,3.8-10.4,8.9l-0.5,1.1l0.6,0.3c-17,38.5-22.8,81.2-16.4,122.9c2.3,17.5,5.5,34.8,9.6,51.9c0.7,3,1.4,6,2.1,9
	c1,4.1,1.9,8.1,2.8,12.2v0c0.6,2.6,1.1,5.1,1.7,7.7c0.1,0.5,0.1,1,0.2,1.5c-1.6,3.7-2.6,7.8-3.3,11.9c-0.8,4.9-1.2,9.9-1.6,14.5
	c-0.1,1.4-0.2,2.7-0.3,3.9c-1.1,12.5-1.5,25.1-2,37.7c-0.2,4.2-0.3,8.3-0.5,12.4h0c-0.6,14.4-1.3,31.9-3.1,44.7
	c-5.1,8.1-9.8,16.7-14,25.7c-1.5,2.7-2.3,5.8-2.2,8.9c0,3.1,0.8,6.2,2.4,8.9c1.6,2.7,3.8,5,6.5,6.5c2.7,1.6,5.7,2.5,8.8,2.5
	c11,0.7,18.4-5.3,23.4-13.4c4.6-7.4,7.1-16.7,8.5-24.5c6.6-10.3,13.8-20,21.7-29.3c7.9-9.3,16.5-18,25.6-26.1l0,0
	c12.9-11.7,26.4-22.8,40.1-33.7c2.1-1.7,4.2-3.3,6.2-5c11.6-9.3,23.2-18.6,34.4-28.2c7.5-6.3,14.7-12.9,21.7-19.8
	c7-6.8,13.8-13.9,20.4-21.1c5.9-6.6,11.3-13.7,16.1-21.2l0,0v0c1.3-2,2.6-4.1,4-6.1l0.1-0.2c0.7-1,1.4-2,1.8-2.4c0,0,0,0,0.1-0.1
	c6.6-6.2,13.5-12.1,20.8-17.5c0.5,70.3-3.7,140.6-18.7,209h0c-2.4,11.2,5,19.2,13.5,21.5c4.2,1.2,8.8,1,12.7-0.9
	c3.9-1.9,7-5.6,8.2-11.2C1712.8,267.8,1712.1,158,1706.2,50.3z M1652.2,173.1c-0.1,0-0.3-0.1-0.4-0.2c0-0.1,0.1-0.1,0.1-0.2l0.4,0.4
	C1652.3,173.1,1652.3,173.1,1652.2,173.1z"/>
<g>
	<path class="st0" d="M2052.4,245c-0.4,0.5-0.2,1.1-0.2,1.7v1.9c-0.5,7.5-2,14.7-4.3,21.8c-4.5,13.9-11.8,26.3-20.6,37.8
		c-8.2,10.8-17.4,20.8-27,30.4c-9,9.1-18.2,18.1-27.3,27.1c-7.7,7.7-20.9,7.2-28-1.1c-0.4-0.5-0.9-0.8-1.5-0.9
		c-2.2-0.4-4.5-0.7-6.8-0.7c-4.1,0-8.1,0.4-12.2,0.6c-1,0.1-1.7,0.3-2.5,0.9c-4.5,3.6-9,7.1-13.6,10.6
		c-12.6,9.6-25.6,18.5-38.8,27.1c-11,7.1-23,11.3-36,12.5c-0.4-0.1-0.6-0.9-1.2-0.1c-0.1,0.2-0.7,0-1,0.1c-0.6,0-1.2-0.2-1.7,0.2
		c1.2-0.2,2.5-0.1,3.7-0.1h0.2c2.9-0.1,5.7-0.2,8.5-0.8c9.1-1.8,17.6-5.1,25.4-9.9c8.1-5,15.9-10.3,23.6-15.8
		c10.7-7.5,21.1-15.2,31.2-23.4c0.7-0.5,1.4-0.8,2.2-0.8c2.5-0.2,5.1-0.3,7.6-0.5c3.7-0.3,7.4-0.2,11.1,0.5c0.5,0.1,0.9,0.3,1.3,0.7
		c4.8,5.2,10.7,7.3,17.7,6.5c4.2-0.5,7.9-2.2,10.9-5.2c5.8-5.7,11.5-11.6,17.4-17.2c5-4.8,10-9.8,14.8-14.9
		c3.4-3.6,6.9-7.2,10.2-10.9c4.7-5.3,9.2-10.7,13.4-16.4c4.6-6.2,8.8-12.7,12.4-19.5c3.2-6.1,5.8-12.5,7.8-19.1
		c1.9-6.4,3.2-13,3.1-19.7v-1.9c0,0,0-0.1,0-0.1C2052.4,246,2052.2,245.5,2052.4,245z M1947.7,359.4c0,0.4,0.2,0.6,0.5,0.9
		C1948.4,359.6,1948.2,359.4,1947.7,359.4z M1920.8,361.7c0,0.1,0,0.3,0.1,0.3c0.4,0.2,0.6-0.2,0.9-0.5
		C1921.4,361.4,1921,361.2,1920.8,361.7z M1916.3,326.1c-0.5,0-0.9,0-1.4,0v0.2c0.4,0,0.9,0,1.3,0c0.3,0,0.6,0.1,0.9-0.2
		C1916.7,326.1,1916.5,326.1,1916.3,326.1z M1867.5,196.7c-0.2,0-0.3,0.2-0.4,0.4c-0.1,0.2,0.1,0.3,0.2,0.3c0.2,0,0.4-0.1,0.4-0.4
		C1867.6,196.9,1867.7,196.6,1867.5,196.7z M1832.8,410.1c-0.2,0.3-0.2,0.6,0,0.8C1833,410.7,1832.9,410.4,1832.8,410.1z
		 M1828.1,414.9c-6.6-0.7-12.6-2.8-18.1-6.4c-6.8-4.4-12-10.3-16.5-16.8c-5.6-8-9.9-16.8-14-25.6c-0.2-0.4-0.2-0.8-0.7-1.1
		c-0.3,0.6-0.5,1.1-0.7,1.6c-3,6.4-6.5,12.5-10.6,18.2c-0.2,0.3-0.4,0.9-1,0.5c-0.7-0.4-1,0-1.4,0.4c-1.9,2.1-4.2,3.7-6.8,4.7
		c-6.8,2.5-13.2,1.3-19.2-2.6c-4.4-3-7.4-7-8.1-12.5v-3.6c0.1-1,0.3-2,0.6-2.9c0.7-2.4,2.2-4.4,3.4-6.6
		c7.3-12.7,12.2-26.2,15.4-40.4c3.7-16.4,4.8-33.1,5-49.9c0.1-11.2-0.3-22.5-0.7-33.7c-0.4-11.2-0.8-22.4-1.1-33.5
		c-0.2-6.1-0.1-12.2,0.1-18.4c0.2-8.1,0.6-16.1,1.5-24.2c1.3-11.8,3.4-23.3,6.9-34.6c0.2-0.7,0.2-1.2-0.2-1.8
		c-1.7-2.9-2.7-6-3.4-9.3c-1-5.6-0.9-11.3-0.7-17c0.2-6.1,0.5-12.1,0.1-18.2c-0.5-6.1-2.9-11.2-7.2-15.5c-1.7-1.7-3.5-3.4-5.2-5.2
		c-2.7-2.8-4.8-5.9-5.3-9.8c-0.4-3.5,0.1-6.8,1.5-10c4.2-9.8,10.6-17.8,19.1-24.1c5.3-3.9,11.1-6.3,17.7-6.7c1.6,0,3.2,0,4.8,0
		c0,0,0-0.1,0-0.1c0,0-0.1,0-0.1,0h0c0,0-0.1,0-0.1,0h-4.6c-5.1-0.1-9.8,1.1-14.2,3.8c-6.4,3.9-11.8,9-16.3,15
		c-3,4.1-5.9,8.4-7.4,13.4c-2.1,6.6-1.3,12.7,3.6,17.9c2.2,2.4,4.6,4.7,6.9,7c3,3.2,5.3,6.8,5.9,11.3c0.5,4,0.8,7.9,0.7,11.9
		c-0.2,4.9-0.4,9.7-0.5,14.6c-0.1,2.8,0.2,5.5,0.4,8.2c0.4,4.4,1.4,8.6,3.6,12.5c0.4,0.8,0.5,1.5,0.2,2.4c-1.6,5.2-2.9,10.5-4,15.8
		c-2.1,10.4-3.2,20.9-3.9,31.5c-0.3,5.3-0.5,10.5-0.5,15.8c0,5.2-0.2,10.5,0.2,15.7c0.2,3.3,0,6.6,0.2,9.8c0.2,4.5,0.3,9.1,0.5,13.6
		c0.2,4.2,0.3,8.4,0.5,12.6c0.2,5.8,0.4,11.6,0.5,17.4c0.2,8.2,0.1,16.5-0.4,24.7c-0.2,4.5-0.5,9.1-1,13.6
		c-0.6,6.1-1.4,12.1-2.6,18.1c-1.6,8.4-3.8,16.7-6.8,24.7c-2.8,7.5-6.1,14.8-10.3,21.6c-1.7,2.7-3.2,5.5-3.1,8.8v3.5l0,0
		c0,0,0,0.1,0,0.1c0,2.2,0.4,4.2,1.6,6.2c2.4,4.2,6,7.1,10.3,8.9c7.4,3.2,16.2,2.4,22.3-3.9c0.4-0.4,0.9-0.8,1.5-0.8
		c0.7,0,1.2-0.4,1.6-1c3.9-5.6,7.4-11.5,10.3-17.7c0.1-0.3,0.1-0.7,0.5-0.9c0.3,0.5,0.5,0.9,0.7,1.4c2.8,6,5.7,11.9,9,17.6
		c4.1,6.9,8.7,13.3,14.6,18.7c3.9,3.5,8.2,6.4,13,8.5c3,1.3,6,2.4,9.3,2.5c1.2,0,2.4,0,3.5,0.3
		C1828.8,414.8,1828.4,414.9,1828.1,414.9z M2052.3,237.7c0,0,0-0.1,0-0.1v-1.9c0,0-0.1,0-0.1,0v1.9c0,0.5-0.1,1,0.2,1.5
		C2052.2,238.6,2052.4,238.1,2052.3,237.7z"/>
	<path class="st0" d="M2052.4,239c-0.4-0.5-0.2-1-0.2-1.5v-1.9c0,0,0.1,0,0.1,0c-0.2-3.9-0.3-7.8-1-11.7c-0.7-4.1-2.4-7.8-5.4-10.8
		c-5.2-5.2-11.5-6.9-18.7-5.4c-1.1,0.2-1.9,0-2.8-0.5c-2.4-1.6-4.6-3.5-6.6-5.5c-3-3-5.7-6.3-8.1-9.8c-4.2-6.1-7.4-12.7-10.8-19.2
		c-2.2-4.3-4.3-8.8-6.7-13c-3.9-6.7-8.2-13.1-14-18.2c-3.6-3.2-7.5-5.9-11.9-7.9c-6.7-3.1-13.8-4.8-21.2-5.2
		c-6-0.4-12.1,0.1-17.9,1.6c-12.3,3-22.7,9.3-31.1,18.8c-4.2,4.8-7.8,10-10.7,15.7c-0.7,1.4-0.7,1.4-2.2,0.7
		c-5.4-2.4-11.1-3.8-17-3.9c-3.6-0.1-7.1,0.5-10.5,1.5c-1.4,0.4-2.7,1.1-3.8,1.6c0.2-0.3,0.2-0.7,0.2-1.7c-0.1-3.2-0.3-6.4-0.4-9.6
		c-0.1-3.2-0.4-6.4-0.6-9.6c-0.3-4.2-0.7-8.3-1.1-12.5c-0.4-4.2-0.9-8.4-1.3-12.6c-0.6-5.1-1.3-10.2-2-15.3
		c-0.9-6.3-2-12.5-3.1-18.8c-0.7-3.9-1.4-7.7-2.2-11.5c-0.2-1,0-1.7,1-2.3c1.8-1,3.5-2.2,5.2-3.4c3.9-2.6,7.6-5.6,10.5-9.4
		c3.1-4.1,4.6-8.7,3.9-13.8c-0.7-5.3-3.3-9.6-7.5-13c-4.2-3.3-8.9-4.7-14.2-4.1c-4.7,0.6-9.3,1.8-13.9,3.1c-4,1.1-8,2.3-12.1,3
		c-1.5,0.3-1.6,0.2-2-1.2c-0.5-2.1-1.2-4.2-2.3-6c-6-10.1-14.8-15.5-26.6-15.7c0,0,0,0,0,0.1c-1.6,0-3.2,0-4.8,0
		c-6.6,0.4-12.4,2.8-17.7,6.7c-8.5,6.4-15,14.3-19.1,24.1c-1.3,3.2-1.9,6.5-1.5,10c0.5,4,2.7,7,5.3,9.8c1.7,1.8,3.4,3.5,5.2,5.2
		c4.3,4.3,6.7,9.3,7.2,15.5c0.5,6.1,0.2,12.1-0.1,18.2c-0.2,5.7-0.3,11.3,0.7,17c0.6,3.3,1.6,6.4,3.4,9.3c0.4,0.6,0.4,1.1,0.2,1.8
		c-3.5,11.3-5.7,22.9-6.9,34.6c-0.9,8-1.3,16.1-1.5,24.2c-0.2,6.1-0.2,12.2-0.1,18.4c0.3,11.2,0.7,22.4,1.1,33.5
		c0.4,11.2,0.8,22.5,0.7,33.7c-0.2,16.8-1.3,33.5-5,49.9c-3.2,14.2-8.1,27.7-15.4,40.4c-1.2,2.1-2.7,4.2-3.4,6.6
		c-0.3,1-0.5,1.9-0.6,2.9v3.6c0.7,5.4,3.7,9.5,8.1,12.5c5.9,4,12.3,5.1,19.2,2.6c2.7-1,4.9-2.6,6.8-4.7c0.4-0.4,0.7-0.9,1.4-0.4
		c0.6,0.4,0.8-0.2,1-0.5c4.1-5.8,7.6-11.8,10.6-18.2c0.2-0.5,0.5-1,0.7-1.6c0.4,0.3,0.5,0.7,0.7,1.1c4.1,8.8,8.4,17.6,14,25.6
		c4.5,6.5,9.8,12.4,16.5,16.8c5.5,3.6,11.6,5.7,18.1,6.4c0.3,0,0.7-0.1,1,0.3h0.7c0.5-0.4,1.1-0.2,1.7-0.2c0.4,0,0.9,0.1,1-0.1
		c0.5-0.7,0.8,0,1.2,0.1c13-1.3,25-5.5,36-12.5c13.3-8.6,26.3-17.5,38.8-27.1c4.6-3.5,9.1-7,13.6-10.6c0.8-0.6,1.5-0.9,2.5-0.9
		c4.1-0.2,8.1-0.7,12.2-0.6c2.3,0,4.5,0.3,6.8,0.7c0.6,0.1,1.1,0.4,1.5,0.9c7.1,8.3,20.3,8.8,28,1.1c9.1-9.1,18.3-18,27.3-27.1
		c9.6-9.6,18.8-19.5,27-30.4c8.8-11.6,16.1-23.9,20.6-37.8c2.3-7.1,3.7-14.4,4.3-21.8v-1.9c0-0.6-0.2-1.2,0.2-1.7V239z
		 M1867.1,197.1c0.1-0.2,0.2-0.3,0.4-0.4c0.2-0.1,0.1,0.2,0.2,0.3c0,0.3-0.1,0.4-0.4,0.4C1867.1,197.3,1867,197.3,1867.1,197.1z
		 M1832.8,411c-0.2-0.3-0.2-0.5,0-0.8C1832.9,410.4,1833,410.7,1832.8,411z M1916.2,326.3c-0.4,0-0.8,0-1.3,0v-0.2
		c0.5,0,0.9,0,1.4,0c0.2,0,0.4,0,0.8,0.1C1916.7,326.4,1916.4,326.3,1916.2,326.3z M1920.9,362c-0.1,0-0.1-0.2-0.1-0.3
		c0.2-0.5,0.5-0.3,1-0.2C1921.5,361.8,1921.4,362.2,1920.9,362z M1948.2,360.2c-0.4-0.2-0.6-0.4-0.5-0.9
		C1948.2,359.4,1948.4,359.6,1948.2,360.2z M2014.7,247.3c-0.8,9.1-3.6,17.6-7.8,25.6c-4.5,8.5-10.2,16-16.5,23.2
		c-8.8,9.9-18.5,18.8-28.2,27.8c-1.2,1.1-2.5,2.3-3.7,3.5c-0.6,0.7-1.3,0.8-2.1,0.6c-9.3-2.2-18.8-3.6-28.4-3.5
		c-7.7,0.1-15.2,1.2-22.4,4.1c-3.1,1.3-5.4,3.5-7.3,6.2c-0.3,0.4-0.6,0.8-1,1.2c-11.5,8.9-22.9,18-35,26.1
		c-6.7,4.5-13.5,8.7-20.8,12.1c-1.7,0.8-3.4,1.4-5.2,1.7c-1.5,0.2-2.9,0.6-4.2,1.3c-0.5,0.2-0.6,0.1-1-0.2c-3.7-3-6.2-6.8-8.6-10.8
		c-4.2-7-7.8-14.3-11.1-21.8c-4.3-9.5-13.8-12.1-22.2-8.7c-0.3,0.1-0.5,0.3-1,0.2c0.5-2.4,0.9-4.8,1.4-7.2
		c1.5-8.1,2.4-16.3,3.1-24.6c0.7-9,0.9-18,1-27.1c0.2-9.3-0.1-18.5-0.2-27.8c-0.1-6.2-0.3-12.3-0.5-18.5c-0.2-7.8-0.4-15.6-0.4-23.4
		c0-11.4,0.4-22.9,1.5-34.2c1.5-16.9,4.6-33.4,10.4-49.3c2.7-7.4-0.6-16.7-7.4-21.3c-0.8-0.5-1.1-1-1-2c0.5-5.8,1.3-11.7,1.3-17.6
		c0-2.2-0.1-4.3-0.4-6.5c-0.1-0.8,0.1-1.1,0.9-1.1c1.2-0.1,2.4-0.3,3.6-0.5c0.7-0.1,1.1,0.1,1.3,0.8c2.1,9.4,3.8,18.8,5.3,28.3
		c1.2,8.1,2.2,16.2,3,24.4c0.6,6.1,1,12.2,1.3,18.3c0.6,10.7,0.6,21.5,0.4,32.2c-0.2,9.2-0.8,18.3-1.6,27.4
		c-1,11.9-2.6,23.8-4.6,35.5c-0.5,2.8-1,5.6-1.5,8.4c-2.1,10.6,4.2,20.1,15,22.1c7.7,1.5,14.4-0.5,19.3-6.9c1.5-1.9,2.3-4.2,3.1-6.5
		c3.5-11,6.8-22.1,10.9-32.9c3.2-8.2,6.8-16.1,12-23.3c0.2-0.3,0.4-0.6,0.7-0.9c1.7-2.3,1.8-2.4,4.2-0.9c4.2,2.5,8.1,5.4,11.8,8.6
		c6.6,5.8,17.4,6.8,24.5,2.2c4.1-2.6,6.5-6.4,7.5-11.1c1.5-7.1,3.5-14,7.2-20.4c3.7-6.3,8.6-11,15.7-13.1c2.5-0.7,5-0.8,7.4-0.1
		c0.4,0.1,0.8,0.2,1.2,0.3c3.4,0.2,6,2.2,8.8,3.8c0.9,0.5,1.3,1.7,2.5,2c0.3,0.1,0.1,1.2,0.3,1.9c0.1,0.3,0.1,0.6,0.2,0.9
		c6.4,14.7,14,28.7,23.7,41.6c5.9,7.8,12.4,15,20.4,20.8c3.7,2.7,7.6,4.9,11.8,6.5C2014.6,245.4,2014.8,246,2014.7,247.3z"/>
	<path class="st0" d="M1783.2,10C1783.2,10,1783.2,10,1783.2,10c-0.1,0.1-0.1,0-0.1,0h0c0,0,0-0.1,0.1-0.1
		C1783.2,9.9,1783.2,9.9,1783.2,10z"/>
	<path class="st0" d="M2052.4,235.6c0,0.1-0.1,0.1-0.1,0.1c0,0-0.1,0-0.1-0.1c0,0,0.1,0,0.1,0
		C2052.4,235.6,2052.4,235.6,2052.4,235.6z"/>
	<path class="st0" d="M2052.4,248.6c0,0-0.1,0-0.1,0c0,6.8-1.2,13.3-3.1,19.7c-1.9,6.6-4.6,13-7.8,19.1c-3.6,6.8-7.7,13.3-12.4,19.5
		c-4.2,5.7-8.7,11.1-13.4,16.4c-3.3,3.7-6.8,7.3-10.2,10.9c-4.8,5.1-9.7,10.1-14.8,14.9c-5.9,5.7-11.6,11.5-17.4,17.2
		c-3.1,3-6.7,4.7-10.9,5.2c-7,0.8-12.9-1.3-17.7-6.5c-0.4-0.4-0.8-0.6-1.3-0.7c-3.7-0.7-7.3-0.9-11.1-0.5c-2.5,0.2-5.1,0.3-7.6,0.5
		c-0.8,0.1-1.5,0.3-2.2,0.8c-10.1,8.2-20.6,15.9-31.2,23.4c-7.8,5.4-15.6,10.8-23.6,15.8c-7.9,4.8-16.4,8.1-25.4,9.9
		c-2.8,0.6-5.7,0.7-8.5,0.8c0,0,0,0.1,0,0.1c0,0-0.1-0.1-0.1-0.1l0,0c0.1,0,0.1,0,0.2,0c13-1.3,25-5.5,36-12.5
		c13.3-8.6,26.3-17.5,38.8-27.1c4.6-3.5,9.1-7,13.6-10.6c0.8-0.6,1.5-0.9,2.5-0.9c4.1-0.2,8.1-0.7,12.2-0.6c2.3,0,4.5,0.3,6.8,0.7
		c0.6,0.1,1.1,0.4,1.5,0.9c7.1,8.3,20.3,8.8,28,1.1c9.1-9.1,18.3-18,27.3-27.1c9.6-9.6,18.8-19.5,27-30.4
		c8.8-11.6,16.1-23.9,20.6-37.8c2.3-7.1,3.7-14.4,4.3-21.8c0-0.1,0.1-0.1,0.1-0.1C2052.4,248.5,2052.4,248.5,2052.4,248.6z"/>
	<path class="st0" d="M1741.6,40.9c-1.3,3.2-1.9,6.5-1.5,10c0.5,4,2.7,7,5.3,9.8c1.7,1.8,3.4,3.5,5.2,5.2c4.3,4.3,6.7,9.3,7.2,15.5
		c0.5,6.1,0.2,12.1-0.1,18.2c-0.2,5.7-0.3,11.3,0.7,17c0.6,3.3,1.6,6.4,3.4,9.3c0.4,0.6,0.4,1.1,0.2,1.8
		c-3.5,11.3-5.7,22.9-6.9,34.6c-0.9,8-1.3,16.1-1.5,24.2c-0.2,6.1-0.2,12.2-0.1,18.4c0.3,11.2,0.7,22.4,1.1,33.5
		c0.4,11.2,0.8,22.5,0.7,33.7c-0.2,16.8-1.3,33.5-5,49.9c-3.2,14.2-8.1,27.7-15.4,40.4c-1.2,2.1-2.7,4.2-3.4,6.6
		c-0.3,1-0.5,1.9-0.6,2.9c0,0.1-0.1,0.1-0.1,0.1s-0.1,0-0.1-0.1c0,0,0.1,0,0.1,0c-0.1-3.3,1.4-6.1,3.1-8.8
		c4.2-6.8,7.5-14.1,10.3-21.6c3-8,5.2-16.3,6.8-24.7c1.2-6,2-12,2.6-18.1c0.4-4.5,0.7-9.1,1-13.6c0.5-8.2,0.6-16.5,0.4-24.7
		c-0.1-5.8-0.2-11.6-0.5-17.4c-0.2-4.2-0.3-8.4-0.5-12.6c-0.2-4.5-0.3-9.1-0.5-13.6c-0.2-3.3,0-6.5-0.2-9.8
		c-0.4-5.2-0.2-10.5-0.2-15.7c0-5.3,0.2-10.5,0.5-15.8c0.6-10.6,1.8-21.1,3.9-31.5c1.1-5.3,2.4-10.6,4-15.8c0.3-0.9,0.2-1.6-0.2-2.4
		c-2.2-3.9-3.2-8.1-3.6-12.5c-0.2-2.7-0.5-5.5-0.4-8.2c0.2-4.9,0.3-9.7,0.5-14.6c0.2-4-0.2-8-0.7-11.9c-0.6-4.5-2.8-8.1-5.9-11.3
		c-2.2-2.4-4.6-4.6-6.9-7c-4.9-5.3-5.7-11.3-3.6-17.9c1.5-5,4.4-9.2,7.4-13.4c4.4-6,9.8-11.1,16.3-15c4.4-2.6,9.1-3.9,14.2-3.8
		c0,0,0-0.1,0-0.1c0.1,0,0.1,0.1,0.1,0.1c0,0-0.1,0.1-0.1,0.1c-6.6,0.4-12.4,2.8-17.7,6.7C1752.2,23.1,1745.8,31.1,1741.6,40.9z"/>
	<path class="st0" d="M1829.1,415.1c-1.2-0.3-2.4-0.3-3.5-0.3c-3.3-0.1-6.4-1.2-9.3-2.5c-4.8-2.1-9.1-4.9-13-8.5
		c-5.9-5.4-10.5-11.9-14.6-18.7c-3.4-5.7-6.3-11.6-9-17.6c-0.2-0.5-0.4-0.9-0.7-1.4c-0.4,0.1-0.4,0.6-0.5,0.9
		c-2.9,6.2-6.4,12.1-10.3,17.7c-0.4,0.5-0.8,1-1.6,1c-0.7,0-1.1,0.3-1.5,0.8c-6.1,6.2-14.9,7-22.3,3.9c-4.4-1.9-7.9-4.8-10.3-8.9
		c-1.1-1.9-1.5-4-1.6-6.2c-0.1,0-0.1,0-0.1,0c0-0.1,0.1-0.1,0.1-0.1l0,0c0,0,0.1,0,0.1,0.1c0.7,5.4,3.7,9.5,8.1,12.5
		c5.9,4,12.3,5.1,19.2,2.6c2.7-1,4.9-2.6,6.8-4.7c0.4-0.4,0.7-0.9,1.4-0.4c0.6,0.4,0.8-0.2,1-0.5c4.1-5.8,7.6-11.8,10.6-18.2
		c0.2-0.5,0.5-1,0.7-1.6c0.4,0.3,0.5,0.7,0.7,1.1c4.1,8.8,8.4,17.6,14,25.6c4.5,6.5,9.8,12.4,16.5,16.8c5.5,3.6,11.6,5.7,18.1,6.4
		C1828.4,414.9,1828.8,414.8,1829.1,415.1z"/>
	<path class="st0" d="M1783.2,10c-1.6,0-3.2,0-4.8,0c0,0,0-0.1,0-0.1c0,0,0-0.1,0-0.1h4.8C1783.2,9.9,1783.2,9.9,1783.2,10
		C1783.2,10,1783.2,10,1783.2,10z"/>
	<path class="st0" d="M1833.7,415C1833.7,415,1833.7,415,1833.7,415c0,0.1,0,0.1,0,0.2h-3.8c0.5-0.4,1.1-0.2,1.7-0.2
		c0.4,0,0.9,0.1,1-0.1C1833,414.1,1833.3,414.9,1833.7,415z"/>
	<path class="st0" d="M1730.9,371.7v3.6c0,0-0.1,0-0.1,0c-0.1,0-0.1,0-0.1,0v-3.6C1730.7,371.7,1730.8,371.7,1730.9,371.7
		C1730.8,371.7,1730.8,371.7,1730.9,371.7z"/>
	<path class="st0" d="M2052.4,235.6v1.9c0,0.1-0.1,0.1-0.1,0.1c0,0-0.1,0-0.1-0.1v-1.9c0,0,0.1,0,0.1,0
		C2052.4,235.6,2052.4,235.6,2052.4,235.6z"/>
	<path class="st0" d="M2052.4,246.7v1.9c0,0-0.1,0-0.1,0h-0.1v-1.9c0-0.1,0.1-0.2,0.1-0.2C2052.4,246.6,2052.4,246.6,2052.4,246.7z"
		/>
	<path class="st0" d="M2052.4,245v1.7c0,0-0.1,0-0.1,0c0,0-0.1,0-0.1,0C2052.2,246.1,2052.1,245.5,2052.4,245z"/>
	<path class="st0" d="M2052.4,237.6v1.4c-0.4-0.5-0.2-1-0.2-1.5c0,0,0.1,0,0.1,0C2052.4,237.5,2052.4,237.5,2052.4,237.6z"/>
	<path class="st0" d="M1917.1,326.2c-0.3,0.3-0.6,0.2-0.9,0.2c-0.4,0-0.8,0-1.3,0v-0.2c0.5,0,0.9,0,1.4,0
		C1916.5,326.1,1916.7,326.1,1917.1,326.2z"/>
	<path class="st0" d="M1921.8,361.5c-0.3,0.4-0.5,0.7-0.9,0.5c-0.1,0-0.1-0.2-0.1-0.3C1921,361.2,1921.4,361.4,1921.8,361.5z"/>
	<path class="st0" d="M1867.7,197c0,0.3-0.1,0.4-0.4,0.4c-0.2,0-0.3-0.1-0.2-0.3c0.1-0.2,0.2-0.3,0.4-0.4
		C1867.7,196.6,1867.6,196.9,1867.7,197z"/>
	<path class="st0" d="M1948.2,360.2c-0.4-0.2-0.6-0.4-0.5-0.9C1948.2,359.4,1948.4,359.6,1948.2,360.2z"/>
	<path class="st0" d="M1832.8,411c-0.2-0.3-0.2-0.5,0-0.8C1832.9,410.4,1833,410.7,1832.8,411z"/>
</g>
</svg>
