<?xml version="1.0" encoding="utf-8"?>
<!-- Generator: Adobe Illustrator 25.4.1, SVG Export Plug-In . SVG Version: 6.00 Build 0)  -->
<svg version="1.1" id="Слой_1" xmlns="http://www.w3.org/2000/svg" xmlns:xlink="http://www.w3.org/1999/xlink" x="0px" y="0px"
	 viewBox="0 0 1271 640" style="enable-background:new 0 0 1271 640;" xml:space="preserve">
<style type="text/css">
	.st0{fill:#E96262;}
</style>
<g>
	<path class="st0" d="M148.1,397c-0.1,0.8-0.2,1.5-0.2,2.3c-0.1,0.8-0.2,1.5-0.2,2.3c-0.7,0.3-1.4,0.6-2.1,0.9
		c0.1-0.8,0.2-1.5,0.2-2.3c0.1-0.8,0.2-1.5,0.2-2.3L148.1,397z"/>
	<path class="st0" d="M231.8,372.8c-0.7,0.2-1.3,0.3-2,0.5c-0.2-0.6-0.5-1.3-0.7-1.9c-0.2-0.6-0.5-1.3-0.7-1.9
		c0.7-0.2,1.3-0.4,2-0.5c0.2,0.6,0.5,1.3,0.7,1.9C231.3,371.5,231.5,372.1,231.8,372.8z"/>
</g>
<g>
	<path class="st0" d="M278.5,362.2c-0.7,0.1-1.4,0.3-2.1,0.4c-0.3-0.6-0.5-1.3-0.8-1.9c0.7-0.1,1.4-0.3,2.1-0.4
		C278,361,278.3,361.6,278.5,362.2z"/>
	<path class="st0" d="M433.1,370.2c0,1.6-0.2,3.2-0.4,4.8c0,0,0,0,0,0.1c0,0,0,0.1,0,0.1c-0.2,1-0.4,1.9-0.7,2.8c0,0,0,0,0,0
		c-0.8,2.6-2,5.1-3.5,7.3c0.5-2.6,1-5.2,1.6-7.8c0.2-0.9,0.4-1.9,0.7-2.8c0.7-2.7,1.4-5.4,2.2-8C433,367.8,433.1,369,433.1,370.2z"
		/>
</g>
<path class="st0" d="M428.9,352.8c-4.6-5.3-11.2-7.9-18.8-7.7c-44.8,0.4-89.3,4.9-133,13.3C233.6,246.7,194.4,133.2,159.9,19
	C158,13.2,154.2,8.2,149,5c-5.2-3.3-11.3-4.6-17.4-3.8c-6.1,0.8-11.7,3.8-15.8,8.3c-4.1,4.5-6.5,10.4-6.7,16.4V26
	c-1.4,43.2-1.6,87.4-1.7,130.1c-0.3,87.3-0.7,176.8-11.6,264.8c-27.8,13.4-55.2,27.7-81.9,43c-6.8,3.6-11.2,9.2-12.5,16
	c-1.2,6,0,12.5,3.4,18.2c4.6,7.8,13,13.7,22.7,13.7c3.9,0,8.1-1,12.3-3.2c8.8-4.6,17.7-9.4,26.3-14c6.6-3.6,13.3-7.1,20-10.7
	c-2.9,15.3-6.2,30.6-10,45.8c-1.8,7.4-0.7,14.5,3.3,20.4c3.5,5.1,8.9,8.9,15.3,10.7c6.4,1.8,13,1.3,18.5-1.4
	c6.3-3,10.7-8.6,12.7-16.1l0.1-0.5v-0.2c7.3-29.2,12.9-58.3,17.3-87.7c16.6-7.8,33.4-14.9,50.5-21.1c17.1-5.8,34.3-11,51.7-15.4
	c13.7,34.3,28.1,69.1,43.2,104.5c15.1,35.3,30.3,69.6,45.5,103.1l0.2,0.4c3.5,5.9,9.1,10.2,15.8,11.9c2.2,0.6,4.5,0.9,6.7,0.9
	c4.5,0,8.9-1.2,12.9-3.5l0.1-0.1c5.8-3.6,10-9.2,11.7-15.8c1.7-6.5,0.9-13.4-2.4-19.3c-28.9-63.6-56.5-128.1-82.7-193.2
	c37.5-6.6,75.5-10.2,113.8-10.6h0.1c7.5-0.2,13.4-3.2,17.5-7.5c0.2-1.3,0.4-2.6,0.6-3.9c0.5-2.6,1-5.2,1.6-7.8
	c0.2-0.9,0.4-1.9,0.7-2.8c0.7-2.7,1.4-5.4,2.2-8c0.4-1.3,0.8-2.7,1.3-4C433.1,358.9,431.3,355.5,428.9,352.8z M227.8,373.8l-47,14.1
	h0c-5.1,2-10.3,4.1-15.5,6.3c-5.2,2.2-10.3,4.3-15.4,6.5c0.2-1.5,0.3-3.1,0.5-4.6c6.4-66.5,7.8-135.8,8.3-212
	c21.2,62.2,43.8,124.3,67.7,185.9C226.8,371.2,227.3,372.5,227.8,373.8z"/>
<path class="st0" d="M796.2,196.9c-4.1-15.3-13.5-28.7-26.4-37.9l-0.5-0.3c-8-4.2-17.2-5.5-26-3.6c-0.2,0-0.5,0.1-0.7,0.2
	c-3.5-3.7-7.1-8.1-11.3-13.6c-3.4-4.5-6.8-9.2-10.1-13.8l-0.4-0.5c-3.2-4.4-6.7-9.3-10.2-13.8c-16.1-22.6-38-40.7-63.2-52.3
	l-0.2-0.1c-13.5-5.3-28.2-7.7-42.8-6.8c-11.4,0.8-22.4,6.2-29.7,10.1c-4.7,2.5-9.1,5.2-13.7,7.9l-1.3,0.8c-4,2.4-7.7,4.7-11.3,6.7
	l-2.9,1.6c-19.6,10.9-39.8,22.2-58.7,35.2c-14.1,7.5-25.6,18.8-33.2,33l-0.1,0.2c-12.6,28.9-19.5,59.5-20.4,91
	c-0.5,12.3-0.3,24.8-0.2,36.9l0.1,6.1c0.1,13.6,0.2,28-0.9,42.4c-1.3,15.8-3.7,31.6-7.3,47c-0.4,1.1-0.8,2.2-1.2,3.4
	c-0.1,0.4-0.7,2-1.3,4c-0.6,1.9-1.4,4.6-2.2,8c-1.2,2.4-1.7,4.4-1.9,5.8c-0.2,1.5-0.1,2.4-0.4,4.8c-0.2,1.7-0.4,3-0.6,3.9
	c3.5,6,5.1,9.5,5.8,11.7c0.1,0.4,0.6,1.7,1.4,3.5c0.7,1.6,1.5,3.2,2.4,4.8l0.2,0.3c8.3,23,14.8,46.7,19.2,70.7l-2.4,10.4l0,0.1
	c1.3,6.8,4.4,23.5,5.7,33.7c0.5,4.4,1.1,8.6,1.3,12.8c-1.2,3-1.7,6.1-1.7,9.4c0,6.9,2.7,13.4,7.5,18.3l4.4,4.5l0.7-1.7
	c4.7,2.7,9.5,4,14.2,4c4.3,0,8.5-1.1,12.4-3.4c9-5.2,14.5-15.5,14.7-27.5v-0.2c-0.6-16.2-2.6-32.4-6-48.1l-0.1-0.6
	c-5.5-32.3-11.7-68.7-25.3-100.4c3.9,2.3,8.4,3.6,13.1,3.6l0.4,0c31.3-3,63.1-3.5,93.9-4c15.8-0.3,32.2-0.5,48.4-1.1
	c36.9-1.3,79.2-4.4,115.7-23.7c15.6-8.3,29.4-20.2,39.8-34.5c10.5-14.2,17.7-31,20.9-48.3l0-0.1C809.7,264,807.1,229.2,796.2,196.9z
	 M466.8,404.9c-0.1-0.2-0.2-0.5-0.3-0.7l0.5-0.2L466.8,404.9z M468.5,403.6c0-0.1-0.1-0.2-0.1-0.3h0.2L468.5,403.6z M627.2,402
	l-0.1-2c-16.1,0.6-32.1,0.8-48.1,1.1c-5.9,0.1-11.8,0.2-17.7,0.3l65.8-1.4L627.2,402C627.2,402,627.2,402,627.2,402z M544,141.3
	c10.7-6.2,21.6-12.5,32.8-18.7c10.7-5.9,21.3-11.6,31.7-17.1c27,0.2,46,18.5,61,36.4c5.9,7,11.6,14.5,17,21.8l0.1,0.2
	c3.3,4.4,6.7,8.9,10.2,13.3c2.2,2.8,4.5,5.6,6.9,8.5c10.1,15.8,20.3,30,30.2,27.7c1.4-0.3,2.5-0.9,3.5-1.5c1.9,0.2,3.9,0.2,5.8-0.1
	c0.5-0.1,1.1-0.2,1.6-0.2c1.8,2.4,3.9,8.1,5.5,22c2.2,19.5,2.5,40.3,0.8,61.8l-0.7,1.9l0.2,0c-6.8,22.2-24.4,37.2-53.7,45.9
	c-12.6,3.8-26,5.9-39.6,7.3c-13.6,1.4-27.5,1.9-40.9,2.2c-12.3,0.3-24.9,0.5-37.1,0.6l-95.1,4.2c-1.5,0-2.9,0.2-4.3,0.5
	c1.7-24.4,3.4-48.8,5.1-73.2c-2.1-9.8-14.5-71.2,24.4-116.5C520.7,155.3,533.3,146.8,544,141.3z"/>
<g>
	<path class="st0" d="M1246.5,222.8c-1.8,6.5-5.5,11.8-10.6,15c-3.4,2.1-7.2,3.2-11.2,3.2c-2.9,0-5.9-0.6-9-1.7
		c-54.3-20-107.8-43.5-159.5-66.3l-0.7-0.3c-11.1-4.9-22.5-9.9-33.9-14.9c0.3,122.6,0.7,248.5,1.9,372.5v0.3c0,7.6-2.8,14-8.1,18.6
		c-4.7,4-10.9,6.3-17.6,6.3c-6.7,0-13-2.2-17.7-6.2c-5.4-4.6-8.3-11.2-8.3-18.9c-1.3-134.7-1.9-267.5-2-394.8
		c-25.6-10.6-53-21.2-81.7-30.3C853.1,94.2,816,85.1,778,80.8c-6.7-0.2-13.1-2.9-17.9-7.7c-4.8-4.8-7.6-11.2-7.8-18V55
		c0.1-6.9,2.8-13.4,7.6-18.2c4.9-4.9,11.3-7.6,18.2-7.6h0.2l0.2,0c86.1,9.7,164.9,39.2,230.5,66.7c27.1,11.4,54.4,23.5,80.8,35.2
		l0.2,0.1c45.6,20.3,92.7,41.2,139.8,58.5c7.1,2.6,12.4,7.6,15.2,14.2C1247.8,209.8,1248.2,216.5,1246.5,222.8z"/>
</g>
</svg>
