<svg width="300" height="300" viewBox="0 0 300 300" fill="none" xmlns="http://www.w3.org/2000/svg">
<g clip-path="url(#clip0_309_317)">
<rect width="300" height="300" fill="white"/>
<rect x="-14" y="194" width="327" height="103" fill="#FDB157"/>
<rect x="-14" y="97" width="327" height="103" fill="#FFE600"/>
<rect x="-14" width="327" height="103" fill="#31CFF4"/>
<path d="M136.227 147.168L135.934 145.817C138.023 145.299 140.143 144.909 142.28 144.652C144.555 143.672 146.92 142.916 149.342 142.394L149.582 143.741C147.179 144.244 144.832 144.987 142.576 145.956C140.436 146.221 138.315 146.626 136.227 147.168V147.168Z" fill="white" fill-opacity="0.8" stroke="white" stroke-opacity="0.8" stroke-miterlimit="10" stroke-linejoin="round"/>
<path d="M142.58 146.084C144.867 145.095 147.249 144.342 149.688 143.836C149.608 143.331 149.52 142.826 149.426 142.314C146.977 142.836 144.584 143.597 142.284 144.587C140.144 144.844 138.022 145.233 135.93 145.752L135.858 145.747L136.194 147.254C138.295 146.727 140.429 146.337 142.58 146.084V146.084ZM142.287 144.734C144.54 143.773 146.879 143.03 149.273 142.518L149.49 143.71C147.111 144.218 144.789 144.961 142.557 145.93C140.442 146.175 138.345 146.557 136.279 147.073L136.021 145.891C138.091 145.378 140.19 144.993 142.307 144.735L142.287 144.734Z" fill="white" fill-opacity="0.8" stroke="white" stroke-opacity="0.8" stroke-miterlimit="10" stroke-linejoin="round"/>
<path d="M147.558 150.469C145.937 148.733 144.107 147.205 142.109 145.919L142.751 144.735C144.777 146.061 146.638 147.623 148.292 149.391C148.045 149.721 147.801 150.098 147.558 150.469Z" fill="white" fill-opacity="0.8" stroke="white" stroke-opacity="0.8" stroke-miterlimit="10" stroke-linejoin="round"/>
<path d="M148.386 149.385C146.693 147.569 144.783 145.969 142.699 144.62L141.981 145.946C144.02 147.253 145.886 148.811 147.537 150.582C147.837 150.169 148.101 149.779 148.386 149.385ZM142.777 144.851C144.758 146.154 146.579 147.682 148.205 149.406C147.986 149.712 147.765 150.044 147.552 150.357C145.96 148.656 144.167 147.155 142.212 145.887L142.777 144.851Z" fill="white" fill-opacity="0.8" stroke="white" stroke-opacity="0.8" stroke-miterlimit="10" stroke-linejoin="round"/>
<path d="M0.632392 138.704L0.339065 137.354C2.42848 136.835 4.54824 136.446 6.68568 136.189C8.961 135.209 11.3259 134.453 13.7475 133.931L13.9877 135.278C11.5845 135.781 9.23751 136.523 6.98165 137.493C4.84109 137.758 2.7202 138.163 0.632392 138.704V138.704Z" fill="white" fill-opacity="0.8" stroke="white" stroke-opacity="0.8" stroke-miterlimit="10" stroke-linejoin="round"/>
<path d="M6.98352 137.62C9.27027 136.631 11.6519 135.878 14.0916 135.372C14.0106 134.867 13.9231 134.362 13.8293 133.85C11.3796 134.372 8.98734 135.134 6.68658 136.123C4.54696 136.38 2.42515 136.769 0.333496 137.288L0.260648 137.283L0.596989 138.79C2.69855 138.263 4.83179 137.873 6.98352 137.62V137.62ZM6.69052 136.27C8.94264 135.309 11.282 134.566 13.6765 134.054L13.8932 135.246C11.5141 135.754 9.19181 136.497 6.96026 137.466C4.84511 137.712 2.74778 138.093 0.681716 138.609L0.424407 137.427C2.49425 136.915 4.59347 136.529 6.71027 136.271L6.69052 136.27Z" fill="white" fill-opacity="0.8" stroke="white" stroke-opacity="0.8" stroke-miterlimit="10" stroke-linejoin="round"/>
<path d="M11.9634 142.006C10.3426 140.27 8.51253 138.741 6.51521 137.456L7.15695 136.272C9.18316 137.597 11.0435 139.16 12.6982 140.928C12.4507 141.258 12.2068 141.635 11.9634 142.006Z" fill="white" fill-opacity="0.8" stroke="white" stroke-opacity="0.8" stroke-miterlimit="10" stroke-linejoin="round"/>
<path d="M12.7891 140.921C11.0961 139.106 9.18592 137.506 7.10174 136.157L6.3843 137.482C8.42263 138.79 10.2891 140.347 11.9401 142.119C12.2395 141.705 12.5042 141.316 12.7891 140.921ZM7.18024 136.388C9.16041 137.69 10.9819 139.219 12.6079 140.943C12.3886 141.249 12.1676 141.581 11.9545 141.893C10.3625 140.192 8.56944 138.692 6.61463 137.424L7.18024 136.388Z" fill="white" fill-opacity="0.8" stroke="white" stroke-opacity="0.8" stroke-miterlimit="10" stroke-linejoin="round"/>
<path d="M99.9208 152.077L99.7443 150.713C102.292 150.442 104.862 150.48 107.4 150.827C108.812 150.669 110.232 150.59 111.652 150.591C112.371 150.578 113.061 150.631 113.785 150.662C114.509 150.693 115.248 150.723 115.963 150.839L115.923 152.248C114.516 152.065 113.036 152.063 111.655 152.005C110.947 152.011 110.228 152.048 109.534 152.076L108.494 152.13C108.147 152.156 107.766 152.228 107.449 152.251L105.58 152.025L103.692 151.954L102.75 151.929L101.811 151.981C101.164 151.995 100.539 152.019 99.9208 152.077Z" fill="white" fill-opacity="0.8" stroke="white" stroke-opacity="0.8" stroke-miterlimit="10" stroke-linejoin="round"/>
<path d="M107.424 152.308C107.774 152.263 108.144 152.199 108.483 152.186L109.524 152.131C110.226 152.105 110.957 152.061 111.672 152.066C113.079 152.115 114.566 152.129 115.991 152.316L116.043 150.741C115.333 150.646 114.58 150.618 113.854 150.572C113.129 150.526 112.42 150.493 111.692 150.504C110.258 150.501 108.826 150.58 107.401 150.741C104.858 150.392 102.282 150.354 99.7302 150.628L99.6419 150.638L99.8398 152.171C100.466 152.099 101.089 152.085 101.723 152.039L102.673 151.98C102.99 151.981 103.303 152 103.615 152.005L105.527 152.076L107.424 152.308ZM107.393 150.912C108.789 150.752 110.192 150.673 111.597 150.676C112.312 150.657 112.997 150.713 113.717 150.739C114.437 150.765 115.161 150.796 115.853 150.888L115.821 152.125L114.769 152.014L113.693 151.964L111.59 151.89C110.885 151.901 110.177 151.931 109.493 151.961L108.468 152.014C108.115 152.044 107.773 152.09 107.428 152.131L105.577 151.909L103.704 151.837L102.777 151.81L101.844 151.858L99.9918 151.978L99.8423 150.778C102.35 150.526 104.88 150.574 107.376 150.923L107.393 150.912Z" fill="white" fill-opacity="0.8" stroke="white" stroke-opacity="0.8" stroke-miterlimit="10" stroke-linejoin="round"/>
<path d="M112.118 158.133C110.64 155.884 108.89 153.826 106.908 152.005C107.239 151.673 107.574 151.346 107.918 151.022C108.452 151.494 108.956 151.997 109.429 152.53C109.89 153.024 110.377 153.547 110.817 154.07C111.257 154.592 111.66 155.155 112.063 155.694L112.651 156.484L113.195 157.327L112.118 158.133Z" fill="white" fill-opacity="0.8" stroke="white" stroke-opacity="0.8" stroke-miterlimit="10" stroke-linejoin="round"/>
<path d="M113.326 157.365L112.771 156.505C112.588 156.22 112.383 155.965 112.174 155.689C111.774 155.156 111.339 154.591 110.901 154.035C110.463 153.479 109.973 152.989 109.487 152.456C109.001 151.914 108.484 151.4 107.941 150.916C107.55 151.278 107.172 151.649 106.809 152.017C108.825 153.864 110.603 155.955 112.103 158.241C112.499 157.946 112.912 157.656 113.326 157.365ZM107.937 151.155C108.456 151.62 108.948 152.112 109.411 152.632C109.872 153.125 110.327 153.622 110.76 154.134C111.192 154.646 111.58 155.186 111.98 155.719C112.379 156.232 112.752 156.765 113.096 157.316L112.138 158.012C110.688 155.816 108.978 153.802 107.045 152.015L107.937 151.155Z" fill="white" fill-opacity="0.8" stroke="white" stroke-opacity="0.8" stroke-miterlimit="10" stroke-linejoin="round"/>
<path d="M175.67 159.427L175.16 158.143C177.489 157.245 179.89 156.548 182.337 156.058C184.829 154.871 187.399 153.855 190.029 153.015L190.518 154.318C187.882 155.156 185.308 156.174 182.813 157.367C180.377 157.845 177.987 158.535 175.67 159.427V159.427Z" fill="white" fill-opacity="0.8" stroke="white" stroke-opacity="0.8" stroke-miterlimit="10" stroke-linejoin="round"/>
<path d="M182.83 157.447C185.354 156.239 187.96 155.211 190.63 154.371L190.058 152.903C187.4 153.752 184.803 154.78 182.284 155.981C179.834 156.466 177.43 157.163 175.1 158.065L175.021 158.06L175.595 159.495C177.943 158.606 180.364 157.921 182.83 157.447V157.447ZM182.361 156.139C184.829 154.962 187.374 153.953 189.978 153.118L190.41 154.264C187.803 155.095 185.256 156.104 182.787 157.285C180.378 157.761 178.013 158.44 175.719 159.316L175.272 158.189C177.573 157.306 179.944 156.621 182.361 156.139V156.139Z" fill="white" fill-opacity="0.8" stroke="white" stroke-opacity="0.8" stroke-miterlimit="10" stroke-linejoin="round"/>
<path d="M189.318 161.238C187.079 159.753 184.724 158.449 182.277 157.339L182.896 156.087C185.378 157.226 187.764 158.563 190.03 160.086L189.318 161.238Z" fill="white" fill-opacity="0.8" stroke="white" stroke-opacity="0.8" stroke-miterlimit="10" stroke-linejoin="round"/>
<path d="M190.148 160.06C187.834 158.5 185.397 157.132 182.859 155.971L182.163 157.385C184.664 158.506 187.066 159.833 189.346 161.353L190.148 160.06ZM182.938 156.196C185.366 157.313 187.703 158.62 189.925 160.105L189.301 161.124C187.101 159.669 184.789 158.391 182.388 157.3L182.938 156.196Z" fill="white" fill-opacity="0.8" stroke="white" stroke-opacity="0.8" stroke-miterlimit="10" stroke-linejoin="round"/>
<path d="M32.0274 150.449L31.5169 149.165C33.8459 148.268 36.2471 147.571 38.6944 147.081C41.1866 145.894 43.7565 144.877 46.3861 144.037L46.8753 145.34C44.2396 146.178 41.6652 147.197 39.1702 148.389C36.7341 148.868 34.3441 149.557 32.0274 150.449V150.449Z" fill="white" fill-opacity="0.8" stroke="white" stroke-opacity="0.8" stroke-miterlimit="10" stroke-linejoin="round"/>
<path d="M39.1872 148.47C41.7112 147.261 44.3177 146.233 46.9873 145.393L46.4154 143.925C43.7574 144.774 41.1602 145.802 38.6418 147.003C36.1912 147.488 33.7875 148.185 31.4579 149.087L31.3782 149.082L31.9522 150.517C34.3005 149.628 36.7211 148.943 39.1872 148.47V148.47ZM38.7182 147.161C41.1866 145.985 43.7312 144.975 46.3351 144.14L46.7679 145.286C44.1605 146.117 41.6132 147.127 39.1443 148.307C36.7352 148.783 34.3709 149.463 32.0768 150.338L31.6297 149.211C33.9303 148.329 36.3015 147.643 38.7182 147.161V147.161Z" fill="white" fill-opacity="0.8" stroke="white" stroke-opacity="0.8" stroke-miterlimit="10" stroke-linejoin="round"/>
<path d="M45.6745 152.261C43.4355 150.775 41.0811 149.471 38.6337 148.361L39.2531 147.109C41.735 148.248 44.1206 149.585 46.3874 151.108L45.6745 152.261Z" fill="white" fill-opacity="0.8" stroke="white" stroke-opacity="0.8" stroke-miterlimit="10" stroke-linejoin="round"/>
<path d="M46.5051 151.082C44.1916 149.522 41.7537 148.154 39.2163 146.994L38.5202 148.407C41.0209 149.528 43.4235 150.855 45.7033 152.375L46.5051 151.082ZM39.2952 147.218C41.7237 148.335 44.0601 149.642 46.2824 151.128L45.6578 152.146C43.4577 150.692 41.1463 149.413 38.7451 148.322L39.2952 147.218Z" fill="white" fill-opacity="0.8" stroke="white" stroke-opacity="0.8" stroke-miterlimit="10" stroke-linejoin="round"/>
<path d="M249.048 159.755L248.802 158.405C249.956 158.201 251.126 158.022 252.295 157.83C253.463 157.638 254.652 157.565 255.834 157.431C258.36 156.516 260.936 155.748 263.551 155.13L263.923 156.472C262.572 156.765 261.251 157.141 259.957 157.528C258.663 157.914 257.377 158.367 256.141 158.794C254.948 158.882 253.758 159.063 252.576 159.196C251.394 159.329 250.218 159.569 249.048 159.755Z" fill="white" fill-opacity="0.8" stroke="white" stroke-opacity="0.8" stroke-miterlimit="10" stroke-linejoin="round"/>
<path d="M256.155 158.873C257.444 158.44 258.726 157.954 260.023 157.594L262.011 157.022C262.66 156.842 263.359 156.697 264.042 156.533L263.632 155.027C260.989 155.65 258.384 156.424 255.829 157.345C254.641 157.479 253.459 157.613 252.29 157.744C251.122 157.876 249.951 158.108 248.797 158.312L248.711 158.322L248.996 159.841C250.171 159.642 251.358 159.441 252.555 159.266C253.753 159.091 254.943 158.97 256.155 158.873ZM255.848 157.51C258.352 156.609 260.905 155.848 263.494 155.23L263.821 156.41C261.213 157.021 258.645 157.788 256.13 158.709C254.944 158.802 253.773 158.975 252.604 159.106C251.436 159.238 250.272 159.476 249.116 159.66L248.902 158.468L252.349 157.912C253.511 157.78 254.678 157.629 255.848 157.51Z" fill="white" fill-opacity="0.8" stroke="white" stroke-opacity="0.8" stroke-miterlimit="10" stroke-linejoin="round"/>
<path d="M262.142 163.265C261.132 162.436 260.072 161.693 258.986 160.9C257.901 160.106 256.814 159.426 255.628 158.691L256.36 157.532C258.649 158.941 260.85 160.49 262.948 162.171L262.142 163.265Z" fill="white" fill-opacity="0.8" stroke="white" stroke-opacity="0.8" stroke-miterlimit="10" stroke-linejoin="round"/>
<path d="M263.062 162.16C262.015 161.295 260.93 160.502 259.81 159.705C258.69 158.909 257.525 158.178 256.336 157.422L255.514 158.726C256.695 159.475 257.841 160.208 258.944 160.98C260.047 161.752 261.127 162.546 262.158 163.392L263.062 162.16ZM256.388 157.644C258.629 159.027 260.784 160.545 262.839 162.192L262.131 163.155C261.137 162.337 260.099 161.612 259.034 160.829C257.97 160.047 256.865 159.382 255.74 158.66L256.388 157.644Z" fill="white" fill-opacity="0.8" stroke="white" stroke-opacity="0.8" stroke-miterlimit="10" stroke-linejoin="round"/>
<path d="M210.308 149.968L209.831 148.679C210.824 148.256 211.877 147.918 212.874 147.542C213.87 147.166 214.912 146.9 215.991 146.59C217.031 145.93 218.104 145.393 219.204 144.751C220.304 144.109 221.42 143.621 222.562 143.055L223.146 144.324C221.987 144.856 220.863 145.456 219.756 146.018C218.648 146.58 217.575 147.21 216.527 147.876C214.418 148.459 212.341 149.157 210.308 149.968V149.968Z" fill="white" fill-opacity="0.8" stroke="white" stroke-opacity="0.8" stroke-miterlimit="10" stroke-linejoin="round"/>
<path d="M216.547 148.004C217.607 147.359 218.698 146.75 219.81 146.122C220.922 145.494 222.077 144.935 223.248 144.418L222.633 143C221.477 143.592 220.345 144.112 219.235 144.7C218.126 145.288 217.042 145.891 215.994 146.557C214.948 146.876 213.893 147.141 212.877 147.516C211.861 147.89 210.835 148.204 209.837 148.62L209.768 148.649L210.301 150.094C212.344 149.285 214.429 148.587 216.547 148.004V148.004ZM216.043 146.72C217.071 146.066 218.118 145.521 219.223 144.892C220.328 144.264 221.425 143.782 222.553 143.215L223.041 144.331C221.895 144.864 220.779 145.451 219.684 146.007C218.59 146.563 217.531 147.201 216.497 147.847C214.421 148.415 212.377 149.095 210.375 149.886L209.962 148.747C211.94 147.955 213.959 147.271 216.012 146.698L216.043 146.72Z" fill="white" fill-opacity="0.8" stroke="white" stroke-opacity="0.8" stroke-miterlimit="10" stroke-linejoin="round"/>
<path d="M222.62 151.356C220.488 150.075 218.283 148.921 216.016 147.897L216.479 146.595C217.656 147.137 218.799 147.702 219.908 148.266C221.017 148.829 222.114 149.472 223.172 150.106C222.985 150.533 222.799 150.941 222.62 151.356Z" fill="white" fill-opacity="0.8" stroke="white" stroke-opacity="0.8" stroke-miterlimit="10" stroke-linejoin="round"/>
<path d="M223.262 150.105C222.186 149.444 221.079 148.847 219.934 148.221C218.788 147.596 217.631 147.062 216.434 146.513L215.917 147.945C218.228 148.985 220.476 150.16 222.649 151.464C222.851 151.005 223.04 150.551 223.262 150.105ZM216.52 146.725C217.665 147.257 218.788 147.815 219.871 148.364C220.955 148.913 222.032 149.554 223.085 150.168L222.603 151.242C220.509 149.993 218.348 148.862 216.129 147.852L216.52 146.725Z" fill="white" fill-opacity="0.8" stroke="white" stroke-opacity="0.8" stroke-miterlimit="10" stroke-linejoin="round"/>
<path d="M66.6644 140.99L66.1876 139.702C67.18 139.279 68.2336 138.94 69.2297 138.565C70.2258 138.189 71.2682 137.923 72.3467 137.612C73.3876 136.953 74.4606 136.416 75.5603 135.774C76.66 135.132 77.7764 134.644 78.9179 134.078L79.5025 135.347C78.3433 135.878 77.2196 136.479 76.1117 137.041C75.0039 137.602 73.9315 138.233 72.8836 138.898C70.7738 139.481 68.6976 140.18 66.6644 140.99V140.99Z" fill="white" fill-opacity="0.8" stroke="white" stroke-opacity="0.8" stroke-miterlimit="10" stroke-linejoin="round"/>
<path d="M72.9022 139.026C73.9621 138.381 75.0531 137.772 76.1652 137.144C77.2773 136.516 78.4315 135.958 79.6031 135.44L78.9881 134.022C77.8317 134.614 76.6999 135.134 75.5903 135.722C74.4808 136.311 73.3969 136.914 72.349 137.579C71.3033 137.898 70.2476 138.164 69.2316 138.538C68.2156 138.913 67.1902 139.226 66.1916 139.642L66.1231 139.671L66.6565 141.117C68.6992 140.308 70.7842 139.61 72.9022 139.026V139.026ZM72.3985 137.742C73.4256 137.089 74.4725 136.543 75.578 135.915C76.6835 135.286 77.7797 134.804 78.9078 134.237L79.3957 135.353C78.2497 135.886 77.1335 136.474 76.0394 137.03C74.9452 137.586 73.8857 138.223 72.8523 138.87C70.7759 139.437 68.732 140.118 66.7298 140.908L66.3166 139.77C68.2947 138.978 70.3143 138.293 72.3666 137.72L72.3985 137.742Z" fill="white" fill-opacity="0.8" stroke="white" stroke-opacity="0.8" stroke-miterlimit="10" stroke-linejoin="round"/>
<path d="M78.9758 142.378C76.8439 141.098 74.6391 139.943 72.3726 138.92L72.8355 137.618C74.0126 138.159 75.1548 138.725 76.2639 139.288C77.373 139.852 78.4705 140.495 79.5285 141.128C79.3414 141.556 79.1554 141.964 78.9758 142.378Z" fill="white" fill-opacity="0.8" stroke="white" stroke-opacity="0.8" stroke-miterlimit="10" stroke-linejoin="round"/>
<path d="M79.618 141.128C78.5418 140.466 77.4348 139.87 76.2897 139.244C75.1446 138.618 73.9869 138.085 72.7904 137.535L72.2727 138.967C74.5841 140.007 76.8321 141.182 79.0051 142.487C79.2076 142.027 79.3965 141.573 79.618 141.128ZM72.8767 137.747C74.0211 138.28 75.1439 138.838 76.2273 139.386C77.3108 139.935 78.3883 140.577 79.441 141.19L78.9594 142.264C76.8654 141.016 74.704 139.884 72.485 138.874L72.8767 137.747Z" fill="white" fill-opacity="0.8" stroke="white" stroke-opacity="0.8" stroke-miterlimit="10" stroke-linejoin="round"/>
<path d="M286.071 150.22L285.702 148.896C286.726 148.557 287.804 148.306 288.828 148.014C289.851 147.721 290.912 147.542 292.012 147.321C293.104 146.75 294.218 146.302 295.366 145.753C296.515 145.204 297.668 144.809 298.852 144.339L299.33 145.652C298.131 146.086 296.962 146.592 295.812 147.061C294.661 147.53 293.541 148.07 292.442 148.647C290.291 149.054 288.164 149.579 286.071 150.22V150.22Z" fill="white" fill-opacity="0.8" stroke="white" stroke-opacity="0.8" stroke-miterlimit="10" stroke-linejoin="round"/>
<path d="M292.448 148.777C293.558 148.221 294.695 147.704 295.855 147.169C297.015 146.635 298.211 146.174 299.422 145.754L298.925 144.291C297.724 144.785 296.553 145.21 295.399 145.705C294.245 146.2 293.115 146.712 292.016 147.289C290.948 147.521 289.874 147.699 288.83 147.988C287.787 148.278 286.739 148.506 285.71 148.838L285.639 148.861L286.052 150.346C288.154 149.708 290.289 149.184 292.448 148.777V148.777ZM292.052 147.456C293.129 146.889 294.218 146.431 295.371 145.896C296.524 145.361 297.657 144.97 298.828 144.498L299.222 145.651C298.036 146.087 296.875 146.581 295.739 147.045C294.603 147.509 293.495 148.058 292.411 148.617C290.295 149.011 288.202 149.521 286.142 150.144L285.824 148.976C287.86 148.349 289.929 147.833 292.022 147.431L292.052 147.456Z" fill="white" fill-opacity="0.8" stroke="white" stroke-opacity="0.8" stroke-miterlimit="10" stroke-linejoin="round"/>
<path d="M298.226 152.616C296.206 151.165 294.104 149.833 291.929 148.626L292.498 147.367C293.626 148.003 294.718 148.661 295.777 149.314C296.836 149.967 297.877 150.698 298.879 151.416C298.658 151.827 298.439 152.218 298.226 152.616Z" fill="white" fill-opacity="0.8" stroke="white" stroke-opacity="0.8" stroke-miterlimit="10" stroke-linejoin="round"/>
<path d="M298.973 151.423C297.955 150.676 296.9 149.99 295.811 149.272C294.721 148.554 293.611 147.927 292.464 147.281L291.83 148.665C294.048 149.892 296.192 151.248 298.25 152.727C298.49 152.286 298.715 151.849 298.973 151.423ZM292.532 147.5C293.629 148.124 294.702 148.773 295.737 149.409C296.771 150.045 297.793 150.773 298.791 151.471L298.223 152.502C296.239 151.085 294.178 149.779 292.049 148.59L292.532 147.5Z" fill="white" fill-opacity="0.8" stroke="white" stroke-opacity="0.8" stroke-miterlimit="10" stroke-linejoin="round"/>
<path d="M136.227 237.168L135.934 235.817C138.023 235.299 140.143 234.909 142.28 234.652C144.555 233.672 146.92 232.916 149.342 232.394L149.582 233.741C147.179 234.244 144.832 234.987 142.576 235.956C140.436 236.221 138.315 236.626 136.227 237.168V237.168Z" fill="white" fill-opacity="0.8" stroke="white" stroke-opacity="0.8" stroke-miterlimit="10" stroke-linejoin="round"/>
<path d="M142.58 236.084C144.867 235.095 147.249 234.342 149.688 233.836C149.608 233.331 149.52 232.826 149.426 232.314C146.977 232.836 144.584 233.597 142.284 234.587C140.144 234.844 138.022 235.233 135.93 235.752L135.858 235.747L136.194 237.254C138.295 236.727 140.429 236.337 142.58 236.084V236.084ZM142.287 234.734C144.54 233.773 146.879 233.03 149.273 232.518L149.49 233.71C147.111 234.218 144.789 234.961 142.557 235.93C140.442 236.175 138.345 236.557 136.279 237.073L136.021 235.891C138.091 235.378 140.19 234.993 142.307 234.735L142.287 234.734Z" fill="white" fill-opacity="0.8" stroke="white" stroke-opacity="0.8" stroke-miterlimit="10" stroke-linejoin="round"/>
<path d="M147.558 240.469C145.937 238.733 144.107 237.205 142.109 235.919L142.751 234.735C144.777 236.061 146.638 237.623 148.292 239.391C148.045 239.721 147.801 240.098 147.558 240.469Z" fill="white" fill-opacity="0.8" stroke="white" stroke-opacity="0.8" stroke-miterlimit="10" stroke-linejoin="round"/>
<path d="M148.386 239.385C146.693 237.569 144.783 235.969 142.699 234.62L141.981 235.946C144.02 237.253 145.886 238.811 147.537 240.582C147.837 240.169 148.101 239.779 148.386 239.385ZM142.777 234.851C144.758 236.154 146.579 237.682 148.205 239.406C147.986 239.712 147.765 240.044 147.552 240.357C145.96 238.656 144.167 237.155 142.212 235.887L142.777 234.851Z" fill="white" fill-opacity="0.8" stroke="white" stroke-opacity="0.8" stroke-miterlimit="10" stroke-linejoin="round"/>
<path d="M0.632392 228.704L0.339065 227.354C2.42848 226.835 4.54824 226.446 6.68568 226.189C8.961 225.209 11.3259 224.453 13.7475 223.931L13.9877 225.278C11.5845 225.781 9.23751 226.523 6.98165 227.493C4.84109 227.758 2.7202 228.163 0.632392 228.704V228.704Z" fill="white" fill-opacity="0.8" stroke="white" stroke-opacity="0.8" stroke-miterlimit="10" stroke-linejoin="round"/>
<path d="M6.98352 227.62C9.27027 226.631 11.6519 225.878 14.0916 225.372C14.0106 224.867 13.9231 224.362 13.8293 223.85C11.3796 224.372 8.98734 225.134 6.68658 226.123C4.54696 226.38 2.42515 226.769 0.333496 227.288L0.260648 227.283L0.596989 228.79C2.69855 228.263 4.83179 227.873 6.98352 227.62V227.62ZM6.69052 226.27C8.94264 225.309 11.282 224.566 13.6765 224.054L13.8932 225.246C11.5141 225.754 9.19181 226.497 6.96026 227.466C4.84511 227.712 2.74778 228.093 0.681716 228.609L0.424407 227.427C2.49425 226.915 4.59347 226.529 6.71027 226.271L6.69052 226.27Z" fill="white" fill-opacity="0.8" stroke="white" stroke-opacity="0.8" stroke-miterlimit="10" stroke-linejoin="round"/>
<path d="M11.9634 232.006C10.3426 230.27 8.51253 228.741 6.51521 227.456L7.15695 226.272C9.18316 227.597 11.0435 229.16 12.6982 230.928C12.4507 231.258 12.2068 231.635 11.9634 232.006Z" fill="white" fill-opacity="0.8" stroke="white" stroke-opacity="0.8" stroke-miterlimit="10" stroke-linejoin="round"/>
<path d="M12.7891 230.921C11.0961 229.106 9.18592 227.506 7.10174 226.157L6.3843 227.482C8.42263 228.79 10.2891 230.347 11.9401 232.119C12.2395 231.705 12.5042 231.316 12.7891 230.921ZM7.18024 226.388C9.16041 227.69 10.9819 229.219 12.6079 230.943C12.3886 231.249 12.1676 231.581 11.9545 231.893C10.3625 230.192 8.56944 228.692 6.61463 227.424L7.18024 226.388Z" fill="white" fill-opacity="0.8" stroke="white" stroke-opacity="0.8" stroke-miterlimit="10" stroke-linejoin="round"/>
<path d="M99.9208 242.077L99.7443 240.713C102.292 240.442 104.862 240.48 107.4 240.827C108.812 240.669 110.232 240.59 111.652 240.591C112.371 240.578 113.061 240.631 113.785 240.662C114.509 240.693 115.248 240.723 115.963 240.839L115.923 242.248C114.516 242.065 113.036 242.063 111.655 242.005C110.947 242.011 110.228 242.048 109.534 242.076L108.494 242.13C108.147 242.156 107.766 242.228 107.449 242.251L105.58 242.025L103.692 241.954L102.75 241.929L101.811 241.981C101.164 241.995 100.539 242.019 99.9208 242.077Z" fill="white" fill-opacity="0.8" stroke="white" stroke-opacity="0.8" stroke-miterlimit="10" stroke-linejoin="round"/>
<path d="M107.424 242.308C107.774 242.263 108.144 242.199 108.483 242.186L109.524 242.131C110.226 242.105 110.957 242.061 111.672 242.066C113.079 242.115 114.566 242.129 115.991 242.316L116.043 240.741C115.333 240.646 114.58 240.618 113.854 240.572C113.129 240.526 112.42 240.493 111.692 240.504C110.258 240.501 108.826 240.58 107.401 240.741C104.858 240.392 102.282 240.354 99.7302 240.628L99.6419 240.638L99.8398 242.171C100.466 242.099 101.089 242.085 101.723 242.039L102.673 241.98C102.99 241.981 103.303 242 103.615 242.005L105.527 242.076L107.424 242.308ZM107.393 240.912C108.789 240.752 110.192 240.673 111.597 240.676C112.312 240.657 112.997 240.713 113.717 240.739C114.437 240.765 115.161 240.796 115.853 240.888L115.821 242.125L114.769 242.014L113.693 241.964L111.59 241.89C110.885 241.901 110.177 241.931 109.493 241.961L108.468 242.014C108.115 242.044 107.773 242.09 107.428 242.131L105.577 241.909L103.704 241.837L102.777 241.81L101.844 241.858L99.9918 241.978L99.8423 240.778C102.35 240.526 104.88 240.574 107.376 240.923L107.393 240.912Z" fill="white" fill-opacity="0.8" stroke="white" stroke-opacity="0.8" stroke-miterlimit="10" stroke-linejoin="round"/>
<path d="M112.118 248.133C110.64 245.884 108.89 243.826 106.908 242.005C107.239 241.673 107.574 241.346 107.918 241.022C108.452 241.494 108.956 241.997 109.429 242.53C109.89 243.024 110.377 243.547 110.817 244.07C111.257 244.592 111.66 245.155 112.063 245.694L112.651 246.484L113.195 247.327L112.118 248.133Z" fill="white" fill-opacity="0.8" stroke="white" stroke-opacity="0.8" stroke-miterlimit="10" stroke-linejoin="round"/>
<path d="M113.326 247.365L112.771 246.505C112.588 246.22 112.383 245.965 112.174 245.689C111.774 245.156 111.339 244.591 110.901 244.035C110.463 243.479 109.973 242.989 109.487 242.456C109.001 241.914 108.484 241.4 107.941 240.916C107.55 241.278 107.172 241.649 106.809 242.017C108.825 243.864 110.603 245.955 112.103 248.241C112.499 247.946 112.912 247.656 113.326 247.365ZM107.937 241.155C108.456 241.62 108.948 242.112 109.411 242.632C109.872 243.125 110.327 243.622 110.76 244.134C111.192 244.646 111.58 245.186 111.98 245.719C112.379 246.232 112.752 246.765 113.096 247.316L112.138 248.012C110.688 245.816 108.978 243.802 107.045 242.015L107.937 241.155Z" fill="white" fill-opacity="0.8" stroke="white" stroke-opacity="0.8" stroke-miterlimit="10" stroke-linejoin="round"/>
<path d="M175.67 249.427L175.16 248.143C177.489 247.245 179.89 246.548 182.337 246.058C184.829 244.871 187.399 243.855 190.029 243.015L190.518 244.318C187.882 245.156 185.308 246.174 182.813 247.367C180.377 247.845 177.987 248.535 175.67 249.427V249.427Z" fill="white" fill-opacity="0.8" stroke="white" stroke-opacity="0.8" stroke-miterlimit="10" stroke-linejoin="round"/>
<path d="M182.83 247.447C185.354 246.239 187.96 245.211 190.63 244.371L190.058 242.903C187.4 243.752 184.803 244.78 182.284 245.981C179.834 246.466 177.43 247.163 175.1 248.065L175.021 248.06L175.595 249.495C177.943 248.606 180.364 247.921 182.83 247.447V247.447ZM182.361 246.139C184.829 244.962 187.374 243.953 189.978 243.118L190.41 244.264C187.803 245.095 185.256 246.104 182.787 247.285C180.378 247.761 178.013 248.44 175.719 249.316L175.272 248.189C177.573 247.306 179.944 246.621 182.361 246.139V246.139Z" fill="white" fill-opacity="0.8" stroke="white" stroke-opacity="0.8" stroke-miterlimit="10" stroke-linejoin="round"/>
<path d="M189.318 251.238C187.079 249.753 184.724 248.449 182.277 247.339L182.896 246.087C185.378 247.226 187.764 248.563 190.03 250.086L189.318 251.238Z" fill="white" fill-opacity="0.8" stroke="white" stroke-opacity="0.8" stroke-miterlimit="10" stroke-linejoin="round"/>
<path d="M190.148 250.06C187.834 248.5 185.397 247.132 182.859 245.971L182.163 247.385C184.664 248.506 187.066 249.833 189.346 251.353L190.148 250.06ZM182.938 246.196C185.366 247.313 187.703 248.62 189.925 250.105L189.301 251.124C187.101 249.669 184.789 248.391 182.388 247.3L182.938 246.196Z" fill="white" fill-opacity="0.8" stroke="white" stroke-opacity="0.8" stroke-miterlimit="10" stroke-linejoin="round"/>
<path d="M32.0274 240.449L31.5169 239.165C33.8459 238.268 36.2471 237.571 38.6944 237.081C41.1866 235.894 43.7565 234.877 46.3861 234.037L46.8753 235.34C44.2396 236.178 41.6652 237.197 39.1702 238.389C36.7341 238.868 34.3441 239.557 32.0274 240.449V240.449Z" fill="white" fill-opacity="0.8" stroke="white" stroke-opacity="0.8" stroke-miterlimit="10" stroke-linejoin="round"/>
<path d="M39.1872 238.47C41.7112 237.261 44.3177 236.233 46.9873 235.393L46.4154 233.925C43.7574 234.774 41.1602 235.802 38.6418 237.003C36.1912 237.488 33.7875 238.185 31.4579 239.087L31.3782 239.082L31.9522 240.517C34.3005 239.628 36.7211 238.943 39.1872 238.47V238.47ZM38.7182 237.161C41.1866 235.985 43.7312 234.975 46.3351 234.14L46.7679 235.286C44.1605 236.117 41.6132 237.127 39.1443 238.307C36.7352 238.783 34.3709 239.463 32.0768 240.338L31.6297 239.211C33.9303 238.329 36.3015 237.643 38.7182 237.161V237.161Z" fill="white" fill-opacity="0.8" stroke="white" stroke-opacity="0.8" stroke-miterlimit="10" stroke-linejoin="round"/>
<path d="M45.6745 242.261C43.4355 240.775 41.0811 239.471 38.6337 238.361L39.2531 237.109C41.735 238.248 44.1206 239.585 46.3874 241.108L45.6745 242.261Z" fill="white" fill-opacity="0.8" stroke="white" stroke-opacity="0.8" stroke-miterlimit="10" stroke-linejoin="round"/>
<path d="M46.5051 241.082C44.1916 239.522 41.7537 238.154 39.2163 236.994L38.5202 238.407C41.0209 239.528 43.4235 240.855 45.7033 242.375L46.5051 241.082ZM39.2952 237.218C41.7237 238.335 44.0601 239.642 46.2824 241.128L45.6578 242.146C43.4577 240.692 41.1463 239.413 38.7451 238.322L39.2952 237.218Z" fill="white" fill-opacity="0.8" stroke="white" stroke-opacity="0.8" stroke-miterlimit="10" stroke-linejoin="round"/>
<path d="M249.048 249.755L248.802 248.405C249.956 248.201 251.126 248.022 252.295 247.83C253.463 247.638 254.652 247.565 255.834 247.431C258.36 246.516 260.936 245.748 263.551 245.13L263.923 246.472C262.572 246.765 261.251 247.141 259.957 247.528C258.663 247.914 257.377 248.367 256.141 248.794C254.948 248.882 253.758 249.063 252.576 249.196C251.394 249.329 250.218 249.569 249.048 249.755Z" fill="white" fill-opacity="0.8" stroke="white" stroke-opacity="0.8" stroke-miterlimit="10" stroke-linejoin="round"/>
<path d="M256.155 248.873C257.444 248.44 258.726 247.954 260.023 247.594L262.011 247.022C262.66 246.842 263.359 246.697 264.042 246.533L263.632 245.027C260.989 245.65 258.384 246.424 255.829 247.345C254.641 247.479 253.459 247.613 252.29 247.744C251.122 247.876 249.951 248.108 248.797 248.312L248.711 248.322L248.996 249.841C250.171 249.642 251.358 249.441 252.555 249.266C253.753 249.091 254.943 248.97 256.155 248.873ZM255.848 247.51C258.352 246.609 260.905 245.848 263.494 245.23L263.821 246.41C261.213 247.021 258.645 247.788 256.13 248.709C254.944 248.802 253.773 248.975 252.604 249.106C251.436 249.238 250.272 249.476 249.116 249.66L248.902 248.468L252.349 247.912C253.511 247.78 254.678 247.629 255.848 247.51Z" fill="white" fill-opacity="0.8" stroke="white" stroke-opacity="0.8" stroke-miterlimit="10" stroke-linejoin="round"/>
<path d="M262.142 253.265C261.132 252.436 260.072 251.693 258.986 250.9C257.901 250.106 256.814 249.426 255.628 248.691L256.36 247.532C258.649 248.941 260.85 250.49 262.948 252.171L262.142 253.265Z" fill="white" fill-opacity="0.8" stroke="white" stroke-opacity="0.8" stroke-miterlimit="10" stroke-linejoin="round"/>
<path d="M263.062 252.16C262.015 251.295 260.93 250.502 259.81 249.705C258.69 248.909 257.525 248.178 256.336 247.422L255.514 248.726C256.695 249.475 257.841 250.208 258.944 250.98C260.047 251.752 261.127 252.546 262.158 253.392L263.062 252.16ZM256.388 247.644C258.629 249.027 260.784 250.545 262.839 252.192L262.131 253.155C261.137 252.337 260.099 251.612 259.034 250.829C257.97 250.047 256.865 249.382 255.74 248.66L256.388 247.644Z" fill="white" fill-opacity="0.8" stroke="white" stroke-opacity="0.8" stroke-miterlimit="10" stroke-linejoin="round"/>
<path d="M210.308 239.968L209.831 238.679C210.824 238.256 211.877 237.918 212.874 237.542C213.87 237.166 214.912 236.9 215.991 236.59C217.031 235.93 218.104 235.393 219.204 234.751C220.304 234.109 221.42 233.621 222.562 233.055L223.146 234.324C221.987 234.856 220.863 235.456 219.756 236.018C218.648 236.58 217.575 237.21 216.527 237.876C214.418 238.459 212.341 239.157 210.308 239.968V239.968Z" fill="white" fill-opacity="0.8" stroke="white" stroke-opacity="0.8" stroke-miterlimit="10" stroke-linejoin="round"/>
<path d="M216.547 238.004C217.607 237.359 218.698 236.75 219.81 236.122C220.922 235.494 222.077 234.935 223.248 234.418L222.633 233C221.477 233.592 220.345 234.112 219.235 234.7C218.126 235.288 217.042 235.891 215.994 236.557C214.948 236.876 213.893 237.141 212.877 237.516C211.861 237.89 210.835 238.204 209.837 238.62L209.768 238.649L210.301 240.094C212.344 239.285 214.429 238.587 216.547 238.004V238.004ZM216.043 236.72C217.071 236.066 218.118 235.521 219.223 234.892C220.328 234.264 221.425 233.782 222.553 233.215L223.041 234.331C221.895 234.864 220.779 235.451 219.684 236.007C218.59 236.563 217.531 237.201 216.497 237.847C214.421 238.415 212.377 239.095 210.375 239.886L209.962 238.747C211.94 237.955 213.959 237.271 216.012 236.698L216.043 236.72Z" fill="white" fill-opacity="0.8" stroke="white" stroke-opacity="0.8" stroke-miterlimit="10" stroke-linejoin="round"/>
<path d="M222.62 241.356C220.488 240.075 218.283 238.921 216.016 237.897L216.479 236.595C217.656 237.137 218.799 237.702 219.908 238.266C221.017 238.829 222.114 239.472 223.172 240.106C222.985 240.533 222.799 240.941 222.62 241.356Z" fill="white" fill-opacity="0.8" stroke="white" stroke-opacity="0.8" stroke-miterlimit="10" stroke-linejoin="round"/>
<path d="M223.262 240.105C222.186 239.444 221.079 238.847 219.934 238.221C218.788 237.596 217.631 237.062 216.434 236.513L215.917 237.945C218.228 238.985 220.476 240.16 222.649 241.464C222.851 241.005 223.04 240.551 223.262 240.105ZM216.52 236.725C217.665 237.257 218.788 237.815 219.871 238.364C220.955 238.913 222.032 239.554 223.085 240.168L222.603 241.242C220.509 239.993 218.348 238.862 216.129 237.852L216.52 236.725Z" fill="white" fill-opacity="0.8" stroke="white" stroke-opacity="0.8" stroke-miterlimit="10" stroke-linejoin="round"/>
<path d="M66.6644 230.99L66.1876 229.702C67.18 229.279 68.2336 228.94 69.2297 228.565C70.2258 228.189 71.2682 227.923 72.3467 227.612C73.3876 226.953 74.4606 226.416 75.5603 225.774C76.66 225.132 77.7764 224.644 78.9179 224.078L79.5025 225.347C78.3433 225.878 77.2196 226.479 76.1117 227.041C75.0039 227.602 73.9315 228.233 72.8836 228.898C70.7738 229.481 68.6976 230.18 66.6644 230.99V230.99Z" fill="white" fill-opacity="0.8" stroke="white" stroke-opacity="0.8" stroke-miterlimit="10" stroke-linejoin="round"/>
<path d="M72.9022 229.026C73.9621 228.381 75.0531 227.772 76.1652 227.144C77.2773 226.516 78.4315 225.958 79.6031 225.44L78.9881 224.022C77.8317 224.614 76.6999 225.134 75.5903 225.722C74.4808 226.311 73.3969 226.914 72.349 227.579C71.3033 227.898 70.2476 228.164 69.2316 228.538C68.2156 228.913 67.1902 229.226 66.1916 229.642L66.1231 229.671L66.6565 231.117C68.6992 230.308 70.7842 229.61 72.9022 229.026V229.026ZM72.3985 227.742C73.4256 227.089 74.4725 226.543 75.578 225.915C76.6835 225.286 77.7797 224.804 78.9078 224.237L79.3957 225.353C78.2497 225.886 77.1335 226.474 76.0394 227.03C74.9452 227.586 73.8857 228.223 72.8523 228.87C70.7759 229.437 68.732 230.118 66.7298 230.908L66.3166 229.77C68.2947 228.978 70.3143 228.293 72.3666 227.72L72.3985 227.742Z" fill="white" fill-opacity="0.8" stroke="white" stroke-opacity="0.8" stroke-miterlimit="10" stroke-linejoin="round"/>
<path d="M78.9758 232.378C76.8439 231.098 74.6391 229.943 72.3726 228.92L72.8355 227.618C74.0126 228.159 75.1548 228.725 76.2639 229.288C77.373 229.852 78.4705 230.495 79.5285 231.128C79.3414 231.556 79.1554 231.964 78.9758 232.378Z" fill="white" fill-opacity="0.8" stroke="white" stroke-opacity="0.8" stroke-miterlimit="10" stroke-linejoin="round"/>
<path d="M79.618 231.128C78.5418 230.466 77.4348 229.87 76.2897 229.244C75.1446 228.618 73.9869 228.085 72.7904 227.535L72.2727 228.967C74.5841 230.007 76.8321 231.182 79.0051 232.487C79.2076 232.027 79.3965 231.573 79.618 231.128ZM72.8767 227.747C74.0211 228.28 75.1439 228.838 76.2273 229.386C77.3108 229.935 78.3883 230.577 79.441 231.19L78.9594 232.264C76.8654 231.016 74.704 229.884 72.485 228.874L72.8767 227.747Z" fill="white" fill-opacity="0.8" stroke="white" stroke-opacity="0.8" stroke-miterlimit="10" stroke-linejoin="round"/>
<path d="M286.071 240.22L285.702 238.896C286.726 238.557 287.804 238.306 288.828 238.014C289.851 237.721 290.912 237.542 292.012 237.321C293.104 236.75 294.218 236.302 295.366 235.753C296.515 235.204 297.668 234.809 298.852 234.339L299.33 235.652C298.131 236.086 296.962 236.592 295.812 237.061C294.661 237.53 293.541 238.07 292.442 238.647C290.291 239.054 288.164 239.579 286.071 240.22V240.22Z" fill="white" fill-opacity="0.8" stroke="white" stroke-opacity="0.8" stroke-miterlimit="10" stroke-linejoin="round"/>
<path d="M292.448 238.777C293.558 238.221 294.695 237.704 295.855 237.169C297.015 236.635 298.211 236.174 299.422 235.754L298.925 234.291C297.724 234.785 296.553 235.21 295.399 235.705C294.245 236.2 293.115 236.712 292.016 237.289C290.948 237.521 289.874 237.699 288.83 237.988C287.787 238.278 286.739 238.506 285.71 238.838L285.639 238.861L286.052 240.346C288.154 239.708 290.289 239.184 292.448 238.777V238.777ZM292.052 237.456C293.129 236.889 294.218 236.431 295.371 235.896C296.524 235.361 297.657 234.97 298.828 234.498L299.222 235.651C298.036 236.087 296.875 236.581 295.739 237.045C294.603 237.509 293.495 238.058 292.411 238.617C290.295 239.011 288.202 239.521 286.142 240.144L285.824 238.976C287.86 238.349 289.929 237.833 292.022 237.431L292.052 237.456Z" fill="white" fill-opacity="0.8" stroke="white" stroke-opacity="0.8" stroke-miterlimit="10" stroke-linejoin="round"/>
<path d="M298.226 242.616C296.206 241.165 294.104 239.833 291.929 238.626L292.498 237.367C293.626 238.003 294.718 238.661 295.777 239.314C296.836 239.967 297.877 240.698 298.879 241.416C298.658 241.827 298.439 242.218 298.226 242.616Z" fill="white" fill-opacity="0.8" stroke="white" stroke-opacity="0.8" stroke-miterlimit="10" stroke-linejoin="round"/>
<path d="M298.973 241.423C297.955 240.676 296.9 239.99 295.811 239.272C294.721 238.554 293.611 237.927 292.464 237.281L291.83 238.665C294.048 239.892 296.192 241.248 298.25 242.727C298.49 242.286 298.715 241.849 298.973 241.423ZM292.532 237.5C293.629 238.124 294.702 238.773 295.737 239.409C296.771 240.045 297.793 240.773 298.791 241.471L298.223 242.502C296.239 241.085 294.178 239.779 292.049 238.59L292.532 237.5Z" fill="white" fill-opacity="0.8" stroke="white" stroke-opacity="0.8" stroke-miterlimit="10" stroke-linejoin="round"/>
<path d="M136.227 55.1678L135.934 53.8174C138.023 53.2986 140.143 52.9094 142.28 52.6521C144.555 51.6724 146.92 50.9162 149.342 50.3941L149.582 51.741C147.179 52.2445 144.832 52.9865 142.576 53.956C140.436 54.2213 138.315 54.6261 136.227 55.1678V55.1678Z" fill="white" fill-opacity="0.8" stroke="white" stroke-opacity="0.8" stroke-miterlimit="10" stroke-linejoin="round"/>
<path d="M142.58 54.0843C144.867 53.0952 147.249 52.3418 149.688 51.8359C149.608 51.3314 149.52 50.8264 149.426 50.3144C146.977 50.8362 144.584 51.5974 142.284 52.5872C140.144 52.8444 138.022 53.2334 135.93 53.7521L135.858 53.7474L136.194 55.2537C138.295 54.7273 140.429 54.3367 142.58 54.0843V54.0843ZM142.287 52.734C144.54 51.7726 146.879 51.0304 149.273 50.5177L149.49 51.71C147.111 52.2177 144.789 52.9613 142.557 53.9297C140.442 54.1755 138.345 54.5573 136.279 55.0727L136.021 53.8911C138.091 53.3785 140.19 52.9925 142.307 52.7353L142.287 52.734Z" fill="white" fill-opacity="0.8" stroke="white" stroke-opacity="0.8" stroke-miterlimit="10" stroke-linejoin="round"/>
<path d="M147.558 58.4691C145.937 56.7329 144.107 55.2046 142.109 53.9193L142.751 52.7353C144.777 54.0605 146.638 55.6234 148.292 57.3908C148.045 57.7212 147.801 58.0985 147.558 58.4691Z" fill="white" fill-opacity="0.8" stroke="white" stroke-opacity="0.8" stroke-miterlimit="10" stroke-linejoin="round"/>
<path d="M148.386 57.3847C146.693 55.5691 144.783 53.9688 142.699 52.62L141.981 53.9457C144.02 55.253 145.886 56.8106 147.537 58.5821C147.837 58.1685 148.101 57.7793 148.386 57.3847ZM142.777 52.8514C144.758 54.1536 146.579 55.6823 148.205 57.4065C147.986 57.712 147.765 58.0441 147.552 58.3567C145.96 56.6557 144.167 55.1548 142.212 53.8872L142.777 52.8514Z" fill="white" fill-opacity="0.8" stroke="white" stroke-opacity="0.8" stroke-miterlimit="10" stroke-linejoin="round"/>
<path d="M0.632392 46.7043L0.339065 45.354C2.42848 44.8352 4.54824 44.4459 6.68568 44.1886C8.961 43.209 11.3259 42.4528 13.7475 41.9306L13.9877 43.2776C11.5845 43.7811 9.23751 44.5231 6.98165 45.4926C4.84109 45.7579 2.7202 46.1627 0.632392 46.7043V46.7043Z" fill="white" fill-opacity="0.8" stroke="white" stroke-opacity="0.8" stroke-miterlimit="10" stroke-linejoin="round"/>
<path d="M6.98352 45.6204C9.27027 44.6312 11.6519 43.8778 14.0916 43.372C14.0106 42.8674 13.9231 42.3625 13.8293 41.8505C11.3796 42.3722 8.98734 43.1335 6.68658 44.1233C4.54696 44.3804 2.42515 44.7694 0.333496 45.2881L0.260648 45.2835L0.596989 46.7898C2.69855 46.2634 4.83179 45.8728 6.98352 45.6204V45.6204ZM6.69052 44.2701C8.94264 43.3086 11.282 42.5664 13.6765 42.0538L13.8932 43.2461C11.5141 43.7538 9.19181 44.4973 6.96026 45.4657C4.84511 45.7115 2.74778 46.0934 0.681716 46.6088L0.424407 45.4272C2.49425 44.9146 4.59347 44.5286 6.71027 44.2713L6.69052 44.2701Z" fill="white" fill-opacity="0.8" stroke="white" stroke-opacity="0.8" stroke-miterlimit="10" stroke-linejoin="round"/>
<path d="M11.9634 50.0059C10.3426 48.2697 8.51253 46.7415 6.51521 45.4562L7.15695 44.2722C9.18316 45.5974 11.0435 47.1603 12.6982 48.9277C12.4507 49.2581 12.2068 49.6353 11.9634 50.0059Z" fill="white" fill-opacity="0.8" stroke="white" stroke-opacity="0.8" stroke-miterlimit="10" stroke-linejoin="round"/>
<path d="M12.7891 48.9215C11.0961 47.1058 9.18592 45.5055 7.10174 44.1568L6.3843 45.4824C8.42263 46.7898 10.2891 48.3474 11.9401 50.1189C12.2395 49.7053 12.5042 49.3161 12.7891 48.9215ZM7.18024 44.3881C9.16041 45.6903 10.9819 47.219 12.6079 48.9432C12.3886 49.2488 12.1676 49.5808 11.9545 49.8934C10.3625 48.1924 8.56944 46.6916 6.61463 45.4239L7.18024 44.3881Z" fill="white" fill-opacity="0.8" stroke="white" stroke-opacity="0.8" stroke-miterlimit="10" stroke-linejoin="round"/>
<path d="M99.9208 60.0774L99.7443 58.7127C102.292 58.442 104.862 58.4804 107.4 58.827C108.812 58.669 110.232 58.5901 111.652 58.591C112.371 58.5779 113.061 58.6309 113.785 58.6621C114.509 58.6934 115.248 58.7229 115.963 58.8388L115.923 60.2481C114.516 60.0646 113.036 60.0626 111.655 60.0048C110.947 60.0106 110.228 60.0475 109.534 60.0757L108.494 60.1299C108.147 60.156 107.766 60.2278 107.449 60.2506L105.58 60.0249L103.692 59.954L102.75 59.9286L101.811 59.9807C101.164 59.9948 100.539 60.0186 99.9208 60.0774Z" fill="white" fill-opacity="0.8" stroke="white" stroke-opacity="0.8" stroke-miterlimit="10" stroke-linejoin="round"/>
<path d="M107.424 60.3078C107.774 60.2633 108.144 60.199 108.483 60.1857L109.524 60.1314C110.226 60.1052 110.957 60.061 111.672 60.0663C113.079 60.1153 114.566 60.1287 115.991 60.3162L116.043 58.7412C115.333 58.6456 114.58 58.6176 113.854 58.5716C113.129 58.5256 112.42 58.4928 111.692 58.5038C110.258 58.5005 108.826 58.5796 107.401 58.7409C104.858 58.3921 102.282 58.3544 99.7302 58.6284L99.6419 58.638L99.8398 60.1707C100.466 60.0991 101.089 60.0846 101.723 60.039L102.673 59.9797C102.99 59.9808 103.303 60.0003 103.615 60.005L105.527 60.0763L107.424 60.3078ZM107.393 58.9123C108.789 58.7524 110.192 58.6733 111.597 58.6755C112.312 58.6569 112.997 58.7134 113.717 58.7391C114.437 58.7647 115.161 58.796 115.853 58.8876L115.821 60.1255L114.769 60.0138L113.693 59.9642L111.59 59.89C110.885 59.9014 110.177 59.9312 109.493 59.9614L108.468 60.0139C108.115 60.0436 107.773 60.0901 107.428 60.131L105.577 59.9094L103.704 59.8368L102.777 59.8099L101.844 59.8582L99.9918 59.9778L99.8423 58.7775C102.35 58.5256 104.88 58.5745 107.376 58.9231L107.393 58.9123Z" fill="white" fill-opacity="0.8" stroke="white" stroke-opacity="0.8" stroke-miterlimit="10" stroke-linejoin="round"/>
<path d="M112.118 66.1331C110.64 63.8839 108.89 61.8259 106.908 60.0054C107.239 59.6732 107.574 59.3464 107.918 59.0218C108.452 59.4937 108.956 59.9974 109.429 60.5301C109.89 61.0236 110.377 61.5471 110.817 62.0698C111.257 62.5925 111.66 63.1552 112.063 63.694L112.651 64.4843L113.195 65.3274L112.118 66.1331Z" fill="white" fill-opacity="0.8" stroke="white" stroke-opacity="0.8" stroke-miterlimit="10" stroke-linejoin="round"/>
<path d="M113.326 65.3651L112.771 64.5052C112.588 64.2204 112.383 63.9647 112.174 63.6888C111.774 63.1556 111.339 62.5907 110.901 62.0348C110.463 61.479 109.973 60.9887 109.487 60.456C109.001 59.9144 108.484 59.4001 107.941 58.9157C107.55 59.2784 107.172 59.6486 106.809 60.0172C108.825 61.8644 110.603 63.9549 112.103 66.2405C112.499 65.9461 112.912 65.6555 113.326 65.3651ZM107.937 59.1553C108.456 59.6195 108.948 60.1124 109.411 60.6317C109.872 61.1253 110.327 61.6224 110.76 62.134C111.192 62.6455 111.58 63.1859 111.98 63.719C112.379 64.2317 112.752 64.7646 113.096 65.3155L112.138 66.0123C110.688 63.8156 108.978 61.8021 107.045 60.0154L107.937 59.1553Z" fill="white" fill-opacity="0.8" stroke="white" stroke-opacity="0.8" stroke-miterlimit="10" stroke-linejoin="round"/>
<path d="M175.67 67.4269L175.16 66.1426C177.489 65.2455 179.89 64.5482 182.337 64.0584C184.829 62.8715 187.399 61.8547 190.029 61.015L190.518 62.318C187.882 63.1556 185.308 64.1744 182.813 65.3671C180.377 65.8454 177.987 66.5346 175.67 67.4269V67.4269Z" fill="white" fill-opacity="0.8" stroke="white" stroke-opacity="0.8" stroke-miterlimit="10" stroke-linejoin="round"/>
<path d="M182.83 65.4475C185.354 64.2387 187.96 63.2107 190.63 62.3711L190.058 60.9031C187.4 61.7515 184.803 62.7799 182.284 63.9812C179.834 64.4659 177.43 65.1631 175.1 66.0649L175.021 66.0598L175.595 67.4947C177.943 66.6055 180.364 65.9205 182.83 65.4475V65.4475ZM182.361 64.1392C184.829 62.9623 187.374 61.9529 189.978 61.1177L190.41 62.2639C187.803 63.0949 185.256 64.1043 182.787 65.2849C180.378 65.7608 178.013 66.4404 175.719 67.3162L175.272 66.1891C177.573 65.3063 179.944 64.6205 182.361 64.1392V64.1392Z" fill="white" fill-opacity="0.8" stroke="white" stroke-opacity="0.8" stroke-miterlimit="10" stroke-linejoin="round"/>
<path d="M189.318 69.2384C187.079 67.7526 184.724 66.4486 182.277 65.3391L182.896 64.0871C185.378 65.2259 187.764 66.563 190.03 68.0855L189.318 69.2384Z" fill="white" fill-opacity="0.8" stroke="white" stroke-opacity="0.8" stroke-miterlimit="10" stroke-linejoin="round"/>
<path d="M190.148 68.0597C187.834 66.4996 185.397 65.1323 182.859 63.9714L182.163 65.3851C184.664 66.5056 187.066 67.8328 189.346 69.3532L190.148 68.0597ZM182.938 64.1962C185.366 65.313 187.703 66.6202 189.925 68.1053L189.301 69.124C187.101 67.6694 184.789 66.3906 182.388 65.2996L182.938 64.1962Z" fill="white" fill-opacity="0.8" stroke="white" stroke-opacity="0.8" stroke-miterlimit="10" stroke-linejoin="round"/>
<path d="M32.0274 58.4492L31.5169 57.1649C33.8459 56.2678 36.2471 55.5706 38.6944 55.0807C41.1866 53.8938 43.7565 52.877 46.3861 52.0374L46.8753 53.3404C44.2396 54.1779 41.6652 55.1967 39.1702 56.3895C36.7341 56.8677 34.3441 57.5569 32.0274 58.4492V58.4492Z" fill="white" fill-opacity="0.8" stroke="white" stroke-opacity="0.8" stroke-miterlimit="10" stroke-linejoin="round"/>
<path d="M39.1872 56.4697C41.7112 55.261 44.3177 54.233 46.9873 53.3934L46.4154 51.9254C43.7574 52.7738 41.1602 53.8022 38.6418 55.0035C36.1912 55.4882 33.7875 56.1853 31.4579 57.0872L31.3782 57.0821L31.9522 58.517C34.3005 57.6278 36.7211 56.9428 39.1872 56.4697V56.4697ZM38.7182 55.1615C41.1866 53.9846 43.7312 52.9752 46.3351 52.14L46.7679 53.2861C44.1605 54.1172 41.6132 55.1266 39.1443 56.3072C36.7352 56.7831 34.3709 57.4626 32.0768 58.3385L31.6297 57.2114C33.9303 56.3286 36.3015 55.6428 38.7182 55.1615V55.1615Z" fill="white" fill-opacity="0.8" stroke="white" stroke-opacity="0.8" stroke-miterlimit="10" stroke-linejoin="round"/>
<path d="M45.6745 60.2607C43.4355 58.7749 41.0811 57.4709 38.6337 56.3614L39.2531 55.1094C41.735 56.2482 44.1206 57.5853 46.3874 59.1078L45.6745 60.2607Z" fill="white" fill-opacity="0.8" stroke="white" stroke-opacity="0.8" stroke-miterlimit="10" stroke-linejoin="round"/>
<path d="M46.5051 59.0818C44.1916 57.5218 41.7537 56.1544 39.2163 54.9936L38.5202 56.4072C41.0209 57.5277 43.4235 58.855 45.7033 60.3754L46.5051 59.0818ZM39.2952 55.2183C41.7237 56.3352 44.0601 57.6423 46.2824 59.1275L45.6578 60.1461C43.4577 58.6915 41.1463 57.4128 38.7451 56.3217L39.2952 55.2183Z" fill="white" fill-opacity="0.8" stroke="white" stroke-opacity="0.8" stroke-miterlimit="10" stroke-linejoin="round"/>
<path d="M249.048 67.7546L248.802 66.4049C249.956 66.2012 251.126 66.0224 252.295 65.8305C253.463 65.6385 254.652 65.5646 255.834 65.4313C258.36 64.516 260.936 63.7475 263.551 63.1298L263.923 64.4719C262.572 64.7647 261.251 65.1412 259.957 65.5278C258.663 65.9145 257.377 66.3671 256.141 66.794C254.948 66.8818 253.758 67.0628 252.576 67.1961C251.394 67.3294 250.218 67.5693 249.048 67.7546Z" fill="white" fill-opacity="0.8" stroke="white" stroke-opacity="0.8" stroke-miterlimit="10" stroke-linejoin="round"/>
<path d="M256.155 66.8731C257.444 66.4402 258.726 65.9544 260.023 65.5942L262.011 65.0222C262.66 64.8421 263.359 64.6966 264.042 64.5326L263.632 63.0274C260.989 63.65 258.384 64.424 255.829 65.3453C254.641 65.4794 253.459 65.6127 252.29 65.7445C251.122 65.8763 249.951 66.1085 248.797 66.3122L248.711 66.3219L248.996 67.8409C250.171 67.6415 251.358 67.4409 252.555 67.2657C253.753 67.0906 254.943 66.9697 256.155 66.8731ZM255.848 65.5104C258.352 64.609 260.905 63.8478 263.494 63.2303L263.821 64.4103C261.213 65.0206 258.645 65.7882 256.13 66.7088C254.944 66.8024 253.773 66.9746 252.604 67.1064C251.436 67.2382 250.272 67.4763 249.116 67.6602L248.902 66.4676L252.349 65.9115C253.511 65.7805 254.678 65.629 255.848 65.5104Z" fill="white" fill-opacity="0.8" stroke="white" stroke-opacity="0.8" stroke-miterlimit="10" stroke-linejoin="round"/>
<path d="M262.142 71.2653C261.132 70.4364 260.072 69.6932 258.986 68.8996C257.901 68.106 256.814 67.4264 255.628 66.6909L256.36 65.5316C258.649 66.9407 260.85 68.4904 262.948 70.1714L262.142 71.2653Z" fill="white" fill-opacity="0.8" stroke="white" stroke-opacity="0.8" stroke-miterlimit="10" stroke-linejoin="round"/>
<path d="M263.062 70.1603C262.015 69.2955 260.93 68.5018 259.81 67.7053C258.69 66.9088 257.525 66.1778 256.336 65.4225L255.514 66.7256C256.695 67.475 257.841 68.2084 258.944 68.98C260.047 69.7515 261.127 70.5458 262.158 71.3923L263.062 70.1603ZM256.388 65.6442C258.629 67.0267 260.784 68.5453 262.839 70.1921L262.131 71.1547C261.137 70.3375 260.099 69.612 259.034 68.8294C257.97 68.0468 256.865 67.3822 255.74 66.6599L256.388 65.6442Z" fill="white" fill-opacity="0.8" stroke="white" stroke-opacity="0.8" stroke-miterlimit="10" stroke-linejoin="round"/>
<path d="M210.308 57.9676L209.831 56.679C210.824 56.2564 211.877 55.9177 212.874 55.542C213.87 55.1663 214.912 54.9001 215.991 54.5896C217.031 53.9304 218.104 53.393 219.204 52.7509C220.304 52.1089 221.42 51.6213 222.562 51.0551L223.146 52.324C221.987 52.8557 220.863 53.4564 219.756 54.018C218.648 54.5796 217.575 55.2102 216.527 55.8755C214.418 56.4586 212.341 57.1569 210.308 57.9676V57.9676Z" fill="white" fill-opacity="0.8" stroke="white" stroke-opacity="0.8" stroke-miterlimit="10" stroke-linejoin="round"/>
<path d="M216.547 56.0036C217.607 55.359 218.698 54.7496 219.81 54.1217C220.922 53.4937 222.077 52.9353 223.248 52.4177L222.633 51C221.477 51.5918 220.345 52.1118 219.235 52.7C218.126 53.2882 217.042 53.8913 215.994 54.5567C214.948 54.8759 213.893 55.1415 212.877 55.5159C211.861 55.8903 210.835 56.204 209.837 56.6195L209.768 56.6486L210.301 58.0943C212.344 57.2855 214.429 56.5875 216.547 56.0036V56.0036ZM216.043 54.7198C217.071 54.0664 218.118 53.5207 219.223 52.8923C220.328 52.264 221.425 51.7816 222.553 51.2146L223.041 52.331C221.895 52.8635 220.779 53.4515 219.684 54.0073C218.59 54.5632 217.531 55.201 216.497 55.8473C214.421 56.4148 212.377 57.0952 210.375 57.8857L209.962 56.7475C211.94 55.9554 213.959 55.271 216.012 54.6976L216.043 54.7198Z" fill="white" fill-opacity="0.8" stroke="white" stroke-opacity="0.8" stroke-miterlimit="10" stroke-linejoin="round"/>
<path d="M222.62 59.3557C220.488 58.0753 218.283 56.9205 216.016 55.8972L216.479 54.5952C217.656 55.1366 218.799 55.7021 219.908 56.2658C221.017 56.8294 222.114 57.4723 223.172 58.1059C222.985 58.5334 222.799 58.9411 222.62 59.3557Z" fill="white" fill-opacity="0.8" stroke="white" stroke-opacity="0.8" stroke-miterlimit="10" stroke-linejoin="round"/>
<path d="M223.262 58.1054C222.186 57.444 221.079 56.8473 219.934 56.2215C218.788 55.5956 217.631 55.0621 216.434 54.5129L215.917 55.9447C218.228 56.9846 220.476 58.1597 222.649 59.4644C222.851 59.0046 223.04 58.5506 223.262 58.1054ZM216.52 54.7248C217.665 55.2575 218.788 55.8154 219.871 56.3641C220.955 56.9128 222.032 57.5542 223.085 58.1675L222.603 59.2417C220.509 57.9932 218.348 56.8616 216.129 55.8516L216.52 54.7248Z" fill="white" fill-opacity="0.8" stroke="white" stroke-opacity="0.8" stroke-miterlimit="10" stroke-linejoin="round"/>
<path d="M66.6644 48.9903L66.1876 47.7017C67.18 47.2791 68.2336 46.9404 69.2297 46.5647C70.2258 46.189 71.2682 45.9228 72.3467 45.6123C73.3876 44.9531 74.4606 44.4157 75.5603 43.7736C76.66 43.1316 77.7764 42.644 78.9179 42.0778L79.5025 43.3467C78.3433 43.8784 77.2196 44.4791 76.1117 45.0407C75.0039 45.6023 73.9315 46.2329 72.8836 46.8982C70.7738 47.4813 68.6976 48.1796 66.6644 48.9903V48.9903Z" fill="white" fill-opacity="0.8" stroke="white" stroke-opacity="0.8" stroke-miterlimit="10" stroke-linejoin="round"/>
<path d="M72.9022 47.026C73.9621 46.3814 75.0531 45.772 76.1652 45.1441C77.2773 44.5161 78.4315 43.9577 79.6031 43.4401L78.9881 42.0224C77.8317 42.6142 76.6999 43.1342 75.5903 43.7224C74.4808 44.3106 73.3969 44.9137 72.349 45.5791C71.3033 45.8983 70.2476 46.1639 69.2316 46.5383C68.2156 46.9127 67.1902 47.2264 66.1916 47.6419L66.1231 47.671L66.6565 49.1167C68.6992 48.3079 70.7842 47.6099 72.9022 47.026V47.026ZM72.3985 45.7422C73.4256 45.0888 74.4725 44.5431 75.578 43.9147C76.6835 43.2864 77.7797 42.804 78.9078 42.237L79.3957 43.3534C78.2497 43.8859 77.1335 44.4739 76.0394 45.0297C74.9452 45.5856 73.8857 46.2234 72.8523 46.8697C70.7759 47.4372 68.732 48.1176 66.7298 48.9081L66.3166 47.7699C68.2947 46.9778 70.3143 46.2934 72.3666 45.72L72.3985 45.7422Z" fill="white" fill-opacity="0.8" stroke="white" stroke-opacity="0.8" stroke-miterlimit="10" stroke-linejoin="round"/>
<path d="M78.9758 50.3782C76.8439 49.0979 74.6391 47.943 72.3726 46.9197L72.8355 45.6177C74.0126 46.1591 75.1548 46.7247 76.2639 47.2883C77.373 47.8519 78.4705 48.4949 79.5285 49.1285C79.3414 49.5559 79.1554 49.9636 78.9758 50.3782Z" fill="white" fill-opacity="0.8" stroke="white" stroke-opacity="0.8" stroke-miterlimit="10" stroke-linejoin="round"/>
<path d="M79.618 49.1278C78.5418 48.4664 77.4348 47.8697 76.2897 47.2439C75.1446 46.618 73.9869 46.0845 72.7904 45.5353L72.2727 46.9671C74.5841 48.007 76.8321 49.1821 79.0051 50.4868C79.2076 50.027 79.3965 49.573 79.618 49.1278ZM72.8767 45.7472C74.0211 46.2799 75.1439 46.8378 76.2273 47.3865C77.3108 47.9352 78.3883 48.5766 79.441 49.1899L78.9594 50.2641C76.8654 49.0156 74.704 47.884 72.485 46.874L72.8767 45.7472Z" fill="white" fill-opacity="0.8" stroke="white" stroke-opacity="0.8" stroke-miterlimit="10" stroke-linejoin="round"/>
<path d="M286.071 58.2198L285.702 56.8963C286.726 56.5569 287.804 56.306 288.828 56.0135C289.851 55.7211 290.912 55.5416 292.012 55.3208C293.104 54.7496 294.218 54.3023 295.366 53.7529C296.515 53.2035 297.668 52.8094 298.852 52.3391L299.33 53.6518C298.131 54.0863 296.962 54.5925 295.812 55.061C294.661 55.5296 293.541 56.0698 292.442 56.6466C290.291 57.0541 288.164 57.5792 286.071 58.2198V58.2198Z" fill="white" fill-opacity="0.8" stroke="white" stroke-opacity="0.8" stroke-miterlimit="10" stroke-linejoin="round"/>
<path d="M292.448 56.7765C293.558 56.2213 294.695 55.7037 295.855 55.1694C297.015 54.6351 298.211 54.1736 299.422 53.7541L298.925 52.2906C297.724 52.7852 296.553 53.2104 295.399 53.7053C294.245 54.2001 293.115 54.7121 292.016 55.2889C290.948 55.5211 289.874 55.6988 288.83 55.9884C287.787 56.2779 286.739 56.5062 285.71 56.8381L285.639 56.8615L286.052 58.3461C288.154 57.7081 290.289 57.1841 292.448 56.7765V56.7765ZM292.052 55.4556C293.129 54.8889 294.218 54.4312 295.371 53.8959C296.524 53.3606 297.657 52.9701 298.828 52.4979L299.222 53.6506C298.036 54.0871 296.875 54.5812 295.739 55.0451C294.603 55.509 293.495 56.0575 292.411 56.6166C290.295 57.0113 288.202 57.5212 286.142 58.1443L285.824 56.9759C287.86 56.3492 289.929 55.8334 292.022 55.4308L292.052 55.4556Z" fill="white" fill-opacity="0.8" stroke="white" stroke-opacity="0.8" stroke-miterlimit="10" stroke-linejoin="round"/>
<path d="M298.226 60.6163C296.206 59.1649 294.104 57.8325 291.929 56.6262L292.498 55.3667C293.626 56.0031 294.718 56.6607 295.777 57.3137C296.836 57.9667 297.877 58.6977 298.879 59.4163C298.658 59.8269 298.439 60.2179 298.226 60.6163Z" fill="white" fill-opacity="0.8" stroke="white" stroke-opacity="0.8" stroke-miterlimit="10" stroke-linejoin="round"/>
<path d="M298.973 59.4233C297.955 58.6756 296.9 57.9899 295.811 57.2719C294.721 56.5539 293.611 55.927 292.464 55.2812L291.83 56.6655C294.048 57.8921 296.192 59.2482 298.25 60.7273C298.49 60.2857 298.715 59.8488 298.973 59.4233ZM292.532 55.4995C293.629 56.1245 294.702 56.7729 295.737 57.4089C296.771 58.0449 297.793 58.7728 298.791 59.4707L298.223 60.5016C296.239 59.085 294.178 57.7794 292.049 56.5902L292.532 55.4995Z" fill="white" fill-opacity="0.8" stroke="white" stroke-opacity="0.8" stroke-miterlimit="10" stroke-linejoin="round"/>
</g>
<defs>
<clipPath id="clip0_309_317">
<rect width="300" height="300" fill="white"/>
</clipPath>
</defs>
</svg>
