<?xml version="1.0" encoding="utf-8"?>
<!-- Generator: Adobe Illustrator 25.4.1, SVG Export Plug-In . SVG Version: 6.00 Build 0)  -->
<svg version="1.1" id="Слой_1" xmlns="http://www.w3.org/2000/svg" xmlns:xlink="http://www.w3.org/1999/xlink" x="0px" y="0px"
	 viewBox="0 0 1428 221" style="enable-background:new 0 0 1428 221;" xml:space="preserve">
<style type="text/css">
	.st0{fill:#FC565D;}
</style>
<path class="st0" d="M110.1,0.5c-60.6,0-110,49.1-110,110c0,60.6,49.3,110,110,110c12,0,23.5-2.1,34.3-5.6l-16.9-29.6
	c-5.6,1.4-11.3,2.1-17.4,2.1c-42.3,0-76.8-34.5-76.8-76.8s34.5-76.8,76.8-76.8s76.8,34.5,76.8,76.8c0,15.3-4.5,29.6-12.5,41.4
	c-9.4,14.1-20-4-20-11c0-12,0-56.6,0-56.6c0-0.2,0-0.5,0-0.5c0-17.9-16.2-36.4-43.5-36.4c-22.3,0-37.8,12.5-40,14.3L68.3,64
	l18.6,22.1l3.1-2.6c0,0,8.9-7.3,21.2-7.3c9.9,0,14.3,4.9,14.6,7.3v1.2c-0.2,3.1-1.9,8-19.3,11.5l-1.2,0.2c-28.4,5.4-43,19.3-43,41.1
	c0,17.9,16.2,36.2,43.5,36.2c9.6,0,18.1-2.4,24.7-5.2c4.9,10.3,13.4,21.6,27.7,24.4c19.7,4,37.1-12.5,43.5-21.4
	c12.5-17.4,18.6-38.3,18.6-61.1C220.1,49.6,171,0.5,110.1,0.5z M125.6,138.5c-2.8,1.9-10.3,6.3-20,6.3c-10.3,0-14.6-5.2-14.6-7.3
	c0-3.5,0-8.9,18.6-12.7h1.2c5.4-1.2,10.3-2.3,14.8-4V138.5z M356,64.2l-24.7-24.7l-55.2,55V44h-35.3v153.7h35.3v-51l55.7,55.7
	l24.9-25.1l-56.9-56.9L356,64.2z M448.8,141.1c0,12.5-10.1,24.7-22.6,24.7c-12.2,0-22.3-12.2-22.3-24.7c0-25.1,0-100.1,0-100.1
	h-35.2c0,0,0,75,0,100.1c0,31.7,25.9,57.6,57.6,57.6c32,0,57.8-25.9,57.8-57.6c0-25.1,0-100.1,0-100.1h-35.2
	C448.8,40.9,448.8,115.9,448.8,141.1z M552.9,42.4c-12.2,0-49.1,0-49.1,0V196c0,0,36.9,0,49.1,0c42.3,0,76.8-34.3,76.8-76.8
	C629.8,76.9,595.2,42.4,552.9,42.4z M552.9,161c-3.5,0-13.9,0-13.9,0V77.6c0,0,10.3,0,13.9,0c22.8,0,41.6,18.8,41.6,41.6
	C594.5,142.2,575.7,161,552.9,161z M753.5,100.9c0-32-25.8-57.8-57.6-57.8c-12.2,0-48.9,0-48.9,0v153.7h35.2v-38.3
	c0,0,10.1,0,13.6,0c2.4,0,4.9-0.2,7.3-0.5l22.3,38.8l30.5-17.6l-20.9-36.2C746.5,132.4,753.5,117.3,753.5,100.9z M695.9,123.2
	c-3.5,0-13.6,0-13.6,0V78.3c0,0,10.1,0,13.6,0c12.5,0,24.7,10.1,24.7,22.6C720.6,113.1,708.4,123.2,695.9,123.2z M819,41.2
	l-53.1,146.2l33.1,12l11.5-31.5H863l11.5,31.5l32.9-12L854.3,41.4L819,41.2z M823.3,132.6l13.4-36.9l13.4,36.9H823.3z M968.4,142.9
	L930.8,39.3l-33.1,12L951,197.2h35l53.1-145.9l-32.9-12L968.4,142.9z M1075.8,41.2l-53.1,146.2l33.1,12l11.5-31.5h52.4l11.5,31.5
	l32.9-12l-53.1-145.9L1075.8,41.2z M1080.1,132.6l13.4-36.9l13.4,36.9H1080.1z M1246.1,141.8c0,12.5-10.1,24.7-22.6,24.7
	c-12.2,0-22.3-12.2-22.3-24.7h-35.2c0,31.7,25.8,57.6,57.6,57.6c32,0,57.8-25.8,57.8-57.6c0-25.1,0-100.1,0-100.1h-35.2
	C1246.1,41.6,1246.1,116.6,1246.1,141.8z M1339.5,41.2l-53.1,146.2l33.1,12l11.5-31.5h52.4l11.5,31.5l32.9-12l-53.1-145.9
	L1339.5,41.2z M1343.8,132.6l13.4-36.9l13.4,36.9H1343.8z"/>
</svg>
