<?xml version="1.0" encoding="utf-8"?>
<!-- Generator: Adobe Illustrator 25.4.1, SVG Export Plug-In . SVG Version: 6.00 Build 0)  -->
<svg version="1.1" id="Слой_1" xmlns="http://www.w3.org/2000/svg" xmlns:xlink="http://www.w3.org/1999/xlink" x="0px" y="0px"
	 viewBox="0 0 1428 221" style="enable-background:new 0 0 1428 221;" xml:space="preserve">
<style type="text/css">
	.st0{fill:#FC565D;}
</style>
<path class="st0" d="M110.1,5.5c28.1,0,54.5,10.9,74.3,30.7s30.7,46.2,30.7,74.3c0,22.3-5.9,41.9-17.6,58.2
	c-4.9,6.9-18.1,19.9-33.3,19.9c-1.7,0-3.5-0.2-5.2-0.5c-10.1-2-18.3-9.3-24.2-21.7l-2.1-4.3l-4.4,1.9c-7.4,3.2-15,4.8-22.7,4.8
	c-24.1,0-38.5-15.9-38.5-31.2c0-9.6,3-17.1,9.3-23.1c6.5-6.2,16.4-10.6,29.7-13.1l1.2-0.2c15.5-3.1,22.7-8.1,23.3-16l0-0.2v-0.2
	v-1.2v-0.2l0-0.2c-0.5-4.9-6.9-11.8-19.5-11.8c-11.9,0-21,6-23.6,7.8L75.3,64.6c3.6-2.8,17.1-12.3,35.7-12.3
	c24.1,0,38.5,16,38.5,31.4v0.5v56.6c0,7.5,7.2,21.3,17.4,21.3c3.1,0,7.6-1.3,11.7-7.4c8.7-12.8,13.3-28.1,13.3-44.2
	c0-45.1-36.7-81.8-81.8-81.8s-81.8,36.7-81.8,81.8s36.7,81.8,81.8,81.8c5.1,0,10-0.5,14.9-1.4l12,20.9c-9,2.4-18,3.6-26.8,3.6
	c-57.9,0-105-47.1-105-105C5.1,82.4,16,56,35.9,36.2C55.7,16.4,82.1,5.5,110.1,5.5 M110.3,119.8h-0.6h-0.5l-0.5,0.1
	c-19.8,4-22.6,10.8-22.6,17.6c0,5,6.2,12.3,19.6,12.3c10.4,0,18.7-4.5,22.7-7.2l2.2-1.5v-2.7v-17.6v-7.2l-6.7,2.5
	C120,117.6,115.6,118.7,110.3,119.8 M927.8,45.7l35.9,98.9l4.7,12.9l4.7-12.9l36.1-98.9l23.5,8.6l-50.2,137.9h-28L904.1,54.3
	L927.8,45.7 M479.1,45.9v95.1c0,29-23.7,52.6-52.8,52.6c-29,0-52.6-23.6-52.6-52.6V45.9h25.2v95.1c0,15.8,12.8,29.7,27.3,29.7
	c14.7,0,27.6-13.9,27.6-29.7V45.9H479.1 M822.5,46.2l28.2,0.2l50.2,138l-23.5,8.6l-9.8-26.8l-1.2-3.3H863h-52.4h-3.5l-1.2,3.3
	l-9.8,26.8l-23.7-8.6L822.5,46.2 M816.1,137.6h7.1h26.8h7.1l-2.4-6.7L841.4,94L836.7,81L832,94l-13.4,36.9L816.1,137.6 M1343,46.2
	l28.2,0.2l50.2,138l-23.5,8.6l-9.8-26.8l-1.2-3.3h-3.5h-52.4h-3.5l-1.2,3.3l-9.8,26.8l-23.7-8.6L1343,46.2 M1336.6,137.6h7.1h26.8
	h7.1l-2.4-6.7L1361.8,94l-4.7-12.9l-4.7,12.9l-13.4,36.9L1336.6,137.6 M1079.3,46.2l28.2,0.2l50.2,138l-23.5,8.6l-9.8-26.8l-1.2-3.3
	h-3.5h-52.4h-3.5l-1.2,3.3l-9.8,26.8l-23.7-8.6L1079.3,46.2 M1072.9,137.6h7.1h26.8h7.1l-2.4-6.7L1098.2,94l-4.7-12.9l-4.7,12.9
	l-13.4,36.9L1072.9,137.6 M331.3,46.6l17.6,17.6l-52.6,52.6l-3.5,3.5l3.5,3.5l53.4,53.4l-17.9,18l-52.1-52.1l-8.5-8.5v12.1v46h-25.3
	V49h25.3v45.5v12l8.5-8.5L331.3,46.6 M1276.3,46.6v95.1c0,29-23.7,52.6-52.8,52.6c-27.3,0-49.8-20.9-52.3-47.6h25.4
	c2.3,13.6,13.9,24.7,26.9,24.7c14.7,0,27.6-13.9,27.6-29.7V46.6H1276.3 M552.9,47.4c39.6,0,71.8,32.2,71.8,71.8S592.6,191,552.9,191
	h-44.1V47.4H552.9 M534.1,166h5h13.9c25.7,0,46.6-21,46.6-46.8c0-12.4-4.9-24-13.7-32.9c-8.8-8.8-20.5-13.7-32.9-13.7h-13.9h-5v5
	V161V166 M695.9,48.1c29,0,52.6,23.7,52.6,52.8c0,14.4-6.1,28.4-16.7,38.4l-2.9,2.7l2,3.4l18.4,31.9l-21.9,12.6l-19.8-34.4l-1.6-2.8
	l-3.2,0.3c-2.2,0.2-4.6,0.4-6.8,0.4h-13.6h-5v5v33.3h-25.2V48.1H695.9 M677.3,128.2h5h13.6c15.8,0,29.7-12.8,29.7-27.3
	c0-14.7-13.9-27.6-29.7-27.6h-13.6h-5v5v44.9V128.2 M110.1,0.5c-60.6,0-110,49.1-110,110c0,60.6,49.3,110,110,110
	c12,0,23.5-2.1,34.3-5.6l-16.9-29.6c-5.6,1.4-11.3,2.1-17.4,2.1c-42.3,0-76.8-34.5-76.8-76.8s34.5-76.8,76.8-76.8
	c42.3,0,76.8,34.5,76.8,76.8c0,15.3-4.5,29.6-12.5,41.4c-2.5,3.8-5.1,5.2-7.6,5.2c-6.7,0-12.4-11.1-12.4-16.3c0-12,0-56.6,0-56.6
	c0-0.2,0-0.5,0-0.5c0-17.9-16.2-36.4-43.5-36.4c-22.3,0-37.8,12.5-40,14.3L68.3,64l18.6,22.1l3.1-2.6c0,0,8.9-7.3,21.2-7.3
	c9.9,0,14.3,4.9,14.6,7.3v1.2c-0.2,3.1-1.9,8-19.3,11.5l-1.2,0.2c-28.4,5.4-43,19.3-43,41.1c0,17.9,16.2,36.2,43.5,36.2
	c9.6,0,18.1-2.3,24.7-5.2c4.9,10.3,13.4,21.6,27.7,24.4c2.1,0.4,4.1,0.6,6.1,0.6c17.1,0,31.7-14,37.3-22
	c12.5-17.4,18.6-38.3,18.6-61.1C220.1,49.6,171,0.5,110.1,0.5L110.1,0.5z M105.6,144.8c-10.3,0-14.6-5.2-14.6-7.3
	c0-3.5,0-8.9,18.6-12.7h1.2c5.4-1.2,10.3-2.3,14.8-4v17.6C122.8,140.3,115.3,144.8,105.6,144.8L105.6,144.8z M1006.2,39.3
	l-37.8,103.6L930.8,39.3l-33.1,12L951,197.2h35l53.1-145.9L1006.2,39.3L1006.2,39.3z M331.3,39.5l-55.2,55V44h-35.3v153.7h35.3v-51
	l55.7,55.7l24.9-25.1l-56.9-56.9L356,64.2L331.3,39.5L331.3,39.5z M484.1,40.9h-35.2c0,0,0,75,0,100.1c0,12.5-10.1,24.7-22.6,24.7
	c-12.2,0-22.3-12.2-22.3-24.7c0-25.1,0-100.1,0-100.1h-35.2c0,0,0,75,0,100.1c0,31.7,25.9,57.6,57.6,57.6c32,0,57.8-25.9,57.8-57.6
	C484.1,115.9,484.1,40.9,484.1,40.9L484.1,40.9z M1339.5,41.2l-53.1,146.2l33.1,12l11.5-31.5h52.4l11.5,31.5l32.9-12l-53.1-145.9
	L1339.5,41.2L1339.5,41.2z M1343.8,132.6l13.4-36.9l13.4,36.9H1343.8L1343.8,132.6z M1075.8,41.2l-53.1,146.2l33.1,12l11.5-31.5
	h52.4l11.5,31.5l32.9-12l-53.1-145.9L1075.8,41.2L1075.8,41.2z M1080.1,132.6l13.4-36.9l13.4,36.9H1080.1L1080.1,132.6z M819,41.2
	l-53.1,146.2l33.1,12l11.5-31.5H863l11.5,31.5l32.9-12L854.3,41.4L819,41.2L819,41.2z M823.3,132.6l13.4-36.9l13.4,36.9H823.3
	L823.3,132.6z M1281.3,41.6h-35.2c0,0,0,75,0,100.1c0,12.5-10.1,24.7-22.6,24.7c-12.2,0-22.3-12.2-22.3-24.7h-35.2
	c0,31.7,25.8,57.6,57.6,57.6c32,0,57.8-25.9,57.8-57.6C1281.3,116.6,1281.3,41.6,1281.3,41.6L1281.3,41.6z M552.9,42.4
	c-12.2,0-49.1,0-49.1,0V196c0,0,36.9,0,49.1,0c42.3,0,76.8-34.3,76.8-76.8C629.8,76.9,595.2,42.4,552.9,42.4L552.9,42.4z M539.1,161
	V77.6c0,0,10.3,0,13.9,0c22.8,0,41.6,18.8,41.6,41.6c0,23-18.8,41.8-41.6,41.8C549.4,161,539.1,161,539.1,161L539.1,161z
	 M695.9,43.1c-12.2,0-48.9,0-48.9,0v153.7h35.2v-38.3c0,0,10.1,0,13.6,0c2.4,0,4.9-0.2,7.3-0.5l22.3,38.8l30.5-17.6l-20.9-36.2
	c11.3-10.6,18.3-25.6,18.3-42.1C753.5,68.9,727.7,43.1,695.9,43.1L695.9,43.1z M682.3,123.2V78.3c0,0,10.1,0,13.6,0
	c12.5,0,24.7,10.1,24.7,22.6c0,12.2-12.2,22.3-24.7,22.3C692.4,123.2,682.3,123.2,682.3,123.2L682.3,123.2z"/>
</svg>
