<svg width="164" height="164" viewBox="0 0 164 164" fill="none" xmlns="http://www.w3.org/2000/svg">
<path fill-rule="evenodd" clip-rule="evenodd" d="M-0.000244141 164L-0.000222635 3.05176e-05L164 5.20236e-05L164 164L-0.000244141 164ZM3.99976 160L160 160L160 4.00005L3.99978 4.00003L3.99976 160Z" fill="#FC565D"/>
<path d="M110 56.4892L84.0216 82.3372V120H79.9918V82.3372L54 56.4892L56.8477 53.6558L79.9918 76.6705V47H84.0216V76.6705L107.152 53.6558L110 56.4892Z" fill="#FC565D"/>
<path fill-rule="evenodd" clip-rule="evenodd" d="M79.4918 46.5H84.5216V75.4676L107.152 52.9505L110.709 56.4892L84.5216 82.5451V120.5H79.4918V82.5452L53.291 56.4893L56.8476 52.9506L79.4918 75.4681V46.5ZM80.4918 47.5V77.8728L56.8478 54.361L54.709 56.4891L80.4918 82.1293V119.5H83.5216V82.1294L109.291 56.4892L107.152 54.3611L83.5216 77.8733V47.5H80.4918Z" fill="#FC565D"/>
</svg>
